<?xml version="1.0" standalone="no"?>
<!DOCTYPE svg PUBLIC "-//W3C//DTD SVG 1.1//EN" "http://www.w3.org/Graphics/SVG/1.1/DTD/svg11.dtd" >
<svg xmlns="http://www.w3.org/2000/svg" xmlns:xlink="http://www.w3.org/1999/xlink" version="1.1">
<metadata>
Created by FontForge 20170924 at Tue Mar 19 19:16:49 2019
 By www-data
\(c\) 2018 by Jeremy Schneider. All rights reserved.
</metadata>
<defs>
<font id="Love-Regular" horiz-adv-x="0" >
  <font-face 
    font-family="Love"
    font-weight="400"
    font-stretch="normal"
    units-per-em="4000"
    panose-1="2 1 5 4 2 1 1 1 1 2"
    ascent="3200"
    descent="-800"
    x-height="2800"
    cap-height="2800"
    bbox="-1567 -767 5923 3450"
    underline-thickness="104"
    underline-position="-500"
    stemh="18"
    stemv="135"
    unicode-range="U+000D-FEFF"
  />
<missing-glyph horiz-adv-x="1853" 
d="M179 0v2800h1495v-2800h-1495zM268 89h1317v2622h-1317v-2622z" />
    <glyph glyph-name="A_C" unicode="AC" horiz-adv-x="4754" 
d="M3320 -13c-359 0 -739 156 -1022 457c-237 255 -345 560 -600 1182h-793l-587 -1509c-39 -102 67 -99 85 -99v-18h-246v18h27c31 0 80 18 118 113l975 2511c-40 103 -99 139 -157 139v18h394v-18c-53 0 -143 -23 -103 -117l511 -1230c9 761 667 1379 1381 1379
c586 0 1092 -358 1316 -904h-134c-251 488 -753 815 -1295 815c-672 0 -1187 -524 -1187 -1210c0 -833 689 -1442 1377 -1442c560 0 1028 336 1194 784h18c-206 -533 -735 -869 -1272 -869zM1286 2615l-375 -971h782z" />
    <glyph glyph-name="A_G" unicode="AG" horiz-adv-x="5368" 
d="M3351 -13c-667 0 -1141 369 -1411 1039l-242 600h-790l-594 -1518c-37 -94 71 -90 89 -90v-18h-246v18c76 0 106 23 134 94l988 2533c-40 107 -87 137 -159 137v18h399v-18c-54 0 -144 -22 -108 -107l511 -1228c22 753 650 1366 1411 1366c614 0 1120 -376 1326 -896
h-139c-246 475 -743 816 -1299 816c-694 0 -1205 -529 -1214 -1223c-18 -793 650 -1443 1410 -1443c745 0 1256 551 1260 1219h-672v22h1250v-22h-502v-1210h-22l-40 910c-148 -565 -731 -999 -1340 -999zM1291 2617l-377 -973h779z" />
    <glyph glyph-name="A_V" unicode="AV" horiz-adv-x="2767" 
d="M2617 1971c0 -98 -7 -269 -107 -528l-501 -1296l12 -30c46 -113 126 -99 139 -99v-18h-384v18c18 0 141 0 99 99l-499 1191h-1096l-37 -95c-65 -166 -72 -309 -72 -371c0 -439 445 -820 932 -820c38 0 202 -4 309 198h18l-99 -220h-201c-535 0 -980 393 -980 842
c0 75 8 206 79 391l565 1468c-45 81 -117 81 -130 81v18h391v-18c-54 0 -147 -18 -108 -112l1052 -2500l493 1277c100 260 107 426 107 520c0 515 -475 811 -851 811c-49 0 -224 4 -331 -197h-18l98 219h202c511 0 918 -358 918 -829zM807 2679l-519 -1353h1084z" />
    <glyph glyph-name="A_v" unicode="Av" horiz-adv-x="3198" 
d="M3048 1971c0 -98 -7 -269 -108 -528l-501 -1297l13 -29c46 -109 124 -99 139 -99v-18h-382v18c17 0 139 0 80 140l-299 716h-1408l-295 -762c-38 -97 62 -94 80 -94v-18h-237v18c76 0 109 22 139 99l981 2531l-23 53c-35 86 -116 81 -129 81v18h395v-18
c-54 0 -146 -18 -107 -112l1043 -2500l493 1277c101 260 108 426 108 520c0 515 -475 811 -851 811c-50 0 -224 4 -332 -197h-18l99 219h201c511 0 919 -358 919 -829zM1260 2624l-673 -1732h1396z" />
    <glyph glyph-name="C_A" unicode="CA" horiz-adv-x="3924" 
d="M157 1402c0 775 636 1411 1411 1411c609 0 1116 -376 1322 -896h-139c-247 475 -744 816 -1299 816c-690 0 -1223 -529 -1215 -1223c9 -775 677 -1443 1456 -1443c569 0 923 296 1152 887l640 1658v54c0 112 -107 116 -125 116v18h376v-18c-27 0 -116 -13 -116 -116
v-2532c0 -94 45 -116 125 -116v-18h-385v18c81 0 125 22 125 116v735h-653c-264 -623 -673 -882 -1242 -882c-810 0 -1433 645 -1433 1415zM3485 2563l-645 -1676h645v1676z" />
    <glyph glyph-name="C_O" unicode="CO" horiz-adv-x="6057" 
d="M1600 -13c-840 0 -1443 654 -1443 1415c0 775 636 1411 1411 1411c609 0 1116 -376 1322 -896h-139c-247 475 -744 816 -1299 816c-690 0 -1215 -529 -1215 -1213c0 -817 713 -1462 1492 -1462c318 -4 628 112 865 350c282 282 443 739 506 1160
c81 699 681 1245 1402 1245c798 0 1421 -645 1421 -1411c0 -779 -632 -1415 -1412 -1415c-793 0 -1415 640 -1420 1402c-54 -305 -179 -605 -358 -860c-260 -354 -699 -542 -1133 -542zM4628 67c685 0 1214 529 1214 1214c0 780 -677 1452 -1456 1452
c-690 0 -1223 -529 -1214 -1223c9 -775 676 -1443 1456 -1443z" />
    <glyph glyph-name="C_o" unicode="Co" horiz-adv-x="2836" 
d="M1568 -13c-779 0 -1411 634 -1411 1414c0 779 632 1412 1411 1412c381 0 721 -152 977 -394v-125c-233 304 -583 497 -977 497c-699 0 -1272 -620 -1272 -1390c0 -771 573 -1391 1272 -1391c229 0 461 58 609 134c-76 -14 -134 -22 -197 -22c-394 0 -721 322 -721 721
c0 394 327 721 721 721c399 0 721 -327 721 -721c0 -278 -147 -524 -421 -677c-179 -98 -434 -179 -712 -179zM1976 139c398 0 708 310 708 708c0 381 -314 699 -704 699c-385 0 -703 -318 -703 -703c0 -390 318 -704 699 -704z" />
    <glyph glyph-name="E_E" unicode="EE" horiz-adv-x="2226" 
d="M2092 0h-1913v18c85 0 126 22 126 116v2532c0 94 -41 116 -126 116v18h1913v-278h-18c0 156 -74 260 -215 260h-421c-31 0 -116 -13 -116 -116v-1259h121c152 0 215 121 215 260h18v-534h-18c0 153 -63 256 -215 256h-121v-1259c0 -94 89 -112 116 -112h421
c151 0 215 121 215 260h18v-278zM556 18h506c85 0 125 22 125 116v2532c0 94 -40 116 -125 116h-506c-32 0 -117 -13 -117 -116v-1259h121c152 0 215 121 215 260h18v-534h-18c0 153 -63 256 -215 256h-121v-1259c0 -94 90 -112 117 -112z" />
    <glyph glyph-name="M_D" unicode="MD" horiz-adv-x="4367" 
d="M2526 18h336c663 0 1228 636 1228 1380c0 739 -547 1384 -1238 1384h-362c-31 0 -116 -13 -116 -116v-2536c0 -103 58 -112 152 -112zM1273 0l-964 2625v-2513c0 -94 80 -94 121 -94v-18h-260v18c40 0 121 0 121 94v2540c-50 108 -90 130 -157 130v18h415v-18
c-58 0 -151 -10 -112 -116l857 -2334l945 2468h611c792 0 1383 -632 1383 -1402c0 -802 -627 -1398 -1372 -1398h-743v18c62 0 121 42 121 103v2630l-931 -2446l107 -305h-142z" />
    <glyph glyph-name="N_E" unicode="NE" horiz-adv-x="2468" 
d="M2334 0h-1054v18c53 0 147 21 108 112l-1075 2571v-2589c0 -94 90 -94 121 -94v-18h-255v18c27 0 116 0 116 94v2616c-31 59 -89 54 -104 54v18h385v-18c-54 0 -140 -18 -101 -112l954 -2290v2286c0 94 -41 116 -126 116v18h1031v-278h-18c0 156 -75 260 -215 260h-421
c-32 0 -117 -13 -117 -116v-1259h121c139 0 215 107 215 260h18v-534h-18c0 153 -76 256 -215 256h-121v-1259c0 -94 85 -112 117 -112h421c151 0 203 121 215 260h18v-278z" />
    <glyph glyph-name="N_N" unicode="NN" horiz-adv-x="3076" 
d="M2759 2693v-2572c60 -108 124 -103 138 -103v-18h-385v18c53 0 138 21 99 112l-1075 2571v-2580c60 -108 124 -103 138 -103v-18h-385v18c53 0 138 21 99 112l-1075 2571v-2589c0 -94 90 -94 121 -94v-18h-255v18c27 0 116 0 116 94v2616c-31 59 -91 54 -104 54v18h385
v-18c-54 0 -143 -21 -105 -112l1047 -2504v2527c0 89 -89 89 -116 89v18h397v-18c-53 0 -143 -21 -105 -112l1047 -2504v2527c0 89 -89 89 -116 89v18h255v-18c-31 0 -121 0 -121 -89z" />
    <glyph glyph-name="O_C" unicode="OC" horiz-adv-x="5766" 
d="M134 1402c0 775 637 1411 1412 1411c677 0 1229 -466 1379 -1076c152 615 711 1076 1371 1076c609 0 1116 -376 1322 -896h-139c-247 475 -744 816 -1299 816c-690 0 -1215 -521 -1215 -1215c0 -775 677 -1451 1456 -1451c560 0 1013 350 1161 851h49
c-197 -542 -717 -931 -1326 -931c-677 0 -1229 466 -1379 1078c-151 -617 -708 -1078 -1371 -1078c-798 0 -1421 645 -1421 1415zM215 1510c9 -775 677 -1443 1456 -1443c686 0 1214 529 1214 1214c0 780 -676 1452 -1456 1452c-690 0 -1223 -529 -1214 -1223z" />
    <glyph glyph-name="O_O" unicode="OO" horiz-adv-x="5851" 
d="M134 1402c0 775 637 1411 1412 1411c678 0 1229 -466 1380 -1076c151 615 711 1076 1371 1076c797 0 1420 -645 1420 -1411c0 -779 -632 -1415 -1411 -1415c-678 0 -1230 466 -1380 1078c-151 -617 -708 -1078 -1371 -1078c-798 0 -1421 645 -1421 1415zM215 1510
c9 -775 677 -1443 1456 -1443c686 0 1214 529 1214 1214c0 780 -676 1452 -1456 1452c-690 0 -1223 -529 -1214 -1223zM2966 1510c9 -775 677 -1443 1456 -1443c686 0 1214 529 1214 1214c0 780 -676 1452 -1456 1452c-690 0 -1223 -529 -1214 -1223z" />
    <glyph glyph-name="O_V" unicode="OV" horiz-adv-x="4372" 
d="M4222 1971c0 -98 -8 -269 -108 -528l-502 -1300c45 -98 90 -125 153 -125v-18h-395v18c50 0 144 18 103 112l-507 1226c-26 -759 -647 -1369 -1411 -1369c-798 0 -1421 645 -1421 1415c0 775 637 1411 1412 1411c633 0 1124 -407 1348 -943l709 -1695l493 1272
c100 259 108 426 108 520c0 515 -475 811 -852 811c-49 0 -224 4 -331 -197h-18l99 219h201c511 0 919 -358 919 -829zM1662 76c686 0 1210 533 1210 1210c0 770 -657 1438 -1406 1438c-707 0 -1255 -538 -1255 -1223c0 -766 672 -1425 1451 -1425z" />
    <glyph glyph-name="R_A" unicode="RA" horiz-adv-x="4000" 
d="M2645 2670l1066 -2553c46 -112 125 -99 139 -99v-18h-385v18c18 0 138 0 98 99l-497 1191h-1099l-38 -95c-64 -166 -77 -284 -77 -374c0 -68 10 -146 28 -222c70 -297 385 -596 793 -596c164 0 321 -3 429 199h18l-99 -220h-296c-315 0 -474 78 -722 281
c-177 143 -424 514 -534 655c-277 350 -564 435 -712 435h-318v-1237c0 -94 40 -116 126 -116v-18h-386v18c85 0 126 22 126 116v2532c0 94 -41 116 -126 116v18h1066c404 0 735 -323 735 -717s-331 -712 -735 -712h-304c157 -22 461 -126 654 -363
c82 -104 173 -248 267 -391c-15 71 -28 137 -28 222c0 147 37 272 85 395l564 1467c-44 81 -116 81 -129 81v18h398v-18c-54 0 -146 -18 -107 -112zM439 2670v-1281h802c336 0 600 318 600 694c0 381 -264 699 -600 699h-708c-49 0 -94 -40 -94 -112zM2492 2679l-519 -1353
h1084z" />
    <glyph glyph-name="R_O" unicode="RO" horiz-adv-x="4977" 
d="M3450 -13c-610 0 -981 340 -1380 824c-135 170 -251 287 -421 399c-180 121 -390 156 -560 161h-650v-1237c0 -94 45 -116 126 -116v-18h-386v18c81 0 126 22 126 116v2534c0 92 -45 114 -126 114v18h1062c403 0 730 -323 730 -717c0 -363 -269 -654 -622 -703
c359 -58 589 -215 797 -475c-58 157 -90 318 -90 475c-13 753 587 1433 1394 1433c784 0 1402 -658 1393 -1415c0 -775 -623 -1411 -1393 -1411zM439 2668v-1279h798c331 0 600 309 600 694c0 381 -269 699 -600 699h-699c-50 0 -99 -40 -99 -114zM3508 67
c717 0 1245 538 1245 1210c0 820 -690 1442 -1420 1442c-748 0 -1200 -618 -1200 -1258c0 -767 636 -1394 1375 -1394z" />
    <glyph glyph-name="V_O" unicode="VO" horiz-adv-x="5015" 
d="M3470 -13c-798 0 -1421 645 -1421 1415c0 99 5 179 23 269l-583 -1519c36 -98 81 -134 153 -134v-18h-395v18c54 0 143 17 103 112l-1061 2554c-46 111 -126 98 -139 98v18h367v-18c-13 0 -125 -4 -85 -98l1044 -2505l636 1662c184 565 726 972 1349 972
c797 0 1420 -645 1420 -1411c0 -779 -632 -1415 -1411 -1415zM3586 67c685 0 1214 529 1214 1214c0 780 -676 1452 -1456 1452c-690 0 -1223 -529 -1214 -1223c9 -775 676 -1443 1456 -1443z" />
    <glyph glyph-name="c_a" unicode="ca" horiz-adv-x="5074" 
d="M1559 -9c-770 0 -1402 627 -1402 1402c0 798 640 1416 1407 1416c586 0 1111 -372 1312 -896h-139c-228 475 -748 815 -1294 815c-681 0 -1210 -524 -1210 -1205c0 -775 663 -1451 1447 -1451c627 0 1008 367 1192 837l685 1792c-45 81 -116 81 -130 81v18h394v-18
c-49 0 -142 -17 -103 -112l1062 -2553c46 -112 126 -99 144 -99v-18h-386v18c14 0 139 0 99 99l-520 1249h-1053l-174 -461c-193 -524 -659 -914 -1331 -914zM3571 2679l-498 -1295h1035z" />
    <glyph glyph-name=".notdef" horiz-adv-x="1853" 
d="M179 0v2800h1495v-2800h-1495zM268 89h1317v2622h-1317v-2622z" />
    <glyph glyph-name=".null" 
 />
    <glyph glyph-name=".null" 
 />
    <glyph glyph-name="CR" unicode="&#xd;" horiz-adv-x="896" 
 />
    <glyph glyph-name="space" unicode=" " horiz-adv-x="896" 
 />
    <glyph glyph-name="exclam" unicode="!" horiz-adv-x="654" 
d="M340 596h-26c-8 157 -81 1737 -81 2101c0 54 36 116 94 116s94 -62 94 -116c0 -364 -73 -1944 -81 -2101zM327 -13c-58 0 -103 44 -103 103c0 58 45 103 103 103s103 -45 103 -103c0 -59 -45 -103 -103 -103z" />
    <glyph glyph-name="quotedbl" unicode="&#x22;" horiz-adv-x="869" 
d="M354 2576h-31s-1 435 -32 618h94c-31 -183 -31 -618 -31 -618zM547 2576h-32s0 435 -31 618h94c-31 -183 -31 -618 -31 -618z" />
    <glyph glyph-name="numbersign" unicode="#" horiz-adv-x="3262" 
d="M901 0h-113l220 981l-600 -27v112l618 -27l85 363l58 359l-761 -27v112l775 -27l174 981h113l-229 -981l390 -14l416 14l180 981h113l-234 -981l748 27v-112l-762 27l-85 -359l-58 -363l905 27v-112l-919 27l-164 -981h-113l219 981l-379 14l-427 -14zM1084 1039l417 -13
l390 13l85 363l58 359l-408 13l-398 -13l-86 -359z" />
    <glyph glyph-name="dollar" unicode="$" horiz-adv-x="2271" 
d="M1053 -326h-264v18c85 0 125 25 125 94v224c-160 30 -305 95 -493 211c-13 8 -45 31 -76 31c-77 0 -83 -82 -108 -170h-13v439h18c164 -233 401 -408 672 -478v1623c-329 187 -560 363 -560 658c0 287 228 489 560 489v161c0 70 -43 94 -125 94v18h264v-18
c-86 0 -121 -22 -121 -94v-162c126 -5 279 -42 408 -84v246c0 71 -44 94 -126 94v18h264v-18c-86 0 -121 -22 -121 -94v-251l363 -108v-264h-18c5 125 -54 204 -152 255c-64 33 -128 62 -193 87v-1099c385 -225 690 -480 690 -886c0 -366 -303 -646 -690 -707v-215
c0 -74 37 -94 121 -94v-18h-264v18c86 0 126 25 126 94v212c-49 -7 -98 -11 -148 -11c-96 0 -180 6 -260 20v-221c0 -74 37 -94 121 -94v-18zM1174 10c57 0 113 4 166 13v1406c-119 76 -300 168 -408 227v-1617c78 -19 159 -29 242 -29zM1357 1418v-1392
c341 61 569 302 569 624c0 314 -252 566 -569 768zM914 1840v936c-267 -15 -430 -176 -430 -407c0 -243 188 -387 430 -529zM1340 1604v1096c-140 50 -295 81 -408 77v-947c26 -15 374 -206 408 -226z" />
    <glyph glyph-name="percent" unicode="%" horiz-adv-x="2890" 
d="M1952 2800h107l-1059 -2800h-108zM2666 492c0 -291 -247 -505 -511 -505c-273 0 -515 224 -515 506c0 278 228 506 510 506c296 0 516 -242 516 -507zM2572 497c0 269 -181 489 -414 489s-420 -224 -420 -493s188 -493 417 -493c233 0 417 229 417 497zM1266 2306
c0 -291 -247 -505 -511 -505c-273 0 -515 224 -515 506c0 278 228 506 510 506c296 0 516 -242 516 -507zM1172 2311c0 269 -181 489 -414 489s-420 -224 -420 -493s188 -493 417 -493c233 0 417 229 417 497z" />
    <glyph glyph-name="ampersand" unicode="&#x26;" horiz-adv-x="4592" 
d="M4368 1407c0 -766 -605 -1407 -1371 -1420c-273 0 -412 40 -605 143c-215 116 -430 336 -582 430c-495 313 -827 327 -1586 327l206 426c81 156 215 367 435 479c53 31 103 49 143 58c-224 41 -399 242 -399 480c0 268 220 483 489 483c188 0 354 -98 439 -264l-23 -13
c-76 161 -237 255 -416 255c-256 0 -466 -206 -466 -461c0 -256 210 -466 466 -466v-23s-94 0 -224 -67c-117 -63 -287 -193 -421 -470l-193 -395c752 0 1075 -27 1563 -331c121 -81 377 -314 568 -420c203 -113 342 -149 602 -149c739 9 1352 627 1352 1398
c0 811 -609 1384 -1334 1384c-650 0 -1218 -399 -1218 -1003c0 -471 348 -857 805 -857c462 0 650 386 650 852c0 49 -45 58 -58 58h-565v23h1241v-23h-542c-13 0 -54 -9 -54 -58c0 -493 -210 -874 -672 -874c-470 0 -828 395 -828 879c0 622 582 1025 1250 1025
c730 0 1348 -586 1348 -1406z" />
    <glyph glyph-name="quotesingle" unicode="'" horiz-adv-x="632" 
d="M332 2576h-32s-1 435 -31 618h94c-31 -183 -31 -618 -31 -618z" />
    <glyph glyph-name="parenleft" unicode="(" horiz-adv-x="1631" 
d="M1407 -502v-36c-677 189 -1183 964 -1183 1891c0 932 506 1707 1183 1891v-36c-592 -202 -1035 -955 -1035 -1855s443 -1653 1035 -1855z" />
    <glyph glyph-name="parenright" unicode=")" horiz-adv-x="1631" 
d="M224 -538v36c591 202 1035 955 1035 1855s-444 1653 -1035 1855v36c677 -184 1183 -959 1183 -1891c0 -927 -506 -1702 -1183 -1891z" />
    <glyph glyph-name="asterisk" unicode="*" horiz-adv-x="1232" 
d="M665 2185h-92l32 358l-238 -273l-58 63l273 233l-358 -32v96l358 -32l-273 233l58 63l238 -273l-32 358h92l-32 -358l238 273l58 -63l-273 -233l358 32v-96l-358 32l273 -233l-58 -63l-238 273z" />
    <glyph glyph-name="plus" unicode="+" horiz-adv-x="2400" 
d="M501 1581c166 -13 394 -13 659 -13c0 264 0 479 -14 659h108c-14 -180 -14 -395 -14 -659c265 0 480 0 659 13v-107c-179 13 -394 13 -659 13c0 -264 0 -479 14 -658h-108c14 179 14 394 14 658c-265 0 -493 0 -659 -13v107z" />
    <glyph glyph-name="comma" unicode="," horiz-adv-x="654" 
d="M323 -170l-23 14c18 44 36 98 41 143c-69 -2 -117 36 -117 94c0 63 45 108 103 108c54 0 103 -45 103 -108c0 -40 -9 -76 -107 -251z" />
    <glyph glyph-name="hyphen" unicode="-" horiz-adv-x="1846" 
d="M923 1546l717 27v-95l-717 27l-717 -27v95z" />
    <glyph glyph-name="period" unicode="." horiz-adv-x="654" 
d="M224 90c0 57 46 103 103 103s103 -46 103 -103s-46 -103 -103 -103s-103 46 -103 103z" />
    <glyph glyph-name="slash" unicode="/" horiz-adv-x="1577" 
d="M296 0h-72l556 1402l501 1398h72l-556 -1398z" />
    <glyph glyph-name="zero" unicode="0" horiz-adv-x="3145" 
d="M1577 -13c-797 0 -1420 645 -1420 1415c0 775 636 1411 1411 1411c797 0 1420 -645 1420 -1411c0 -779 -631 -1415 -1411 -1415zM1693 67c686 0 1215 529 1215 1214c0 780 -677 1452 -1456 1452c-690 0 -1215 -524 -1215 -1218c0 -775 677 -1448 1456 -1448z" />
    <glyph glyph-name="one" unicode="1" horiz-adv-x="873" 
d="M627 0h-381v18c14 0 121 0 121 112v2536c0 112 -107 116 -121 116v18h260v-2670c0 -113 109 -112 121 -112v-18z" />
    <glyph glyph-name="two" unicode="2" horiz-adv-x="1985" 
d="M1828 0h-1694l668 668c511 546 865 1052 865 1513c0 341 -202 551 -529 551c-365 0 -649 -311 -820 -515c162 285 457 596 887 596c359 0 600 -251 600 -632c0 -376 -201 -676 -658 -1191l-372 -399c-121 -125 -242 -255 -367 -380c-50 -50 -14 -77 27 -77h1151
c63 0 112 18 152 59c72 76 72 197 72 201h18v-394z" />
    <glyph glyph-name="three" unicode="3" horiz-adv-x="2034" 
d="M995 -13c-466 0 -838 367 -838 837h148c0 -443 318 -815 690 -815c394 0 685 372 685 815c0 439 -291 784 -685 811v23c268 0 488 246 488 564c0 323 -220 569 -488 569c-274 0 -466 -246 -466 -569h-148c0 323 269 591 614 591s636 -268 636 -591
c0 -296 -242 -537 -515 -587c416 -49 739 -394 739 -811c0 -470 -394 -837 -860 -837z" />
    <glyph glyph-name="four" unicode="4" horiz-adv-x="2012" 
d="M1447 717h302c93 0 110 46 110 126h18v-268h-18c0 79 -17 124 -107 124h-305v-569c0 -112 94 -112 130 -112v-18h-403v18c18 0 134 0 134 112v569h-1174l1183 2101h166l-1313 -2083h1138v376l139 264v-640z" />
    <glyph glyph-name="five" unicode="5" horiz-adv-x="2209" 
d="M1075 -13c-452 0 -820 313 -891 698h165c72 -385 386 -680 726 -680c426 0 811 405 811 898c0 465 -385 867 -811 867c-224 0 -381 -90 -452 -184l-36 18l175 1196h958v-278h-22c0 127 -77 260 -220 260h-488c-36 0 -83 -19 -107 -117l-248 -1007c91 87 296 130 445 130
c537 0 949 -388 949 -885c0 -556 -488 -916 -954 -916z" />
    <glyph glyph-name="six" unicode="6" horiz-adv-x="2285" 
d="M1159 -13c-594 0 -935 456 -935 1094c0 508 215 1019 582 1328c260 219 574 368 901 404v-18c-273 -53 -555 -199 -771 -404c-273 -260 -466 -629 -537 -1006c197 270 448 409 775 409c484 0 909 -391 909 -893c0 -511 -385 -914 -924 -914zM1192 18
c430 0 743 440 743 856c0 480 -355 893 -819 893c-404 0 -740 -414 -740 -854c0 -491 386 -895 816 -895z" />
    <glyph glyph-name="seven" unicode="7" horiz-adv-x="1967" 
d="M632 0h-408v22c22 0 102 -3 143 77l1255 2486c36 67 -23 94 -72 94h-1039c-215 0 -215 -264 -215 -264h-23v385h1470l-1183 -2679c-36 -76 27 -99 72 -99v-22z" />
    <glyph glyph-name="eight" unicode="8" horiz-adv-x="2128" 
d="M1178 1761c453 -59 793 -426 793 -892c0 -524 -434 -882 -905 -882c-488 0 -909 371 -909 882c0 466 345 833 793 892c-305 49 -435 294 -435 522c0 302 256 530 551 530c291 0 547 -223 547 -530c0 -228 -126 -473 -435 -522zM636 2293c0 -251 133 -514 428 -514
c291 0 428 263 428 514c0 274 -184 503 -426 503c-246 0 -430 -229 -430 -503zM1814 869c0 488 -332 874 -740 874c-407 0 -760 -386 -760 -874c0 -484 345 -864 752 -864c417 0 748 389 748 864z" />
    <glyph glyph-name="nine" unicode="9" horiz-adv-x="2285" 
d="M224 1898c0 511 385 915 924 915c594 0 935 -457 935 -1095c0 -1009 -545 -1731 -1513 -1731h-41v18c797 0 1248 571 1379 1409c-197 -270 -448 -409 -775 -409c-484 0 -909 391 -909 893zM372 1925c0 -480 355 -893 819 -893c404 0 740 414 740 854
c0 491 -386 896 -816 896s-743 -441 -743 -857z" />
    <glyph glyph-name="colon" unicode=":" horiz-adv-x="663" 
d="M332 1747c-59 0 -108 49 -108 107s49 104 108 104c58 0 107 -46 107 -104s-49 -107 -107 -107zM332 -13c-59 0 -108 48 -108 106s49 104 108 104c58 0 107 -46 107 -104s-49 -106 -107 -106z" />
    <glyph glyph-name="semicolon" unicode=";" horiz-adv-x="663" 
d="M224 90c0 62 49 107 108 107c53 0 103 -45 103 -116c0 -59 -41 -148 -108 -242l-22 13c18 45 31 90 36 135h-9c-59 0 -108 44 -108 103zM224 1855c0 58 49 103 108 103c58 0 107 -45 107 -103s-49 -108 -107 -108c-59 0 -108 50 -108 108z" />
    <glyph glyph-name="less" unicode="&#x3c;" horiz-adv-x="2400" 
d="M348 1183c511 201 1085 448 1654 694l49 -121c-529 -201 -1084 -416 -1546 -618c462 -202 1017 -417 1546 -618l-49 -121c-569 246 -1143 493 -1654 694v90z" />
    <glyph glyph-name="equal" unicode="=" horiz-adv-x="2400" 
d="M1240 1326h-80c-265 0 -493 0 -659 -13v106c166 -13 394 -13 659 -13h80c265 0 480 0 659 13v-106c-179 13 -394 13 -659 13zM1240 901h-80c-265 0 -493 0 -659 -14v108c166 -14 394 -14 659 -14h80c265 0 480 0 659 14v-108c-179 14 -394 14 -659 14z" />
    <glyph glyph-name="greater" unicode="&#x3e;" horiz-adv-x="2400" 
d="M2051 1093c-511 -201 -1084 -448 -1653 -694l-50 121c529 201 1085 416 1546 618c-461 202 -1017 417 -1546 618l50 121c569 -246 1142 -493 1653 -694v-90z" />
    <glyph glyph-name="question" unicode="?" horiz-adv-x="2575" 
d="M1263 501h-18c-9 412 156 524 349 739c206 229 439 417 439 807c0 381 -260 730 -766 730c-309 0 -645 -171 -874 -542h-13v439h13c5 -31 10 -63 23 -103c18 -54 54 -63 85 -63c130 0 289 305 792 305c489 0 892 -363 892 -780c0 -394 -211 -577 -524 -864
c-215 -197 -398 -309 -398 -668zM1254 -13c-59 0 -108 49 -108 107s49 103 108 103c58 0 107 -45 107 -103s-49 -107 -107 -107z" />
    <glyph glyph-name="at" unicode="@" horiz-adv-x="3244" 
d="M1608 2361l-430 -1116h892zM3002 1429c0 753 -628 1365 -1380 1365c-762 0 -1380 -640 -1380 -1402c0 -761 618 -1388 1380 -1388c322 0 618 112 851 296l9 -18c-237 -183 -538 -295 -860 -295c-771 0 -1398 635 -1398 1405c0 771 627 1420 1398 1420
c761 0 1398 -621 1398 -1383c0 -430 -193 -752 -466 -752c-215 0 -318 147 -475 551h-908l-193 -499c-13 -35 13 -35 27 -35v-17h-90v17c23 0 35 13 41 27l642 1664c-8 21 -12 30 -34 30v18h89v-18c-25 1 -36 -3 -36 -17c0 -8 3 -19 9 -33l515 -1245
c105 -252 207 -426 408 -426c260 0 453 314 453 735z" />
    <glyph glyph-name="A" unicode="A" horiz-adv-x="1411" 
d="M789 2670l385 -2545c16 -103 81 -107 107 -107v-18h-345v18c18 0 118 0 103 99l-112 757h-529l-120 -775c-13 -86 85 -81 103 -81v-18h-251v18c72 0 120 22 132 99l392 2526l-4 27c-18 109 -81 112 -99 112v18h327v-18c-54 0 -103 -21 -89 -112zM664 2593l-263 -1701h524
z" />
    <glyph glyph-name="B" unicode="B" horiz-adv-x="2097" 
d="M1048 1640h32c461 0 837 -363 837 -820c0 -453 -376 -820 -837 -820h-901v18c18 0 121 0 121 112v2536c0 112 -103 116 -121 116v18h726c332 0 600 -264 600 -587c0 -278 -192 -511 -457 -573zM1393 2213c0 314 -219 569 -492 569h-350c-31 0 -116 -13 -116 -116v-1026
h470c273 0 488 260 488 573zM556 18h515c381 0 690 363 690 802c0 443 -309 802 -690 802h-636v-1492c0 -103 94 -112 121 -112z" />
    <glyph glyph-name="C" unicode="C" horiz-adv-x="3038" 
d="M2890 1917h-139c-247 475 -744 816 -1299 816c-690 0 -1215 -521 -1215 -1215c0 -771 677 -1451 1456 -1451c560 0 1013 350 1161 851h49c-197 -542 -717 -931 -1326 -931c-797 0 -1420 645 -1420 1415c0 775 636 1411 1411 1411c609 0 1116 -376 1322 -896z" />
    <glyph glyph-name="D" unicode="D" horiz-adv-x="2169" 
d="M637 0h-458v18c81 0 126 22 126 107v2541c0 94 -45 116 -126 116v18h458c780 0 1398 -623 1398 -1402c0 -775 -618 -1398 -1398 -1398zM543 18h117c667 0 1232 636 1232 1380c0 739 -547 1384 -1232 1384h-99c-13 0 -121 -13 -121 -116v-2541c0 -89 67 -107 103 -107z
" />
    <glyph glyph-name="E" unicode="E" horiz-adv-x="1345" 
d="M1211 0h-1032v18c85 0 126 22 126 116v2532c0 94 -41 116 -126 116v18h1032v-278h-18c0 156 -75 260 -215 260h-421c-32 0 -117 -13 -117 -116v-1259h121c139 0 215 107 215 260h18v-534h-18c0 153 -76 256 -215 256h-121v-1259c0 -94 85 -112 117 -112h421
c151 0 203 121 215 260h18v-278z" />
    <glyph glyph-name="F" unicode="F" horiz-adv-x="1345" 
d="M561 1389h-121v-1255c0 -94 49 -116 126 -116v-18h-387v18c81 0 126 22 126 116v2532c0 94 -45 116 -126 116v18h1032v-278h-18c0 114 -55 260 -215 260h-421c-27 0 -117 -13 -117 -116v-1259h121c155 0 215 144 215 260h18v-534h-18c0 116 -60 256 -215 256z" />
    <glyph glyph-name="G" unicode="G" horiz-adv-x="3598" 
d="M1577 -13c-797 0 -1420 645 -1420 1415c0 775 636 1411 1411 1411c609 0 1116 -376 1322 -896h-139c-247 475 -744 816 -1299 816c-690 0 -1215 -525 -1215 -1219c0 -775 677 -1447 1456 -1447c684 0 1208 528 1215 1214h-672v18h1249v-18h-506v-1214h-18l-40 910
c-139 -556 -717 -990 -1344 -990z" />
    <glyph glyph-name="H" unicode="H" horiz-adv-x="1480" 
d="M1299 0h-385v18c80 0 125 22 125 116v1255h-600v-1255c0 -94 45 -116 125 -116v-18h-385v18c80 0 125 22 125 116v2532c0 94 -45 116 -125 116v18h385v-18c-80 0 -125 -22 -125 -116v-1259h600v1259c0 94 -45 116 -125 116v18h385v-18c-80 0 -125 -22 -125 -116v-2532
c0 -94 45 -116 125 -116v-18z" />
    <glyph glyph-name="I" unicode="I" horiz-adv-x="743" 
d="M564 0h-385v18c80 0 125 22 125 116v2532c0 94 -45 116 -125 116v18h385v-18c-80 0 -125 -22 -125 -116v-2532c0 -94 45 -116 125 -116v-18z" />
    <glyph glyph-name="J" unicode="J" horiz-adv-x="1769" 
d="M640 5c458 0 668 338 668 821v1840c0 94 -45 116 -125 116v18h385v-18c-81 0 -125 -22 -125 -116v-1839c0 -608 -328 -840 -790 -840c-146 0 -279 22 -519 156v241h18c11 -193 90 -263 135 -290c103 -63 232 -89 353 -89z" />
    <glyph glyph-name="K" unicode="K" horiz-adv-x="2232" 
d="M564 0h-385v18c80 0 125 22 125 116v2532c0 94 -45 116 -125 116v18h385v-18c-80 0 -125 -22 -125 -116v-1332l1291 1381c26 28 27 67 -85 67v18h242v-18h-22c-45 0 -72 -27 -121 -81l-1053 -1124l1250 -1460c49 -59 81 -99 157 -99v-18h-404v18c14 0 130 22 68 103
l-1098 1429l-225 -243v-1173c0 -94 45 -116 125 -116v-18z" />
    <glyph glyph-name="L" unicode="L" horiz-adv-x="1582" 
d="M570 18h623c219 0 215 260 215 260h18v-278h-1242v18c80 0 121 22 121 116v2532c0 94 -45 116 -126 116v18h387v-18c-81 0 -126 -22 -126 -116v-2532c0 -94 49 -116 130 -116z" />
    <glyph glyph-name="M" unicode="M" horiz-adv-x="1826" 
d="M1240 2684l313 -2566c12 -96 121 -100 139 -100v-18h-381v18c14 0 120 4 108 102l-317 2569l-212 -2335l45 -354h-136l-314 2564l-226 -2467c-8 -85 86 -79 104 -79v-18h-229v18c72 0 101 22 108 99l232 2517l-5 41c-11 98 -130 107 -143 107v18h385v-18
c-49 0 -116 -4 -105 -107l273 -2226l208 2275c-35 54 -112 58 -125 58v18h385v-18c-18 0 -119 0 -107 -98z" />
    <glyph glyph-name="N" unicode="N" horiz-adv-x="1457" 
d="M385 0h-170v18c40 0 76 0 76 94v2616c-26 59 -96 54 -112 54v18h385v-18c-62 0 -131 -23 -107 -112l681 -2528v2546c0 94 -36 94 -77 94v18h172v-18c-41 0 -77 0 -77 -94v-2567c41 -94 117 -103 122 -103v-18h-385v18c62 0 136 -5 109 99l-693 2584v-2589
c0 -94 36 -94 76 -94v-18z" />
    <glyph glyph-name="O" unicode="O" horiz-adv-x="3100" 
d="M1555 -13c-798 0 -1421 645 -1421 1415c0 775 637 1411 1412 1411c797 0 1420 -645 1420 -1411c0 -779 -632 -1415 -1411 -1415zM1671 67c686 0 1214 529 1214 1214c0 780 -676 1452 -1456 1452c-690 0 -1223 -529 -1214 -1223c9 -775 677 -1443 1456 -1443z" />
    <glyph glyph-name="P" unicode="P" horiz-adv-x="1368" 
d="M441 2728v-1357h112c331 0 586 322 586 708c0 385 -255 703 -586 703h-59c-31 0 -53 -22 -53 -54zM566 0h-387v18c81 0 127 21 127 115v2531c0 94 -40 117 -125 118v18h376c408 0 721 -323 721 -721c0 -399 -313 -726 -721 -726h-116v-1219c0 -94 44 -116 125 -116v-18z
" />
    <glyph glyph-name="Q" unicode="Q" horiz-adv-x="3100" 
d="M2966 1402c0 -381 -153 -730 -399 -985l350 -404l-14 -13l-349 403c-256 -260 -610 -416 -999 -416c-798 0 -1421 645 -1421 1415c0 775 637 1411 1412 1411c797 0 1420 -645 1420 -1411zM1671 67c345 0 650 135 865 354l-386 444l14 13l385 -443
c211 215 336 510 336 846c0 780 -676 1452 -1456 1452c-690 0 -1214 -523 -1214 -1217c0 -775 677 -1449 1456 -1449z" />
    <glyph glyph-name="R" unicode="R" horiz-adv-x="2357" 
d="M566 0h-387v18c81 0 126 22 126 116v2532c0 94 -45 116 -126 116v18h1139c453 0 816 -358 816 -797c0 -413 -319 -749 -726 -793l631 -1093c59 -99 105 -99 139 -99v-18h-377v18c13 0 130 13 85 99l-1404 2616c-5 10 -15 13 -22 13c-11 0 -20 -9 -20 -20v-2592
c0 -94 45 -116 126 -116v-18zM495 2764l899 -1527c336 40 596 367 596 766c0 425 -300 779 -672 779h-814c-6 0 -15 -6 -9 -18z" />
    <glyph glyph-name="S" unicode="S" horiz-adv-x="2226" 
d="M1169 -13c-295 0 -489 73 -770 246c-39 24 -57 27 -78 27c-76 0 -87 -87 -101 -166h-18v439h18c215 -304 555 -524 931 -524c439 0 753 265 753 641c0 385 -391 681 -806 900c-435 230 -766 421 -766 775c0 286 219 488 560 488c94 0 194 -6 389 -71
c32 -11 357 -117 417 -130v-264h-18c5 120 -51 202 -152 255c-197 103 -395 175 -605 175c-291 0 -462 -158 -462 -409c0 -340 387 -500 753 -711c435 -251 811 -497 811 -950c0 -416 -394 -721 -856 -721z" />
    <glyph glyph-name="T" unicode="T" horiz-adv-x="1425" 
d="M905 0h-385v18c80 0 125 22 125 116v2532c0 107 -94 116 -121 116h-134c-146 0 -210 -122 -215 -260h-18v278h1111v-278h-18c-5 138 -69 260 -215 260h-134c-27 0 -121 -9 -121 -116v-2532c0 -94 45 -116 125 -116v-18z" />
    <glyph glyph-name="U" unicode="U" horiz-adv-x="1578" 
d="M440 2666v-2164c0 -251 108 -497 372 -497c291 0 448 188 448 470v2218c0 89 -90 89 -117 89v18h256v-18c-32 0 -121 0 -121 -89v-2218c0 -305 -170 -488 -466 -488c-327 0 -507 237 -507 515v2164c0 94 -45 116 -126 116v18h387v-18c-81 0 -126 -22 -126 -116z" />
    <glyph glyph-name="V" unicode="V" horiz-adv-x="1451" 
d="M134 2800h386v-18c-59 0 -127 0 -112 -98l376 -2473l385 2490c14 86 -85 81 -103 81v18h251v-18c-72 0 -118 -22 -130 -98l-394 -2527l4 -27c18 -108 77 -112 95 -112v-18h-327v18c53 0 107 22 94 112l-386 2545c-15 103 -107 107 -139 107v18z" />
    <glyph glyph-name="W" unicode="W" horiz-adv-x="4775" 
d="M4511 2715l-1017 -2616c50 -86 117 -81 130 -81v-18h-398v18c53 0 139 18 103 112l-928 2222l-873 -2253c49 -86 116 -81 130 -81v-18h-399v18c54 0 145 22 107 112l-1057 2531c-42 101 -76 121 -152 121v18h385v-18c-89 0 -136 -7 -89 -121l1061 -2540l878 2258
l-116 282c-42 102 -72 121 -148 121v18h385v-18c-89 0 -136 -8 -89 -121l1057 -2540l1007 2582c30 77 -63 79 -81 79v18h211v-18c-54 0 -91 -28 -107 -67z" />
    <glyph glyph-name="X" unicode="X" horiz-adv-x="1815" 
d="M909 1541l587 -1402c44 -103 88 -121 162 -121v-18h-386v18c87 0 129 8 81 121l-520 1232l-510 -1259c-38 -93 71 -94 85 -94v-18h-247v18h27c32 0 80 18 112 99l520 1285l-520 1259c-42 102 -80 121 -143 121v18h385v-18c-89 0 -145 -7 -98 -121l452 -1088l457 1115
c40 99 -67 94 -81 94v18h247v-18h-27c-31 0 -85 -18 -117 -98z" />
    <glyph glyph-name="Y" unicode="Y" horiz-adv-x="2054" 
d="M1673 2782v18h246v-18c-67 0 -94 -13 -147 -103l-668 -1139v-1406c0 -94 45 -116 126 -116v-18h-387v18c81 0 126 22 126 116v1358l-695 1196c-40 67 -76 94 -139 94v18h386v-18c-103 0 -128 -31 -97 -85l665 -1147l669 1138c50 85 -71 94 -85 94z" />
    <glyph glyph-name="Z" unicode="Z" horiz-adv-x="1752" 
d="M1595 0h-1438l1160 2684c38 85 -31 98 -72 98h-801c-139 0 -201 -101 -215 -260h-18v278h1303l-1156 -2670c-39 -90 45 -112 99 -112h905c151 0 203 121 215 260h18v-278z" />
    <glyph glyph-name="bracketleft" unicode="[" horiz-adv-x="960" 
d="M736 -538h-512v3782h512v-18h-260c-31 0 -117 -9 -117 -112v-3517c0 -103 86 -117 117 -117h260v-18z" />
    <glyph glyph-name="backslash" unicode="\" horiz-adv-x="1577" 
d="M1353 0h-72l-501 1402l-556 1398h72l501 -1398z" />
    <glyph glyph-name="bracketright" unicode="]" horiz-adv-x="960" 
d="M736 -538h-512v18h260c31 0 116 14 116 117v3517c0 103 -85 112 -116 112h-260v18h512v-3782z" />
    <glyph glyph-name="asciicircum" unicode="^" horiz-adv-x="1702" 
d="M851 2191c-27 0 -55 -18 -90 -58l-372 -417h-165l627 690l627 -690h-165l-372 417c-35 40 -63 58 -90 58z" />
    <glyph glyph-name="underscore" unicode="_" horiz-adv-x="1846" 
d="M923 -125l-699 -27v89l699 -27l699 27v-89z" />
    <glyph glyph-name="grave" unicode="`" horiz-adv-x="999" 
d="M175 3235l31 89c166 -112 618 -291 618 -291l-4 -13s-457 188 -645 215z" />
    <glyph glyph-name="a" unicode="a" horiz-adv-x="2306" 
d="M952 2670l1066 -2553c44 -102 126 -99 139 -99v-18h-385v18c18 0 140 -2 98 99l-496 1191h-1098l-36 -95c-43 -111 -72 -237 -72 -353c0 -318 178 -603 464 -741c56 -27 204 -92 475 -96c49 -1 204 6 306 198h18l-98 -220c-171 0 -223 0 -259 2c-288 10 -445 94 -452 97
c-292 143 -474 434 -474 760c0 128 30 247 78 373l565 1468c-30 54 -75 78 -117 81v18h385v-18c-58 0 -146 -18 -107 -112zM283 1326h1084l-563 1353z" />
    <glyph glyph-name="b" unicode="b" horiz-adv-x="2478" 
d="M1438 0h-1259v18c81 0 126 22 126 116v2532c0 94 -45 116 -126 116v18h1089c331 0 600 -264 600 -587c0 -278 -197 -511 -457 -573c496 8 865 -363 865 -820c0 -453 -376 -820 -838 -820zM560 18h869c385 0 695 363 695 802c0 443 -310 802 -695 802h-990v-1492
c0 -103 99 -112 121 -112zM439 2666v-1026h824c274 0 493 260 493 573c0 314 -219 569 -493 569h-707c-27 0 -117 -13 -117 -116z" />
    <glyph glyph-name="c" unicode="c" horiz-adv-x="3038" 
d="M2890 1917h-139c-247 475 -744 816 -1299 816c-690 0 -1215 -521 -1215 -1215c0 -775 677 -1451 1456 -1451c560 0 1013 350 1161 851h49c-197 -542 -717 -931 -1326 -931c-797 0 -1420 645 -1420 1415c0 775 636 1411 1411 1411c609 0 1116 -376 1322 -896z" />
    <glyph glyph-name="d" unicode="d" horiz-adv-x="2872" 
d="M1299 0h-1120v18c46 0 121 18 121 103v2549c0 108 -107 112 -121 112v18h1120c798 0 1394 -632 1394 -1402c0 -798 -632 -1398 -1394 -1398zM538 18h784c663 0 1227 636 1227 1380c0 739 -546 1384 -1232 1384h-761c-18 0 -121 -13 -121 -112v-2549
c0 -85 67 -103 103 -103z" />
    <glyph glyph-name="e" unicode="e" horiz-adv-x="1345" 
d="M1211 0h-1032v18c85 0 126 22 126 116v2532c0 94 -41 116 -126 116v18h1032v-278h-18c0 156 -75 260 -215 260h-421c-32 0 -117 -13 -117 -116v-1259h121c139 0 215 107 215 260h18v-534h-18c0 153 -76 256 -215 256h-121v-1259c0 -94 85 -112 117 -112h421
c151 0 203 121 215 260h18v-278z" />
    <glyph glyph-name="f" unicode="f" horiz-adv-x="1860" 
d="M1470 2782h-913c-36 0 -117 -13 -117 -116v-1259h327c155 0 215 144 215 260h18v-534h-18c0 116 -60 256 -215 256h-327v-1255c0 -94 45 -116 126 -116v-18h-387v18c81 0 126 22 126 116v2532c0 94 -45 116 -126 116v18h1524v-278h-18c0 114 -55 260 -215 260z" />
    <glyph glyph-name="g" unicode="g" horiz-adv-x="2984" 
d="M1568 -13c-779 0 -1411 633 -1411 1417c0 779 632 1409 1411 1409c376 0 721 -148 977 -390v-130c-233 305 -587 502 -977 502c-703 0 -1272 -625 -1272 -1391c0 -771 569 -1399 1272 -1399c443 0 999 182 999 694c0 309 -263 560 -538 560h-613v18h1411v-18h-663
c242 -72 421 -296 421 -560c0 -507 -532 -712 -1017 -712z" />
    <glyph glyph-name="h" unicode="h" horiz-adv-x="2667" 
d="M2487 0h-385v18c80 0 125 22 125 116v1255h-1788v-1255c0 -94 45 -116 125 -116v-18h-385v18c80 0 125 22 125 116v2532c0 94 -45 116 -125 116v18h385v-18c-80 0 -125 -22 -125 -116v-1259h1788v1259c0 94 -45 116 -125 116v18h385v-18c-80 0 -125 -22 -125 -116v-2532
c0 -94 45 -116 125 -116v-18z" />
    <glyph glyph-name="i" unicode="i" horiz-adv-x="743" 
d="M564 0h-385v18c80 0 125 22 125 116v2532c0 94 -45 116 -125 116v18h385v-18c-80 0 -125 -22 -125 -116v-2532c0 -94 45 -116 125 -116v-18z" />
    <glyph glyph-name="j" unicode="j" horiz-adv-x="1770" 
d="M627 5c282 0 520 179 618 403c59 139 63 260 63 398v1860c0 94 -45 116 -125 116v18h385v-18c-81 0 -125 -22 -125 -116v-1909c0 -511 -354 -770 -816 -770c-148 0 -242 26 -493 156v241h18c11 -193 90 -263 135 -290c103 -63 219 -89 340 -89z" />
    <glyph glyph-name="k" unicode="k" horiz-adv-x="2232" 
d="M564 0h-385v18c80 0 125 22 125 116v2532c0 94 -45 116 -125 116v18h385v-18c-80 0 -125 -22 -125 -116v-1332l1291 1381c26 28 27 67 -85 67v18h242v-18h-22c-45 0 -72 -27 -121 -81l-1053 -1124l1250 -1460c49 -59 81 -99 157 -99v-18h-404v18c14 0 130 22 68 103
l-1098 1429l-225 -243v-1173c0 -94 45 -116 125 -116v-18z" />
    <glyph glyph-name="l" unicode="l" horiz-adv-x="2568" 
d="M2434 0h-2250v18c80 0 121 22 121 116v2532c0 94 -45 116 -126 116v18h387v-18c-81 0 -126 -22 -126 -116v-2532c0 -89 49 -116 130 -116h1631c219 0 215 260 215 260h18v-278z" />
    <glyph glyph-name="m" unicode="m" horiz-adv-x="3740" 
d="M2469 2670l1062 -2554c46 -111 125 -98 139 -98v-18h-368v18c14 0 124 4 85 98l-1048 2514l-672 -1771l308 -743c46 -112 125 -98 139 -98v-18h-368v18c14 0 124 4 85 98l-1048 2514l-485 -1277c-99 -260 -115 -426 -115 -520c0 -515 475 -811 850 -811
c49 0 224 -4 331 197h18l-98 -219h-201c-510 0 -918 358 -918 829c0 98 16 269 115 528l494 1300c-45 98 -89 125 -152 125v18h394v-18c-49 0 -142 -18 -103 -112l744 -1787l673 1774c-45 98 -89 125 -152 125v18h394v-18c-49 0 -142 -18 -103 -112z" />
    <glyph glyph-name="n" unicode="n" horiz-adv-x="1853" 
d="M1389 130l-1075 2571v-2589c0 -94 89 -94 121 -94v-18h-256v18c27 0 117 0 117 94v2616c-32 59 -91 54 -105 54v18h386v-18c-54 0 -143 -21 -105 -112l1047 -2504v2527c0 89 -90 89 -117 89v18h256v-18c-32 0 -121 0 -121 -89v-2572c59 -108 124 -103 137 -103v-18h-385
v18c54 0 138 21 100 112z" />
    <glyph glyph-name="o" unicode="o" horiz-adv-x="3100" 
d="M1555 -13c-798 0 -1421 645 -1421 1415c0 775 637 1411 1412 1411c797 0 1420 -645 1420 -1411c0 -779 -632 -1415 -1411 -1415zM1671 67c686 0 1214 529 1214 1214c0 780 -676 1452 -1456 1452c-690 0 -1214 -521 -1214 -1215c0 -775 677 -1451 1456 -1451z" />
    <glyph glyph-name="p" unicode="p" horiz-adv-x="2142" 
d="M565 0h-386v18c80 0 125 22 125 116v2532c0 94 -45 116 -125 116v18h1067c408 0 739 -323 739 -721c0 -399 -331 -724 -739 -724h-807v-1221c0 -94 45 -116 126 -116v-18zM439 2675v-1302h802c332 0 605 320 605 706c0 385 -273 703 -605 703h-703
c-54 0 -99 -36 -99 -107z" />
    <glyph glyph-name="q" unicode="q" horiz-adv-x="3145" 
d="M2988 1402c0 -381 -152 -730 -399 -985l350 -404l-14 -13l-349 403c-255 -260 -609 -416 -999 -416c-797 0 -1420 645 -1420 1415c0 775 636 1411 1411 1411c797 0 1420 -645 1420 -1411zM1693 67c345 0 650 135 865 354l-385 444l13 13l386 -443
c210 215 336 510 336 846c0 780 -677 1452 -1456 1452c-690 0 -1215 -524 -1215 -1218c0 -775 677 -1448 1456 -1448z" />
    <glyph glyph-name="r" unicode="r" horiz-adv-x="2599" 
d="M566 0h-387v18c81 0 126 22 126 116v2532c0 94 -45 116 -126 116v18h1063c403 0 735 -323 735 -717c0 -398 -332 -712 -735 -712h-305c162 -31 466 -126 684 -384c218 -260 496 -955 844 -969v-18c-314 -5 -685 511 -887 789c-211 295 -502 582 -824 582h-314v-1241
c0 -67 49 -112 126 -112v-18zM440 2670v-1281h798c322 0 600 309 600 694c0 381 -269 699 -600 699h-704c-45 0 -94 -40 -94 -112z" />
    <glyph glyph-name="s" unicode="s" horiz-adv-x="2226" 
d="M1169 -13c-295 0 -489 73 -770 246c-39 24 -57 27 -78 27c-76 0 -87 -87 -101 -166h-18v439h18c215 -304 555 -524 931 -524c439 0 753 265 753 641c0 385 -391 681 -806 900c-435 230 -766 421 -766 775c0 286 219 488 560 488c94 0 194 -6 389 -71
c32 -11 357 -117 417 -130v-264h-18c5 120 -51 202 -152 255c-197 103 -395 175 -605 175c-291 0 -462 -158 -462 -409c0 -340 387 -500 753 -711c435 -251 811 -497 811 -950c0 -416 -394 -721 -856 -721z" />
    <glyph glyph-name="t" unicode="t" horiz-adv-x="1425" 
d="M905 0h-385v18c80 0 125 22 125 116v2532c0 107 -94 116 -121 116h-134c-146 0 -210 -122 -215 -260h-18v278h1111v-278h-18c-5 138 -69 260 -215 260h-134c-27 0 -121 -9 -121 -116v-2532c0 -94 45 -116 125 -116v-18z" />
    <glyph glyph-name="u" unicode="u" horiz-adv-x="2187" 
d="M1883 2670v-1976c0 -403 -323 -707 -753 -707c-470 0 -825 309 -825 779v1900c0 94 -45 116 -126 116v18h387v-18c-81 0 -126 -22 -126 -116v-1927c0 -457 278 -734 690 -734c426 0 735 309 735 689v1976c0 94 -45 112 -126 112v18h269v-18c-81 0 -125 -18 -125 -112z
" />
    <glyph glyph-name="v" unicode="v" horiz-adv-x="2253" 
d="M1674 2700c295 -145 475 -434 475 -759c0 -121 -28 -243 -78 -374l-565 -1468c30 -54 75 -78 117 -81v-18h-385v18c58 0 146 18 107 112l-1063 2553c-43 102 -129 99 -142 99v18h385v-18c-18 0 -140 2 -98 -99l1066 -2562l564 1466c43 113 71 236 71 354
c0 317 -175 598 -463 741c-133 66 -338 96 -475 96c-49 0 -205 -7 -306 -198h-18l98 220h187c114 0 352 -16 523 -100z" />
    <glyph glyph-name="w" unicode="w" horiz-adv-x="4157" 
d="M446 2661l1034 -2482l847 2186l-130 319c-45 112 -125 98 -139 98v18h368v-18c-14 0 -125 -4 -85 -98l1048 -2514l485 1277c99 260 115 426 115 520c0 515 -475 811 -850 811c-49 0 -224 4 -331 -197h-18l98 219h201c510 0 918 -358 918 -829c0 -98 -16 -269 -115 -528
l-494 -1300c45 -98 89 -125 152 -125v-18h-394v18c49 0 143 18 103 112l-918 2209l-852 -2182l14 -27c54 -108 130 -112 143 -112v-18h-394v18c54 0 142 18 103 112l-1053 2531c-42 102 -76 121 -152 121v18h385v-18c-89 0 -136 -7 -89 -121z" />
    <glyph glyph-name="x" unicode="x" horiz-adv-x="1824" 
d="M453 2661l452 -1088l457 1115c40 99 -67 94 -81 94v18h247v-18c-59 0 -112 -18 -144 -98l-466 -1143l587 -1402c44 -103 85 -121 162 -121v-18h-399v18c89 0 142 8 94 121l-520 1232l-510 -1259c-38 -93 71 -94 85 -94v-18h-247v18c59 0 107 18 139 99l520 1285
l-520 1259c-42 102 -76 121 -152 121v18h385v-18c-89 0 -136 -7 -89 -121z" />
    <glyph glyph-name="y" unicode="y" horiz-adv-x="2063" 
d="M454 2661l644 -1111l669 1138c50 85 -72 94 -85 94v18h246v-18c-67 0 -94 -13 -147 -103l-668 -1139v-1406c0 -94 45 -116 126 -116v-18h-387v18c81 0 126 22 126 116v1358l-677 1165c-60 101 -89 125 -166 125v18h386v-18c-90 0 -133 -7 -67 -121z" />
    <glyph glyph-name="z" unicode="z" horiz-adv-x="1752" 
d="M1595 0h-1438l1160 2684c38 85 -31 98 -72 98h-801c-139 0 -201 -101 -215 -260h-18v278h1303l-1156 -2670c-39 -90 45 -112 99 -112h905c151 0 203 121 215 260h18v-278z" />
    <glyph glyph-name="braceleft" unicode="{" horiz-adv-x="1295" 
d="M1071 3154v-18c-502 0 -439 -614 -439 -909c0 -495 0 -818 -303 -874c303 -56 303 -379 303 -874c0 -295 -63 -909 439 -909v-18c-587 0 -587 600 -587 927c0 520 63 865 -260 865v18c323 0 260 345 260 865c0 327 0 927 587 927z" />
    <glyph glyph-name="bar" unicode="|" horiz-adv-x="982" 
d="M532 2975l-25 -1559l25 -1555h-82l25 1555l-25 1559h82z" />
    <glyph glyph-name="braceright" unicode="}" horiz-adv-x="1295" 
d="M811 2227c0 -520 -63 -865 260 -865v-18c-323 0 -260 -345 -260 -865c0 -327 0 -927 -587 -927v18c502 0 439 614 439 909c0 495 0 818 302 874c-302 56 -302 379 -302 874c0 295 63 909 -439 909v18c587 0 587 -600 587 -927z" />
    <glyph glyph-name="asciitilde" unicode="~" horiz-adv-x="2446" 
d="M237 954c-10 52 -13 107 -13 166c0 282 175 444 436 444c241 0 451 -130 630 -238c206 -125 412 -255 573 -255c170 0 296 157 296 376c0 43 -7 88 -13 117l63 4c10 -44 13 -112 13 -161c0 -267 -140 -421 -432 -421c-218 0 -441 125 -630 242
c-201 125 -385 255 -546 255c-202 0 -327 -181 -327 -389c0 -67 10 -115 13 -131z" />
    <glyph glyph-name="uni00A0" unicode="&#xa0;" horiz-adv-x="896" 
 />
    <glyph glyph-name="exclamdown" unicode="&#xa1;" horiz-adv-x="666" 
d="M347 2204c8 -157 80 -1737 80 -2101c0 -54 -36 -116 -94 -116s-94 62 -94 116c0 364 73 1944 81 2101h27zM333 2813c58 0 103 -44 103 -103c0 -58 -45 -103 -103 -103s-103 45 -103 103c0 59 45 103 103 103z" />
    <glyph glyph-name="cent" unicode="&#xa2;" horiz-adv-x="2287" 
d="M1133 547v1720c-507 0 -824 -339 -824 -784c0 -463 362 -860 824 -936zM1151 457v-202c0 -69 43 -94 121 -94v-18h-259v18c80 0 120 27 120 94v202c-510 0 -914 440 -911 954c3 508 426 941 911 941v202c0 69 -43 94 -120 94v18h259v-18c-81 0 -121 -27 -121 -94v-202
c415 0 751 -222 910 -627h-130c-160 325 -478 542 -780 542v-1720c30 -4 61 -6 91 -6c344 -3 653 224 756 566h67c-144 -408 -490 -650 -914 -650z" />
    <glyph glyph-name="sterling" unicode="&#xa3;" horiz-adv-x="2262" 
d="M278 1062h-18v264h18c0 -40 4 -121 89 -121h411c-20 18 -40 38 -61 58c-225 216 -493 446 -493 816c0 426 349 734 847 734c210 0 390 -36 672 -211c13 -8 36 -22 67 -22c27 0 64 9 76 58l23 90h8v-394h-13c-197 282 -506 457 -838 457c-425 0 -676 -309 -676 -698
c0 -332 197 -552 385 -762c37 -42 75 -83 111 -126h480c86 0 90 81 90 121h18v-264h-18c0 31 -4 125 -90 125h-464c118 -144 215 -307 209 -507c-4 -125 -67 -289 -120 -392c111 -91 235 -157 447 -157c236 0 470 89 600 310c-103 -278 -304 -453 -591 -453
c-193 0 -346 128 -473 267l-15 -25c-94 -157 -238 -242 -363 -242c-152 0 -264 103 -264 246c0 148 107 233 264 233c130 0 270 -76 380 -166c66 131 94 279 90 379c-8 187 -79 318 -270 507h-429c-85 0 -89 -94 -89 -125zM950 252l10 17c-133 126 -238 180 -342 180
c-130 0 -192 -89 -192 -215c0 -138 71 -224 192 -224c117 0 247 95 332 242z" />
    <glyph glyph-name="currency" unicode="&#xa4;" horiz-adv-x="1720" 
d="M856 1116c-139 0 -256 58 -350 138l-103 -103c-48 -48 -35 -97 23 -152l-14 -13l-188 188l13 13c62 -60 106 -69 153 -22l103 103c-90 89 -148 215 -148 349c0 139 58 265 148 359l-103 103c-49 49 -96 34 -153 -23l-13 14l188 183l14 -13c-64 -54 -67 -108 -23 -152
l103 -103c94 85 220 139 350 139s256 -54 350 -139l103 103c44 44 41 98 -23 152l14 13l188 -183l-13 -14c-57 57 -104 72 -153 23l-103 -103c90 -94 148 -220 148 -359c0 -134 -58 -260 -148 -349l103 -103c47 -47 91 -38 153 22l13 -13l-188 -188l-14 13
c58 55 71 104 23 152l-103 103c-94 -80 -211 -138 -350 -138zM856 2106c-228 0 -408 -229 -408 -489c0 -251 168 -484 408 -484s408 233 408 484c0 260 -180 489 -408 489z" />
    <glyph glyph-name="yen" unicode="&#xa5;" horiz-adv-x="2236" 
d="M1765 2782v18h247v-18c-68 0 -95 -13 -148 -103l-677 -1151v-345h430c85 0 90 80 90 121h18v-265h-18c0 32 -5 126 -90 126h-430v-399h430c85 0 90 81 90 121h18v-264h-18c0 31 -5 125 -90 125h-430v-614c0 -94 45 -116 126 -116v-18h-386v18c81 0 126 22 126 116v614
h-435c-85 0 -89 -94 -89 -125h-18v264h18c0 -40 4 -121 89 -121h435v399h-435c-85 0 -89 -94 -89 -126h-18v265h18c0 -41 4 -121 89 -121h435v313l-690 1179c-36 58 -76 89 -126 89h-13v36h376v-36c-94 0 -112 -36 -85 -80l668 -1125l667 1129c50 85 -71 94 -85 94z" />
    <glyph glyph-name="brokenbar" unicode="&#xa6;" horiz-adv-x="981" 
d="M533 1595h-85l22 690l-22 690h85l-22 -690zM448 -139l22 690l-22 690h85l-22 -690l22 -690h-85z" />
    <glyph glyph-name="section" unicode="&#xa7;" horiz-adv-x="1765" 
d="M1564 1236c0 -134 -52 -250 -142 -340c88 -103 142 -222 142 -368c0 -313 -296 -541 -637 -541c-219 0 -358 54 -578 184c-8 5 -35 18 -53 18c-23 0 -50 -5 -63 -50l-18 -71h-13v322h13c161 -224 417 -385 699 -385c323 0 560 196 560 478c0 294 -277 498 -600 672
c-323 171 -574 318 -574 583c0 153 92 274 235 331c-143 104 -235 219 -235 381c0 211 175 363 421 363c68 0 139 -9 287 -54l309 -94v-197h-13c4 94 -41 152 -112 188c-148 76 -296 130 -448 130c-215 0 -350 -125 -350 -305c0 -259 287 -380 565 -533
c331 -183 605 -376 605 -712zM959 1236c168 -94 323 -191 434 -308c52 76 81 166 81 263c0 291 -279 503 -600 677c-112 60 -215 117 -303 175c-111 -49 -177 -150 -177 -274c0 -255 287 -381 565 -533z" />
    <glyph glyph-name="dieresis" unicode="&#xa8;" horiz-adv-x="833" 
d="M224 3145c0 32 26 58 58 58s58 -26 58 -58s-26 -58 -58 -58s-58 26 -58 58zM493 3145c0 32 26 58 58 58s58 -26 58 -58s-26 -58 -58 -58s-58 26 -58 58z" />
    <glyph glyph-name="copyright" unicode="&#xa9;" horiz-adv-x="3275" 
d="M224 1398c0 784 627 1415 1411 1415s1416 -631 1416 -1415s-632 -1411 -1416 -1411s-1411 627 -1411 1411zM1635 11c765 0 1387 623 1387 1387c0 769 -622 1391 -1387 1391c-769 0 -1391 -622 -1391 -1391c0 -764 622 -1387 1391 -1387zM2442 1111h76
c-163 -407 -488 -623 -865 -623c-494 0 -905 410 -905 914c0 502 403 905 905 905c381 0 726 -233 856 -600h-126c-179 345 -474 511 -806 511c-444 0 -744 -317 -744 -744c0 -495 412 -896 919 -896c327 0 603 180 690 533z" />
    <glyph glyph-name="guillemotleft" unicode="&#xab;" horiz-adv-x="1520" 
d="M784 2177l27 -13s-314 -367 -421 -627c107 -260 421 -628 421 -628l-27 -13s-367 448 -560 641c193 192 560 640 560 640zM1169 2177l27 -13s-314 -367 -421 -627c107 -260 421 -628 421 -628l-27 -13s-367 448 -560 641c193 192 560 640 560 640z" />
    <glyph glyph-name="logicalnot" unicode="&#xac;" horiz-adv-x="2400" 
d="M496 1658c193 0 439 -14 730 -14c229 0 475 14 668 14c0 -251 0 -507 9 -704h-108c14 197 14 435 14 614c-430 0 -820 0 -1313 -9v99z" />
    <glyph glyph-name="uni00AD" unicode="&#xad;" horiz-adv-x="1846" 
d="M923 1546l717 27v-95l-717 27l-717 -27v95z" />
    <glyph glyph-name="registered" unicode="&#xae;" horiz-adv-x="1832" 
d="M1292 1758v-22c-121 0 -200 150 -264 233c-27 35 -99 134 -198 134h-76v-327c0 -18 10 -18 32 -18v-22h-126v22c25 0 36 4 36 18v681c0 13 -11 18 -36 18v22h300c125 0 202 -105 202 -197c0 -103 -94 -197 -202 -197h-31c40 -13 82 -37 130 -85c22 -22 45 -58 67 -94
c75 -122 112 -166 166 -166zM754 2452v-327h193c89 0 152 77 152 175c0 90 -49 175 -152 175h-175c-9 0 -18 -9 -18 -23zM273 2119c0 -353 287 -640 641 -640c358 0 645 287 645 640c0 359 -287 641 -645 641c-354 0 -641 -282 -641 -641zM224 2119c0 386 309 695 690 695
c385 0 694 -309 694 -695c0 -380 -309 -694 -694 -694c-381 0 -690 314 -690 694z" />
    <glyph glyph-name="macron" unicode="&#xaf;" horiz-adv-x="1209" 
d="M1030 3132l-425 13l-426 -13v71l426 -13l425 13v-71z" />
    <glyph glyph-name="degree" unicode="&#xb0;" horiz-adv-x="1237" 
d="M618 2110c-219 0 -394 179 -394 394s179 390 394 390c220 0 395 -179 395 -390c0 -219 -175 -394 -395 -394zM618 2203c168 0 302 134 302 302c0 158 -134 296 -302 296c-163 0 -301 -134 -301 -296c0 -163 133 -302 301 -302z" />
    <glyph glyph-name="plusminus" unicode="&#xb1;" horiz-adv-x="2400" 
d="M1240 923h-80c-265 0 -493 0 -659 -14v108c166 -13 394 -13 659 -13h80c265 0 480 0 659 13v-108c-179 14 -394 14 -659 14zM1240 1640c265 0 480 0 659 13v-107c-179 13 -394 13 -659 13c0 0 -9 -179 14 -358h-108c23 179 14 358 14 358c-265 0 -493 0 -659 -13v107
c166 -13 394 -13 659 -13c0 0 9 179 -14 358h108c-23 -179 -14 -358 -14 -358z" />
    <glyph glyph-name="acute" unicode="&#xb4;" horiz-adv-x="999" 
d="M793 3324l31 -89c-188 -27 -645 -215 -645 -215l-4 13s452 179 618 291z" />
    <glyph glyph-name="paragraph" unicode="&#xb6;" horiz-adv-x="1738" 
d="M1559 2800v-18c-81 0 -125 -22 -125 -112v-2536c0 -94 44 -116 125 -116v-18h-385v18c80 0 125 22 125 116v2536c0 76 -58 112 -98 112h-72c-31 0 -121 -4 -121 -94v-2580c0 -90 90 -90 121 -90v-18h-251v18c27 0 117 0 117 90v1339h-144c-452 0 -717 323 -717 677
c0 353 287 676 695 676h730zM995 1465v1223c0 90 -90 94 -117 94h-45c-331 0 -560 -318 -560 -658c0 -341 229 -659 592 -659h130z" />
    <glyph glyph-name="periodcentered" unicode="&#xb7;" horiz-adv-x="699" 
d="M349 1298c-57 0 -104 47 -104 104s47 104 104 104s104 -47 104 -104s-47 -104 -104 -104z" />
    <glyph glyph-name="cedilla" unicode="&#xb8;" horiz-adv-x="931" 
d="M470 0h23l-27 -126h22c171 0 309 -139 309 -314c0 -170 -125 -327 -336 -327c-183 0 -322 157 -327 323h23c4 -148 139 -300 304 -300c202 0 314 161 314 304c0 162 -130 292 -287 292h-49z" />
    <glyph glyph-name="guillemotright" unicode="&#xbb;" horiz-adv-x="1521" 
d="M710 2164l27 13s367 -448 560 -640c-193 -193 -560 -641 -560 -641l-27 13s313 368 421 628c-108 260 -421 627 -421 627zM324 2164l27 13s367 -448 560 -640c-193 -193 -560 -641 -560 -641l-27 13s313 368 421 628c-108 260 -421 627 -421 627z" />
    <glyph glyph-name="onequarter" unicode="&#xbc;" horiz-adv-x="2117" 
d="M533 1400h-190v9c7 0 60 0 60 56v1268c0 56 -53 58 -60 58v9h130v-1335c0 -50 42 -56 60 -56v-9zM336 0h-90l730 1402l659 1398h89l-730 -1398zM1832 0h-201v9c9 0 67 0 67 56v284h-587l591 1051h83l-656 -1042h569v188l69 132v-320h168c47 0 47 47 47 58v-123
c0 9 0 56 -47 56h-168v-284c0 -56 47 -56 65 -56v-9z" />
    <glyph glyph-name="onehalf" unicode="&#xbd;" horiz-adv-x="2161" 
d="M507 1400h-190v9c7 0 60 0 60 56v1268c0 56 -53 58 -60 58v9h130v-1335c0 -50 42 -56 60 -56v-9zM336 0h-90l730 1402l659 1398h89l-730 -1398zM2004 0h-847l334 334c255 273 432 526 432 756c0 171 -101 276 -264 276c-150 0 -292 -123 -363 -206
c-27 -32 -40 -45 -47 -52c7 16 24 50 98 130c106 114 213 168 345 168c180 0 300 -125 300 -316c0 -188 -100 -338 -329 -595l-186 -200c-60 -62 -121 -127 -183 -190c-25 -25 -7 -38 13 -38h576c31 0 56 9 76 29c36 38 36 99 36 101h9v-197z" />
    <glyph glyph-name="threequarters" unicode="&#xbe;" horiz-adv-x="2379" 
d="M575 1400c-233 0 -419 184 -419 419h74c0 -222 159 -408 345 -408c197 0 343 186 343 408c0 219 -146 392 -343 405v12c134 0 244 123 244 282c0 161 -110 284 -244 284c-137 0 -233 -123 -233 -284h-74c0 161 135 295 307 295c173 0 318 -134 318 -295
c0 -148 -121 -269 -257 -294c208 -24 369 -197 369 -405c0 -235 -197 -419 -430 -419zM624 0h-90l730 1402l659 1398h89l-730 -1398zM2094 0h-201v9c9 0 67 0 67 56v284h-587l591 1051h83l-656 -1042h569v188l69 132v-320h168c47 0 47 47 47 58v-123c0 9 0 56 -47 56h-168
v-284c0 -56 47 -56 65 -56v-9z" />
    <glyph glyph-name="questiondown" unicode="&#xbf;" horiz-adv-x="2575" 
d="M1302 2299h18c9 -412 -156 -524 -349 -739c-206 -229 -439 -417 -439 -807c0 -381 260 -730 766 -730c309 0 645 171 874 542h13v-439h-13c-5 31 -10 63 -23 103c-18 54 -54 63 -85 63c-130 0 -289 -305 -792 -305c-489 0 -892 363 -892 780c0 394 211 577 524 864
c215 197 398 309 398 668zM1311 2813c59 0 108 -49 108 -107s-49 -103 -108 -103c-58 0 -107 45 -107 103s49 107 107 107z" />
    <glyph glyph-name="Agrave" unicode="&#xc0;" horiz-adv-x="1411" 
d="M789 2670l385 -2545c16 -103 81 -107 107 -107v-18h-345v18c18 0 118 0 103 99l-112 757h-529l-120 -775c-13 -86 85 -81 103 -81v-18h-251v18c72 0 120 22 132 99l392 2526l-4 27c-18 109 -81 112 -99 112v18h327v-18c-54 0 -103 -21 -89 -112zM664 2593l-263 -1701h524
zM426 3190l31 89c166 -112 618 -291 618 -291l-4 -13s-457 188 -645 215z" />
    <glyph glyph-name="Aacute" unicode="&#xc1;" horiz-adv-x="1411" 
d="M789 2670l385 -2545c16 -103 81 -107 107 -107v-18h-345v18c18 0 118 0 103 99l-112 757h-529l-120 -775c-13 -86 85 -81 103 -81v-18h-251v18c72 0 120 22 132 99l392 2526l-4 27c-18 109 -81 112 -99 112v18h327v-18c-54 0 -103 -21 -89 -112zM664 2593l-263 -1701h524
zM1048 3279l31 -89c-188 -27 -645 -215 -645 -215l-4 13s452 179 618 291z" />
    <glyph glyph-name="Acircumflex" unicode="&#xc2;" horiz-adv-x="1411" 
d="M789 2670l385 -2545c16 -103 81 -107 107 -107v-18h-345v18c18 0 118 0 103 99l-112 757h-529l-120 -775c-13 -86 85 -81 103 -81v-18h-251v18c72 0 120 22 132 99l392 2526l-4 27c-18 109 -81 112 -99 112v18h327v-18c-54 0 -103 -21 -89 -112zM664 2593l-263 -1701h524
zM712 3369c120 -108 331 -282 439 -368l-9 -13c-99 76 -283 211 -430 278c-147 -67 -331 -202 -430 -278l-9 13c108 86 319 260 439 368z" />
    <glyph glyph-name="Atilde" unicode="&#xc3;" horiz-adv-x="1411" 
d="M789 2670l385 -2545c16 -103 81 -107 107 -107v-18h-345v18c18 0 118 0 103 99l-112 757h-529l-120 -775c-13 -86 85 -81 103 -81v-18h-251v18c72 0 120 22 132 99l392 2526l-4 27c-18 109 -81 112 -99 112v18h327v-18c-54 0 -103 -21 -89 -112zM664 2593l-263 -1701h524
zM318 2979h-18c-8 23 -14 47 -14 76c0 117 67 188 193 188c94 0 201 -53 287 -107c98 -58 170 -117 268 -117c72 0 144 59 144 153c0 27 -6 51 -14 71h18c5 -13 14 -44 14 -76c0 -121 -71 -188 -198 -188c-100 0 -201 58 -282 112c-130 81 -188 112 -268 112
c-72 0 -144 -58 -144 -152c0 -28 7 -55 14 -72z" />
    <glyph glyph-name="Adieresis" unicode="&#xc4;" horiz-adv-x="1411" 
d="M789 2670l385 -2545c16 -103 81 -107 107 -107v-18h-345v18c18 0 118 0 103 99l-112 757h-529l-120 -775c-13 -86 85 -81 103 -81v-18h-251v18c72 0 120 22 132 99l392 2526l-4 27c-18 109 -81 112 -99 112v18h327v-18c-54 0 -103 -21 -89 -112zM664 2593l-263 -1701h524
zM519 3100c0 32 26 58 58 58s58 -26 58 -58s-26 -58 -58 -58s-58 26 -58 58zM788 3100c0 32 26 58 58 58s58 -26 58 -58s-26 -58 -58 -58s-58 26 -58 58z" />
    <glyph glyph-name="Aring" unicode="&#xc5;" horiz-adv-x="1411" 
d="M789 2670l385 -2545c16 -103 81 -107 107 -107v-18h-345v18c18 0 118 0 103 99l-112 757h-529l-120 -775c-13 -86 85 -81 103 -81v-18h-251v18c72 0 120 22 132 99l392 2526l-4 27c-18 109 -81 112 -99 112v18h327v-18c-54 0 -103 -21 -89 -112zM664 2593l-263 -1701h524
zM900 3216c0 -107 -85 -192 -193 -192c-103 0 -188 85 -188 192c0 104 85 189 188 189c108 0 193 -85 193 -189zM877 3216c0 90 -76 166 -170 166c-89 0 -166 -76 -166 -166c0 -94 77 -170 166 -170c94 0 170 76 170 170z" />
    <glyph glyph-name="AE" unicode="&#xc6;" horiz-adv-x="2288" 
d="M1921 2782h-421c-31 0 -116 -13 -116 -116v-1259h121c139 0 215 107 215 260h18v-534h-18c0 153 -76 256 -215 256h-121v-1259c0 -94 85 -112 116 -112h421c151 0 203 121 215 260h18v-278h-1030v18c85 0 125 22 125 116v740h-658l-296 -762c-36 -94 72 -94 90 -94v-18
h-251v18c80 0 112 22 143 99l972 2495v54c0 94 -40 116 -125 116v18h1030v-278h-18c0 156 -74 260 -215 260zM1249 2563l-649 -1671h649v1671z" />
    <glyph glyph-name="Ccedilla" unicode="&#xc7;" horiz-adv-x="3038" 
d="M2890 1917h-139c-247 475 -744 816 -1299 816c-690 0 -1215 -521 -1215 -1215c0 -771 677 -1451 1456 -1451c560 0 1013 350 1161 851h49c-197 -542 -717 -931 -1326 -931c-797 0 -1420 645 -1420 1415c0 775 636 1411 1411 1411c609 0 1116 -376 1322 -896zM1558 0h23
l-27 -126h22c171 0 309 -139 309 -314c0 -170 -125 -327 -336 -327c-183 0 -322 157 -327 323h23c4 -148 139 -300 304 -300c202 0 314 161 314 304c0 162 -130 292 -287 292h-49z" />
    <glyph glyph-name="Egrave" unicode="&#xc8;" horiz-adv-x="1345" 
d="M1211 0h-1032v18c85 0 126 22 126 116v2532c0 94 -41 116 -126 116v18h1032v-278h-18c0 156 -75 260 -215 260h-421c-32 0 -117 -13 -117 -116v-1259h121c139 0 215 107 215 260h18v-534h-18c0 153 -76 256 -215 256h-121v-1259c0 -94 85 -112 117 -112h421
c151 0 203 121 215 260h18v-278zM409 3190l31 89c166 -112 618 -291 618 -291l-4 -13s-457 188 -645 215z" />
    <glyph glyph-name="Eacute" unicode="&#xc9;" horiz-adv-x="1345" 
d="M1211 0h-1032v18c85 0 126 22 126 116v2532c0 94 -41 116 -126 116v18h1032v-278h-18c0 156 -75 260 -215 260h-421c-32 0 -117 -13 -117 -116v-1259h121c139 0 215 107 215 260h18v-534h-18c0 153 -76 256 -215 256h-121v-1259c0 -94 85 -112 117 -112h421
c151 0 203 121 215 260h18v-278zM1031 3279l31 -89c-188 -27 -645 -215 -645 -215l-4 13s452 179 618 291z" />
    <glyph glyph-name="Ecircumflex" unicode="&#xca;" horiz-adv-x="1345" 
d="M1211 0h-1032v18c85 0 126 22 126 116v2532c0 94 -41 116 -126 116v18h1032v-278h-18c0 156 -75 260 -215 260h-421c-32 0 -117 -13 -117 -116v-1259h121c139 0 215 107 215 260h18v-534h-18c0 153 -76 256 -215 256h-121v-1259c0 -94 85 -112 117 -112h421
c151 0 203 121 215 260h18v-278zM695 3369c120 -108 331 -282 439 -368l-9 -13c-99 76 -283 211 -430 278c-147 -67 -331 -202 -430 -278l-9 13c108 86 319 260 439 368z" />
    <glyph glyph-name="Edieresis" unicode="&#xcb;" horiz-adv-x="1345" 
d="M1211 0h-1032v18c85 0 126 22 126 116v2532c0 94 -41 116 -126 116v18h1032v-278h-18c0 156 -75 260 -215 260h-421c-32 0 -117 -13 -117 -116v-1259h121c139 0 215 107 215 260h18v-534h-18c0 153 -76 256 -215 256h-121v-1259c0 -94 85 -112 117 -112h421
c151 0 203 121 215 260h18v-278zM502 3100c0 32 26 58 58 58s58 -26 58 -58s-26 -58 -58 -58s-58 26 -58 58zM771 3100c0 32 26 58 58 58s58 -26 58 -58s-26 -58 -58 -58s-58 26 -58 58z" />
    <glyph glyph-name="Igrave" unicode="&#xcc;" horiz-adv-x="743" 
d="M526 0h-385v18c80 0 125 22 125 116v2532c0 94 -45 116 -125 116v18h385v-18c-80 0 -125 -22 -125 -116v-2532c0 -94 45 -116 125 -116v-18zM47 3190l31 89c166 -112 618 -291 618 -291l-4 -13s-457 188 -645 215z" />
    <glyph glyph-name="Iacute" unicode="&#xcd;" horiz-adv-x="743" 
d="M553 0h-385v18c80 0 125 22 125 116v2532c0 94 -45 116 -125 116v18h385v-18c-80 0 -125 -22 -125 -116v-2532c0 -94 45 -116 125 -116v-18zM665 3279l31 -89c-188 -27 -645 -215 -645 -215l-4 13s452 179 618 291z" />
    <glyph glyph-name="Icircumflex" unicode="&#xce;" horiz-adv-x="743" 
d="M566 0h-385v18c80 0 125 22 125 116v2532c0 94 -45 116 -125 116v18h385v-18c-80 0 -125 -22 -125 -116v-2532c0 -94 45 -116 125 -116v-18zM372 3369c120 -108 331 -282 439 -368l-9 -13c-99 76 -283 211 -430 278c-147 -67 -331 -202 -430 -278l-9 13
c108 86 319 260 439 368z" />
    <glyph glyph-name="Idieresis" unicode="&#xcf;" horiz-adv-x="743" 
d="M564 0h-385v18c80 0 125 22 125 116v2532c0 94 -45 116 -125 116v18h385v-18c-80 0 -125 -22 -125 -116v-2532c0 -94 45 -116 125 -116v-18zM179 3100c0 32 26 58 58 58s58 -26 58 -58s-26 -58 -58 -58s-58 26 -58 58zM448 3100c0 32 26 58 58 58s58 -26 58 -58
s-26 -58 -58 -58s-58 26 -58 58z" />
    <glyph glyph-name="Eth" unicode="&#xd0;" horiz-adv-x="2316" 
d="M326 2800h458c780 0 1398 -623 1398 -1402c0 -775 -618 -1398 -1398 -1398h-458v18c81 0 126 22 126 107v1264h-386v18h386v1259c0 94 -45 116 -126 116v18zM690 18h116c668 0 1232 636 1232 1380c0 739 -546 1384 -1232 1384h-98c-14 0 -121 -13 -121 -116v-1259h385
v-18h-385v-1264c0 -89 67 -107 103 -107z" />
    <glyph glyph-name="Ntilde" unicode="&#xd1;" horiz-adv-x="1457" 
d="M385 0h-170v18c40 0 76 0 76 94v2616c-26 59 -96 54 -112 54v18h385v-18c-62 0 -131 -23 -107 -112l681 -2528v2546c0 94 -36 94 -77 94v18h172v-18c-41 0 -77 0 -77 -94v-2567c41 -94 117 -103 122 -103v-18h-385v18c62 0 136 -5 109 99l-693 2584v-2589
c0 -94 36 -94 76 -94v-18zM336 2979h-18c-8 23 -14 47 -14 76c0 117 67 188 193 188c94 0 201 -53 287 -107c98 -58 170 -117 268 -117c72 0 144 59 144 153c0 27 -6 51 -14 71h18c5 -13 14 -44 14 -76c0 -121 -71 -188 -198 -188c-100 0 -201 58 -282 112
c-130 81 -188 112 -268 112c-72 0 -144 -58 -144 -152c0 -28 7 -55 14 -72z" />
    <glyph glyph-name="Ograve" unicode="&#xd2;" horiz-adv-x="3100" 
d="M1555 -13c-798 0 -1421 645 -1421 1415c0 775 637 1411 1412 1411c797 0 1420 -645 1420 -1411c0 -779 -632 -1415 -1411 -1415zM1671 67c686 0 1214 529 1214 1214c0 780 -676 1452 -1456 1452c-690 0 -1223 -529 -1214 -1223c9 -775 677 -1443 1456 -1443zM1248 3190
l31 89c166 -112 618 -291 618 -291l-4 -13s-457 188 -645 215z" />
    <glyph glyph-name="Oacute" unicode="&#xd3;" horiz-adv-x="3100" 
d="M1555 -13c-798 0 -1421 645 -1421 1415c0 775 637 1411 1412 1411c797 0 1420 -645 1420 -1411c0 -779 -632 -1415 -1411 -1415zM1671 67c686 0 1214 529 1214 1214c0 780 -676 1452 -1456 1452c-690 0 -1223 -529 -1214 -1223c9 -775 677 -1443 1456 -1443zM1886 3279
l31 -89c-188 -27 -645 -215 -645 -215l-4 13s452 179 618 291z" />
    <glyph glyph-name="Ocircumflex" unicode="&#xd4;" horiz-adv-x="3100" 
d="M1555 -13c-798 0 -1421 645 -1421 1415c0 775 637 1411 1412 1411c797 0 1420 -645 1420 -1411c0 -779 -632 -1415 -1411 -1415zM1671 67c686 0 1214 529 1214 1214c0 780 -676 1452 -1456 1452c-690 0 -1223 -529 -1214 -1223c9 -775 677 -1443 1456 -1443zM1550 3369
c120 -108 331 -282 439 -368l-9 -13c-99 76 -283 211 -430 278c-147 -67 -331 -202 -430 -278l-9 13c108 86 319 260 439 368z" />
    <glyph glyph-name="Otilde" unicode="&#xd5;" horiz-adv-x="3100" 
d="M1555 -13c-798 0 -1421 645 -1421 1415c0 775 637 1411 1412 1411c797 0 1420 -645 1420 -1411c0 -779 -632 -1415 -1411 -1415zM1671 67c686 0 1214 529 1214 1214c0 780 -676 1452 -1456 1452c-690 0 -1223 -529 -1214 -1223c9 -775 677 -1443 1456 -1443zM1150 2979
h-18c-8 23 -14 47 -14 76c0 117 67 188 193 188c94 0 201 -53 287 -107c98 -58 170 -117 268 -117c72 0 144 59 144 153c0 27 -6 51 -14 71h18c5 -13 14 -44 14 -76c0 -121 -71 -188 -198 -188c-100 0 -201 58 -282 112c-130 81 -188 112 -268 112c-72 0 -144 -58 -144 -152
c0 -28 7 -55 14 -72z" />
    <glyph glyph-name="Odieresis" unicode="&#xd6;" horiz-adv-x="3100" 
d="M1555 -13c-798 0 -1421 645 -1421 1415c0 775 637 1411 1412 1411c797 0 1420 -645 1420 -1411c0 -779 -632 -1415 -1411 -1415zM1671 67c686 0 1214 529 1214 1214c0 780 -676 1452 -1456 1452c-690 0 -1223 -529 -1214 -1223c9 -775 677 -1443 1456 -1443zM1357 3100
c0 32 26 58 58 58s58 -26 58 -58s-26 -58 -58 -58s-58 26 -58 58zM1626 3100c0 32 26 58 58 58s58 -26 58 -58s-26 -58 -58 -58s-58 26 -58 58z" />
    <glyph glyph-name="multiply" unicode="&#xd7;" horiz-adv-x="2400" 
d="M743 2061c108 -126 269 -291 457 -475c188 184 341 336 457 475l76 -76c-139 -117 -291 -269 -475 -457c184 -188 336 -341 475 -457l-76 -76c-116 138 -269 291 -457 474c-188 -183 -340 -336 -457 -474l-76 76c139 116 291 269 475 457c-184 188 -350 349 -475 457z
" />
    <glyph glyph-name="Oslash" unicode="&#xd8;" horiz-adv-x="3100" 
d="M2867 2805l-349 -372c278 -260 448 -628 448 -1031c0 -779 -632 -1415 -1411 -1415c-381 0 -722 147 -977 385l-332 -354l-13 9l336 358c-269 256 -435 619 -435 1017c0 775 637 1411 1412 1411c371 0 707 -143 958 -371l350 371zM215 1510c5 -394 179 -757 453 -1022
l1738 1851c-260 242 -605 394 -977 394c-690 0 -1223 -529 -1214 -1223zM1671 67c686 0 1214 529 1214 1214c0 404 -184 780 -466 1049l-1742 -1855c264 -251 613 -408 994 -408z" />
    <glyph glyph-name="Ugrave" unicode="&#xd9;" horiz-adv-x="1578" 
d="M440 2666v-2164c0 -251 108 -497 372 -497c291 0 448 188 448 470v2218c0 89 -90 89 -117 89v18h256v-18c-32 0 -121 0 -121 -89v-2218c0 -305 -170 -488 -466 -488c-327 0 -507 237 -507 515v2164c0 94 -45 116 -126 116v18h387v-18c-81 0 -126 -22 -126 -116zM462 3190
l31 89c166 -112 618 -291 618 -291l-4 -13s-457 188 -645 215z" />
    <glyph glyph-name="Uacute" unicode="&#xda;" horiz-adv-x="1578" 
d="M440 2666v-2164c0 -251 108 -497 372 -497c291 0 448 188 448 470v2218c0 89 -90 89 -117 89v18h256v-18c-32 0 -121 0 -121 -89v-2218c0 -305 -170 -488 -466 -488c-327 0 -507 237 -507 515v2164c0 94 -45 116 -126 116v18h387v-18c-81 0 -126 -22 -126 -116z
M1080 3279l31 -89c-188 -27 -645 -215 -645 -215l-4 13s452 179 618 291z" />
    <glyph glyph-name="Ucircumflex" unicode="&#xdb;" horiz-adv-x="1578" 
d="M440 2666v-2164c0 -251 108 -497 372 -497c291 0 448 188 448 470v2218c0 89 -90 89 -117 89v18h256v-18c-32 0 -121 0 -121 -89v-2218c0 -305 -170 -488 -466 -488c-327 0 -507 237 -507 515v2164c0 94 -45 116 -126 116v18h387v-18c-81 0 -126 -22 -126 -116zM825 3369
c120 -108 331 -282 439 -368l-9 -13c-99 76 -283 211 -430 278c-147 -67 -331 -202 -430 -278l-9 13c108 86 319 260 439 368z" />
    <glyph glyph-name="Udieresis" unicode="&#xdc;" horiz-adv-x="1578" 
d="M440 2666v-2164c0 -251 108 -497 372 -497c291 0 448 188 448 470v2218c0 89 -90 89 -117 89v18h256v-18c-32 0 -121 0 -121 -89v-2218c0 -305 -170 -488 -466 -488c-327 0 -507 237 -507 515v2164c0 94 -45 116 -126 116v18h387v-18c-81 0 -126 -22 -126 -116zM637 3100
c0 32 26 58 58 58s58 -26 58 -58s-26 -58 -58 -58s-58 26 -58 58zM906 3100c0 32 26 58 58 58s58 -26 58 -58s-26 -58 -58 -58s-58 26 -58 58z" />
    <glyph glyph-name="Yacute" unicode="&#xdd;" horiz-adv-x="2054" 
d="M1673 2782v18h246v-18c-67 0 -94 -13 -147 -103l-668 -1139v-1406c0 -94 45 -116 126 -116v-18h-387v18c81 0 126 22 126 116v1358l-695 1196c-40 67 -76 94 -139 94v18h386v-18c-103 0 -128 -31 -97 -85l665 -1147l669 1138c50 85 -71 94 -85 94zM1319 3279l31 -89
c-188 -27 -645 -215 -645 -215l-4 13s452 179 618 291z" />
    <glyph glyph-name="Thorn" unicode="&#xde;" horiz-adv-x="2183" 
d="M566 0h-387v18c81 0 126 22 126 116v2532c0 94 -45 116 -126 116v18h387v-18c-81 0 -126 -22 -126 -116v-448h771c466 0 837 -363 837 -816c0 -452 -371 -820 -837 -820h-771v-448c0 -94 45 -116 126 -116v-18zM440 2200v-1599h766c381 0 690 362 690 801
s-309 798 -690 798h-766z" />
    <glyph glyph-name="germandbls" unicode="&#xdf;" horiz-adv-x="2437" 
d="M358 134v1595h-192v18c107 0 192 27 192 148v175c0 416 287 743 672 743c323 0 583 -245 583 -532c0 -121 -41 -232 -126 -318c-105 -107 -286 -187 -286 -368c0 -228 229 -325 452 -456c336 -198 583 -377 583 -677c0 -269 -260 -475 -547 -475c-188 0 -311 37 -497 157
c-14 9 -27 18 -45 18c-49 0 -58 -49 -63 -108h-18v301h18c130 -193 350 -350 592 -350c286 0 439 184 439 417c0 264 -270 469 -520 613c-282 162 -462 287 -462 529c0 170 110 253 193 327c152 135 202 256 202 381c0 269 -215 523 -498 523c-309 0 -537 -223 -537 -537
v-2124c0 -94 45 -116 125 -116v-18h-385v18c81 0 125 22 125 116z" />
    <glyph glyph-name="agrave" unicode="&#xe0;" horiz-adv-x="2306" 
d="M952 2670l1066 -2553c44 -102 126 -99 139 -99v-18h-385v18c18 0 140 -2 98 99l-496 1191h-1098l-36 -95c-43 -111 -72 -237 -72 -353c0 -318 178 -603 464 -741c56 -27 204 -92 475 -96c49 -1 204 6 306 198h18l-98 -220c-171 0 -223 0 -259 2c-288 10 -445 94 -452 97
c-292 143 -474 434 -474 760c0 128 30 247 78 373l565 1468c-30 54 -75 78 -117 81v18h385v-18c-58 0 -146 -18 -107 -112zM283 1326h1084l-563 1353zM560 3190l31 89c166 -112 618 -291 618 -291l-4 -13s-457 188 -645 215z" />
    <glyph glyph-name="aacute" unicode="&#xe1;" horiz-adv-x="2306" 
d="M952 2670l1066 -2553c44 -102 126 -99 139 -99v-18h-385v18c18 0 140 -2 98 99l-496 1191h-1098l-36 -95c-43 -111 -72 -237 -72 -353c0 -318 178 -603 464 -741c56 -27 204 -92 475 -96c49 -1 204 6 306 198h18l-98 -220c-171 0 -223 0 -259 2c-288 10 -445 94 -452 97
c-292 143 -474 434 -474 760c0 128 30 247 78 373l565 1468c-30 54 -75 78 -117 81v18h385v-18c-58 0 -146 -18 -107 -112zM283 1326h1084l-563 1353zM1183 3279l31 -89c-188 -27 -645 -215 -645 -215l-4 13s452 179 618 291z" />
    <glyph glyph-name="acircumflex" unicode="&#xe2;" horiz-adv-x="2306" 
d="M952 2670l1066 -2553c44 -102 126 -99 139 -99v-18h-385v18c18 0 140 -2 98 99l-496 1191h-1098l-36 -95c-43 -111 -72 -237 -72 -353c0 -318 178 -603 464 -741c56 -27 204 -92 475 -96c49 -1 204 6 306 198h18l-98 -220c-171 0 -223 0 -259 2c-288 10 -445 94 -452 97
c-292 143 -474 434 -474 760c0 128 30 247 78 373l565 1468c-30 54 -75 78 -117 81v18h385v-18c-58 0 -146 -18 -107 -112zM283 1326h1084l-563 1353zM846 3369c120 -108 331 -282 439 -368l-9 -13c-99 76 -283 211 -430 278c-147 -67 -331 -202 -430 -278l-9 13
c108 86 319 260 439 368z" />
    <glyph glyph-name="atilde" unicode="&#xe3;" horiz-adv-x="2306" 
d="M952 2670l1066 -2553c44 -102 126 -99 139 -99v-18h-385v18c18 0 140 -2 98 99l-496 1191h-1098l-36 -95c-43 -111 -72 -237 -72 -353c0 -318 178 -603 464 -741c56 -27 204 -92 475 -96c49 -1 204 6 306 198h18l-98 -220c-171 0 -223 0 -259 2c-288 10 -445 94 -452 97
c-292 143 -474 434 -474 760c0 128 30 247 78 373l565 1468c-30 54 -75 78 -117 81v18h385v-18c-58 0 -146 -18 -107 -112zM283 1326h1084l-563 1353zM486 2979h-18c-8 23 -14 47 -14 76c0 117 67 188 193 188c94 0 201 -53 287 -107c98 -58 170 -117 268 -117
c72 0 144 59 144 153c0 27 -6 51 -14 71h18c5 -13 14 -44 14 -76c0 -121 -71 -188 -198 -188c-100 0 -201 58 -282 112c-130 81 -188 112 -268 112c-72 0 -144 -58 -144 -152c0 -28 7 -55 14 -72z" />
    <glyph glyph-name="adieresis" unicode="&#xe4;" horiz-adv-x="2306" 
d="M952 2670l1066 -2553c44 -102 126 -99 139 -99v-18h-385v18c18 0 140 -2 98 99l-496 1191h-1098l-36 -95c-43 -111 -72 -237 -72 -353c0 -318 178 -603 464 -741c56 -27 204 -92 475 -96c49 -1 204 6 306 198h18l-98 -220c-171 0 -223 0 -259 2c-288 10 -445 94 -452 97
c-292 143 -474 434 -474 760c0 128 30 247 78 373l565 1468c-30 54 -75 78 -117 81v18h385v-18c-58 0 -146 -18 -107 -112zM283 1326h1084l-563 1353zM667 3100c0 32 26 58 58 58s58 -26 58 -58s-26 -58 -58 -58s-58 26 -58 58zM936 3100c0 32 26 58 58 58s58 -26 58 -58
s-26 -58 -58 -58s-58 26 -58 58z" />
    <glyph glyph-name="aring" unicode="&#xe5;" horiz-adv-x="2306" 
d="M952 2670l1066 -2553c44 -102 126 -99 139 -99v-18h-385v18c18 0 140 -2 98 99l-496 1191h-1098l-36 -95c-43 -111 -72 -237 -72 -353c0 -318 178 -603 464 -741c56 -27 204 -92 475 -96c49 -1 204 6 306 198h18l-98 -220c-171 0 -223 0 -259 2c-288 10 -445 94 -452 97
c-292 143 -474 434 -474 760c0 128 30 247 78 373l565 1468c-30 54 -75 78 -117 81v18h385v-18c-58 0 -146 -18 -107 -112zM283 1326h1084l-563 1353zM1068 3216c0 -107 -85 -192 -193 -192c-103 0 -188 85 -188 192c0 104 85 189 188 189c108 0 193 -85 193 -189z
M1045 3216c0 90 -76 166 -170 166c-89 0 -166 -76 -166 -166c0 -94 77 -170 166 -170c94 0 170 76 170 170z" />
    <glyph glyph-name="ae" unicode="&#xe6;" horiz-adv-x="2288" 
d="M1921 2782h-421c-31 0 -116 -13 -116 -116v-1259h121c139 0 215 107 215 260h18v-534h-18c0 153 -76 256 -215 256h-121v-1259c0 -94 85 -112 116 -112h421c151 0 203 121 215 260h18v-278h-1030v18c85 0 125 22 125 116v740h-658l-296 -762c-36 -94 72 -94 90 -94v-18
h-251v18c80 0 112 22 143 99l972 2495v54c0 94 -40 116 -125 116v18h1030v-278h-18c0 156 -74 260 -215 260zM1249 2563l-649 -1671h649v1671z" />
    <glyph glyph-name="ccedilla" unicode="&#xe7;" horiz-adv-x="3038" 
d="M2890 1917h-139c-247 475 -744 816 -1299 816c-690 0 -1215 -521 -1215 -1215c0 -775 677 -1451 1456 -1451c560 0 1013 350 1161 851h49c-197 -542 -717 -931 -1326 -931c-797 0 -1420 645 -1420 1415c0 775 636 1411 1411 1411c609 0 1116 -376 1322 -896zM1558 0h23
l-27 -126h22c171 0 309 -139 309 -314c0 -170 -125 -327 -336 -327c-183 0 -322 157 -327 323h23c4 -148 139 -300 304 -300c202 0 314 161 314 304c0 162 -130 292 -287 292h-49z" />
    <glyph glyph-name="egrave" unicode="&#xe8;" horiz-adv-x="1345" 
d="M1211 0h-1032v18c85 0 126 22 126 116v2532c0 94 -41 116 -126 116v18h1032v-278h-18c0 156 -75 260 -215 260h-421c-32 0 -117 -13 -117 -116v-1259h121c139 0 215 107 215 260h18v-534h-18c0 153 -76 256 -215 256h-121v-1259c0 -94 85 -112 117 -112h421
c151 0 203 121 215 260h18v-278zM370 3190l31 89c166 -112 618 -291 618 -291l-4 -13s-457 188 -645 215z" />
    <glyph glyph-name="eacute" unicode="&#xe9;" horiz-adv-x="1345" 
d="M1211 0h-1032v18c85 0 126 22 126 116v2532c0 94 -41 116 -126 116v18h1032v-278h-18c0 156 -75 260 -215 260h-421c-32 0 -117 -13 -117 -116v-1259h121c139 0 215 107 215 260h18v-534h-18c0 153 -76 256 -215 256h-121v-1259c0 -94 85 -112 117 -112h421
c151 0 203 121 215 260h18v-278zM988 3279l31 -89c-188 -27 -645 -215 -645 -215l-4 13s452 179 618 291z" />
    <glyph glyph-name="ecircumflex" unicode="&#xea;" horiz-adv-x="1345" 
d="M1211 0h-1032v18c85 0 126 22 126 116v2532c0 94 -41 116 -126 116v18h1032v-278h-18c0 156 -75 260 -215 260h-421c-32 0 -117 -13 -117 -116v-1259h121c139 0 215 107 215 260h18v-534h-18c0 153 -76 256 -215 256h-121v-1259c0 -94 85 -112 117 -112h421
c151 0 203 121 215 260h18v-278zM694 3369c120 -108 331 -282 439 -368l-9 -13c-99 76 -283 211 -430 278c-147 -67 -331 -202 -430 -278l-9 13c108 86 319 260 439 368z" />
    <glyph glyph-name="edieresis" unicode="&#xeb;" horiz-adv-x="1345" 
d="M1211 0h-1032v18c85 0 126 22 126 116v2532c0 94 -41 116 -126 116v18h1032v-278h-18c0 156 -75 260 -215 260h-421c-32 0 -117 -13 -117 -116v-1259h121c139 0 215 107 215 260h18v-534h-18c0 153 -76 256 -215 256h-121v-1259c0 -94 85 -112 117 -112h421
c151 0 203 121 215 260h18v-278zM502 3100c0 32 26 58 58 58s58 -26 58 -58s-26 -58 -58 -58s-58 26 -58 58zM771 3100c0 32 26 58 58 58s58 -26 58 -58s-26 -58 -58 -58s-58 26 -58 58z" />
    <glyph glyph-name="igrave" unicode="&#xec;" horiz-adv-x="743" 
d="M541 0h-385v18c80 0 125 22 125 116v2532c0 94 -45 116 -125 116v18h385v-18c-80 0 -125 -22 -125 -116v-2532c0 -94 45 -116 125 -116v-18zM47 3190l31 89c166 -112 618 -291 618 -291l-4 -13s-457 188 -645 215z" />
    <glyph glyph-name="iacute" unicode="&#xed;" horiz-adv-x="743" 
d="M564 0h-385v18c80 0 125 22 125 116v2532c0 94 -45 116 -125 116v18h385v-18c-80 0 -125 -22 -125 -116v-2532c0 -94 45 -116 125 -116v-18zM665 3279l31 -89c-188 -27 -645 -215 -645 -215l-4 13s452 179 618 291z" />
    <glyph glyph-name="icircumflex" unicode="&#xee;" horiz-adv-x="743" 
d="M565 0h-385v18c80 0 125 22 125 116v2532c0 94 -45 116 -125 116v18h385v-18c-80 0 -125 -22 -125 -116v-2532c0 -94 45 -116 125 -116v-18zM372 3369c120 -108 331 -282 439 -368l-9 -13c-99 76 -283 211 -430 278c-147 -67 -331 -202 -430 -278l-9 13
c108 86 319 260 439 368z" />
    <glyph glyph-name="idieresis" unicode="&#xef;" horiz-adv-x="743" 
d="M564 0h-385v18c80 0 125 22 125 116v2532c0 94 -45 116 -125 116v18h385v-18c-80 0 -125 -22 -125 -116v-2532c0 -94 45 -116 125 -116v-18zM179 3100c0 32 26 58 58 58s58 -26 58 -58s-26 -58 -58 -58s-58 26 -58 58zM448 3100c0 32 26 58 58 58s58 -26 58 -58
s-26 -58 -58 -58s-58 26 -58 58z" />
    <glyph glyph-name="eth" unicode="&#xf0;" horiz-adv-x="2961" 
d="M269 2800h1120c797 0 1393 -632 1393 -1402c0 -798 -632 -1398 -1393 -1398h-1120v18c75 0 121 38 121 103v1268h-211v18h211v1263c0 69 -50 112 -121 112v18zM627 18h784c663 0 1228 636 1228 1380c0 739 -547 1384 -1232 1384h-762c-55 0 -121 -33 -121 -112v-1263h556
v-18h-556v-1268c0 -70 50 -103 103 -103z" />
    <glyph glyph-name="ntilde" unicode="&#xf1;" horiz-adv-x="1853" 
d="M1389 130l-1075 2571v-2589c0 -94 89 -94 121 -94v-18h-256v18c27 0 117 0 117 94v2616c-32 59 -91 54 -105 54v18h386v-18c-54 0 -143 -21 -105 -112l1047 -2504v2527c0 89 -90 89 -117 89v18h256v-18c-32 0 -121 0 -121 -89v-2572c59 -108 124 -103 137 -103v-18h-385
v18c54 0 138 21 100 112zM538 3024h-18c-8 23 -14 47 -14 76c0 117 67 188 193 188c94 0 201 -53 287 -107c98 -58 170 -117 268 -117c72 0 144 59 144 153c0 27 -6 51 -14 71h18c5 -13 14 -44 14 -76c0 -121 -71 -188 -198 -188c-100 0 -201 58 -282 112
c-130 81 -188 112 -268 112c-72 0 -144 -58 -144 -152c0 -28 7 -55 14 -72z" />
    <glyph glyph-name="ograve" unicode="&#xf2;" horiz-adv-x="3100" 
d="M1555 -13c-798 0 -1421 645 -1421 1415c0 775 637 1411 1412 1411c797 0 1420 -645 1420 -1411c0 -779 -632 -1415 -1411 -1415zM1671 67c686 0 1214 529 1214 1214c0 780 -676 1452 -1456 1452c-690 0 -1214 -521 -1214 -1215c0 -775 677 -1451 1456 -1451zM1226 3190
l31 89c166 -112 618 -291 618 -291l-4 -13s-457 188 -645 215z" />
    <glyph glyph-name="oacute" unicode="&#xf3;" horiz-adv-x="3100" 
d="M1555 -13c-798 0 -1421 645 -1421 1415c0 775 637 1411 1412 1411c797 0 1420 -645 1420 -1411c0 -779 -632 -1415 -1411 -1415zM1671 67c686 0 1214 529 1214 1214c0 780 -676 1452 -1456 1452c-690 0 -1214 -521 -1214 -1215c0 -775 677 -1451 1456 -1451zM1911 3279
l31 -89c-188 -27 -645 -215 -645 -215l-4 13s452 179 618 291z" />
    <glyph glyph-name="ocircumflex" unicode="&#xf4;" horiz-adv-x="3100" 
d="M1555 -13c-798 0 -1421 645 -1421 1415c0 775 637 1411 1412 1411c797 0 1420 -645 1420 -1411c0 -779 -632 -1415 -1411 -1415zM1671 67c686 0 1214 529 1214 1214c0 780 -676 1452 -1456 1452c-690 0 -1214 -521 -1214 -1215c0 -775 677 -1451 1456 -1451zM1550 3369
c120 -108 331 -282 439 -368l-9 -13c-99 76 -283 211 -430 278c-147 -67 -331 -202 -430 -278l-9 13c108 86 319 260 439 368z" />
    <glyph glyph-name="otilde" unicode="&#xf5;" horiz-adv-x="3100" 
d="M1555 -13c-798 0 -1421 645 -1421 1415c0 775 637 1411 1412 1411c797 0 1420 -645 1420 -1411c0 -779 -632 -1415 -1411 -1415zM1671 67c686 0 1214 529 1214 1214c0 780 -676 1452 -1456 1452c-690 0 -1214 -521 -1214 -1215c0 -775 677 -1451 1456 -1451zM1156 2979
h-18c-8 23 -14 47 -14 76c0 117 67 188 193 188c94 0 201 -53 287 -107c98 -58 170 -117 268 -117c72 0 144 59 144 153c0 27 -6 51 -14 71h18c5 -13 14 -44 14 -76c0 -121 -71 -188 -198 -188c-100 0 -201 58 -282 112c-130 81 -188 112 -268 112c-72 0 -144 -58 -144 -152
c0 -28 7 -55 14 -72z" />
    <glyph glyph-name="odieresis" unicode="&#xf6;" horiz-adv-x="3100" 
d="M1555 -13c-798 0 -1421 645 -1421 1415c0 775 637 1411 1412 1411c797 0 1420 -645 1420 -1411c0 -779 -632 -1415 -1411 -1415zM1671 67c686 0 1214 529 1214 1214c0 780 -676 1452 -1456 1452c-690 0 -1214 -521 -1214 -1215c0 -775 677 -1451 1456 -1451zM1357 3100
c0 32 26 58 58 58s58 -26 58 -58s-26 -58 -58 -58s-58 26 -58 58zM1626 3100c0 32 26 58 58 58s58 -26 58 -58s-26 -58 -58 -58s-58 26 -58 58z" />
    <glyph glyph-name="divide" unicode="&#xf7;" horiz-adv-x="2400" 
d="M1204 842c-67 0 -121 50 -121 117c0 62 54 112 121 112c59 0 112 -50 112 -112c0 -67 -53 -117 -112 -117zM1204 1971c-67 0 -121 50 -121 117c0 62 54 112 121 112c59 0 112 -50 112 -112c0 -67 -53 -117 -112 -117zM1240 1487h-80c-265 0 -493 5 -659 -13v107
c166 -17 394 -13 659 -13h80c265 0 480 -4 659 13v-107c-179 18 -394 13 -659 13z" />
    <glyph glyph-name="oslash" unicode="&#xf8;" horiz-adv-x="3100" 
d="M1555 -13c-798 0 -1421 645 -1421 1415c0 775 637 1411 1412 1411c797 0 1420 -645 1420 -1411c0 -779 -632 -1415 -1411 -1415zM1671 67c686 0 1214 529 1214 1214c0 780 -676 1452 -1456 1452c-690 0 -1214 -521 -1214 -1215c0 -775 677 -1451 1456 -1451zM2867 2791
l-2621 -2787l-13 9l2621 2786z" />
    <glyph glyph-name="ugrave" unicode="&#xf9;" horiz-adv-x="2187" 
d="M1883 2670v-1976c0 -403 -323 -707 -753 -707c-470 0 -825 309 -825 779v1900c0 94 -45 116 -126 116v18h387v-18c-81 0 -126 -22 -126 -116v-1927c0 -457 278 -734 690 -734c426 0 735 309 735 689v1976c0 94 -45 112 -126 112v18h269v-18c-81 0 -125 -18 -125 -112z
M787 3190l31 89c166 -112 618 -291 618 -291l-4 -13s-457 188 -645 215z" />
    <glyph glyph-name="uacute" unicode="&#xfa;" horiz-adv-x="2187" 
d="M1883 2670v-1976c0 -403 -323 -707 -753 -707c-470 0 -825 309 -825 779v1900c0 94 -45 116 -126 116v18h387v-18c-81 0 -126 -22 -126 -116v-1927c0 -457 278 -734 690 -734c426 0 735 309 735 689v1976c0 94 -45 112 -126 112v18h269v-18c-81 0 -125 -18 -125 -112z
M1405 3279l31 -89c-188 -27 -645 -215 -645 -215l-4 13s452 179 618 291z" />
    <glyph glyph-name="ucircumflex" unicode="&#xfb;" horiz-adv-x="2187" 
d="M1883 2670v-1976c0 -403 -323 -707 -753 -707c-470 0 -825 309 -825 779v1900c0 94 -45 116 -126 116v18h387v-18c-81 0 -126 -22 -126 -116v-1927c0 -457 278 -734 690 -734c426 0 735 309 735 689v1976c0 94 -45 112 -126 112v18h269v-18c-81 0 -125 -18 -125 -112z
M1111 3369c120 -108 331 -282 439 -368l-9 -13c-99 76 -283 211 -430 278c-147 -67 -331 -202 -430 -278l-9 13c108 86 319 260 439 368z" />
    <glyph glyph-name="udieresis" unicode="&#xfc;" horiz-adv-x="2187" 
d="M1883 2670v-1976c0 -403 -323 -707 -753 -707c-470 0 -825 309 -825 779v1900c0 94 -45 116 -126 116v18h387v-18c-81 0 -126 -22 -126 -116v-1927c0 -457 278 -734 690 -734c426 0 735 309 735 689v1976c0 94 -45 112 -126 112v18h269v-18c-81 0 -125 -18 -125 -112z
M918 3100c0 32 26 58 58 58s58 -26 58 -58s-26 -58 -58 -58s-58 26 -58 58zM1187 3100c0 32 26 58 58 58s58 -26 58 -58s-26 -58 -58 -58s-58 26 -58 58z" />
    <glyph glyph-name="yacute" unicode="&#xfd;" horiz-adv-x="2063" 
d="M454 2661l644 -1111l669 1138c50 85 -72 94 -85 94v18h246v-18c-67 0 -94 -13 -147 -103l-668 -1139v-1406c0 -94 45 -116 126 -116v-18h-387v18c81 0 126 22 126 116v1358l-677 1165c-60 101 -89 125 -166 125v18h386v-18c-90 0 -133 -7 -67 -121zM1320 3279l31 -89
c-188 -27 -645 -215 -645 -215l-4 13s452 179 618 291z" />
    <glyph glyph-name="thorn" unicode="&#xfe;" horiz-adv-x="2182" 
d="M565 0h-386v18c81 0 126 22 126 116v2532c0 94 -45 116 -126 116v18h386v-18c-81 0 -126 -22 -126 -116v-448h771c466 0 837 -363 837 -816c0 -452 -371 -820 -837 -820h-771v-448c0 -94 45 -116 126 -116v-18zM439 2200v-1600h766c381 0 690 363 690 802
s-309 798 -690 798h-766z" />
    <glyph glyph-name="ydieresis" unicode="&#xff;" horiz-adv-x="2063" 
d="M454 2661l644 -1111l669 1138c50 85 -72 94 -85 94v18h246v-18c-67 0 -94 -13 -147 -103l-668 -1139v-1406c0 -94 45 -116 126 -116v-18h-387v18c81 0 126 22 126 116v1358l-677 1165c-60 101 -89 125 -166 125v18h386v-18c-90 0 -133 -7 -67 -121zM858 3100
c0 32 26 58 58 58s58 -26 58 -58s-26 -58 -58 -58s-58 26 -58 58zM1127 3100c0 32 26 58 58 58s58 -26 58 -58s-26 -58 -58 -58s-58 26 -58 58z" />
    <glyph glyph-name="Amacron" unicode="&#x100;" horiz-adv-x="1411" 
d="M789 2670l385 -2545c16 -103 81 -107 107 -107v-18h-345v18c18 0 118 0 103 99l-112 757h-529l-120 -775c-13 -86 85 -81 103 -81v-18h-251v18c72 0 120 22 132 99l392 2526l-4 27c-18 109 -81 112 -99 112v18h327v-18c-54 0 -103 -21 -89 -112zM664 2593l-263 -1701h524
zM1137 3087l-425 13l-426 -13v71l426 -13l425 13v-71z" />
    <glyph glyph-name="amacron" unicode="&#x101;" horiz-adv-x="2306" 
d="M952 2670l1066 -2553c44 -102 126 -99 139 -99v-18h-385v18c18 0 140 -2 98 99l-496 1191h-1098l-36 -95c-43 -111 -72 -237 -72 -353c0 -318 178 -603 464 -741c56 -27 204 -92 475 -96c49 -1 204 6 306 198h18l-98 -220c-171 0 -223 0 -259 2c-288 10 -445 94 -452 97
c-292 143 -474 434 -474 760c0 128 30 247 78 373l565 1468c-30 54 -75 78 -117 81v18h385v-18c-58 0 -146 -18 -107 -112zM283 1326h1084l-563 1353zM1305 3087l-425 13l-426 -13v71l426 -13l425 13v-71z" />
    <glyph glyph-name="Abreve" unicode="&#x102;" horiz-adv-x="1411" 
d="M789 2670l385 -2545c16 -103 81 -107 107 -107v-18h-345v18c18 0 118 0 103 99l-112 757h-529l-120 -775c-13 -86 85 -81 103 -81v-18h-251v18c72 0 120 22 132 99l392 2526l-4 27c-18 109 -81 112 -99 112v18h327v-18c-54 0 -103 -21 -89 -112zM664 2593l-263 -1701h524
zM730 3087c-198 0 -408 121 -480 309h81c85 -162 264 -265 421 -265c179 0 340 103 394 265h18c-72 -202 -237 -309 -434 -309z" />
    <glyph glyph-name="abreve" unicode="&#x103;" horiz-adv-x="2306" 
d="M952 2670l1066 -2553c44 -102 126 -99 139 -99v-18h-385v18c18 0 140 -2 98 99l-496 1191h-1098l-36 -95c-43 -111 -72 -237 -72 -353c0 -318 178 -603 464 -741c56 -27 204 -92 475 -96c49 -1 204 6 306 198h18l-98 -220c-171 0 -223 0 -259 2c-288 10 -445 94 -452 97
c-292 143 -474 434 -474 760c0 128 30 247 78 373l565 1468c-30 54 -75 78 -117 81v18h385v-18c-58 0 -146 -18 -107 -112zM283 1326h1084l-563 1353zM865 3087c-198 0 -408 121 -480 309h81c85 -162 264 -265 421 -265c179 0 340 103 394 265h18
c-72 -202 -237 -309 -434 -309z" />
    <glyph glyph-name="Aogonek" unicode="&#x104;" horiz-adv-x="1411" 
d="M789 2670l385 -2545c16 -103 81 -107 107 -107v-18h-345v18c18 0 118 0 103 99l-112 757h-529l-120 -775c-13 -86 85 -81 103 -81v-18h-251v18c72 0 120 22 132 99l392 2526l-4 27c-18 109 -81 112 -99 112v18h327v-18c-54 0 -103 -21 -89 -112zM664 2593l-263 -1701h524
zM1326 -717c-183 0 -331 130 -331 305c0 170 121 313 278 425l8 -13c-147 -121 -264 -247 -264 -412c0 -162 139 -278 309 -278c157 0 309 116 309 278h23c0 -175 -161 -305 -332 -305z" />
    <glyph glyph-name="aogonek" unicode="&#x105;" horiz-adv-x="2306" 
d="M952 2670l1066 -2553c44 -102 126 -99 139 -99v-18h-385v18c18 0 140 -2 98 99l-496 1191h-1098l-36 -95c-43 -111 -72 -237 -72 -353c0 -318 178 -603 464 -741c56 -27 204 -92 475 -96c49 -1 204 6 306 198h18l-98 -220c-171 0 -223 0 -259 2c-288 10 -445 94 -452 97
c-292 143 -474 434 -474 760c0 128 30 247 78 373l565 1468c-30 54 -75 78 -117 81v18h385v-18c-58 0 -146 -18 -107 -112zM283 1326h1084l-563 1353zM2201 -717c-183 0 -331 130 -331 305c0 170 121 313 278 425l8 -13c-147 -121 -264 -247 -264 -412
c0 -162 139 -278 309 -278c157 0 309 116 309 278h23c0 -175 -161 -305 -332 -305z" />
    <glyph glyph-name="Cacute" unicode="&#x106;" horiz-adv-x="3038" 
d="M2890 1917h-139c-247 475 -744 816 -1299 816c-690 0 -1215 -521 -1215 -1215c0 -771 677 -1451 1456 -1451c560 0 1013 350 1161 851h49c-197 -542 -717 -931 -1326 -931c-797 0 -1420 645 -1420 1415c0 775 636 1411 1411 1411c609 0 1116 -376 1322 -896zM1868 3279
l31 -89c-188 -27 -645 -215 -645 -215l-4 13s452 179 618 291z" />
    <glyph glyph-name="cacute" unicode="&#x107;" horiz-adv-x="3038" 
d="M2890 1917h-139c-247 475 -744 816 -1299 816c-690 0 -1215 -521 -1215 -1215c0 -775 677 -1451 1456 -1451c560 0 1013 350 1161 851h49c-197 -542 -717 -931 -1326 -931c-797 0 -1420 645 -1420 1415c0 775 636 1411 1411 1411c609 0 1116 -376 1322 -896zM1868 3279
l31 -89c-188 -27 -645 -215 -645 -215l-4 13s452 179 618 291z" />
    <glyph glyph-name="Cdotaccent" unicode="&#x10a;" horiz-adv-x="3038" 
d="M2890 1917h-139c-247 475 -744 816 -1299 816c-690 0 -1215 -521 -1215 -1215c0 -771 677 -1451 1456 -1451c560 0 1013 350 1161 851h49c-197 -542 -717 -931 -1326 -931c-797 0 -1420 645 -1420 1415c0 775 636 1411 1411 1411c609 0 1116 -376 1322 -896zM1532 3051
c-54 0 -94 40 -94 94s40 94 94 94s94 -40 94 -94s-40 -94 -94 -94z" />
    <glyph glyph-name="cdotaccent" unicode="&#x10b;" horiz-adv-x="3038" 
d="M2890 1917h-139c-247 475 -744 816 -1299 816c-690 0 -1215 -521 -1215 -1215c0 -775 677 -1451 1456 -1451c560 0 1013 350 1161 851h49c-197 -542 -717 -931 -1326 -931c-797 0 -1420 645 -1420 1415c0 775 636 1411 1411 1411c609 0 1116 -376 1322 -896zM1532 3051
c-54 0 -94 40 -94 94s40 94 94 94s94 -40 94 -94s-40 -94 -94 -94z" />
    <glyph glyph-name="Ccaron" unicode="&#x10c;" horiz-adv-x="3038" 
d="M2890 1917h-139c-247 475 -744 816 -1299 816c-690 0 -1215 -521 -1215 -1215c0 -771 677 -1451 1456 -1451c560 0 1013 350 1161 851h49c-197 -542 -717 -931 -1326 -931c-797 0 -1420 645 -1420 1415c0 775 636 1411 1411 1411c609 0 1116 -376 1322 -896zM1532 2916
c-120 108 -331 282 -439 368l9 13c99 -76 283 -211 430 -278c147 67 331 202 430 278l9 -13c-108 -86 -319 -260 -439 -368z" />
    <glyph glyph-name="ccaron" unicode="&#x10d;" horiz-adv-x="3038" 
d="M2890 1917h-139c-247 475 -744 816 -1299 816c-690 0 -1215 -521 -1215 -1215c0 -775 677 -1451 1456 -1451c560 0 1013 350 1161 851h49c-197 -542 -717 -931 -1326 -931c-797 0 -1420 645 -1420 1415c0 775 636 1411 1411 1411c609 0 1116 -376 1322 -896zM1532 2916
c-120 108 -331 282 -439 368l9 13c99 -76 283 -211 430 -278c147 67 331 202 430 278l9 -13c-108 -86 -319 -260 -439 -368z" />
    <glyph glyph-name="Dcaron" unicode="&#x10e;" horiz-adv-x="2169" 
d="M637 0h-458v18c81 0 126 22 126 107v2541c0 94 -45 116 -126 116v18h458c780 0 1398 -623 1398 -1402c0 -775 -618 -1398 -1398 -1398zM543 18h117c667 0 1232 636 1232 1380c0 739 -547 1384 -1232 1384h-99c-13 0 -121 -13 -121 -116v-2541c0 -89 67 -107 103 -107z
M830 2916c-120 108 -331 282 -439 368l9 13c99 -76 283 -211 430 -278c147 67 331 202 430 278l9 -13c-108 -86 -319 -260 -439 -368z" />
    <glyph glyph-name="dcaron" unicode="&#x10f;" horiz-adv-x="2872" 
d="M1299 0h-1120v18c46 0 121 18 121 103v2549c0 108 -107 112 -121 112v18h1120c798 0 1394 -632 1394 -1402c0 -798 -632 -1398 -1394 -1398zM538 18h784c663 0 1227 636 1227 1380c0 739 -546 1384 -1232 1384h-761c-18 0 -121 -13 -121 -112v-2549
c0 -85 67 -103 103 -103zM1209 2916c-120 108 -331 282 -439 368l9 13c99 -76 283 -211 430 -278c147 67 331 202 430 278l9 -13c-108 -86 -319 -260 -439 -368z" />
    <glyph glyph-name="Dcroat" unicode="&#x110;" horiz-adv-x="2316" 
d="M326 2800h458c780 0 1398 -623 1398 -1402c0 -775 -618 -1398 -1398 -1398h-458v18c81 0 126 22 126 107v1264h-386v18h386v1259c0 94 -45 116 -126 116v18zM690 18h116c668 0 1232 636 1232 1380c0 739 -546 1384 -1232 1384h-98c-14 0 -121 -13 -121 -116v-1259h385
v-18h-385v-1264c0 -89 67 -107 103 -107z" />
    <glyph glyph-name="dcroat" unicode="&#x111;" horiz-adv-x="2872" 
d="M1299 0h-1120v18c46 0 121 18 121 103v2549c0 108 -107 112 -121 112v18h1120c798 0 1394 -632 1394 -1402c0 -798 -632 -1398 -1394 -1398zM538 18h784c663 0 1227 636 1227 1380c0 739 -546 1384 -1232 1384h-761c-18 0 -121 -13 -121 -112v-2549
c0 -85 67 -103 103 -103zM-31 1559v18h1317v-18h-1317z" />
    <glyph glyph-name="Emacron" unicode="&#x112;" horiz-adv-x="1345" 
d="M1211 0h-1032v18c85 0 126 22 126 116v2532c0 94 -41 116 -126 116v18h1032v-278h-18c0 156 -75 260 -215 260h-421c-32 0 -117 -13 -117 -116v-1259h121c139 0 215 107 215 260h18v-534h-18c0 153 -76 256 -215 256h-121v-1259c0 -94 85 -112 117 -112h421
c151 0 203 121 215 260h18v-278zM1120 3087l-425 13l-426 -13v71l426 -13l425 13v-71z" />
    <glyph glyph-name="emacron" unicode="&#x113;" horiz-adv-x="1345" 
d="M1211 0h-1032v18c85 0 126 22 126 116v2532c0 94 -41 116 -126 116v18h1032v-278h-18c0 156 -75 260 -215 260h-421c-32 0 -117 -13 -117 -116v-1259h121c139 0 215 107 215 260h18v-534h-18c0 153 -76 256 -215 256h-121v-1259c0 -94 85 -112 117 -112h421
c151 0 203 121 215 260h18v-278zM1120 3087l-425 13l-426 -13v71l426 -13l425 13v-71z" />
    <glyph glyph-name="Ebreve" unicode="&#x114;" horiz-adv-x="1345" 
d="M1211 0h-1032v18c85 0 126 22 126 116v2532c0 94 -41 116 -126 116v18h1032v-278h-18c0 156 -75 260 -215 260h-421c-32 0 -117 -13 -117 -116v-1259h121c139 0 215 107 215 260h18v-534h-18c0 153 -76 256 -215 256h-121v-1259c0 -94 85 -112 117 -112h421
c151 0 203 121 215 260h18v-278zM717 3087c-198 0 -408 121 -480 309h81c85 -162 264 -265 421 -265c179 0 340 103 394 265h18c-72 -202 -237 -309 -434 -309z" />
    <glyph glyph-name="ebreve" unicode="&#x115;" horiz-adv-x="1345" 
d="M1211 0h-1032v18c85 0 126 22 126 116v2532c0 94 -41 116 -126 116v18h1032v-278h-18c0 156 -75 260 -215 260h-421c-32 0 -117 -13 -117 -116v-1259h121c139 0 215 107 215 260h18v-534h-18c0 153 -76 256 -215 256h-121v-1259c0 -94 85 -112 117 -112h421
c151 0 203 121 215 260h18v-278zM717 3087c-198 0 -408 121 -480 309h81c85 -162 264 -265 421 -265c179 0 340 103 394 265h18c-72 -202 -237 -309 -434 -309z" />
    <glyph glyph-name="Edotaccent" unicode="&#x116;" horiz-adv-x="1345" 
d="M1211 0h-1032v18c85 0 126 22 126 116v2532c0 94 -41 116 -126 116v18h1032v-278h-18c0 156 -75 260 -215 260h-421c-32 0 -117 -13 -117 -116v-1259h121c139 0 215 107 215 260h18v-534h-18c0 153 -76 256 -215 256h-121v-1259c0 -94 85 -112 117 -112h421
c151 0 203 121 215 260h18v-278zM695 3051c-54 0 -94 40 -94 94s40 94 94 94s94 -40 94 -94s-40 -94 -94 -94z" />
    <glyph glyph-name="edotaccent" unicode="&#x117;" horiz-adv-x="1345" 
d="M1211 0h-1032v18c85 0 126 22 126 116v2532c0 94 -41 116 -126 116v18h1032v-278h-18c0 156 -75 260 -215 260h-421c-32 0 -117 -13 -117 -116v-1259h121c139 0 215 107 215 260h18v-534h-18c0 153 -76 256 -215 256h-121v-1259c0 -94 85 -112 117 -112h421
c151 0 203 121 215 260h18v-278zM694 3051c-54 0 -94 40 -94 94s40 94 94 94s94 -40 94 -94s-40 -94 -94 -94z" />
    <glyph glyph-name="Eogonek" unicode="&#x118;" horiz-adv-x="1345" 
d="M1211 0h-1032v18c85 0 126 22 126 116v2532c0 94 -41 116 -126 116v18h1032v-278h-18c0 156 -75 260 -215 260h-421c-32 0 -117 -13 -117 -116v-1259h121c139 0 215 107 215 260h18v-534h-18c0 153 -76 256 -215 256h-121v-1259c0 -94 85 -112 117 -112h421
c151 0 203 121 215 260h18v-278zM1256 -717c-183 0 -331 130 -331 305c0 170 121 313 278 425l8 -13c-147 -121 -264 -247 -264 -412c0 -162 139 -278 309 -278c157 0 309 116 309 278h23c0 -175 -161 -305 -332 -305z" />
    <glyph glyph-name="eogonek" unicode="&#x119;" horiz-adv-x="1345" 
d="M1211 0h-1032v18c85 0 126 22 126 116v2532c0 94 -41 116 -126 116v18h1032v-278h-18c0 156 -75 260 -215 260h-421c-32 0 -117 -13 -117 -116v-1259h121c139 0 215 107 215 260h18v-534h-18c0 153 -76 256 -215 256h-121v-1259c0 -94 85 -112 117 -112h421
c151 0 203 121 215 260h18v-278zM1256 -717c-183 0 -331 130 -331 305c0 170 121 313 278 425l8 -13c-147 -121 -264 -247 -264 -412c0 -162 139 -278 309 -278c157 0 309 116 309 278h23c0 -175 -161 -305 -332 -305z" />
    <glyph glyph-name="Ecaron" unicode="&#x11a;" horiz-adv-x="1345" 
d="M1211 0h-1032v18c85 0 126 22 126 116v2532c0 94 -41 116 -126 116v18h1032v-278h-18c0 156 -75 260 -215 260h-421c-32 0 -117 -13 -117 -116v-1259h121c139 0 215 107 215 260h18v-534h-18c0 153 -76 256 -215 256h-121v-1259c0 -94 85 -112 117 -112h421
c151 0 203 121 215 260h18v-278zM695 2916c-120 108 -331 282 -439 368l9 13c99 -76 283 -211 430 -278c147 67 331 202 430 278l9 -13c-108 -86 -319 -260 -439 -368z" />
    <glyph glyph-name="ecaron" unicode="&#x11b;" horiz-adv-x="1345" 
d="M1211 0h-1032v18c85 0 126 22 126 116v2532c0 94 -41 116 -126 116v18h1032v-278h-18c0 156 -75 260 -215 260h-421c-32 0 -117 -13 -117 -116v-1259h121c139 0 215 107 215 260h18v-534h-18c0 153 -76 256 -215 256h-121v-1259c0 -94 85 -112 117 -112h421
c151 0 203 121 215 260h18v-278zM694 2916c-120 108 -331 282 -439 368l9 13c99 -76 283 -211 430 -278c147 67 331 202 430 278l9 -13c-108 -86 -319 -260 -439 -368z" />
    <glyph glyph-name="Gcircumflex" unicode="&#x11c;" horiz-adv-x="3598" 
d="M1577 -13c-797 0 -1420 645 -1420 1415c0 775 636 1411 1411 1411c609 0 1116 -376 1322 -896h-139c-247 475 -744 816 -1299 816c-690 0 -1215 -525 -1215 -1219c0 -775 677 -1447 1456 -1447c684 0 1208 528 1215 1214h-672v18h1249v-18h-506v-1214h-18l-40 910
c-139 -556 -717 -990 -1344 -990zM1568 3369c120 -108 331 -282 439 -368l-9 -13c-99 76 -283 211 -430 278c-147 -67 -331 -202 -430 -278l-9 13c108 86 319 260 439 368z" />
    <glyph glyph-name="gcircumflex" unicode="&#x11d;" horiz-adv-x="2984" 
d="M1568 -13c-779 0 -1411 633 -1411 1417c0 779 632 1409 1411 1409c376 0 721 -148 977 -390v-130c-233 305 -587 502 -977 502c-703 0 -1272 -625 -1272 -1391c0 -771 569 -1399 1272 -1399c443 0 999 182 999 694c0 309 -263 560 -538 560h-613v18h1411v-18h-663
c242 -72 421 -296 421 -560c0 -507 -532 -712 -1017 -712zM1521 3369c120 -108 331 -282 439 -368l-9 -13c-99 76 -283 211 -430 278c-147 -67 -331 -202 -430 -278l-9 13c108 86 319 260 439 368z" />
    <glyph glyph-name="Gbreve" unicode="&#x11e;" horiz-adv-x="3598" 
d="M1577 -13c-797 0 -1420 645 -1420 1415c0 775 636 1411 1411 1411c609 0 1116 -376 1322 -896h-139c-247 475 -744 816 -1299 816c-690 0 -1215 -525 -1215 -1219c0 -775 677 -1447 1456 -1447c684 0 1208 528 1215 1214h-672v18h1249v-18h-506v-1214h-18l-40 910
c-139 -556 -717 -990 -1344 -990zM1586 3087c-198 0 -408 121 -480 309h81c85 -162 264 -265 421 -265c179 0 340 103 394 265h18c-72 -202 -237 -309 -434 -309z" />
    <glyph glyph-name="gbreve" unicode="&#x11f;" horiz-adv-x="2984" 
d="M1568 -13c-779 0 -1411 633 -1411 1417c0 779 632 1409 1411 1409c376 0 721 -148 977 -390v-130c-233 305 -587 502 -977 502c-703 0 -1272 -625 -1272 -1391c0 -771 569 -1399 1272 -1399c443 0 999 182 999 694c0 309 -263 560 -538 560h-613v18h1411v-18h-663
c242 -72 421 -296 421 -560c0 -507 -532 -712 -1017 -712zM1510 3087c-198 0 -408 121 -480 309h81c85 -162 264 -265 421 -265c179 0 340 103 394 265h18c-72 -202 -237 -309 -434 -309z" />
    <glyph glyph-name="Gdotaccent" unicode="&#x120;" horiz-adv-x="3598" 
d="M1577 -13c-797 0 -1420 645 -1420 1415c0 775 636 1411 1411 1411c609 0 1116 -376 1322 -896h-139c-247 475 -744 816 -1299 816c-690 0 -1215 -525 -1215 -1219c0 -775 677 -1447 1456 -1447c684 0 1208 528 1215 1214h-672v18h1249v-18h-506v-1214h-18l-40 910
c-139 -556 -717 -990 -1344 -990zM1568 3051c-54 0 -94 40 -94 94s40 94 94 94s94 -40 94 -94s-40 -94 -94 -94z" />
    <glyph glyph-name="gdotaccent" unicode="&#x121;" horiz-adv-x="2984" 
d="M1568 -13c-779 0 -1411 633 -1411 1417c0 779 632 1409 1411 1409c376 0 721 -148 977 -390v-130c-233 305 -587 502 -977 502c-703 0 -1272 -625 -1272 -1391c0 -771 569 -1399 1272 -1399c443 0 999 182 999 694c0 309 -263 560 -538 560h-613v18h1411v-18h-663
c242 -72 421 -296 421 -560c0 -507 -532 -712 -1017 -712zM1522 3051c-54 0 -94 40 -94 94s40 94 94 94s94 -40 94 -94s-40 -94 -94 -94z" />
    <glyph glyph-name="uni0122" unicode="&#x122;" horiz-adv-x="3598" 
d="M1577 -13c-797 0 -1420 645 -1420 1415c0 775 636 1411 1411 1411c609 0 1116 -376 1322 -896h-139c-247 475 -744 816 -1299 816c-690 0 -1215 -525 -1215 -1219c0 -775 677 -1447 1456 -1447c684 0 1208 528 1215 1214h-672v18h1249v-18h-506v-1214h-18l-40 910
c-139 -556 -717 -990 -1344 -990zM1605 -632l-23 14c18 44 36 98 41 143c-69 -2 -117 36 -117 94c0 63 45 108 103 108c54 0 103 -45 103 -108c0 -40 -9 -76 -107 -251z" />
    <glyph glyph-name="uni0123" unicode="&#x123;" horiz-adv-x="2984" 
d="M1568 -13c-779 0 -1411 633 -1411 1417c0 779 632 1409 1411 1409c376 0 721 -148 977 -390v-130c-233 305 -587 502 -977 502c-703 0 -1272 -625 -1272 -1391c0 -771 569 -1399 1272 -1399c443 0 999 182 999 694c0 309 -263 560 -538 560h-613v18h1411v-18h-663
c242 -72 421 -296 421 -560c0 -507 -532 -712 -1017 -712zM1496 3383l23 -14c-18 -44 -36 -98 -41 -143c69 2 117 -37 117 -95c0 -63 -45 -107 -103 -107c-54 0 -103 45 -103 108c0 40 9 76 107 251z" />
    <glyph glyph-name="Hcircumflex" unicode="&#x124;" horiz-adv-x="1480" 
d="M740 3369c120 -108 331 -282 439 -368l-9 -13c-99 76 -283 211 -430 278c-147 -67 -331 -202 -430 -278l-9 13c108 86 319 260 439 368zM1299 0h-385v18c80 0 125 22 125 116v1255h-600v-1255c0 -94 45 -116 125 -116v-18h-385v18c80 0 125 22 125 116v2532
c0 94 -45 116 -125 116v18h385v-18c-80 0 -125 -22 -125 -116v-1259h600v1259c0 94 -45 116 -125 116v18h385v-18c-80 0 -125 -22 -125 -116v-2532c0 -94 45 -116 125 -116v-18z" />
    <glyph glyph-name="hcircumflex" unicode="&#x125;" horiz-adv-x="2667" 
d="M2487 0h-385v18c80 0 125 22 125 116v1255h-1788v-1255c0 -94 45 -116 125 -116v-18h-385v18c80 0 125 22 125 116v2532c0 94 -45 116 -125 116v18h385v-18c-80 0 -125 -22 -125 -116v-1259h1788v1259c0 94 -45 116 -125 116v18h385v-18c-80 0 -125 -22 -125 -116v-2532
c0 -94 45 -116 125 -116v-18zM1339 3419c120 -108 331 -282 439 -368l-9 -13c-99 76 -283 211 -430 278c-147 -67 -331 -202 -430 -278l-9 13c108 86 319 260 439 368z" />
    <glyph glyph-name="Hbar" unicode="&#x126;" horiz-adv-x="1478" 
d="M1299 0h-385v18c80 0 125 22 125 116v1255h-600v-1255c0 -94 45 -116 125 -116v-18h-385v18c80 0 125 22 125 116v1828h-125v18h125v686c0 94 -45 116 -125 116v18h385v-18c-80 0 -125 -22 -125 -116v-686h600v686c0 94 -45 116 -125 116v18h385v-18
c-80 0 -125 -22 -125 -116v-686h125v-18h-125v-1828c0 -94 45 -116 125 -116v-18zM439 1407h600v555h-600v-555z" />
    <glyph glyph-name="hbar" unicode="&#x127;" horiz-adv-x="2665" 
d="M2487 0h-385v18c80 0 125 22 125 116v1255h-1788v-1255c0 -94 45 -116 125 -116v-18h-385v18c80 0 125 22 125 116v1828h-125v18h125v686c0 94 -45 116 -125 116v18h385v-18c-80 0 -125 -22 -125 -116v-686h1788v686c0 94 -45 116 -125 116v18h385v-18
c-80 0 -125 -22 -125 -116v-686h124v-18h-124v-1828c0 -94 45 -116 125 -116v-18zM439 1407h1788v555h-1788v-555z" />
    <glyph glyph-name="Itilde" unicode="&#x128;" horiz-adv-x="743" 
d="M536 0h-385v18c80 0 125 22 125 116v2532c0 94 -45 116 -125 116v18h385v-18c-80 0 -125 -22 -125 -116v-2532c0 -94 45 -116 125 -116v-18zM-51 2979h-18c-8 23 -14 47 -14 76c0 117 67 188 193 188c94 0 201 -53 287 -107c98 -58 170 -117 268 -117
c72 0 144 59 144 153c0 27 -6 51 -14 71h18c5 -13 14 -44 14 -76c0 -121 -71 -188 -198 -188c-100 0 -201 58 -282 112c-130 81 -188 112 -268 112c-72 0 -144 -58 -144 -152c0 -28 7 -55 14 -72z" />
    <glyph glyph-name="itilde" unicode="&#x129;" horiz-adv-x="743" 
d="M566 0h-385v18c80 0 125 22 125 116v2532c0 94 -45 116 -125 116v18h385v-18c-80 0 -125 -22 -125 -116v-2532c0 -94 45 -116 125 -116v-18zM-51 2979h-18c-8 23 -14 47 -14 76c0 117 67 188 193 188c94 0 201 -53 287 -107c98 -58 170 -117 268 -117
c72 0 144 59 144 153c0 27 -6 51 -14 71h18c5 -13 14 -44 14 -76c0 -121 -71 -188 -198 -188c-100 0 -201 58 -282 112c-130 81 -188 112 -268 112c-72 0 -144 -58 -144 -152c0 -28 7 -55 14 -72z" />
    <glyph glyph-name="Imacron" unicode="&#x12a;" horiz-adv-x="743" 
d="M565 0h-385v18c80 0 125 22 125 116v2532c0 94 -45 116 -125 116v18h385v-18c-80 0 -125 -22 -125 -116v-2532c0 -94 45 -116 125 -116v-18zM797 3087l-425 13l-426 -13v71l426 -13l425 13v-71z" />
    <glyph glyph-name="imacron" unicode="&#x12b;" horiz-adv-x="743" 
d="M563 0h-385v18c80 0 125 22 125 116v2532c0 94 -45 116 -125 116v18h385v-18c-80 0 -125 -22 -125 -116v-2532c0 -94 45 -116 125 -116v-18zM797 3087l-425 13l-426 -13v71l426 -13l425 13v-71z" />
    <glyph glyph-name="Iogonek" unicode="&#x12e;" horiz-adv-x="743" 
d="M564 0h-385v18c80 0 125 22 125 116v2532c0 94 -45 116 -125 116v18h385v-18c-80 0 -125 -22 -125 -116v-2532c0 -94 45 -116 125 -116v-18zM609 -717c-183 0 -331 130 -331 305c0 170 121 313 278 425l8 -13c-147 -121 -264 -247 -264 -412c0 -162 139 -278 309 -278
c157 0 309 116 309 278h23c0 -175 -161 -305 -332 -305z" />
    <glyph glyph-name="iogonek" unicode="&#x12f;" horiz-adv-x="743" 
d="M564 0h-385v18c80 0 125 22 125 116v2532c0 94 -45 116 -125 116v18h385v-18c-80 0 -125 -22 -125 -116v-2532c0 -94 45 -116 125 -116v-18zM609 -717c-183 0 -331 130 -331 305c0 170 121 313 278 425l8 -13c-147 -121 -264 -247 -264 -412c0 -162 139 -278 309 -278
c157 0 309 116 309 278h23c0 -175 -161 -305 -332 -305z" />
    <glyph glyph-name="Idotaccent" unicode="&#x130;" horiz-adv-x="743" 
d="M564 0h-385v18c80 0 125 22 125 116v2532c0 94 -45 116 -125 116v18h385v-18c-80 0 -125 -22 -125 -116v-2532c0 -94 45 -116 125 -116v-18zM371 3051c-54 0 -94 40 -94 94s40 94 94 94s94 -40 94 -94s-40 -94 -94 -94z" />
    <glyph glyph-name="dotlessi" unicode="&#x131;" horiz-adv-x="743" 
d="M564 0h-385v18c80 0 125 22 125 116v2532c0 94 -45 116 -125 116v18h385v-18c-80 0 -125 -22 -125 -116v-2532c0 -94 45 -116 125 -116v-18z" />
    <glyph glyph-name="Jcircumflex" unicode="&#x134;" horiz-adv-x="1769" 
d="M640 5c458 0 668 338 668 821v1840c0 94 -45 116 -125 116v18h385v-18c-81 0 -125 -22 -125 -116v-1839c0 -608 -328 -840 -790 -840c-146 0 -279 22 -519 156v241h18c11 -193 90 -263 135 -290c103 -63 232 -89 353 -89zM1376 3369c120 -108 331 -282 439 -368l-9 -13
c-99 76 -283 211 -430 278c-147 -67 -331 -202 -430 -278l-9 13c108 86 319 260 439 368z" />
    <glyph glyph-name="jcircumflex" unicode="&#x135;" horiz-adv-x="1770" 
d="M627 5c282 0 520 179 618 403c59 139 63 260 63 398v1860c0 94 -45 116 -125 116v18h385v-18c-81 0 -125 -22 -125 -116v-1909c0 -511 -354 -770 -816 -770c-148 0 -242 26 -493 156v241h18c11 -193 90 -263 135 -290c103 -63 219 -89 340 -89zM1375 3414
c120 -108 331 -282 439 -368l-9 -13c-99 76 -283 211 -430 278c-147 -67 -331 -202 -430 -278l-9 13c108 86 319 260 439 368z" />
    <glyph glyph-name="uni0136" unicode="&#x136;" horiz-adv-x="2232" 
d="M564 0h-385v18c80 0 125 22 125 116v2532c0 94 -45 116 -125 116v18h385v-18c-80 0 -125 -22 -125 -116v-1332l1291 1381c26 28 27 67 -85 67v18h242v-18h-22c-45 0 -72 -27 -121 -81l-1053 -1124l1250 -1460c49 -59 81 -99 157 -99v-18h-404v18c14 0 130 22 68 103
l-1098 1429l-225 -243v-1173c0 -94 45 -116 125 -116v-18zM1105 -632l-23 14c18 44 36 98 41 143c-69 -2 -117 36 -117 94c0 63 45 108 103 108c54 0 103 -45 103 -108c0 -40 -9 -76 -107 -251z" />
    <glyph glyph-name="uni0137" unicode="&#x137;" horiz-adv-x="2232" 
d="M564 0h-385v18c80 0 125 22 125 116v2532c0 94 -45 116 -125 116v18h385v-18c-80 0 -125 -22 -125 -116v-1332l1291 1381c26 28 27 67 -85 67v18h242v-18h-22c-45 0 -72 -27 -121 -81l-1053 -1124l1250 -1460c49 -59 81 -99 157 -99v-18h-404v18c14 0 130 22 68 103
l-1098 1429l-225 -243v-1173c0 -94 45 -116 125 -116v-18zM1135 -632l-23 14c18 44 36 98 41 143c-69 -2 -117 36 -117 94c0 63 45 108 103 108c54 0 103 -45 103 -108c0 -40 -9 -76 -107 -251z" />
    <glyph glyph-name="Lacute" unicode="&#x139;" horiz-adv-x="1582" 
d="M570 18h623c219 0 215 260 215 260h18v-278h-1242v18c80 0 121 22 121 116v2532c0 94 -45 116 -126 116v18h387v-18c-81 0 -126 -22 -126 -116v-2532c0 -94 49 -116 130 -116zM712 3279l31 -89c-188 -27 -645 -215 -645 -215l-4 13s452 179 618 291z" />
    <glyph glyph-name="lacute" unicode="&#x13a;" horiz-adv-x="2568" 
d="M2434 0h-2250v18c80 0 121 22 121 116v2532c0 94 -45 116 -126 116v18h387v-18c-81 0 -126 -22 -126 -116v-2532c0 -89 49 -116 130 -116h1631c219 0 215 260 215 260h18v-278zM797 3279l31 -89c-188 -27 -645 -215 -645 -215l-4 13s452 179 618 291z" />
    <glyph glyph-name="uni013B" unicode="&#x13b;" horiz-adv-x="1582" 
d="M570 18h623c219 0 215 260 215 260h18v-278h-1242v18c80 0 121 22 121 116v2532c0 94 -45 116 -126 116v18h387v-18c-81 0 -126 -22 -126 -116v-2532c0 -94 49 -116 130 -116zM777 -632l-23 14c18 44 36 98 41 143c-69 -2 -117 36 -117 94c0 63 45 108 103 108
c54 0 103 -45 103 -108c0 -40 -9 -76 -107 -251z" />
    <glyph glyph-name="uni013C" unicode="&#x13c;" horiz-adv-x="2568" 
d="M2434 0h-2250v18c80 0 121 22 121 116v2532c0 94 -45 116 -126 116v18h387v-18c-81 0 -126 -22 -126 -116v-2532c0 -89 49 -116 130 -116h1631c219 0 215 260 215 260h18v-278zM1303 -632l-23 14c18 44 36 98 41 143c-69 -2 -117 36 -117 94c0 63 45 108 103 108
c54 0 103 -45 103 -108c0 -40 -9 -76 -107 -251z" />
    <glyph glyph-name="Lcaron" unicode="&#x13d;" horiz-adv-x="1582" 
d="M570 18h623c219 0 215 260 215 260h18v-278h-1242v18c80 0 121 22 121 116v2532c0 94 -45 116 -126 116v18h387v-18c-81 0 -126 -22 -126 -116v-2532c0 -94 49 -116 130 -116zM964 2450l-23 14c18 44 36 98 41 143c-69 -2 -117 36 -117 94c0 63 45 108 103 108
c54 0 103 -45 103 -108c0 -40 -9 -76 -107 -251z" />
    <glyph glyph-name="lcaron" unicode="&#x13e;" horiz-adv-x="2568" 
d="M2434 0h-2250v18c80 0 121 22 121 116v2532c0 94 -45 116 -126 116v18h387v-18c-81 0 -126 -22 -126 -116v-2532c0 -89 49 -116 130 -116h1631c219 0 215 260 215 260h18v-278zM1302 2450l-23 14c18 44 36 98 41 143c-69 -2 -117 36 -117 94c0 63 45 108 103 108
c54 0 103 -45 103 -108c0 -40 -9 -76 -107 -251z" />
    <glyph glyph-name="Lslash" unicode="&#x141;" horiz-adv-x="1581" 
d="M1407 278h18v-278h-1241v18c81 0 125 22 125 116l-4 1335l-291 -313l-14 13l305 327v1170c0 94 -45 116 -126 116v18h386v-18c-81 0 -126 -22 -126 -116v-1031l578 614l14 -13l-592 -628l5 -1474c0 -94 45 -116 125 -116h623c219 0 215 260 215 260z" />
    <glyph glyph-name="lslash" unicode="&#x142;" horiz-adv-x="2656" 
d="M2505 278h17v-278h-2248v18c80 0 125 22 125 116l-3 1428l-382 -406l-14 13l396 421l-2 1076c0 94 -44 116 -125 116v18h385v-18c-80 0 -125 -22 -125 -116l2 -934l486 517l14 -13l-500 -531l2 -1571c0 -94 45 -116 126 -116h1631c219 0 215 260 215 260z" />
    <glyph glyph-name="Nacute" unicode="&#x143;" horiz-adv-x="1457" 
d="M385 0h-170v18c40 0 76 0 76 94v2616c-26 59 -96 54 -112 54v18h385v-18c-62 0 -131 -23 -107 -112l681 -2528v2546c0 94 -36 94 -77 94v18h172v-18c-41 0 -77 0 -77 -94v-2567c41 -94 117 -103 122 -103v-18h-385v18c62 0 136 -5 109 99l-693 2584v-2589
c0 -94 36 -94 76 -94v-18zM1066 3279l31 -89c-188 -27 -645 -215 -645 -215l-4 13s452 179 618 291z" />
    <glyph glyph-name="nacute" unicode="&#x144;" horiz-adv-x="1853" 
d="M1389 130l-1075 2571v-2589c0 -94 89 -94 121 -94v-18h-256v18c27 0 117 0 117 94v2616c-32 59 -91 54 -105 54v18h386v-18c-54 0 -143 -21 -105 -112l1047 -2504v2527c0 89 -90 89 -117 89v18h256v-18c-32 0 -121 0 -121 -89v-2572c59 -108 124 -103 137 -103v-18h-385
v18c54 0 138 21 100 112zM1197 3279l31 -89c-188 -27 -645 -215 -645 -215l-4 13s452 179 618 291z" />
    <glyph glyph-name="uni0145" unicode="&#x145;" horiz-adv-x="1457" 
d="M385 0h-170v18c40 0 76 0 76 94v2616c-26 59 -96 54 -112 54v18h385v-18c-62 0 -131 -23 -107 -112l681 -2528v2546c0 94 -36 94 -77 94v18h172v-18c-41 0 -77 0 -77 -94v-2567c41 -94 117 -103 122 -103v-18h-385v18c62 0 136 -5 109 99l-693 2584v-2589
c0 -94 36 -94 76 -94v-18zM727 -587l-23 14c18 44 36 98 41 143c-69 -2 -117 36 -117 94c0 63 45 108 103 108c54 0 103 -45 103 -108c0 -40 -9 -76 -107 -251z" />
    <glyph glyph-name="uni0146" unicode="&#x146;" horiz-adv-x="1853" 
d="M1389 130l-1075 2571v-2589c0 -94 89 -94 121 -94v-18h-256v18c27 0 117 0 117 94v2616c-32 59 -91 54 -105 54v18h386v-18c-54 0 -143 -21 -105 -112l1047 -2504v2527c0 89 -90 89 -117 89v18h256v-18c-32 0 -121 0 -121 -89v-2572c59 -108 124 -103 137 -103v-18h-385
v18c54 0 138 21 100 112zM900 -632l-23 14c18 44 36 98 41 143c-69 -2 -117 36 -117 94c0 63 45 108 103 108c54 0 103 -45 103 -108c0 -40 -9 -76 -107 -251z" />
    <glyph glyph-name="Ncaron" unicode="&#x147;" horiz-adv-x="1457" 
d="M385 0h-170v18c40 0 76 0 76 94v2616c-26 59 -96 54 -112 54v18h385v-18c-62 0 -131 -23 -107 -112l681 -2528v2546c0 94 -36 94 -77 94v18h172v-18c-41 0 -77 0 -77 -94v-2567c41 -94 117 -103 122 -103v-18h-385v18c62 0 136 -5 109 99l-693 2584v-2589
c0 -94 36 -94 76 -94v-18zM730 2916c-120 108 -331 282 -439 368l9 13c99 -76 283 -211 430 -278c147 67 331 202 430 278l9 -13c-108 -86 -319 -260 -439 -368z" />
    <glyph glyph-name="ncaron" unicode="&#x148;" horiz-adv-x="1853" 
d="M1389 130l-1075 2571v-2589c0 -94 89 -94 121 -94v-18h-256v18c27 0 117 0 117 94v2616c-32 59 -91 54 -105 54v18h386v-18c-54 0 -143 -21 -105 -112l1047 -2504v2527c0 89 -90 89 -117 89v18h256v-18c-32 0 -121 0 -121 -89v-2572c59 -108 124 -103 137 -103v-18h-385
v18c54 0 138 21 100 112zM903 2916c-120 108 -331 282 -439 368l9 13c99 -76 283 -211 430 -278c147 67 331 202 430 278l9 -13c-108 -86 -319 -260 -439 -368z" />
    <glyph glyph-name="Eng" unicode="&#x14a;" horiz-adv-x="1411" 
d="M1138 142v2546c0 94 -36 94 -77 94v18h171v-18c-41 0 -77 0 -77 -94v-2934c0 -126 -103 -260 -273 -260c-166 0 -273 130 -273 286h18c0 -161 112 -268 255 -268c144 0 256 103 256 259v229h-245v18c62 0 137 -5 109 99l-693 2584v-2589c0 -94 36 -94 76 -94v-18h-170v18
c40 0 76 0 76 94v2616c-26 59 -96 54 -112 54v18h385v-18c-62 0 -132 -23 -107 -112z" />
    <glyph glyph-name="eng" unicode="&#x14b;" horiz-adv-x="1832" 
d="M1514 0h-230v18c54 0 147 21 109 112l-1075 2571v-2589c0 -94 81 -94 121 -94v-18h-260v18c41 0 121 0 121 94v2616c-31 59 -98 54 -112 54v18h389v-18c-54 0 -148 -21 -110 -112l1047 -2504v2522c0 94 -80 94 -121 94v18h260v-18c-40 0 -121 0 -121 -94v-2934
c0 -126 -103 -260 -273 -260c-166 0 -273 130 -273 286h18c0 -161 112 -268 255 -268s255 103 255 259v229z" />
    <glyph glyph-name="Omacron" unicode="&#x14c;" horiz-adv-x="3100" 
d="M1555 -13c-798 0 -1421 645 -1421 1415c0 775 637 1411 1412 1411c797 0 1420 -645 1420 -1411c0 -779 -632 -1415 -1411 -1415zM1671 67c686 0 1214 529 1214 1214c0 780 -676 1452 -1456 1452c-690 0 -1223 -529 -1214 -1223c9 -775 677 -1443 1456 -1443zM1998 3087
l-425 13l-426 -13v71l426 -13l425 13v-71z" />
    <glyph glyph-name="omacron" unicode="&#x14d;" horiz-adv-x="3100" 
d="M1555 -13c-798 0 -1421 645 -1421 1415c0 775 637 1411 1412 1411c797 0 1420 -645 1420 -1411c0 -779 -632 -1415 -1411 -1415zM1671 67c686 0 1214 529 1214 1214c0 780 -676 1452 -1456 1452c-690 0 -1214 -521 -1214 -1215c0 -775 677 -1451 1456 -1451zM1975 3087
l-425 13l-426 -13v71l426 -13l425 13v-71z" />
    <glyph glyph-name="Ohungarumlaut" unicode="&#x150;" horiz-adv-x="3100" 
d="M1555 -13c-798 0 -1421 645 -1421 1415c0 775 637 1411 1412 1411c797 0 1420 -645 1420 -1411c0 -779 -632 -1415 -1411 -1415zM1671 67c686 0 1214 529 1214 1214c0 780 -676 1452 -1456 1452c-690 0 -1223 -529 -1214 -1223c9 -775 677 -1443 1456 -1443zM1664 3280
l31 -90c-188 -27 -645 -215 -645 -215l-4 14s452 179 618 291zM2067 3280l32 -90c-189 -27 -646 -215 -646 -215l-4 14s452 179 618 291z" />
    <glyph glyph-name="ohungarumlaut" unicode="&#x151;" horiz-adv-x="3100" 
d="M1555 -13c-798 0 -1421 645 -1421 1415c0 775 637 1411 1412 1411c797 0 1420 -645 1420 -1411c0 -779 -632 -1415 -1411 -1415zM1671 67c686 0 1214 529 1214 1214c0 780 -676 1452 -1456 1452c-690 0 -1214 -521 -1214 -1215c0 -775 677 -1451 1456 -1451zM1483 3279
l31 -90c-188 -27 -645 -215 -645 -215l-4 14s452 179 618 291zM1886 3279l32 -90c-189 -27 -646 -215 -646 -215l-4 14s452 179 618 291z" />
    <glyph glyph-name="OE" unicode="&#x152;" horiz-adv-x="3924" 
d="M3790 2800v-278h-18c0 128 -66 260 -215 260h-421c-27 0 -116 -13 -116 -116v-1259h121c145 0 211 125 215 260h17v-534h-17c0 124 -71 256 -215 256h-121v-1255c0 -103 89 -116 116 -116h421c144 0 212 122 215 260h18v-278h-1030v18c80 0 125 22 125 116v798
c-192 -551 -717 -945 -1330 -945c-798 0 -1421 645 -1421 1415c0 775 637 1411 1412 1411c627 0 1147 -398 1339 -940v793c0 94 -45 116 -125 116v18h1030zM1671 67c686 0 1214 529 1214 1214c0 780 -676 1452 -1456 1452c-690 0 -1223 -529 -1214 -1223
c9 -775 677 -1443 1456 -1443z" />
    <glyph glyph-name="oe" unicode="&#x153;" horiz-adv-x="3924" 
d="M3790 2800v-278h-18c0 125 -69 260 -215 260h-421c-27 0 -116 -13 -116 -116v-1259h121c146 0 211 125 215 260h17v-534h-17c0 120 -69 256 -215 256h-121v-1259c0 -99 89 -112 116 -112h421c145 0 212 122 215 260h18v-278h-1030v18c80 0 125 22 125 116v796
c-194 -548 -716 -943 -1330 -943c-798 0 -1421 645 -1421 1415c0 775 637 1411 1412 1411c627 0 1146 -399 1339 -942v795c0 94 -45 116 -125 116v18h1030zM1671 67c686 0 1214 529 1214 1214c0 780 -676 1452 -1456 1452c-690 0 -1223 -529 -1214 -1223
c9 -775 677 -1443 1456 -1443z" />
    <glyph glyph-name="Racute" unicode="&#x154;" horiz-adv-x="2357" 
d="M566 0h-387v18c81 0 126 22 126 116v2532c0 94 -45 116 -126 116v18h1139c453 0 816 -358 816 -797c0 -413 -319 -749 -726 -793l631 -1093c59 -99 105 -99 139 -99v-18h-377v18c13 0 130 13 85 99l-1404 2616c-5 10 -15 13 -22 13c-11 0 -20 -9 -20 -20v-2592
c0 -94 45 -116 126 -116v-18zM495 2764l899 -1527c336 40 596 367 596 766c0 425 -300 779 -672 779h-814c-6 0 -15 -6 -9 -18zM1313 3279l31 -89c-188 -27 -645 -215 -645 -215l-4 13s452 179 618 291z" />
    <glyph glyph-name="racute" unicode="&#x155;" horiz-adv-x="2599" 
d="M566 0h-387v18c81 0 126 22 126 116v2532c0 94 -45 116 -126 116v18h1063c403 0 735 -323 735 -717c0 -398 -332 -712 -735 -712h-305c162 -31 466 -126 684 -384c218 -260 496 -955 844 -969v-18c-314 -5 -685 511 -887 789c-211 295 -502 582 -824 582h-314v-1241
c0 -67 49 -112 126 -112v-18zM440 2670v-1281h798c322 0 600 309 600 694c0 381 -269 699 -600 699h-704c-45 0 -94 -40 -94 -112zM1449 3279l31 -89c-188 -27 -645 -215 -645 -215l-4 13s452 179 618 291z" />
    <glyph glyph-name="uni0156" unicode="&#x156;" horiz-adv-x="2357" 
d="M566 0h-387v18c81 0 126 22 126 116v2532c0 94 -45 116 -126 116v18h1139c453 0 816 -358 816 -797c0 -413 -319 -749 -726 -793l631 -1093c59 -99 105 -99 139 -99v-18h-377v18c13 0 130 13 85 99l-1404 2616c-5 10 -15 13 -22 13c-11 0 -20 -9 -20 -20v-2592
c0 -94 45 -116 126 -116v-18zM495 2764l899 -1527c336 40 596 367 596 766c0 425 -300 779 -672 779h-814c-6 0 -15 -6 -9 -18zM1229 -677l-23 14c18 44 36 98 41 143c-69 -2 -117 36 -117 94c0 63 45 108 103 108c54 0 103 -45 103 -108c0 -40 -9 -76 -107 -251z" />
    <glyph glyph-name="uni0157" unicode="&#x157;" horiz-adv-x="2599" 
d="M566 0h-387v18c81 0 126 22 126 116v2532c0 94 -45 116 -126 116v18h1063c403 0 735 -323 735 -717c0 -398 -332 -712 -735 -712h-305c162 -31 466 -126 684 -384c218 -260 496 -955 844 -969v-18c-314 -5 -685 511 -887 789c-211 295 -502 582 -824 582h-314v-1241
c0 -67 49 -112 126 -112v-18zM440 2670v-1281h798c322 0 600 309 600 694c0 381 -269 699 -600 699h-704c-45 0 -94 -40 -94 -112zM1175 -632l-23 14c18 44 36 98 41 143c-69 -2 -117 36 -117 94c0 63 45 108 103 108c54 0 103 -45 103 -108c0 -40 -9 -76 -107 -251z" />
    <glyph glyph-name="Rcaron" unicode="&#x158;" horiz-adv-x="2357" 
d="M566 0h-387v18c81 0 126 22 126 116v2532c0 94 -45 116 -126 116v18h1139c453 0 816 -358 816 -797c0 -413 -319 -749 -726 -793l631 -1093c59 -99 105 -99 139 -99v-18h-377v18c13 0 130 13 85 99l-1404 2616c-5 10 -15 13 -22 13c-11 0 -20 -9 -20 -20v-2592
c0 -94 45 -116 126 -116v-18zM495 2764l899 -1527c336 40 596 367 596 766c0 425 -300 779 -672 779h-814c-6 0 -15 -6 -9 -18zM1088 2916c-120 108 -331 282 -439 368l9 13c99 -76 283 -211 430 -278c147 67 331 202 430 278l9 -13c-108 -86 -319 -260 -439 -368z" />
    <glyph glyph-name="rcaron" unicode="&#x159;" horiz-adv-x="2599" 
d="M566 0h-387v18c81 0 126 22 126 116v2532c0 94 -45 116 -126 116v18h1063c403 0 735 -323 735 -717c0 -398 -332 -712 -735 -712h-305c162 -31 466 -126 684 -384c218 -260 496 -955 844 -969v-18c-314 -5 -685 511 -887 789c-211 295 -502 582 -824 582h-314v-1241
c0 -67 49 -112 126 -112v-18zM440 2670v-1281h798c322 0 600 309 600 694c0 381 -269 699 -600 699h-704c-45 0 -94 -40 -94 -112zM1133 2916c-120 108 -331 282 -439 368l9 13c99 -76 283 -211 430 -278c147 67 331 202 430 278l9 -13c-108 -86 -319 -260 -439 -368z" />
    <glyph glyph-name="Sacute" unicode="&#x15a;" horiz-adv-x="2226" 
d="M1169 -13c-295 0 -489 73 -770 246c-39 24 -57 27 -78 27c-76 0 -87 -87 -101 -166h-18v439h18c215 -304 555 -524 931 -524c439 0 753 265 753 641c0 385 -391 681 -806 900c-435 230 -766 421 -766 775c0 286 219 488 560 488c94 0 194 -6 389 -71
c32 -11 357 -117 417 -130v-264h-18c5 120 -51 202 -152 255c-197 103 -395 175 -605 175c-291 0 -462 -158 -462 -409c0 -340 387 -500 753 -711c435 -251 811 -497 811 -950c0 -416 -394 -721 -856 -721zM1407 3279l31 -89c-188 -27 -645 -215 -645 -215l-4 13
s452 179 618 291z" />
    <glyph glyph-name="sacute" unicode="&#x15b;" horiz-adv-x="2226" 
d="M1169 -13c-295 0 -489 73 -770 246c-39 24 -57 27 -78 27c-76 0 -87 -87 -101 -166h-18v439h18c215 -304 555 -524 931 -524c439 0 753 265 753 641c0 385 -391 681 -806 900c-435 230 -766 421 -766 775c0 286 219 488 560 488c94 0 194 -6 389 -71
c32 -11 357 -117 417 -130v-264h-18c5 120 -51 202 -152 255c-197 103 -395 175 -605 175c-291 0 -462 -158 -462 -409c0 -340 387 -500 753 -711c435 -251 811 -497 811 -950c0 -416 -394 -721 -856 -721zM1407 3279l31 -89c-188 -27 -645 -215 -645 -215l-4 13
s452 179 618 291z" />
    <glyph glyph-name="Scedilla" unicode="&#x15e;" horiz-adv-x="2226" 
d="M1169 -13c-295 0 -489 73 -770 246c-39 24 -57 27 -78 27c-76 0 -87 -87 -101 -166h-18v439h18c215 -304 555 -524 931 -524c439 0 753 265 753 641c0 385 -391 681 -806 900c-435 230 -766 421 -766 775c0 286 219 488 560 488c94 0 194 -6 389 -71
c32 -11 357 -117 417 -130v-264h-18c5 120 -51 202 -152 255c-197 103 -395 175 -605 175c-291 0 -462 -158 -462 -409c0 -340 387 -500 753 -711c435 -251 811 -497 811 -950c0 -416 -394 -721 -856 -721zM1117 0h23l-27 -126h22c171 0 309 -139 309 -314
c0 -170 -125 -327 -336 -327c-183 0 -322 157 -327 323h23c4 -148 139 -300 304 -300c202 0 314 161 314 304c0 162 -130 292 -287 292h-49z" />
    <glyph glyph-name="scedilla" unicode="&#x15f;" horiz-adv-x="2226" 
d="M1169 -13c-295 0 -489 73 -770 246c-39 24 -57 27 -78 27c-76 0 -87 -87 -101 -166h-18v439h18c215 -304 555 -524 931 -524c439 0 753 265 753 641c0 385 -391 681 -806 900c-435 230 -766 421 -766 775c0 286 219 488 560 488c94 0 194 -6 389 -71
c32 -11 357 -117 417 -130v-264h-18c5 120 -51 202 -152 255c-197 103 -395 175 -605 175c-291 0 -462 -158 -462 -409c0 -340 387 -500 753 -711c435 -251 811 -497 811 -950c0 -416 -394 -721 -856 -721zM1174 0h23l-27 -126h22c171 0 309 -139 309 -314
c0 -170 -125 -327 -336 -327c-183 0 -322 157 -327 323h23c4 -148 139 -300 304 -300c202 0 314 161 314 304c0 162 -130 292 -287 292h-49z" />
    <glyph glyph-name="Scaron" unicode="&#x160;" horiz-adv-x="2226" 
d="M1169 -13c-295 0 -489 73 -770 246c-39 24 -57 27 -78 27c-76 0 -87 -87 -101 -166h-18v439h18c215 -304 555 -524 931 -524c439 0 753 265 753 641c0 385 -391 681 -806 900c-435 230 -766 421 -766 775c0 286 219 488 560 488c94 0 194 -6 389 -71
c32 -11 357 -117 417 -130v-264h-18c5 120 -51 202 -152 255c-197 103 -395 175 -605 175c-291 0 -462 -158 -462 -409c0 -340 387 -500 753 -711c435 -251 811 -497 811 -950c0 -416 -394 -721 -856 -721zM1025 2916c-120 108 -331 282 -439 368l9 13
c99 -76 283 -211 430 -278c147 67 331 202 430 278l9 -13c-108 -86 -319 -260 -439 -368z" />
    <glyph glyph-name="scaron" unicode="&#x161;" horiz-adv-x="2226" 
d="M1169 -13c-295 0 -489 73 -770 246c-39 24 -57 27 -78 27c-76 0 -87 -87 -101 -166h-18v439h18c215 -304 555 -524 931 -524c439 0 753 265 753 641c0 385 -391 681 -806 900c-435 230 -766 421 -766 775c0 286 219 488 560 488c94 0 194 -6 389 -71
c32 -11 357 -117 417 -130v-264h-18c5 120 -51 202 -152 255c-197 103 -395 175 -605 175c-291 0 -462 -158 -462 -409c0 -340 387 -500 753 -711c435 -251 811 -497 811 -950c0 -416 -394 -721 -856 -721zM1025 2916c-120 108 -331 282 -439 368l9 13
c99 -76 283 -211 430 -278c147 67 331 202 430 278l9 -13c-108 -86 -319 -260 -439 -368z" />
    <glyph glyph-name="uni0162" unicode="&#x162;" horiz-adv-x="1425" 
d="M705 0h23l-27 -126h22c171 0 309 -139 309 -314c0 -170 -125 -327 -336 -327c-183 0 -322 157 -327 323h23c4 -148 139 -300 304 -300c202 0 314 161 314 304c0 162 -130 292 -287 292h-49zM905 0h-385v18c80 0 125 22 125 116v2532c0 107 -94 116 -121 116h-134
c-146 0 -210 -122 -215 -260h-18v278h1111v-278h-18c-5 138 -69 260 -215 260h-134c-27 0 -121 -9 -121 -116v-2532c0 -94 45 -116 125 -116v-18z" />
    <glyph glyph-name="uni0163" unicode="&#x163;" horiz-adv-x="1425" 
d="M705 0h23l-27 -126h22c171 0 309 -139 309 -314c0 -170 -125 -327 -336 -327c-183 0 -322 157 -327 323h23c4 -148 139 -300 304 -300c202 0 314 161 314 304c0 162 -130 292 -287 292h-49zM905 0h-385v18c80 0 125 22 125 116v2532c0 107 -94 116 -121 116h-134
c-146 0 -210 -122 -215 -260h-18v278h1111v-278h-18c-5 138 -69 260 -215 260h-134c-27 0 -121 -9 -121 -116v-2532c0 -94 45 -116 125 -116v-18z" />
    <glyph glyph-name="Tcaron" unicode="&#x164;" horiz-adv-x="1425" 
d="M905 0h-385v18c80 0 125 22 125 116v2532c0 107 -94 116 -121 116h-134c-146 0 -210 -122 -215 -260h-18v278h1111v-278h-18c-5 138 -69 260 -215 260h-134c-27 0 -121 -9 -121 -116v-2532c0 -94 45 -116 125 -116v-18zM712 2916c-120 108 -331 282 -439 368l9 13
c99 -76 283 -211 430 -278c147 67 331 202 430 278l9 -13c-108 -86 -319 -260 -439 -368z" />
    <glyph glyph-name="tcaron" unicode="&#x165;" horiz-adv-x="1425" 
d="M905 0h-385v18c80 0 125 22 125 116v2532c0 107 -94 116 -121 116h-134c-146 0 -210 -122 -215 -260h-18v278h1111v-278h-18c-5 138 -69 260 -215 260h-134c-27 0 -121 -9 -121 -116v-2532c0 -94 45 -116 125 -116v-18zM712 2916c-120 108 -331 282 -439 368l9 13
c99 -76 283 -211 430 -278c147 67 331 202 430 278l9 -13c-108 -86 -319 -260 -439 -368z" />
    <glyph glyph-name="Tbar" unicode="&#x166;" horiz-adv-x="1425" 
d="M175 2522h-18v278h1111v-278h-18c0 126 -70 260 -215 260h-134c-27 0 -121 -9 -121 -116v-1089h488v-18h-488v-1425c0 -94 44 -116 125 -116v-18h-385v18c80 0 125 22 125 116v1425h-488v18h488v1089c0 107 -94 116 -121 116h-134c-147 0 -209 -124 -215 -260z" />
    <glyph glyph-name="tbar" unicode="&#x167;" horiz-adv-x="1425" 
d="M175 2522h-18v278h1111v-278h-18c0 125 -70 260 -215 260h-134c-27 0 -121 -9 -121 -116v-1089h488v-18h-488v-1425c0 -94 44 -116 125 -116v-18h-385v18c80 0 125 22 125 116v1425h-488v18h488v1089c0 107 -94 116 -121 116h-134c-147 0 -210 -124 -215 -260z" />
    <glyph glyph-name="Utilde" unicode="&#x168;" horiz-adv-x="1578" 
d="M440 2666v-2164c0 -251 108 -497 372 -497c291 0 448 188 448 470v2218c0 89 -90 89 -117 89v18h256v-18c-32 0 -121 0 -121 -89v-2218c0 -305 -170 -488 -466 -488c-327 0 -507 237 -507 515v2164c0 94 -45 116 -126 116v18h387v-18c-81 0 -126 -22 -126 -116zM363 2979
h-18c-8 23 -14 47 -14 76c0 117 67 188 193 188c94 0 201 -53 287 -107c98 -58 170 -117 268 -117c72 0 144 59 144 153c0 27 -6 51 -14 71h18c5 -13 14 -44 14 -76c0 -121 -71 -188 -198 -188c-100 0 -201 58 -282 112c-130 81 -188 112 -268 112c-72 0 -144 -58 -144 -152
c0 -28 7 -55 14 -72z" />
    <glyph glyph-name="utilde" unicode="&#x169;" horiz-adv-x="2187" 
d="M1883 2670v-1976c0 -403 -323 -707 -753 -707c-470 0 -825 309 -825 779v1900c0 94 -45 116 -126 116v18h387v-18c-81 0 -126 -22 -126 -116v-1927c0 -457 278 -734 690 -734c426 0 735 309 735 689v1976c0 94 -45 112 -126 112v18h269v-18c-81 0 -125 -18 -125 -112z
M688 2979h-18c-8 23 -14 47 -14 76c0 117 67 188 193 188c94 0 201 -53 287 -107c98 -58 170 -117 268 -117c72 0 144 59 144 153c0 27 -6 51 -14 71h18c5 -13 14 -44 14 -76c0 -121 -71 -188 -198 -188c-100 0 -201 58 -282 112c-130 81 -188 112 -268 112
c-72 0 -144 -58 -144 -152c0 -28 7 -55 14 -72z" />
    <glyph glyph-name="Umacron" unicode="&#x16a;" horiz-adv-x="1578" 
d="M440 2666v-2164c0 -251 108 -497 372 -497c291 0 448 188 448 470v2218c0 89 -90 89 -117 89v18h256v-18c-32 0 -121 0 -121 -89v-2218c0 -305 -170 -488 -466 -488c-327 0 -507 237 -507 515v2164c0 94 -45 116 -126 116v18h387v-18c-81 0 -126 -22 -126 -116z
M1211 3087l-425 13l-426 -13v71l426 -13l425 13v-71z" />
    <glyph glyph-name="umacron" unicode="&#x16b;" horiz-adv-x="2187" 
d="M1883 2670v-1976c0 -403 -323 -707 -753 -707c-470 0 -825 309 -825 779v1900c0 94 -45 116 -126 116v18h387v-18c-81 0 -126 -22 -126 -116v-1927c0 -457 278 -734 690 -734c426 0 735 309 735 689v1976c0 94 -45 112 -126 112v18h269v-18c-81 0 -125 -18 -125 -112z
M1536 3087l-425 13l-426 -13v71l426 -13l425 13v-71z" />
    <glyph glyph-name="Ubreve" unicode="&#x16c;" horiz-adv-x="1578" 
d="M440 2666v-2164c0 -251 108 -497 372 -497c291 0 448 188 448 470v2218c0 89 -90 89 -117 89v18h256v-18c-32 0 -121 0 -121 -89v-2218c0 -305 -170 -488 -466 -488c-327 0 -507 237 -507 515v2164c0 94 -45 116 -126 116v18h387v-18c-81 0 -126 -22 -126 -116zM812 3087
c-198 0 -408 121 -480 309h81c85 -162 264 -265 421 -265c179 0 340 103 394 265h18c-72 -202 -237 -309 -434 -309z" />
    <glyph glyph-name="ubreve" unicode="&#x16d;" horiz-adv-x="2187" 
d="M1883 2670v-1976c0 -403 -323 -707 -753 -707c-470 0 -825 309 -825 779v1900c0 94 -45 116 -126 116v18h387v-18c-81 0 -126 -22 -126 -116v-1927c0 -457 278 -734 690 -734c426 0 735 309 735 689v1976c0 94 -45 112 -126 112v18h269v-18c-81 0 -125 -18 -125 -112z
M1134 3087c-198 0 -408 121 -480 309h81c85 -162 264 -265 421 -265c179 0 340 103 394 265h18c-72 -202 -237 -309 -434 -309z" />
    <glyph glyph-name="Uring" unicode="&#x16e;" horiz-adv-x="1578" 
d="M440 2666v-2164c0 -251 108 -497 372 -497c291 0 448 188 448 470v2218c0 89 -90 89 -117 89v18h256v-18c-32 0 -121 0 -121 -89v-2218c0 -305 -170 -488 -466 -488c-327 0 -507 237 -507 515v2164c0 94 -45 116 -126 116v18h387v-18c-81 0 -126 -22 -126 -116zM979 3216
c0 -107 -85 -192 -193 -192c-103 0 -188 85 -188 192c0 104 85 189 188 189c108 0 193 -85 193 -189zM956 3216c0 90 -76 166 -170 166c-89 0 -166 -76 -166 -166c0 -94 77 -170 166 -170c94 0 170 76 170 170z" />
    <glyph glyph-name="uring" unicode="&#x16f;" horiz-adv-x="2187" 
d="M1883 2670v-1976c0 -403 -323 -707 -753 -707c-470 0 -825 309 -825 779v1900c0 94 -45 116 -126 116v18h387v-18c-81 0 -126 -22 -126 -116v-1927c0 -457 278 -734 690 -734c426 0 735 309 735 689v1976c0 94 -45 112 -126 112v18h269v-18c-81 0 -125 -18 -125 -112z
M1302 3216c0 -107 -85 -192 -193 -192c-103 0 -188 85 -188 192c0 104 85 189 188 189c108 0 193 -85 193 -189zM1279 3216c0 90 -76 166 -170 166c-89 0 -166 -76 -166 -166c0 -94 77 -170 166 -170c94 0 170 76 170 170z" />
    <glyph glyph-name="Uhungarumlaut" unicode="&#x170;" horiz-adv-x="1578" 
d="M440 2666v-2164c0 -251 108 -497 372 -497c291 0 448 188 448 470v2218c0 89 -90 89 -117 89v18h256v-18c-32 0 -121 0 -121 -89v-2218c0 -305 -170 -488 -466 -488c-327 0 -507 237 -507 515v2164c0 94 -45 116 -126 116v18h387v-18c-81 0 -126 -22 -126 -116zM878 3280
l31 -90c-188 -27 -645 -215 -645 -215l-4 14s452 179 618 291zM1281 3280l32 -90c-189 -27 -646 -215 -646 -215l-4 14s452 179 618 291z" />
    <glyph glyph-name="uhungarumlaut" unicode="&#x171;" horiz-adv-x="2187" 
d="M1883 2670v-1976c0 -403 -323 -707 -753 -707c-470 0 -825 309 -825 779v1900c0 94 -45 116 -126 116v18h387v-18c-81 0 -126 -22 -126 -116v-1927c0 -457 278 -734 690 -734c426 0 735 309 735 689v1976c0 94 -45 112 -126 112v18h269v-18c-81 0 -125 -18 -125 -112z
M1203 3280l31 -90c-188 -27 -645 -215 -645 -215l-4 14s452 179 618 291zM1606 3280l32 -90c-189 -27 -646 -215 -646 -215l-4 14s452 179 618 291z" />
    <glyph glyph-name="Uogonek" unicode="&#x172;" horiz-adv-x="1578" 
d="M440 2666v-2164c0 -251 108 -497 372 -497c291 0 448 188 448 470v2218c0 89 -90 89 -117 89v18h256v-18c-32 0 -121 0 -121 -89v-2218c0 -305 -170 -488 -466 -488c-327 0 -507 237 -507 515v2164c0 94 -45 116 -126 116v18h387v-18c-81 0 -126 -22 -126 -116z
M1120 -664c-183 0 -331 130 -331 305c0 170 121 313 278 425l8 -13c-147 -121 -264 -247 -264 -412c0 -162 139 -278 309 -278c157 0 309 116 309 278h23c0 -175 -161 -305 -332 -305z" />
    <glyph glyph-name="uogonek" unicode="&#x173;" horiz-adv-x="2187" 
d="M1883 2670v-1976c0 -403 -323 -707 -753 -707c-470 0 -825 309 -825 779v1900c0 94 -45 116 -126 116v18h387v-18c-81 0 -126 -22 -126 -116v-1927c0 -457 278 -734 690 -734c426 0 735 309 735 689v1976c0 94 -45 112 -126 112v18h269v-18c-81 0 -125 -18 -125 -112z
M1492 -668c-183 0 -331 130 -331 305c0 170 121 313 278 425l8 -13c-147 -121 -264 -247 -264 -412c0 -162 139 -278 309 -278c157 0 309 116 309 278h23c0 -175 -161 -305 -332 -305z" />
    <glyph glyph-name="Wcircumflex" unicode="&#x174;" horiz-adv-x="4775" 
d="M4511 2715l-1017 -2616c50 -86 117 -81 130 -81v-18h-398v18c53 0 139 18 103 112l-928 2222l-873 -2253c49 -86 116 -81 130 -81v-18h-399v18c54 0 145 22 107 112l-1057 2531c-42 101 -76 121 -152 121v18h385v-18c-89 0 -136 -7 -89 -121l1061 -2540l878 2258
l-116 282c-42 102 -72 121 -148 121v18h385v-18c-89 0 -136 -8 -89 -121l1057 -2540l1007 2582c30 77 -63 79 -81 79v18h211v-18c-54 0 -91 -28 -107 -67zM2389 3369c120 -108 331 -282 439 -368l-9 -13c-99 76 -283 211 -430 278c-147 -67 -331 -202 -430 -278l-9 13
c108 86 319 260 439 368z" />
    <glyph glyph-name="wcircumflex" unicode="&#x175;" horiz-adv-x="4157" 
d="M446 2661l1034 -2482l847 2186l-130 319c-45 112 -125 98 -139 98v18h368v-18c-14 0 -125 -4 -85 -98l1048 -2514l485 1277c99 260 115 426 115 520c0 515 -475 811 -850 811c-49 0 -224 4 -331 -197h-18l98 219h201c510 0 918 -358 918 -829c0 -98 -16 -269 -115 -528
l-494 -1300c45 -98 89 -125 152 -125v-18h-394v18c49 0 143 18 103 112l-918 2209l-852 -2182l14 -27c54 -108 130 -112 143 -112v-18h-394v18c54 0 142 18 103 112l-1053 2531c-42 102 -76 121 -152 121v18h385v-18c-89 0 -136 -7 -89 -121zM2249 3369
c120 -108 331 -282 439 -368l-9 -13c-99 76 -283 211 -430 278c-147 -67 -331 -202 -430 -278l-9 13c108 86 319 260 439 368z" />
    <glyph glyph-name="Ycircumflex" unicode="&#x176;" horiz-adv-x="2054" 
d="M1673 2782v18h246v-18c-67 0 -94 -13 -147 -103l-668 -1139v-1406c0 -94 45 -116 126 -116v-18h-387v18c81 0 126 22 126 116v1358l-695 1196c-40 67 -76 94 -139 94v18h386v-18c-103 0 -128 -31 -97 -85l665 -1147l669 1138c50 85 -71 94 -85 94zM1025 3369
c120 -108 331 -282 439 -368l-9 -13c-99 76 -283 211 -430 278c-147 -67 -331 -202 -430 -278l-9 13c108 86 319 260 439 368z" />
    <glyph glyph-name="ycircumflex" unicode="&#x177;" horiz-adv-x="2063" 
d="M454 2661l644 -1111l669 1138c50 85 -72 94 -85 94v18h246v-18c-67 0 -94 -13 -147 -103l-668 -1139v-1406c0 -94 45 -116 126 -116v-18h-387v18c81 0 126 22 126 116v1358l-677 1165c-60 101 -89 125 -166 125v18h386v-18c-90 0 -133 -7 -67 -121zM1026 3369
c120 -108 331 -282 439 -368l-9 -13c-99 76 -283 211 -430 278c-147 -67 -331 -202 -430 -278l-9 13c108 86 319 260 439 368z" />
    <glyph glyph-name="Ydieresis" unicode="&#x178;" horiz-adv-x="2054" 
d="M1673 2782v18h246v-18c-67 0 -94 -13 -147 -103l-668 -1139v-1406c0 -94 45 -116 126 -116v-18h-387v18c81 0 126 22 126 116v1358l-695 1196c-40 67 -76 94 -139 94v18h386v-18c-103 0 -128 -31 -97 -85l665 -1147l669 1138c50 85 -71 94 -85 94zM858 3100
c0 32 26 58 58 58s58 -26 58 -58s-26 -58 -58 -58s-58 26 -58 58zM1127 3100c0 32 26 58 58 58s58 -26 58 -58s-26 -58 -58 -58s-58 26 -58 58z" />
    <glyph glyph-name="Zacute" unicode="&#x179;" horiz-adv-x="1752" 
d="M1595 0h-1438l1160 2684c38 85 -31 98 -72 98h-801c-139 0 -201 -101 -215 -260h-18v278h1303l-1156 -2670c-39 -90 45 -112 99 -112h905c151 0 203 121 215 260h18v-278zM1214 3279l31 -89c-188 -27 -645 -215 -645 -215l-4 13s452 179 618 291z" />
    <glyph glyph-name="zacute" unicode="&#x17a;" horiz-adv-x="1752" 
d="M1595 0h-1438l1160 2684c38 85 -31 98 -72 98h-801c-139 0 -201 -101 -215 -260h-18v278h1303l-1156 -2670c-39 -90 45 -112 99 -112h905c151 0 203 121 215 260h18v-278zM1169 3279l31 -89c-188 -27 -645 -215 -645 -215l-4 13s452 179 618 291z" />
    <glyph glyph-name="Zdotaccent" unicode="&#x17b;" horiz-adv-x="1752" 
d="M1595 0h-1438l1160 2684c38 85 -31 98 -72 98h-801c-139 0 -201 -101 -215 -260h-18v278h1303l-1156 -2670c-39 -90 45 -112 99 -112h905c151 0 203 121 215 260h18v-278zM878 3051c-54 0 -94 40 -94 94s40 94 94 94s94 -40 94 -94s-40 -94 -94 -94z" />
    <glyph glyph-name="zdotaccent" unicode="&#x17c;" horiz-adv-x="1752" 
d="M1595 0h-1438l1160 2684c38 85 -31 98 -72 98h-801c-139 0 -201 -101 -215 -260h-18v278h1303l-1156 -2670c-39 -90 45 -112 99 -112h905c151 0 203 121 215 260h18v-278zM876 3051c-54 0 -94 40 -94 94s40 94 94 94s94 -40 94 -94s-40 -94 -94 -94z" />
    <glyph glyph-name="Zcaron" unicode="&#x17d;" horiz-adv-x="1752" 
d="M1595 0h-1438l1160 2684c38 85 -31 98 -72 98h-801c-139 0 -201 -101 -215 -260h-18v278h1303l-1156 -2670c-39 -90 45 -112 99 -112h905c151 0 203 121 215 260h18v-278zM878 2916c-120 108 -331 282 -439 368l9 13c99 -76 283 -211 430 -278c147 67 331 202 430 278
l9 -13c-108 -86 -319 -260 -439 -368z" />
    <glyph glyph-name="zcaron" unicode="&#x17e;" horiz-adv-x="1752" 
d="M1595 0h-1438l1160 2684c38 85 -31 98 -72 98h-801c-139 0 -201 -101 -215 -260h-18v278h1303l-1156 -2670c-39 -90 45 -112 99 -112h905c151 0 203 121 215 260h18v-278zM875 2916c-120 108 -331 282 -439 368l9 13c99 -76 283 -211 430 -278c147 67 331 202 430 278
l9 -13c-108 -86 -319 -260 -439 -368z" />
    <glyph glyph-name="AEacute" unicode="&#x1fc;" horiz-adv-x="2288" 
d="M1921 2782h-421c-31 0 -116 -13 -116 -116v-1259h121c139 0 215 107 215 260h18v-534h-18c0 153 -76 256 -215 256h-121v-1259c0 -94 85 -112 116 -112h421c151 0 203 121 215 260h18v-278h-1030v18c85 0 125 22 125 116v740h-658l-296 -762c-36 -94 72 -94 90 -94v-18
h-251v18c80 0 112 22 143 99l972 2495v54c0 94 -40 116 -125 116v18h1030v-278h-18c0 156 -74 260 -215 260zM1249 2563l-649 -1671h649v1671zM2013 3324l31 -89c-188 -27 -645 -215 -645 -215l-4 13s452 179 618 291z" />
    <glyph glyph-name="aeacute" unicode="&#x1fd;" horiz-adv-x="2288" 
d="M1921 2782h-421c-31 0 -116 -13 -116 -116v-1259h121c139 0 215 107 215 260h18v-534h-18c0 153 -76 256 -215 256h-121v-1259c0 -94 85 -112 116 -112h421c151 0 203 121 215 260h18v-278h-1030v18c85 0 125 22 125 116v740h-658l-296 -762c-36 -94 72 -94 90 -94v-18
h-251v18c80 0 112 22 143 99l972 2495v54c0 94 -40 116 -125 116v18h1030v-278h-18c0 156 -74 260 -215 260zM1249 2563l-649 -1671h649v1671zM2013 3324l31 -89c-188 -27 -645 -215 -645 -215l-4 13s452 179 618 291z" />
    <glyph glyph-name="uni0218" unicode="&#x218;" horiz-adv-x="2226" 
d="M1169 -13c-295 0 -489 73 -770 246c-39 24 -57 27 -78 27c-76 0 -87 -87 -101 -166h-18v439h18c215 -304 555 -524 931 -524c439 0 753 265 753 641c0 385 -391 681 -806 900c-435 230 -766 421 -766 775c0 286 219 488 560 488c94 0 194 -6 389 -71
c32 -11 357 -117 417 -130v-264h-18c5 120 -51 202 -152 255c-197 103 -395 175 -605 175c-291 0 -462 -158 -462 -409c0 -340 387 -500 753 -711c435 -251 811 -497 811 -950c0 -416 -394 -721 -856 -721zM1110 -632l-23 14c18 44 36 98 41 143c-69 -2 -117 36 -117 94
c0 63 45 108 103 108c54 0 103 -45 103 -108c0 -40 -9 -76 -107 -251z" />
    <glyph glyph-name="uni0219" unicode="&#x219;" horiz-adv-x="2226" 
d="M1169 -13c-295 0 -489 73 -770 246c-39 24 -57 27 -78 27c-76 0 -87 -87 -101 -166h-18v439h18c215 -304 555 -524 931 -524c439 0 753 265 753 641c0 385 -391 681 -806 900c-435 230 -766 421 -766 775c0 286 219 488 560 488c94 0 194 -6 389 -71
c32 -11 357 -117 417 -130v-264h-18c5 120 -51 202 -152 255c-197 103 -395 175 -605 175c-291 0 -462 -158 -462 -409c0 -340 387 -500 753 -711c435 -251 811 -497 811 -950c0 -416 -394 -721 -856 -721zM1181 -632l-23 14c18 44 36 98 41 143c-69 -2 -117 36 -117 94
c0 63 45 108 103 108c54 0 103 -45 103 -108c0 -40 -9 -76 -107 -251z" />
    <glyph glyph-name="uni021A" unicode="&#x21a;" horiz-adv-x="1425" 
d="M905 0h-385v18c80 0 125 22 125 116v2532c0 107 -94 116 -121 116h-134c-146 0 -210 -122 -215 -260h-18v278h1111v-278h-18c-5 138 -69 260 -215 260h-134c-27 0 -121 -9 -121 -116v-2532c0 -94 45 -116 125 -116v-18zM705 -632l-23 14c18 44 36 98 41 143
c-69 -2 -117 36 -117 94c0 63 45 108 103 108c54 0 103 -45 103 -108c0 -40 -9 -76 -107 -251z" />
    <glyph glyph-name="uni021B" unicode="&#x21b;" horiz-adv-x="1425" 
d="M905 0h-385v18c80 0 125 22 125 116v2532c0 107 -94 116 -121 116h-134c-146 0 -210 -122 -215 -260h-18v278h1111v-278h-18c-5 138 -69 260 -215 260h-134c-27 0 -121 -9 -121 -116v-2532c0 -94 45 -116 125 -116v-18zM709 -632l-23 14c18 44 36 98 41 143
c-69 -2 -117 36 -117 94c0 63 45 108 103 108c54 0 103 -45 103 -108c0 -40 -9 -76 -107 -251z" />
    <glyph glyph-name="circumflex" unicode="&#x2c6;" horiz-adv-x="1371" 
d="M685 3414c120 -108 331 -282 439 -368l-9 -13c-99 76 -283 211 -430 278c-147 -67 -331 -202 -430 -278l-9 13c108 86 319 260 439 368z" />
    <glyph glyph-name="caron" unicode="&#x2c7;" horiz-adv-x="1371" 
d="M685 2961c-120 108 -331 282 -439 368l9 13c99 -76 283 -211 430 -278c147 67 331 202 430 278l9 -13c-108 -86 -319 -260 -439 -368z" />
    <glyph glyph-name="breve" unicode="&#x2d8;" horiz-adv-x="1281" 
d="M659 3132c-198 0 -408 121 -480 309h81c85 -162 264 -265 421 -265c179 0 340 103 394 265h18c-72 -202 -237 -309 -434 -309z" />
    <glyph glyph-name="dotaccent" unicode="&#x2d9;" horiz-adv-x="2688" 
d="M1299 3096c-54 0 -94 40 -94 94s40 94 94 94s94 -40 94 -94s-40 -94 -94 -94z" />
    <glyph glyph-name="ring" unicode="&#x2da;" horiz-adv-x="829" 
d="M605 3261c0 -107 -85 -192 -193 -192c-103 0 -188 85 -188 192c0 104 85 189 188 189c108 0 193 -85 193 -189zM582 3261c0 90 -76 166 -170 166c-89 0 -166 -76 -166 -166c0 -94 77 -170 166 -170c94 0 170 76 170 170z" />
    <glyph glyph-name="ogonek" unicode="&#x2db;" horiz-adv-x="1022" 
d="M618 -663c-183 0 -331 130 -331 305c0 170 121 313 278 425l8 -13c-147 -121 -264 -247 -264 -412c0 -162 139 -278 309 -278c157 0 309 116 309 278h23c0 -175 -161 -305 -332 -305z" />
    <glyph glyph-name="tilde" unicode="&#x2dc;" horiz-adv-x="1268" 
d="M211 3024h-18c-8 23 -14 47 -14 76c0 117 67 188 193 188c94 0 201 -53 287 -107c98 -58 170 -117 268 -117c72 0 144 59 144 153c0 27 -6 51 -14 71h18c5 -13 14 -44 14 -76c0 -121 -71 -188 -198 -188c-100 0 -201 58 -282 112c-130 81 -188 112 -268 112
c-72 0 -144 -58 -144 -152c0 -28 7 -55 14 -72z" />
    <glyph glyph-name="hungarumlaut" unicode="&#x2dd;" horiz-adv-x="1402" 
d="M802 3302l31 -90c-188 -27 -645 -215 -645 -215l-4 14s452 179 618 291zM1205 3302l32 -90c-189 -27 -646 -215 -646 -215l-4 14s452 179 618 291z" />
    <glyph glyph-name="gravecomb" unicode="&#x300;" 
d="M-574 3235l31 89c166 -112 618 -291 618 -291l-4 -13s-457 188 -645 215z" />
    <glyph glyph-name="acutecomb" unicode="&#x301;" 
d="M44 3324l31 -89c-188 -27 -645 -215 -645 -215l-4 13s452 179 618 291z" />
    <glyph glyph-name="uni0302" unicode="&#x302;" 
d="M-250 3414c120 -108 331 -282 439 -368l-9 -13c-99 76 -283 211 -430 278c-147 -67 -331 -202 -430 -278l-9 13c108 86 319 260 439 368z" />
    <glyph glyph-name="tildecomb" unicode="&#x303;" 
d="M-673 3024h-18c-8 23 -14 47 -14 76c0 117 67 188 193 188c94 0 201 -53 287 -107c98 -58 170 -117 268 -117c72 0 144 59 144 153c0 27 -6 51 -14 71h18c5 -13 14 -44 14 -76c0 -121 -71 -188 -198 -188c-100 0 -201 58 -282 112c-130 81 -188 112 -268 112
c-72 0 -144 -58 -144 -152c0 -28 7 -55 14 -72z" />
    <glyph glyph-name="uni0304" unicode="&#x304;" 
d="M176 3132l-425 13l-426 -13v71l426 -13l425 13v-71z" />
    <glyph glyph-name="uni0306" unicode="&#x306;" 
d="M-227 3132c-198 0 -408 121 -480 309h81c85 -162 264 -265 421 -265c179 0 340 103 394 265h18c-72 -202 -237 -309 -434 -309z" />
    <glyph glyph-name="uni0307" unicode="&#x307;" 
d="M-250 3096c-54 0 -94 40 -94 94s40 94 94 94s94 -40 94 -94s-40 -94 -94 -94z" />
    <glyph glyph-name="uni0308" unicode="&#x308;" 
d="M-442 3145c0 32 26 58 58 58s58 -26 58 -58s-26 -58 -58 -58s-58 26 -58 58zM-173 3145c0 32 26 58 58 58s58 -26 58 -58s-26 -58 -58 -58s-58 26 -58 58z" />
    <glyph glyph-name="uni030A" unicode="&#x30a;" 
d="M-59 3261c0 -107 -85 -192 -193 -192c-103 0 -188 85 -188 192c0 104 85 189 188 189c108 0 193 -85 193 -189zM-82 3261c0 90 -76 166 -170 166c-89 0 -166 -76 -166 -166c0 -94 77 -170 166 -170c94 0 170 76 170 170z" />
    <glyph glyph-name="uni030B" unicode="&#x30b;" 
d="M-158 3302l31 -90c-188 -27 -645 -215 -645 -215l-4 14s452 179 618 291zM245 3302l32 -90c-189 -27 -646 -215 -646 -215l-4 14s452 179 618 291z" />
    <glyph glyph-name="uni030C" unicode="&#x30c;" 
d="M-250 2961c-120 108 -331 282 -439 368l9 13c99 -76 283 -211 430 -278c147 67 331 202 430 278l9 -13c-108 -86 -319 -260 -439 -368z" />
    <glyph glyph-name="uni0312" unicode="&#x312;" 
d="M-246 3383l23 -14c-18 -44 -36 -98 -41 -143c69 2 117 -37 117 -95c0 -63 -45 -107 -103 -107c-54 0 -103 45 -103 108c0 40 9 76 107 251z" />
    <glyph glyph-name="uni0326" unicode="&#x326;" 
d="M-253 -632l-23 14c18 44 36 98 41 143c-69 -2 -117 36 -117 94c0 63 45 108 103 108c54 0 103 -45 103 -108c0 -40 -9 -76 -107 -251z" />
    <glyph glyph-name="uni0327" unicode="&#x327;" 
d="M-245 0h23l-27 -126h22c171 0 309 -139 309 -314c0 -170 -125 -327 -336 -327c-183 0 -322 157 -327 323h23c4 -148 139 -300 304 -300c202 0 314 161 314 304c0 162 -130 292 -287 292h-49z" />
    <glyph glyph-name="uni0328" unicode="&#x328;" 
d="M-250 -663c-183 0 -331 130 -331 305c0 170 121 313 278 425l8 -13c-147 -121 -264 -247 -264 -412c0 -162 139 -278 309 -278c157 0 309 116 309 278h23c0 -175 -161 -305 -332 -305z" />
    <glyph glyph-name="uni0335" unicode="&#x335;" 
d="M-908 1729v18h1317v-18h-1317z" />
    <glyph glyph-name="uni0336" unicode="&#x336;" 
d="M-1359 1604v18h2218v-18h-2218z" />
    <glyph glyph-name="uni0337" unicode="&#x337;" 
d="M-1283 318l-13 9l2079 2209l13 -9z" />
    <glyph glyph-name="uni0338" unicode="&#x338;" 
d="M1067 2805l-2621 -2787l-13 9l2621 2786z" />
    <glyph glyph-name="uni0394" unicode="&#x394;" horiz-adv-x="2626" 
d="M150 0l1161 2827l1165 -2827h-2326zM210 103h2085l-1043 2536z" />
    <glyph glyph-name="Pi" unicode="&#x3a0;" horiz-adv-x="2160" 
d="M860 0h-295v18c35 0 80 22 80 116v2532c0 107 -94 116 -121 116h-134c-145 0 -212 -122 -215 -260h-18v278h1846v-278h-18c0 125 -71 260 -215 260h-135c-27 0 -121 -9 -121 -116v-2532c0 -94 45 -116 81 -116v-18h-296v18c36 0 81 22 81 116v2532
c0 107 -94 116 -121 116h-358c-27 0 -121 -9 -121 -116v-2532c0 -94 44 -116 80 -116v-18z" />
    <glyph glyph-name="uni03A9" unicode="&#x3a9;" horiz-adv-x="2599" 
d="M1078 0h-856l-67 372h13c25 -113 112 -255 247 -255h528c27 0 117 13 117 112v317c-533 117 -910 587 -910 1120c0 632 520 1147 1147 1147c636 0 1152 -515 1152 -1147c0 -538 -377 -1003 -910 -1120v-317c0 -99 90 -112 117 -112h528c136 0 216 138 247 255h13
l-67 -372h-856v600c493 63 852 470 852 967c0 641 -556 1170 -1170 1170c-551 0 -976 -426 -976 -981c0 -502 362 -968 851 -1116v-640z" />
    <glyph glyph-name="delta" unicode="&#x3b4;" horiz-adv-x="2626" 
d="M150 0l1161 2827l1165 -2827h-2326zM210 103h2085l-1043 2536z" />
    <glyph glyph-name="pi" unicode="&#x3c0;" horiz-adv-x="2777" 
d="M477 22c561 0 632 671 632 1165c0 335 -40 507 -112 930l-811 -43v166l1203 -58l1238 58v-166l-640 32v-1945c0 -112 53 -139 152 -139v-22h-287v2113l-463 24l-374 -19c74 -388 111 -653 111 -931c0 -532 -76 -1205 -689 -1205c-86 0 -156 15 -242 42l-45 294h18
c71 -225 140 -296 309 -296z" />
    <glyph glyph-name="omega" unicode="&#x3c9;" horiz-adv-x="2598" 
d="M1669 117h515c133 0 216 139 246 255h14l-68 -372h-855v601c493 63 851 470 851 967c0 641 -556 1170 -1169 1170c-551 0 -977 -426 -977 -981c0 -502 363 -968 851 -1116v-641h-855l-68 372h14c24 -95 107 -255 246 -255h515c27 0 117 13 117 112v318
c-520 117 -896 587 -896 1120c0 632 520 1147 1147 1147c636 0 1151 -515 1151 -1147c0 -538 -376 -1003 -896 -1120v-318c0 -99 90 -113 117 -112z" />
    <glyph glyph-name="Wgrave" unicode="&#x1e80;" horiz-adv-x="4775" 
d="M4511 2715l-1017 -2616c50 -86 117 -81 130 -81v-18h-398v18c53 0 139 18 103 112l-928 2222l-873 -2253c49 -86 116 -81 130 -81v-18h-399v18c54 0 145 22 107 112l-1057 2531c-42 101 -76 121 -152 121v18h385v-18c-89 0 -136 -7 -89 -121l1061 -2540l878 2258
l-116 282c-42 102 -72 121 -148 121v18h385v-18c-89 0 -136 -8 -89 -121l1057 -2540l1007 2582c30 77 -63 79 -81 79v18h211v-18c-54 0 -91 -28 -107 -67zM2065 3190l31 89c166 -112 618 -291 618 -291l-4 -13s-457 188 -645 215z" />
    <glyph glyph-name="wgrave" unicode="&#x1e81;" horiz-adv-x="4157" 
d="M446 2661l1034 -2482l847 2186l-130 319c-45 112 -125 98 -139 98v18h368v-18c-14 0 -125 -4 -85 -98l1048 -2514l485 1277c99 260 115 426 115 520c0 515 -475 811 -850 811c-49 0 -224 4 -331 -197h-18l98 219h201c510 0 918 -358 918 -829c0 -98 -16 -269 -115 -528
l-494 -1300c45 -98 89 -125 152 -125v-18h-394v18c49 0 143 18 103 112l-918 2209l-852 -2182l14 -27c54 -108 130 -112 143 -112v-18h-394v18c54 0 142 18 103 112l-1053 2531c-42 102 -76 121 -152 121v18h385v-18c-89 0 -136 -7 -89 -121zM1969 3190l31 89
c166 -112 618 -291 618 -291l-4 -13s-457 188 -645 215z" />
    <glyph glyph-name="Wacute" unicode="&#x1e82;" horiz-adv-x="4775" 
d="M4511 2715l-1017 -2616c50 -86 117 -81 130 -81v-18h-398v18c53 0 139 18 103 112l-928 2222l-873 -2253c49 -86 116 -81 130 -81v-18h-399v18c54 0 145 22 107 112l-1057 2531c-42 101 -76 121 -152 121v18h385v-18c-89 0 -136 -7 -89 -121l1061 -2540l878 2258
l-116 282c-42 102 -72 121 -148 121v18h385v-18c-89 0 -136 -8 -89 -121l1057 -2540l1007 2582c30 77 -63 79 -81 79v18h211v-18c-54 0 -91 -28 -107 -67zM2683 3279l31 -89c-188 -27 -645 -215 -645 -215l-4 13s452 179 618 291z" />
    <glyph glyph-name="wacute" unicode="&#x1e83;" horiz-adv-x="4157" 
d="M446 2661l1034 -2482l847 2186l-130 319c-45 112 -125 98 -139 98v18h368v-18c-14 0 -125 -4 -85 -98l1048 -2514l485 1277c99 260 115 426 115 520c0 515 -475 811 -850 811c-49 0 -224 4 -331 -197h-18l98 219h201c510 0 918 -358 918 -829c0 -98 -16 -269 -115 -528
l-494 -1300c45 -98 89 -125 152 -125v-18h-394v18c49 0 143 18 103 112l-918 2209l-852 -2182l14 -27c54 -108 130 -112 143 -112v-18h-394v18c54 0 142 18 103 112l-1053 2531c-42 102 -76 121 -152 121v18h385v-18c-89 0 -136 -7 -89 -121zM2585 3279l31 -89
c-188 -27 -645 -215 -645 -215l-4 13s452 179 618 291z" />
    <glyph glyph-name="Wdieresis" unicode="&#x1e84;" horiz-adv-x="4775" 
d="M4511 2715l-1017 -2616c50 -86 117 -81 130 -81v-18h-398v18c53 0 139 18 103 112l-928 2222l-873 -2253c49 -86 116 -81 130 -81v-18h-399v18c54 0 145 22 107 112l-1057 2531c-42 101 -76 121 -152 121v18h385v-18c-89 0 -136 -7 -89 -121l1061 -2540l878 2258
l-116 282c-42 102 -72 121 -148 121v18h385v-18c-89 0 -136 -8 -89 -121l1057 -2540l1007 2582c30 77 -63 79 -81 79v18h211v-18c-54 0 -91 -28 -107 -67zM2130 3100c0 32 26 58 58 58s58 -26 58 -58s-26 -58 -58 -58s-58 26 -58 58zM2399 3100c0 32 26 58 58 58
s58 -26 58 -58s-26 -58 -58 -58s-58 26 -58 58z" />
    <glyph glyph-name="wdieresis" unicode="&#x1e85;" horiz-adv-x="4157" 
d="M446 2661l1034 -2482l847 2186l-130 319c-45 112 -125 98 -139 98v18h368v-18c-14 0 -125 -4 -85 -98l1048 -2514l485 1277c99 260 115 426 115 520c0 515 -475 811 -850 811c-49 0 -224 4 -331 -197h-18l98 219h201c510 0 918 -358 918 -829c0 -98 -16 -269 -115 -528
l-494 -1300c45 -98 89 -125 152 -125v-18h-394v18c49 0 143 18 103 112l-918 2209l-852 -2182l14 -27c54 -108 130 -112 143 -112v-18h-394v18c54 0 142 18 103 112l-1053 2531c-42 102 -76 121 -152 121v18h385v-18c-89 0 -136 -7 -89 -121zM2052 3100c0 32 26 58 58 58
s58 -26 58 -58s-26 -58 -58 -58s-58 26 -58 58zM2321 3100c0 32 26 58 58 58s58 -26 58 -58s-26 -58 -58 -58s-58 26 -58 58z" />
    <glyph glyph-name="Ygrave" unicode="&#x1ef2;" horiz-adv-x="2054" 
d="M1673 2782v18h246v-18c-67 0 -94 -13 -147 -103l-668 -1139v-1406c0 -94 45 -116 126 -116v-18h-387v18c81 0 126 22 126 116v1358l-695 1196c-40 67 -76 94 -139 94v18h386v-18c-103 0 -128 -31 -97 -85l665 -1147l669 1138c50 85 -71 94 -85 94zM701 3190l31 89
c166 -112 618 -291 618 -291l-4 -13s-457 188 -645 215z" />
    <glyph glyph-name="ygrave" unicode="&#x1ef3;" horiz-adv-x="2063" 
d="M454 2661l644 -1111l669 1138c50 85 -72 94 -85 94v18h246v-18c-67 0 -94 -13 -147 -103l-668 -1139v-1406c0 -94 45 -116 126 -116v-18h-387v18c81 0 126 22 126 116v1358l-677 1165c-60 101 -89 125 -166 125v18h386v-18c-90 0 -133 -7 -67 -121zM702 3190l31 89
c166 -112 618 -291 618 -291l-4 -13s-457 188 -645 215z" />
    <glyph glyph-name="uni2007" unicode="&#x2007;" horiz-adv-x="3145" 
 />
    <glyph glyph-name="uni2008" unicode="&#x2008;" horiz-adv-x="654" 
 />
    <glyph glyph-name="uni200B" unicode="&#x200b;" 
 />
    <glyph glyph-name="endash" unicode="&#x2013;" horiz-adv-x="2662" 
d="M1331 1550l1120 31v-103l-1120 32l-1120 -32v103z" />
    <glyph glyph-name="emdash" unicode="&#x2014;" horiz-adv-x="3898" 
d="M3674 1568v-99l-1725 27l-1725 -27v99l1725 -27z" />
    <glyph glyph-name="quoteleft" unicode="&#x2018;" horiz-adv-x="654" 
d="M331 2970l23 -14c-18 -44 -36 -98 -41 -143c69 2 117 -36 117 -94c0 -63 -45 -108 -103 -108c-54 0 -103 45 -103 108c0 40 9 76 107 251z" />
    <glyph glyph-name="quoteright" unicode="&#x2019;" horiz-adv-x="654" 
d="M323 2617l-23 14c18 44 36 98 41 143c-69 -2 -117 36 -117 94c0 63 45 108 103 108c54 0 103 -45 103 -108c0 -40 -9 -76 -107 -251z" />
    <glyph glyph-name="quotesinglbase" unicode="&#x201a;" horiz-adv-x="654" 
d="M323 -170l-23 14c18 44 36 98 41 143c-69 -2 -117 36 -117 94c0 63 45 108 103 108c54 0 103 -45 103 -108c0 -40 -9 -76 -107 -251z" />
    <glyph glyph-name="quotedblleft" unicode="&#x201c;" horiz-adv-x="968" 
d="M331 2970l23 -14c-18 -44 -36 -98 -41 -143c69 2 117 -36 117 -94c0 -63 -45 -108 -103 -108c-54 0 -103 45 -103 108c0 40 9 76 107 251zM645 2970l23 -14c-18 -44 -36 -98 -41 -143c69 2 117 -36 117 -94c0 -63 -45 -108 -103 -108c-54 0 -103 45 -103 108
c0 40 9 76 107 251z" />
    <glyph glyph-name="quotedblright" unicode="&#x201d;" horiz-adv-x="967" 
d="M323 2617l-23 14c18 44 36 98 41 143c-69 -2 -117 36 -117 94c0 63 45 108 103 108c54 0 103 -45 103 -108c0 -40 -9 -76 -107 -251zM636 2617l-23 14c18 44 36 98 41 143c-69 -2 -117 36 -117 94c0 63 45 108 103 108c54 0 103 -45 103 -108c0 -40 -9 -76 -107 -251z
" />
    <glyph glyph-name="quotedblbase" unicode="&#x201e;" horiz-adv-x="654" 
d="M323 -170l-23 14c18 44 36 98 41 143c-69 -2 -117 36 -117 94c0 63 45 108 103 108c54 0 103 -45 103 -108c0 -40 -9 -76 -107 -251z" />
    <glyph glyph-name="dagger" unicode="&#x2020;" horiz-adv-x="1846" 
d="M932 50h-18v591c0 511 -17 630 -175 788c175 171 175 363 175 583v36h-103c-139 0 -215 -23 -282 -45c-54 -18 -103 -36 -175 -36c-85 0 -148 40 -148 90v4c0 49 63 90 148 90c72 0 121 -18 175 -36c67 -22 143 -45 282 -45h103v359c0 156 -36 237 -58 309
c-18 58 -36 107 -36 192c0 90 45 166 103 166s103 -76 103 -166c0 -85 -18 -134 -36 -192c-22 -72 -58 -153 -58 -309v-359h103c139 0 215 23 282 45c54 18 103 36 175 36c85 0 148 -41 148 -90v-4c0 -50 -63 -90 -148 -90c-72 0 -121 18 -175 36c-67 22 -143 45 -282 45
h-103v-36c0 -220 0 -412 175 -583c-159 -158 -175 -277 -175 -788v-591z" />
    <glyph glyph-name="daggerdbl" unicode="&#x2021;" horiz-adv-x="1854" 
d="M927 50c-58 0 -103 76 -103 166c0 85 17 134 36 192c22 72 58 153 58 309v197h-108c-138 0 -215 -22 -282 -44c-54 -18 -103 -36 -175 -36c-85 0 -147 40 -147 89v5c0 49 62 90 147 90c72 0 121 -18 175 -36c67 -23 144 -45 282 -45h108v38c0 129 1 266 -66 395
c-25 47 -59 95 -104 140l-5 5l5 4c45 46 79 93 104 141c66 129 66 266 66 395v38h-103c-139 0 -215 -23 -282 -45c-54 -18 -103 -36 -175 -36c-85 0 -148 40 -148 90v4c0 49 63 90 148 90c72 0 121 -18 175 -36c67 -22 143 -45 282 -45h103v314c0 157 -36 237 -58 309
c-18 58 -36 107 -36 192c0 90 45 166 103 166s103 -76 103 -166c0 -85 -18 -134 -36 -192c-22 -72 -58 -152 -58 -309v-314h103c139 0 215 23 282 45c54 18 103 36 175 36c85 0 148 -41 148 -90v-4c0 -50 -63 -90 -148 -90c-72 0 -121 18 -175 36c-67 22 -143 45 -282 45
h-103v-38c0 -129 0 -266 66 -395c25 -48 59 -95 104 -141l5 -4l-5 -5c-45 -45 -79 -93 -104 -140c-67 -129 -66 -266 -66 -395v-38h108c138 0 215 22 282 45c54 18 103 36 175 36c85 0 147 -41 147 -90v-5c0 -49 -62 -89 -147 -89c-72 0 -121 18 -175 36
c-67 22 -144 44 -282 44h-108v-197c0 -156 36 -237 58 -309c19 -58 36 -107 36 -192c0 -90 -45 -166 -103 -166z" />
    <glyph glyph-name="bullet" unicode="&#x2022;" horiz-adv-x="1057" 
d="M528 1208c-125 0 -227 102 -227 228c0 125 102 227 227 227s227 -102 227 -227c0 -126 -102 -228 -227 -228z" />
    <glyph glyph-name="ellipsis" unicode="&#x2026;" horiz-adv-x="1550" 
d="M224 90c0 57 46 103 103 103s103 -46 103 -103s-46 -103 -103 -103s-103 46 -103 103zM672 90c0 57 46 103 103 103s103 -46 103 -103s-46 -103 -103 -103s-103 46 -103 103zM1120 90c0 57 46 103 103 103s103 -46 103 -103s-46 -103 -103 -103s-103 46 -103 103z" />
    <glyph glyph-name="perthousand" unicode="&#x2030;" horiz-adv-x="4099" 
d="M1952 2800h107l-1059 -2800h-108zM2666 491c0 -291 -247 -505 -511 -505c-273 0 -515 224 -515 506c0 278 228 506 510 506c296 0 516 -242 516 -507zM2572 496c0 269 -181 489 -414 489s-420 -224 -420 -493s188 -493 417 -493c233 0 417 229 417 497zM1266 2307
c0 -291 -247 -505 -511 -505c-273 0 -515 224 -515 506c0 278 228 506 510 506c296 0 516 -242 516 -507zM1172 2312c0 269 -181 489 -414 489s-420 -224 -420 -493s188 -493 417 -493c233 0 417 229 417 497zM3875 491c0 -291 -247 -505 -511 -505
c-273 0 -515 224 -515 506c0 278 228 506 510 506c296 0 516 -242 516 -507zM3781 496c0 269 -181 489 -414 489s-420 -224 -420 -493s188 -493 417 -493c233 0 417 229 417 497z" />
    <glyph glyph-name="guilsinglleft" unicode="&#x2039;" horiz-adv-x="1035" 
d="M811 909l-27 -13s-372 448 -560 641c188 192 560 640 560 640l27 -13s-318 -367 -439 -627c121 -260 439 -628 439 -628z" />
    <glyph glyph-name="guilsinglright" unicode="&#x203a;" horiz-adv-x="1035" 
d="M224 2164l27 13s372 -448 560 -640c-188 -193 -560 -641 -560 -641l-27 13s318 368 439 628c-121 260 -439 627 -439 627z" />
    <glyph glyph-name="fraction" unicode="&#x2044;" horiz-adv-x="2478" 
d="M590 0h-90l730 1402l659 1398h89l-730 -1398z" />
    <glyph glyph-name="Euro" unicode="&#x20ac;" horiz-adv-x="3521" 
d="M3248 918h49c-197 -542 -716 -931 -1326 -931c-720 0 -1298 526 -1403 1196h-232c-99 0 -94 -94 -94 -121h-18v260h18c0 -41 4 -121 94 -121h229c-9 66 -14 133 -14 201c0 70 5 139 15 206h-230c-99 0 -94 -94 -94 -121h-18v260h18c0 -40 4 -121 94 -121h233
c108 670 694 1187 1393 1187c610 0 1116 -376 1322 -896h-139c-246 475 -744 816 -1299 816c-651 0 -1162 -471 -1211 -1107h1009c90 0 94 81 94 121h18v-260h-18c0 27 0 121 -94 121h-1010c-2 -32 -3 -65 -2 -98c1 -105 15 -209 39 -309h973c90 0 94 80 94 121h18v-260h-18
c0 27 0 121 -94 121h-969c161 -627 746 -1116 1413 -1116c560 0 1012 350 1160 851z" />
    <glyph glyph-name="trademark" unicode="&#x2122;" horiz-adv-x="2867" 
d="M1008 2679v-1079c0 -58 39 -76 76 -76v-28h-179v28c38 0 76 18 76 76v1119c-25 41 -43 54 -76 54v27h197v-27h-20c-33 0 -40 -18 -25 -40l740 -1102l712 1106c-5 32 -36 36 -49 36h-9v27h192v-27h-9c-36 0 -45 -9 -45 -45v-1160c0 -36 23 -45 54 -45v-27h-188v27
c31 0 54 9 54 45v1125l-695 -1085l72 -112h-76zM583 1496h-189v28c38 0 54 7 54 65v1139c0 38 -29 45 -41 45h-66c-66 0 -90 -56 -90 -116h-27v143h529v-143h-27c0 60 -24 116 -90 116h-66c-12 0 -41 -7 -41 -45v-1139c0 -58 16 -65 54 -65v-28z" />
    <glyph glyph-name="partialdiff" unicode="&#x2202;" horiz-adv-x="2010" 
d="M1864 1308l-52 -461c-55 -483 -351 -860 -826 -860c-502 0 -852 345 -852 806c0 457 386 802 825 802c423 0 685 -256 808 -607l39 330c71 600 -207 1129 -817 1134c-208 2 -469 -52 -514 -306h-22l44 251c151 45 303 91 483 91c644 -2 957 -532 884 -1180zM927 22
c386 0 740 350 740 793c0 386 -283 744 -663 744c-395 0 -744 -381 -744 -788c0 -377 291 -749 667 -749z" />
    <glyph glyph-name="emptyset" unicode="&#x2205;" horiz-adv-x="3279" 
d="M2917 2550l-221 -209c225 -251 359 -581 359 -938c0 -779 -631 -1416 -1411 -1416c-394 0 -746 159 -1001 411l-231 -218l-94 36l263 248c-223 251 -357 582 -357 939c0 775 636 1411 1411 1411c394 0 746 -157 1001 -409l186 176zM305 1403c0 -336 125 -646 335 -883
l1937 1829c-240 237 -571 385 -942 385c-730 0 -1330 -601 -1330 -1331zM1644 68c735 0 1331 600 1331 1335c0 335 -127 646 -338 883l-1935 -1832c240 -238 571 -386 942 -386z" />
    <glyph glyph-name="product" unicode="&#x220f;" horiz-adv-x="2195" 
d="M2016 2800v-18c-76 0 -125 -22 -125 -116v-2532c0 -94 49 -116 125 -116v-18h-381v18c76 0 121 22 121 116v2532c0 94 -45 116 -121 116h-1070c-77 0 -121 -22 -121 -116v-2532c0 -94 44 -116 121 -116v-18h-386v18c81 0 130 22 130 116v2532c0 94 -49 116 -130 116v18
h1837z" />
    <glyph glyph-name="summation" unicode="&#x2211;" horiz-adv-x="1424" 
d="M1245 2800v-282h-17c0 121 -65 264 -215 264h-422c-53 0 -176 -3 -121 -116l592 -1214l-592 -1232c-57 -118 68 -117 121 -117h422c146 0 210 123 215 260h17v-363h-958v103c80 0 112 22 157 117l533 1120l-641 1326c-45 94 -76 116 -157 116v18h1066z" />
    <glyph glyph-name="minus" unicode="&#x2212;" horiz-adv-x="2400" 
d="M1240 1487h-80c-265 0 -493 0 -659 -13v107c166 -13 394 -13 659 -13h80c265 0 480 0 659 13v-107c-179 13 -394 13 -659 13z" />
    <glyph glyph-name="radical" unicode="&#x221a;" horiz-adv-x="2088" 
d="M475 0l-296 1299h139l282 -1182l645 3019h664v-31h-639l-652 -3105h-143z" />
    <glyph glyph-name="infinity" unicode="&#x221e;" horiz-adv-x="4041" 
d="M2961 1922c448 0 811 -375 811 -824c0 -450 -363 -825 -811 -825c-458 0 -741 343 -910 710c-172 -367 -456 -710 -971 -710c-448 0 -811 375 -811 825c0 449 363 824 811 824c462 0 744 -341 913 -708c167 367 458 708 968 708zM1080 345c414 0 745 402 893 822
c-171 373 -454 715 -893 715c-453 0 -771 -372 -771 -784c0 -381 318 -753 771 -753zM2961 314c453 0 771 371 771 784c0 380 -318 752 -771 752c-428 0 -734 -402 -889 -821c167 -373 454 -715 889 -715z" />
    <glyph glyph-name="integral" unicode="&#x222b;" horiz-adv-x="1384" 
d="M618 685v1542c0 327 0 927 587 927v-18c-502 0 -439 -614 -439 -909v-1542c0 -327 0 -927 -587 -927v18c502 0 439 614 439 909z" />
    <glyph glyph-name="approxequal" unicode="&#x2248;" horiz-adv-x="2400" 
d="M214 1241c-10 52 -13 107 -13 166c0 282 175 444 436 444c241 0 451 -130 630 -238c206 -124 412 -255 563 -255c180 0 306 157 306 376c0 43 -7 88 -13 117l63 4c10 -44 13 -112 13 -161c0 -267 -138 -421 -410 -421c-238 0 -463 125 -652 242
c-201 125 -385 255 -546 255c-202 0 -327 -181 -327 -389c0 -67 10 -115 13 -131zM214 667c-10 52 -13 107 -13 166c0 282 175 444 436 444c241 0 451 -130 630 -238c206 -124 412 -255 573 -255c170 0 296 157 296 376c0 43 -7 88 -13 117l63 4c10 -44 13 -112 13 -161
c0 -267 -138 -421 -430 -421c-218 0 -443 125 -632 242c-201 125 -385 255 -546 255c-202 0 -327 -181 -327 -389c0 -67 10 -115 13 -131z" />
    <glyph glyph-name="notequal" unicode="&#x2260;" horiz-adv-x="2400" 
d="M1899 1420v-107c-157 13 -341 13 -560 13l-193 -345h94c265 0 480 0 659 14v-108c-179 14 -394 14 -659 14h-134c-85 -157 -175 -314 -256 -471l-76 45c72 121 162 287 247 426c-206 0 -386 -5 -520 -14v108c148 -14 341 -14 565 -14l188 345h-94c-265 0 -493 0 -659 -13
v107c166 -13 394 -13 659 -13h143c94 161 170 309 251 466l76 -45l-246 -421c201 0 367 4 515 13z" />
    <glyph glyph-name="lessequal" unicode="&#x2264;" horiz-adv-x="2400" 
d="M1948 121v-94h-748h-749v94c193 0 448 -13 749 -13c300 0 546 13 748 13zM451 1183c448 179 982 407 1456 614l41 -99c-448 -175 -963 -381 -1371 -542c408 -161 923 -367 1371 -542l-41 -99c-474 206 -1008 435 -1456 614v54z" />
    <glyph glyph-name="greaterequal" unicode="&#x2265;" horiz-adv-x="2400" 
d="M451 121c202 0 448 -13 749 -13c300 0 555 13 748 13v-94h-748h-749v94zM1948 1183v-54c-448 -179 -981 -408 -1456 -614l-41 99c448 175 964 381 1371 542c-407 161 -923 367 -1371 542l41 99c475 -207 1008 -435 1456 -614z" />
    <glyph glyph-name="uni25AF" unicode="&#x25af;" horiz-adv-x="1853" 
d="M179 0v2800h1495v-2800h-1495zM268 89h1317v2622h-1317v-2622z" />
    <glyph glyph-name="lozenge" unicode="&#x25ca;" horiz-adv-x="2177" 
d="M1877 1357l-789 -1590l-788 1590l788 1586zM1030 2778l-645 -1300l761 -1541l645 1304z" />
    <glyph glyph-name="uniFEFF" unicode="&#xfeff;" 
 />
    <glyph glyph-name="i.latn_TRK" horiz-adv-x="743" 
d="M564 0h-385v18c80 0 125 22 125 116v2532c0 94 -45 116 -125 116v18h385v-18c-80 0 -125 -22 -125 -116v-2532c0 -94 45 -116 125 -116v-18zM369 3051c-54 0 -94 40 -94 94s40 94 94 94s94 -40 94 -94s-40 -94 -94 -94z" />
    <glyph glyph-name="space.frac" horiz-adv-x="582" 
 />
    <glyph glyph-name="parenleft.case" horiz-adv-x="1631" 
d="M1407 -455v-36c-677 189 -1183 964 -1183 1891c0 932 506 1707 1183 1891v-36c-592 -202 -1035 -955 -1035 -1855s443 -1653 1035 -1855z" />
    <glyph glyph-name="parenright.case" horiz-adv-x="1631" 
d="M224 -491v36c591 202 1035 955 1035 1855s-444 1653 -1035 1855v36c677 -184 1183 -959 1183 -1891c0 -927 -506 -1702 -1183 -1891z" />
    <glyph glyph-name="hyphen.case" horiz-adv-x="1846" 
d="M923 1421l717 27v-95l-717 27l-717 -27v95z" />
    <glyph glyph-name="bracketleft.case" horiz-adv-x="960" 
d="M736 -491h-512v3782h512v-18h-260c-31 0 -117 -9 -117 -112v-3517c0 -103 86 -117 117 -117h260v-18z" />
    <glyph glyph-name="bracketright.case" horiz-adv-x="960" 
d="M736 -491h-512v18h260c31 0 116 14 116 117v3517c0 103 -85 112 -116 112h-260v18h512v-3782z" />
    <glyph glyph-name="braceleft.case" horiz-adv-x="1295" 
d="M1071 3201v-18c-502 0 -439 -614 -439 -909c0 -495 0 -818 -303 -874c303 -56 303 -379 303 -874c0 -295 -63 -909 439 -909v-18c-587 0 -587 600 -587 927c0 520 63 865 -260 865v18c323 0 260 345 260 865c0 327 0 927 587 927z" />
    <glyph glyph-name="braceright.case" horiz-adv-x="1295" 
d="M811 2274c0 -520 -63 -865 260 -865v-18c-323 0 -260 -345 -260 -865c0 -327 0 -927 -587 -927v18c502 0 439 614 439 909c0 495 0 818 302 874c-302 56 -302 379 -302 874c0 295 63 909 -439 909v18c587 0 587 -600 587 -927z" />
    <glyph glyph-name="guillemotleft.case" horiz-adv-x="1520" 
d="M784 2041l27 -13s-314 -367 -421 -627c107 -260 421 -628 421 -628l-27 -13s-367 448 -560 641c193 192 560 640 560 640zM1169 2041l27 -13s-314 -367 -421 -627c107 -260 421 -628 421 -628l-27 -13s-367 448 -560 641c193 192 560 640 560 640z" />
    <glyph glyph-name="uni00AD.case" horiz-adv-x="1846" 
d="M923 1421l717 27v-95l-717 27l-717 -27v95z" />
    <glyph glyph-name="guillemotright.case" horiz-adv-x="1521" 
d="M710 2028l27 13s367 -448 560 -640c-193 -193 -560 -641 -560 -641l-27 13s313 368 421 628c-108 260 -421 627 -421 627zM324 2028l27 13s367 -448 560 -640c-193 -193 -560 -641 -560 -641l-27 13s313 368 421 628c-108 260 -421 627 -421 627z" />
    <glyph glyph-name="endash.case" horiz-adv-x="2662" 
d="M1331 1421l1120 31v-103l-1120 32l-1120 -32v103z" />
    <glyph glyph-name="emdash.case" horiz-adv-x="3898" 
d="M3674 1450v-99l-1725 27l-1725 -27v99l1725 -27z" />
    <glyph glyph-name="guilsinglleft.case" horiz-adv-x="1035" 
d="M811 773l-27 -13s-372 448 -560 641c188 192 560 640 560 640l27 -13s-318 -367 -439 -627c121 -260 439 -628 439 -628z" />
    <glyph glyph-name="guilsinglright.case" horiz-adv-x="1035" 
d="M224 2028l27 13s372 -448 560 -640c-188 -193 -560 -641 -560 -641l-27 13s318 368 439 628c-121 260 -439 627 -439 627z" />
    <glyph glyph-name="V_O.ss01" horiz-adv-x="4989" 
d="M3448 2800c777 0 1407 -630 1407 -1407c0 -776 -630 -1406 -1407 -1406s-1406 630 -1406 1406c0 104 11 205 32 302l-594 -1538c28 -108 81 -136 157 -139v-18h-402v18c54 0 147 18 108 112l-1054 2554c-47 112 -121 98 -139 98v18h372v-18c-18 0 -129 -4 -90 -98
l1035 -2505l663 1707c200 533 714 914 1318 914zM3448 5c767 0 1389 622 1389 1388s-622 1389 -1389 1389s-1388 -623 -1388 -1389s621 -1388 1388 -1388z" />
    <glyph glyph-name="ampersand.ss01" horiz-adv-x="4605" 
d="M2975 2813c775 0 1406 -632 1406 -1407s-631 -1419 -1406 -1419c-247 0 -394 30 -583 134c-211 116 -457 341 -582 426c-291 197 -726 327 -1075 327h-515l327 596c99 179 290 311 488 362c-238 98 -363 255 -363 466c0 286 264 515 560 515c184 0 354 -103 435 -269
l-50 -27c-58 171 -206 274 -385 274c-219 0 -421 -193 -421 -493c0 -282 197 -430 417 -439v-23c-32 0 -111 -14 -198 -58c-155 -78 -318 -269 -421 -457l-228 -420h278c403 0 837 -112 1164 -336c157 -108 358 -302 583 -426c196 -108 348 -130 571 -130
c710 0 1261 640 1261 1397c0 766 -564 1389 -1263 1389c-641 0 -1138 -421 -1138 -1008c0 -515 345 -847 766 -851c434 0 681 387 681 806c0 117 -99 130 -130 130h-211c-124 0 -237 -62 -242 -201h-17v219h1223v-219h-18c0 129 -115 201 -242 201h-211
c-31 0 -130 -13 -130 -130c0 -447 -268 -829 -708 -829c-569 0 -905 395 -905 874c0 587 619 1026 1282 1026z" />
    <glyph glyph-name="two.ss01" horiz-adv-x="1734" 
d="M1622 0h-1488l1089 1510c-130 -76 -214 -112 -385 -112c-411 0 -695 309 -695 703c0 412 318 712 713 712c394 0 721 -331 721 -725c0 -274 -81 -414 -390 -843l-812 -1128c-53 -73 -21 -95 46 -95h963c150 0 205 116 220 251h18v-273zM842 1416c390 0 623 327 623 685
c0 336 -269 618 -609 618c-377 0 -659 -255 -659 -618c0 -394 269 -685 645 -685z" />
    <glyph glyph-name="four.ss01" horiz-adv-x="1963" 
d="M1828 461h-18c0 32 0 126 -90 126h-300v-453c0 -94 45 -116 126 -116v-18h-386v18c81 0 126 22 126 116v453h-1152l1094 2173c9 18 3 22 -14 22h-54v18h386v-18c-81 0 -126 -22 -126 -116v-2061h300c90 0 90 80 90 121h18v-265zM1228 2706l-938 -2101h996v2110
c0 15 -9 27 -23 27c-13 0 -22 -8 -35 -36z" />
    <glyph glyph-name="A.ss01" horiz-adv-x="2773" 
d="M1411 2670l1066 -2553c28 -66 70 -103 139 -99v-18h-380v18c90 0 114 58 80 140l-298 716h-1409l-295 -762c-38 -98 62 -94 80 -94v-18h-237v18c76 0 109 21 139 99l981 2531c-42 125 -100 134 -152 134v18h392v-18c-53 0 -145 -18 -106 -112zM1286 2625l-672 -1733h1396
z" />
    <glyph glyph-name="M.ss01" horiz-adv-x="4769" 
d="M3404 2670l1064 -2553c42 -99 126 -99 144 -99v-18h-389v18c14 0 140 0 99 99l-1066 2562l-878 -2258l130 -304c43 -101 125 -99 138 -99v-18h-385v18c18 0 139 2 97 103l-1066 2562l-1005 -2586c-30 -77 62 -79 80 -79v-18h-210v18c54 0 91 28 106 67l1017 2616
c-45 81 -116 81 -130 81v18h399v-18c-54 0 -147 -18 -108 -112l928 -2217l878 2248c-45 81 -117 81 -130 81v18h390v-18c-50 0 -141 -22 -103 -112z" />
    <glyph glyph-name="N.ss01" horiz-adv-x="2535" 
d="M1079 -67c-385 0 -716 300 -716 712v1985c-88 136 -137 155 -184 152v18h367v-18c-54 0 -124 -22 -67 -107l1684 -2518v2531c0 94 -80 94 -120 94v18h259v-18c-40 0 -121 0 -121 -94v-2558c59 -85 112 -112 175 -112v-18h-375v18c14 0 118 10 67 85l-1668 2495v-1953
c0 -390 319 -694 699 -694c121 0 237 27 341 89c45 27 124 98 134 290h18v-240c-251 -130 -345 -157 -493 -157z" />
    <glyph glyph-name="R.ss01" horiz-adv-x="2604" 
d="M1761 -13c-502 0 -896 421 -896 954v1312h18v-1312c0 -526 394 -936 882 -936c126 0 233 31 336 71c166 67 215 126 242 309h15v-237c-345 -126 -423 -161 -597 -161zM1465 1205v23c367 0 672 345 672 775c0 425 -305 779 -685 779h-887c-81 0 -126 -22 -126 -116v-2532
c0 -94 45 -116 126 -116v-18h-386v18c85 0 126 22 126 116v2532c0 94 -45 116 -126 116v18h1282c452 0 819 -358 819 -797c0 -444 -367 -798 -815 -798z" />
    <glyph glyph-name="U.ss01" horiz-adv-x="2061" 
d="M439 2666v-1927c0 -457 278 -734 690 -734c426 0 735 309 735 689v1227c0 488 -378 861 -857 861c-23 0 -214 0 -322 -201h-8l98 219h232c485 0 875 -376 875 -869v-1237c0 -403 -323 -707 -753 -707c-470 0 -824 309 -824 779v1900c0 94 -45 116 -126 116v18h386v-18
c-81 0 -126 -22 -126 -116z" />
    <glyph glyph-name="h.ss01" horiz-adv-x="2544" 
d="M2222 130v999c0 145 -63 260 -215 260h-1568v-1255c0 -94 40 -116 126 -116v-18h-386v18c85 0 126 22 126 116v2532c0 94 -41 116 -126 116v18h386v-18c-86 0 -126 -22 -126 -116v-1259h1568c152 0 215 115 215 260v1003c0 94 -45 112 -125 112v18h268v-18
c-80 0 -125 -18 -125 -112v-2540c0 -94 45 -112 125 -112v-18h-268v18c80 0 125 18 125 112z" />
    <glyph glyph-name="n.ss01" horiz-adv-x="2509" 
d="M1062 -67c-385 0 -717 300 -717 712v1985c-93 155 -147 152 -188 152v18h385v-18c-54 0 -124 -22 -67 -107l1684 -2518v2531c0 94 -80 94 -121 94v18h260v-18c-40 0 -121 0 -121 -94v-2558c59 -85 112 -112 175 -112v-18h-388v18c13 0 117 10 67 85l-1668 2495v-1953
c0 -390 318 -694 699 -694c121 0 237 27 340 89c45 27 124 98 135 290h18v-240c-251 -130 -345 -157 -493 -157z" />
    <glyph glyph-name="r.ss01" horiz-adv-x="2604" 
d="M1761 -13c-502 0 -896 421 -896 954v1312h18v-1312c0 -526 394 -936 882 -936c126 0 233 31 336 71c166 67 215 126 242 309h15v-237c-345 -126 -423 -161 -597 -161zM1465 1205v23c367 0 672 345 672 775c0 425 -305 779 -685 779h-887c-81 0 -126 -22 -126 -116v-2532
c0 -94 45 -116 126 -116v-18h-386v18c85 0 126 22 126 116v2532c0 94 -45 116 -126 116v18h1282c452 0 819 -358 819 -797c0 -444 -367 -798 -815 -798z" />
    <glyph glyph-name="u.ss01" horiz-adv-x="2061" 
d="M439 2666v-1927c0 -457 278 -734 690 -734c426 0 735 309 735 689v1227c0 488 -378 861 -857 861c-23 0 -214 0 -322 -201h-8l98 219h232c485 0 875 -376 875 -869v-1237c0 -403 -323 -707 -753 -707c-470 0 -824 309 -824 779v1900c0 94 -45 116 -126 116v18h386v-18
c-81 0 -126 -22 -126 -116z" />
    <glyph glyph-name="v.ss01" horiz-adv-x="2764" 
d="M1361 130l-1054 2531c-42 101 -81 121 -157 121v18h399v-18c-90 0 -145 -7 -99 -121l1035 -2477l972 2504c36 99 -72 94 -85 94v18h242v-18c-54 0 -103 -18 -139 -98l-981 -2527c36 -99 85 -139 157 -139v-18h-393v18c54 0 142 18 103 112z" />
    <glyph glyph-name="C_A.ss02" horiz-adv-x="3942" 
d="M3763 2800v-18c-80 0 -125 -22 -125 -116v-2536c0 -108 89 -112 116 -112v-18h-376v18c18 0 125 0 125 112v744h-657l-292 -762c-38 -98 67 -94 85 -94v-18h-247v18c59 0 108 18 139 94l219 562c-54 -95 -120 -185 -201 -266c-246 -256 -582 -421 -972 -421
c-797 0 -1420 645 -1420 1415c0 775 636 1411 1411 1411c609 0 1116 -376 1322 -896h-139c-247 475 -744 816 -1299 816c-690 0 -1215 -529 -1215 -1209c0 -789 677 -1457 1456 -1457c345 0 632 130 843 354c105 105 209 241 291 451l676 1740v54c0 94 -44 116 -125 116v18
h385zM2852 887h651v1676z" />
    <glyph glyph-name="A.ss02" horiz-adv-x="1656" 
d="M1217 2563l-651 -1671h651v1671zM1217 134v740h-657l-297 -762c-37 -94 55 -94 73 -94v-18h-202v18c32 0 81 24 111 99l972 2495v54c0 94 -45 116 -125 116v18h385v-18c-81 0 -125 -22 -125 -116v-2532c0 -94 44 -116 125 -116v-18h-385v18c80 0 125 22 125 116z" />
    <glyph glyph-name="M.ss02" horiz-adv-x="4121" 
d="M340 112v2540c-67 108 -112 130 -161 130v18h412v-18c-58 0 -164 -19 -103 -112l1632 -2433l1562 2447c0 77 -45 98 -125 98v18h385v-18c-81 0 -125 -22 -125 -116v-2532c0 -94 44 -116 125 -116v-18h-385v18c80 0 125 22 125 116v2518l-1551 -2432l150 -220h-162
l-1761 2625v-2513c0 -94 81 -94 121 -94v-18h-260v18c40 0 123 0 121 94z" />
    <glyph glyph-name="R.ss02" horiz-adv-x="2791" 
d="M564 0h-385v18c80 0 125 22 125 116v2392c376 241 585 319 880 319c684 0 1244 -557 1244 -1241c0 -367 -158 -686 -401 -910l460 -560c70 -85 114 -116 161 -116h8v-18h-368v18c12 0 108 29 61 91l-1883 2459c-12 15 -27 7 -27 -5v-2429c0 -94 44 -116 125 -116v-18z
M466 2598l1549 -1889c244 227 395 547 395 895c0 667 -555 1223 -1235 1223c-251 0 -502 -84 -709 -229z" />
    <glyph glyph-name="U.ss02" horiz-adv-x="2243" 
d="M1121 5c405 0 683 277 683 733v1928c0 94 -45 116 -126 116v18h386v-18c-81 0 -126 -22 -126 -116v-1909c0 -461 -354 -770 -817 -770c-462 0 -816 309 -816 770v1909c0 94 -45 116 -126 116v18h386v-18c-81 0 -126 -22 -126 -116v-1928c0 -456 278 -733 682 -733z" />
    <glyph glyph-name="R.ss03" horiz-adv-x="3085" 
d="M202 1602c0 696 578 1243 1245 1243c685 0 1241 -557 1241 -1241c0 -342 -143 -669 -392 -903l-1 -1l464 -566c77 -94 114 -116 161 -116h8v-18h-369v18c13 0 116 21 62 91l-402 524c-213 -171 -481 -275 -774 -275c-271 0 -526 91 -734 244v-468c0 -94 44 -116 125 -116
v-18h-385v18c80 0 125 22 125 116v584c-229 225 -374 537 -374 884zM220 1602c0 -338 138 -640 356 -860v1719c-216 -221 -356 -518 -356 -859zM711 2563v-1939c207 -156 463 -248 734 -248c286 0 552 103 763 272l-1470 1920c-12 15 -27 7 -27 -5zM738 2598l1545 -1884l2 2
c241 228 385 555 385 888c0 667 -543 1223 -1223 1223c-251 0 -503 -84 -709 -229z" />
    </font>
</defs>
</svg>
