<svg xmlns="http://www.w3.org/2000/svg" viewBox="0 0 219.43 54.2"><path fill="#d3b7d6" d="M48.1.1a18.12 18.12 0 0118 18C66.1 36.2 33 54.2 33 54.2S0 35.9 0 18A17.99 17.99 0 0118 0a17.91 17.91 0 0115.1 8.1 17.78 17.78 0 0115-8z" data-name="Path 1424"/><g fill="#262835" data-name="Group 3007"><path d="M87.6 37.5h1.6v.7H81v-.7h1.6v-9.2a5.38 5.38 0 00-.7-3.3 2.4 2.4 0 00-2.1-1 3.32 3.32 0 00-3 2v11.6h1.6v.7h-8.3v-.7H72v-14h-1.7v-.7h6.6v1.7a4.58 4.58 0 012-1.5 7.17 7.17 0 012.9-.6c3.9 0 5.9 2.1 5.9 6.4v8.6z" data-name="Path 1425"/><path d="M106.4 38.1a6.82 6.82 0 01-2.1.2c-1.8 0-2.9-.5-3.4-1.6a6.87 6.87 0 01-5 1.7 5.57 5.57 0 01-3-.8 2.9 2.9 0 01-1.2-2.5 3.96 3.96 0 011.7-3.4c1.1-.8 3.1-1.4 6-1.7l1.3-.2v-1.6a11.66 11.66 0 00-.4-3.9 1.67 1.67 0 00-1.7-1 2.75 2.75 0 00-1.6.3 1.14 1.14 0 00-.3.8 10.34 10.34 0 00.3 1.2 2.97 2.97 0 01.2 1.2 2.06 2.06 0 01-.7 1.7 2.41 2.41 0 01-3.4 0 2.34 2.34 0 01-.7-1.7 3.62 3.62 0 011.7-2.9 9.3 9.3 0 015.2-1.2c2.3 0 3.9.5 4.9 1.4s1.5 2.5 1.5 4.8v5.9c0 1.2.1 1.9.4 2.2s.8.4 1.6.2v.3a5.35 5.35 0 01-1.3.6zm-9.3-1.7a2.41 2.41 0 001.8.7 2.12 2.12 0 001.8-1v-5.6l-1.2.1a3.95 3.95 0 00-2.5 1.2 3.27 3.27 0 00-.8 2.7 3.1 3.1 0 00.9 1.9z" data-name="Path 1426"/><path d="M115.7 23.6v8.1a18.4 18.4 0 00.2 3.4 2.34 2.34 0 00.5 1 1.75 1.75 0 001.7.9 3.42 3.42 0 001.7-.3v.7a6.3 6.3 0 01-3.5 1.1 5.88 5.88 0 01-4.2-1.3c-1-.9-1.5-2.5-1.5-4.7v-8.9h-2.4v-.7h2.4a5.14 5.14 0 002.8-1.5 6.78 6.78 0 001.7-3.5h.5v5h3.8v.7z" data-name="Path 1427"/><path d="M121.2 30.6a7.46 7.46 0 012.3-5.9 8.5 8.5 0 015.8-2c2.3 0 4.1.6 5.2 1.8s1.6 2.4 1.2 3.6a2.17 2.17 0 01-1.1 1.5 2.73 2.73 0 01-3.9-2.2 9.89 9.89 0 01.1-1.5 9.89 9.89 0 00.1-1.5 1.45 1.45 0 00-.2-.7c-.2-.4-.7-.5-1.6-.4-2 .3-3 2.7-3 7.3s1.6 6.8 4.9 6.8a5.25 5.25 0 002.3-.6 4.9 4.9 0 001.7-1.4l.5.3a5.68 5.68 0 01-2.3 2 7.42 7.42 0 01-3.4.8c-5.8-.1-8.6-2.7-8.6-7.9z" data-name="Path 1428"/><path d="M155.4 37.5h1.7v.7h-8.3v-.7h1.7v-9.2a5.38 5.38 0 00-.7-3.3 2.4 2.4 0 00-2.1-1 3.32 3.32 0 00-3 2v11.6h1.7v.7h-8.3v-.7h1.7V16.7h-1.7V16h6.6v8.6a4.88 4.88 0 011.9-1.5 6.84 6.84 0 012.9-.6c3.9 0 5.9 2.1 5.9 6.4v8.6z" data-name="Path 1429"/><path d="M185.9 20.3h-1.7v17.2h1.7v.7h-8.3v-.7h1.7v-8.9h-6.5v8.8h1.7v.7h-8.3v-.7h1.7V20.3h-1.7v-.7h8.3v.7h-1.7V28h6.5v-7.7h-1.7v-.7h8.3z" data-name="Path 1430"/><path d="M202.7 31.6h-10c.2 3.9 1.7 5.8 4.5 5.8a9.77 9.77 0 002.6-.5 3.83 3.83 0 002.1-1.5l.5.3a5.18 5.18 0 01-2.5 2 8.9 8.9 0 01-3.5.8 14.16 14.16 0 01-3.1-.3 8.02 8.02 0 01-2.7-1.2 5.25 5.25 0 01-2.1-2.5 9.55 9.55 0 01-.7-4c0-2.7.7-4.6 2.2-5.9a7.93 7.93 0 015.4-1.9 7.01 7.01 0 015.2 2.1c1.4 1.4 2.1 3.6 2.1 6.8zm-10-.7h5.4a20.9 20.9 0 00-.6-5.3c-.4-1.5-1.1-2.3-2.1-2.3-.9 0-1.6.7-2 2.2a19.04 19.04 0 00-.6 5v.4z" data-name="Path 1431"/><path d="M213.4 38.2h-8.3v-.7h1.7V23.6h-1.7v-.7h6.6v3.9a5.68 5.68 0 011.1-2.6 4.4 4.4 0 011.7-1.4 5.66 5.66 0 011.8-.3 5.08 5.08 0 011.7.3 2.22 2.22 0 011.2 1.3 2.12 2.12 0 010 1.9 2.37 2.37 0 01-1.3 1.3 2.52 2.52 0 01-1.7.1 2.42 2.42 0 01-1.1-.8 4.67 4.67 0 01-.5-1q-.3-1.2-.9-1.2c-.4 0-.9.7-1.4 2.2a13.89 13.89 0 00-.8 4.6v6.3h1.7v.7z" data-name="Path 1432"/></g><g data-name="Group 3008"><path fill="#fff" d="M25.8 37.6H25V28h.8a8.7 8.7 0 002.8 6.6 9.2 9.2 0 006.7 2.7 3.43 3.43 0 003.6-3.6c0-1.2-.8-2.2-2.3-3.1-.8-.4-2.3-1.1-4.4-2.1a20.44 20.44 0 01-4.4-2.4 5.45 5.45 0 01-2.2-5.2 7.04 7.04 0 012.4-5 7.17 7.17 0 014.8-1.8 14.27 14.27 0 014.8.7 12.33 12.33 0 002.4.7c.5 0 .8-.5.8-1.4h.8v7.5H41a5.8 5.8 0 00-2.2-4.8 8.42 8.42 0 00-5.6-1.9 3.24 3.24 0 00-2.4.9 2.62 2.62 0 00-.9 1.9 3.23 3.23 0 00.3 1.6 2.4 2.4 0 001 1c.5.3.9.6 1.3.8a14.37 14.37 0 001.7.8c.8.3 1.3.6 1.6.7q2.25 1.05 2.7 1.2a6.58 6.58 0 011.2.6c.5.3.9.5 1.2.7s.6.5 1 .8a4.06 4.06 0 01.9 1 6.66 6.66 0 01.6 1.2 6.18 6.18 0 01.4 3.1 6.98 6.98 0 01-2.5 5.1 8.72 8.72 0 01-5.8 1.7 14 14 0 01-6.5-1.7 4 4 0 00-1.6-.6c-1.1.3-1.6.8-1.6 1.9z" data-name="Path 1433"/></g></svg>