<svg xmlns="http://www.w3.org/2000/svg" viewBox="0 0 405.1 51"><path fill="#ffffff" stroke="#ffffff" stroke-width=".2" d="M19.326 7.225c.175 0 1.688.112 1.063 1.175l-8.363 14.225L3.713 8.287c-.388-.675-.075-1.062 1.213-1.062V7H.101v.225c.788 0 1.238.338 1.738 1.175l8.687 14.95v16.975c0 1.175-.562 1.45-1.575 1.45V42h4.837v-.225c-1.012 0-1.575-.275-1.575-1.45V22.75l8.35-14.238c.662-1.125 1-1.287 1.837-1.287V7h-3.074zm21.4 34.938a17.685 17.685 0 0017.637-17.688 17.7 17.7 0 00-17.75-17.638 17.717 17.717 0 00-17.65 17.638 17.711 17.711 0 0017.763 17.688zm1.45-1a18.587 18.587 0 01-18.2-18.038A14.87 14.87 0 0139.151 7.837a18.557 18.557 0 0118.2 18.15 14.941 14.941 0 01-15.175 15.175zM65.538 8.675c0-1.175.563-1.45 1.575-1.45V7h-4.838v.225c1.013 0 1.575.275 1.575 1.45v27.05a6.083 6.083 0 006.338 6.438c3.7 0 5.825-2.288 5.825-6.1V8.337c0-1.112 1.113-1.112 1.513-1.112V7h-3.2v.225c.338 0 1.463 0 1.463 1.112v27.725c0 3.525-1.963 5.875-5.6 5.875-3.3 0-4.65-3.075-4.65-6.213zM86.838 42v-.225c-1.013 0-1.575-.275-1.575-1.45v-32.4a.251.251 0 01.25-.25.3.3 0 01.275.162l17.55 32.7c.563 1.075-.9 1.238-1.062 1.238V42h4.712v-.225c-.425 0-1 0-1.737-1.238l-7.888-13.662a10.055 10.055 0 009.075-9.913A10.074 10.074 0 0096.238 7H82.001v.225c1.012 0 1.575.275 1.575 1.45v31.65c0 1.175-.562 1.45-1.575 1.45V42zM85.95 7.45c-.075-.15.037-.225.113-.225h10.175c4.65 0 8.4 4.425 8.4 9.738 0 4.987-3.25 9.075-7.45 9.575zM136.663 42v-.225c-1 0-1.562-.275-1.562-1.45V8.675c0-1.175.563-1.45 1.563-1.45V7h-4.812v.225c1 0 1.563.275 1.563 1.45v15.737h-7.5V8.675c0-1.175.563-1.45 1.563-1.45V7h-4.815v.225c1 0 1.563.275 1.563 1.45v31.65c0 1.175-.562 1.45-1.562 1.45V42h4.813v-.225c-1 0-1.562-.275-1.562-1.45V24.637h7.498v15.688c0 1.175-.562 1.45-1.562 1.45V42zm21.7.163A17.685 17.685 0 00176 24.475a17.7 17.7 0 00-17.75-17.638 17.717 17.717 0 00-17.65 17.638 17.711 17.711 0 0017.763 17.688zm1.45-1a18.587 18.587 0 01-18.2-18.038 14.87 14.87 0 0115.175-15.288 18.557 18.557 0 0118.2 18.15 14.941 14.941 0 01-15.175 15.175zm27.5.837v-.225c-1 0-1.562-.275-1.562-1.45V8.675a1.4 1.4 0 011.512-1.45h1.675c1.825 0 2.625 1.525 2.688 3.25h.225V7h-13.888v3.475h.225c.063-1.725.863-3.25 2.688-3.25h1.675a1.4 1.4 0 011.512 1.45v31.65c0 1.175-.562 1.45-1.562 1.45V42z"/><path fill="#ff445a" d="M213.101 0h192v51h-192z"/><path fill="#fff" stroke="#fff" stroke-width=".2" d="M241.518 35.025c.285.683-.345.84-.75.84V36h2.887v-.135c-.1 0-.585.038-1.028-.773V15.8c0-.667.668-.667.908-.667V15h-1.92v.135c.2 0 .877 0 .877.667v18.953l-7.852-18.78c-.285-.682.382-.84.788-.84V15h-2.9v.135a.8.8 0 01.787.4V35.16c0 .705-.675.705-.877.705V36h1.92v-.135c-.24 0-.908 0-.908-.705V15.742zM255.58 36v-2.085h-.135c-.09 1.043-.48 1.95-1.613 1.95h-3.157a.836.836 0 01-.878-.84v-9.443h.903c1.043 0 1.613.773 1.613 1.92h.135V23.5h-.135c0 1.148-.57 1.95-1.613 1.95h-.9V16a.819.819 0 01.878-.87h3.157c1.05 0 1.613.78 1.613 1.95h.135V15h-7.743v.135c.638 0 .945.165.945.87V35c0 .7-.307.87-.945.87V36zm6.735 0v-.135c-.6 0-.937-.165-.937-.87V16c0-.7.338-.87.938-.87V15h-2.888v.135c.6 0 .938.165.938.87V35c0 .7-.338.87-.937.87V36zm14.6.1c3.638 0 7.628-1.538 7.628-5.34a4.408 4.408 0 00-3.158-4.2h4.975v-.135h-10.583v.135h4.6a4.233 4.233 0 014.035 4.2c0 3.84-4.17 5.205-7.493 5.205-5.272 0-9.54-4.71-9.54-10.493 0-5.745 4.267-10.433 9.54-10.433a9.275 9.275 0 017.326 3.761v-.975a10.652 10.652 0 00-7.328-2.925 10.572 10.572 0 00-10.582 10.57 10.6 10.6 0 0010.582 10.63zm30.775-.1v-.135c-.6 0-.937-.165-.937-.87V16c0-.7.337-.87.938-.87V15H304.8v.135c.6 0 .938.165.938.87v9.443H292.33V16c0-.7.338-.87.938-.87V15h-2.888v.135c.6 0 .938.165.938.87V35c0 .7-.337.87-.937.87V36h2.888v-.135c-.6 0-.937-.165-.937-.87v-9.413h13.408V35c0 .7-.337.87-.937.87V36zm13.635 0a6.222 6.222 0 006.285-6.15 6.185 6.185 0 00-6.487-6.15 4.449 4.449 0 003.427-4.3 4.46 4.46 0 00-4.5-4.4h-8.167v.135c.607 0 .945.165.945.87V35c0 .7-.338.87-.945.87V36zm-6.585-.135a.847.847 0 01-.907-.84v-11.19h7.425c2.888 0 5.213 2.693 5.213 6.015 0 3.293-2.325 6.015-5.213 6.015zM313.833 16a.836.836 0 01.877-.87h5.3a4.006 4.006 0 013.7 4.267c0 2.347-1.643 4.3-3.7 4.3h-6.18zm27.952 20.1a10.611 10.611 0 0010.583-10.613 10.619 10.619 0 00-10.65-10.587 10.63 10.63 0 00-10.59 10.583A10.627 10.627 0 00341.785 36.1zm.87-.6a11.158 11.158 0 01-10.92-10.883 8.912 8.912 0 019.1-9.112 11.134 11.134 0 0110.92 10.89 8.965 8.965 0 01-9.1 9.105zm26.01-19.523c0-.7.33-.84.938-.84V15h-2.018v.135c.607 0 .945.135.945.84V30.8a5.258 5.258 0 01-5.512 5.167c-3.09 0-5.175-2.078-5.175-5.505V16c0-.7.337-.87.945-.87V15h-2.9v.135c.607 0 .945.165.945.87v14.25c-.003 3.525 2.66 5.845 6.185 5.845a5.36 5.36 0 005.647-5.3zM376.69 36v-.135a.843.843 0 01-.945-.84v-9.308h2.355c2.415 0 4.6 2.152 6.18 4.365 1.52 2.085 4.298 5.956 6.653 5.918v-.135c-2.61-.105-4.7-5.318-6.33-7.268a9.061 9.061 0 00-5.13-2.88h2.288a5.419 5.419 0 005.512-5.34A5.47 5.47 0 00381.76 15h-7.973v.135c.607 0 .945.165.945.87V35c0 .7-.338.87-.945.87V36zm-.945-20.025a.767.767 0 01.705-.84h5.28c2.482 0 4.5 2.385 4.5 5.242 0 2.888-2.085 5.205-4.5 5.205h-5.985z"/></svg>