<svg xmlns="http://www.w3.org/2000/svg" viewBox="0 0 146.32 37.55"><g data-name="Path 1348"><path fill="#d3b7d6" d="M33.39 0a12.54 12.54 0 0112.47 12.47c0 12.6-22.93 25.08-22.93 25.08S0 24.89 0 12.47A12.47 12.47 0 0112.47 0a12.35 12.35 0 0110.46 5.63A12.48 12.48 0 0133.4 0z" data-name="Path 1410"/></g><g data-name="natch Her"><g fill="#fff" data-name="Group 3005" style="isolation:isolate"><path d="M61.12 25.49h1.07v.43h-5.33v-.43h1.06V19.5a3.89 3.89 0 00-.44-2.15 1.53 1.53 0 00-1.35-.64A2.18 2.18 0 0054.2 18v7.49h1.07v.43h-5.34v-.43H51v-8.96h-1.07v-.43h4.27v1.11a3.15 3.15 0 011.27-.95 4.43 4.43 0 011.86-.4q3.8 0 3.8 4.12z" data-name="Path 1411"/><path d="M73.22 25.86a5.34 5.34 0 01-1.39.16q-1.75 0-2.2-1.04a4.34 4.34 0 01-3.26 1.1 3.24 3.24 0 01-1.93-.54 1.86 1.86 0 01-.76-1.6 2.54 2.54 0 011.1-2.22 8.9 8.9 0 013.89-1.1l.85-.1v-1.05a7.34 7.34 0 00-.27-2.5 1.08 1.08 0 00-1.1-.63 1.65 1.65 0 00-1.06.22.52.52 0 00-.17.51q.06.3.21.76a2.66 2.66 0 01.15.75 1.57 1.57 0 01-1.57 1.58 1.55 1.55 0 01-1.12-.46 1.5 1.5 0 01-.47-1.12 2.25 2.25 0 011.12-1.87 5.88 5.88 0 013.35-.77 4.65 4.65 0 013.19.86 4.1 4.1 0 01.95 3.1v3.83a2.3 2.3 0 00.27 1.42q.28.3 1.03.12v.21a1.87 1.87 0 01-.81.38zm-5.98-1.1a1.66 1.66 0 001.15.43 1.42 1.42 0 001.14-.64v-3.63l-.77.11a2.61 2.61 0 00-1.59.75 2.1 2.1 0 00-.52 1.72 1.94 1.94 0 00.6 1.25z" data-name="Path 1412"/><path d="M79.23 16.53v5.2a9.13 9.13 0 00.15 2.23 3.93 3.93 0 00.32.67 1.19 1.19 0 001.12.55 2.13 2.13 0 001.12-.2v.42a3.8 3.8 0 01-2.24.72 3.92 3.92 0 01-2.73-.85 4 4 0 01-.94-3.05v-5.7h-1.58v-.43h1.59a3.21 3.21 0 001.81-.99 4.52 4.52 0 001.09-2.26h.3v3.26h2.47v.43z" data-name="Path 1413"/><path d="M82.8 21a4.83 4.83 0 011.47-3.8A5.44 5.44 0 0188 15.9a4.52 4.52 0 013.38 1.13 2.4 2.4 0 01.79 2.36 1.48 1.48 0 01-.72.97 1.58 1.58 0 01-1.18.16 1.5 1.5 0 01-1.34-1.56A9.11 9.11 0 0189 18a5.72 5.72 0 00.05-.95 1.03 1.03 0 00-.12-.46q-.22-.37-1-.28-1.92.3-1.92 4.7t3.13 4.4a3.22 3.22 0 001.47-.38 2.9 2.9 0 001.11-.92l.3.21a3.5 3.5 0 01-1.47 1.3 4.84 4.84 0 01-2.2.5q-5.57 0-5.57-5.1z" data-name="Path 1414"/><path d="M104.94 25.49H106v.43h-5.33v-.43h1.07V19.5a3.89 3.89 0 00-.45-2.15 1.53 1.53 0 00-1.35-.64A2.18 2.18 0 0098 18v7.49h1.07v.43h-5.33v-.43h1.06V12.05h-1.06v-.43H98v5.6a2.98 2.98 0 011.26-.97 4.53 4.53 0 011.88-.38q3.8 0 3.8 4.11z" data-name="Path 1415"/><path d="M124.6 14.4h-1.06v11.09h1.06v.43h-5.33v-.43h1.07v-5.72h-4.2v5.72h1.06v.43h-5.33v-.43h1.06v-11.1h-1.06v-.42h5.33v.43h-1.07v4.95h4.2V14.4h-1.06v-.43h5.33z" data-name="Path 1416"/><path d="M135.53 21.65h-6.45q.22 3.75 2.92 3.75a4.89 4.89 0 001.66-.34 2.71 2.71 0 001.35-.96l.3.21a3.41 3.41 0 01-1.6 1.3 5.42 5.42 0 01-2.25.52 8.33 8.33 0 01-2.01-.23 6.08 6.08 0 01-1.75-.76 3.52 3.52 0 01-1.33-1.6 6.26 6.26 0 01-.49-2.58 4.82 4.82 0 011.43-3.82 5.09 5.09 0 013.47-1.25 4.59 4.59 0 013.4 1.36 6.06 6.06 0 011.35 4.4zm-6.47-.43h3.48a12.69 12.69 0 00-.42-3.43q-.41-1.48-1.33-1.48t-1.32 1.42a11.84 11.84 0 00-.4 3.26z" data-name="Path 1417"/><path d="M142.42 25.91h-5.34v-.42h1.07v-8.96h-1.07v-.43h4.27v2.54a3.97 3.97 0 01.7-1.7 2.43 2.43 0 011.1-.88 3.55 3.55 0 011.17-.21 2.97 2.97 0 011.1.2 1.38 1.38 0 01.77.8 1.57 1.57 0 01.02 1.22 1.49 1.49 0 01-.82.87 1.37 1.37 0 01-1.08.06 1.41 1.41 0 01-.7-.52 2.36 2.36 0 01-.3-.63c-.14-.53-.33-.79-.57-.79q-.4 0-.9 1.4a8.86 8.86 0 00-.5 2.95v4.08h1.07z" data-name="Path 1418"/></g></g><g data-name="Group 3006" style="isolation:isolate"><path fill="#fff" d="M17.87 25.89h-.53V19.6h.53a5.8 5.8 0 001.83 4.31 6.1 6.1 0 004.43 1.78 2.4 2.4 0 001.73-.63 2.22 2.22 0 00.66-1.69q0-1.18-1.53-2.02-.84-.43-2.89-1.36a15.63 15.63 0 01-2.88-1.57A3.64 3.64 0 0117.75 15a4.68 4.68 0 011.6-3.3 4.8 4.8 0 013.17-1.17 10.02 10.02 0 013.18.47 10.96 10.96 0 001.6.47q.54 0 .54-.94h.54v4.93h-.54a3.98 3.98 0 00-1.43-3.16 5.43 5.43 0 00-3.67-1.23 2.08 2.08 0 00-1.56.58 1.8 1.8 0 00-.56 1.28 2.46 2.46 0 00.18 1.08 1.83 1.83 0 00.66.69l.83.5c.23.13.6.3 1.11.5s.87.38 1.07.47l1.75.8c.18.07.44.2.78.38a4.46 4.46 0 01.77.49l.66.54a2.35 2.35 0 01.6.66c.12.22.24.48.37.76a4.05 4.05 0 01.27 2.02 4.66 4.66 0 01-1.63 3.33 5.88 5.88 0 01-3.82 1.15 9.22 9.22 0 01-4.28-1.1 2.74 2.74 0 00-1.08-.38q-.99 0-.99 1.07z" data-name="Path 1419"/></g></svg>