<svg xmlns="http://www.w3.org/2000/svg" width="80.36" height="79.746" viewBox="0 0 80.36 79.746">
	<g transform="translate(-9.318 39.873) rotate(-45)">
		<path fill="#f1ece9" transform="translate(55.54 13.611)" d="M12.691,10.115A35.747,35.747,0,0,0,7.55,0L0,7.837A25.391,25.391,0,0,1,.3,34.5l7.579,7.867h0a35.791,35.791,0,0,0,4.976-10.174,36.828,36.828,0,0,0,1.6-11.047A36.8,36.8,0,0,0,12.691,10.115Z"/>
		<path fill="#dcc6df" transform="translate(13.612 55.243)" d="M7.83.3,0,7.846H0a35.705,35.705,0,0,0,10.357,5.222A36.8,36.8,0,0,0,21.65,14.756a36.738,36.738,0,0,0,11.27-1.844A35.629,35.629,0,0,0,43.211,7.534L35.4,0A25.486,25.486,0,0,1,7.83.3Z"/>
		<path fill="#dcc6df" transform="translate(0 13.177)" d="M14.754,7.811,7.223,0A35.569,35.569,0,0,0,1.846,10.29a36.9,36.9,0,0,0-.158,22.561,35.732,35.732,0,0,0,5.22,10.357h0l7.55-7.83A25.489,25.489,0,0,1,14.754,7.811Z"/>
		<path fill="#dcc6df" transform="translate(14.026 0)" d="M7.865,14.157h0a25.394,25.394,0,0,1,26.658.3l7.836-7.55a35.708,35.708,0,0,0-10.115-5.14A36.972,36.972,0,0,0,10.174,1.6,35.757,35.757,0,0,0,0,6.58l7.865,7.577Z"/>
	</g>
</svg>