<svg xmlns="http://www.w3.org/2000/svg" x="0" y="0" version="1.1" viewBox="0 0 64 64" xml:space="preserve"><g transform="translate(-66.27 -5.99)"><path d="M119 33.1l-.3-.1v-6.5c0-11.3-9.2-20.5-20.5-20.5a20.5 20.5 0 00-20.4 20.5V33l-.3.1a5.4 5.4 0 00-3.5 5v7.6C74 59.1 84.9 70 98.3 70s24.3-10.9 24.3-24.3v-7.6c0-2.2-1.5-4.2-3.6-5zm-38.2-.7v-5.9C80.8 16.8 88.6 9 98.3 9s17.5 7.8 17.5 17.5v6.3h-4.6v-6.3c0-7.1-5.8-12.9-12.9-12.9-7.1 0-12.9 5.8-12.9 12.9v6.3h-4.6v-.4zm27.3-5.9v6.3H88.4v-6.3c0-5.4 4.4-9.9 9.9-9.9 5.4 0 9.8 4.4 9.8 9.9zm11.4 19.2a21.25 21.25 0 11-42.5 0v-7.6c0-1.3 1-2.3 2.3-2.3h37.9c1.3 0 2.3 1 2.3 2.3v7.6z" fill="#606060"/><path d="M98.3 40.6a5.8 5.8 0 00-1.9 11.3l.3.1v6.9c0 .9.7 1.7 1.7 1.7.9 0 1.7-.7 1.7-1.7V52l.3-.1c3-1.1 4.6-4.4 3.5-7.4-1-2.3-3.2-3.9-5.6-3.9zm0 8.3c-1.4 0-2.5-1.1-2.5-2.5s1.1-2.5 2.5-2.5 2.5 1.1 2.5 2.5-1.2 2.5-2.5 2.5z" fill="#606060"/></g></svg>