<?xml version="1.0" standalone="no"?>
<!DOCTYPE svg PUBLIC "-//W3C//DTD SVG 20010904//EN"
 "http://www.w3.org/TR/2001/REC-SVG-20010904/DTD/svg10.dtd">
<svg version="1.0" xmlns="http://www.w3.org/2000/svg"
 width="700.000000pt" height="700.000000pt" viewBox="0 0 700.000000 700.000000"
 preserveAspectRatio="xMidYMid meet">
<metadata>
Created by potrace 1.11, written by Peter Selinger 2001-2013
</metadata>
<g transform="translate(0.000000,700.000000) scale(0.100000,-0.100000)"
fill="#000000" stroke="none">
<path d="M3325 6993 c-106 -9 -271 -37 -377 -64 -625 -158 -1158 -589 -1449
-1171 -100 -198 -148 -344 -204 -612 -3 -11 -7 -42 -10 -70 -3 -28 -8 -64 -11
-81 -9 -62 -13 -231 -14 -587 0 -296 -3 -368 -13 -368 -7 0 -38 -12 -68 -27
-124 -61 -222 -161 -279 -286 -52 -115 -56 -164 -54 -712 1 -458 4 -554 21
-685 3 -25 6 -52 7 -60 13 -103 57 -295 97 -420 131 -405 345 -756 644 -1056
146 -147 221 -212 345 -298 52 -36 100 -69 105 -74 45 -34 279 -159 395 -210
177 -77 423 -148 615 -178 17 -2 44 -7 60 -9 102 -16 174 -20 380 -20 275 1
462 25 690 89 6 1 30 8 55 15 162 44 457 175 620 277 78 48 267 179 280 193 3
3 32 28 65 55 75 62 247 234 300 301 22 28 42 52 45 55 17 16 113 146 151 205
239 366 385 772 424 1180 3 33 8 80 10 105 6 66 6 1049 -1 1090 -30 193 -160
358 -356 450 l-63 30 -1 412 c-1 227 -4 449 -8 493 -65 732 -494 1392 -1141
1758 -181 102 -435 199 -610 233 -11 2 -31 6 -45 9 -47 10 -75 15 -115 20 -22
3 -56 8 -75 11 -43 6 -360 11 -415 7z m425 -339 c472 -65 864 -272 1184 -623
181 -199 334 -479 409 -746 64 -229 69 -291 72 -782 l3 -433 -74 0 c-95 -1
-309 -1 -377 0 l-52 0 0 368 c0 202 -3 403 -8 447 -32 334 -171 629 -407 865
-92 93 -123 118 -225 185 -158 104 -359 185 -520 210 -145 23 -335 27 -445 10
-37 -5 -162 -34 -220 -49 -235 -65 -520 -259 -684 -465 -160 -202 -245 -396
-302 -691 -4 -19 -8 -224 -10 -454 -3 -231 -6 -421 -7 -422 -3 -3 -251 -5
-420 -4 l-79 0 5 453 c3 248 7 463 10 477 3 14 8 45 12 70 25 177 137 503 206
602 11 14 19 29 19 34 0 7 128 204 139 214 4 3 26 30 51 60 128 160 347 341
543 450 172 95 415 183 567 206 19 3 42 7 50 9 8 2 44 7 80 11 36 3 67 8 68
10 10 8 330 0 412 -12z m-72 -830 c106 -21 112 -23 166 -40 57 -19 195 -86
241 -117 270 -185 429 -438 481 -767 4 -25 8 -222 8 -437 l2 -393 -56 0 c-69
0 -1308 0 -1763 0 l-337 0 0 388 c1 419 7 486 57 636 47 144 136 294 240 407
156 169 403 296 638 328 89 12 247 9 323 -5z m2008 -2111 c54 -29 107 -92 123
-145 10 -32 13 -166 12 -543 0 -275 -3 -522 -6 -550 -9 -90 -14 -129 -20 -170
-59 -380 -212 -741 -448 -1055 -132 -175 -401 -428 -553 -520 -21 -13 -41 -27
-44 -30 -8 -10 -136 -83 -217 -124 -239 -120 -543 -206 -824 -233 -137 -14
-419 -8 -529 11 -14 3 -42 7 -64 10 -135 21 -349 81 -491 139 -487 198 -891
555 -1158 1024 -26 45 -47 84 -47 87 0 2 -17 42 -39 88 -85 184 -149 398 -185
628 -16 100 -20 251 -21 715 l0 510 29 52 c29 52 86 101 141 121 21 7 672 10
2165 9 l2135 -2 41 -22z"/>
<path d="M3421 3208 c-107 -11 -224 -58 -306 -122 -127 -97 -220 -251 -243
-402 -12 -71 -8 -208 7 -246 6 -16 9 -28 6 -28 -6 0 30 -85 57 -135 66 -123
194 -235 329 -287 l59 -23 0 -400 c0 -448 -2 -438 74 -499 67 -55 189 -44 248
21 46 51 48 70 48 486 l0 394 48 18 c299 114 471 461 378 767 -21 71 -78 166
-140 235 -155 170 -347 246 -565 221z m134 -361 c51 -8 98 -32 139 -73 129
-129 99 -337 -61 -431 -34 -20 -63 -27 -117 -31 -63 -4 -79 -1 -129 22 -206
98 -205 407 1 493 38 16 111 31 127 27 6 -2 24 -5 40 -7z"/>
</g>
</svg>
