<?xml version="1.0" standalone="no"?>
<!DOCTYPE svg PUBLIC "-//W3C//DTD SVG 1.1//EN" "http://www.w3.org/Graphics/SVG/1.1/DTD/svg11.dtd" >
<svg xmlns="http://www.w3.org/2000/svg" xmlns:xlink="http://www.w3.org/1999/xlink" version="1.1">
<metadata>
Created by FontForge 20170924 at Sat May 25 01:10:44 2019
 By www-data
Copyright (c) 2018 by Ivy Foundry. All rights reserved. |DCNT
</metadata>
<defs>
<font id="IvyMode-BoldItalic" horiz-adv-x="0" >
  <font-face 
    font-family="Ivy Mode"
    font-weight="700"
    font-style="italic"
    font-stretch="normal"
    units-per-em="1000"
    panose-1="2 11 4 4 2 1 1 1 1 2"
    ascent="810"
    descent="-190"
    x-height="544"
    cap-height="728"
    bbox="-430 -283 1698 1040"
    underline-thickness="50"
    underline-position="-200"
    slope="-12"
    unicode-range="U+000D-FEFF"
  />
<missing-glyph horiz-adv-x="832" 
d="M116 728h632v-760h-632v760zM726 708h-588v-720h588v720z" />
    <glyph glyph-name="f_f" unicode="ff" horiz-adv-x="712" 
d="M915 747l-11 -12q-44 25 -93 25q-46 0 -78 -28.5t-44 -81.5l-23 -106h109l-17 -22h-96l-103 -482q-17 -81 -76 -140.5t-132.5 -88.5t-158.5 -39l-1 12q62 16 109 79.5t67 156.5l106 502h-157l-103 -482q-17 -81 -76 -140.5t-132.5 -88.5t-158.5 -39l-1 12q62 16 109 79.5
t67 156.5l106 502h-53l5 22h53l15 70q19 93 79.5 143.5t152.5 50.5q87 0 162 -53l-11 -12q-31 11 -66 11q-46 0 -78 -28.5t-44 -81.5l-21 -100h157l16 76q19 93 79.5 143.5t152.5 50.5q114 0 189 -67z" />
    <glyph glyph-name="f_f_i" unicode="ffi" horiz-adv-x="1019" 
d="M947 606l-92 120l132 104l92 -120zM938 544l86 18h4l-119 -562h-188l111 522h-170l-103 -482q-17 -81 -76 -140.5t-132.5 -88.5t-158.5 -39l-1 12q62 16 109 79.5t67 156.5l106 502h-157l-103 -482q-17 -81 -76 -140.5t-132.5 -88.5t-158.5 -39l-1 12q62 16 109 79.5
t67 156.5l106 502h-53l5 22h53l15 70q19 93 79.5 143.5t152.5 50.5q87 0 162 -53l-11 -12q-31 11 -66 11q-46 0 -78 -28.5t-44 -81.5l-21 -100h157l16 76q19 93 79.5 143.5t152.5 50.5q68 0 150 -48l-8 -15q-30 9 -57 9q-46 0 -78 -28.5t-44 -81.5l-23 -106h272z" />
    <glyph glyph-name="f_i" unicode="fi" horiz-adv-x="673" 
d="M601 606l-92 120l132 104l92 -120zM592 544l86 18h4l-119 -562h-188l111 522h-170l-103 -482q-17 -81 -76 -140.5t-132.5 -88.5t-158.5 -39l-1 12q62 16 109 79.5t67 156.5l106 502h-53l5 22h53l16 76q19 93 79.5 143.5t152.5 50.5q68 0 150 -48l-8 -15q-30 9 -57 9
q-46 0 -78 -28.5t-44 -81.5l-23 -106h272z" />
    <glyph glyph-name="f_l" unicode="fl" horiz-adv-x="687" 
d="M746 810h4l-173 -810h-188l158 741q-38 19 -82 19q-46 0 -78 -28.5t-44 -81.5l-23 -106h109l-17 -22h-96l-103 -482q-17 -81 -76 -140.5t-132.5 -88.5t-158.5 -39l-1 12q62 16 109 79.5t67 156.5l106 502h-53l5 22h53l16 76q19 93 79.5 143.5t152.5 50.5q106 0 180 -60z
" />
    <glyph glyph-name=".notdef" horiz-adv-x="832" 
d="M116 728h632v-760h-632v760zM726 708h-588v-720h588v720z" />
    <glyph glyph-name=".null" 
 />
    <glyph glyph-name="uni000D" unicode="&#xd;" horiz-adv-x="190" 
 />
    <glyph glyph-name="space" unicode=" " horiz-adv-x="190" 
 />
    <glyph glyph-name="exclam" unicode="!" horiz-adv-x="272" 
d="M120 244l11 484h202l-195 -484h-18zM77 -24l-92 120l132 104l92 -120z" />
    <glyph glyph-name="quotedbl" unicode="&#x22;" horiz-adv-x="332" 
d="M116 452l-5 288h144l-129 -288h-10zM276 452l-5 288h144l-129 -288h-10z" />
    <glyph glyph-name="numbersign" unicode="#" horiz-adv-x="528" 
d="M549 481h-107l-82 -234h100l-4 -18h-102l-80 -229h-21l80 229h-193l-80 -229h-21l80 229h-105l4 18h107l82 234h-100l4 18h102l80 229h21l-80 -229h193l80 229h21l-80 -229h105zM339 247l82 234h-193l-82 -234h193z" />
    <glyph glyph-name="dollar" unicode="$" horiz-adv-x="564" 
d="M419 706l-76 -247l34 -22q46 -30 71 -52q77 -62 77 -156q0 -107 -75.5 -174t-196.5 -67q-31 0 -52 4l-28 -93h-21l29 96q-59 11 -110 29q-55 20 -68 30l45 101q15 -45 53 -82.5t87 -55.5l78 256l-2 1l-41 27q-33 21 -65 48q-73 63 -73 157q0 106 73.5 170t191.5 64
q22 0 57 -5l28 94h21l-30 -98q83 -17 139 -53l-39 -91q-47 87 -107 119zM326 470l74 244q-27 10 -55 10q-58 0 -92 -35t-34 -88q0 -39 25 -67t82 -64zM283 262l-76 -251q28 -7 53 -7q60 0 94.5 35t34.5 91q0 39 -24.5 67t-81.5 65z" />
    <glyph glyph-name="percent" unicode="%" horiz-adv-x="749" 
d="M81 526q0 89 52.5 148.5t136.5 59.5q73 0 117 -39t44 -107q0 -89 -52.5 -148.5t-136.5 -59.5q-73 0 -117 38.5t-44 107.5zM100 0l562 728h25l-562 -728h-25zM325 642q0 80 -44 80q-37 4 -66 -85t-28 -166q0 -79 44 -79q27 0 48 42q22 42 34 103q12 60 12 105zM356 140
q0 89 52.5 148.5t136.5 59.5q73 0 117 -39t44 -107q0 -89 -52.5 -148.5t-136.5 -59.5q-73 0 -117 38.5t-44 107.5zM600 256q0 80 -44 80q-37 4 -66 -85t-28 -166q0 -79 44 -79q27 0 48 42q22 42 34 103q12 60 12 105z" />
    <glyph glyph-name="ampersand" unicode="&#x26;" horiz-adv-x="685" 
d="M584 219l56 -59l-43 -202h-6l-113 120q-104 -90 -244 -90q-93 0 -157.5 51t-64.5 129q0 82 51.5 135t144.5 74q-54 81 -54 151q0 92 65 152t163 60q71 0 125.5 -36.5t54.5 -94.5q0 -107 -150 -157l-8 9q55 61 55 160q0 46 -24 75.5t-61 29.5q-45 0 -73.5 -31.5
t-28.5 -78.5q0 -64 82 -153l218 -231q20 46 27 84q7 29 7 67q0 45 -13 78l56 16h3l-30 -143q-13 -64 -38 -115zM464 93l-185 197q-37 40 -60 71q-22 -27 -35.5 -73t-13.5 -92q0 -69 42 -114.5t101 -45.5q77 0 151 57z" />
    <glyph glyph-name="quotesingle" unicode="'" horiz-adv-x="172" 
d="M116 452l-5 288h144l-129 -288h-10z" />
    <glyph glyph-name="parenleft" unicode="(" horiz-adv-x="217" 
d="M19 129q0 173 74 350q75 175 203 303l12 -9q-112 -113 -181.5 -310.5t-68.5 -378.5q0 -147 52 -241l-13 -9q-78 135 -78 295z" />
    <glyph glyph-name="parenright" unicode=")" horiz-adv-x="216" 
d="M-64 -166l-12 9q112 113 181.5 310.5t68.5 378.5q0 147 -52 241l13 9q78 -135 78 -295q0 -175 -75 -350q-73 -174 -202 -303z" />
    <glyph glyph-name="asterisk" unicode="*" horiz-adv-x="447" 
d="M462 619l-177 -75l177 -75l-27 -46l-153 116l24 -191h-54l24 191l-153 -116l-27 46l177 75l-177 75l27 46l153 -116l-24 191h54l-24 -191l153 116z" />
    <glyph glyph-name="plus" unicode="+" horiz-adv-x="508" 
d="M477 374v-20h-193v-200h-22v200h-193v20h193v200h22v-200h193z" />
    <glyph glyph-name="comma" unicode="," horiz-adv-x="247" 
d="M-39 -146l-5 7q48 18 76 51.5t28 72.5q0 33 -21.5 62.5t-60.5 48.5l90 102q51 -16 81 -52t30 -83q1 -75 -68 -133.5t-150 -75.5z" />
    <glyph glyph-name="hyphen" unicode="-" horiz-adv-x="282" 
d="M33 271l8 38h215l-8 -38h-215z" />
    <glyph glyph-name="period" unicode="." horiz-adv-x="244" 
d="M64 -24l-92 120l132 104l92 -120z" />
    <glyph glyph-name="slash" unicode="/" horiz-adv-x="364" 
d="M-49 -64l472 846h27l-472 -846h-27z" />
    <glyph glyph-name="zero" unicode="0" horiz-adv-x="698" 
d="M53 274q-1 124 40.5 230t124 172t189.5 64q129 0 203 -74t74 -213q1 -125 -40 -230.5t-124 -171t-191 -63.5q-128 0 -202 74t-74 212zM499 570q0 156 -74 156q-53 0 -95 -98t-66 -234t-24 -237q0 -155 73 -155q53 0 95 98q43 96 67 234q24 137 24 236z" />
    <glyph glyph-name="one" unicode="1" horiz-adv-x="343" 
d="M373 740h4l-158 -740h-178l124 586q-49 -15 -82 -16l2 12q66 10 153 56t135 102z" />
    <glyph glyph-name="two" unicode="2" horiz-adv-x="548" 
d="M126 130h49q179 0 319 20l-70 -150h-464l1 4l66 60q87 79 162 157q66 69 120 157q53 88 53 168q0 58 -32 89t-85 31q-71 0 -145 -74l-13 6q33 54 102 98q67 43 157 43q89 0 150.5 -48t61.5 -133q0 -82 -60 -156q-59 -73 -149 -135q-76 -53 -223 -137z" />
    <glyph glyph-name="three" unicode="3" horiz-adv-x="547" 
d="M-18 41l37 91q55 -128 161 -128q68 0 110.5 46t42.5 122q0 74 -42 128t-116 78l-2 11l20 6q64 19 111 68t47 107q0 43 -29 67t-77 24q-45 0 -77 -17t-67 -50l-11 7q106 139 259 139q83 0 137.5 -39.5t54.5 -99.5q0 -62 -57.5 -112t-132.5 -59v-2q66 -19 108.5 -70.5
t42.5 -123.5q2 -104 -90.5 -175.5t-228.5 -70.5q-96 0 -201 53z" />
    <glyph glyph-name="four" unicode="4" horiz-adv-x="561" 
d="M545 728l-97 -460h90l-53 -106h-60l-34 -162h-178l34 162h-238l-16 84l498 482h54zM45 268h225l58 274z" />
    <glyph glyph-name="five" unicode="5" horiz-adv-x="511" 
d="M502 598h-335l-31 -104q162 -9 247.5 -74t85.5 -178q3 -112 -88 -184t-214 -70q-116 0 -191 56l30 68q18 -48 57 -78t90 -30q72 0 115 44.5t43 117.5q0 77 -64 123.5t-177 51.5l116 387h385z" />
    <glyph glyph-name="six" unicode="6" horiz-adv-x="628" 
d="M34 235q0 123 73 235t194 186q120 74 249 84l3 -15q-102 -19 -180 -109.5t-116 -214.5t-37 -255q0 -70 19 -107t53 -37q36 -3 65.5 45.5t44.5 113.5t14 122q0 115 -68 115q-32 0 -63 -25l-10 12q64 72 154 72q69 0 122.5 -55t53.5 -138q0 -119 -85.5 -197.5t-212.5 -78.5
q-128 0 -200.5 67.5t-72.5 179.5z" />
    <glyph glyph-name="seven" unicode="7" horiz-adv-x="493" 
d="M124 728h458v-4l-386 -724h-170l466 598h-131q-187 0 -286 -24z" />
    <glyph glyph-name="eight" unicode="8" horiz-adv-x="583" 
d="M532 206q0 -97 -80 -157.5t-193 -60.5q-101 0 -172.5 45t-71.5 121q0 68 52 119q51 51 134 71q-97 78 -97 173q0 96 75.5 159.5t181.5 63.5q85 0 147.5 -43.5t62.5 -111.5q0 -62 -47.5 -107t-129.5 -63q138 -95 138 -209zM246 591q0 -43 24 -74.5t73 -65.5l37 -25
q38 35 60 87t22 105q0 50 -25.5 79t-72.5 29q-55 0 -86.5 -38t-31.5 -97zM390 139q0 34 -17 62q-10 18 -24.5 32.5t-24.5 22.5t-40 29l-39 27l-31 22q-89 -81 -89 -208q0 -59 34 -91.5t90 -32.5q65 0 103 38t38 99z" />
    <glyph glyph-name="nine" unicode="9" horiz-adv-x="628" 
d="M117 -12l-3 15q102 19 179.5 110t116 214t37.5 255q0 70 -19 107t-53 37q-36 3 -65.5 -45.5t-44.5 -113.5t-14 -122q0 -115 68 -115q32 0 63 25l10 -12q-64 -72 -154 -72q-69 0 -122.5 55t-53.5 138q0 119 85.5 197.5t212.5 78.5q128 0 200.5 -67.5t72.5 -179.5
q0 -122 -74 -235q-75 -115 -193 -187t-249 -83z" />
    <glyph glyph-name="colon" unicode=":" horiz-adv-x="274" 
d="M82 -24l-92 120l132 104l92 -120zM144 306l-92 120l132 104l92 -120z" />
    <glyph glyph-name="semicolon" unicode=";" horiz-adv-x="273" 
d="M-26 -146l-5 7q48 18 76 51.5t28 72.5q0 33 -21.5 62.5t-60.5 48.5l90 102q51 -16 81 -52t30 -83q1 -75 -68 -133.5t-150 -75.5zM144 306l-92 120l132 104l92 -120z" />
    <glyph glyph-name="less" unicode="&#x3c;" horiz-adv-x="508" 
d="M456 544l-379 -180l379 -180l-10 -18l-398 189v18l398 189z" />
    <glyph glyph-name="equal" unicode="=" horiz-adv-x="508" 
d="M67 426v20h408v-20h-408zM67 282v20h408v-20h-408z" />
    <glyph glyph-name="greater" unicode="&#x3e;" horiz-adv-x="508" 
d="M96 562l398 -189v-18l-398 -189l-10 18l379 180l-379 180z" />
    <glyph glyph-name="question" unicode="?" horiz-adv-x="518" 
d="M183 302q0 26 16 48t56 58q53 46 76 82t23 84t-30.5 75.5t-83.5 27.5q-37 0 -67.5 -14t-68.5 -44l-10 9q30 35 93 74q64 38 153 38q98 0 154 -43.5t56 -114.5q0 -60 -33 -101q-30 -37 -71 -59.5t-117 -49.5q-65 -23 -90.5 -39.5t-25.5 -39.5q0 -15 10 -25t28 -10
q9 0 26 3v-14q-14 -3 -29 -3q-28 0 -46.5 16t-18.5 42zM190 -24l-92 120l132 104l92 -120z" />
    <glyph glyph-name="at" unicode="@" horiz-adv-x="809" 
d="M692 527l-87 -236q-27 -75 -27 -104q0 -30 25 -30q48 -2 92 41t68.5 108t23.5 127q2 124 -80.5 208.5t-209.5 82.5q-108 3 -206 -65.5t-154.5 -179t-54.5 -227.5q-2 -144 88 -238.5t231 -92.5q117 0 212 63l8 -13q-101 -66 -226 -66q-160 0 -260.5 97.5t-100.5 249.5
q0 128 63 240t170 180q109 68 234 68q141 2 233.5 -86.5t90.5 -218.5q1 -75 -29.5 -145t-85.5 -114t-118 -42q-92 0 -107 54q-61 -64 -129 -64q-59 0 -97 35t-38 98q-2 108 78 192t186 82q76 0 120 -39l82 35h5zM482 209v3q0 44 15 84l59 162q-6 25 -21.5 41t-36.5 16
q-43 2 -81.5 -40t-59.5 -102.5t-20 -116.5q0 -90 68 -90q37 0 77 43z" />
    <glyph glyph-name="A" unicode="A" horiz-adv-x="625" 
d="M368 0l-47 232h-204q-44 -80 -61 -133q-16 -51 -16 -99h-112q57 74 102 140q37 52 118 182l270 430h4l153 -752h-207zM128 250h190l-47 232l-105 -168z" />
    <glyph glyph-name="B" unicode="B" horiz-adv-x="710" 
d="M671 230q0 -114 -100 -172t-257 -58h-308l154 728h292q120 0 188.5 -37t68.5 -103q0 -91 -74 -144t-185 -59v-2q103 -6 162 -45.5t59 -107.5zM411 712h-52l-70 -329h71q64 0 103.5 68.5t39.5 154.5q0 49 -23.5 77.5t-68.5 28.5zM451 251q0 55 -24 85.5t-69 30.5h-73
l-73 -346q20 -5 54 -5q90 0 137 66q48 68 48 169z" />
    <glyph glyph-name="C" unicode="C" horiz-adv-x="668" 
d="M48 303q-1 115 51.5 216.5t147.5 162t207 58.5q154 0 256 -136l-95 -69q-11 78 -47 132q-37 57 -98 57q-62 0 -110 -71q-46 -70 -72 -176q-25 -103 -25 -201q0 -216 169 -216q120 0 197 90l12 -7q-55 -74 -131.5 -114.5t-161.5 -40.5q-133 0 -216.5 88.5t-83.5 226.5z
" />
    <glyph glyph-name="D" unicode="D" horiz-adv-x="788" 
d="M782 446q3 -202 -144.5 -325t-374.5 -121h-257l154 728h274q159 0 253.5 -74t94.5 -208zM573 509q0 97 -38 150t-110 53h-66l-146 -687q19 -9 70 -9q88 0 154 75q67 76 101 189q35 117 35 229z" />
    <glyph glyph-name="E" unicode="E" horiz-adv-x="567" 
d="M160 728h452l-10 -114h-2q-84 96 -217 96h-25l-68 -322h10q154 0 192 48h2l-26 -122h-2q-19 56 -170 56h-10l-74 -352h30q138 0 272 106h2l-50 -124h-460z" />
    <glyph glyph-name="F" unicode="F" horiz-adv-x="538" 
d="M160 728h447l-10 -114h-2q-90 96 -219 96h-18l-70 -334h1q155 0 196 48h2l-26 -122h-2q-20 56 -174 56h-1l-76 -358h-202z" />
    <glyph glyph-name="G" unicode="G" horiz-adv-x="748" 
d="M438 312l-7 18h296l-56 -264q-149 -78 -257 -78q-174 0 -270 80t-96 228q-1 123 52.5 225.5t152 161.5t220.5 57q169 0 285 -139l-95 -70q-12 79 -55 135q-42 58 -120 58q-74 0 -126 -75q-53 -76 -80 -188q-27 -113 -27 -222q0 -233 153 -233q34 0 73 13l62 293h-105z
" />
    <glyph glyph-name="H" unicode="H" horiz-adv-x="755" 
d="M586 728h202l-154 -728h-202l78 370h-224l-78 -370h-202l154 728h202l-72 -340h224z" />
    <glyph glyph-name="I" unicode="I" horiz-adv-x="329" 
d="M6 0l154 728h202l-154 -728h-202z" />
    <glyph glyph-name="J" unicode="J" horiz-adv-x="330" 
d="M-152 -150l-4 12q73 40 112 87q39 46 58 104q23 68 43 167l108 508h202l-106 -500q-20 -88 -55 -151.5t-88.5 -106.5t-117 -70.5t-152.5 -49.5z" />
    <glyph glyph-name="K" unicode="K" horiz-adv-x="697" 
d="M161 728h202l-155 -728h-202zM526 538l-51 -45l-20 -17l204 -283l-50 -235h-10l-295 415l158 136q86 74 125 122q38 47 64 97h122l-1 -2q-56 -33 -106 -72q-64 -50 -140 -116z" />
    <glyph glyph-name="L" unicode="L" horiz-adv-x="515" 
d="M475 150h2l-58 -150h-413l154 728h202l-150 -710h9q99 0 254 132z" />
    <glyph glyph-name="M" unicode="M" horiz-adv-x="876" 
d="M687 728h181l-85 -728h-199l75 638l-334 -592h-4l-129 557l-84 -285q-44 -155 -44 -266q0 -6 2 -52h-100q67 133 122 318l96 323l-20 84l1 3h213l90 -389z" />
    <glyph glyph-name="N" unicode="N" horiz-adv-x="656" 
d="M622 728h100q-68 -134 -108 -318l-90 -422h-16l-328 610l-59 -280q-30 -140 -30 -249q0 -36 3 -69h-100q66 127 107 318l65 307l-54 100l1 3h213l240 -450l28 132q31 145 31 253q0 35 -3 65z" />
    <glyph glyph-name="O" unicode="O" horiz-adv-x="824" 
d="M48 304q-3 181 119.5 310t300.5 126q155 0 250.5 -85.5t95.5 -230.5q3 -181 -119.5 -310t-300.5 -126q-155 0 -250.5 85.5t-95.5 230.5zM608 519q0 205 -127 205q-70 0 -123 -80q-51 -79 -78 -200q-26 -122 -26 -234q0 -206 129 -206q71 0 122 80q52 82 77 200
q26 122 26 235z" />
    <glyph glyph-name="P" unicode="P" horiz-adv-x="647" 
d="M684 554q0 -115 -92 -186t-233 -71q-45 0 -87 6l-65 -303h-201l154 728h281q116 0 179.5 -47t63.5 -127zM482 596q0 116 -82 116h-41l-84 -391q19 -8 43 -8q49 -2 88 42.5t58 109.5t18 131z" />
    <glyph glyph-name="Q" unicode="Q" horiz-adv-x="824" 
d="M720 -116q37 0 85 9l-1 -4q-86 -39 -180 -39q-100 0 -182 39q-83 38 -112 103q-130 18 -206 100t-76 212q-3 181 119.5 310t300.5 126q155 0 250.5 -85.5t95.5 -230.5q0 -146 -78.5 -259.5t-206.5 -155.5q57 -125 191 -125zM383 4q71 0 122 80q52 82 77 200
q26 122 26 235q0 205 -127 205q-70 0 -123 -80q-51 -79 -78 -200q-26 -122 -26 -234q0 -206 129 -206z" />
    <glyph glyph-name="R" unicode="R" horiz-adv-x="684" 
d="M484 368l145 -195l-45 -215h-10l-256 358q-13 18 -33 18h-5l-72 -334h-202l155 728h263q136 0 205.5 -40t69.5 -116q0 -79 -61 -131t-154 -73zM512 602q0 110 -104 110h-48l-77 -357q20 -5 39 -5q67 -2 129.5 72t60.5 180z" />
    <glyph glyph-name="S" unicode="S" horiz-adv-x="553" 
d="M-1 54l45 101q19 -63 82 -107t130 -44q60 0 94.5 35t34.5 91q0 39 -24.5 67t-82.5 66q-3 1 -18 11l-41 27q-33 21 -65 48q-73 63 -73 157q0 106 73.5 170t191.5 64q66 0 126 -22q61 -22 89 -40l-39 -91q-30 55 -75 96q-44 41 -106 41q-58 0 -92 -35t-34 -88q0 -29 17 -55
q16 -23 36.5 -39t62.5 -43l42 -27q46 -30 71 -52q77 -62 77 -156q0 -107 -75.5 -174t-196.5 -67q-59 0 -144 25.5t-106 40.5z" />
    <glyph glyph-name="T" unicode="T" horiz-adv-x="583" 
d="M121 728h534l-12 -138h-2q-48 70 -78 94q-31 26 -67 26h-11l-150 -710h-202l150 710h-9q-36 0 -79 -26q-37 -22 -118 -94h-2z" />
    <glyph glyph-name="U" unicode="U" horiz-adv-x="680" 
d="M51 208q0 45 10 89l92 431h202l-96 -449q-11 -55 -11 -95q0 -75 35 -116.5t103 -41.5q72 0 125.5 61.5t77.5 179.5l30 143q31 146 31 255q0 33 -3 63h100q-71 -138 -108 -318l-29 -138q-30 -146 -99.5 -215t-191.5 -69q-131 0 -199.5 56t-68.5 164z" />
    <glyph glyph-name="V" unicode="V" horiz-adv-x="626" 
d="M624 728h112q-49 -64 -103 -140q-38 -56 -117 -182l-270 -430h-4l-153 752h207l97 -482l105 168q76 122 100 188q26 70 26 126z" />
    <glyph glyph-name="W" unicode="W" horiz-adv-x="856" 
d="M870 728h91q-43 -60 -83 -126q-26 -42 -112 -194l-244 -432h-5l-66 436l-248 -436h-4l-106 752h205l62 -437l249 437h4l66 -434l67 120q65 114 89 184q27 77 35 130z" />
    <glyph glyph-name="X" unicode="X" horiz-adv-x="634" 
d="M450 471l134 -236l-58 -277h-9l-214 377l-67 -78q-69 -79 -94 -131q-24 -52 -24 -96q0 -4 2 -30h-185q77 56 134 109q60 56 151 159l73 84l-213 376h224l136 -239q84 97 116 145q35 54 44 94h112q-125 -98 -262 -257z" />
    <glyph glyph-name="Y" unicode="Y" horiz-adv-x="626" 
d="M501 431l-82 -115l-66 -316h-202l67 321l-121 407h210l112 -378l65 92q118 166 144 286h91q-101 -132 -218 -297z" />
    <glyph glyph-name="Z" unicode="Z" horiz-adv-x="586" 
d="M663 728l-1 -4l-461 -706h25q98 0 165 23q65 22 146 83h2l-50 -124h-536l1 4l461 706h-10q-95 0 -166 -23q-69 -23 -138 -73h-2l38 114h526z" />
    <glyph glyph-name="bracketleft" unicode="[" horiz-adv-x="215" 
d="M112 308q-50 -231 -117 -462h135l-3 -12h-160l202 948h160l-3 -12h-136q-32 -249 -78 -462z" />
    <glyph glyph-name="backslash" unicode="\" horiz-adv-x="350" 
d="M237 -64l-112 846h24l112 -846h-24z" />
    <glyph glyph-name="bracketright" unicode="]" horiz-adv-x="215" 
d="M103 782h160l-202 -948h-160l3 12h136q32 249 78 462q50 231 117 462h-135z" />
    <glyph glyph-name="asciicircum" unicode="^" horiz-adv-x="508" 
d="M493 358l-18 -10l-197 354l-197 -354l-18 10l213 382h4z" />
    <glyph glyph-name="underscore" unicode="_" horiz-adv-x="377" 
d="M-77 -86l4 22h380l-4 -22h-380z" />
    <glyph glyph-name="grave" unicode="`" horiz-adv-x="600" 
d="M304 606l-166 206h164l10 -201z" />
    <glyph glyph-name="a" unicode="a" horiz-adv-x="662" 
d="M547 61q0 -31 39 -31q4 0 20 2l-1 -6q-59 -38 -142 -38q-101 0 -101 82q0 22 6 47l14 64h-8q-43 -103 -94 -148t-118 -45q-145 0 -145 184q-1 101 43.5 190t124 142.5t173.5 51.5q102 0 170 -57l119 63h4l-97 -456q-7 -29 -7 -45zM437 440q1 43 -18 71t-52 28
q-49 0 -86 -58q-37 -56 -58 -141q-21 -84 -21 -158q0 -108 51 -108q42 0 88 79q47 80 96 287z" />
    <glyph glyph-name="b" unicode="b" horiz-adv-x="641" 
d="M624 372q1 -101 -43.5 -190t-124 -142.5t-173.5 -51.5q-109 0 -172 65l-115 -65h-4l163 771l195 51h4l-95 -447h8q43 103 94 148t118 45q145 0 145 -184zM439 362q0 108 -51 108q-42 0 -88 -79q-47 -80 -96 -287q-1 -43 18 -71t52 -28q47 0 85 57q39 60 59 142
q21 84 21 158z" />
    <glyph glyph-name="c" unicode="c" horiz-adv-x="518" 
d="M20 210q-2 90 43 171t122 129t162 46q129 0 194 -103l-63 -48q-23 73 -45.5 104t-60.5 31q-47 0 -83 -57q-35 -55 -54 -138q-19 -79 -19 -150q0 -135 107 -135q79 0 145 70l11 -8q-112 -134 -240 -134q-96 0 -157.5 61t-61.5 161z" />
    <glyph glyph-name="d" unicode="d" horiz-adv-x="642" 
d="M700 810h4l-172 -810h-188l38 181h-8q-43 -103 -94 -148t-118 -45q-145 0 -145 184q-1 101 43.5 190t124 142.5t173.5 51.5q56 0 100 -18l47 221zM437 440q1 43 -18 71t-52 28q-49 0 -86 -58q-37 -56 -58 -141q-21 -84 -21 -158q0 -108 51 -108q42 0 88 79q47 80 96 287z
" />
    <glyph glyph-name="e" unicode="e" horiz-adv-x="544" 
d="M495 142l10 -7q-121 -147 -269 -147q-98 0 -156 61t-58 167q-2 138 96 240.5t240 99.5q84 0 135 -32t51 -86q0 -68 -84.5 -120t-245.5 -82v-22q0 -154 110 -154q89 0 171 82zM215 252q91 27 143.5 87.5t52.5 136.5q0 64 -45 64q-42 2 -76 -44t-52 -110.5t-23 -133.5z" />
    <glyph glyph-name="f" unicode="f" horiz-adv-x="366" 
d="M569 747l-11 -12q-44 25 -93 25q-46 0 -78 -28.5t-44 -81.5l-23 -106h109l-17 -22h-96l-103 -482q-17 -81 -76 -140.5t-132.5 -88.5t-158.5 -39l-1 12q62 16 109 79.5t67 156.5l106 502h-53l5 22h53l16 76q19 93 79.5 143.5t152.5 50.5q114 0 189 -67z" />
    <glyph glyph-name="g" unicode="g" horiz-adv-x="580" 
d="M641 594l-40 -118q-37 22 -69 22q-27 0 -43 -10q42 -44 42 -108q0 -81 -60 -132t-167 -73q-79 -16 -113 -26q-29 -8 -29 -21t44 -19l137 -18q159 -19 159 -129q2 -58 -44 -105.5t-118.5 -72.5t-151.5 -24q-101 0 -174 36.5t-73 96.5q0 28 17 60l95 21h4q-23 -51 -23 -87
q0 -111 152 -111q84 0 146.5 31t62.5 77q0 27 -24.5 39.5t-96.5 27.5l-166 34q-47 10 -74 26.5t-27 48.5q0 47 62 73q65 26 164 44q-84 10 -134.5 56.5t-50.5 115.5q0 91 74.5 148.5t180.5 57.5q113 0 175 -57q61 96 163 96zM371 440q0 51 -13 75.5t-43 24.5
q-35 1 -61 -39.5t-37 -96.5t-10 -116q0 -52 13 -75.5t45 -23.5q55 0 80 78q26 80 26 173z" />
    <glyph glyph-name="h" unicode="h" horiz-adv-x="626" 
d="M605 429q0 -26 -8 -66l-77 -363h-188l80 374q7 32 7 54q0 42 -34 42q-27 0 -55 -30q-71 -77 -148 -440h-188l161 759l195 51h4l-95 -447h8q41 105 89.5 149t116.5 44q132 0 132 -127z" />
    <glyph glyph-name="i" unicode="i" horiz-adv-x="291" 
d="M219 606l-92 120l132 104l92 -120zM-7 0l111 521l192 41h4l-119 -562h-188z" />
    <glyph glyph-name="j" unicode="j" horiz-adv-x="299" 
d="M226 606l-92 120l132 104l92 -120zM-170 -228l-1 12q62 16 109 79.5t67 156.5l106 501l193 41h4l-111 -522q-17 -81 -76 -140.5t-132.5 -88.5t-158.5 -39z" />
    <glyph glyph-name="k" unicode="k" horiz-adv-x="579" 
d="M350 810h4l-172 -810h-188l161 759zM619 544v-2q-115 -68 -207 -139l128 -205l-51 -240h-6l-217 355l99 78q68 53 103 85q36 32 66 68h85z" />
    <glyph glyph-name="l" unicode="l" horiz-adv-x="292" 
d="M-6 0l161 759l195 51h4l-172 -810h-188z" />
    <glyph glyph-name="m" unicode="m" horiz-adv-x="951" 
d="M930 429q0 -26 -8 -66l-77 -363h-188l80 374q7 31 7 52q0 44 -37 44q-25 0 -51 -30q-66 -75 -143 -440h-188l80 374q7 31 7 52q0 44 -37 44q-25 0 -51 -30q-66 -75 -143 -440h-188l111 521l192 41h4l-42 -199h6q40 106 87 149.5t115 43.5q132 0 132 -127q0 -26 -8 -66h6
q40 106 87 149.5t115 43.5q132 0 132 -127z" />
    <glyph glyph-name="n" unicode="n" horiz-adv-x="625" 
d="M604 429q0 -26 -8 -66l-77 -363h-188l80 374q7 31 7 52q0 44 -37 44q-25 0 -53 -30q-70 -75 -147 -440h-188l111 521l192 41h4l-42 -199h8q41 105 89.5 149t116.5 44q132 0 132 -127z" />
    <glyph glyph-name="o" unicode="o" horiz-adv-x="629" 
d="M25 229q-2 135 91 232t224 95q117 0 190.5 -66t73.5 -175q2 -135 -91 -232.5t-224 -94.5q-117 0 -190.5 66t-73.5 175zM414 407q0 135 -63 135q-41 0 -73 -68q-30 -64 -47 -163q-16 -93 -16 -176q0 -133 62 -133q42 0 73 67q32 67 48 162q16 93 16 176z" />
    <glyph glyph-name="p" unicode="p" horiz-adv-x="641" 
d="M624 372q1 -101 -43.5 -190t-124 -142.5t-173.5 -51.5q-57 0 -100 18l-50 -234h-188l159 749l193 41h4l-42 -199h8q43 103 94 148t118 45q145 0 145 -184zM439 362q0 108 -51 108q-42 0 -88 -79q-47 -80 -96 -287q-1 -43 18 -71t52 -28q47 0 85 57q39 60 59 142
q21 84 21 158z" />
    <glyph glyph-name="q" unicode="q" horiz-adv-x="642" 
d="M647 562h4l-168 -790h-188l87 409h-8q-43 -103 -94 -148t-118 -45q-145 0 -145 184q-1 101 43.5 190t124 142.5t173.5 51.5q102 0 170 -57zM437 440q1 43 -18 71t-52 28q-49 0 -86 -58q-37 -56 -58 -141q-21 -84 -21 -158q0 -108 51 -108q42 0 88 79q47 80 96 287z" />
    <glyph glyph-name="r" unicode="r" horiz-adv-x="427" 
d="M485 550l-75 -140q-20 16 -50 16q-32 0 -56 -27q-23 -26 -53 -118q-29 -89 -70 -281h-188l111 521l192 41h4l-42 -199h5q37 100 80.5 146.5t99.5 46.5q18 0 42 -6z" />
    <glyph glyph-name="s" unicode="s" horiz-adv-x="448" 
d="M-21 39l36 85q22 -53 72 -87.5t109 -34.5q43 0 70 21.5t27 56.5q0 33 -20.5 55t-69.5 49l-36 20q-44 24 -80 65q-35 43 -35 101q0 82 59.5 134t151.5 52q90 0 182 -49l-30 -74q-60 109 -157 109q-39 0 -65.5 -21.5t-26.5 -54.5q0 -32 20 -53t70 -50l36 -21
q114 -67 114 -166q0 -84 -60.5 -136t-156.5 -52q-61 0 -122 18q-63 19 -88 33z" />
    <glyph glyph-name="t" unicode="t" horiz-adv-x="395" 
d="M316 522l-84 -398q-5 -25 -5 -34q0 -34 33 -34q37 0 105 68l11 -10q-108 -126 -206 -126q-128 0 -128 105q0 26 4 41l82 388h-56l3 17l58 5l226 196h4l-42 -196h129l-17 -22h-117z" />
    <glyph glyph-name="u" unicode="u" horiz-adv-x="623" 
d="M628 562h4l-119 -562h-188l39 181h-6q-41 -105 -90 -149t-118 -44q-132 0 -132 127q0 26 8 66l72 340l192 41h4l-84 -392q-7 -32 -7 -51q0 -45 38 -45q25 0 52 29q68 72 143 418z" />
    <glyph glyph-name="v" unicode="v" horiz-adv-x="473" 
d="M457 544h84q-40 -55 -91 -132q-70 -109 -119 -187l-156 -249h-4l-115 568h188l66 -319l6 10q70 114 98 179q30 68 43 130z" />
    <glyph glyph-name="w" unicode="w" horiz-adv-x="710" 
d="M698 544h80q-54 -76 -89 -130l-117 -189l-153 -249h-4l-56 309l-192 -309h-4l-106 568h188l58 -314l194 314h4l55 -311q117 193 142 311z" />
    <glyph glyph-name="x" unicode="x" horiz-adv-x="460" 
d="M331 375l83 -161l-54 -256h-6l-149 287l-48 -56q-84 -97 -84 -166l1 -23h-142q45 32 96 79q49 46 115 122l53 62l-145 281h192l78 -151q55 62 74 92q21 30 27 59h83q-41 -32 -82 -72q-45 -43 -92 -97z" />
    <glyph glyph-name="y" unicode="y" horiz-adv-x="475" 
d="M455 544h84q-53 -74 -85 -124q-12 -19 -28.5 -45t-41.5 -66t-43 -69l-199 -321q-56 -90 -113 -121.5t-137 -31.5l27 86q30 -14 63 -14q41 0 79 22t62 62l39 62l-108 560h188l63 -329l20 33q104 167 130 296z" />
    <glyph glyph-name="z" unicode="z" horiz-adv-x="452" 
d="M494 544l-1 -4l-320 -523q119 3 217 43h3l-24 -60h-414l1 4l322 525q-124 -3 -211 -41h-3l23 56h407z" />
    <glyph glyph-name="braceleft" unicode="{" horiz-adv-x="315" 
d="M417 782l-3 -12q-74 0 -107.5 -36.5t-33.5 -112.5q0 -24 4 -67q3 -48 3 -61q0 -74 -62 -125.5t-145 -59.5q56 -11 97 -44q43 -33 43 -86q0 -35 -42 -116q-46 -79 -46 -127q0 -41 23.5 -65t69.5 -24l-3 -12q-120 0 -174.5 29t-54.5 92q0 18 7.5 40.5t16.5 41t32 62.5
q50 89 50 123q0 68 -69 80l2 12q51 7 83.5 45t32.5 89q0 17 -8 73q0 1 -1 5t-2 12t-2 15q-4 24 -4 50q1 45 14 77t35.5 52t60 31t79.5 15t104 4z" />
    <glyph glyph-name="bar" unicode="|" horiz-adv-x="145" 
d="M-11 -64l180 846h24l-180 -846h-24z" />
    <glyph glyph-name="braceright" unicode="}" horiz-adv-x="314" 
d="M307 314l-2 -12q-51 -7 -83.5 -45t-32.5 -89q0 -17 8 -73q0 -1 1 -5t2 -12t2 -15q4 -24 4 -50q-1 -45 -14 -77t-35.5 -52t-60 -31t-79.5 -15t-104 -4l3 12q74 0 107.5 36.5t33.5 112.5q0 24 -4 67q-3 48 -3 61q0 74 62 125.5t145 59.5q-55 10 -98 43q-42 35 -42 87
q0 35 42 116q46 79 46 127q0 41 -23.5 65t-69.5 24l3 12q120 0 174.5 -29t54.5 -92q0 -18 -7.5 -40.5t-16.5 -41t-32 -62.5q-50 -89 -50 -123q0 -68 69 -80z" />
    <glyph glyph-name="asciitilde" unicode="~" horiz-adv-x="508" 
d="M58 292l-12 3q24 77 49 106t81 29q47 0 131 -34q60 -28 97 -28q29 0 47 13t38 49l12 -3q-24 -77 -49 -106t-81 -29q-47 0 -131 34q-60 28 -97 28q-29 0 -47 -13t-38 -49z" />
    <glyph glyph-name="uni00A0" unicode="&#xa0;" horiz-adv-x="190" 
 />
    <glyph glyph-name="exclamdown" unicode="&#xa1;" horiz-adv-x="264" 
d="M185 542l92 -120l-132 -104l-92 120zM142 274l-11 -484h-202l195 484h18z" />
    <glyph glyph-name="cent" unicode="&#xa2;" horiz-adv-x="543" 
d="M478 130l11 -8q-109 -127 -226 -134l-27 -88h-20l26 88q-93 3 -152.5 63t-59.5 159q-2 90 43 171t122 129t162 46q30 0 57 -6l22 74h20l-24 -79q74 -21 119 -92l-63 -48q-17 53 -30 79.5t-32 40.5l-139 -457q22 -8 46 -8q79 0 145 70zM226 195q0 -85 44 -117l136 447
l3 10q-15 5 -27 5q-47 0 -83 -57q-35 -55 -54 -138q-19 -79 -19 -150z" />
    <glyph glyph-name="sterling" unicode="&#xa3;" horiz-adv-x="587" 
d="M286 481q0 -33 7 -107h167l-4 -18h-162q1 -6 1 -26q0 -62 -28 -100.5t-92 -71.5q43 -1 129 -22q80 -18 114 -18q40 0 62.5 14.5t44.5 48.5l16 25h10l-12 -38q-19 -58 -37 -93q-44 -87 -143 -87q-40 0 -154 32q-79 23 -105 23q-60 0 -106 -49l-10 38q77 43 114 93.5
t37 118.5q0 34 -12 112h-65l4 18h58q-9 61 -9 103q0 112 67.5 187.5t168.5 75.5q86 0 141 -49q58 -50 80 -106l-14 -8q-28 41 -64.5 66t-70.5 25q-65 0 -99 -54q-34 -53 -34 -133z" />
    <glyph glyph-name="currency" unicode="&#xa4;" horiz-adv-x="529" 
d="M407 215l71 -71l-14 -14l-71 71q-50 -44 -117 -44t-117 44l-71 -71l-14 14l71 71q-45 51 -45 117t45 117l-71 71l14 14l71 -71q50 44 117 44t117 -44l71 71l14 -14l-71 -71q45 -51 45 -117t-45 -117zM430 332q0 63 -45.5 109t-108.5 46t-108.5 -46t-45.5 -109t45.5 -109
t108.5 -46t108.5 46t45.5 109z" />
    <glyph glyph-name="yen" unicode="&#xa5;" horiz-adv-x="656" 
d="M515 431l-63 -89h99l-3 -18h-109l-6 -8l-19 -90h113l-4 -18h-112l-44 -208h-202l44 208h-95l4 18h94l20 95l-1 3h-93l4 18h84l-115 386h210l112 -378l65 92q118 166 144 286h91q-101 -132 -218 -297z" />
    <glyph glyph-name="brokenbar" unicode="&#xa6;" horiz-adv-x="145" 
d="M90 409l79 373h24l-79 -373h-24zM-11 -64l79 373h24l-79 -373h-24z" />
    <glyph glyph-name="section" unicode="&#xa7;" horiz-adv-x="519" 
d="M497 684l-17 -33q-29 32 -68.5 53.5t-77.5 21.5q-58 0 -95 -37.5t-37 -96.5q0 -31 13 -56q11 -20 34 -47l67 -64l30 -28q44 -40 83 -105q38 -62 38 -131q3 -102 -83.5 -188.5t-188.5 -84.5q-37 0 -86 17q-45 15 -76 40l17 32q29 -32 69.5 -53.5t80.5 -21.5q60 0 97 37
t37 97q0 29 -14 55q-15 28 -34 47q-15 17 -66 65l-30 28q-43 40 -83 103q-38 64 -38 133q-3 100 84 188t186 85q36 0 81.5 -16.5t76.5 -39.5zM173 568q0 68 51 124q-119 -82 -119 -199q0 -111 118 -222l30 -28q38 -36 56 -57q54 -60 54 -126q0 -69 -51 -124q119 82 119 199
q0 109 -117 221l-30 28q-34 33 -57 57q-54 60 -54 127z" />
    <glyph glyph-name="dieresis" unicode="&#xa8;" horiz-adv-x="600" 
d="M168 606l-76 100l110 86l76 -100zM398 606l-76 100l110 86l76 -100z" />
    <glyph glyph-name="copyright" unicode="&#xa9;" horiz-adv-x="826" 
d="M57 364q-3 153 109.5 266t265.5 110q100 2 187.5 -49.5t138.5 -139t49 -187.5q2 -100 -49 -187.5t-138.5 -139t-187.5 -49.5q-153 -3 -265.5 110t-109.5 266zM785 364q3 146 -103 253.5t-250 104.5q-144 3 -250 -104.5t-103 -253.5q-3 -146 103 -253.5t250 -104.5
q144 -3 250 104.5t103 253.5zM212 361q0 101 62.5 166t157.5 65q110 0 170 -85l-34 -18q-56 89 -141 89q-71 0 -118 -58t-47 -151t48.5 -150t120.5 -57q46 0 91 23.5t72 63.5l12 -7q-72 -106 -187 -106q-89 0 -148 63t-59 162z" />
    <glyph glyph-name="ordfeminine" unicode="&#xaa;" horiz-adv-x="427" 
d="M404 438q0 -19 23 -19q3 0 13 2l-1 -4q-38 -23 -87 -23q-61 0 -61 50q0 12 3 29l8 39h-4q-49 -118 -129 -118q-89 0 -89 112q0 96 60 165t148 69q63 0 104 -35l73 39h2l-59 -278q-4 -20 -4 -28zM336 671q0 25 -11.5 42t-31.5 17q-27 2 -51 -34.5t-36.5 -87.5t-12.5 -96
q0 -66 31 -66q26 0 54 49q30 53 58 176z" />
    <glyph glyph-name="guillemotleft" unicode="&#xab;" horiz-adv-x="508" 
d="M317 524l-164 -261l56 -243h-12l-178 252l286 252h12zM527 524l-164 -261l56 -243h-12l-178 252l286 252h12z" />
    <glyph glyph-name="logicalnot" unicode="&#xac;" horiz-adv-x="508" 
d="M51 374h408v-220h-22v200h-386v20z" />
    <glyph glyph-name="uni00AD" unicode="&#xad;" horiz-adv-x="282" 
d="M33 271l8 38h215l-8 -38h-215z" />
    <glyph glyph-name="registered" unicode="&#xae;" horiz-adv-x="622" 
d="M624 469q2 -109 -80 -190.5t-191 -79.5q-110 -2 -192 79.5t-80 190.5q-2 108 80 190.5t192 80.5q109 2 191 -80.5t80 -190.5zM602 471q2 101 -73.5 177t-175.5 74q-101 2 -176.5 -74t-73.5 -177q-2 -101 73.5 -177.5t176.5 -74.5q100 -2 175.5 74.5t73.5 177.5zM512 309
v-6q-10 -2 -18 -2q-25 0 -41 11t-32 34l-60 93q-5 10 -24 10h-40v-147h-29v331h63q129 0 129 -86q0 -59 -77 -90l67 -99q34 -49 62 -49zM428 544q0 36 -25 56t-72 20h-34v-156q17 -3 45 -3q37 0 61.5 23.5t24.5 59.5z" />
    <glyph glyph-name="overscore" unicode="&#xaf;" horiz-adv-x="600" 
d="M136 654l12 52h315l-12 -52h-315z" />
    <glyph glyph-name="degree" unicode="&#xb0;" horiz-adv-x="324" 
d="M92 613q0 58 41 98.5t99 40.5t99 -40.5t41 -98.5t-41 -98.5t-99 -40.5t-99 40.5t-41 98.5zM350 613q0 50 -35 85q-35 36 -83 36q-50 0 -84 -36q-34 -34 -34 -85t34 -86q35 -35 84 -35q48 0 83 35q35 37 35 86z" />
    <glyph glyph-name="plusminus" unicode="&#xb1;" horiz-adv-x="508" 
d="M250 374h193v-20h-193v-200h-22v200h-193v20h193v200h22v-200zM35 0v20h408v-20h-408z" />
    <glyph glyph-name="uni00B2" unicode="&#xb2;" horiz-adv-x="358" 
d="M117 343h32q119 0 204 13l-45 -96h-296l1 3l42 38q60 55 103 100q46 47 77 100q34 55 34 108q0 37 -20.5 56.5t-54.5 19.5q-42 0 -89 -47l-8 4q58 90 162 90q58 0 96.5 -31.5t38.5 -84.5q0 -52 -39 -99q-35 -43 -92 -83q-44 -30 -146 -91z" />
    <glyph glyph-name="uni00B3" unicode="&#xb3;" horiz-adv-x="359" 
d="M31 289l23 58q34 -81 102 -81q44 0 70.5 29t26.5 77q0 47 -26.5 81.5t-73.5 49.5l-1 7l13 4q43 13 71.5 43.5t28.5 66.5q0 27 -18 42.5t-49 15.5q-46 0 -92 -42l-7 4q67 88 164 88q53 0 87.5 -25t34.5 -63q0 -41 -37 -72q-36 -31 -83 -36v-2q41 -12 68 -45t27 -77
q0 -68 -57 -112t-145 -44q-60 0 -127 33z" />
    <glyph glyph-name="acute" unicode="&#xb4;" horiz-adv-x="600" 
d="M261 606l-7 5l96 201h164z" />
    <glyph glyph-name="uni00B5" unicode="&#xb5;" horiz-adv-x="642" 
d="M640 562h4l-119 -562h-188l39 181h-6q-41 -105 -90 -149t-118 -44q-19 0 -24 1q17 -76 17 -122q0 -21 -3 -37l-9 -42h-188l83 393l72 340l192 41h4l-84 -392q-7 -32 -7 -51q0 -45 38 -45q25 0 52 29q68 72 143 418z" />
    <glyph glyph-name="paragraph" unicode="&#xb6;" horiz-adv-x="459" 
d="M88 566q0 97 68.5 156.5t178.5 59.5h37l-179 -846h-24l93 440q-79 5 -126.5 56.5t-47.5 133.5zM472 782h24l-173 -817q-17 -78 -67 -129t-122 -64l3 17q62 13 104.5 59t57.5 117z" />
    <glyph glyph-name="middot" unicode="&#xb7;" horiz-adv-x="247" 
d="M116 222l-92 120l132 104l92 -120z" />
    <glyph glyph-name="cedilla" unicode="&#xb8;" horiz-adv-x="600" 
d="M456 -136q0 -40 -38.5 -71t-95.5 -31q-33 0 -69 10q-36 9 -53 26l5 9q9 -5 35.5 -10.5t44.5 -5.5q29 0 47 14t18 35q0 40 -72 40h-26l79 120h20l-28 -42q62 -4 97.5 -30t35.5 -64z" />
    <glyph glyph-name="uni00B9" unicode="&#xb9;" horiz-adv-x="227" 
d="M273 736h3l-100 -472h-112l79 374q-30 -8 -52 -11l2 8q35 7 89 37q48 26 91 64z" />
    <glyph glyph-name="ordmasculine" unicode="&#xba;" horiz-adv-x="421" 
d="M81 530q0 91 58 150.5t148 59.5q78 0 125 -41.5t47 -112.5q0 -90 -58.5 -150t-148.5 -60q-78 0 -124.5 42t-46.5 112zM339 652q0 75 -43 75q-28 2 -51 -42.5t-34 -105t-10 -115.5q0 -75 43 -75q28 -2 51 42.5t34 105t10 115.5z" />
    <glyph glyph-name="guillemotright" unicode="&#xbb;" horiz-adv-x="508" 
d="M100 524l178 -252l-286 -252h-12l164 261l-56 243h12zM310 524l178 -252l-286 -252h-12l164 261l-56 243h12z" />
    <glyph glyph-name="onequarter" unicode="&#xbc;" horiz-adv-x="779" 
d="M287 736h3l-100 -472h-112l79 374q-30 -8 -52 -11l2 8q35 7 89 37q48 26 91 64zM18 0l594 728h25l-594 -728h-25zM742 468l-63 -296h58l-34 -68h-38l-22 -104h-115l22 104h-153l-10 54l320 310h35zM421 172h143l38 176z" />
    <glyph glyph-name="onehalf" unicode="&#xbd;" horiz-adv-x="774" 
d="M283 736h3l-100 -472h-112l79 374q-30 -8 -52 -11l2 8q35 7 89 37q48 26 91 64zM14 0l594 728h25l-594 -728h-25zM476 83h32q119 0 204 13l-45 -96h-296l1 3l42 38q60 55 103 100q46 47 77 100q34 55 34 108q0 37 -20.5 56.5t-54.5 19.5q-42 0 -89 -47l-8 4q58 90 162 90
q58 0 96.5 -31.5t38.5 -84.5q0 -52 -39 -99q-35 -43 -92 -83q-44 -30 -146 -91z" />
    <glyph glyph-name="threequarters" unicode="&#xbe;" horiz-adv-x="854" 
d="M39 289l23 58q34 -81 102 -81q44 0 70.5 29t26.5 77q0 47 -26.5 81.5t-73.5 49.5l-1 7l13 4q43 13 71.5 43.5t28.5 66.5q0 27 -18 42.5t-49 15.5q-46 0 -92 -42l-7 4q67 88 164 88q53 0 87.5 -25t34.5 -63q0 -41 -37 -72q-36 -31 -83 -36v-2q41 -12 68 -45t27 -77
q0 -68 -57 -112t-145 -44q-60 0 -127 33zM93 0l594 728h25l-594 -728h-25zM817 468l-63 -296h58l-34 -68h-38l-22 -104h-115l22 104h-153l-10 54l320 310h35zM496 172h143l38 176z" />
    <glyph glyph-name="questiondown" unicode="&#xbf;" horiz-adv-x="511" 
d="M319 542l92 -120l-132 -104l-92 120zM326 216q0 -26 -16 -48t-56 -58q-53 -46 -76 -82t-23 -84t30.5 -75.5t83.5 -27.5q37 0 67.5 14t68.5 44l10 -9q-30 -36 -94 -74q-62 -38 -152 -38q-98 0 -154 43.5t-56 114.5q0 59 33 100q30 38 70.5 60t117.5 50q65 23 90.5 39.5
t25.5 39.5q0 15 -10 25t-28 10q-10 0 -26 -3v14q13 3 29 3q28 0 46.5 -16t18.5 -42z" />
    <glyph glyph-name="Agrave" unicode="&#xc0;" horiz-adv-x="625" 
d="M368 0l-47 232h-204q-44 -80 -61 -133q-16 -51 -16 -99h-112q57 74 102 140q37 52 118 182l270 430h4l153 -752h-207zM128 250h190l-47 232l-105 -168zM449 784l-178 196h178l8 -191z" />
    <glyph glyph-name="Aacute" unicode="&#xc1;" horiz-adv-x="625" 
d="M368 0l-47 232h-204q-44 -80 -61 -133q-16 -51 -16 -99h-112q57 74 102 140q37 52 118 182l270 430h4l153 -752h-207zM128 250h190l-47 232l-105 -168zM406 784l-7 5l90 191h178z" />
    <glyph glyph-name="Acircumflex" unicode="&#xc2;" horiz-adv-x="625" 
d="M368 0l-47 232h-204q-44 -80 -61 -133q-16 -51 -16 -99h-112q57 74 102 140q37 52 118 182l270 430h4l153 -752h-207zM128 250h190l-47 232l-105 -168zM609 789l-6 -5l-153 75l-197 -75l-6 5l221 191h6z" />
    <glyph glyph-name="Atilde" unicode="&#xc3;" horiz-adv-x="625" 
d="M368 0l-47 232h-204q-44 -80 -61 -133q-16 -51 -16 -99h-112q57 74 102 140q37 52 118 182l270 430h4l153 -752h-207zM128 250h190l-47 232l-105 -168zM258 796l-11 3q19 73 54 114t80 41q38 0 93 -35q45 -27 68 -27q59 0 92 62l11 -3q-19 -72 -54.5 -113.5t-80.5 -41.5
q-37 0 -93 35q-47 27 -67 27q-59 0 -92 -62z" />
    <glyph glyph-name="Adieresis" unicode="&#xc4;" horiz-adv-x="625" 
d="M368 0l-47 232h-204q-44 -80 -61 -133q-16 -51 -16 -99h-112q57 74 102 140q37 52 118 182l270 430h4l153 -752h-207zM128 250h190l-47 232l-105 -168zM315 784l-76 100l110 86l76 -100zM545 784l-76 100l110 86l76 -100z" />
    <glyph glyph-name="Aring" unicode="&#xc5;" horiz-adv-x="625" 
d="M368 0l-47 232h-204q-44 -80 -61 -133q-16 -51 -16 -99h-112q57 74 102 140q37 52 118 182l270 430h4l153 -752h-207zM128 250h190l-47 232l-105 -168zM317 893q0 50 36.5 79.5t96.5 29.5t96.5 -29.5t36.5 -79.5t-36.5 -79.5t-96.5 -29.5t-96.5 29.5t-36.5 79.5zM513 893
q0 44 -16.5 69.5t-46.5 25.5t-46.5 -25.5t-16.5 -69.5t16.5 -69.5t46.5 -25.5t46.5 25.5t16.5 69.5z" />
    <glyph glyph-name="AE" unicode="&#xc6;" horiz-adv-x="852" 
d="M897 728l-10 -114h-2q-84 96 -217 96h-25l-68 -322h10q155 0 192 48h2l-26 -122h-2q-19 56 -170 56h-10l-74 -352h30q138 0 272 106h2l-50 -124h-460l55 262h-206q-58 -94 -74 -149q-17 -60 -16 -113h-118l498 728h467zM151 280h199l90 423l-266 -389z" />
    <glyph glyph-name="Ccedilla" unicode="&#xc7;" horiz-adv-x="668" 
d="M629 150l12 -7q-53 -71 -126 -111.5t-155 -43.5l-20 -30q62 -4 97.5 -30t35.5 -64q0 -40 -38.5 -71t-95.5 -31q-33 0 -69 10q-36 9 -53 26l5 9q9 -5 35.5 -10.5t44.5 -5.5q29 0 47 14t18 35q0 40 -72 40h-26l71 108q-130 3 -211 91.5t-81 223.5q-1 115 51.5 216.5
t147.5 162t207 58.5q154 0 256 -136l-95 -69q-11 78 -47 132q-37 57 -98 57q-62 0 -110 -71q-46 -70 -72 -176q-25 -103 -25 -201q0 -216 169 -216q120 0 197 90z" />
    <glyph glyph-name="Egrave" unicode="&#xc8;" horiz-adv-x="567" 
d="M160 728h452l-10 -114h-2q-84 96 -217 96h-25l-68 -322h10q154 0 192 48h2l-26 -122h-2q-19 56 -170 56h-10l-74 -352h30q138 0 272 106h2l-50 -124h-460zM428 784l-178 196h178l8 -191z" />
    <glyph glyph-name="Eacute" unicode="&#xc9;" horiz-adv-x="567" 
d="M160 728h452l-10 -114h-2q-84 96 -217 96h-25l-68 -322h10q154 0 192 48h2l-26 -122h-2q-19 56 -170 56h-10l-74 -352h30q138 0 272 106h2l-50 -124h-460zM385 784l-7 5l90 191h178z" />
    <glyph glyph-name="Ecircumflex" unicode="&#xca;" horiz-adv-x="567" 
d="M160 728h452l-10 -114h-2q-84 96 -217 96h-25l-68 -322h10q154 0 192 48h2l-26 -122h-2q-19 56 -170 56h-10l-74 -352h30q138 0 272 106h2l-50 -124h-460zM588 789l-6 -5l-153 75l-197 -75l-6 5l221 191h6z" />
    <glyph glyph-name="Edieresis" unicode="&#xcb;" horiz-adv-x="567" 
d="M160 728h452l-10 -114h-2q-84 96 -217 96h-25l-68 -322h10q154 0 192 48h2l-26 -122h-2q-19 56 -170 56h-10l-74 -352h30q138 0 272 106h2l-50 -124h-460zM294 784l-76 100l110 86l76 -100zM524 784l-76 100l110 86l76 -100z" />
    <glyph glyph-name="Igrave" unicode="&#xcc;" horiz-adv-x="329" 
d="M6 0l154 728h202l-154 -728h-202zM295 784l-178 196h178l8 -191z" />
    <glyph glyph-name="Iacute" unicode="&#xcd;" horiz-adv-x="329" 
d="M6 0l154 728h202l-154 -728h-202zM252 784l-7 5l90 191h178z" />
    <glyph glyph-name="Icircumflex" unicode="&#xce;" horiz-adv-x="329" 
d="M6 0l154 728h202l-154 -728h-202zM455 789l-6 -5l-153 75l-197 -75l-6 5l221 191h6z" />
    <glyph glyph-name="Idieresis" unicode="&#xcf;" horiz-adv-x="329" 
d="M6 0l154 728h202l-154 -728h-202zM161 784l-76 100l110 86l76 -100zM391 784l-76 100l110 86l76 -100z" />
    <glyph glyph-name="Eth" unicode="&#xd0;" horiz-adv-x="791" 
d="M785 446q3 -202 -144.5 -325t-374.5 -121h-257l78 371h-58l3 14h58l73 343h274q159 0 253.5 -74t94.5 -208zM576 509q0 97 -38 150t-110 53h-66l-70 -327h117l-3 -14h-117l-73 -346q19 -9 70 -9q88 0 154 75q67 76 101 189q35 117 35 229z" />
    <glyph glyph-name="Ntilde" unicode="&#xd1;" horiz-adv-x="656" 
d="M622 728h100q-68 -134 -108 -318l-90 -422h-16l-328 610l-59 -280q-30 -140 -30 -249q0 -36 3 -69h-100q66 127 107 318l65 307l-54 100l1 3h213l240 -450l28 132q31 145 31 253q0 35 -3 65zM272 796l-11 3q19 73 54 114t80 41q38 0 93 -35q45 -27 68 -27q59 0 92 62
l11 -3q-19 -72 -54.5 -113.5t-80.5 -41.5q-37 0 -93 35q-47 27 -67 27q-59 0 -92 -62z" />
    <glyph glyph-name="Ograve" unicode="&#xd2;" horiz-adv-x="824" 
d="M48 304q-3 181 119.5 310t300.5 126q155 0 250.5 -85.5t95.5 -230.5q3 -181 -119.5 -310t-300.5 -126q-155 0 -250.5 85.5t-95.5 230.5zM608 519q0 205 -127 205q-70 0 -123 -80q-51 -79 -78 -200q-26 -122 -26 -234q0 -206 129 -206q71 0 122 80q52 82 77 200
q26 122 26 235zM515 784l-178 196h178l8 -191z" />
    <glyph glyph-name="Oacute" unicode="&#xd3;" horiz-adv-x="824" 
d="M48 304q-3 181 119.5 310t300.5 126q155 0 250.5 -85.5t95.5 -230.5q3 -181 -119.5 -310t-300.5 -126q-155 0 -250.5 85.5t-95.5 230.5zM608 519q0 205 -127 205q-70 0 -123 -80q-51 -79 -78 -200q-26 -122 -26 -234q0 -206 129 -206q71 0 122 80q52 82 77 200
q26 122 26 235zM472 784l-7 5l90 191h178z" />
    <glyph glyph-name="Ocircumflex" unicode="&#xd4;" horiz-adv-x="824" 
d="M48 304q-3 181 119.5 310t300.5 126q155 0 250.5 -85.5t95.5 -230.5q3 -181 -119.5 -310t-300.5 -126q-155 0 -250.5 85.5t-95.5 230.5zM608 519q0 205 -127 205q-70 0 -123 -80q-51 -79 -78 -200q-26 -122 -26 -234q0 -206 129 -206q71 0 122 80q52 82 77 200
q26 122 26 235zM675 789l-6 -5l-153 75l-197 -75l-6 5l221 191h6z" />
    <glyph glyph-name="Otilde" unicode="&#xd5;" horiz-adv-x="824" 
d="M48 304q-3 181 119.5 310t300.5 126q155 0 250.5 -85.5t95.5 -230.5q3 -181 -119.5 -310t-300.5 -126q-155 0 -250.5 85.5t-95.5 230.5zM608 519q0 205 -127 205q-70 0 -123 -80q-51 -79 -78 -200q-26 -122 -26 -234q0 -206 129 -206q71 0 122 80q52 82 77 200
q26 122 26 235zM324 796l-11 3q19 73 54 114t80 41q38 0 93 -35q45 -27 68 -27q59 0 92 62l11 -3q-19 -72 -54.5 -113.5t-80.5 -41.5q-37 0 -93 35q-47 27 -67 27q-59 0 -92 -62z" />
    <glyph glyph-name="Odieresis" unicode="&#xd6;" horiz-adv-x="824" 
d="M48 304q-3 181 119.5 310t300.5 126q155 0 250.5 -85.5t95.5 -230.5q3 -181 -119.5 -310t-300.5 -126q-155 0 -250.5 85.5t-95.5 230.5zM608 519q0 205 -127 205q-70 0 -123 -80q-51 -79 -78 -200q-26 -122 -26 -234q0 -206 129 -206q71 0 122 80q52 82 77 200
q26 122 26 235zM381 784l-76 100l110 86l76 -100zM611 784l-76 100l110 86l76 -100z" />
    <glyph glyph-name="multiply" unicode="&#xd7;" horiz-adv-x="508" 
d="M455 533l-170 -170l169 -169l-15 -15l-169 169l-169 -169l-15 15l169 169l-170 170l15 15l170 -170l170 170z" />
    <glyph glyph-name="Oslash" unicode="&#xd8;" horiz-adv-x="824" 
d="M814 424q3 -181 -119.5 -310t-300.5 -126q-149 0 -241 77l-112 -116l-16 12l113 117q-90 87 -90 226q-3 181 119.5 310t300.5 126q149 0 241 -77l112 116l16 -12l-113 -117q90 -87 90 -226zM254 210v-14l353 363q-13 165 -126 165q-70 0 -123 -80q-51 -79 -78 -200
q-26 -122 -26 -234zM608 519v13l-353 -363q13 -165 128 -165q71 0 122 80q52 82 77 200q26 122 26 235z" />
    <glyph glyph-name="Ugrave" unicode="&#xd9;" horiz-adv-x="680" 
d="M51 208q0 45 10 89l92 431h202l-96 -449q-11 -55 -11 -95q0 -75 35 -116.5t103 -41.5q72 0 125.5 61.5t77.5 179.5l30 143q31 146 31 255q0 33 -3 63h100q-71 -138 -108 -318l-29 -138q-30 -146 -99.5 -215t-191.5 -69q-131 0 -199.5 56t-68.5 164zM498 784l-178 196h178
l8 -191z" />
    <glyph glyph-name="Uacute" unicode="&#xda;" horiz-adv-x="680" 
d="M51 208q0 45 10 89l92 431h202l-96 -449q-11 -55 -11 -95q0 -75 35 -116.5t103 -41.5q72 0 125.5 61.5t77.5 179.5l30 143q31 146 31 255q0 33 -3 63h100q-71 -138 -108 -318l-29 -138q-30 -146 -99.5 -215t-191.5 -69q-131 0 -199.5 56t-68.5 164zM455 784l-7 5l90 191
h178z" />
    <glyph glyph-name="Ucircumflex" unicode="&#xdb;" horiz-adv-x="680" 
d="M51 208q0 45 10 89l92 431h202l-96 -449q-11 -55 -11 -95q0 -75 35 -116.5t103 -41.5q72 0 125.5 61.5t77.5 179.5l30 143q31 146 31 255q0 33 -3 63h100q-71 -138 -108 -318l-29 -138q-30 -146 -99.5 -215t-191.5 -69q-131 0 -199.5 56t-68.5 164zM658 789l-6 -5
l-153 75l-197 -75l-6 5l221 191h6z" />
    <glyph glyph-name="Udieresis" unicode="&#xdc;" horiz-adv-x="680" 
d="M51 208q0 45 10 89l92 431h202l-96 -449q-11 -55 -11 -95q0 -75 35 -116.5t103 -41.5q72 0 125.5 61.5t77.5 179.5l30 143q31 146 31 255q0 33 -3 63h100q-71 -138 -108 -318l-29 -138q-30 -146 -99.5 -215t-191.5 -69q-131 0 -199.5 56t-68.5 164zM364 784l-76 100
l110 86l76 -100zM594 784l-76 100l110 86l76 -100z" />
    <glyph glyph-name="Yacute" unicode="&#xdd;" horiz-adv-x="626" 
d="M501 431l-82 -115l-66 -316h-202l67 321l-121 407h210l112 -378l65 92q118 166 144 286h91q-101 -132 -218 -297zM434 784l-7 5l90 191h178z" />
    <glyph glyph-name="Thorn" unicode="&#xde;" horiz-adv-x="655" 
d="M658 432q0 -115 -92 -186t-233 -71q-45 0 -87 6l-39 -181h-201l154 728h202l-26 -122h79q116 0 179.5 -47t63.5 -127zM456 474q0 116 -82 116h-41l-84 -391q19 -8 43 -8q49 -2 88 42.5t58 109.5t18 131z" />
    <glyph glyph-name="germandbls" unicode="&#xdf;" horiz-adv-x="688" 
d="M-176 -228l-1 12q61 16 109 80.5t67 155.5l110 527q28 134 109.5 200.5t202.5 66.5q98 0 164.5 -40t66.5 -105q-3 -48 -31.5 -74t-95.5 -58q-50 -23 -69 -38t-19 -37q0 -37 80 -89l33 -22q47 -32 72.5 -69t25.5 -99q0 -87 -61 -141t-161 -54q-48 0 -110.5 13.5
t-74.5 22.5l39 87q12 -45 56 -77q46 -32 99 -32q45 0 72.5 23t27.5 62q0 33 -20 57.5t-67 55.5l-33 22q-43 29 -64 60t-21 74q0 41 18 70t62 72q25 24 52 55q46 57 46 136q0 111 -79 111q-45 0 -69.5 -36t-38.5 -104l-130 -620q-16 -81 -75.5 -140.5t-133 -88.5t-158.5 -39z
" />
    <glyph glyph-name="agrave" unicode="&#xe0;" horiz-adv-x="662" 
d="M547 61q0 -31 39 -31q4 0 20 2l-1 -6q-59 -38 -142 -38q-101 0 -101 82q0 22 6 47l14 64h-8q-43 -103 -94 -148t-118 -45q-145 0 -145 184q-1 101 43.5 190t124 142.5t173.5 51.5q102 0 170 -57l119 63h4l-97 -456q-7 -29 -7 -45zM437 440q1 43 -18 71t-52 28
q-49 0 -86 -58q-37 -56 -58 -141q-21 -84 -21 -158q0 -108 51 -108q42 0 88 79q47 80 96 287zM393 606l-166 206h164l10 -201z" />
    <glyph glyph-name="aacute" unicode="&#xe1;" horiz-adv-x="662" 
d="M547 61q0 -31 39 -31q4 0 20 2l-1 -6q-59 -38 -142 -38q-101 0 -101 82q0 22 6 47l14 64h-8q-43 -103 -94 -148t-118 -45q-145 0 -145 184q-1 101 43.5 190t124 142.5t173.5 51.5q102 0 170 -57l119 63h4l-97 -456q-7 -29 -7 -45zM437 440q1 43 -18 71t-52 28
q-49 0 -86 -58q-37 -56 -58 -141q-21 -84 -21 -158q0 -108 51 -108q42 0 88 79q47 80 96 287zM350 606l-7 5l96 201h164z" />
    <glyph glyph-name="acircumflex" unicode="&#xe2;" horiz-adv-x="662" 
d="M547 61q0 -31 39 -31q4 0 20 2l-1 -6q-59 -38 -142 -38q-101 0 -101 82q0 22 6 47l14 64h-8q-43 -103 -94 -148t-118 -45q-145 0 -145 184q-1 101 43.5 190t124 142.5t173.5 51.5q102 0 170 -57l119 63h4l-97 -456q-7 -29 -7 -45zM437 440q1 43 -18 71t-52 28
q-49 0 -86 -58q-37 -56 -58 -141q-21 -84 -21 -158q0 -108 51 -108q42 0 88 79q47 80 96 287zM553 611l-6 -5l-153 84l-197 -84l-6 5l221 201h6z" />
    <glyph glyph-name="atilde" unicode="&#xe3;" horiz-adv-x="662" 
d="M547 61q0 -31 39 -31q4 0 20 2l-1 -6q-59 -38 -142 -38q-101 0 -101 82q0 22 6 47l14 64h-8q-43 -103 -94 -148t-118 -45q-145 0 -145 184q-1 101 43.5 190t124 142.5t173.5 51.5q102 0 170 -57l119 63h4l-97 -456q-7 -29 -7 -45zM437 440q1 43 -18 71t-52 28
q-49 0 -86 -58q-37 -56 -58 -141q-21 -84 -21 -158q0 -108 51 -108q42 0 88 79q47 80 96 287zM203 618l-11 3q19 73 54 114t80 41q38 0 93 -35q45 -27 68 -27q59 0 92 62l11 -3q-19 -72 -54.5 -113.5t-80.5 -41.5q-37 0 -93 35q-47 27 -67 27q-59 0 -92 -62z" />
    <glyph glyph-name="adieresis" unicode="&#xe4;" horiz-adv-x="662" 
d="M547 61q0 -31 39 -31q4 0 20 2l-1 -6q-59 -38 -142 -38q-101 0 -101 82q0 22 6 47l14 64h-8q-43 -103 -94 -148t-118 -45q-145 0 -145 184q-1 101 43.5 190t124 142.5t173.5 51.5q102 0 170 -57l119 63h4l-97 -456q-7 -29 -7 -45zM437 440q1 43 -18 71t-52 28
q-49 0 -86 -58q-37 -56 -58 -141q-21 -84 -21 -158q0 -108 51 -108q42 0 88 79q47 80 96 287zM259 606l-76 100l110 86l76 -100zM489 606l-76 100l110 86l76 -100z" />
    <glyph glyph-name="aring" unicode="&#xe5;" horiz-adv-x="662" 
d="M547 61q0 -31 39 -31q4 0 20 2l-1 -6q-59 -38 -142 -38q-101 0 -101 82q0 22 6 47l14 64h-8q-43 -103 -94 -148t-118 -45q-145 0 -145 184q-1 101 43.5 190t124 142.5t173.5 51.5q102 0 170 -57l119 63h4l-97 -456q-7 -29 -7 -45zM437 440q1 43 -18 71t-52 28
q-49 0 -86 -58q-37 -56 -58 -141q-21 -84 -21 -158q0 -108 51 -108q42 0 88 79q47 80 96 287zM261 715q0 50 36.5 79.5t96.5 29.5t96.5 -29.5t36.5 -79.5t-36.5 -79.5t-96.5 -29.5t-96.5 29.5t-36.5 79.5zM457 715q0 44 -16.5 69.5t-46.5 25.5t-46.5 -25.5t-16.5 -69.5
t16.5 -69.5t46.5 -25.5t46.5 25.5t16.5 69.5z" />
    <glyph glyph-name="ae" unicode="&#xe6;" horiz-adv-x="889" 
d="M840 142l10 -7q-122 -147 -269 -147q-81 0 -136 42.5t-72 120.5h-12q-41 -87 -89 -125t-110 -38q-145 0 -145 184q-1 101 43.5 190t124 142.5t173.5 51.5q98 0 163 -51q81 51 182 51q84 0 135 -32t51 -86q0 -68 -84.5 -120t-245.5 -82v-22q0 -154 110 -154q89 0 171 82z
M560 252q91 27 143.5 87.5t52.5 136.5q0 64 -45 64q-42 2 -76 -44t-52 -110.5t-23 -133.5zM367 208v8q0 114 66 205l4 19q1 43 -18 71t-52 28q-49 0 -86 -58q-37 -56 -58 -141q-21 -84 -21 -158q0 -108 51 -108q58 0 114 134z" />
    <glyph glyph-name="ccedilla" unicode="&#xe7;" horiz-adv-x="518" 
d="M468 130l11 -8q-112 -132 -238 -134l-20 -30q62 -4 97.5 -30t35.5 -64q0 -40 -38.5 -71t-95.5 -31q-33 0 -69 10q-36 9 -53 26l5 9q9 -5 35.5 -10.5t44.5 -5.5q29 0 47 14t18 35q0 40 -72 40h-26l71 109q-89 6 -145 65.5t-56 155.5q-2 90 43 171t122 129t162 46
q129 0 194 -103l-63 -48q-23 73 -45.5 104t-60.5 31q-47 0 -83 -57q-35 -55 -54 -138q-19 -79 -19 -150q0 -135 107 -135q79 0 145 70z" />
    <glyph glyph-name="egrave" unicode="&#xe8;" horiz-adv-x="544" 
d="M495 142l10 -7q-121 -147 -269 -147q-98 0 -156 61t-58 167q-2 138 96 240.5t240 99.5q84 0 135 -32t51 -86q0 -68 -84.5 -120t-245.5 -82v-22q0 -154 110 -154q89 0 171 82zM215 252q91 27 143.5 87.5t52.5 136.5q0 64 -45 64q-42 2 -76 -44t-52 -110.5t-23 -133.5z
M403 606l-166 206h164l10 -201z" />
    <glyph glyph-name="eacute" unicode="&#xe9;" horiz-adv-x="544" 
d="M495 142l10 -7q-121 -147 -269 -147q-98 0 -156 61t-58 167q-2 138 96 240.5t240 99.5q84 0 135 -32t51 -86q0 -68 -84.5 -120t-245.5 -82v-22q0 -154 110 -154q89 0 171 82zM215 252q91 27 143.5 87.5t52.5 136.5q0 64 -45 64q-42 2 -76 -44t-52 -110.5t-23 -133.5z
M360 606l-7 5l96 201h164z" />
    <glyph glyph-name="ecircumflex" unicode="&#xea;" horiz-adv-x="544" 
d="M495 142l10 -7q-121 -147 -269 -147q-98 0 -156 61t-58 167q-2 138 96 240.5t240 99.5q84 0 135 -32t51 -86q0 -68 -84.5 -120t-245.5 -82v-22q0 -154 110 -154q89 0 171 82zM215 252q91 27 143.5 87.5t52.5 136.5q0 64 -45 64q-42 2 -76 -44t-52 -110.5t-23 -133.5z
M563 611l-6 -5l-153 84l-197 -84l-6 5l221 201h6z" />
    <glyph glyph-name="edieresis" unicode="&#xeb;" horiz-adv-x="544" 
d="M495 142l10 -7q-121 -147 -269 -147q-98 0 -156 61t-58 167q-2 138 96 240.5t240 99.5q84 0 135 -32t51 -86q0 -68 -84.5 -120t-245.5 -82v-22q0 -154 110 -154q89 0 171 82zM215 252q91 27 143.5 87.5t52.5 136.5q0 64 -45 64q-42 2 -76 -44t-52 -110.5t-23 -133.5z
M269 606l-76 100l110 86l76 -100zM499 606l-76 100l110 86l76 -100z" />
    <glyph glyph-name="igrave" unicode="&#xec;" horiz-adv-x="291" 
d="M-7 0l111 521l192 41h4l-119 -562h-188zM237 606l-166 206h164l10 -201z" />
    <glyph glyph-name="iacute" unicode="&#xed;" horiz-adv-x="291" 
d="M-7 0l111 521l192 41h4l-119 -562h-188zM194 606l-7 5l96 201h164z" />
    <glyph glyph-name="icircumflex" unicode="&#xee;" horiz-adv-x="291" 
d="M-7 0l111 521l192 41h4l-119 -562h-188zM397 611l-6 -5l-153 84l-197 -84l-6 5l221 201h6z" />
    <glyph glyph-name="idieresis" unicode="&#xef;" horiz-adv-x="291" 
d="M-7 0l111 521l192 41h4l-119 -562h-188zM103 606l-76 100l110 86l76 -100zM333 606l-76 100l110 86l76 -100z" />
    <glyph glyph-name="eth" unicode="&#xf0;" horiz-adv-x="635" 
d="M613 348q2 -152 -93 -257.5t-237 -102.5q-114 0 -187.5 64.5t-73.5 169.5q-2 121 88 208.5t208 85.5q54 0 95 -21q-15 81 -52 139l-135 -58l-5 17l129 55q-40 54 -105 84l9 15q100 -19 172 -66l149 64l5 -17l-136 -58q81 -56 125 -140t44 -182zM421 391q0 49 -4 78
q-41 28 -73 28q-57 4 -95.5 -117.5t-37.5 -243.5q0 -131 68 -131q45 0 77 62q32 60 49 152q16 89 16 172z" />
    <glyph glyph-name="ntilde" unicode="&#xf1;" horiz-adv-x="625" 
d="M604 429q0 -26 -8 -66l-77 -363h-188l80 374q7 31 7 52q0 44 -37 44q-25 0 -53 -30q-70 -75 -147 -440h-188l111 521l192 41h4l-42 -199h8q41 105 89.5 149t116.5 44q132 0 132 -127zM217 618l-11 3q19 73 54 114t80 41q38 0 93 -35q45 -27 68 -27q59 0 92 62l11 -3
q-19 -72 -54.5 -113.5t-80.5 -41.5q-37 0 -93 35q-47 27 -67 27q-59 0 -92 -62z" />
    <glyph glyph-name="ograve" unicode="&#xf2;" horiz-adv-x="629" 
d="M25 229q-2 135 91 232t224 95q117 0 190.5 -66t73.5 -175q2 -135 -91 -232.5t-224 -94.5q-117 0 -190.5 66t-73.5 175zM414 407q0 135 -63 135q-41 0 -73 -68q-30 -64 -47 -163q-16 -93 -16 -176q0 -133 62 -133q42 0 73 67q32 67 48 162q16 93 16 176zM388 606l-166 206
h164l10 -201z" />
    <glyph glyph-name="oacute" unicode="&#xf3;" horiz-adv-x="629" 
d="M25 229q-2 135 91 232t224 95q117 0 190.5 -66t73.5 -175q2 -135 -91 -232.5t-224 -94.5q-117 0 -190.5 66t-73.5 175zM414 407q0 135 -63 135q-41 0 -73 -68q-30 -64 -47 -163q-16 -93 -16 -176q0 -133 62 -133q42 0 73 67q32 67 48 162q16 93 16 176zM345 606l-7 5
l96 201h164z" />
    <glyph glyph-name="ocircumflex" unicode="&#xf4;" horiz-adv-x="629" 
d="M25 229q-2 135 91 232t224 95q117 0 190.5 -66t73.5 -175q2 -135 -91 -232.5t-224 -94.5q-117 0 -190.5 66t-73.5 175zM414 407q0 135 -63 135q-41 0 -73 -68q-30 -64 -47 -163q-16 -93 -16 -176q0 -133 62 -133q42 0 73 67q32 67 48 162q16 93 16 176zM548 611l-6 -5
l-153 84l-197 -84l-6 5l221 201h6z" />
    <glyph glyph-name="otilde" unicode="&#xf5;" horiz-adv-x="629" 
d="M25 229q-2 135 91 232t224 95q117 0 190.5 -66t73.5 -175q2 -135 -91 -232.5t-224 -94.5q-117 0 -190.5 66t-73.5 175zM414 407q0 135 -63 135q-41 0 -73 -68q-30 -64 -47 -163q-16 -93 -16 -176q0 -133 62 -133q42 0 73 67q32 67 48 162q16 93 16 176zM198 618l-11 3
q19 73 54 114t80 41q38 0 93 -35q45 -27 68 -27q59 0 92 62l11 -3q-19 -72 -54.5 -113.5t-80.5 -41.5q-37 0 -93 35q-47 27 -67 27q-59 0 -92 -62z" />
    <glyph glyph-name="odieresis" unicode="&#xf6;" horiz-adv-x="629" 
d="M25 229q-2 135 91 232t224 95q117 0 190.5 -66t73.5 -175q2 -135 -91 -232.5t-224 -94.5q-117 0 -190.5 66t-73.5 175zM414 407q0 135 -63 135q-41 0 -73 -68q-30 -64 -47 -163q-16 -93 -16 -176q0 -133 62 -133q42 0 73 67q32 67 48 162q16 93 16 176zM254 606l-76 100
l110 86l76 -100zM484 606l-76 100l110 86l76 -100z" />
    <glyph glyph-name="divide" unicode="&#xf7;" horiz-adv-x="508" 
d="M272 506l-41 41l41 41l41 -41zM68 354v20h408v-20h-408zM272 140l-41 41l41 41l41 -41z" />
    <glyph glyph-name="oslash" unicode="&#xf8;" horiz-adv-x="629" 
d="M604 315q2 -135 -91 -232.5t-224 -94.5q-103 0 -174 52l-83 -91l-14 11l83 91q-76 67 -76 178q-2 135 91 232t224 95q106 0 174 -52l83 91l14 -11l-83 -91q76 -67 76 -178zM216 177l198 217v13q0 135 -63 135q-36 2 -67 -57t-47.5 -141.5t-20.5 -166.5zM413 367
l-198 -217v-15q0 -133 62 -133q37 -2 68 57.5t47.5 142t20.5 165.5z" />
    <glyph glyph-name="ugrave" unicode="&#xf9;" horiz-adv-x="623" 
d="M628 562h4l-119 -562h-188l39 181h-6q-41 -105 -90 -149t-118 -44q-132 0 -132 127q0 26 8 66l72 340l192 41h4l-84 -392q-7 -32 -7 -51q0 -45 38 -45q25 0 52 29q68 72 143 418zM400 606l-166 206h164l10 -201z" />
    <glyph glyph-name="uacute" unicode="&#xfa;" horiz-adv-x="623" 
d="M628 562h4l-119 -562h-188l39 181h-6q-41 -105 -90 -149t-118 -44q-132 0 -132 127q0 26 8 66l72 340l192 41h4l-84 -392q-7 -32 -7 -51q0 -45 38 -45q25 0 52 29q68 72 143 418zM357 606l-7 5l96 201h164z" />
    <glyph glyph-name="ucircumflex" unicode="&#xfb;" horiz-adv-x="623" 
d="M628 562h4l-119 -562h-188l39 181h-6q-41 -105 -90 -149t-118 -44q-132 0 -132 127q0 26 8 66l72 340l192 41h4l-84 -392q-7 -32 -7 -51q0 -45 38 -45q25 0 52 29q68 72 143 418zM560 611l-6 -5l-153 84l-197 -84l-6 5l221 201h6z" />
    <glyph glyph-name="udieresis" unicode="&#xfc;" horiz-adv-x="623" 
d="M628 562h4l-119 -562h-188l39 181h-6q-41 -105 -90 -149t-118 -44q-132 0 -132 127q0 26 8 66l72 340l192 41h4l-84 -392q-7 -32 -7 -51q0 -45 38 -45q25 0 52 29q68 72 143 418zM266 606l-76 100l110 86l76 -100zM496 606l-76 100l110 86l76 -100z" />
    <glyph glyph-name="yacute" unicode="&#xfd;" horiz-adv-x="475" 
d="M455 544h84q-53 -74 -85 -124q-12 -19 -28.5 -45t-41.5 -66t-43 -69l-199 -321q-56 -90 -113 -121.5t-137 -31.5l27 86q30 -14 63 -14q41 0 79 22t62 62l39 62l-108 560h188l63 -329l20 33q104 167 130 296zM313 606l-7 5l96 201h164z" />
    <glyph glyph-name="thorn" unicode="&#xfe;" horiz-adv-x="642" 
d="M625 372q1 -101 -43.5 -190t-124 -142.5t-173.5 -51.5q-56 0 -100 18l-50 -234h-188l209 987l195 51h4l-95 -447h9q43 103 94 148t118 45q145 0 145 -184zM440 362q0 108 -51 108q-42 0 -88 -79q-47 -80 -96 -287q-1 -43 18 -71t52 -28q47 0 85 57q39 60 59 142
q21 84 21 158z" />
    <glyph glyph-name="ydieresis" unicode="&#xff;" horiz-adv-x="475" 
d="M455 544h84q-53 -74 -85 -124q-12 -19 -28.5 -45t-41.5 -66t-43 -69l-199 -321q-56 -90 -113 -121.5t-137 -31.5l27 86q30 -14 63 -14q41 0 79 22t62 62l39 62l-108 560h188l63 -329l20 33q104 167 130 296zM222 606l-76 100l110 86l76 -100zM452 606l-76 100l110 86
l76 -100z" />
    <glyph glyph-name="Amacron" unicode="&#x100;" horiz-adv-x="625" 
d="M368 0l-47 232h-204q-44 -80 -61 -133q-16 -51 -16 -99h-112q57 74 102 140q37 52 118 182l270 430h4l153 -752h-207zM128 250h190l-47 232l-105 -168zM274 832l12 52h327l-12 -52h-327z" />
    <glyph glyph-name="amacron" unicode="&#x101;" horiz-adv-x="662" 
d="M547 61q0 -31 39 -31q4 0 20 2l-1 -6q-59 -38 -142 -38q-101 0 -101 82q0 22 6 47l14 64h-8q-43 -103 -94 -148t-118 -45q-145 0 -145 184q-1 101 43.5 190t124 142.5t173.5 51.5q102 0 170 -57l119 63h4l-97 -456q-7 -29 -7 -45zM437 440q1 43 -18 71t-52 28
q-49 0 -86 -58q-37 -56 -58 -141q-21 -84 -21 -158q0 -108 51 -108q42 0 88 79q47 80 96 287zM224 654l12 52h315l-12 -52h-315z" />
    <glyph glyph-name="Abreve" unicode="&#x102;" horiz-adv-x="625" 
d="M368 0l-47 232h-204q-44 -80 -61 -133q-16 -51 -16 -99h-112q57 74 102 140q37 52 118 182l270 430h4l153 -752h-207zM128 250h190l-47 232l-105 -168zM289 971l9 3q15 -38 55.5 -61t95.5 -23t105.5 23.5t80.5 60.5l9 -3q-82 -175 -215 -175q-131 0 -140 175z" />
    <glyph glyph-name="abreve" unicode="&#x103;" horiz-adv-x="662" 
d="M547 61q0 -31 39 -31q4 0 20 2l-1 -6q-59 -38 -142 -38q-101 0 -101 82q0 22 6 47l14 64h-8q-43 -103 -94 -148t-118 -45q-145 0 -145 184q-1 101 43.5 190t124 142.5t173.5 51.5q102 0 170 -57l119 63h4l-97 -456q-7 -29 -7 -45zM437 440q1 43 -18 71t-52 28
q-49 0 -86 -58q-37 -56 -58 -141q-21 -84 -21 -158q0 -108 51 -108q42 0 88 79q47 80 96 287zM234 793l9 3q15 -38 55.5 -61t95.5 -23t105.5 23.5t80.5 60.5l9 -3q-82 -175 -215 -175q-131 0 -140 175z" />
    <glyph glyph-name="Aogonek" unicode="&#x104;" horiz-adv-x="625" 
d="M545 -172l2 -5q-67 -61 -144 -61q-42 0 -67.5 20t-25.5 53q0 99 190 165h-132l-47 232h-204q-44 -80 -61 -133q-16 -51 -16 -99h-112q57 74 102 140q37 52 118 182l270 430h4l153 -752h-57q-49 -41 -69 -70.5t-20 -64.5q0 -49 55 -49q24 0 61 12zM128 250h190l-47 232
l-105 -168z" />
    <glyph glyph-name="aogonek" unicode="&#x105;" horiz-adv-x="662" 
d="M547 61q0 -31 39 -31q4 0 20 2l-1 -6q-39 -25 -106 -35q-42 -38 -60 -66t-18 -60q0 -49 55 -49q24 0 61 12l2 -5q-67 -61 -144 -61q-42 0 -67.5 20t-25.5 53q0 90 158 153q-98 1 -98 82q0 22 6 47l14 64h-8q-43 -103 -94 -148t-118 -45q-145 0 -145 184q-1 101 43.5 190
t124 142.5t173.5 51.5q102 0 170 -57l119 63h4l-97 -456q-7 -29 -7 -45zM437 440q1 43 -18 71t-52 28q-49 0 -86 -58q-37 -56 -58 -141q-21 -84 -21 -158q0 -108 51 -108q42 0 88 79q47 80 96 287z" />
    <glyph glyph-name="Cacute" unicode="&#x106;" horiz-adv-x="668" 
d="M48 303q-1 115 51.5 216.5t147.5 162t207 58.5q154 0 256 -136l-95 -69q-11 78 -47 132q-37 57 -98 57q-62 0 -110 -71q-46 -70 -72 -176q-25 -103 -25 -201q0 -216 169 -216q120 0 197 90l12 -7q-55 -74 -131.5 -114.5t-161.5 -40.5q-133 0 -216.5 88.5t-83.5 226.5z
M452 784l-7 5l90 191h178z" />
    <glyph glyph-name="cacute" unicode="&#x107;" horiz-adv-x="518" 
d="M20 210q-2 90 43 171t122 129t162 46q129 0 194 -103l-63 -48q-23 73 -45.5 104t-60.5 31q-47 0 -83 -57q-35 -55 -54 -138q-19 -79 -19 -150q0 -135 107 -135q79 0 145 70l11 -8q-112 -134 -240 -134q-96 0 -157.5 61t-61.5 161zM356 606l-7 5l96 201h164z" />
    <glyph glyph-name="Ccircumflex" unicode="&#x108;" horiz-adv-x="668" 
d="M48 303q-1 115 51.5 216.5t147.5 162t207 58.5q154 0 256 -136l-95 -69q-11 78 -47 132q-37 57 -98 57q-62 0 -110 -71q-46 -70 -72 -176q-25 -103 -25 -201q0 -216 169 -216q120 0 197 90l12 -7q-55 -74 -131.5 -114.5t-161.5 -40.5q-133 0 -216.5 88.5t-83.5 226.5z
M655 789l-6 -5l-153 75l-197 -75l-6 5l221 191h6z" />
    <glyph glyph-name="ccircumflex" unicode="&#x109;" horiz-adv-x="518" 
d="M20 210q-2 90 43 171t122 129t162 46q129 0 194 -103l-63 -48q-23 73 -45.5 104t-60.5 31q-47 0 -83 -57q-35 -55 -54 -138q-19 -79 -19 -150q0 -135 107 -135q79 0 145 70l11 -8q-112 -134 -240 -134q-96 0 -157.5 61t-61.5 161zM559 611l-6 -5l-153 84l-197 -84l-6 5
l221 201h6z" />
    <glyph glyph-name="Cdotaccent" unicode="&#x10a;" horiz-adv-x="668" 
d="M48 303q-1 115 51.5 216.5t147.5 162t207 58.5q154 0 256 -136l-95 -69q-11 78 -47 132q-37 57 -98 57q-62 0 -110 -71q-46 -70 -72 -176q-25 -103 -25 -201q0 -216 169 -216q120 0 197 90l12 -7q-55 -74 -131.5 -114.5t-161.5 -40.5q-133 0 -216.5 88.5t-83.5 226.5z
M477 784l-92 120l132 104l92 -120z" />
    <glyph glyph-name="cdotaccent" unicode="&#x10b;" horiz-adv-x="518" 
d="M20 210q-2 90 43 171t122 129t162 46q129 0 194 -103l-63 -48q-23 73 -45.5 104t-60.5 31q-47 0 -83 -57q-35 -55 -54 -138q-19 -79 -19 -150q0 -135 107 -135q79 0 145 70l11 -8q-112 -134 -240 -134q-96 0 -157.5 61t-61.5 161zM381 606l-92 120l132 104l92 -120z" />
    <glyph glyph-name="Ccaron" unicode="&#x10c;" horiz-adv-x="668" 
d="M48 303q-1 115 51.5 216.5t147.5 162t207 58.5q154 0 256 -136l-95 -69q-11 78 -47 132q-37 57 -98 57q-62 0 -110 -71q-46 -70 -72 -176q-25 -103 -25 -201q0 -216 169 -216q120 0 197 90l12 -7q-55 -74 -131.5 -114.5t-161.5 -40.5q-133 0 -216.5 88.5t-83.5 226.5z
M689 980l6 -5l-221 -191h-6l-135 191l6 5l153 -75z" />
    <glyph glyph-name="ccaron" unicode="&#x10d;" horiz-adv-x="518" 
d="M20 210q-2 90 43 171t122 129t162 46q129 0 194 -103l-63 -48q-23 73 -45.5 104t-60.5 31q-47 0 -83 -57q-35 -55 -54 -138q-19 -79 -19 -150q0 -135 107 -135q79 0 145 70l11 -8q-112 -134 -240 -134q-96 0 -157.5 61t-61.5 161zM595 812l6 -5l-221 -201h-6l-135 201
l6 5l153 -84z" />
    <glyph glyph-name="Dcaron" unicode="&#x10e;" horiz-adv-x="788" 
d="M782 446q3 -202 -144.5 -325t-374.5 -121h-257l154 728h274q159 0 253.5 -74t94.5 -208zM573 509q0 97 -38 150t-110 53h-66l-146 -687q19 -9 70 -9q88 0 154 75q67 76 101 189q35 117 35 229zM679 980l6 -5l-221 -191h-6l-135 191l6 5l153 -75z" />
    <glyph glyph-name="dcaron" unicode="&#x10f;" horiz-adv-x="664" 
d="M700 810h4l-172 -810h-188l38 181h-8q-43 -103 -94 -148t-118 -45q-145 0 -145 184q-1 101 43.5 190t124 142.5t173.5 51.5q56 0 100 -18l47 221zM437 440q1 43 -18 71t-52 28q-49 0 -86 -58q-37 -56 -58 -141q-21 -84 -21 -158q0 -108 51 -108q42 0 88 79q47 80 96 287z
M719 606l-4 5q30 10 52.5 37t22.5 56q0 45 -61 64l73 71q37 -11 58.5 -36t21.5 -57q0 -51 -50 -89q-50 -36 -113 -51z" />
    <glyph glyph-name="Dcroat" unicode="&#x110;" horiz-adv-x="791" 
d="M785 446q3 -202 -144.5 -325t-374.5 -121h-257l78 371h-58l3 14h58l73 343h274q159 0 253.5 -74t94.5 -208zM576 509q0 97 -38 150t-110 53h-66l-70 -327h117l-3 -14h-117l-73 -346q19 -9 70 -9q88 0 154 75q67 76 101 189q35 117 35 229z" />
    <glyph glyph-name="dslash" unicode="&#x111;" horiz-adv-x="642" 
d="M737 676l-2 -14h-62l-141 -662h-188l38 181h-8q-43 -103 -94 -148t-118 -45q-145 0 -145 184q-1 101 43.5 190t124 142.5t173.5 51.5q56 0 100 -18l26 124h-118l2 14h119l18 83l195 51h4l-28 -134h61zM437 440q1 43 -18 71t-52 28q-49 0 -86 -58q-37 -56 -58 -141
q-21 -84 -21 -158q0 -108 51 -108q42 0 88 79q47 80 96 287z" />
    <glyph glyph-name="Emacron" unicode="&#x112;" horiz-adv-x="567" 
d="M160 728h452l-10 -114h-2q-84 96 -217 96h-25l-68 -322h10q154 0 192 48h2l-26 -122h-2q-19 56 -170 56h-10l-74 -352h30q138 0 272 106h2l-50 -124h-460zM253 832l12 52h327l-12 -52h-327z" />
    <glyph glyph-name="emacron" unicode="&#x113;" horiz-adv-x="544" 
d="M495 142l10 -7q-121 -147 -269 -147q-98 0 -156 61t-58 167q-2 138 96 240.5t240 99.5q84 0 135 -32t51 -86q0 -68 -84.5 -120t-245.5 -82v-22q0 -154 110 -154q89 0 171 82zM215 252q91 27 143.5 87.5t52.5 136.5q0 64 -45 64q-42 2 -76 -44t-52 -110.5t-23 -133.5z
M234 654l12 52h315l-12 -52h-315z" />
    <glyph glyph-name="Ebreve" unicode="&#x114;" horiz-adv-x="567" 
d="M160 728h452l-10 -114h-2q-84 96 -217 96h-25l-68 -322h10q154 0 192 48h2l-26 -122h-2q-19 56 -170 56h-10l-74 -352h30q138 0 272 106h2l-50 -124h-460zM268 971l9 3q15 -38 55.5 -61t95.5 -23t105.5 23.5t80.5 60.5l9 -3q-82 -175 -215 -175q-131 0 -140 175z" />
    <glyph glyph-name="ebreve" unicode="&#x115;" horiz-adv-x="544" 
d="M495 142l10 -7q-121 -147 -269 -147q-98 0 -156 61t-58 167q-2 138 96 240.5t240 99.5q84 0 135 -32t51 -86q0 -68 -84.5 -120t-245.5 -82v-22q0 -154 110 -154q89 0 171 82zM215 252q91 27 143.5 87.5t52.5 136.5q0 64 -45 64q-42 2 -76 -44t-52 -110.5t-23 -133.5z
M244 793l9 3q15 -38 55.5 -61t95.5 -23t105.5 23.5t80.5 60.5l9 -3q-82 -175 -215 -175q-131 0 -140 175z" />
    <glyph glyph-name="Edotaccent" unicode="&#x116;" horiz-adv-x="567" 
d="M160 728h452l-10 -114h-2q-84 96 -217 96h-25l-68 -322h10q154 0 192 48h2l-26 -122h-2q-19 56 -170 56h-10l-74 -352h30q138 0 272 106h2l-50 -124h-460zM410 784l-92 120l132 104l92 -120z" />
    <glyph glyph-name="edotaccent" unicode="&#x117;" horiz-adv-x="544" 
d="M495 142l10 -7q-121 -147 -269 -147q-98 0 -156 61t-58 167q-2 138 96 240.5t240 99.5q84 0 135 -32t51 -86q0 -68 -84.5 -120t-245.5 -82v-22q0 -154 110 -154q89 0 171 82zM215 252q91 27 143.5 87.5t52.5 136.5q0 64 -45 64q-42 2 -76 -44t-52 -110.5t-23 -133.5z
M385 606l-92 120l132 104l92 -120z" />
    <glyph glyph-name="Eogonek" unicode="&#x118;" horiz-adv-x="567" 
d="M160 728h452l-10 -114h-2q-84 96 -217 96h-25l-68 -322h10q154 0 192 48h2l-26 -122h-2q-19 56 -170 56h-10l-74 -352h30q138 0 272 106h2l-50 -124h-46q-49 -41 -69 -70.5t-20 -64.5q0 -49 55 -49q23 0 61 12l2 -5q-67 -61 -144 -61q-42 0 -67.5 20t-25.5 53
q0 99 190 165h-396z" />
    <glyph glyph-name="eogonek" unicode="&#x119;" horiz-adv-x="544" 
d="M495 142l10 -7q-51 -62 -122 -107q-63 -39 -98 -82.5t-35 -80.5q0 -49 55 -49q23 0 61 12l2 -5q-67 -61 -144 -61q-42 0 -67.5 20t-25.5 53q0 47 42.5 83.5t132.5 77.5q-40 -8 -70 -8q-98 0 -156 61t-58 167q-2 138 96 240.5t240 99.5q84 0 135 -32t51 -86
q0 -68 -84.5 -120t-245.5 -82v-22q0 -154 110 -154q89 0 171 82zM215 252q91 27 143.5 87.5t52.5 136.5q0 64 -45 64q-42 2 -76 -44t-52 -110.5t-23 -133.5z" />
    <glyph glyph-name="Ecaron" unicode="&#x11a;" horiz-adv-x="567" 
d="M160 728h452l-10 -114h-2q-84 96 -217 96h-25l-68 -322h10q154 0 192 48h2l-26 -122h-2q-19 56 -170 56h-10l-74 -352h30q138 0 272 106h2l-50 -124h-460zM622 980l6 -5l-221 -191h-6l-135 191l6 5l153 -75z" />
    <glyph glyph-name="ecaron" unicode="&#x11b;" horiz-adv-x="544" 
d="M495 142l10 -7q-121 -147 -269 -147q-98 0 -156 61t-58 167q-2 138 96 240.5t240 99.5q84 0 135 -32t51 -86q0 -68 -84.5 -120t-245.5 -82v-22q0 -154 110 -154q89 0 171 82zM215 252q91 27 143.5 87.5t52.5 136.5q0 64 -45 64q-42 2 -76 -44t-52 -110.5t-23 -133.5z
M599 812l6 -5l-221 -201h-6l-135 201l6 5l153 -84z" />
    <glyph glyph-name="Gcircumflex" unicode="&#x11c;" horiz-adv-x="748" 
d="M438 312l-7 18h296l-56 -264q-149 -78 -257 -78q-174 0 -270 80t-96 228q-1 123 52.5 225.5t152 161.5t220.5 57q169 0 285 -139l-95 -70q-12 79 -55 135q-42 58 -120 58q-74 0 -126 -75q-53 -76 -80 -188q-27 -113 -27 -222q0 -233 153 -233q34 0 73 13l62 293h-105z
M676 789l-6 -5l-153 75l-197 -75l-6 5l221 191h6z" />
    <glyph glyph-name="gcircumflex" unicode="&#x11d;" horiz-adv-x="580" 
d="M641 594l-40 -118q-37 22 -69 22q-27 0 -43 -10q42 -44 42 -108q0 -81 -60 -132t-167 -73q-79 -16 -113 -26q-29 -8 -29 -21t44 -19l137 -18q159 -19 159 -129q2 -58 -44 -105.5t-118.5 -72.5t-151.5 -24q-101 0 -174 36.5t-73 96.5q0 28 17 60l95 21h4q-23 -51 -23 -87
q0 -111 152 -111q84 0 146.5 31t62.5 77q0 27 -24.5 39.5t-96.5 27.5l-166 34q-47 10 -74 26.5t-27 48.5q0 47 62 73q65 26 164 44q-84 10 -134.5 56.5t-50.5 115.5q0 91 74.5 148.5t180.5 57.5q113 0 175 -57q61 96 163 96zM371 440q0 51 -13 75.5t-43 24.5
q-35 1 -61 -39.5t-37 -96.5t-10 -116q0 -52 13 -75.5t45 -23.5q55 0 80 78q26 80 26 173zM504 611l-6 -5l-153 84l-197 -84l-6 5l221 201h6z" />
    <glyph glyph-name="Gbreve" unicode="&#x11e;" horiz-adv-x="748" 
d="M438 312l-7 18h296l-56 -264q-149 -78 -257 -78q-174 0 -270 80t-96 228q-1 123 52.5 225.5t152 161.5t220.5 57q169 0 285 -139l-95 -70q-12 79 -55 135q-42 58 -120 58q-74 0 -126 -75q-53 -76 -80 -188q-27 -113 -27 -222q0 -233 153 -233q34 0 73 13l62 293h-105z
M356 971l9 3q15 -38 55.5 -61t95.5 -23t105.5 23.5t80.5 60.5l9 -3q-82 -175 -215 -175q-131 0 -140 175z" />
    <glyph glyph-name="gbreve" unicode="&#x11f;" horiz-adv-x="580" 
d="M641 594l-40 -118q-37 22 -69 22q-27 0 -43 -10q42 -44 42 -108q0 -81 -60 -132t-167 -73q-79 -16 -113 -26q-29 -8 -29 -21t44 -19l137 -18q159 -19 159 -129q2 -58 -44 -105.5t-118.5 -72.5t-151.5 -24q-101 0 -174 36.5t-73 96.5q0 28 17 60l95 21h4q-23 -51 -23 -87
q0 -111 152 -111q84 0 146.5 31t62.5 77q0 27 -24.5 39.5t-96.5 27.5l-166 34q-47 10 -74 26.5t-27 48.5q0 47 62 73q65 26 164 44q-84 10 -134.5 56.5t-50.5 115.5q0 91 74.5 148.5t180.5 57.5q113 0 175 -57q61 96 163 96zM371 440q0 51 -13 75.5t-43 24.5
q-35 1 -61 -39.5t-37 -96.5t-10 -116q0 -52 13 -75.5t45 -23.5q55 0 80 78q26 80 26 173zM185 793l9 3q15 -38 55.5 -61t95.5 -23t105.5 23.5t80.5 60.5l9 -3q-82 -175 -215 -175q-131 0 -140 175z" />
    <glyph glyph-name="Gdotaccent" unicode="&#x120;" horiz-adv-x="748" 
d="M438 312l-7 18h296l-56 -264q-149 -78 -257 -78q-174 0 -270 80t-96 228q-1 123 52.5 225.5t152 161.5t220.5 57q169 0 285 -139l-95 -70q-12 79 -55 135q-42 58 -120 58q-74 0 -126 -75q-53 -76 -80 -188q-27 -113 -27 -222q0 -233 153 -233q34 0 73 13l62 293h-105z
M498 784l-92 120l132 104l92 -120z" />
    <glyph glyph-name="gdotaccent" unicode="&#x121;" horiz-adv-x="580" 
d="M641 594l-40 -118q-37 22 -69 22q-27 0 -43 -10q42 -44 42 -108q0 -81 -60 -132t-167 -73q-79 -16 -113 -26q-29 -8 -29 -21t44 -19l137 -18q159 -19 159 -129q2 -58 -44 -105.5t-118.5 -72.5t-151.5 -24q-101 0 -174 36.5t-73 96.5q0 28 17 60l95 21h4q-23 -51 -23 -87
q0 -111 152 -111q84 0 146.5 31t62.5 77q0 27 -24.5 39.5t-96.5 27.5l-166 34q-47 10 -74 26.5t-27 48.5q0 47 62 73q65 26 164 44q-84 10 -134.5 56.5t-50.5 115.5q0 91 74.5 148.5t180.5 57.5q113 0 175 -57q61 96 163 96zM371 440q0 51 -13 75.5t-43 24.5
q-35 1 -61 -39.5t-37 -96.5t-10 -116q0 -52 13 -75.5t45 -23.5q55 0 80 78q26 80 26 173zM326 606l-92 120l132 104l92 -120z" />
    <glyph glyph-name="uni0122" unicode="&#x122;" horiz-adv-x="748" 
d="M438 312l-7 18h296l-56 -264q-149 -78 -257 -78q-174 0 -270 80t-96 228q-1 123 52.5 225.5t152 161.5t220.5 57q169 0 285 -139l-95 -70q-12 79 -55 135q-42 58 -120 58q-74 0 -126 -75q-53 -76 -80 -188q-27 -113 -27 -222q0 -233 153 -233q34 0 73 13l62 293h-105z
M307 -283l-4 5q30 10 52.5 37t22.5 56q0 45 -61 64l73 71q37 -11 58.5 -36t21.5 -57q0 -52 -50 -88q-49 -37 -113 -52z" />
    <glyph glyph-name="uni0123" unicode="&#x123;" horiz-adv-x="580" 
d="M641 594l-40 -118q-37 22 -69 22q-27 0 -43 -10q42 -44 42 -108q0 -81 -60 -132t-167 -73q-79 -16 -113 -26q-29 -8 -29 -21t44 -19l137 -18q159 -19 159 -129q2 -58 -44 -105.5t-118.5 -72.5t-151.5 -24q-101 0 -174 36.5t-73 96.5q0 28 17 60l95 21h4q-23 -51 -23 -87
q0 -111 152 -111q84 0 146.5 31t62.5 77q0 27 -24.5 39.5t-96.5 27.5l-166 34q-47 10 -74 26.5t-27 48.5q0 47 62 73q65 26 164 44q-84 10 -134.5 56.5t-50.5 115.5q0 91 74.5 148.5t180.5 57.5q113 0 175 -57q61 96 163 96zM371 440q0 51 -13 75.5t-43 24.5
q-35 1 -61 -39.5t-37 -96.5t-10 -116q0 -52 13 -75.5t45 -23.5q55 0 80 78q26 80 26 173zM255 699q0 52 49 88q49 37 114 52l4 -5q-30 -10 -52.5 -37t-22.5 -56q0 -45 61 -64l-73 -71q-37 11 -58.5 36t-21.5 57z" />
    <glyph glyph-name="Hcircumflex" unicode="&#x124;" horiz-adv-x="755" 
d="M586 728h202l-154 -728h-202l78 370h-224l-78 -370h-202l154 728h202l-72 -340h224zM673 789l-6 -5l-153 75l-197 -75l-6 5l221 191h6z" />
    <glyph glyph-name="hcircumflex" unicode="&#x125;" horiz-adv-x="626" 
d="M605 429q0 -26 -8 -66l-77 -363h-188l80 374q7 32 7 54q0 42 -34 42q-27 0 -55 -30q-71 -77 -148 -440h-188l161 759l195 51h4l-95 -447h8q41 105 89.5 149t116.5 44q132 0 132 -127zM461 789l-6 -5l-153 75l-197 -75l-6 5l221 191h6z" />
    <glyph glyph-name="Hbar" unicode="&#x126;" horiz-adv-x="765" 
d="M823 578l-2 -14h-63l-119 -564h-202l78 370h-224l-78 -370h-202l119 564h-62l2 14h63l32 150h202l-32 -150h224l32 150h202l-32 -150h62zM519 388l37 176h-224l-37 -176h224z" />
    <glyph glyph-name="hbar" unicode="&#x127;" horiz-adv-x="626" 
d="M605 429q0 -26 -8 -66l-77 -363h-188l80 374q7 32 7 54q0 42 -34 42q-27 0 -55 -30q-71 -77 -148 -440h-188l140 662h-61l3 14h61l18 83l195 51h4l-28 -134h119l-3 -14h-119l-64 -299h8q41 105 89.5 149t116.5 44q132 0 132 -127z" />
    <glyph glyph-name="Itilde" unicode="&#x128;" horiz-adv-x="329" 
d="M6 0l154 728h202l-154 -728h-202zM104 796l-11 3q19 73 54 114t80 41q38 0 93 -35q45 -27 68 -27q59 0 92 62l11 -3q-19 -72 -54.5 -113.5t-80.5 -41.5q-37 0 -93 35q-47 27 -67 27q-59 0 -92 -62z" />
    <glyph glyph-name="itilde" unicode="&#x129;" horiz-adv-x="291" 
d="M-7 0l111 521l192 41h4l-119 -562h-188zM47 618l-11 3q19 73 54 114t80 41q38 0 93 -35q45 -27 68 -27q59 0 92 62l11 -3q-19 -72 -54.5 -113.5t-80.5 -41.5q-37 0 -93 35q-47 27 -67 27q-59 0 -92 -62z" />
    <glyph glyph-name="Imacron" unicode="&#x12a;" horiz-adv-x="329" 
d="M6 0l154 728h202l-154 -728h-202zM120 832l12 52h327l-12 -52h-327z" />
    <glyph glyph-name="imacron" unicode="&#x12b;" horiz-adv-x="291" 
d="M-7 0l111 521l192 41h4l-119 -562h-188zM68 654l12 52h315l-12 -52h-315z" />
    <glyph glyph-name="Ibreve" unicode="&#x12c;" horiz-adv-x="329" 
d="M6 0l154 728h202l-154 -728h-202zM135 971l9 3q15 -38 55.5 -61t95.5 -23t105.5 23.5t80.5 60.5l9 -3q-82 -175 -215 -175q-131 0 -140 175z" />
    <glyph glyph-name="ibreve" unicode="&#x12d;" horiz-adv-x="291" 
d="M-7 0l111 521l192 41h4l-119 -562h-188zM78 793l9 3q15 -38 55.5 -61t95.5 -23t105.5 23.5t80.5 60.5l9 -3q-82 -175 -215 -175q-131 0 -140 175z" />
    <glyph glyph-name="Iogonek" unicode="&#x12e;" horiz-adv-x="329" 
d="M63 -135q0 -49 55 -49q24 0 61 12l2 -5q-67 -61 -144 -61q-42 0 -67.5 20t-25.5 53q0 99 190 165h-128l154 728h202l-154 -728h-56q-49 -41 -69 -70.5t-20 -64.5z" />
    <glyph glyph-name="iogonek" unicode="&#x12f;" horiz-adv-x="291" 
d="M351 710l-132 -104l-92 120l132 104zM104 521l192 41h4l-119 -562h-49q-49 -41 -69 -70.5t-20 -64.5q0 -49 55 -49q24 0 61 12l2 -5q-67 -61 -144 -61q-42 0 -67.5 20t-25.5 53q0 99 190 165h-121z" />
    <glyph glyph-name="Idot" unicode="&#x130;" horiz-adv-x="329" 
d="M6 0l154 728h202l-154 -728h-202zM277 784l-92 120l132 104l92 -120z" />
    <glyph glyph-name="dotlessi" unicode="&#x131;" horiz-adv-x="291" 
d="M-7 0l111 521l192 41h4l-119 -562h-188z" />
    <glyph glyph-name="IJ" unicode="&#x132;" horiz-adv-x="675" 
d="M6 0l154 728h202l-154 -728h-202zM193 -150l-4 12q73 40 112 87q39 46 58 104q23 68 43 167l108 508h202l-106 -500q-20 -88 -55 -151.5t-88.5 -106.5t-117 -70.5t-152.5 -49.5z" />
    <glyph glyph-name="ij" unicode="&#x133;" horiz-adv-x="586" 
d="M219 606l-92 120l132 104l92 -120zM-7 0l111 521l192 41h4l-119 -562h-188zM513 606l-92 120l132 104l92 -120zM117 -228l-1 12q62 16 109 79.5t67 156.5l106 501l193 41h4l-111 -522q-17 -81 -76 -140.5t-132.5 -88.5t-158.5 -39z" />
    <glyph glyph-name="Jcircumflex" unicode="&#x134;" horiz-adv-x="330" 
d="M-152 -150l-4 12q73 40 112 87q39 46 58 104q23 68 43 167l108 508h202l-106 -500q-20 -88 -55 -151.5t-88.5 -106.5t-117 -70.5t-152.5 -49.5zM455 789l-6 -5l-153 75l-197 -75l-6 5l221 191h6z" />
    <glyph glyph-name="jcircumflex" unicode="&#x135;" horiz-adv-x="299" 
d="M-170 -228l-1 12q62 16 109 79.5t67 156.5l106 501l193 41h4l-111 -522q-17 -81 -76 -140.5t-132.5 -88.5t-158.5 -39zM405 611l-6 -5l-153 84l-197 -84l-6 5l221 201h6z" />
    <glyph glyph-name="uni0136" unicode="&#x136;" horiz-adv-x="697" 
d="M161 728h202l-155 -728h-202zM526 538l-51 -45l-20 -17l204 -283l-50 -235h-10l-295 415l158 136q86 74 125 122q38 47 64 97h122l-1 -2q-56 -33 -106 -72q-64 -50 -140 -116zM212 -283l-4 5q30 10 52.5 37t22.5 56q0 45 -61 64l73 71q37 -11 58.5 -36t21.5 -57
q0 -52 -50 -88q-49 -37 -113 -52z" />
    <glyph glyph-name="uni0137" unicode="&#x137;" horiz-adv-x="579" 
d="M350 810h4l-172 -810h-188l161 759zM619 544v-2q-115 -68 -207 -139l128 -205l-51 -240h-6l-217 355l99 78q68 53 103 85q36 32 66 68h85zM147 -283l-4 5q30 10 52.5 37t22.5 56q0 45 -61 64l73 71q37 -11 58.5 -36t21.5 -57q0 -52 -50 -88q-49 -37 -113 -52z" />
    <glyph glyph-name="kgreenlandic" unicode="&#x138;" horiz-adv-x="578" 
d="M296 562h4l-119 -562h-188l111 521zM618 544v-2q-115 -68 -207 -139l128 -205l-51 -240h-6l-217 355l99 78q68 53 103 85q36 32 66 68h85z" />
    <glyph glyph-name="Lacute" unicode="&#x139;" horiz-adv-x="515" 
d="M475 150h2l-58 -150h-413l154 728h202l-150 -710h9q99 0 254 132zM261 784l-7 5l90 191h178z" />
    <glyph glyph-name="lacute" unicode="&#x13a;" horiz-adv-x="292" 
d="M-6 0l161 759l195 51h4l-172 -810h-188zM234 784l-7 5l90 191h178z" />
    <glyph glyph-name="uni013B" unicode="&#x13b;" horiz-adv-x="515" 
d="M475 150h2l-58 -150h-413l154 728h202l-150 -710h9q99 0 254 132zM121 -283l-4 5q30 10 52.5 37t22.5 56q0 45 -61 64l73 71q37 -11 58.5 -36t21.5 -57q0 -52 -50 -88q-49 -37 -113 -52z" />
    <glyph glyph-name="uni013C" unicode="&#x13c;" horiz-adv-x="292" 
d="M-6 0l161 759l195 51h4l-172 -810h-188zM-18 -283l-4 5q30 10 52.5 37t22.5 56q0 45 -61 64l73 71q37 -11 58.5 -36t21.5 -57q0 -52 -50 -88q-49 -37 -113 -52z" />
    <glyph glyph-name="Lcaron" unicode="&#x13d;" horiz-adv-x="528" 
d="M475 150h2l-58 -150h-413l154 728h202l-150 -710h9q99 0 254 132zM409 544l-4 5q30 10 52.5 37t22.5 56q0 45 -61 64l73 71q37 -11 58.5 -36t21.5 -57q0 -51 -50 -89q-50 -36 -113 -51z" />
    <glyph glyph-name="lcaron" unicode="&#x13e;" horiz-adv-x="314" 
d="M-6 0l161 759l195 51h4l-172 -810h-188zM369 606l-4 5q30 10 52.5 37t22.5 56q0 45 -61 64l73 71q37 -11 58.5 -36t21.5 -57q0 -51 -50 -89q-50 -36 -113 -51z" />
    <glyph glyph-name="Ldot" unicode="&#x13f;" horiz-adv-x="550" 
d="M475 150h2l-58 -150h-413l154 728h202l-150 -710h9q99 0 254 132zM440 338l-92 120l132 104l92 -120z" />
    <glyph glyph-name="ldot" unicode="&#x140;" horiz-adv-x="513" 
d="M-6 0l161 759l195 51h4l-172 -810h-188zM406 278l-92 120l132 104l92 -120z" />
    <glyph glyph-name="Lslash" unicode="&#x141;" horiz-adv-x="527" 
d="M486 150h2l-58 -150h-413l53 252l-55 -29l-7 12l66 34l97 459h202l-72 -340l139 72l7 -12l-150 -78l-74 -352h9q100 0 254 132z" />
    <glyph glyph-name="lslash" unicode="&#x142;" horiz-adv-x="336" 
d="M362 498l7 -12l-69 -36l-96 -450h-188l72 341l-58 -30l-7 12l69 36l85 400l195 51h4l-73 -342z" />
    <glyph glyph-name="Nacute" unicode="&#x143;" horiz-adv-x="656" 
d="M622 728h100q-68 -134 -108 -318l-90 -422h-16l-328 610l-59 -280q-30 -140 -30 -249q0 -36 3 -69h-100q66 127 107 318l65 307l-54 100l1 3h213l240 -450l28 132q31 145 31 253q0 35 -3 65zM420 784l-7 5l90 191h178z" />
    <glyph glyph-name="nacute" unicode="&#x144;" horiz-adv-x="625" 
d="M604 429q0 -26 -8 -66l-77 -363h-188l80 374q7 31 7 52q0 44 -37 44q-25 0 -53 -30q-70 -75 -147 -440h-188l111 521l192 41h4l-42 -199h8q41 105 89.5 149t116.5 44q132 0 132 -127zM364 606l-7 5l96 201h164z" />
    <glyph glyph-name="uni0145" unicode="&#x145;" horiz-adv-x="656" 
d="M622 728h100q-68 -134 -108 -318l-90 -422h-16l-328 610l-59 -280q-30 -140 -30 -249q0 -36 3 -69h-100q66 127 107 318l65 307l-54 100l1 3h213l240 -450l28 132q31 145 31 253q0 35 -3 65zM173 -283l-4 5q30 10 52.5 37t22.5 56q0 45 -61 64l73 71q37 -11 58.5 -36
t21.5 -57q0 -52 -50 -88q-49 -37 -113 -52z" />
    <glyph glyph-name="uni0146" unicode="&#x146;" horiz-adv-x="625" 
d="M604 429q0 -26 -8 -66l-77 -363h-188l80 374q7 31 7 52q0 44 -37 44q-25 0 -53 -30q-70 -75 -147 -440h-188l111 521l192 41h4l-42 -199h8q41 105 89.5 149t116.5 44q132 0 132 -127zM150 -283l-4 5q30 10 52.5 37t22.5 56q0 45 -61 64l73 71q37 -11 58.5 -36t21.5 -57
q0 -52 -50 -88q-49 -37 -113 -52z" />
    <glyph glyph-name="Ncaron" unicode="&#x147;" horiz-adv-x="656" 
d="M622 728h100q-68 -134 -108 -318l-90 -422h-16l-328 610l-59 -280q-30 -140 -30 -249q0 -36 3 -69h-100q66 127 107 318l65 307l-54 100l1 3h213l240 -450l28 132q31 145 31 253q0 35 -3 65zM657 980l6 -5l-221 -191h-6l-135 191l6 5l153 -75z" />
    <glyph glyph-name="ncaron" unicode="&#x148;" horiz-adv-x="625" 
d="M604 429q0 -26 -8 -66l-77 -363h-188l80 374q7 31 7 52q0 44 -37 44q-25 0 -53 -30q-70 -75 -147 -440h-188l111 521l192 41h4l-42 -199h8q41 105 89.5 149t116.5 44q132 0 132 -127zM603 812l6 -5l-221 -201h-6l-135 201l6 5l153 -84z" />
    <glyph glyph-name="napostrophe" unicode="&#x149;" horiz-adv-x="699" 
d="M678 429q0 -26 -8 -66l-77 -363h-188l80 374q7 31 7 52q0 44 -37 44q-25 0 -53 -30q-70 -75 -147 -440h-188l107 501q-68 -63 -161 -85l-5 7q48 18 76 51.5t28 72.5q0 33 -21.5 62.5t-60.5 48.5l90 102q51 -16 81 -52t30 -83q0 -53 -36 -100l175 37h4l-42 -199h8
q41 105 89.5 149t116.5 44q132 0 132 -127z" />
    <glyph glyph-name="Eng" unicode="&#x14a;" horiz-adv-x="656" 
d="M622 728h100q-68 -134 -108 -318l-95 -445q-36 -169 -183 -193l-1 12q128 26 164 183l6 27l-325 604l-59 -280q-30 -140 -30 -249q0 -36 3 -69h-100q66 127 107 318l65 307l-54 100l1 3h213l240 -450l28 132q31 145 31 253q0 35 -3 65z" />
    <glyph glyph-name="eng" unicode="&#x14b;" horiz-adv-x="625" 
d="M604 429q0 -26 -8 -66l-68 -323q-15 -80 -75 -139.5t-134.5 -89.5t-157.5 -39l-1 12q62 16 109.5 80.5t66.5 155.5l75 354q7 31 7 53q0 43 -37 43q-25 0 -53 -30q-70 -75 -147 -440h-188l111 521l192 41h4l-42 -199h8q41 105 89.5 149t116.5 44q132 0 132 -127z" />
    <glyph glyph-name="Omacron" unicode="&#x14c;" horiz-adv-x="824" 
d="M48 304q-3 181 119.5 310t300.5 126q155 0 250.5 -85.5t95.5 -230.5q3 -181 -119.5 -310t-300.5 -126q-155 0 -250.5 85.5t-95.5 230.5zM608 519q0 205 -127 205q-70 0 -123 -80q-51 -79 -78 -200q-26 -122 -26 -234q0 -206 129 -206q71 0 122 80q52 82 77 200
q26 122 26 235zM340 832l12 52h327l-12 -52h-327z" />
    <glyph glyph-name="omacron" unicode="&#x14d;" horiz-adv-x="629" 
d="M25 229q-2 135 91 232t224 95q117 0 190.5 -66t73.5 -175q2 -135 -91 -232.5t-224 -94.5q-117 0 -190.5 66t-73.5 175zM414 407q0 135 -63 135q-41 0 -73 -68q-30 -64 -47 -163q-16 -93 -16 -176q0 -133 62 -133q42 0 73 67q32 67 48 162q16 93 16 176zM219 654l12 52
h315l-12 -52h-315z" />
    <glyph glyph-name="Obreve" unicode="&#x14e;" horiz-adv-x="824" 
d="M48 304q-3 181 119.5 310t300.5 126q155 0 250.5 -85.5t95.5 -230.5q3 -181 -119.5 -310t-300.5 -126q-155 0 -250.5 85.5t-95.5 230.5zM608 519q0 205 -127 205q-70 0 -123 -80q-51 -79 -78 -200q-26 -122 -26 -234q0 -206 129 -206q71 0 122 80q52 82 77 200
q26 122 26 235zM355 971l9 3q15 -38 55.5 -61t95.5 -23t105.5 23.5t80.5 60.5l9 -3q-82 -175 -215 -175q-131 0 -140 175z" />
    <glyph glyph-name="obreve" unicode="&#x14f;" horiz-adv-x="629" 
d="M25 229q-2 135 91 232t224 95q117 0 190.5 -66t73.5 -175q2 -135 -91 -232.5t-224 -94.5q-117 0 -190.5 66t-73.5 175zM414 407q0 135 -63 135q-41 0 -73 -68q-30 -64 -47 -163q-16 -93 -16 -176q0 -133 62 -133q42 0 73 67q32 67 48 162q16 93 16 176zM229 793l9 3
q15 -38 55.5 -61t95.5 -23t105.5 23.5t80.5 60.5l9 -3q-82 -175 -215 -175q-131 0 -140 175z" />
    <glyph glyph-name="Ohungarumlaut" unicode="&#x150;" horiz-adv-x="824" 
d="M48 304q-3 181 119.5 310t300.5 126q155 0 250.5 -85.5t95.5 -230.5q3 -181 -119.5 -310t-300.5 -126q-155 0 -250.5 85.5t-95.5 230.5zM608 519q0 205 -127 205q-70 0 -123 -80q-51 -79 -78 -200q-26 -122 -26 -234q0 -206 129 -206q71 0 122 80q52 82 77 200
q26 122 26 235zM392 784l-7 5l98 191h150zM562 784l-7 5l98 191h150z" />
    <glyph glyph-name="ohungarumlaut" unicode="&#x151;" horiz-adv-x="629" 
d="M25 229q-2 135 91 232t224 95q117 0 190.5 -66t73.5 -175q2 -135 -91 -232.5t-224 -94.5q-117 0 -190.5 66t-73.5 175zM414 407q0 135 -63 135q-41 0 -73 -68q-30 -64 -47 -163q-16 -93 -16 -176q0 -133 62 -133q42 0 73 67q32 67 48 162q16 93 16 176zM265 606l-7 5
l100 201h150zM435 606l-7 5l100 201h150z" />
    <glyph glyph-name="OE" unicode="&#x152;" horiz-adv-x="1026" 
d="M1071 728l-10 -114h-2q-84 96 -217 96h-25l-68 -322h10q155 0 192 48h2l-26 -122h-2q-19 56 -170 56h-10l-74 -352h30q138 0 272 106h2l-50 -124h-533q-159 0 -253.5 74t-94.5 208q-3 202 144.5 325t374.5 121h508zM467 16l146 687q-19 9 -70 9q-88 0 -154 -75
q-67 -76 -101 -190q-35 -116 -35 -228q0 -97 38 -150t110 -53h66z" />
    <glyph glyph-name="oe" unicode="&#x153;" horiz-adv-x="924" 
d="M875 142l10 -7q-121 -147 -269 -147q-97 0 -152 58q-73 -58 -175 -58q-117 0 -190.5 66t-73.5 175q-2 135 91 232t224 95q124 0 188 -73q87 73 210 73q84 0 135 -32t51 -86q0 -68 -84.5 -120t-245.5 -82v-22q0 -154 110 -154q89 0 171 82zM414 407q0 135 -63 135
q-41 0 -73 -68q-30 -64 -47 -163q-16 -93 -16 -176q0 -133 62 -133q42 0 73 67q32 67 48 162q16 93 16 176zM595 252q91 27 143.5 87.5t52.5 136.5q0 64 -45 64q-42 2 -76 -44t-52 -110.5t-23 -133.5z" />
    <glyph glyph-name="Racute" unicode="&#x154;" horiz-adv-x="684" 
d="M484 368l145 -195l-45 -215h-10l-256 358q-13 18 -33 18h-5l-72 -334h-202l155 728h263q136 0 205.5 -40t69.5 -116q0 -79 -61 -131t-154 -73zM512 602q0 110 -104 110h-48l-77 -357q20 -5 39 -5q67 -2 129.5 72t60.5 180zM427 784l-7 5l90 191h178z" />
    <glyph glyph-name="racute" unicode="&#x155;" horiz-adv-x="427" 
d="M485 550l-75 -140q-20 16 -50 16q-32 0 -56 -27q-23 -26 -53 -118q-29 -89 -70 -281h-188l111 521l192 41h4l-42 -199h5q37 100 80.5 146.5t99.5 46.5q18 0 42 -6zM277 606l-7 5l96 201h164z" />
    <glyph glyph-name="uni0156" unicode="&#x156;" horiz-adv-x="684" 
d="M484 368l145 -195l-45 -215h-10l-256 358q-13 18 -33 18h-5l-72 -334h-202l155 728h263q136 0 205.5 -40t69.5 -116q0 -79 -61 -131t-154 -73zM512 602q0 110 -104 110h-48l-77 -357q20 -5 39 -5q67 -2 129.5 72t60.5 180zM199 -283l-4 5q30 10 52.5 37t22.5 56
q0 45 -61 64l73 71q37 -11 58.5 -36t21.5 -57q0 -52 -50 -88q-49 -37 -113 -52z" />
    <glyph glyph-name="uni0157" unicode="&#x157;" horiz-adv-x="427" 
d="M485 550l-75 -140q-20 16 -50 16q-32 0 -56 -27q-23 -26 -53 -118q-29 -89 -70 -281h-188l111 521l192 41h4l-42 -199h5q37 100 80.5 146.5t99.5 46.5q18 0 42 -6zM-26 -283l-4 5q30 10 52.5 37t22.5 56q0 45 -61 64l73 71q37 -11 58.5 -36t21.5 -57q0 -52 -50 -88
q-49 -37 -113 -52z" />
    <glyph glyph-name="Rcaron" unicode="&#x158;" horiz-adv-x="684" 
d="M484 368l145 -195l-45 -215h-10l-256 358q-13 18 -33 18h-5l-72 -334h-202l155 728h263q136 0 205.5 -40t69.5 -116q0 -79 -61 -131t-154 -73zM512 602q0 110 -104 110h-48l-77 -357q20 -5 39 -5q67 -2 129.5 72t60.5 180zM664 980l6 -5l-221 -191h-6l-135 191l6 5
l153 -75z" />
    <glyph glyph-name="rcaron" unicode="&#x159;" horiz-adv-x="427" 
d="M485 550l-75 -140q-20 16 -50 16q-32 0 -56 -27q-23 -26 -53 -118q-29 -89 -70 -281h-188l111 521l192 41h4l-42 -199h5q37 100 80.5 146.5t99.5 46.5q18 0 42 -6zM516 812l6 -5l-221 -201h-6l-135 201l6 5l153 -84z" />
    <glyph glyph-name="Sacute" unicode="&#x15a;" horiz-adv-x="553" 
d="M-1 54l45 101q19 -63 82 -107t130 -44q60 0 94.5 35t34.5 91q0 39 -24.5 67t-82.5 66q-3 1 -18 11l-41 27q-33 21 -65 48q-73 63 -73 157q0 106 73.5 170t191.5 64q66 0 126 -22q61 -22 89 -40l-39 -91q-30 55 -75 96q-44 41 -106 41q-58 0 -92 -35t-34 -88q0 -29 17 -55
q16 -23 36.5 -39t62.5 -43l42 -27q46 -30 71 -52q77 -62 77 -156q0 -107 -75.5 -174t-196.5 -67q-59 0 -144 25.5t-106 40.5zM337 784l-7 5l90 191h178z" />
    <glyph glyph-name="sacute" unicode="&#x15b;" horiz-adv-x="448" 
d="M-21 39l36 85q22 -53 72 -87.5t109 -34.5q43 0 70 21.5t27 56.5q0 33 -20.5 55t-69.5 49l-36 20q-44 24 -80 65q-35 43 -35 101q0 82 59.5 134t151.5 52q90 0 182 -49l-30 -74q-60 109 -157 109q-39 0 -65.5 -21.5t-26.5 -54.5q0 -32 20 -53t70 -50l36 -21
q114 -67 114 -166q0 -84 -60.5 -136t-156.5 -52q-61 0 -122 18q-63 19 -88 33zM253 606l-7 5l96 201h164z" />
    <glyph glyph-name="Scircumflex" unicode="&#x15c;" horiz-adv-x="553" 
d="M-1 54l45 101q19 -63 82 -107t130 -44q60 0 94.5 35t34.5 91q0 39 -24.5 67t-82.5 66q-3 1 -18 11l-41 27q-33 21 -65 48q-73 63 -73 157q0 106 73.5 170t191.5 64q66 0 126 -22q61 -22 89 -40l-39 -91q-30 55 -75 96q-44 41 -106 41q-58 0 -92 -35t-34 -88q0 -29 17 -55
q16 -23 36.5 -39t62.5 -43l42 -27q46 -30 71 -52q77 -62 77 -156q0 -107 -75.5 -174t-196.5 -67q-59 0 -144 25.5t-106 40.5zM540 789l-6 -5l-153 75l-197 -75l-6 5l221 191h6z" />
    <glyph glyph-name="scircumflex" unicode="&#x15d;" horiz-adv-x="448" 
d="M-21 39l36 85q22 -53 72 -87.5t109 -34.5q43 0 70 21.5t27 56.5q0 33 -20.5 55t-69.5 49l-36 20q-44 24 -80 65q-35 43 -35 101q0 82 59.5 134t151.5 52q90 0 182 -49l-30 -74q-60 109 -157 109q-39 0 -65.5 -21.5t-26.5 -54.5q0 -32 20 -53t70 -50l36 -21
q114 -67 114 -166q0 -84 -60.5 -136t-156.5 -52q-61 0 -122 18q-63 19 -88 33zM456 611l-6 -5l-153 84l-197 -84l-6 5l221 201h6z" />
    <glyph glyph-name="Scedilla" unicode="&#x15e;" horiz-adv-x="553" 
d="M215 601q0 -29 17 -55q16 -23 36.5 -39t62.5 -43l42 -27q46 -30 71 -52q77 -62 77 -156q0 -105 -74 -172t-191 -69l-20 -30q62 -4 97.5 -30t35.5 -64q0 -40 -38.5 -71t-95.5 -31q-33 0 -69 10q-36 9 -53 26l5 9q9 -5 35.5 -10.5t44.5 -5.5q29 0 47 14t18 35q0 40 -72 40
h-26l71 108q-57 1 -137.5 26.5t-99.5 39.5l45 101q19 -63 82 -107t130 -44q60 0 94.5 35t34.5 91q0 39 -24.5 67t-82.5 66q-3 1 -18 11l-41 27q-33 21 -65 48q-73 63 -73 157q0 106 73.5 170t191.5 64q66 0 126 -22q61 -22 89 -40l-39 -91q-30 55 -75 96q-44 41 -106 41
q-58 0 -92 -35t-34 -88z" />
    <glyph glyph-name="scedilla" unicode="&#x15f;" horiz-adv-x="448" 
d="M166 466q0 -32 20 -53t70 -50l36 -21q114 -67 114 -166q0 -82 -57 -134q-57 -51 -150 -54l-20 -30q62 -4 97.5 -30t35.5 -64q0 -40 -38.5 -71t-95.5 -31q-33 0 -69 10q-36 9 -53 26l5 9q9 -5 35.5 -10.5t44.5 -5.5q29 0 47 14t18 35q0 40 -72 40h-26l71 108
q-55 1 -117 19q-58 18 -83 32l36 85q22 -53 72 -87.5t109 -34.5q43 0 70 21.5t27 56.5q0 33 -20.5 55t-69.5 49l-36 20q-44 24 -80 65q-35 43 -35 101q0 82 59.5 134t151.5 52q90 0 182 -49l-30 -74q-60 109 -157 109q-39 0 -65.5 -21.5t-26.5 -54.5z" />
    <glyph glyph-name="Scaron" unicode="&#x160;" horiz-adv-x="553" 
d="M-1 54l45 101q19 -63 82 -107t130 -44q60 0 94.5 35t34.5 91q0 39 -24.5 67t-82.5 66q-3 1 -18 11l-41 27q-33 21 -65 48q-73 63 -73 157q0 106 73.5 170t191.5 64q66 0 126 -22q61 -22 89 -40l-39 -91q-30 55 -75 96q-44 41 -106 41q-58 0 -92 -35t-34 -88q0 -29 17 -55
q16 -23 36.5 -39t62.5 -43l42 -27q46 -30 71 -52q77 -62 77 -156q0 -107 -75.5 -174t-196.5 -67q-59 0 -144 25.5t-106 40.5zM574 980l6 -5l-221 -191h-6l-135 191l6 5l153 -75z" />
    <glyph glyph-name="scaron" unicode="&#x161;" horiz-adv-x="448" 
d="M-21 39l36 85q22 -53 72 -87.5t109 -34.5q43 0 70 21.5t27 56.5q0 33 -20.5 55t-69.5 49l-36 20q-44 24 -80 65q-35 43 -35 101q0 82 59.5 134t151.5 52q90 0 182 -49l-30 -74q-60 109 -157 109q-39 0 -65.5 -21.5t-26.5 -54.5q0 -32 20 -53t70 -50l36 -21
q114 -67 114 -166q0 -84 -60.5 -136t-156.5 -52q-61 0 -122 18q-63 19 -88 33zM492 812l6 -5l-221 -201h-6l-135 201l6 5l153 -84z" />
    <glyph glyph-name="uni0162" unicode="&#x162;" horiz-adv-x="583" 
d="M121 728h534l-12 -138h-2q-48 70 -78 94q-31 26 -67 26h-11l-150 -710h-202l150 710h-9q-36 0 -79 -26q-37 -22 -118 -94h-2zM349 -136q0 -40 -38.5 -71t-95.5 -31q-33 0 -69 10q-36 9 -53 26l5 9q9 -5 35.5 -10.5t44.5 -5.5q29 0 47 14t18 35q0 40 -72 40h-26l79 120h20
l-28 -42q62 -4 97.5 -30t35.5 -64z" />
    <glyph glyph-name="uni0163" unicode="&#x163;" horiz-adv-x="395" 
d="M316 522l-84 -398q-5 -25 -5 -34q0 -34 33 -34q37 0 105 68l11 -10q-98 -114 -188 -125l-21 -31q62 -4 97.5 -30t35.5 -64q0 -40 -38.5 -71t-95.5 -31q-33 0 -69 10q-36 9 -53 26l5 9q9 -5 35.5 -10.5t44.5 -5.5q29 0 47 14t18 35q0 40 -72 40h-26l71 108
q-126 1 -126 105q0 16 5 41l82 388h-56l3 17l58 5l226 196h4l-42 -196h129l-17 -22h-117z" />
    <glyph glyph-name="Tcaron" unicode="&#x164;" horiz-adv-x="583" 
d="M121 728h534l-12 -138h-2q-48 70 -78 94q-31 26 -67 26h-11l-150 -710h-202l150 710h-9q-36 0 -79 -26q-37 -22 -118 -94h-2zM616 980l6 -5l-221 -191h-6l-135 191l6 5l153 -75z" />
    <glyph glyph-name="tcaron" unicode="&#x165;" horiz-adv-x="395" 
d="M316 522l-84 -398q-5 -25 -5 -34q0 -34 33 -34q37 0 105 68l11 -10q-108 -126 -206 -126q-128 0 -128 105q0 26 4 41l82 388h-56l3 17l58 5l226 196h4l-42 -196h129l-17 -22h-117zM395 584l-4 5q30 10 52.5 37t22.5 56q0 45 -61 64l73 71q37 -11 58.5 -36t21.5 -57
q0 -51 -50 -89q-50 -36 -113 -51z" />
    <glyph glyph-name="Tbar" unicode="&#x166;" horiz-adv-x="576" 
d="M127 728h514l-12 -138h-2q-36 53 -54 74q-37 46 -81 46h-11l-68 -325h103l-2 -14h-104l-79 -371h-202l79 371h-104l2 14h105l68 325h-9q-36 0 -70 -24q-34 -22 -117 -96h-2z" />
    <glyph glyph-name="tbar" unicode="&#x167;" horiz-adv-x="403" 
d="M434 522h-117l-39 -187h145l-4 -18h-145l-41 -193q-5 -25 -5 -34q0 -34 33 -34q37 0 105 68l11 -10q-108 -126 -206 -126q-128 0 -128 105q0 26 4 41l39 183h-57l4 18h57l39 187h-56l3 17l58 5l226 196h4l-42 -196h129z" />
    <glyph glyph-name="Utilde" unicode="&#x168;" horiz-adv-x="680" 
d="M51 208q0 45 10 89l92 431h202l-96 -449q-11 -55 -11 -95q0 -75 35 -116.5t103 -41.5q72 0 125.5 61.5t77.5 179.5l30 143q31 146 31 255q0 33 -3 63h100q-71 -138 -108 -318l-29 -138q-30 -146 -99.5 -215t-191.5 -69q-131 0 -199.5 56t-68.5 164zM307 796l-11 3
q19 73 54 114t80 41q38 0 93 -35q45 -27 68 -27q59 0 92 62l11 -3q-19 -72 -54.5 -113.5t-80.5 -41.5q-37 0 -93 35q-47 27 -67 27q-59 0 -92 -62z" />
    <glyph glyph-name="utilde" unicode="&#x169;" horiz-adv-x="623" 
d="M628 562h4l-119 -562h-188l39 181h-6q-41 -105 -90 -149t-118 -44q-132 0 -132 127q0 26 8 66l72 340l192 41h4l-84 -392q-7 -32 -7 -51q0 -45 38 -45q25 0 52 29q68 72 143 418zM210 618l-11 3q19 73 54 114t80 41q38 0 93 -35q45 -27 68 -27q59 0 92 62l11 -3
q-19 -72 -54.5 -113.5t-80.5 -41.5q-37 0 -93 35q-47 27 -67 27q-59 0 -92 -62z" />
    <glyph glyph-name="Umacron" unicode="&#x16a;" horiz-adv-x="680" 
d="M51 208q0 45 10 89l92 431h202l-96 -449q-11 -55 -11 -95q0 -75 35 -116.5t103 -41.5q72 0 125.5 61.5t77.5 179.5l30 143q31 146 31 255q0 33 -3 63h100q-71 -138 -108 -318l-29 -138q-30 -146 -99.5 -215t-191.5 -69q-131 0 -199.5 56t-68.5 164zM323 832l12 52h327
l-12 -52h-327z" />
    <glyph glyph-name="umacron" unicode="&#x16b;" horiz-adv-x="623" 
d="M628 562h4l-119 -562h-188l39 181h-6q-41 -105 -90 -149t-118 -44q-132 0 -132 127q0 26 8 66l72 340l192 41h4l-84 -392q-7 -32 -7 -51q0 -45 38 -45q25 0 52 29q68 72 143 418zM231 654l12 52h315l-12 -52h-315z" />
    <glyph glyph-name="Ubreve" unicode="&#x16c;" horiz-adv-x="680" 
d="M51 208q0 45 10 89l92 431h202l-96 -449q-11 -55 -11 -95q0 -75 35 -116.5t103 -41.5q72 0 125.5 61.5t77.5 179.5l30 143q31 146 31 255q0 33 -3 63h100q-71 -138 -108 -318l-29 -138q-30 -146 -99.5 -215t-191.5 -69q-131 0 -199.5 56t-68.5 164zM338 971l9 3
q15 -38 55.5 -61t95.5 -23t105.5 23.5t80.5 60.5l9 -3q-82 -175 -215 -175q-131 0 -140 175z" />
    <glyph glyph-name="ubreve" unicode="&#x16d;" horiz-adv-x="623" 
d="M628 562h4l-119 -562h-188l39 181h-6q-41 -105 -90 -149t-118 -44q-132 0 -132 127q0 26 8 66l72 340l192 41h4l-84 -392q-7 -32 -7 -51q0 -45 38 -45q25 0 52 29q68 72 143 418zM241 793l9 3q15 -38 55.5 -61t95.5 -23t105.5 23.5t80.5 60.5l9 -3q-82 -175 -215 -175
q-131 0 -140 175z" />
    <glyph glyph-name="Uring" unicode="&#x16e;" horiz-adv-x="680" 
d="M51 208q0 45 10 89l92 431h202l-96 -449q-11 -55 -11 -95q0 -75 35 -116.5t103 -41.5q72 0 125.5 61.5t77.5 179.5l30 143q31 146 31 255q0 33 -3 63h100q-71 -138 -108 -318l-29 -138q-30 -146 -99.5 -215t-191.5 -69q-131 0 -199.5 56t-68.5 164zM366 893
q0 50 36.5 79.5t96.5 29.5t96.5 -29.5t36.5 -79.5t-36.5 -79.5t-96.5 -29.5t-96.5 29.5t-36.5 79.5zM562 893q0 44 -16.5 69.5t-46.5 25.5t-46.5 -25.5t-16.5 -69.5t16.5 -69.5t46.5 -25.5t46.5 25.5t16.5 69.5z" />
    <glyph glyph-name="uring" unicode="&#x16f;" horiz-adv-x="623" 
d="M628 562h4l-119 -562h-188l39 181h-6q-41 -105 -90 -149t-118 -44q-132 0 -132 127q0 26 8 66l72 340l192 41h4l-84 -392q-7 -32 -7 -51q0 -45 38 -45q25 0 52 29q68 72 143 418zM268 715q0 50 36.5 79.5t96.5 29.5t96.5 -29.5t36.5 -79.5t-36.5 -79.5t-96.5 -29.5
t-96.5 29.5t-36.5 79.5zM464 715q0 44 -16.5 69.5t-46.5 25.5t-46.5 -25.5t-16.5 -69.5t16.5 -69.5t46.5 -25.5t46.5 25.5t16.5 69.5z" />
    <glyph glyph-name="Uhungarumlaut" unicode="&#x170;" horiz-adv-x="680" 
d="M51 208q0 45 10 89l92 431h202l-96 -449q-11 -55 -11 -95q0 -75 35 -116.5t103 -41.5q72 0 125.5 61.5t77.5 179.5l30 143q31 146 31 255q0 33 -3 63h100q-71 -138 -108 -318l-29 -138q-30 -146 -99.5 -215t-191.5 -69q-131 0 -199.5 56t-68.5 164zM375 784l-7 5l98 191
h150zM545 784l-7 5l98 191h150z" />
    <glyph glyph-name="uhungarumlaut" unicode="&#x171;" horiz-adv-x="623" 
d="M628 562h4l-119 -562h-188l39 181h-6q-41 -105 -90 -149t-118 -44q-132 0 -132 127q0 26 8 66l72 340l192 41h4l-84 -392q-7 -32 -7 -51q0 -45 38 -45q25 0 52 29q68 72 143 418zM277 606l-7 5l100 201h150zM447 606l-7 5l100 201h150z" />
    <glyph glyph-name="Uogonek" unicode="&#x172;" horiz-adv-x="680" 
d="M647 728h100q-71 -138 -108 -318l-29 -138q-27 -128 -83 -196.5t-151 -83.5q-43 -37 -61.5 -65.5t-18.5 -61.5q0 -49 55 -49q23 0 61 12l2 -5q-67 -61 -144 -61q-42 0 -67.5 20t-25.5 53q0 91 159 153h-17q-131 0 -199.5 56t-68.5 164q0 45 10 89l92 431h202l-96 -449
q-11 -55 -11 -95q0 -75 35 -116.5t103 -41.5q72 0 125.5 61.5t77.5 179.5l30 143q31 146 31 255q0 33 -3 63z" />
    <glyph glyph-name="uogonek" unicode="&#x173;" horiz-adv-x="623" 
d="M377 -135q0 -49 55 -49q23 0 61 12l2 -5q-67 -61 -144 -61q-42 0 -67.5 20t-25.5 53q0 99 190 165h-123l39 181h-6q-41 -105 -90 -149t-118 -44q-132 0 -132 127q0 26 8 66l72 340l192 41h4l-84 -392q-7 -32 -7 -51q0 -45 38 -45q25 0 52 29q68 72 143 418l192 41h4
l-119 -562h-47q-49 -41 -69 -70.5t-20 -64.5z" />
    <glyph glyph-name="Wcircumflex" unicode="&#x174;" horiz-adv-x="856" 
d="M870 728h91q-43 -60 -83 -126q-26 -42 -112 -194l-244 -432h-5l-66 436l-248 -436h-4l-106 752h205l62 -437l249 437h4l66 -434l67 120q65 114 89 184q27 77 35 130zM805 789l-6 -5l-153 75l-197 -75l-6 5l221 191h6z" />
    <glyph glyph-name="wcircumflex" unicode="&#x175;" horiz-adv-x="710" 
d="M698 544h80q-54 -76 -89 -130l-117 -189l-153 -249h-4l-56 309l-192 -309h-4l-106 568h188l58 -314l194 314h4l55 -311q117 193 142 311zM694 611l-6 -5l-153 84l-197 -84l-6 5l221 201h6z" />
    <glyph glyph-name="Ycircumflex" unicode="&#x176;" horiz-adv-x="626" 
d="M501 431l-82 -115l-66 -316h-202l67 321l-121 407h210l112 -378l65 92q118 166 144 286h91q-101 -132 -218 -297zM637 789l-6 -5l-153 75l-197 -75l-6 5l221 191h6z" />
    <glyph glyph-name="ycircumflex" unicode="&#x177;" horiz-adv-x="475" 
d="M455 544h84q-53 -74 -85 -124q-12 -19 -28.5 -45t-41.5 -66t-43 -69l-199 -321q-56 -90 -113 -121.5t-137 -31.5l27 86q30 -14 63 -14q41 0 79 22t62 62l39 62l-108 560h188l63 -329l20 33q104 167 130 296zM516 611l-6 -5l-153 84l-197 -84l-6 5l221 201h6z" />
    <glyph glyph-name="Ydieresis" unicode="&#x178;" horiz-adv-x="626" 
d="M501 431l-82 -115l-66 -316h-202l67 321l-121 407h210l112 -378l65 92q118 166 144 286h91q-101 -132 -218 -297zM343 784l-76 100l110 86l76 -100zM573 784l-76 100l110 86l76 -100z" />
    <glyph glyph-name="Zacute" unicode="&#x179;" horiz-adv-x="586" 
d="M663 728l-1 -4l-461 -706h25q98 0 165 23q65 22 146 83h2l-50 -124h-536l1 4l461 706h-10q-95 0 -166 -23q-69 -23 -138 -73h-2l38 114h526zM391 784l-7 5l90 191h178z" />
    <glyph glyph-name="zacute" unicode="&#x17a;" horiz-adv-x="452" 
d="M494 544l-1 -4l-320 -523q119 3 217 43h3l-24 -60h-414l1 4l322 525q-124 -3 -211 -41h-3l23 56h407zM281 606l-7 5l96 201h164z" />
    <glyph glyph-name="Zdotaccent" unicode="&#x17b;" horiz-adv-x="586" 
d="M663 728l-1 -4l-461 -706h25q98 0 165 23q65 22 146 83h2l-50 -124h-536l1 4l461 706h-10q-95 0 -166 -23q-69 -23 -138 -73h-2l38 114h526zM416 784l-92 120l132 104l92 -120z" />
    <glyph glyph-name="zdotaccent" unicode="&#x17c;" horiz-adv-x="452" 
d="M494 544l-1 -4l-320 -523q119 3 217 43h3l-24 -60h-414l1 4l322 525q-124 -3 -211 -41h-3l23 56h407zM306 606l-92 120l132 104l92 -120z" />
    <glyph glyph-name="Zcaron" unicode="&#x17d;" horiz-adv-x="586" 
d="M663 728l-1 -4l-461 -706h25q98 0 165 23q65 22 146 83h2l-50 -124h-536l1 4l461 706h-10q-95 0 -166 -23q-69 -23 -138 -73h-2l38 114h526zM628 980l6 -5l-221 -191h-6l-135 191l6 5l153 -75z" />
    <glyph glyph-name="zcaron" unicode="&#x17e;" horiz-adv-x="452" 
d="M494 544l-1 -4l-320 -523q119 3 217 43h3l-24 -60h-414l1 4l322 525q-124 -3 -211 -41h-3l23 56h407zM520 812l6 -5l-221 -201h-6l-135 201l6 5l153 -84z" />
    <glyph glyph-name="longs" unicode="&#x17f;" horiz-adv-x="311" 
d="M-6 0l132 620q19 93 79.5 143.5t152.5 50.5q114 0 189 -67l-11 -12q-44 25 -93 25q-46 0 -78 -28.5t-44 -81.5l-139 -650h-188z" />
    <glyph glyph-name="florin" unicode="&#x192;" horiz-adv-x="401" 
d="M266 564l-27 -190h158l-5 -18h-155l-54 -384q-25 -186 -152 -186q-55 0 -104 35l6 12q40 -23 85 -23q49 0 77.5 41t40.5 129l53 376h-145v18h147l28 198q25 186 152 186q55 0 104 -35l-6 -12q-40 23 -85 23q-49 0 -77.5 -41t-40.5 -129z" />
    <glyph glyph-name="Aringacute" unicode="&#x1fa;" horiz-adv-x="631" 
d="M610 1040l-220 -106l-7 5l49 101h178zM438 691l140 -691h-207l-47 232h-204q-44 -80 -61 -133q-16 -51 -16 -99h-112q57 74 102 140q37 52 118 182l233 371q-45 8 -70.5 36t-25.5 70q0 50 36.5 79.5t96.5 29.5t96.5 -29.5t36.5 -79.5q0 -47 -31.5 -75.5t-84.5 -32.5z
M421 704q30 0 46.5 25.5t16.5 69.5t-16.5 69.5t-46.5 25.5t-46.5 -25.5t-16.5 -69.5t16.5 -69.5t46.5 -25.5zM131 250h190l-47 232l-105 -168z" />
    <glyph glyph-name="aringacute" unicode="&#x1fb;" horiz-adv-x="662" 
d="M617 972l-210 -116l-7 5l53 111h164zM261 715q0 50 36.5 79.5t96.5 29.5t96.5 -29.5t36.5 -79.5t-36.5 -79.5t-96.5 -29.5t-96.5 29.5t-36.5 79.5zM331 715q0 -44 16.5 -69.5t46.5 -25.5t46.5 25.5t16.5 69.5t-16.5 69.5t-46.5 25.5t-46.5 -25.5t-16.5 -69.5zM547 61
q0 -31 39 -31q4 0 20 2l-1 -6q-59 -38 -142 -38q-101 0 -101 82q0 22 6 47l14 64h-8q-43 -103 -94 -148t-118 -45q-145 0 -145 184q-1 101 43.5 190t124 142.5t173.5 51.5q102 0 170 -57l119 63h4l-97 -456q-7 -29 -7 -45zM437 440q1 43 -18 71t-52 28q-49 0 -86 -58
q-37 -56 -58 -141q-21 -84 -21 -158q0 -108 51 -108q42 0 88 79q47 80 96 287z" />
    <glyph glyph-name="AEacute" unicode="&#x1fc;" horiz-adv-x="852" 
d="M897 728l-10 -114h-2q-84 96 -217 96h-25l-68 -322h10q155 0 192 48h2l-26 -122h-2q-19 56 -170 56h-10l-74 -352h30q138 0 272 106h2l-50 -124h-460l55 262h-206q-58 -94 -74 -149q-17 -60 -16 -113h-118l498 728h467zM151 280h199l90 423l-266 -389zM570 784l-7 5
l90 191h178z" />
    <glyph glyph-name="aeacute" unicode="&#x1fd;" horiz-adv-x="889" 
d="M840 142l10 -7q-122 -147 -269 -147q-81 0 -136 42.5t-72 120.5h-12q-41 -87 -89 -125t-110 -38q-145 0 -145 184q-1 101 43.5 190t124 142.5t173.5 51.5q98 0 163 -51q81 51 182 51q84 0 135 -32t51 -86q0 -68 -84.5 -120t-245.5 -82v-22q0 -154 110 -154q89 0 171 82z
M560 252q91 27 143.5 87.5t52.5 136.5q0 64 -45 64q-42 2 -76 -44t-52 -110.5t-23 -133.5zM367 208v8q0 114 66 205l4 19q1 43 -18 71t-52 28q-49 0 -86 -58q-37 -56 -58 -141q-21 -84 -21 -158q0 -108 51 -108q58 0 114 134zM540 606l-7 5l96 201h164z" />
    <glyph glyph-name="Oslashacute" unicode="&#x1fe;" horiz-adv-x="824" 
d="M814 424q3 -181 -119.5 -310t-300.5 -126q-149 0 -241 77l-112 -116l-16 12l113 117q-90 87 -90 226q-3 181 119.5 310t300.5 126q149 0 241 -77l112 116l16 -12l-113 -117q90 -87 90 -226zM254 210v-14l353 363q-13 165 -126 165q-70 0 -123 -80q-51 -79 -78 -200
q-26 -122 -26 -234zM608 519v13l-353 -363q13 -165 128 -165q71 0 122 80q52 82 77 200q26 122 26 235zM472 784l-7 5l90 191h178z" />
    <glyph glyph-name="oslashacute" unicode="&#x1ff;" horiz-adv-x="629" 
d="M604 315q2 -135 -91 -232.5t-224 -94.5q-103 0 -174 52l-83 -91l-14 11l83 91q-76 67 -76 178q-2 135 91 232t224 95q106 0 174 -52l83 91l14 -11l-83 -91q76 -67 76 -178zM216 177l198 217v13q0 135 -63 135q-36 2 -67 -57t-47.5 -141.5t-20.5 -166.5zM413 367
l-198 -217v-15q0 -133 62 -133q37 -2 68 57.5t47.5 142t20.5 165.5zM345 606l-7 5l96 201h164z" />
    <glyph glyph-name="uni0218" unicode="&#x218;" horiz-adv-x="553" 
d="M-1 54l45 101q19 -63 82 -107t130 -44q60 0 94.5 35t34.5 91q0 39 -24.5 67t-82.5 66q-3 1 -18 11l-41 27q-33 21 -65 48q-73 63 -73 157q0 106 73.5 170t191.5 64q66 0 126 -22q61 -22 89 -40l-39 -91q-30 55 -75 96q-44 41 -106 41q-58 0 -92 -35t-34 -88q0 -29 17 -55
q16 -23 36.5 -39t62.5 -43l42 -27q46 -30 71 -52q77 -62 77 -156q0 -107 -75.5 -174t-196.5 -67q-59 0 -144 25.5t-106 40.5zM153 -283l-4 5q30 10 52.5 37t22.5 56q0 45 -61 64l73 71q37 -11 58.5 -36t21.5 -57q0 -52 -50 -88q-49 -37 -113 -52z" />
    <glyph glyph-name="uni0219" unicode="&#x219;" horiz-adv-x="448" 
d="M-21 39l36 85q22 -53 72 -87.5t109 -34.5q43 0 70 21.5t27 56.5q0 33 -20.5 55t-69.5 49l-36 20q-44 24 -80 65q-35 43 -35 101q0 82 59.5 134t151.5 52q90 0 182 -49l-30 -74q-60 109 -157 109q-39 0 -65.5 -21.5t-26.5 -54.5q0 -32 20 -53t70 -50l36 -21
q114 -67 114 -166q0 -84 -60.5 -136t-156.5 -52q-61 0 -122 18q-63 19 -88 33zM91 -283l-4 5q30 10 52.5 37t22.5 56q0 45 -61 64l73 71q37 -11 58.5 -36t21.5 -57q0 -52 -50 -88q-49 -37 -113 -52z" />
    <glyph glyph-name="uni021A" unicode="&#x21a;" horiz-adv-x="583" 
d="M121 728h534l-12 -138h-2q-48 70 -78 94q-31 26 -67 26h-11l-150 -710h-202l150 710h-9q-36 0 -79 -26q-37 -22 -118 -94h-2zM133 -283l-4 5q30 10 52.5 37t22.5 56q0 45 -61 64l73 71q37 -11 58.5 -36t21.5 -57q0 -52 -50 -88q-49 -37 -113 -52z" />
    <glyph glyph-name="uni021B" unicode="&#x21b;" horiz-adv-x="395" 
d="M316 522l-84 -398q-5 -25 -5 -34q0 -34 33 -34q37 0 105 68l11 -10q-108 -126 -206 -126q-128 0 -128 105q0 26 4 41l82 388h-56l3 17l58 5l226 196h4l-42 -196h129l-17 -22h-117zM79 -283l-4 5q30 10 52.5 37t22.5 56q0 45 -61 64l73 71q37 -11 58.5 -36t21.5 -57
q0 -52 -50 -88q-49 -37 -113 -52z" />
    <glyph glyph-name="uni0237" unicode="&#x237;" horiz-adv-x="299" 
d="M-170 -228l-1 12q62 16 109 79.5t67 156.5l106 501l193 41h4l-111 -522q-17 -81 -76 -140.5t-132.5 -88.5t-158.5 -39z" />
    <glyph glyph-name="uni0259" unicode="&#x259;" horiz-adv-x="545" 
d="M522 328q2 -138 -96 -240.5t-240 -99.5q-84 0 -135 32t-51 86q0 68 84.5 120t245.5 82v22q0 154 -110 154q-89 0 -171 -82l-10 7q122 147 269 147q98 0 156 -61t58 -167zM329 292q-91 -27 -143.5 -87.5t-52.5 -136.5q0 -64 45 -64q42 -2 76 44t52 110t23 134z" />
    <glyph glyph-name="uni02BB" unicode="&#x2bb;" horiz-adv-x="181" 
d="M106 699q0 52 49 88q49 37 114 52l4 -5q-30 -10 -52.5 -37t-22.5 -56q0 -45 61 -64l-73 -71q-37 11 -58.5 36t-21.5 57z" />
    <glyph glyph-name="uni02BC" unicode="&#x2bc;" horiz-adv-x="188" 
d="M109 606l-4 5q30 10 52.5 37t22.5 56q0 45 -61 64l73 71q37 -11 58.5 -36t21.5 -57q0 -51 -50 -89q-50 -36 -113 -51z" />
    <glyph glyph-name="circumflex" unicode="&#x2c6;" horiz-adv-x="600" 
d="M460 611l-6 -5l-153 84l-197 -84l-6 5l221 201h6z" />
    <glyph glyph-name="caron" unicode="&#x2c7;" horiz-adv-x="600" 
d="M496 812l6 -5l-221 -201h-6l-135 201l6 5l153 -84z" />
    <glyph glyph-name="uni02C9" unicode="&#x2c9;" horiz-adv-x="600" 
d="M138 654l12 52h315l-12 -52h-315z" />
    <glyph glyph-name="breve" unicode="&#x2d8;" horiz-adv-x="600" 
d="M141 793l9 3q15 -38 55.5 -61t95.5 -23t105.5 23.5t80.5 60.5l9 -3q-82 -175 -215 -175q-131 0 -140 175z" />
    <glyph glyph-name="dotaccent" unicode="&#x2d9;" horiz-adv-x="600" 
d="M289 606l-92 120l132 104l92 -120z" />
    <glyph glyph-name="ring" unicode="&#x2da;" horiz-adv-x="600" 
d="M177 715q0 50 36.5 79.5t96.5 29.5t96.5 -29.5t36.5 -79.5t-36.5 -79.5t-96.5 -29.5t-96.5 29.5t-36.5 79.5zM373 715q0 44 -16.5 69.5t-46.5 25.5t-46.5 -25.5t-16.5 -69.5t16.5 -69.5t46.5 -25.5t46.5 25.5t16.5 69.5z" />
    <glyph glyph-name="ogonek" unicode="&#x2db;" horiz-adv-x="600" 
d="M240 -165q0 58 55 98q57 40 138 68h16q-50 -44 -70 -72.5t-20 -63.5q0 -49 55 -49q24 0 61 12l2 -5q-67 -61 -144 -61q-42 0 -67.5 20t-25.5 53z" />
    <glyph glyph-name="tilde" unicode="&#x2dc;" horiz-adv-x="600" 
d="M112 618l-11 3q19 73 54 114t80 41q38 0 93 -35q45 -27 68 -27q59 0 92 62l11 -3q-19 -72 -54.5 -113.5t-80.5 -41.5q-37 0 -93 35q-47 27 -67 27q-59 0 -92 -62z" />
    <glyph glyph-name="hungarumlaut" unicode="&#x2dd;" horiz-adv-x="600" 
d="M136 606l-7 5l100 201h150zM306 606l-7 5l100 201h150z" />
    <glyph glyph-name="gravecomb" unicode="&#x300;" 
d="M-200 606l-166 206h164l10 -201z" />
    <glyph glyph-name="acutecomb" unicode="&#x301;" 
d="M-243 606l-7 5l96 201h164z" />
    <glyph glyph-name="uni0302" unicode="&#x302;" 
d="M-40 611l-6 -5l-153 84l-197 -84l-6 5l221 201h6z" />
    <glyph glyph-name="tildecomb" unicode="&#x303;" 
d="M-388 618l-11 3q19 73 54 114t80 41q38 0 93 -35q45 -27 68 -27q59 0 92 62l11 -3q-19 -72 -54.5 -113.5t-80.5 -41.5q-37 0 -93 35q-47 27 -67 27q-59 0 -92 -62z" />
    <glyph glyph-name="uni0304" unicode="&#x304;" 
d="M-363 654l12 52h315l-12 -52h-315z" />
    <glyph glyph-name="uni0306" unicode="&#x306;" 
d="M-359 793l9 3q15 -38 55.5 -61t95.5 -23t105.5 23.5t80.5 60.5l9 -3q-82 -175 -215 -175q-131 0 -140 175z" />
    <glyph glyph-name="uni0307" unicode="&#x307;" 
d="M-220 606l-92 120l132 104l92 -120z" />
    <glyph glyph-name="uni0308" unicode="&#x308;" 
d="M-348 606l-76 100l110 86l76 -100zM-118 606l-76 100l110 86l76 -100z" />
    <glyph glyph-name="uni030A" unicode="&#x30a;" 
d="M-333 715q0 50 36.5 79.5t96.5 29.5t96.5 -29.5t36.5 -79.5t-36.5 -79.5t-96.5 -29.5t-96.5 29.5t-36.5 79.5zM-137 715q0 44 -16.5 69.5t-46.5 25.5t-46.5 -25.5t-16.5 -69.5t16.5 -69.5t46.5 -25.5t46.5 25.5t16.5 69.5z" />
    <glyph glyph-name="uni030B" unicode="&#x30b;" 
d="M-423 606l-7 5l100 201h150zM-253 606l-7 5l100 201h150z" />
    <glyph glyph-name="uni030C" unicode="&#x30c;" 
d="M-4 812l6 -5l-221 -201h-6l-135 201l6 5l153 -84z" />
    <glyph glyph-name="uni0312" unicode="&#x312;" 
d="M-292 699q0 52 50 88q49 37 113 52l4 -5q-30 -10 -52.5 -37t-22.5 -56q0 -45 61 -64l-73 -71q-37 11 -58.5 36t-21.5 57z" />
    <glyph glyph-name="uni0313" unicode="&#x313;" 
d="M-271 606l-4 5q30 10 52.5 37t22.5 56q0 45 -61 64l73 71q37 -11 58.5 -36t21.5 -57q0 -52 -49 -89q-49 -36 -114 -51z" />
    <glyph glyph-name="uni0326" unicode="&#x326;" 
d="M-301 -283l-4 5q30 10 52.5 37t22.5 56q0 45 -61 64l73 71q37 -11 58.5 -36t21.5 -57q0 -52 -49 -88q-49 -37 -114 -52z" />
    <glyph glyph-name="uni0327" unicode="&#x327;" 
d="M-120 -136q0 -40 -38.5 -71t-95.5 -31q-33 0 -69 10q-36 9 -53 26l5 9q9 -5 35.5 -10.5t44.5 -5.5q29 0 47 14t18 35q0 40 -72 40h-26l79 120h20l-28 -42q62 -4 97.5 -30t35.5 -64z" />
    <glyph glyph-name="uni0328" unicode="&#x328;" 
d="M-367 -165q0 58 55 98q57 40 138 68h16q-50 -44 -70 -72.5t-20 -63.5q0 -49 55 -49q23 0 61 12l2 -5q-67 -61 -144 -61q-42 0 -67.5 20t-25.5 53z" />
    <glyph glyph-name="uni037E" unicode="&#x37e;" horiz-adv-x="273" 
d="M-26 -146l-5 7q48 18 76 51.5t28 72.5q0 33 -21.5 62.5t-60.5 48.5l90 102q51 -16 81 -52t30 -83q1 -75 -68 -133.5t-150 -75.5zM144 306l-92 120l132 104l92 -120z" />
    <glyph glyph-name="uni0394" unicode="&#x394;" horiz-adv-x="568" 
d="M254 740l287 -740h-578l287 740h4zM477 18l-243 631l-245 -631h488z" />
    <glyph glyph-name="uni03A9" unicode="&#x3a9;" horiz-adv-x="808" 
d="M761 58l-18 -58h-287v26q116 85 171 176t55 199q0 142 -77 232.5t-202 90.5q-126 0 -202.5 -88.5t-76.5 -230.5q0 -105 54.5 -197t171.5 -182v-26h-287l-18 58q88 -20 201 -20h60q-125 100 -183 182q-57 82 -57 181q-2 145 95.5 243t241.5 96q152 0 244.5 -92.5
t92.5 -242.5q0 -99 -58 -184q-60 -86 -182 -183h60q113 0 201 20z" />
    <glyph glyph-name="uni03BC" unicode="&#x3bc;" horiz-adv-x="629" 
d="M634 562h4l-119 -562h-188l39 181h-6q-41 -105 -90 -149t-118 -44q-19 0 -24 1q17 -76 17 -122q0 -21 -3 -37l-9 -42h-188l83 393l72 340l192 41h4l-84 -392q-7 -32 -7 -51q0 -45 38 -45q25 0 52 29q68 72 143 418z" />
    <glyph glyph-name="pi" unicode="&#x3c0;" horiz-adv-x="695" 
d="M638 37l8 -12q-66 -37 -119 -37q-120 0 -120 146v368h-187v-76q0 -257 -28 -426h-48q28 147 28 428v74h-118v22h396q124 0 180 10l-18 -32h-157v-360q0 -130 93 -130q44 0 90 25z" />
    <glyph glyph-name="Wgrave" unicode="&#x1e80;" horiz-adv-x="856" 
d="M870 728h91q-43 -60 -83 -126q-26 -42 -112 -194l-244 -432h-5l-66 436l-248 -436h-4l-106 752h205l62 -437l249 437h4l66 -434l67 120q65 114 89 184q27 77 35 130zM645 784l-178 196h178l8 -191z" />
    <glyph glyph-name="wgrave" unicode="&#x1e81;" horiz-adv-x="710" 
d="M698 544h80q-54 -76 -89 -130l-117 -189l-153 -249h-4l-56 309l-192 -309h-4l-106 568h188l58 -314l194 314h4l55 -311q117 193 142 311zM534 606l-166 206h164l10 -201z" />
    <glyph glyph-name="Wacute" unicode="&#x1e82;" horiz-adv-x="856" 
d="M870 728h91q-43 -60 -83 -126q-26 -42 -112 -194l-244 -432h-5l-66 436l-248 -436h-4l-106 752h205l62 -437l249 437h4l66 -434l67 120q65 114 89 184q27 77 35 130zM602 784l-7 5l90 191h178z" />
    <glyph glyph-name="wacute" unicode="&#x1e83;" horiz-adv-x="710" 
d="M698 544h80q-54 -76 -89 -130l-117 -189l-153 -249h-4l-56 309l-192 -309h-4l-106 568h188l58 -314l194 314h4l55 -311q117 193 142 311zM491 606l-7 5l96 201h164z" />
    <glyph glyph-name="Wdieresis" unicode="&#x1e84;" horiz-adv-x="856" 
d="M870 728h91q-43 -60 -83 -126q-26 -42 -112 -194l-244 -432h-5l-66 436l-248 -436h-4l-106 752h205l62 -437l249 437h4l66 -434l67 120q65 114 89 184q27 77 35 130zM511 784l-76 100l110 86l76 -100zM741 784l-76 100l110 86l76 -100z" />
    <glyph glyph-name="wdieresis" unicode="&#x1e85;" horiz-adv-x="710" 
d="M698 544h80q-54 -76 -89 -130l-117 -189l-153 -249h-4l-56 309l-192 -309h-4l-106 568h188l58 -314l194 314h4l55 -311q117 193 142 311zM400 606l-76 100l110 86l76 -100zM630 606l-76 100l110 86l76 -100z" />
    <glyph glyph-name="uni1E9E" unicode="&#x1e9e;" horiz-adv-x="797" 
d="M765 222q0 -112 -89 -174q-88 -60 -229 -60q-116 0 -183 36l39 87q18 -47 51 -77t69 -30q56 0 92 64t36 143q0 76 -37 115.5t-117 46.5l-26 2l228 332q-57 16 -96 16q-147 0 -196 -228l-105 -495h-202l103 488q27 126 120 189q95 63 228 63q90 0 164 -20q76 -21 160 -59
l-175 -257q81 -14 123 -61t42 -121z" />
    <glyph glyph-name="Ygrave" unicode="&#x1ef2;" horiz-adv-x="626" 
d="M501 431l-82 -115l-66 -316h-202l67 321l-121 407h210l112 -378l65 92q118 166 144 286h91q-101 -132 -218 -297zM477 784l-178 196h178l8 -191z" />
    <glyph glyph-name="ygrave" unicode="&#x1ef3;" horiz-adv-x="475" 
d="M455 544h84q-53 -74 -85 -124q-12 -19 -28.5 -45t-41.5 -66t-43 -69l-199 -321q-56 -90 -113 -121.5t-137 -31.5l27 86q30 -14 63 -14q41 0 79 22t62 62l39 62l-108 560h188l63 -329l20 33q104 167 130 296zM356 606l-166 206h164l10 -201z" />
    <glyph glyph-name="uni200B" unicode="&#x200b;" 
 />
    <glyph glyph-name="endash" unicode="&#x2013;" horiz-adv-x="419" 
d="M21 305l4 18h390l-4 -18h-390z" />
    <glyph glyph-name="emdash" unicode="&#x2014;" horiz-adv-x="709" 
d="M21 305l4 18h680l-4 -18h-680z" />
    <glyph glyph-name="uni2015" unicode="&#x2015;" horiz-adv-x="709" 
d="M21 305l4 18h680l-4 -18h-680z" />
    <glyph glyph-name="quoteleft" unicode="&#x2018;" horiz-adv-x="241" 
d="M295 740l5 -7q-48 -18 -76 -51.5t-28 -72.5q0 -33 21.5 -62.5t60.5 -48.5l-90 -102q-51 16 -81 52t-30 83q-1 75 68 133.5t150 75.5z" />
    <glyph glyph-name="quoteright" unicode="&#x2019;" horiz-adv-x="238" 
d="M63 396l-5 7q48 18 76 51.5t28 72.5q0 33 -21.5 62.5t-60.5 48.5l90 102q51 -16 81 -52t30 -83q1 -75 -68 -133.5t-150 -75.5z" />
    <glyph glyph-name="quotesinglbase" unicode="&#x201a;" horiz-adv-x="247" 
d="M-39 -146l-5 7q48 18 76 51.5t28 72.5q0 33 -21.5 62.5t-60.5 48.5l90 102q51 -16 81 -52t30 -83q1 -75 -68 -133.5t-150 -75.5z" />
    <glyph glyph-name="quotedblleft" unicode="&#x201c;" horiz-adv-x="462" 
d="M295 740l5 -7q-48 -18 -76 -51.5t-28 -72.5q0 -33 21.5 -62.5t60.5 -48.5l-90 -102q-51 16 -81 52t-30 83q-1 75 68 133.5t150 75.5zM515 740l5 -7q-48 -18 -76 -51.5t-28 -72.5q0 -33 21.5 -62.5t60.5 -48.5l-90 -102q-51 16 -81 52t-30 83q-1 75 68 133.5t150 75.5z
" />
    <glyph glyph-name="quotedblright" unicode="&#x201d;" horiz-adv-x="457" 
d="M282 396l-5 7q48 18 76 51.5t28 72.5q0 33 -21.5 62.5t-60.5 48.5l90 102q51 -16 81 -52t30 -83q1 -75 -68 -133.5t-150 -75.5zM62 396l-5 7q48 18 76 51.5t28 72.5q0 33 -21.5 62.5t-60.5 48.5l90 102q51 -16 81 -52t30 -83q1 -75 -68 -133.5t-150 -75.5z" />
    <glyph glyph-name="quotedblbase" unicode="&#x201e;" horiz-adv-x="467" 
d="M-39 -146l-5 7q48 18 76 51.5t28 72.5q0 33 -21.5 62.5t-60.5 48.5l90 102q51 -16 81 -52t30 -83q1 -75 -68 -133.5t-150 -75.5zM181 -146l-5 7q48 18 76 51.5t28 72.5q0 33 -21.5 62.5t-60.5 48.5l90 102q51 -16 81 -52t30 -83q1 -75 -68 -133.5t-150 -75.5z" />
    <glyph glyph-name="dagger" unicode="&#x2020;" horiz-adv-x="442" 
d="M474 513l-11 -54l-193 21l-24 -203l-91 -427l-31 -36l-17 36l91 427l61 203l-200 -21l11 54l192 -21l31 248h54l-74 -248z" />
    <glyph glyph-name="daggerdbl" unicode="&#x2021;" horiz-adv-x="462" 
d="M281 480l-21 -203l-64 -203l200 21l-11 -54l-192 21l-31 -248h-54l74 248l-201 -21l11 54l193 -21l21 203l64 203l-200 -21l11 54l192 -21l31 248h54l-74 -248l201 21l-11 -54z" />
    <glyph glyph-name="bullet" unicode="&#x2022;" horiz-adv-x="353" 
d="M157 162l-110 144l158 124l110 -143z" />
    <glyph glyph-name="ellipsis" unicode="&#x2026;" horiz-adv-x="772" 
d="M64 -24l-92 120l132 104l92 -120zM328 -24l-92 120l132 104l92 -120zM592 -24l-92 120l132 104l92 -120z" />
    <glyph glyph-name="perthousand" unicode="&#x2030;" horiz-adv-x="1129" 
d="M81 526q0 89 52.5 148.5t136.5 59.5q73 0 117 -39t44 -107q0 -89 -52.5 -148.5t-136.5 -59.5q-73 0 -117 38.5t-44 107.5zM100 0l562 728h25l-562 -728h-25zM325 642q0 80 -44 80q-37 4 -66 -85t-28 -166q0 -79 44 -79q27 0 48 42q22 42 34 103q12 60 12 105zM356 140
q0 89 52.5 148.5t136.5 59.5q73 0 117 -39t44 -107q0 -89 -52.5 -148.5t-136.5 -59.5q-73 0 -117 38.5t-44 107.5zM736 140q0 89 52.5 148.5t136.5 59.5q73 0 117 -39t44 -107q0 -89 -52.5 -148.5t-136.5 -59.5q-73 0 -117 38.5t-44 107.5zM600 256q0 80 -44 80
q-37 4 -66 -85t-28 -166q0 -79 44 -79q27 0 48 42q22 42 34 103q12 60 12 105zM980 256q0 80 -44 80q-37 4 -66 -85t-28 -166q0 -79 44 -79q27 0 48 42q22 42 34 103q12 60 12 105z" />
    <glyph glyph-name="minute" unicode="&#x2032;" horiz-adv-x="195" 
d="M77 452l76 288h144l-210 -288h-10z" />
    <glyph glyph-name="second" unicode="&#x2033;" horiz-adv-x="355" 
d="M77 452l76 288h144l-210 -288h-10zM237 452l76 288h144l-210 -288h-10z" />
    <glyph glyph-name="guilsinglleft" unicode="&#x2039;" horiz-adv-x="298" 
d="M317 524l-164 -261l56 -243h-12l-178 252l286 252h12z" />
    <glyph glyph-name="guilsinglright" unicode="&#x203a;" horiz-adv-x="298" 
d="M100 524l178 -252l-286 -252h-12l164 261l-56 243h12z" />
    <glyph glyph-name="fraction" unicode="&#x2044;" horiz-adv-x="100" 
d="M-240 0l594 728h25l-594 -728h-25z" />
    <glyph glyph-name="uni2070" unicode="&#x2070;" horiz-adv-x="451" 
d="M73 437q0 124 60.5 209.5t163.5 85.5q82 0 128.5 -46.5t46.5 -135.5q0 -124 -60.5 -209t-163.5 -85q-81 0 -128 47t-47 134zM355 624q0 99 -47 99q-33 0 -60 -62q-27 -61 -42 -148q-15 -85 -15 -150q0 -98 46 -98q34 0 61 62q27 61 42 147t15 150z" />
    <glyph glyph-name="uni2074" unicode="&#x2074;" horiz-adv-x="367" 
d="M388 728l-63 -296h58l-34 -68h-38l-22 -104h-115l22 104h-153l-10 54l320 310h35zM67 432h143l38 176z" />
    <glyph glyph-name="uni2075" unicode="&#x2075;" horiz-adv-x="337" 
d="M360 645h-214l-19 -66q104 -6 158 -47.5t54 -113.5t-56.5 -117t-135.5 -45q-74 0 -122 36l19 43q13 -31 37.5 -50t56.5 -19q46 0 73.5 28.5t27.5 75.5q0 50 -41 79t-113 32l74 247h245z" />
    <glyph glyph-name="uni2076" unicode="&#x2076;" horiz-adv-x="407" 
d="M61 413q-2 74 46 147t124.5 120.5t156.5 51.5l2 -9q-64 -11 -113.5 -69t-74 -137t-23.5 -162q0 -90 45 -90q33 -3 56.5 58t22.5 120q0 73 -43 73q-21 0 -40 -16l-6 7q38 46 97 46q45 0 78.5 -34.5t33.5 -88.5q0 -75 -54 -124.5t-135 -49.5t-127 42.5t-46 114.5z" />
    <glyph glyph-name="uni2077" unicode="&#x2077;" horiz-adv-x="324" 
d="M117 728h295v-3l-249 -465h-109l299 384h-83q-121 0 -184 -15z" />
    <glyph glyph-name="uni2078" unicode="&#x2078;" horiz-adv-x="379" 
d="M377 394q0 -61 -51 -99.5t-122 -38.5q-63 0 -109 28q-45 28 -45 77q0 42 32.5 75t84.5 45q-61 49 -61 110q0 60 48 100.5t115 40.5q53 0 93 -27t40 -71q0 -38 -30.5 -67t-81.5 -41q87 -61 87 -132zM196 638q0 -48 61 -89l24 -16q52 46 52 122q0 31 -16.5 49.5t-45.5 18.5
q-35 0 -55 -23.5t-20 -61.5zM287 352q0 30 -15.5 49t-51.5 43l-25 17q-2 2 -8.5 6t-10.5 8q-56 -50 -56 -131q0 -38 21.5 -58.5t56.5 -20.5q41 0 65 24t24 63z" />
    <glyph glyph-name="uni2079" unicode="&#x2079;" horiz-adv-x="407" 
d="M113 256l-2 9q64 11 113.5 69t74 137t23.5 162q0 90 -45 90q-33 3 -56.5 -58t-22.5 -120q0 -73 43 -73q21 0 40 16l6 -7q-38 -46 -97 -46q-45 0 -78.5 34.5t-33.5 88.5q0 75 54 124.5t135 49.5t127 -42.5t46 -114.5q2 -74 -46 -147.5t-125 -120.5t-156 -51z" />
    <glyph glyph-name="uni2080" unicode="&#x2080;" horiz-adv-x="451" 
d="M-26 -31q0 124 60.5 209.5t163.5 85.5q82 0 128.5 -46.5t46.5 -135.5q0 -124 -60.5 -209t-163.5 -85q-81 0 -128 47t-47 134zM256 156q0 99 -47 99q-33 0 -60 -62q-27 -61 -42 -148q-15 -85 -15 -150q0 -98 46 -98q34 0 61 62q27 61 42 147t15 150z" />
    <glyph glyph-name="uni2081" unicode="&#x2081;" horiz-adv-x="227" 
d="M174 268h3l-100 -472h-112l79 374q-30 -8 -52 -11l2 8q35 7 89 37q48 26 91 64z" />
    <glyph glyph-name="uni2082" unicode="&#x2082;" horiz-adv-x="358" 
d="M17 -125h32q119 0 204 13l-45 -96h-296l1 3l42 38q60 55 103 100q46 47 77 100q34 55 34 108q0 37 -20.5 56.5t-54.5 19.5q-42 0 -89 -47l-8 4q58 90 162 90q58 0 96.5 -31.5t38.5 -84.5q0 -52 -39 -99q-36 -45 -92 -82q-41 -30 -146 -92z" />
    <glyph glyph-name="uni2083" unicode="&#x2083;" horiz-adv-x="359" 
d="M-68 -179l23 58q35 -81 102 -81q44 0 70.5 29t26.5 77q0 47 -26.5 81.5t-73.5 49.5l-1 7l13 4q43 13 71.5 43.5t28.5 66.5q0 27 -18 42.5t-49 15.5q-46 0 -92 -42l-7 4q67 88 164 88q53 0 87.5 -25t34.5 -63q0 -41 -37 -72q-36 -31 -83 -36v-2q41 -12 68 -45t27 -77
q0 -68 -57 -112t-145 -44q-60 0 -127 33z" />
    <glyph glyph-name="uni2084" unicode="&#x2084;" horiz-adv-x="367" 
d="M289 260l-63 -296h58l-34 -68h-38l-22 -104h-115l22 104h-153l-10 54l320 310h35zM-32 -36h143l38 176z" />
    <glyph glyph-name="uni2085" unicode="&#x2085;" horiz-adv-x="337" 
d="M261 177h-214l-19 -66q104 -6 158 -47.5t54 -113.5t-56.5 -117t-135.5 -45q-74 0 -122 36l19 43q13 -31 37.5 -50t56.5 -19q46 0 73.5 28.5t27.5 75.5q0 50 -41 79t-113 32l74 247h245z" />
    <glyph glyph-name="uni2086" unicode="&#x2086;" horiz-adv-x="407" 
d="M-38 -55q-2 74 46 147t124.5 120.5t156.5 51.5l2 -9q-64 -11 -113.5 -69t-74 -137t-23.5 -162q0 -90 45 -90q33 -3 56.5 58t22.5 120q0 73 -43 73q-21 0 -40 -16l-6 7q38 46 97 46q45 0 78.5 -34.5t33.5 -88.5q0 -75 -54 -124.5t-135 -49.5t-127 42.5t-46 114.5z" />
    <glyph glyph-name="uni2087" unicode="&#x2087;" horiz-adv-x="324" 
d="M18 260h295v-3l-249 -465h-109l299 384h-83q-121 0 -184 -15z" />
    <glyph glyph-name="uni2088" unicode="&#x2088;" horiz-adv-x="379" 
d="M278 -74q0 -61 -51 -99.5t-122 -38.5q-64 0 -108 28q-46 28 -46 77q0 42 32.5 75t84.5 45q-61 49 -61 110q0 60 48 100.5t115 40.5q52 0 93 -27q40 -27 40 -71q0 -38 -30.5 -67t-81.5 -41q87 -61 87 -132zM97 170q0 -48 61 -89l24 -16q52 46 52 122q0 31 -16.5 49.5
t-45.5 18.5q-35 0 -55 -23.5t-20 -61.5zM188 -116q0 30 -15.5 49t-51.5 43l-25 17q-2 2 -8.5 6t-10.5 8q-56 -50 -56 -131q0 -38 21.5 -58.5t56.5 -20.5q41 0 65 24t24 63z" />
    <glyph glyph-name="uni2089" unicode="&#x2089;" horiz-adv-x="407" 
d="M13 -212l-2 9q64 11 113.5 69t74 137t23.5 162q0 90 -45 90q-33 3 -56.5 -58t-22.5 -120q0 -73 43 -73q21 0 40 16l6 -7q-38 -46 -97 -46q-45 0 -78.5 34.5t-33.5 88.5q0 75 54 124.5t135 49.5t127 -42.5t46 -114.5q2 -74 -46 -147.5t-125 -120.5t-156 -51z" />
    <glyph glyph-name="Euro" unicode="&#x20ac;" horiz-adv-x="682" 
d="M623 153l10 -8q-107 -157 -268 -157q-117 0 -189 85t-72 222v3h-73l4 18h69q3 50 15 98h-64l4 18h65q37 132 133.5 220t215.5 88q139 0 233 -136l-95 -69q-9 75 -38 132t-75 57q-59 0 -102 -85q-44 -84 -66 -207h182l-9 -18h-177q-10 -69 -12 -98h137l-10 -18h-128
q-2 -46 -2 -47q0 -101 33 -146t103 -45q105 0 176 93z" />
    <glyph glyph-name="uni2113" unicode="&#x2113;" horiz-adv-x="334" 
d="M261 80l11 -8q-78 -84 -147 -84q-78 0 -78 92q0 32 9 74l12 56l-63 -34l-5 14q48 25 72 40l57 264q27 127 66.5 186.5t96.5 59.5q40 0 62 -28t22 -80q0 -214 -252 -387l-23 -105q-10 -47 -10 -75q0 -58 45 -58q55 0 125 73zM180 508l-52 -241q206 152 206 384
q0 75 -45 75q-32 0 -53 -34q-20 -33 -30 -72q-4 -15 -26 -112z" />
    <glyph glyph-name="uni2116" unicode="&#x2116;" horiz-adv-x="1080" 
d="M630 728h100q-68 -134 -108 -318l-90 -422h-16l-328 610l-59 -280q-30 -142 -30 -253q0 -33 3 -65h-100q66 127 107 318l65 307l-54 100l1 3h213l240 -450l28 132q31 143 31 257q0 32 -3 61zM1096 502q2 -93 -69 -158.5t-165 -63.5q-78 0 -130 47q-50 47 -50 124
q0 94 69 158t164 64q80 0 130 -47q51 -46 51 -124zM965 568q0 91 -48 91q-30 2 -55 -44.5t-37.5 -109.5t-11.5 -120q0 -91 48 -91q31 -2 56 44t37 109t11 121zM675 180l3 18h311l-4 -18h-310z" />
    <glyph glyph-name="uni2117" unicode="&#x2117;" horiz-adv-x="622" 
d="M624 469q2 -109 -80 -190.5t-191 -79.5q-110 -2 -192 79.5t-80 190.5q-2 108 80 190.5t192 80.5q109 2 191 -80.5t80 -190.5zM602 471q2 101 -73.5 177t-175.5 74q-101 2 -176.5 -74t-73.5 -177q-2 -101 73.5 -177.5t176.5 -74.5q100 -2 175.5 74.5t73.5 177.5zM484 541
q0 -46 -35.5 -74.5t-93.5 -28.5q-21 0 -35 3v-139h-29v331h64q62 0 95.5 -23.5t33.5 -68.5zM452 535q0 41 -25.5 63t-71.5 22h-35v-165q13 -3 34 -3q47 0 72.5 21.5t25.5 61.5z" />
    <glyph glyph-name="trademark" unicode="&#x2122;" horiz-adv-x="747" 
d="M284 713h-13l-76 -359h-32l76 359h-11q-34 0 -56 -3q-15 -1 -64 -8l14 26h274l2 -26q-43 7 -59 8q-21 3 -55 3zM746 728h8l-44 -374h-33l37 299l-186 -274h-4l-77 275l-40 -137q-26 -91 -43 -163h-26q22 59 52 162l63 212h8l82 -299z" />
    <glyph glyph-name="uni2126" unicode="&#x2126;" horiz-adv-x="838" 
d="M775 58l-18 -58h-287v26q116 85 171 176t55 199q0 142 -77 232.5t-202 90.5q-126 0 -202.5 -88.5t-76.5 -230.5q0 -105 54.5 -197t171.5 -182v-26h-287l-18 58q88 -20 201 -20h60q-125 100 -183 182q-57 82 -57 181q-2 145 95.5 243t241.5 96q152 0 244.5 -92.5
t92.5 -242.5q0 -99 -58 -184q-60 -86 -182 -183h60q113 0 201 20z" />
    <glyph glyph-name="estimated" unicode="&#x212e;" horiz-adv-x="789" 
d="M729 200l16 -8q-49 -97 -134.5 -151.5t-189.5 -54.5q-98 -2 -182 50t-131 140t-46 188q-2 151 105 262t254 108q150 3 256.5 -110t103.5 -270h-591v-229q0 -30 25 -49q94 -70 206 -70q99 0 180.5 51.5t127.5 142.5zM190 591v-217h462v217q0 33 -25 53q-92 70 -206 70
t-206 -70q-25 -19 -25 -53z" />
    <glyph glyph-name="oneeighth" unicode="&#x215b;" horiz-adv-x="804" 
d="M285 736h3l-100 -472h-112l79 374q-30 -8 -52 -11l2 8q35 7 89 37q48 26 91 64zM16 0l594 728h25l-594 -728h-25zM749 134q0 -61 -51 -99.5t-122 -38.5q-63 0 -109 28q-45 28 -45 77q0 42 32.5 75t84.5 45q-61 49 -61 110q0 60 48 100.5t115 40.5q53 0 93 -27t40 -71
q0 -38 -30.5 -67t-81.5 -41q87 -61 87 -132zM568 378q0 -48 61 -89l24 -16q52 46 52 122q0 31 -16.5 49.5t-45.5 18.5q-35 0 -55 -23.5t-20 -61.5zM659 92q0 30 -15.5 49t-51.5 43l-25 17q-2 2 -8.5 6t-10.5 8q-56 -50 -56 -131q0 -38 21.5 -58.5t56.5 -20.5q41 0 65 24
t24 63z" />
    <glyph glyph-name="threeeighths" unicode="&#x215c;" horiz-adv-x="879" 
d="M36 289l23 58q35 -81 102 -81q44 0 70.5 29t26.5 77q0 47 -26.5 81.5t-73.5 49.5l-1 7l13 4q43 13 71.5 43.5t28.5 66.5q0 27 -18 42.5t-49 15.5q-46 0 -92 -42l-7 4q67 88 164 88q53 0 87.5 -25t34.5 -63q0 -41 -37 -72q-36 -31 -83 -36v-2q41 -12 68 -45t27 -77
q0 -68 -57 -112t-145 -44q-60 0 -127 33zM90 0l594 728h25l-594 -728h-25zM823 134q0 -61 -51 -99.5t-122 -38.5q-63 0 -109 28q-45 28 -45 77q0 42 32.5 75t84.5 45q-61 49 -61 110q0 60 48 100.5t115 40.5q53 0 93 -27t40 -71q0 -38 -30.5 -67t-81.5 -41q87 -61 87 -132z
M642 378q0 -48 61 -89l24 -16q52 46 52 122q0 31 -16.5 49.5t-45.5 18.5q-35 0 -55 -23.5t-20 -61.5zM733 92q0 30 -15.5 49t-51.5 43l-25 17q-2 2 -8.5 6t-10.5 8q-56 -50 -56 -131q0 -38 21.5 -58.5t56.5 -20.5q41 0 65 24t24 63z" />
    <glyph glyph-name="fiveeighths" unicode="&#x215d;" horiz-adv-x="877" 
d="M367 645h-214l-19 -66q104 -6 158 -47.5t54 -113.5t-56.5 -117t-135.5 -45q-74 0 -122 36l19 43q13 -31 37.5 -50t56.5 -19q46 0 73.5 28.5t27.5 75.5q0 50 -41 79t-113 32l74 247h245zM88 0l594 728h25l-594 -728h-25zM821 134q0 -61 -51 -99.5t-122 -38.5
q-63 0 -109 28q-45 28 -45 77q0 42 32.5 75t84.5 45q-61 49 -61 110q0 60 48 100.5t115 40.5q53 0 93 -27t40 -71q0 -38 -30.5 -67t-81.5 -41q87 -61 87 -132zM640 378q0 -48 61 -89l24 -16q52 46 52 122q0 31 -16.5 49.5t-45.5 18.5q-35 0 -55 -23.5t-20 -61.5zM731 92
q0 30 -15.5 49t-51.5 43l-25 17q-2 2 -8.5 6t-10.5 8q-56 -50 -56 -131q0 -38 21.5 -58.5t56.5 -20.5q41 0 65 24t24 63z" />
    <glyph glyph-name="seveneighths" unicode="&#x215e;" horiz-adv-x="892" 
d="M127 728h295v-3l-249 -465h-109l299 384h-83q-121 0 -184 -15zM101 0l594 728h25l-594 -728h-25zM834 134q0 -61 -51 -99.5t-122 -38.5q-63 0 -109 28q-45 28 -45 77q0 42 32.5 75t84.5 45q-61 49 -61 110q0 60 48 100.5t115 40.5q52 0 93 -27q40 -27 40 -71
q0 -38 -30.5 -67t-81.5 -41q87 -61 87 -132zM653 378q0 -48 61 -89l24 -16q52 46 52 122q0 31 -16.5 49.5t-45.5 18.5q-35 0 -55 -23.5t-20 -61.5zM744 92q0 30 -15.5 49t-51.5 43l-25 17q-2 2 -8.5 6t-10.5 8q-56 -50 -56 -131q0 -38 21.5 -58.5t56.5 -20.5q41 0 65 24
t24 63z" />
    <glyph glyph-name="arrowleft" unicode="&#x2190;" horiz-adv-x="826" 
d="M807 364q2 -100 -49 -187.5t-138.5 -139t-187.5 -49.5q-153 -3 -265.5 110t-109.5 266q-3 153 109.5 266t265.5 110q100 2 187.5 -49.5t138.5 -139t49 -187.5zM785 364q3 146 -103 253.5t-250 104.5q-144 3 -250 -104.5t-103 -253.5q-3 -146 103 -253.5t250 -104.5
q144 -3 250 104.5t103 253.5zM670 265q0 -8 -1 -10h-127q-5 22 -24 53q-20 34 -34 48h-136q53 -80 75 -191l-9 -4q-40 52 -112 112q-71 61 -130 91q57 29 130 90q73 62 112 113l9 -4q-22 -111 -75 -191h136q13 13 34 47q20 33 24 54h127q4 -26 -16 -60q-20 -33 -47 -49
q26 -14 45 -43.5t19 -55.5zM595 457h-41q-20 -49 -49 -85h34q17 13 33.5 38t22.5 47zM653 457h-41q-12 -50 -51 -85h28q22 10 41.5 35.5t22.5 49.5zM539 356h-34q29 -36 49 -85h41q-6 22 -22.5 47t-33.5 38zM589 356h-28q39 -35 51 -85h41q-3 24 -22.5 49.5t-41.5 35.5z" />
    <glyph glyph-name="arrowup" unicode="&#x2191;" horiz-adv-x="826" 
d="M807 364q2 -100 -49 -187.5t-138.5 -139t-187.5 -49.5q-153 -3 -265.5 110t-109.5 266q-3 153 109.5 266t265.5 110q100 2 187.5 -49.5t138.5 -139t49 -187.5zM785 364q3 146 -103 253.5t-250 104.5q-144 3 -250 -104.5t-103 -253.5q-3 -146 103 -253.5t250 -104.5
q144 -3 250 104.5t103 253.5zM635 383l-4 -9q-111 22 -191 75v-136q13 -13 47 -34q33 -19 54 -24v-127q-2 -1 -10 -1q-26 0 -55.5 19t-43.5 45q-17 -29 -49 -48q-33 -19 -60 -15v127q22 5 53 24q34 20 48 34v136q-80 -53 -191 -75l-4 9q52 40 112 112q61 71 91 130
q29 -57 90 -130q62 -73 113 -112zM424 258v34q-36 -29 -85 -49v-41q22 6 47 22.5t38 33.5zM525 202v41q-49 20 -85 49v-34q13 -17 38 -33.5t47 -22.5zM424 208v28q-35 -39 -85 -51v-41q24 3 49.5 22.5t35.5 41.5zM525 144v41q-50 12 -85 51v-28q10 -22 35.5 -41.5
t49.5 -22.5z" />
    <glyph glyph-name="arrowright" unicode="&#x2192;" horiz-adv-x="826" 
d="M807 364q2 -100 -49 -187.5t-138.5 -139t-187.5 -49.5q-153 -3 -265.5 110t-109.5 266q-3 153 109.5 266t265.5 110q100 2 187.5 -49.5t138.5 -139t49 -187.5zM785 364q3 146 -103 253.5t-250 104.5q-144 3 -250 -104.5t-103 -253.5q-3 -146 103 -253.5t250 -104.5
q144 -3 250 104.5t103 253.5zM692 364q-59 -30 -130 -91q-72 -60 -112 -112l-9 4q22 111 75 191h-136q-14 -14 -34 -48q-19 -31 -24 -53h-127q-1 2 -1 10q0 26 19 55.5t45 43.5q-29 17 -48 49q-20 33 -15 60h127q4 -21 24 -54q21 -34 34 -47h136q-53 80 -75 191l9 4
q39 -51 112 -113q73 -61 130 -90zM275 372h28q-39 35 -51 85h-41q3 -24 22.5 -49.5t41.5 -35.5zM325 372h34q-29 36 -49 85h-41q6 -22 22.5 -47t33.5 -38zM211 271h41q12 50 51 85h-28q-22 -10 -41.5 -35.5t-22.5 -49.5zM269 271h41q20 49 49 85h-34q-17 -13 -33.5 -38
t-22.5 -47z" />
    <glyph glyph-name="arrowdown" unicode="&#x2193;" horiz-adv-x="826" 
d="M807 364q2 -100 -49 -187.5t-138.5 -139t-187.5 -49.5q-153 -3 -265.5 110t-109.5 266q-3 153 109.5 266t265.5 110q100 2 187.5 -49.5t138.5 -139t49 -187.5zM785 364q3 146 -103 253.5t-250 104.5q-144 3 -250 -104.5t-103 -253.5q-3 -146 103 -253.5t250 -104.5
q144 -3 250 104.5t103 253.5zM631 354l4 -9q-51 -39 -113 -112q-61 -73 -90 -130q-30 59 -91 130q-60 72 -112 112l4 9q111 -22 191 -75v136q-14 14 -48 34q-31 19 -53 24v127q26 4 60 -16q33 -20 49 -47q14 26 43.5 45t55.5 19q8 0 10 -1v-127q-21 -5 -54 -24
q-34 -21 -47 -34v-136q80 53 191 75zM339 584v-41q50 -12 85 -51v28q-10 22 -35.5 41.5t-49.5 22.5zM440 520v-28q35 39 85 51v41q-24 -3 -49.5 -22.5t-35.5 -41.5zM339 526v-41q49 -20 85 -49v34q-13 17 -38 33.5t-47 22.5zM440 470v-34q36 29 85 49v41q-22 -6 -47 -22.5
t-38 -33.5z" />
    <glyph glyph-name="uni2196" unicode="&#x2196;" horiz-adv-x="826" 
d="M807 364q2 -100 -49 -187.5t-138.5 -139t-187.5 -49.5q-153 -3 -265.5 110t-109.5 266q-3 153 109.5 266t265.5 110q100 2 187.5 -49.5t138.5 -139t49 -187.5zM785 364q3 146 -103 253.5t-250 104.5q-144 3 -250 -104.5t-103 -253.5q-3 -146 103 -253.5t250 -104.5
q144 -3 250 104.5t103 253.5zM587 363l90 -90q-25 -36 -91 -36q-16 0 -30 3q3 -14 3 -30q0 -66 -36 -91l-90 90q12 22 20 55q10 34 10 58l-97 96q-17 -94 -81 -188l-9 3q4 25 4 72q0 145 -32 243q98 -32 243 -32q47 0 72 4l3 -9q-94 -64 -188 -81l96 -97q22 0 58 9
q35 10 55 21zM527 293q47 0 86 22l-28 28q-49 -20 -96 -25l24 -24q3 -1 14 -1zM453 211l28 -28q22 39 22 86q0 11 -1 14l-24 24q-5 -47 -25 -96zM583 253q43 0 71 20l-29 30q-45 -29 -97 -24l21 -21q15 -5 34 -5zM543 213q0 21 -5 34l-21 21q5 -52 -24 -97l30 -29
q20 28 20 71z" />
    <glyph glyph-name="uni2197" unicode="&#x2197;" horiz-adv-x="826" 
d="M807 364q2 -100 -49 -187.5t-138.5 -139t-187.5 -49.5q-153 -3 -265.5 110t-109.5 266q-3 153 109.5 266t265.5 110q100 2 187.5 -49.5t138.5 -139t49 -187.5zM785 364q3 146 -103 253.5t-250 104.5q-144 3 -250 -104.5t-103 -253.5q-3 -146 103 -253.5t250 -104.5
q144 -3 250 104.5t103 253.5zM373 516q145 0 243 32q-32 -98 -32 -243q0 -47 4 -72l-9 -3q-64 94 -81 188l-97 -96q0 -22 9 -58q10 -35 21 -55l-90 -90q-36 25 -36 91q0 16 3 30q-14 -3 -30 -3q-66 0 -91 36l90 90q20 -11 55 -21q36 -9 58 -9l96 97q-94 17 -188 81l3 9
q25 -4 72 -4zM351 294l24 24q-47 5 -96 25l-28 -28q39 -22 86 -22q11 0 14 1zM386 307l-24 -24q-1 -3 -1 -14q0 -47 22 -86l28 28q-20 49 -25 96zM281 253q21 0 34 5l21 21q-52 -5 -97 24l-29 -30q28 -20 71 -20zM321 213q0 -43 20 -71l30 29q-29 45 -24 97l-21 -21
q-5 -13 -5 -34z" />
    <glyph glyph-name="uni2198" unicode="&#x2198;" horiz-adv-x="826" 
d="M807 364q2 -100 -49 -187.5t-138.5 -139t-187.5 -49.5q-153 -3 -265.5 110t-109.5 266q-3 153 109.5 266t265.5 110q100 2 187.5 -49.5t138.5 -139t49 -187.5zM785 364q3 146 -103 253.5t-250 104.5q-144 3 -250 -104.5t-103 -253.5q-3 -146 103 -253.5t250 -104.5
q144 -3 250 104.5t103 253.5zM584 423q0 -145 32 -243q-98 32 -243 32q-47 0 -72 -4l-3 9q94 64 188 81l-96 97q-24 0 -58 -10q-33 -8 -55 -20l-90 90q25 36 91 36q16 0 30 -3q-3 14 -3 30q0 66 36 91l90 -90q-11 -20 -21 -55q-9 -36 -9 -58l97 -96q17 94 81 188l9 -3
q-4 -25 -4 -72zM321 515q0 -19 5 -34l21 -21q-5 52 24 97l-30 29q-20 -28 -20 -71zM411 517l-28 28q-22 -39 -22 -86q0 -11 1 -14l24 -24q5 47 25 96zM281 475q-43 0 -71 -20l29 -30q45 29 97 24l-21 21q-13 5 -34 5zM337 435q-47 0 -86 -22l28 -28q49 20 96 25l-24 24
q-3 1 -14 1z" />
    <glyph glyph-name="uni2199" unicode="&#x2199;" horiz-adv-x="826" 
d="M807 364q2 -100 -49 -187.5t-138.5 -139t-187.5 -49.5q-153 -3 -265.5 110t-109.5 266q-3 153 109.5 266t265.5 110q100 2 187.5 -49.5t138.5 -139t49 -187.5zM785 364q3 146 -103 253.5t-250 104.5q-144 3 -250 -104.5t-103 -253.5q-3 -146 103 -253.5t250 -104.5
q144 -3 250 104.5t103 253.5zM586 491q66 0 91 -36l-90 -90q-22 12 -55 20q-34 10 -58 10l-96 -97q94 -17 188 -81l-3 -9q-25 4 -72 4q-145 0 -243 -32q32 98 32 243q0 47 -4 72l9 3q64 -94 81 -188l97 96q0 24 -10 58q-8 33 -20 55l90 90q36 -25 36 -91q0 -16 -3 -30
q14 3 30 3zM543 515q0 43 -20 71l-30 -29q29 -45 24 -97l21 21q5 15 5 34zM478 421l24 24q1 3 1 14q0 47 -22 86l-28 -28q20 -49 25 -96zM583 475q-19 0 -34 -5l-21 -21q52 5 97 -24l29 30q-28 20 -71 20zM513 434l-24 -24q47 -5 96 -25l28 28q-39 22 -86 22q-11 0 -14 -1z
" />
    <glyph glyph-name="partialdiff" unicode="&#x2202;" horiz-adv-x="509" 
d="M488 418q2 -188 -75.5 -310.5t-197.5 -119.5q-84 0 -135.5 56t-51.5 148q0 103 64 168t164 65t175 -82q3 35 3 73q0 142 -41.5 220t-119.5 78q-45 0 -92.5 -24t-78.5 -62l-12 12q82 100 194 100q98 0 151 -83.5t53 -238.5zM429 317q-71 88 -167 88q-84 0 -132 -54.5
t-48 -148.5q0 -87 40 -143.5t102 -56.5q75 0 131.5 87.5t73.5 227.5z" />
    <glyph glyph-name="uni2206" unicode="&#x2206;" horiz-adv-x="634" 
d="M277 740l287 -740h-578l287 740h4zM500 18l-243 631l-245 -631h488z" />
    <glyph glyph-name="product" unicode="&#x220f;" horiz-adv-x="707" 
d="M595 708v-768h-52v770h-64h-150h-64v-770h-52v768q-56 -4 -110 -10l12 30h578l12 -30q-81 9 -110 10z" />
    <glyph glyph-name="summation" unicode="&#x2211;" horiz-adv-x="677" 
d="M594 -22h2l-16 -38h-479v4l239 396l-231 384v4h459l12 -38h-2q-76 10 -147 15q-78 5 -165 5h-89l225 -369l-233 -383h104q186 0 321 20z" />
    <glyph glyph-name="minus" unicode="&#x2212;" horiz-adv-x="508" 
d="M66 354l4 20h408l-4 -20h-408z" />
    <glyph glyph-name="uni2215" unicode="&#x2215;" horiz-adv-x="415" 
d="M-83 0l594 728h25l-594 -728h-25z" />
    <glyph glyph-name="uni2219" unicode="&#x2219;" horiz-adv-x="357" 
d="M171 222l-92 120l132 104l92 -120z" />
    <glyph glyph-name="radical" unicode="&#x221a;" horiz-adv-x="490" 
d="M539 713l20 -6l-271 -719h-4l-187 409h-82v16h120l160 -349z" />
    <glyph glyph-name="infinity" unicode="&#x221e;" horiz-adv-x="808" 
d="M793 355q0 -63 -46 -109t-110 -46q-65 0 -115 32t-102 99q-52 -67 -102 -99t-115 -32q-64 0 -110 46t-46 109t46 109t110 46q65 0 115 -32t102 -99q52 67 102 99t115 32q64 0 110 -46t46 -109zM402 356q-57 74 -96.5 103t-102.5 31q-53 0 -91.5 -39.5t-38.5 -95.5
t38.5 -95.5t91.5 -39.5q42 0 76 17q32 16 58 42t65 77zM767 355q0 56 -38.5 95.5t-91.5 39.5q-41 0 -77 -17q-31 -16 -57.5 -42.5t-64.5 -76.5q57 -74 96.5 -103t102.5 -31q53 0 91.5 39.5t38.5 95.5z" />
    <glyph glyph-name="integral" unicode="&#x222b;" horiz-adv-x="277" 
d="M-89 -228v14q60 9 98.5 56t46.5 123l69 663q10 90 53 138t112 48q63 0 119 -35l-6 -12q-47 23 -99 23q-115 0 -132 -170l-68 -655q-8 -81 -58 -131t-135 -62z" />
    <glyph glyph-name="approxequal" unicode="&#x2248;" horiz-adv-x="508" 
d="M268 422q-59 29 -91 29q-55 0 -95 -31l-14 16q47 35 109 35q33 0 101 -31q61 -29 90 -29q55 0 95 31l14 -16q-47 -35 -109 -35q-36 0 -100 31zM268 279q-59 29 -91 29q-55 0 -95 -31l-14 16q47 35 109 35q33 0 101 -31q61 -29 90 -29q55 0 95 31l14 -16q-47 -35 -109 -35
q-36 0 -100 31z" />
    <glyph glyph-name="notequal" unicode="&#x2260;" horiz-adv-x="508" 
d="M476 426h-153l-77 -124h230v-20h-242l-82 -132l-18 12l74 120h-140v20h153l77 124h-230v20h242l82 132l18 -12l-74 -120h140v-20z" />
    <glyph glyph-name="lessequal" unicode="&#x2264;" horiz-adv-x="508" 
d="M444 544l-379 -180l379 -180l-10 -18l-398 189v18l398 189zM36 12v20h408v-20h-408z" />
    <glyph glyph-name="greaterequal" unicode="&#x2265;" horiz-adv-x="508" 
d="M61 562l398 -189v-18l-398 -189l-10 18l379 180l-379 180zM51 12v20h408v-20h-408z" />
    <glyph glyph-name="uni25B4" unicode="&#x25b4;" horiz-adv-x="312" 
d="M30 251l127 227l127 -227h-254z" />
    <glyph glyph-name="uni25B8" unicode="&#x25b8;" horiz-adv-x="317" 
d="M270 237l-227 127l227 128v-255z" />
    <glyph glyph-name="uni25BE" unicode="&#x25be;" horiz-adv-x="313" 
d="M193 251l-127 227h254z" />
    <glyph glyph-name="uni25C2" unicode="&#x25c2;" horiz-adv-x="314" 
d="M82 237v255l227 -128z" />
    <glyph glyph-name="lozenge" unicode="&#x25ca;" horiz-adv-x="499" 
d="M272 740l224 -370l-224 -370h-4l-224 370l224 370h4zM250 64l186 306l-186 306l-186 -306z" />
    <glyph glyph-name="uni2610" unicode="&#x2610;" horiz-adv-x="726" 
d="M127 596h598l-126 -596h-598zM581 20l118 556h-554l-118 -556h554z" />
    <glyph glyph-name="uni2611" unicode="&#x2611;" horiz-adv-x="726" 
d="M340 180q158 232 452 543l18 -13l-489 -590q-49 138 -116 246l41 25q49 -77 94 -211zM568 20l90 428l30 36l-103 -484h-598l127 596h481l-16 -20h-448l-117 -556h554z" />
    <glyph glyph-name="uni2612" unicode="&#x2612;" horiz-adv-x="726" 
d="M127 596h598l-126 -596h-598zM581 20l118 556h-554l-118 -556h554zM584 466l-206 -169l131 -169l-16 -14l-132 169l-206 -169l-12 17l205 168l-131 169l16 14l132 -169l206 169z" />
    <glyph glyph-name="uni2661" unicode="&#x2661;" horiz-adv-x="964" 
d="M953 399q0 -96 -47 -167q-45 -66 -113.5 -114.5t-182.5 -102.5q-133 -64 -190 -164l-14 -6q0 27 -14 50q-12 21 -31.5 39t-67.5 55l-22 17q-78 60 -121 100q-97 92 -97 203q-2 119 82.5 214t197.5 92q148 0 197 -119q42 53 97.5 85.5t115.5 32.5q94 0 152 -60t58 -155z
M901 392q0 90 -49 148t-126 58q-62 0 -121 -50q-57 -48 -86 -120l-10 -3q-12 78 -61.5 125t-125.5 47q-91 2 -155 -85.5t-62 -196.5q0 -65 27 -116q28 -52 66 -89q42 -39 107 -88q1 -1 6 -4.5t12 -9t15 -11.5q61 -44 85 -93q76 76 170 123q107 53 164 92q144 101 144 273z
" />
    <glyph glyph-name="heart" unicode="&#x2665;" horiz-adv-x="964" 
d="M953 399q0 -96 -47 -167q-45 -66 -113.5 -114.5t-182.5 -102.5q-133 -64 -190 -164l-14 -6q0 27 -14 50q-12 21 -31.5 39t-67.5 55l-22 17q-78 60 -121 100q-97 92 -97 203q-2 119 82.5 214t197.5 92q148 0 197 -119q42 53 97.5 85.5t115.5 32.5q94 0 152 -60t58 -155z
" />
    <glyph glyph-name="uni2713" unicode="&#x2713;" horiz-adv-x="726" 
d="M792 723l18 -13l-489 -590q-49 138 -116 246l41 25q49 -77 94 -211q158 232 452 543z" />
    <glyph glyph-name="uni275B" unicode="&#x275b;" horiz-adv-x="297" 
d="M16 187q0 97 76 187t197 120l2 -10q-82 -26 -131.5 -79.5t-49.5 -108.5q0 -46 35.5 -76.5t100.5 -35.5l-39 -184q-91 9 -141 60.5t-50 126.5z" />
    <glyph glyph-name="uni275C" unicode="&#x275c;" horiz-adv-x="311" 
d="M58 234l-2 10q82 26 131.5 79.5t49.5 108.5q0 48 -38.5 78.5t-109.5 33.5l39 184q97 -7 150 -58t53 -129q0 -97 -76 -187t-197 -120z" />
    <glyph glyph-name="uni275D" unicode="&#x275d;" horiz-adv-x="561" 
d="M16 187q0 97 76 187t197 120l2 -10q-82 -26 -131.5 -79.5t-49.5 -108.5q0 -46 35.5 -76.5t100.5 -35.5l-39 -184q-91 9 -141 60.5t-50 126.5zM271 187q0 97 76 187t197 120l2 -10q-82 -26 -131.5 -79.5t-49.5 -108.5q0 -48 38.5 -78.5t109.5 -33.5l-39 -184
q-97 7 -150 58t-53 129z" />
    <glyph glyph-name="uni275E" unicode="&#x275e;" horiz-adv-x="566" 
d="M58 234l-2 10q82 26 131.5 79.5t49.5 108.5q0 48 -38.5 78.5t-109.5 33.5l39 184q97 -7 150 -58t53 -129q0 -97 -76 -187t-197 -120zM313 234l-2 10q82 26 131.5 79.5t49.5 108.5q0 46 -35.5 76.5t-100.5 35.5l39 184q91 -9 141 -60.5t50 -126.5q0 -97 -76 -187
t-197 -120z" />
    <glyph glyph-name="uni2766" unicode="&#x2766;" horiz-adv-x="1027" 
d="M702 743q-95 -113 -156 -319q98 126 220 126q66 0 107 -38.5t41 -108.5q0 -60 -29 -112q-27 -48 -66.5 -85.5t-113.5 -93.5q-61 -48 -89 -72q-76 -69 -76 -137q0 -41 23.5 -64t63.5 -23q72 0 164 101l10 -4q-121 -151 -264 -151q-109 0 -194 72q-85 70 -133 183t-48 231
q0 122 49.5 205t124.5 83q78 0 124 -97q-56 -191 -56 -317q0 -131 41 -199q-11 46 -11 116q-2 190 65.5 394t178.5 320l-22 9q-92 39 -146.5 55.5t-107.5 16.5q-82 0 -141.5 -41t-59.5 -103q0 -16 8 -43l-47 -16q-10 27 -10 56q0 77 68.5 129t166.5 52q60 0 122.5 -19.5
t161.5 -64.5l26 -12q111 108 246 108q60 0 94.5 -20.5t34.5 -56.5q0 -45 -52 -78.5t-122 -33.5t-196 52zM718 762q124 -55 188 -55q56 0 89.5 29t33.5 66q0 29 -26.5 45.5t-71.5 16.5q-117 0 -213 -102z" />
    <glyph glyph-name="uniFB00" unicode="&#xfb00;" horiz-adv-x="712" 
d="M915 747l-11 -12q-44 25 -93 25q-46 0 -78 -28.5t-44 -81.5l-23 -106h109l-17 -22h-96l-103 -482q-17 -81 -76 -140.5t-132.5 -88.5t-158.5 -39l-1 12q62 16 109 79.5t67 156.5l106 502h-157l-103 -482q-17 -81 -76 -140.5t-132.5 -88.5t-158.5 -39l-1 12q62 16 109 79.5
t67 156.5l106 502h-53l5 22h53l15 70q19 93 79.5 143.5t152.5 50.5q87 0 162 -53l-11 -12q-31 11 -66 11q-46 0 -78 -28.5t-44 -81.5l-21 -100h157l16 76q19 93 79.5 143.5t152.5 50.5q114 0 189 -67z" />
    <glyph glyph-name="fi" unicode="&#xfb01;" horiz-adv-x="673" 
d="M601 606l-92 120l132 104l92 -120zM592 544l86 18h4l-119 -562h-188l111 522h-170l-103 -482q-17 -81 -76 -140.5t-132.5 -88.5t-158.5 -39l-1 12q62 16 109 79.5t67 156.5l106 502h-53l5 22h53l16 76q19 93 79.5 143.5t152.5 50.5q68 0 150 -48l-8 -15q-30 9 -57 9
q-46 0 -78 -28.5t-44 -81.5l-23 -106h272z" />
    <glyph glyph-name="fl" unicode="&#xfb02;" horiz-adv-x="687" 
d="M746 810h4l-173 -810h-188l158 741q-38 19 -82 19q-46 0 -78 -28.5t-44 -81.5l-23 -106h109l-17 -22h-96l-103 -482q-17 -81 -76 -140.5t-132.5 -88.5t-158.5 -39l-1 12q62 16 109 79.5t67 156.5l106 502h-53l5 22h53l16 76q19 93 79.5 143.5t152.5 50.5q106 0 180 -60z
" />
    <glyph glyph-name="uniFB03" unicode="&#xfb03;" horiz-adv-x="1019" 
d="M947 606l-92 120l132 104l92 -120zM938 544l86 18h4l-119 -562h-188l111 522h-170l-103 -482q-17 -81 -76 -140.5t-132.5 -88.5t-158.5 -39l-1 12q62 16 109 79.5t67 156.5l106 502h-157l-103 -482q-17 -81 -76 -140.5t-132.5 -88.5t-158.5 -39l-1 12q62 16 109 79.5
t67 156.5l106 502h-53l5 22h53l15 70q19 93 79.5 143.5t152.5 50.5q87 0 162 -53l-11 -12q-31 11 -66 11q-46 0 -78 -28.5t-44 -81.5l-21 -100h157l16 76q19 93 79.5 143.5t152.5 50.5q68 0 150 -48l-8 -15q-30 9 -57 9q-46 0 -78 -28.5t-44 -81.5l-23 -106h272z" />
    <glyph glyph-name="uniFEFF" unicode="&#xfeff;" 
 />
    <glyph glyph-name="NULL" 
 />
    <glyph glyph-name="i.latn_TRK" horiz-adv-x="291" 
d="M-7 0l111 521l192 41h4l-119 -562h-188zM219 606l-92 120l132 104l92 -120z" />
    <glyph glyph-name="Ldot.latn_CAT" horiz-adv-x="550" 
d="M475 150h2l-58 -150h-413l154 728h202l-150 -710h9q99 0 254 132zM440 338l-92 120l132 104l92 -120z" />
    <glyph glyph-name="ldot.latn_CAT" horiz-adv-x="513" 
d="M-6 0l161 759l195 51h4l-172 -810h-188zM406 278l-92 120l132 104l92 -120z" />
    <glyph glyph-name="zero.numr" horiz-adv-x="451" 
d="M73 437q0 124 60.5 209.5t163.5 85.5q82 0 128.5 -46.5t46.5 -135.5q0 -124 -60.5 -209t-163.5 -85q-81 0 -128 47t-47 134zM355 624q0 99 -47 99q-33 0 -60 -62q-27 -61 -42 -148q-15 -85 -15 -150q0 -98 46 -98q34 0 61 62q27 61 42 147t15 150z" />
    <glyph glyph-name="one.numr" horiz-adv-x="227" 
d="M273 736h3l-100 -472h-112l79 374q-30 -8 -52 -11l2 8q35 7 89 37q48 26 91 64z" />
    <glyph glyph-name="two.numr" horiz-adv-x="358" 
d="M117 343h32q119 0 204 13l-45 -96h-296l1 3l42 38q60 55 103 100q46 47 77 100q34 55 34 108q0 37 -20.5 56.5t-54.5 19.5q-42 0 -89 -47l-8 4q58 90 162 90q58 0 96.5 -31.5t38.5 -84.5q0 -52 -39 -99q-35 -43 -92 -83q-44 -30 -146 -91z" />
    <glyph glyph-name="three.numr" horiz-adv-x="359" 
d="M31 289l23 58q34 -81 102 -81q44 0 70.5 29t26.5 77q0 47 -26.5 81.5t-73.5 49.5l-1 7l13 4q43 13 71.5 43.5t28.5 66.5q0 27 -18 42.5t-49 15.5q-46 0 -92 -42l-7 4q67 88 164 88q53 0 87.5 -25t34.5 -63q0 -41 -37 -72q-36 -31 -83 -36v-2q41 -12 68 -45t27 -77
q0 -68 -57 -112t-145 -44q-60 0 -127 33z" />
    <glyph glyph-name="four.numr" horiz-adv-x="367" 
d="M388 728l-63 -296h58l-34 -68h-38l-22 -104h-115l22 104h-153l-10 54l320 310h35zM67 432h143l38 176z" />
    <glyph glyph-name="five.numr" horiz-adv-x="337" 
d="M360 645h-214l-19 -66q104 -6 158 -47.5t54 -113.5t-56.5 -117t-135.5 -45q-74 0 -122 36l19 43q13 -31 37.5 -50t56.5 -19q46 0 73.5 28.5t27.5 75.5q0 50 -41 79t-113 32l74 247h245z" />
    <glyph glyph-name="six.numr" horiz-adv-x="407" 
d="M61 413q-2 74 46 147t124.5 120.5t156.5 51.5l2 -9q-64 -11 -113.5 -69t-74 -137t-23.5 -162q0 -90 45 -90q33 -3 56.5 58t22.5 120q0 73 -43 73q-21 0 -40 -16l-6 7q38 46 97 46q45 0 78.5 -34.5t33.5 -88.5q0 -75 -54 -124.5t-135 -49.5t-127 42.5t-46 114.5z" />
    <glyph glyph-name="seven.numr" horiz-adv-x="324" 
d="M117 728h295v-3l-249 -465h-109l299 384h-83q-121 0 -184 -15z" />
    <glyph glyph-name="eight.numr" horiz-adv-x="379" 
d="M377 394q0 -61 -51 -99.5t-122 -38.5q-63 0 -109 28q-45 28 -45 77q0 42 32.5 75t84.5 45q-61 49 -61 110q0 60 48 100.5t115 40.5q53 0 93 -27t40 -71q0 -38 -30.5 -67t-81.5 -41q87 -61 87 -132zM196 638q0 -48 61 -89l24 -16q52 46 52 122q0 31 -16.5 49.5t-45.5 18.5
q-35 0 -55 -23.5t-20 -61.5zM287 352q0 30 -15.5 49t-51.5 43l-25 17q-2 2 -8.5 6t-10.5 8q-56 -50 -56 -131q0 -38 21.5 -58.5t56.5 -20.5q41 0 65 24t24 63z" />
    <glyph glyph-name="nine.numr" horiz-adv-x="407" 
d="M113 256l-2 9q64 11 113.5 69t74 137t23.5 162q0 90 -45 90q-33 3 -56.5 -58t-22.5 -120q0 -73 43 -73q21 0 40 16l6 -7q-38 -46 -97 -46q-45 0 -78.5 34.5t-33.5 88.5q0 75 54 124.5t135 49.5t127 -42.5t46 -114.5q2 -74 -46 -147.5t-125 -120.5t-156 -51z" />
    <glyph glyph-name="zero.dnom" horiz-adv-x="451" 
d="M18 177q0 124 60.5 209.5t163.5 85.5q82 0 128.5 -46.5t46.5 -135.5q0 -124 -60.5 -209t-163.5 -85q-81 0 -128 47t-47 134zM300 364q0 99 -47 99q-33 0 -60 -62q-27 -61 -42 -148q-15 -85 -15 -150q0 -98 46 -98q34 0 61 62q27 61 42 147t15 150z" />
    <glyph glyph-name="one.dnom" horiz-adv-x="227" 
d="M217 472h3l-100 -472h-112l79 374q-30 -8 -52 -11l2 8q35 7 89 37q48 26 91 64z" />
    <glyph glyph-name="two.dnom" horiz-adv-x="358" 
d="M61 83h32q119 0 204 13l-45 -96h-296l1 3l42 38q60 55 103 100q46 47 77 100q34 55 34 108q0 37 -20.5 56.5t-54.5 19.5q-42 0 -89 -47l-8 4q58 90 162 90q58 0 96.5 -31.5t38.5 -84.5q0 -52 -39 -99q-35 -43 -92 -83q-44 -30 -146 -91z" />
    <glyph glyph-name="three.dnom" horiz-adv-x="359" 
d="M-24 29l23 58q35 -81 102 -81q44 0 70.5 29t26.5 77q0 47 -26.5 81.5t-73.5 49.5l-1 7l13 4q43 13 71.5 43.5t28.5 66.5q0 27 -18 42.5t-49 15.5q-46 0 -92 -42l-7 4q67 88 164 88q53 0 87.5 -25t34.5 -63q0 -41 -37 -72q-36 -31 -83 -36v-2q41 -12 68 -45t27 -77
q0 -68 -57 -112t-145 -44q-60 0 -127 33z" />
    <glyph glyph-name="four.dnom" horiz-adv-x="367" 
d="M333 468l-63 -296h58l-34 -68h-38l-22 -104h-115l22 104h-153l-10 54l320 310h35zM12 172h143l38 176z" />
    <glyph glyph-name="five.dnom" horiz-adv-x="337" 
d="M305 385h-214l-19 -66q104 -6 158 -47.5t54 -113.5t-56.5 -117t-135.5 -45q-74 0 -122 36l19 43q13 -31 37.5 -50t56.5 -19q46 0 73.5 28.5t27.5 75.5q0 50 -41 79t-113 32l74 247h245z" />
    <glyph glyph-name="six.dnom" horiz-adv-x="407" 
d="M6 153q-2 74 46 147t124.5 120.5t156.5 51.5l2 -9q-64 -11 -113.5 -69t-74 -137t-23.5 -162q0 -90 45 -90q33 -3 56.5 58t22.5 120q0 73 -43 73q-21 0 -40 -16l-6 7q38 46 97 46q45 0 78.5 -34.5t33.5 -88.5q0 -75 -54 -124.5t-135 -49.5t-127 42.5t-46 114.5z" />
    <glyph glyph-name="seven.dnom" horiz-adv-x="324" 
d="M62 468h295v-3l-249 -465h-109l299 384h-83q-121 0 -184 -15z" />
    <glyph glyph-name="eight.dnom" horiz-adv-x="379" 
d="M322 134q0 -61 -51 -99.5t-122 -38.5q-63 0 -109 28q-45 28 -45 77q0 42 32.5 75t84.5 45q-61 49 -61 110q0 60 48 100.5t115 40.5q52 0 93 -27q40 -27 40 -71q0 -38 -30.5 -67t-81.5 -41q87 -61 87 -132zM141 378q0 -48 61 -89l24 -16q52 46 52 122q0 31 -16.5 49.5
t-45.5 18.5q-35 0 -55 -23.5t-20 -61.5zM232 92q0 30 -15.5 49t-51.5 43l-25 17q-2 2 -8.5 6t-10.5 8q-56 -50 -56 -131q0 -38 21.5 -58.5t56.5 -20.5q41 0 65 24t24 63z" />
    <glyph glyph-name="nine.dnom" horiz-adv-x="407" 
d="M58 -4l-2 9q64 11 113.5 69t74 137t23.5 162q0 90 -45 90q-33 3 -56.5 -58t-22.5 -120q0 -73 43 -73q21 0 40 16l6 -7q-38 -46 -97 -46q-45 0 -78.5 34.5t-33.5 88.5q0 75 54 124.5t135 49.5t127 -42.5t46 -114.5q2 -74 -46 -147.5t-125 -120.5t-156 -51z" />
    <glyph glyph-name="parenleft.case" horiz-adv-x="227" 
d="M33 207q0 153 75 308q77 155 202 267l12 -8q-106 -95 -179.5 -274t-71.5 -337q0 -132 53 -221l-13 -8q-78 120 -78 273z" />
    <glyph glyph-name="parenright.case" horiz-adv-x="226" 
d="M-48 -66l-12 8q106 95 179.5 274t71.5 337q0 132 -53 221l13 8q78 -120 78 -273q0 -155 -76 -308q-75 -155 -201 -267z" />
    <glyph glyph-name="hyphen.case" horiz-adv-x="294" 
d="M55 352l8 38h215l-8 -38h-215z" />
    <glyph glyph-name="bracketleft.case" horiz-adv-x="222" 
d="M126 358q-21 -102 -47 -197q-23 -92 -60 -215h135l-2 -12h-160l180 848h160l-2 -12h-136q-15 -123 -30 -212q-13 -84 -38 -200z" />
    <glyph glyph-name="bracketright.case" horiz-adv-x="222" 
d="M107 782h160l-180 -848h-160l2 12h136q13 105 29 212q15 92 39 200q19 89 46 197q31 113 61 215h-135z" />
    <glyph glyph-name="braceleft.case" horiz-adv-x="325" 
d="M420 782l-2 -12q-72 0 -105 -29.5t-33 -95.5q0 -6 5 -61q5 -37 5 -57q0 -65 -62 -112t-140 -57q55 -9 98 -40q43 -30 43 -77q0 -38 -41 -105q-24 -43 -32.5 -64t-8.5 -43q0 -83 95 -83l-2 -12q-122 0 -177 27.5t-55 85.5q0 25 11 50t41 72q27 43 37.5 65t10.5 44
q0 64 -71 74l2 12q54 8 83.5 42.5t29.5 80.5q0 9 -2 23t-4.5 26.5t-2.5 15.5q-11 49 -11 75q1 40 14.5 68t35 45t59.5 26t78 12.5t101 3.5z" />
    <glyph glyph-name="braceright.case" horiz-adv-x="325" 
d="M324 364l-2 -12q-54 -8 -83.5 -42.5t-29.5 -80.5q0 -9 2 -23t4.5 -26.5t2.5 -15.5q11 -49 11 -75q-1 -40 -14.5 -68t-35 -45t-59.5 -26t-78 -12.5t-101 -3.5l2 12q72 0 105 29.5t33 95.5q0 6 -5 61q-5 37 -5 57q0 65 62 112t140 57q-54 9 -98 39q-43 31 -43 78
q0 38 41 105q24 43 32.5 64t8.5 43q0 83 -95 83l2 12q122 0 177 -27.5t55 -85.5q0 -25 -11 -50t-41 -72q-27 -43 -37.5 -65t-10.5 -44q0 -64 71 -74z" />
    <glyph glyph-name="exclamdown.case" horiz-adv-x="277" 
d="M236 752l92 -120l-132 -104l-92 120zM193 484l-11 -484h-202l195 484h18z" />
    <glyph glyph-name="guillemotleft.case" horiz-adv-x="517" 
d="M348 630l-164 -261l56 -243h-12l-178 252l286 252h12zM558 630l-164 -261l56 -243h-12l-178 252l286 252h12z" />
    <glyph glyph-name="uni00AD.case" horiz-adv-x="294" 
d="M55 352l8 38h215l-8 -38h-215z" />
    <glyph glyph-name="periodcentered.case" horiz-adv-x="250" 
d="M141 338l-92 120l132 104l92 -120z" />
    <glyph glyph-name="guillemotright.case" horiz-adv-x="517" 
d="M124 630l178 -252l-286 -252h-12l164 261l-56 243h12zM334 630l178 -252l-286 -252h-12l164 261l-56 243h12z" />
    <glyph glyph-name="questiondown.case" horiz-adv-x="517" 
d="M367 752l92 -120l-132 -104l-92 120zM374 426q0 -26 -16 -48t-56 -58q-53 -46 -76 -82t-23 -84t30.5 -75.5t83.5 -27.5q37 0 67.5 14t68.5 44l10 -9q-32 -38 -94 -75q-61 -37 -152 -37q-98 0 -154 43.5t-56 114.5q0 59 32 100q30 38 71 60t118 50q65 23 90.5 39.5
t25.5 39.5q0 15 -10 25t-28 10q-10 0 -26 -3v14q14 3 29 3q28 0 46.5 -16t18.5 -42z" />
    <glyph glyph-name="gravecomb.case" 
d="M-199 784l-178 196h178l8 -191z" />
    <glyph glyph-name="acutecomb.case" 
d="M-242 784l-7 5l90 191h178z" />
    <glyph glyph-name="uni0302.case" 
d="M-39 789l-6 -5l-153 75l-197 -75l-6 5l221 191h6z" />
    <glyph glyph-name="tildecomb.case" 
d="M-388 796l-11 3q19 73 54 114t80 41q38 0 93 -35q45 -27 68 -27q59 0 92 62l11 -3q-19 -72 -54.5 -113.5t-80.5 -41.5q-37 0 -93 35q-47 27 -67 27q-59 0 -92 -62z" />
    <glyph glyph-name="uni0304.case" 
d="M-369 832l12 52h327l-12 -52h-327z" />
    <glyph glyph-name="uni0306.case" 
d="M-359 971l9 3q15 -38 55.5 -61t95.5 -23t105.5 23.5t80.5 60.5l9 -3q-82 -175 -215 -175q-131 0 -140 175z" />
    <glyph glyph-name="uni0307.case" 
d="M-220 784l-92 120l132 104l92 -120z" />
    <glyph glyph-name="uni0308.case" 
d="M-352 784l-76 100l110 86l76 -100zM-122 784l-76 100l110 86l76 -100z" />
    <glyph glyph-name="uni030A.case" 
d="M-333 893q0 50 36.5 79.5t96.5 29.5t96.5 -29.5t36.5 -79.5t-36.5 -79.5t-96.5 -29.5t-96.5 29.5t-36.5 79.5zM-137 893q0 44 -16.5 69.5t-46.5 25.5t-46.5 -25.5t-16.5 -69.5t16.5 -69.5t46.5 -25.5t46.5 25.5t16.5 69.5z" />
    <glyph glyph-name="uni030B.case" 
d="M-422 784l-7 5l98 191h150zM-252 784l-7 5l98 191h150z" />
    <glyph glyph-name="uni030C.case" 
d="M-5 980l6 -5l-221 -191h-6l-135 191l6 5l153 -75z" />
    <glyph glyph-name="uni0326.case" 
d="M-301 -283l-4 5q30 10 52.5 37t22.5 56q0 45 -61 64l73 71q37 -11 58.5 -36t21.5 -57q0 -52 -49 -88q-49 -37 -114 -52z" />
    <glyph glyph-name="uni0327.case" 
d="M-120 -136q0 -40 -38.5 -71t-95.5 -31q-33 0 -69 10q-36 9 -53 26l5 9q9 -5 35.5 -10.5t44.5 -5.5q29 0 47 14t18 35q0 40 -72 40h-26l79 120h20l-28 -42q62 -4 97.5 -30t35.5 -64z" />
    <glyph glyph-name="uni0328.case" 
d="M-367 -165q0 58 55 98q57 40 138 68h16q-50 -44 -70 -72.5t-20 -63.5q0 -49 55 -49q23 0 61 12l2 -5q-67 -61 -144 -61q-42 0 -67.5 20t-25.5 53z" />
    <glyph glyph-name="endash.case" horiz-adv-x="428" 
d="M41 381l4 18h390l-4 -18h-390z" />
    <glyph glyph-name="emdash.case" horiz-adv-x="718" 
d="M41 381l4 18h680l-4 -18h-680z" />
    <glyph glyph-name="bullet.case" horiz-adv-x="355" 
d="M180 265l-110 144l158 124l110 -143z" />
    <glyph glyph-name="guilsinglleft.case" horiz-adv-x="308" 
d="M344 615l-164 -261l56 -243h-12l-178 252l286 252h12z" />
    <glyph glyph-name="guilsinglright.case" horiz-adv-x="308" 
d="M123 615l178 -252l-286 -252h-12l164 261l-56 243h12z" />
    <glyph glyph-name="A_A" horiz-adv-x="1032" 
d="M775 0l-47 232h-200l47 -232h-207l-47 232h-204q-44 -80 -61 -133q-16 -51 -16 -99h-112q57 74 102 140q37 52 118 182l270 430h4l99 -485l304 485h4l153 -752h-207zM128 250h190l-47 232l-105 -168zM533 250h192l-47 232z" />
    <glyph glyph-name="A_N_D" horiz-adv-x="991" 
d="M58 213h-61q40 50 49 63q54 79 58 85l129 194h4l79 -309q19 48 32 112l29 138l-27 45l1 3h108l120 -202l12 57q15 79 15 125q0 16 -1 20h50q-27 -52 -48 -145l-41 -192h-16l-161 269l-25 -118q-15 -70 -15 -124q0 -17 1 -21h-132l-26 103h-98q-36 -63 -36 -103zM984 407
q0 -90 -69.5 -142t-186.5 -52h-116l71 331h133q77 0 122.5 -38t45.5 -99zM876 437q0 43 -17.5 68.5t-47.5 25.5h-27l-64 -303q18 -2 28 -2q56 -2 92.5 66t35.5 145zM118 354l-15 -24h85l-24 94zM0 132l3 14h897l-3 -14h-897z" />
    <glyph glyph-name="C_A" horiz-adv-x="1234" 
d="M977 0l-47 232h-204q-44 -80 -61 -133q-16 -51 -16 -99h-94l100 155q-64 -78 -143.5 -122.5t-163.5 -44.5q-133 0 -216.5 88.5t-83.5 226.5q-1 115 51.5 216.5t147.5 162t207 58.5q154 0 256 -136l-95 -69q-11 78 -47 132q-37 57 -98 57q-62 0 -110 -71q-46 -70 -72 -176
q-25 -103 -25 -201q0 -216 169 -216q73 0 151 54q79 55 128 135l316 503h4l153 -752h-207zM737 250h190l-47 232l-105 -168z" />
    <glyph glyph-name="C_O_period" horiz-adv-x="1015" 
d="M48 303q-1 115 51.5 216.5t147.5 162t207 58.5q154 0 256 -136l-95 -69q-11 78 -47 132q-37 57 -98 57q-62 0 -110 -71q-46 -70 -72 -176q-25 -103 -25 -201q0 -216 169 -216q120 0 197 90l12 -7q-55 -74 -131.5 -114.5t-161.5 -40.5q-133 0 -216.5 88.5t-83.5 226.5z
M655 355q0 83 58 138.5t142 55.5q77 0 123 -40t46 -106q0 -83 -58 -138.5t-143 -55.5q-76 0 -122 40t-46 106zM913 451q0 85 -51 85q-30 2 -53 -36.5t-33 -90.5t-10 -103q0 -84 51 -84q30 -2 53 36.5t33.5 91t9.5 101.5zM768 -24l-81 106l117 92l81 -106z" />
    <glyph glyph-name="D_O" horiz-adv-x="1179" 
d="M1168 424q3 -183 -119.5 -311t-300.5 -125q-116 0 -198 62q-112 -50 -257 -50h-287l154 728h304q110 0 188 -36q86 48 181 48q146 0 240.5 -86.5t94.5 -229.5zM962 518q0 206 -138 206q-76 0 -132 -55q110 -74 110 -223q0 -123 -52.5 -218t-149.5 -153q44 -71 135 -71
q73 0 124 79q51 77 77 199t26 236zM323 16q108 0 185 74q-70 83 -70 210q0 108 45.5 204.5t124.5 157.5q-47 50 -143 50h-106l-146 -687q27 -9 110 -9zM641 602q-79 -140 -79 -363q0 -41 6 -75q86 141 86 345q0 55 -13 93z" />
    <glyph glyph-name="D_O_G" horiz-adv-x="1532" 
d="M1262 312l-7 18h256l-56 -264q-149 -78 -257 -78q-133 0 -218 46q-88 -46 -196 -46q-134 0 -226 65q-117 -53 -265 -53h-287l154 728h304q111 0 192 -38q95 50 206 50q114 0 196 -46q88 46 199 46q169 0 285 -139l-95 -70q-12 75 -66 134t-131 59q-83 0 -143 -65
q100 -86 100 -234q0 -110 -45 -203.5t-126 -153.5q53 -62 156 -62q34 0 73 13l62 293h-65zM941 58q-109 81 -109 238q0 119 49 216.5t136 157.5q-55 54 -160 54q-91 0 -159 -59q104 -77 104 -219q0 -121 -50 -214t-143 -151q57 -77 180 -77q87 0 152 54zM323 16
q111 0 189 78q-74 83 -74 209q0 110 45.5 203.5t126.5 153.5q-46 52 -145 52h-106l-146 -687q27 -9 110 -9zM643 599q-80 -131 -80 -342q0 -42 8 -87q83 139 83 339q0 51 -11 90zM1063 597q-77 -139 -77 -358q0 -65 16 -110q80 128 80 342q0 75 -19 126z" />
    <glyph glyph-name="D_O_O" horiz-adv-x="1575" 
d="M1564 424q3 -183 -119.5 -311t-300.5 -125q-98 0 -169 43q-85 -43 -190 -43q-135 0 -227 65q-115 -53 -265 -53h-287l154 728h304q114 0 193 -39q93 51 206 51q110 0 193 -44q80 44 173 44q146 0 240.5 -86.5t94.5 -229.5zM939 55q-105 86 -105 245q0 113 49 212t134 159
q-56 53 -159 53q-91 0 -159 -59q103 -74 103 -219q0 -246 -192 -365q56 -77 180 -77q84 0 149 51zM1358 518q0 206 -138 206q-72 0 -128 -51q116 -85 116 -248q0 -118 -52 -216.5t-143 -156.5q45 -48 118 -48t124 79q51 77 77 199t26 236zM323 16q109 0 190 78
q-74 83 -74 209q0 111 45 204t126 153q-46 52 -145 52h-106l-146 -687q27 -9 110 -9zM1052 625q-47 -69 -71 -171q-23 -106 -23 -215q0 -85 25 -139q100 127 100 371q0 93 -31 154zM643 597q-79 -129 -79 -340q0 -41 8 -86q82 142 82 338q0 52 -11 88z" />
    <glyph glyph-name="E_A" horiz-adv-x="1095" 
d="M838 0l-47 232h-206l-145 -232h-434l154 728h452l-10 -114h-2q-84 96 -217 96h-25l-68 -322h10q154 0 192 48h2l-26 -122h-2q-19 56 -170 56h-10l-74 -352h30q142 0 268 132l378 602h4l153 -752h-207zM596 250h192l-47 232z" />
    <glyph glyph-name="E_T" horiz-adv-x="1103" 
d="M160 728h452l-10 -114h-2q-84 96 -217 96h-25l-68 -322h10q154 0 192 48h2l-26 -122h-2q-19 56 -170 56h-10l-74 -352h30q138 0 272 106h2l-50 -124h-460zM648 728h527l-12 -138h-2q-48 70 -78 94q-31 26 -67 26h-11l-150 -710h-202l150 710h-9q-38 0 -76 -20t-106 -76
h-2z" />
    <glyph glyph-name="E_V" horiz-adv-x="1114" 
d="M1112 728h112q-49 -64 -103 -140q-38 -56 -117 -182l-270 -430h-4l-130 638q-14 58 -61.5 77t-155.5 19h-25l-68 -322h10q154 0 192 48h2l-26 -122h-2q-19 56 -170 56h-10l-74 -352h30q138 0 272 106h2l-50 -124h-460l154 728h624l97 -482l105 168q76 122 100 188
q26 70 26 126z" />
    <glyph glyph-name="E_V_T" horiz-adv-x="1626" 
d="M1698 728l-12 -138h-2q-48 70 -78 94q-31 26 -67 26h-11l-150 -710h-202l150 710h-9q-45 0 -98 -31t-99 -89l-386 -614h-4l-130 638q-14 58 -61.5 77t-155.5 19h-25l-68 -322h10q154 0 192 48h2l-26 -122h-2q-19 56 -170 56h-10l-74 -352h30q138 0 272 106h2l-50 -124
h-460l154 728h624l97 -482l105 168q72 116 103 186q30 67 43 128h566z" />
    <glyph glyph-name="E_W" horiz-adv-x="1355" 
d="M1369 728h91q-43 -60 -83 -126q-26 -42 -112 -194l-244 -432h-5l-66 436l-248 -436h-4l-90 638q-16 59 -65 77.5t-160 18.5h-25l-68 -322h10q154 0 192 48h2l-26 -122h-2q-19 56 -170 56h-10l-74 -352h30q138 0 272 106h2l-50 -124h-460l154 728h637l62 -437l249 437h4
l66 -434l67 120q65 114 89 184q27 77 35 130z" />
    <glyph glyph-name="E_X" horiz-adv-x="1145" 
d="M961 471l134 -236l-58 -277h-9l-214 377l-288 -335h-520l154 728h402v-114h-2q-50 57 -83 75.5t-94 20.5h-25l-68 -322h10q154 0 192 48h2l-26 -122h-2q-19 56 -170 56h-10l-74 -352h30q114 0 217 35q103 34 168 95l177 204l-213 376h224l136 -239q84 97 116 145
q35 54 44 94h112q-125 -98 -262 -257z" />
    <glyph glyph-name="E_X_A" horiz-adv-x="1713" 
d="M1456 0l-47 232h-203l-169 -274h-9l-214 377l-288 -335h-520l154 728h402v-114h-2q-50 57 -83 75.5t-94 20.5h-25l-68 -322h10q154 0 192 48h2l-26 -122h-2q-19 56 -170 56h-10l-74 -352h30q114 0 217 35q103 34 168 95l177 204l-213 376h224l136 -239q84 97 116 145
q35 54 44 94h112q-125 -98 -262 -257l175 -308l370 589h4l153 -752h-207zM1217 250h189l-47 230z" />
    <glyph glyph-name="E_X_T" horiz-adv-x="1601" 
d="M1673 728l-12 -138h-2q-48 70 -78 94q-31 26 -67 26h-11l-150 -710h-202l150 710h-9q-47 0 -109.5 -31t-118.5 -89l-103 -119l134 -236l-58 -277h-9l-214 377l-288 -335h-520l154 728h402v-114h-2q-50 57 -83 75.5t-94 20.5h-25l-68 -322h10q154 0 192 48h2l-26 -122h-2
q-19 56 -170 56h-10l-74 -352h30q114 0 217 35q103 34 168 95l177 204l-213 376h224l136 -239q80 93 116 141q38 50 64 98h542z" />
    <glyph glyph-name="E_Y" horiz-adv-x="1090" 
d="M966 431l-82 -115l-66 -316h-202l67 321l-87 293q-23 61 -63 78t-150 18h-25l-68 -322h10q154 0 192 48h2l-26 -122h-2q-19 56 -170 56h-10l-74 -352h30q138 0 272 106h2l-50 -124h-460l154 728h612l112 -378l65 92q118 166 144 286h91q-101 -132 -218 -297z" />
    <glyph glyph-name="F_T" horiz-adv-x="1098" 
d="M160 728h447l-10 -114h-2q-90 96 -219 96h-18l-70 -334h1q155 0 196 48h2l-26 -122h-2q-20 56 -174 56h-1l-76 -358h-202zM643 728h527l-12 -138h-2q-48 70 -78 94q-31 26 -67 26h-11l-150 -710h-202l150 710h-9q-38 0 -76 -20t-106 -76h-2z" />
    <glyph glyph-name="F_V" horiz-adv-x="1109" 
d="M1107 728h112q-49 -64 -103 -140q-38 -56 -117 -182l-270 -430h-4l-130 638q-17 58 -63 76.5t-156 19.5h-18l-70 -334h1q155 0 196 48h2l-26 -122h-2q-20 56 -174 56h-1l-76 -358h-202l154 728h619l97 -482l105 168q76 122 100 188q26 70 26 126z" />
    <glyph glyph-name="F_W" horiz-adv-x="1342" 
d="M1356 728h91q-43 -60 -83 -126q-26 -42 -112 -194l-244 -432h-5l-66 436l-248 -436h-4l-90 638q-17 58 -63 76.5t-156 19.5h-18l-70 -334h1q155 0 196 48h2l-26 -122h-2q-20 56 -174 56h-1l-76 -358h-202l154 728h624l62 -437l249 437h4l66 -434l67 120q65 114 89 184
q27 77 35 130z" />
    <glyph glyph-name="F_Y" horiz-adv-x="1089" 
d="M965 431l-82 -115l-66 -316h-202l67 321l-87 293q-17 58 -63 76.5t-156 19.5h-18l-70 -334h1q155 0 196 48h2l-26 -122h-2q-20 56 -174 56h-1l-76 -358h-202l154 728h611l112 -378l65 92q118 166 144 286h91q-101 -132 -218 -297z" />
    <glyph glyph-name="K_A" horiz-adv-x="1225" 
d="M968 0l-47 232h-203l-169 -274h-10l-235 415l158 136q86 74 125 122q38 47 64 97h122l-1 -2q-56 -33 -106 -72q-64 -50 -140 -116l-51 -45l-19 -16l185 -326l377 601h4l153 -752h-207zM161 728h202l-155 -728h-202zM729 250h189l-47 230z" />
    <glyph glyph-name="K_AE" horiz-adv-x="1467" 
d="M161 728h202l-155 -728h-202zM1512 728l-10 -114h-2q-84 96 -217 96h-25l-68 -322h10q154 0 192 48h2l-26 -122h-2q-19 56 -170 56h-10l-74 -352h30q138 0 272 106h2l-50 -124h-460l55 262h-206l-206 -304h-10l-235 415l158 136q86 74 125 122q38 47 64 97h122l-1 -2
q-56 -33 -106 -72q-64 -50 -140 -116l-51 -45l-19 -16l189 -333l400 584h467zM768 280h197l90 423z" />
    <glyph glyph-name="K_S" horiz-adv-x="1204" 
d="M866 601q0 -29 17 -55q16 -23 36.5 -39t62.5 -43l42 -27q46 -30 71 -52q77 -62 77 -156q0 -107 -75.5 -174t-196.5 -67q-65 0 -140 19q-78 20 -105 34l23 111q24 -57 94.5 -102.5t134.5 -45.5q60 0 94.5 35t34.5 91q0 39 -24.5 67t-82.5 66q-3 1 -18 11l-41 27
q-33 21 -65 48q-73 63 -73 157q0 106 73.5 170t191.5 64q66 0 126 -22q61 -22 89 -40l-39 -91q-30 55 -75 96q-44 41 -106 41q-58 0 -92 -35t-34 -88zM161 728h202l-155 -728h-202zM455 476l204 -283l-50 -235h-10l-295 415l158 136q86 74 125 122q38 47 64 97h122l-1 -2
q-56 -33 -106 -72q-64 -50 -140 -116l-51 -45z" />
    <glyph glyph-name="K_T" horiz-adv-x="1160" 
d="M161 728h202l-155 -728h-202zM1232 728l-12 -138h-2q-48 70 -78 94q-31 26 -67 26h-11l-150 -710h-202l150 710h-9q-49 0 -131 -39q-82 -37 -155 -101l-110 -94l204 -283l-50 -235h-10l-295 415l158 136q90 79 125 119q39 43 78 100h567z" />
    <glyph glyph-name="L_A" horiz-adv-x="1080" 
d="M823 0l-47 232h-206l-145 -232h-419l154 728h202l-150 -710h9q120 0 274 132l378 602h4l153 -752h-207zM581 250h192l-47 232z" />
    <glyph glyph-name="L_AE" horiz-adv-x="1312" 
d="M1357 728l-10 -114h-2q-84 96 -217 96h-25l-68 -322h10q155 0 192 48h2l-26 -122h-2q-19 56 -170 56h-10l-74 -352h30q138 0 272 106h2l-50 -124h-460l55 262h-207l-179 -262h-414l154 728h202l-150 -710h9q120 0 274 132l395 578h467zM611 280h199l90 423z" />
    <glyph glyph-name="L_L" horiz-adv-x="983" 
d="M465 150h2l-58 -150h-403l154 728h202l-150 -710h9q90 0 244 132zM943 150h2l-58 -150h-413l154 728h202l-150 -710h9q90 0 254 132z" />
    <glyph glyph-name="L_S" horiz-adv-x="994" 
d="M656 601q0 -29 17 -55q16 -23 36.5 -39t62.5 -43l42 -27q46 -30 71 -52q77 -62 77 -156q0 -107 -75.5 -174t-196.5 -67q-59 0 -144 25.5t-106 40.5l37 96q25 -60 90 -104q65 -42 130 -42q60 0 94.5 35t34.5 91q0 39 -24.5 67t-82.5 66q-3 1 -18 11l-41 27q-33 21 -65 48
q-73 63 -73 157q0 106 73.5 170t191.5 64q66 0 126 -22q61 -22 89 -40l-39 -91q-30 55 -75 96q-44 41 -106 41q-58 0 -92 -35t-34 -88zM475 150h2l-58 -150h-413l154 728h202l-150 -710h9q99 0 254 132z" />
    <glyph glyph-name="M_C_period" horiz-adv-x="1224" 
d="M468 339l219 389h181l-85 -728h-199l75 638l-334 -592h-4l-129 557l-84 -285q-43 -139 -43 -268q0 -39 1 -50h-100q67 133 122 318l96 323l-20 84l1 3h213zM1189 291l11 -8q-61 -74 -149 -74q-71 0 -113.5 39.5t-42.5 103.5q0 86 56 141.5t144 55.5q78 0 135 -65l-55 -37
q-6 39 -24 64t-47 25q-28 2 -50.5 -30.5t-33 -77t-9.5 -86.5q0 -97 82 -97q56 0 96 46zM909 82l117 92l81 -106l-117 -92z" />
    <glyph glyph-name="N_period" horiz-adv-x="368" 
d="M264 704q0 45 -61 64l73 71q37 -11 58.5 -36t21.5 -57q0 -51 -50 -89q-50 -36 -113 -51l-4 5q30 10 52.5 37t22.5 56zM346 544h52q-32 -62 -48 -144l-40 -190h-12l-176 266l-25 -117q-14 -70 -14 -112q0 -6 2 -32h-54q34 63 50 144l29 136l-31 46v3h112l131 -198l12 54
q14 67 14 110q0 4 -2 34zM197 -4q0 -52 -50 -88q-49 -37 -113 -52l-4 5q30 10 52.5 37t22.5 56q0 45 -61 64l73 71q37 -11 58.5 -36t21.5 -57z" />
    <glyph glyph-name="O_C" horiz-adv-x="1013" 
d="M975 150l12 -7q-55 -74 -131.5 -114.5t-161.5 -40.5q-87 0 -151 37q-73 -37 -159 -37q-146 0 -240.5 86.5t-94.5 229.5q-3 183 119.5 311t300.5 125q94 0 164 -40q76 40 167 40q154 0 256 -136l-95 -69q-11 78 -47 132q-38 57 -98 57q-70 0 -128 -64q91 -86 91 -232
q0 -96 -36 -183t-100 -150q52 -37 131 -37q121 0 201 92zM511 47q-106 86 -106 245q0 120 51 224q53 105 141 163q-44 45 -115 45q-72 0 -125 -80q-52 -81 -77 -199q-25 -116 -25 -235q0 -206 138 -206q66 0 118 43zM641 598q-38 -64 -60 -145t-22 -158q0 -85 32 -141
q64 132 64 335q0 62 -14 109z" />
    <glyph glyph-name="O_F" horiz-adv-x="682" 
d="M54 352q0 85 57 141.5t143 56.5q77 0 121.5 -39.5t44.5 -106.5q0 -85 -56.5 -141t-142.5 -56q-78 0 -122.5 39t-44.5 106zM492 544h219l-5 -61h-2q-44 47 -103 47h-8l-31 -146q74 0 94 24h2l-14 -65h-2q-7 27 -83 27l-33 -157h-104zM162 313q0 -93 53 -93q46 -2 72 70.5
t25 154.5q0 92 -52 92q-45 2 -71.5 -70t-26.5 -154zM33 132l2 14h568l-2 -14h-568z" />
    <glyph glyph-name="O_G" horiz-adv-x="1105" 
d="M835 312l-7 18h256l-56 -264q-149 -78 -257 -78q-128 0 -214 44q-83 -44 -173 -44q-146 0 -240.5 86.5t-94.5 229.5q-3 183 119.5 311t300.5 125q95 0 169 -42q87 42 192 42q169 0 285 -139l-95 -70q-12 75 -66 134t-131 59q-81 0 -139 -61q95 -86 95 -235
q0 -108 -45 -204t-124 -157q52 -61 155 -61q34 0 73 13l62 293h-65zM519 54q-114 81 -114 242q0 122 51.5 222.5t142.5 157.5q-42 48 -117 48q-72 0 -125 -80q-52 -81 -77 -199q-25 -116 -25 -235q0 -206 138 -206q73 0 126 50zM639 604q-80 -139 -80 -365q0 -64 17 -112
q79 140 79 362q0 67 -16 115z" />
    <glyph glyph-name="O_O" horiz-adv-x="1145" 
d="M1135 424q3 -183 -119.5 -311t-300.5 -125q-95 0 -165 40q-79 -40 -166 -40q-146 0 -240.5 86.5t-94.5 229.5q-3 183 119.5 311t300.5 125q95 0 165 -40q79 40 166 40q146 0 240.5 -86.5t94.5 -229.5zM516 51q-111 86 -111 249q0 118 52 218q53 102 141 160
q-43 46 -116 46q-72 0 -125 -80q-52 -81 -77 -199q-25 -116 -25 -235q0 -206 138 -206q70 0 123 47zM929 518q0 206 -138 206q-70 0 -123 -47q111 -86 111 -249q0 -118 -52 -218q-53 -102 -141 -160q43 -46 116 -46t124 79q51 77 77 199t26 236zM628 633q-48 -65 -74 -174
q-25 -103 -25 -220q0 -85 27 -144q48 65 74 173q25 104 25 221q0 85 -27 144z" />
    <glyph glyph-name="O_O_C" horiz-adv-x="1410" 
d="M1372 150l12 -7q-55 -74 -131.5 -114.5t-161.5 -40.5q-87 0 -155 39q-84 -39 -183 -39q-110 0 -194 45q-81 -45 -175 -45q-146 0 -240.5 86.5t-94.5 229.5q-3 183 119.5 311t300.5 125q99 0 170 -43q87 43 192 43q111 0 191 -44q83 44 175 44q154 0 256 -136l-95 -69
q-11 78 -47 132q-37 57 -98 57q-72 0 -132 -68q95 -86 95 -231q0 -98 -35.5 -183.5t-101.5 -145.5q53 -38 132 -38q121 0 201 92zM522 56q-115 88 -115 247q0 119 51.5 216.5t142.5 155.5q-43 49 -119 49q-72 0 -125 -80q-52 -81 -77 -199q-25 -116 -25 -235
q0 -206 138 -206q74 0 129 52zM902 51q-100 86 -100 241q0 118 48 218q50 103 134 162q-55 52 -158 52q-89 0 -151 -52q104 -87 104 -244q0 -114 -49 -212q-50 -98 -132 -158q56 -54 160 -54q82 0 144 47zM631 626q-99 -129 -99 -369q0 -91 31 -152q44 68 68 169.5t24 214.5
q0 81 -24 137zM1034 591q-78 -134 -78 -296q0 -83 31 -139q64 125 64 315q0 71 -17 120z" />
    <glyph glyph-name="O_O_G" horiz-adv-x="1501" 
d="M1231 312l-7 18h256l-56 -264q-148 -78 -257 -78q-133 0 -218 46q-88 -46 -196 -46q-110 0 -194 45q-81 -45 -175 -45q-146 0 -240.5 86.5t-94.5 229.5q-3 183 119.5 311t300.5 125q99 0 170 -43q87 43 192 43q114 0 196 -46q88 46 199 46q169 0 285 -139l-95 -70
q-12 75 -66 134t-131 59q-83 0 -143 -65q100 -86 100 -234q0 -110 -45 -203.5t-126 -153.5q53 -62 156 -62q34 0 73 13l62 293h-65zM522 56q-115 88 -115 247q0 119 51.5 216.5t142.5 155.5q-43 49 -119 49q-72 0 -125 -80q-52 -81 -77 -199q-25 -116 -25 -235
q0 -206 138 -206q74 0 129 52zM910 58q-109 81 -109 238q0 119 49 216.5t136 157.5q-56 54 -160 54q-89 0 -151 -52q104 -87 104 -244q0 -114 -49 -212q-50 -98 -132 -158q56 -54 160 -54q88 0 152 54zM631 626q-99 -129 -99 -369q0 -91 31 -152q44 68 68 169.5t24 214.5
q0 81 -24 137zM1032 597q-77 -139 -77 -358q0 -65 16 -110q80 128 80 342q0 75 -19 126z" />
    <glyph glyph-name="R_A" horiz-adv-x="1223" 
d="M919 232h-203l-163 -265l-5 -9h-10l-220 358q-11 18 -33 18h-5l-72 -334h-202l155 728h263q136 0 205.5 -40t69.5 -116q0 -81 -65 -134q-66 -54 -160 -73l153 -233l389 620h4l153 -752h-207zM322 350q67 -2 129.5 72t60.5 180q0 110 -104 110h-48l-77 -357q20 -5 39 -5z
M727 250h189l-47 230z" />
    <glyph glyph-name="R_S" horiz-adv-x="1218" 
d="M880 601q0 -29 17 -55q16 -23 36.5 -39t62.5 -43l42 -27q46 -30 71 -52q77 -62 77 -156q0 -107 -75.5 -174t-196.5 -67q-65 0 -140 19q-78 20 -105 34l23 111q24 -57 94.5 -102.5t134.5 -45.5q60 0 94.5 35t34.5 91q0 39 -24.5 67t-82.5 66q-3 1 -18 11l-41 27
q-33 21 -65 48q-73 63 -73 157q0 106 73.5 170t191.5 64q66 0 126 -22q61 -22 89 -40l-39 -91q-30 55 -75 96q-44 41 -106 41q-58 0 -92 -35t-34 -88zM484 368l145 -195l-45 -215h-10l-256 358q-13 18 -33 18h-5l-72 -334h-202l155 728h263q136 0 205.5 -40t69.5 -116
q0 -79 -61 -131t-154 -73zM512 602q0 110 -104 110h-48l-77 -357q20 -5 39 -5q67 -2 129.5 72t60.5 180z" />
    <glyph glyph-name="S_S" horiz-adv-x="1039" 
d="M-1 54l45 101q19 -63 82 -107t130 -44q60 0 94.5 35t34.5 91q0 39 -24.5 67t-82.5 66q-3 1 -18 11l-41 27q-33 21 -65 48q-73 63 -73 157q0 106 73.5 170t191.5 64q100 0 196 -51l-36 -75q-68 110 -165 110q-58 0 -92 -35t-34 -88q0 -29 17 -55q16 -23 36.5 -39t62.5 -43
l42 -27q46 -30 71 -52q77 -62 77 -156q0 -107 -75.5 -174t-196.5 -67q-59 0 -144 25.5t-106 40.5zM517 39l35 70q31 -47 83.5 -76t106.5 -29q60 0 94.5 35t34.5 91q0 39 -24.5 67t-82.5 66q-3 1 -18 11l-41 27q-33 21 -65 48q-73 63 -73 157q0 106 73.5 170t191.5 64
q66 0 126 -22q61 -22 89 -40l-39 -91q-30 55 -75 96q-44 41 -106 41q-58 0 -92 -35t-34 -88q0 -29 17 -55q16 -23 36.5 -39t62.5 -43l42 -27q46 -30 71 -52q77 -62 77 -156q0 -107 -75.5 -174t-196.5 -67q-52 0 -112 16q-66 18 -106 35z" />
    <glyph glyph-name="S_T_period" horiz-adv-x="854" 
d="M215 601q0 -29 17 -55q16 -23 36.5 -39t62.5 -43l42 -27q46 -30 71 -52q77 -62 77 -156q0 -107 -75.5 -174t-196.5 -67q-59 0 -144 25.5t-106 40.5l45 101q19 -63 82 -107t130 -44q60 0 94.5 35t34.5 91q0 39 -24.5 67t-82.5 66q-3 1 -18 11l-41 27q-33 21 -65 48
q-73 63 -73 157q0 106 73.5 170t191.5 64q66 0 126 -22q61 -22 89 -40l-39 -91q-30 55 -75 96q-44 41 -106 41q-58 0 -92 -35t-34 -88zM578 544h308l-6 -70h-2q-23 31 -42 43t-45 12h-6l-67 -315h-112l67 315h-6q-46 0 -111 -55h-2zM537 82l117 92l81 -106l-117 -92z" />
    <glyph glyph-name="T_H_E" horiz-adv-x="931" 
d="M155 529h-6q-18 0 -37 -11.5t-53 -41.5h-2l22 68h262l-8 -68h-2q-21 30 -34.5 41.5t-31.5 11.5h-6l-68 -316h-104zM405 213h-104l71 331h104l-33 -152h99l33 152h104l-71 -331h-104l35 165h-99zM722 544h224l-6 -61h-2q-45 47 -104 47h-11l-30 -138h5q73 0 95 24h2
l-14 -65h-2q-8 27 -83 27h-6l-32 -151h14q68 0 129 47h2l-24 -61h-228zM70 132l3 14h777l-3 -14h-777z" />
    <glyph glyph-name="T_T" horiz-adv-x="997" 
d="M1069 728l-12 -138h-2q-48 70 -78 94q-31 26 -67 26h-11l-150 -710h-202l150 710h-212l-150 -710h-202l150 710h-9q-36 0 -79 -26q-37 -22 -118 -94h-2l46 138h948z" />
    <glyph glyph-name="T_V" horiz-adv-x="1152" 
d="M1150 728h112q-49 -64 -103 -140q-38 -56 -117 -182l-270 -430h-4l-125 614q-14 59 -54 89.5t-93 30.5h-11l-150 -710h-202l150 710h-9q-36 0 -79 -26q-37 -22 -118 -94h-2l46 138h701l97 -482l105 168q76 122 100 188q26 70 26 126z" />
    <glyph glyph-name="T_W" horiz-adv-x="1394" 
d="M1408 728h91q-43 -60 -83 -126q-26 -42 -112 -194l-244 -432h-5l-66 436l-248 -436h-4l-87 614q-12 62 -57 90q-45 30 -97 30h-11l-150 -710h-202l150 710h-9q-36 0 -79 -26q-37 -22 -118 -94h-2l46 138h715l62 -437l249 437h4l66 -434l67 120q65 114 89 184
q27 77 35 130z" />
    <glyph glyph-name="T_Y" horiz-adv-x="1131" 
d="M1007 431l-82 -115l-66 -316h-202l67 321l-80 269q-17 60 -57 90t-91 30h-11l-150 -710h-202l150 710h-9q-36 0 -79 -26q-37 -22 -118 -94h-2l46 138h692l112 -378l65 92q118 166 144 286h91q-101 -132 -218 -297z" />
    <glyph glyph-name="T_Y_T" horiz-adv-x="1626" 
d="M1698 728l-12 -138h-2q-48 70 -78 94q-31 26 -67 26h-11l-150 -710h-202l150 710h-9q-45 0 -98 -31t-99 -89l-195 -274l-66 -316h-202l67 321l-80 269q-17 60 -57 90t-91 30h-11l-150 -710h-202l150 710h-9q-36 0 -79 -26q-37 -22 -118 -94h-2l46 138h692l112 -378l65 92
q115 161 154 286h554z" />
    <glyph glyph-name="U_T" horiz-adv-x="1180" 
d="M1252 728l-12 -138h-2q-48 70 -78 94q-31 26 -67 26h-11l-150 -710h-202l150 710h-9q-62 0 -115.5 -31t-78.5 -89l-67 -318q-30 -146 -99.5 -215t-191.5 -69q-131 0 -199.5 56t-68.5 164q0 45 10 89l92 431h202l-96 -449q-11 -55 -11 -95q0 -75 35 -116.5t103 -41.5
q71 0 125 61.5t78 179.5l96 461h567z" />
    <glyph glyph-name="V_S" horiz-adv-x="608" 
d="M585 316q0 -47 -35 -78t-86 -31q-31 0 -67 10q-34 10 -53 22l26 55q5 -30 33 -52t60 -22q24 0 39.5 14.5t15.5 36.5q0 20 -11.5 32.5t-43.5 33.5l-18 12q-31 21 -46.5 41.5t-15.5 53.5q0 47 33.5 76.5t84.5 29.5q52 0 103 -30l-21 -48q-35 65 -82 65q-24 0 -38.5 -14
t-14.5 -35q0 -8 3 -15.5t7.5 -13t11 -11.5t11 -9t11.5 -7.5t8 -5.5l18 -13l23 -17q44 -28 44 -80zM160 202h-4l-87 342h106l54 -211l46 70q60 92 60 141h61q-38 -48 -49 -64q-31 -43 -58 -84zM33 132l3 14h488l-3 -14h-488z" />
    <glyph glyph-name="V_T" horiz-adv-x="1138" 
d="M1210 728l-12 -138h-2q-48 70 -78 94q-31 26 -67 26h-11l-150 -710h-202l150 710h-9q-45 0 -98 -31t-99 -89l-386 -614h-4l-153 752h207l97 -482l105 168q72 116 103 186q30 67 43 128h566z" />
    <glyph glyph-name="W_T" horiz-adv-x="1376" 
d="M1448 728l-12 -138h-2q-48 70 -78 94q-31 26 -67 26h-11l-150 -710h-202l150 710h-9q-45 0 -98 -31t-99 -89l-347 -614h-5l-66 436l-248 -436h-4l-106 752h205l62 -437l249 437h4l66 -434l67 120q61 109 88 179q26 64 44 135h569z" />
    <glyph glyph-name="X_A" horiz-adv-x="1202" 
d="M945 0l-47 232h-203l-169 -274h-9l-214 377l-67 -78q-69 -79 -94 -131q-24 -52 -24 -96q0 -4 2 -30h-185q77 56 134 109q60 56 151 159l73 84l-213 376h224l136 -239q84 97 116 145q35 54 44 94h112q-125 -98 -262 -257l175 -308l370 589h4l153 -752h-207zM706 250h189
l-47 230z" />
    <glyph glyph-name="X_T" horiz-adv-x="1090" 
d="M1162 728l-12 -138h-2q-48 70 -78 94q-31 26 -67 26h-11l-150 -710h-202l150 710h-9q-47 0 -109.5 -31t-118.5 -89l-103 -119l134 -236l-58 -277h-9l-214 377l-67 -78q-69 -79 -94 -131q-24 -52 -24 -96q0 -4 2 -30h-185q77 56 134 109q60 56 151 159l73 84l-213 376h224
l136 -239q80 93 116 141q38 50 64 98h542z" />
    <glyph glyph-name="Y_T" horiz-adv-x="1121" 
d="M1193 728l-12 -138h-2q-48 70 -78 94q-31 26 -67 26h-11l-150 -710h-202l150 710h-9q-45 0 -98 -31t-99 -89l-195 -274l-66 -316h-202l67 321l-121 407h210l112 -378l65 92q115 161 154 286h554z" />
    <glyph glyph-name="Z_A" horiz-adv-x="1151" 
d="M894 0l-47 232h-206l-145 -232h-543l1 4l461 706h-10q-95 0 -166 -23q-69 -23 -138 -73h-2l38 114h526l-1 -4l-461 -706h25q182 0 340 132l378 602h4l153 -752h-207zM652 250h192l-47 232z" />
    <glyph glyph-name="Z_Z" horiz-adv-x="1176" 
d="M517 124h2l-50 -124h-516l1 4l461 706h-10q-95 0 -166 -23q-69 -23 -138 -73h-2l38 114h526l-1 -4l-461 -706h25q81 0 147.5 24t143.5 82zM1253 728l-1 -4l-461 -706h25q98 0 165 23q65 22 146 83h2l-50 -124h-536l1 4l461 706h-10q-153 0 -284 -96h-2l38 114h506z" />
    <glyph glyph-name="f_b" horiz-adv-x="1037" 
d="M1020 372q1 -101 -43.5 -190t-124 -142.5t-173.5 -51.5q-109 0 -172 65l-115 -65h-4l159 753q-38 19 -82 19q-46 0 -78 -28.5t-44 -81.5l-23 -106h109l-17 -22h-96l-103 -482q-17 -81 -76 -140.5t-132.5 -88.5t-158.5 -39l-1 12q62 16 109 79.5t67 156.5l106 502h-53
l5 22h53l16 76q19 93 79.5 143.5t152.5 50.5q106 0 180 -60l186 56h4l-95 -447h8q43 103 94 148t118 45q145 0 145 -184zM835 362q0 108 -51 108q-42 0 -88 -79q-47 -80 -96 -287q-1 -43 18 -71t52 -28q47 0 85 57q39 60 59 142q21 84 21 158z" />
    <glyph glyph-name="f_h" horiz-adv-x="1021" 
d="M1000 429q0 -26 -8 -66l-77 -363h-188l80 374q7 32 7 54q0 42 -34 42q-26 0 -55 -30q-71 -77 -148 -440h-188l158 741q-38 19 -82 19q-46 0 -78 -28.5t-44 -81.5l-23 -106h109l-17 -22h-96l-103 -482q-17 -81 -76 -140.5t-132.5 -88.5t-158.5 -39l-1 12q62 16 109 79.5
t67 156.5l106 502h-53l5 22h53l16 76q19 93 79.5 143.5t152.5 50.5q106 0 180 -60l186 56h4l-95 -447h7q41 105 89.5 149t116.5 44q132 0 132 -127z" />
    <glyph glyph-name="f_j" horiz-adv-x="673" 
d="M601 606l-92 120l132 104l92 -120zM591 544l87 18h4l-111 -522q-17 -81 -76 -140.5t-132.5 -88.5t-158.5 -39l-1 12q62 16 109 79.5t67 156.5l106 502h-169l-103 -482q-17 -81 -76 -140.5t-132.5 -88.5t-158.5 -39l-1 12q62 16 109 79.5t67 156.5l106 502h-53l5 22h53
l16 76q19 93 79.5 143.5t152.5 50.5q68 0 150 -48l-8 -15q-30 9 -57 9q-46 0 -78 -28.5t-44 -81.5l-23 -106h271z" />
    <glyph glyph-name="f_k" horiz-adv-x="974" 
d="M746 810h4l-173 -810h-188l158 741q-38 19 -82 19q-46 0 -78 -28.5t-44 -81.5l-23 -106h109l-17 -22h-96l-103 -482q-17 -81 -76 -140.5t-132.5 -88.5t-158.5 -39l-1 12q62 16 109 79.5t67 156.5l106 502h-53l5 22h53l16 76q19 93 79.5 143.5t152.5 50.5q106 0 180 -60z
M1014 544v-2q-115 -68 -207 -139l128 -205l-51 -240h-6l-217 355l99 78q68 53 103 85q36 32 66 68h85z" />
    <glyph glyph-name="f_t" horiz-adv-x="728" 
d="M649 522l-84 -398q-5 -25 -5 -34q0 -34 33 -34q37 0 105 68l11 -10q-108 -126 -206 -126q-128 0 -128 105q0 26 4 41l82 388h-145l-103 -482q-17 -81 -76 -140.5t-132.5 -88.5t-158.5 -39l-1 12q62 16 109 79.5t67 156.5l106 502h-53l5 22h53l16 76q19 93 79.5 143.5
t152.5 50.5q114 0 189 -67l-11 -12q-44 25 -93 25q-46 0 -78 -28.5t-44 -81.5l-23 -106h146l226 196h4l-42 -196h129l-17 -22h-117z" />
    <glyph glyph-name="k_s" horiz-adv-x="1010" 
d="M350 810h4l-172 -810h-188l161 759zM728 466q0 -32 20 -53t70 -50l36 -21q114 -67 114 -166q0 -84 -60.5 -136t-156.5 -52q-105 0 -193 32l19 91q23 -44 72 -77q50 -32 109 -32q43 0 70 21.5t27 56.5q0 33 -20.5 55t-69.5 49l-36 20q-44 24 -80 65q-35 43 -35 101
q0 82 59.5 134t151.5 52q90 0 182 -49l-30 -74q-60 109 -157 109q-39 0 -65.5 -21.5t-26.5 -54.5zM412 403l128 -205l-51 -240h-6l-217 355l99 78q68 53 103 85q36 32 66 68h85v-2q-115 -68 -207 -139z" />
    <glyph glyph-name="l_l" horiz-adv-x="597" 
d="M299 0l161 759l195 51h4l-172 -810h-188zM-6 0l151 709l195 51h4l-162 -760h-188z" />
    <glyph glyph-name="r_v" horiz-adv-x="822" 
d="M806 544h84q-40 -55 -91 -132q-70 -109 -119 -187l-156 -249h-4l-88 436q-17 14 -62 14q-37 0 -63 -26q-24 -24 -55 -118q-31 -96 -71 -282h-188l111 521l192 41h4l-42 -199h6q38 100 86 146.5t113 46.5q70 0 130 -12l66 -319l6 10q70 114 98 179q30 68 43 130z" />
    <glyph glyph-name="r_w" horiz-adv-x="1058" 
d="M1046 544h80q-38 -51 -85 -125l-121 -194l-153 -249h-4l-56 309l-192 -309h-4l-82 438q-15 12 -59 12q-37 0 -63 -26q-24 -24 -55 -118q-31 -96 -71 -282h-188l111 521l192 41h4l-42 -199h6q38 100 86 146.5t113 46.5q70 0 130 -12l58 -314l194 314h4l55 -311
q117 193 142 311z" />
    <glyph glyph-name="r_y" horiz-adv-x="826" 
d="M806 544h84q-53 -74 -85 -124q-12 -19 -28.5 -45t-41.5 -66t-43 -69l-199 -321q-56 -90 -113 -121.5t-137 -31.5l27 86q30 -14 63 -14q41 0 79 22t62 62l39 62l-82 429q-17 13 -61 13q-37 0 -63 -26q-24 -24 -55 -118q-31 -96 -71 -282h-188l111 521l192 41h4l-42 -199h6
q38 100 86 146.5t113 46.5q70 0 130 -12l63 -329l20 33q104 167 130 296z" />
    <glyph glyph-name="t_t" horiz-adv-x="731" 
d="M652 522l-84 -398q-5 -25 -5 -34q0 -34 33 -34q37 0 105 68l11 -10q-108 -126 -206 -126q-128 0 -128 105q0 26 4 41l82 388h-148l-84 -398q-5 -25 -5 -34q0 -34 33 -34q32 0 84 48l13 -11q-97 -105 -187 -105q-128 0 -128 105q0 26 4 41l82 388h-56l3 17l58 5l226 196h4
l-42 -196h148l226 196h4l-42 -196h129l-17 -22h-117z" />
    <glyph glyph-name="zero.osf" horiz-adv-x="687" 
d="M41 251q-2 165 93 278.5t246 110.5q125 0 204.5 -69t79.5 -194q2 -164 -94.5 -277.5t-247.5 -111.5q-125 0 -203 69t-78 194zM472 486q0 139 -72 139q-50 0 -88 -81q-38 -83 -59 -196q-21 -114 -21 -206q0 -139 72 -139q50 0 88 81q38 83 59 196q21 116 21 206z" />
    <glyph glyph-name="one.osf" horiz-adv-x="334" 
d="M347 640h4l-137 -640h-178l103 486q-49 -15 -82 -16l2 12q66 10 153 56t135 102z" />
    <glyph glyph-name="two.osf" horiz-adv-x="548" 
d="M268 191q-79 -36 -126 -61h22q179 0 319 20l-70 -150h-464l1 4l72 58q15 12 39 30.5t28 21.5q89 68 136 110q126 115 126 222q0 58 -32 89t-85 31q-71 0 -145 -74l-13 6q33 54 102 98q67 43 157 43q89 0 150.5 -48t61.5 -133q0 -64 -35 -111q-34 -46 -90 -79
q-62 -35 -154 -77z" />
    <glyph glyph-name="three.osf" horiz-adv-x="538" 
d="M-45 -59l37 91q55 -128 161 -128q68 0 110.5 46t42.5 122q0 74 -42 128t-116 78l-2 11l20 6q64 19 111 68t47 107q0 43 -29 67t-77 24q-45 0 -77 -17t-67 -50l-11 7q106 139 259 139q83 0 137.5 -39.5t54.5 -99.5q0 -62 -57.5 -112t-132.5 -59v-2q66 -19 108.5 -70.5
t42.5 -123.5q2 -104 -90.5 -175.5t-228.5 -70.5q-96 0 -201 53z" />
    <glyph glyph-name="four.osf" horiz-adv-x="562" 
d="M528 628l-97 -460h90l-53 -106h-60l-34 -162h-178l34 162h-238l-16 84l498 482h54zM28 168h225l58 274z" />
    <glyph glyph-name="five.osf" horiz-adv-x="506" 
d="M476 498h-335l-31 -104q162 -9 247.5 -74t85.5 -178q3 -112 -88 -184t-214 -70q-116 0 -191 56l30 68q18 -48 57 -78t90 -30q72 0 115 44.5t43 117.5q0 77 -64 123.5t-177 51.5l116 387h385z" />
    <glyph glyph-name="six.osf" horiz-adv-x="622" 
d="M31 235q0 123 73 235t194 186q120 74 249 84l3 -15q-102 -19 -180 -109.5t-116 -214.5t-37 -255q0 -70 19 -107t53 -37q36 -3 65.5 45.5t44.5 113.5t14 122q0 115 -68 115q-32 0 -63 -25l-10 12q64 72 154 72q69 0 122.5 -55t53.5 -138q0 -119 -85.5 -197.5t-212.5 -78.5
q-128 0 -200.5 67.5t-72.5 179.5z" />
    <glyph glyph-name="seven.osf" horiz-adv-x="494" 
d="M103 628h458v-4l-386 -724h-170l466 598h-131q-187 0 -286 -24z" />
    <glyph glyph-name="eight.osf" horiz-adv-x="576" 
d="M529 206q0 -97 -80 -157.5t-193 -60.5q-101 0 -172.5 45t-71.5 121q0 68 52 119q51 51 134 71q-97 78 -97 173q0 96 75.5 159.5t181.5 63.5q85 0 147.5 -43.5t62.5 -111.5q0 -62 -47.5 -107t-129.5 -63q138 -95 138 -209zM243 591q0 -43 24 -74.5t73 -65.5l37 -25
q38 35 60 87t22 105q0 50 -25.5 79t-72.5 29q-55 0 -86.5 -38t-31.5 -97zM387 139q0 34 -17 62q-10 18 -24.5 32.5t-24.5 22.5t-40 29l-39 27l-31 22q-89 -81 -89 -208q0 -59 34 -91.5t90 -32.5q65 0 103 38t38 99z" />
    <glyph glyph-name="nine.osf" horiz-adv-x="623" 
d="M93 -112l-3 15q102 19 179.5 110t116 214t37.5 255q0 70 -19 107t-53 37q-36 3 -65.5 -45.5t-44.5 -113.5t-14 -122q0 -115 68 -115q32 0 63 25l10 -12q-64 -72 -154 -72q-69 0 -122.5 55t-53.5 138q0 119 85.5 197.5t212.5 78.5q128 0 200.5 -67.5t72.5 -179.5
q0 -122 -74 -235t-193 -186q-120 -74 -249 -84z" />
    <glyph glyph-name="zero.zero" horiz-adv-x="698" 
d="M684 453q1 -125 -40 -230.5t-124 -171t-191 -63.5q-128 0 -202 74t-74 212q-1 124 40.5 230t124 172t189.5 64q129 0 203 -74t74 -213zM245 259l251 241q3 38 3 70q0 156 -74 156q-45 0 -83 -72q-36 -68 -62 -180q-24 -100 -35 -215zM494 472l-251 -241q-3 -40 -3 -74
q0 -155 73 -155q46 0 83 73q38 74 63 182q24 103 35 215z" />
    <glyph glyph-name="space.alt" horiz-adv-x="265" 
d="M127 235l-81 106l117 92l81 -106z" />
    <glyph glyph-name="percent.alt" horiz-adv-x="666" 
d="M633 728h23l-563 -728h-37l534 668q-76 -60 -145 -60q-32 0 -71 11q1 -62 -21.5 -122t-66 -99.5t-96.5 -37.5q-50 0 -82.5 35.5t-32.5 93.5q-1 56 25 113.5t72.5 95.5t97.5 36q62 0 91 -51q22 -39 91 -39q130 0 181 84zM354 622v4q-72 28 -105 77q-30 -8 -59 -88
t-28 -144q0 -81 61 -81q35 -2 66.5 37.5t48.5 93.5t16 101zM628 254q1 -62 -21.5 -122t-66 -100t-96.5 -38q-50 0 -82.5 35.5t-32.5 93.5q-1 56 25 113.5t72.5 95.5t97.5 36q50 0 77 -31t27 -83zM608 256q0 82 -61 82q-53 3 -92.5 -77t-38.5 -156q0 -81 61 -81
q35 -2 66.5 37.5t48.5 93.5t16 101z" />
    </font>
</defs>
</svg>
