<?xml version="1.0" standalone="no"?>
<!DOCTYPE svg PUBLIC "-//W3C//DTD SVG 1.1//EN" "http://www.w3.org/Graphics/SVG/1.1/DTD/svg11.dtd" >
<svg xmlns="http://www.w3.org/2000/svg" xmlns:xlink="http://www.w3.org/1999/xlink" version="1.1">
<metadata>
Created by FontForge 20170924 at Sat May 25 01:10:10 2019
 By www-data
Copyright (c) 2018 by Ivy Foundry. All rights reserved. |DCNT
</metadata>
<defs>
<font id="IvyMode-Bold" horiz-adv-x="0" >
  <font-face 
    font-family="Ivy Mode"
    font-weight="700"
    font-stretch="normal"
    units-per-em="1000"
    panose-1="2 11 4 4 2 1 1 1 1 2"
    ascent="810"
    descent="-190"
    x-height="544"
    cap-height="728"
    bbox="-428 -283 1819 1040"
    underline-thickness="50"
    underline-position="-200"
    unicode-range="U+000D-FEFF"
  />
<missing-glyph horiz-adv-x="832" 
d="M100 728h632v-760h-632v760zM710 708h-588v-720h588v720z" />
    <glyph glyph-name="f_f" unicode="ff" horiz-adv-x="741" 
d="M620 650v-106h133l-13 -22h-120v-522h-188v522h-167v-522h-188v522h-57v22h57v70q0 89 56.5 141.5t143.5 52.5q85 0 175 -57l-9 -13q-36 16 -73 16q-47 0 -76 -29t-29 -81v-100h167v76q0 89 56.5 141.5t143.5 52.5q103 0 194 -67l-9 -12q-46 25 -92 25q-47 0 -76 -29
t-29 -81z" />
    <glyph glyph-name="f_f_i" unicode="ffi" horiz-adv-x="1061" 
d="M1026 718l-112 -112l-112 112l112 112zM921 544l83 18h4v-562h-188v522h-200v-522h-188v522h-167v-522h-188v522h-57v22h57v70q0 89 56.5 141.5t143.5 52.5q85 0 175 -57l-9 -13q-36 16 -73 16q-47 0 -76 -29t-29 -81v-100h167v76q0 91 55 142q55 52 141 52q72 0 153 -49
l-5 -13q-29 8 -51 8q-47 0 -76 -29t-29 -81v-106h301z" />
    <glyph glyph-name="f_i" unicode="fi" horiz-adv-x="706" 
d="M671 718l-112 -112l-112 112l112 112zM566 544l83 18h4v-562h-188v522h-200v-522h-188v522h-57v22h57v76q0 91 55 142q55 52 141 52q72 0 153 -49l-5 -13q-29 8 -51 8q-47 0 -76 -29t-29 -81v-106h301z" />
    <glyph glyph-name="f_l" unicode="fl" horiz-adv-x="703" 
d="M646 810h4v-810h-188v735q-46 25 -92 25q-47 0 -76 -29t-29 -81v-106h133l-13 -22h-120v-522h-188v522h-57v22h57v76q0 89 56.5 141.5t143.5 52.5q101 0 187 -62z" />
    <glyph glyph-name=".notdef" horiz-adv-x="832" 
d="M100 728h632v-760h-632v760zM710 708h-588v-720h588v720z" />
    <glyph glyph-name=".null" 
 />
    <glyph glyph-name="uni000D" unicode="&#xd;" horiz-adv-x="194" 
 />
    <glyph glyph-name="space" unicode=" " horiz-adv-x="194" 
 />
    <glyph glyph-name="exclam" unicode="!" horiz-adv-x="270" 
d="M126 244l-92 484h202l-92 -484h-18zM135 -24l-112 112l112 112l112 -112z" />
    <glyph glyph-name="quotedbl" unicode="&#x22;" horiz-adv-x="332" 
d="M81 452l-67 288h144l-67 -288h-10zM241 452l-67 288h144l-67 -288h-10z" />
    <glyph glyph-name="numbersign" unicode="#" horiz-adv-x="525" 
d="M503 481h-107l-32 -234h100v-18h-103l-31 -229h-20l31 229h-195l-31 -229h-20l31 229h-104v18h107l32 234h-100v18h103l31 229h20l-31 -229h195l31 229h20l-31 -229h104v-18zM344 247l32 234h-195l-32 -234h195z" />
    <glyph glyph-name="dollar" unicode="$" horiz-adv-x="583" 
d="M556 214q0 -99 -74.5 -162.5t-202.5 -63.5h-6l-8 -89h-20l8 90q-69 3 -133 18q-67 17 -87 29l25 95q29 -52 83 -86t114 -40l24 267l-2 1l-50 20q-54 23 -93 45q-95 58 -95 175q0 99 74.5 163t195.5 64h13l8 89h20l-8 -90q94 -6 177 -46l-20 -79q-45 48 -80 73t-79 34
l-24 -260l42 -17q55 -23 98 -48q100 -58 100 -182zM297 469l23 255q-4 1 -20 1q-60 0 -95.5 -33.5t-35.5 -87.5q0 -50 31.5 -79.5t96.5 -55.5zM426 125q0 50 -32 81t-96 58l-24 -260h4q68 0 108 33.5t40 87.5z" />
    <glyph glyph-name="percent" unicode="%" horiz-adv-x="768" 
d="M23 552q0 86 48.5 134t130.5 48q79 0 128 -46t49 -126q0 -86 -48.5 -134t-130.5 -48q-79 0 -128 46t-49 126zM152 0l440 728h23l-440 -728h-23zM266 556q0 166 -66 166q-64 0 -64 -164q0 -166 66 -166q64 0 64 164zM388 166q0 86 48 134t131 48q79 0 128 -46t49 -126
q0 -86 -48 -134t-131 -48q-79 0 -128 46t-49 126zM631 170q0 166 -66 166q-64 0 -64 -164q0 -166 66 -166q64 0 64 164z" />
    <glyph glyph-name="ampersand" unicode="&#x26;" horiz-adv-x="729" 
d="M636 232l72 -58v-216h-6l-154 124q-99 -94 -249 -94q-113 0 -192.5 51.5t-79.5 145.5q0 135 169 184q-50 46 -72.5 86.5t-22.5 89.5q0 85 63.5 140t151.5 55q82 0 146.5 -44.5t64.5 -110.5q0 -89 -132 -133l-11 9q34 43 34 121q0 67 -28 105.5t-77 38.5q-42 0 -68 -27.5
t-26 -67.5q0 -32 16 -58q23 -37 99 -98l287 -231q8 37 8 72q0 80 -40 145l56 16h4v-143q0 -51 -13 -102zM531 95l-242 195l-32 26l-47 39q-21 -44 -21 -112q0 -96 52 -151.5t132 -55.5q83 0 158 59z" />
    <glyph glyph-name="quotesingle" unicode="'" horiz-adv-x="172" 
d="M81 452l-67 288h144l-67 -288h-10z" />
    <glyph glyph-name="parenleft" unicode="(" horiz-adv-x="215" 
d="M31 304q0 280 156 478l13 -9q-125 -165 -125 -463q0 -302 125 -467l-13 -9q-156 198 -156 470z" />
    <glyph glyph-name="parenright" unicode=")" horiz-adv-x="215" 
d="M28 -166l-13 9q125 165 125 463q0 302 -125 467l13 9q156 -198 156 -470q0 -280 -156 -478z" />
    <glyph glyph-name="asterisk" unicode="*" horiz-adv-x="422" 
d="M394 619l-177 -75l177 -75l-27 -46l-153 116l24 -191h-54l24 191l-153 -116l-27 46l177 75l-177 75l27 46l153 -116l-24 191h54l-24 -191l153 116z" />
    <glyph glyph-name="plus" unicode="+" horiz-adv-x="508" 
d="M458 374v-20h-193v-200h-22v200h-193v20h193v200h22v-200h193z" />
    <glyph glyph-name="comma" unicode="," horiz-adv-x="247" 
d="M39 -146l-5 7q71 39 71 108q0 34 -25.5 66.5t-65.5 53.5l72 109q60 -13 98.5 -55t38.5 -99q0 -64 -55 -112q-56 -48 -129 -78z" />
    <glyph glyph-name="hyphen" unicode="-" horiz-adv-x="289" 
d="M37 271v38h215v-38h-215z" />
    <glyph glyph-name="period" unicode="." horiz-adv-x="242" 
d="M121 -24l-112 112l112 112l112 -112z" />
    <glyph glyph-name="slash" unicode="/" horiz-adv-x="355" 
d="M19 -64l292 846h25l-292 -846h-25z" />
    <glyph glyph-name="zero" unicode="0" horiz-adv-x="716" 
d="M38 354q0 187 83.5 286.5t235.5 99.5q143 0 232 -95t89 -271q0 -186 -84.5 -286t-236.5 -100q-143 0 -231 95t-88 271zM475 360q0 366 -119 366q-115 0 -115 -357q0 -367 119 -367q115 0 115 358z" />
    <glyph glyph-name="one" unicode="1" horiz-adv-x="344" 
d="M274 740h4v-740h-178v587q-38 -12 -80 -17v12q59 14 130 58q73 46 124 100z" />
    <glyph glyph-name="two" unicode="2" horiz-adv-x="571" 
d="M538 150l-42 -150h-485v4l58 60q67 69 127 140q53 65 94 145q40 79 40 159q0 73 -39.5 112.5t-104.5 39.5q-84 0 -153 -84l-13 6q33 58 102 108q70 50 171 50t169 -52.5t68 -149.5q0 -73 -44 -138q-43 -62 -117 -121q-63 -51 -212 -149h57q178 0 324 20z" />
    <glyph glyph-name="three" unicode="3" horiz-adv-x="565" 
d="M20 27l22 93q41 -62 73.5 -88t87.5 -28q65 0 109 44t44 119q0 74 -44 127.5t-115 68.5l-32 7l-4 11l20 7q58 20 98 63q41 44 41 100q0 50 -35.5 80t-90.5 30q-49 0 -83.5 -20t-66.5 -58l-13 6q108 151 273 151q86 0 143 -41.5t57 -104.5q0 -56 -47 -101q-47 -46 -112 -59
v-2q78 -12 131.5 -68.5t53.5 -136.5q0 -101 -85.5 -170t-223.5 -69q-85 0 -201 39z" />
    <glyph glyph-name="four" unicode="4" horiz-adv-x="579" 
d="M557 268l-30 -106h-60v-162h-178v162h-258l-34 84l416 482h54v-460h90zM43 268h246v285z" />
    <glyph glyph-name="five" unicode="5" horiz-adv-x="536" 
d="M507 231q0 -105 -83.5 -174t-209.5 -69q-112 0 -197 45l20 69q62 -98 154 -98q70 0 116 42t46 107q0 75 -64 124q-65 51 -202 51h-26l35 400h406l-44 -130h-353l-10 -114h68q167 0 255.5 -73t88.5 -180z" />
    <glyph glyph-name="six" unicode="6" horiz-adv-x="642" 
d="M34 277q-2 113 60 215t166.5 167.5t225.5 80.5l5 -15q-262 -70 -262 -453q0 -129 30.5 -199.5t80.5 -70.5q44 0 68.5 54t24.5 148q0 93 -26 143.5t-72 50.5q-36 0 -68 -29l-10 12q65 76 164 76q82 0 143.5 -60t61.5 -157q0 -113 -80.5 -182.5t-209.5 -69.5
q-137 0 -219.5 80t-82.5 209z" />
    <glyph glyph-name="seven" unicode="7" horiz-adv-x="523" 
d="M27 728h495v-4l-259 -724h-158l352 598h-144q-202 0 -304 -24z" />
    <glyph glyph-name="eight" unicode="8" horiz-adv-x="617" 
d="M584 200q2 -91 -81 -152.5t-202 -59.5q-112 0 -189.5 46t-77.5 126q0 58 42 103t116 69q-134 77 -134 193q0 92 74.5 153.5t185.5 61.5q95 0 164.5 -44.5t69.5 -116.5q0 -53 -40 -93t-113 -61q185 -89 185 -225zM200 604q0 -59 32 -90t99 -60l47 -20l2 -1q54 66 54 158
q0 61 -32.5 98t-86.5 37q-56 0 -85.5 -33t-29.5 -89zM442 126q0 47 -22 76q-20 28 -46 44.5t-73 36.5l-48 20q-4 2 -43 20q-58 -74 -58 -168q0 -73 41.5 -113t107.5 -40q64 0 102.5 35t38.5 89z" />
    <glyph glyph-name="nine" unicode="9" horiz-adv-x="642" 
d="M156 -12l-5 15q262 70 262 453q0 129 -30.5 199.5t-80.5 70.5q-44 0 -68.5 -54t-24.5 -148q0 -93 26 -143.5t72 -50.5q36 0 68 29l10 -12q-65 -76 -164 -76q-82 0 -143.5 60t-61.5 157q0 113 80.5 182.5t209.5 69.5q137 0 219.5 -80t82.5 -209q2 -113 -60 -215
t-166.5 -167.5t-225.5 -80.5z" />
    <glyph glyph-name="colon" unicode=":" horiz-adv-x="272" 
d="M136 -24l-112 112l112 112l112 -112zM136 306l-112 112l112 112l112 -112z" />
    <glyph glyph-name="semicolon" unicode=";" horiz-adv-x="273" 
d="M50 -146l-5 7q71 39 71 108q0 34 -25.5 66.5t-65.5 53.5l72 109q60 -13 98.5 -55t38.5 -99q0 -64 -55 -112t-129 -78zM137 306l-112 112l112 112l112 -112z" />
    <glyph glyph-name="less" unicode="&#x3c;" horiz-adv-x="508" 
d="M448 544l-379 -180l379 -180l-10 -18l-398 189v18l398 189z" />
    <glyph glyph-name="equal" unicode="=" horiz-adv-x="508" 
d="M50 426v20h408v-20h-408zM50 282v20h408v-20h-408z" />
    <glyph glyph-name="greater" unicode="&#x3e;" horiz-adv-x="508" 
d="M70 562l398 -189v-18l-398 -189l-10 18l379 180l-379 180z" />
    <glyph glyph-name="question" unicode="?" horiz-adv-x="519" 
d="M165 306q0 22 11.5 41.5t42.5 55.5q39 44 55.5 75.5t16.5 71.5q0 56 -33.5 89t-88.5 33q-71 0 -140 -66l-12 8q29 41 93 83q64 43 163 43q100 0 159 -47t59 -125q0 -51 -28 -86q-25 -33 -59.5 -55t-101.5 -52q-58 -26 -81.5 -42.5t-23.5 -37.5q0 -16 11.5 -26.5
t32.5 -10.5q10 0 25 3l3 -14q-14 -3 -28 -3q-33 0 -54.5 16.5t-21.5 45.5zM240 -24l-112 112l112 112l112 -112z" />
    <glyph glyph-name="at" unicode="@" horiz-adv-x="846" 
d="M660 527l-50 -240q-10 -47 -10 -74q0 -56 44 -56q62 0 107.5 69.5t45.5 167.5q2 138 -97.5 235t-243.5 95q-161 2 -272.5 -118t-108.5 -293q-2 -169 104 -281.5t268 -110.5q141 0 246 79l10 -12q-112 -83 -260 -83q-175 -3 -297 114t-119 289q-2 117 56.5 217.5
t159 158.5t217.5 56q158 2 268 -99t107 -246q0 -110 -59 -185.5t-153 -75.5q-100 0 -121 57q-55 -67 -119 -67q-63 0 -108.5 40.5t-45.5 112.5q0 104 65 179t172 75q76 0 120 -36l68 32h6zM497 210q-1 4 -1 18q0 18 8 61l37 178q-22 48 -61 48q-59 0 -97 -69.5t-38 -162.5
q0 -117 79 -117q38 0 73 44z" />
    <glyph glyph-name="A" unicode="A" horiz-adv-x="668" 
d="M353 232h-225q-38 -102 -38 -167q0 -28 8 -65h-118q43 71 78 139q35 69 86 183l193 430h4l337 -752h-221zM162 314l-27 -64h210l-106 236z" />
    <glyph glyph-name="B" unicode="B" horiz-adv-x="724" 
d="M698 202q0 -95 -80.5 -148.5t-225.5 -53.5h-328v728h328q129 0 199.5 -41.5t70.5 -119.5q0 -73 -63 -120q-60 -45 -160 -59v-2q259 -13 259 -184zM333 712h-67v-329h77q51 0 80 45.5t29 118.5q0 75 -30.5 120t-88.5 45zM478 186q0 84 -33 132.5t-90 48.5h-89v-344
q21 -7 60 -7q152 0 152 170z" />
    <glyph glyph-name="C" unicode="C" horiz-adv-x="697" 
d="M32 355q0 176 105 280.5t273 104.5q78 0 150 -35t122 -81l-82 -75q-25 70 -77 122q-51 53 -115 53q-83 0 -120 -91q-36 -90 -36 -235q0 -168 57 -253t160 -85q136 0 211 109l12 -7q-49 -83 -130 -128.5t-181 -45.5q-152 -2 -251.5 103t-97.5 264z" />
    <glyph glyph-name="D" unicode="D" horiz-adv-x="811" 
d="M779 369q0 -175 -123.5 -272t-346.5 -97h-245v728h284q194 0 312.5 -94t118.5 -265zM559 367q0 158 -57 251q-55 94 -160 94h-76v-687q21 -9 82 -9q104 0 157.5 90t53.5 261z" />
    <glyph glyph-name="E" unicode="E" horiz-adv-x="588" 
d="M566 124h2l-24 -124h-480v728h472l14 -114h-2q-110 96 -252 96h-30v-322h10q80 0 134.5 13t67.5 35h2v-122h-2q-14 25 -69 40.5t-133 15.5h-10v-352h37q147 0 263 106z" />
    <glyph glyph-name="F" unicode="F" horiz-adv-x="552" 
d="M286 710h-20v-334q80 0 134.5 13t67.5 35h2v-122h-2q-14 25 -69 40.5t-133 15.5v-358h-202v728h462l14 -114h-2q-109 96 -252 96z" />
    <glyph glyph-name="G" unicode="G" horiz-adv-x="776" 
d="M426 330h314v-264q-119 -78 -283 -78q-200 0 -312.5 96.5t-112.5 274.5q-2 171 113.5 277t292.5 104q81 0 156 -32t130 -84l-82 -75q-26 72 -78 123q-52 52 -130 52q-96 0 -139 -90t-43 -268q0 -162 55.5 -261t152.5 -99q60 0 100 14v292h-123z" />
    <glyph glyph-name="H" unicode="H" horiz-adv-x="784" 
d="M518 728h202v-728h-202v370h-252v-370h-202v728h202v-340h252v340z" />
    <glyph glyph-name="I" unicode="I" horiz-adv-x="330" 
d="M64 0v728h202v-728h-202z" />
    <glyph glyph-name="J" unicode="J" horiz-adv-x="332" 
d="M-72 -150l-7 12q66 42 97 87q32 47 42 108q10 59 10 163v508h202v-500q0 -114 -52 -188q-47 -70 -116.5 -112t-175.5 -78z" />
    <glyph glyph-name="K" unicode="K" horiz-adv-x="728" 
d="M64 0v728h202v-728h-202zM435 493l-7 -6l278 -279v-250h-10l-413 415l139 136q81 81 113 125q36 48 49 94h122v-2q-58 -38 -125 -95q-64 -56 -146 -138z" />
    <glyph glyph-name="L" unicode="L" horiz-adv-x="521" 
d="M506 150h2l-26 -150h-418v728h202v-710h10q51 0 103 28q55 29 127 104z" />
    <glyph glyph-name="M" unicode="M" horiz-adv-x="914" 
d="M878 0h-199l-61 644l-224 -598h-4l-267 558l-24 -286q-4 -41 -4 -97q0 -120 30 -221h-100q37 124 54 318l27 322l-41 85v3h216l195 -409l153 409h180z" />
    <glyph glyph-name="N" unicode="N" horiz-adv-x="698" 
d="M566 728h100q-40 -132 -40 -318v-422h-16l-494 610v-280q0 -186 40 -318h-100q40 132 40 318v305l-83 102v3h241l352 -438v120q0 186 -40 318z" />
    <glyph glyph-name="O" unicode="O" horiz-adv-x="854" 
d="M32 356q0 175 111 279.5t291 104.5q173 0 280.5 -98t107.5 -270q0 -175 -111 -279.5t-291 -104.5q-173 0 -280.5 98t-107.5 270zM602 360q0 175 -44.5 269.5t-132.5 94.5q-93 0 -133 -88.5t-40 -267.5q0 -174 45 -269t134 -95q91 0 131 88.5t40 267.5z" />
    <glyph glyph-name="P" unicode="P" horiz-adv-x="661" 
d="M644 521q0 -102 -76 -163t-206 -61q-48 0 -96 6v-303h-202v728h298q138 0 210 -54t72 -153zM434 509q0 95 -30 149t-89 54h-49v-391q21 -8 48 -8q120 0 120 196z" />
    <glyph glyph-name="Q" unicode="Q" horiz-adv-x="854" 
d="M919 -107v-4q-82 -39 -185 -39q-105 0 -204 38q-98 38 -144 101q-160 11 -257 107.5t-97 259.5q0 175 111 279.5t291 104.5q173 0 280.5 -98t107.5 -270q0 -129 -61 -221t-170 -134q54 -70 110 -101.5t129 -31.5q40 0 89 9zM431 4q91 0 131 88.5t40 267.5
q0 175 -44.5 269.5t-132.5 94.5q-93 0 -133 -88.5t-40 -267.5q0 -174 45 -269t134 -95z" />
    <glyph glyph-name="R" unicode="R" horiz-adv-x="700" 
d="M477 373l189 -186v-229h-10l-344 358q-18 18 -40 18h-6v-334h-202v728h267q323 0 323 -178q0 -125 -177 -177zM462 540q0 82 -36.5 127t-106.5 45h-53v-357q33 -5 64 -5q60 0 96 54q36 56 36 136z" />
    <glyph glyph-name="S" unicode="S" horiz-adv-x="574" 
d="M29 36l27 103q32 -60 101 -97q70 -38 139 -38q63 0 98 33t35 84q0 38 -24 67q-23 26 -52 43t-84 39l-49 20q-73 29 -130 80q-55 51 -55 144q0 98 73 162t193 64q66 0 123 -16q61 -17 91 -31l-24 -93q-96 124 -205 124q-58 0 -92.5 -32.5t-34.5 -82.5q0 -48 36.5 -79.5
t113.5 -62.5l49 -20q82 -33 138 -84q57 -49 57 -143q0 -97 -71 -164.5t-201 -67.5q-62 -1 -147.5 17.5t-104.5 30.5z" />
    <glyph glyph-name="T" unicode="T" horiz-adv-x="602" 
d="M578 728l17 -138h-2q-59 66 -100 94q-38 26 -81 26h-10v-710h-202v710h-10q-44 0 -82 -26q-39 -26 -99 -94h-2l17 138h554z" />
    <glyph glyph-name="U" unicode="U" horiz-adv-x="708" 
d="M57 276v452h202v-456q0 -121 46 -183.5t131 -62.5q86 0 134 61.5t48 179.5v143q0 186 -40 318h100q-40 -132 -40 -318v-138q0 -143 -68 -213.5t-213 -70.5q-150 0 -225 73.5t-75 214.5z" />
    <glyph glyph-name="V" unicode="V" horiz-adv-x="668" 
d="M570 728h118q-43 -71 -78 -139q-35 -69 -86 -183l-193 -430h-4l-337 752h221l218 -487l77 173q72 161 72 250q0 30 -8 64z" />
    <glyph glyph-name="W" unicode="W" horiz-adv-x="914" 
d="M830 728h99q-38 -69 -67 -135q-39 -95 -73 -185l-163 -432h-4l-169 448l-171 -448h-4l-283 752h217l166 -445l170 445h4l170 -443l48 129q61 159 61 278q0 29 -1 36z" />
    <glyph glyph-name="X" unicode="X" horiz-adv-x="683" 
d="M444 480l196 -233v-289h-9l-319 379l-57 -80q-77 -109 -77 -184q0 -31 14 -73h-200q68 54 120 109q53 56 127 159l60 84l-317 376h253l196 -232q60 86 88 140q25 50 25 92h120q-53 -49 -109 -108q-49 -54 -111 -140z" />
    <glyph glyph-name="Y" unicode="Y" horiz-adv-x="668" 
d="M501 431l-60 -112v-319h-202v289l-242 439h230l207 -379l49 91q87 160 87 288h99q-39 -65 -81 -139q-44 -79 -87 -158z" />
    <glyph glyph-name="Z" unicode="Z" horiz-adv-x="622" 
d="M608 124h2l-24 -124h-580v4l365 706h-29q-207 0 -316 -96h-2l14 114h568v-4l-366 -706h46q108 0 183 23q74 24 139 83z" />
    <glyph glyph-name="bracketleft" unicode="[" horiz-adv-x="232" 
d="M241 782v-12h-156q20 -243 20 -462t-20 -462h156v-12h-180v948h180z" />
    <glyph glyph-name="backslash" unicode="\" horiz-adv-x="355" 
d="M311 -64l-292 846h25l292 -846h-25z" />
    <glyph glyph-name="bracketright" unicode="]" horiz-adv-x="232" 
d="M-9 782h180v-948h-180v12h156q-20 243 -20 462t20 462h-156v12z" />
    <glyph glyph-name="asciicircum" unicode="^" horiz-adv-x="508" 
d="M469 358l-18 -10l-197 354l-197 -354l-18 10l213 382h4z" />
    <glyph glyph-name="underscore" unicode="_" horiz-adv-x="376" 
d="M-2 -86v22h380v-22h-380z" />
    <glyph glyph-name="grave" unicode="`" horiz-adv-x="600" 
d="M326 606l-210 206h164l53 -201z" />
    <glyph glyph-name="a" unicode="a" horiz-adv-x="582" 
d="M574 32v-6q-19 -14 -56 -26t-78 -12q-55 0 -84 21.5t-36 55.5q-69 -75 -164 -75q-64 0 -103 37.5t-39 94.5q0 69 57.5 114t158.5 55q59 7 88 8v53q0 48 -6 80q-13 78 -108 78q-76 0 -146 -53l-9 11q49 45 100 66.5t126 21.5q117 0 174 -47.5t57 -146.5v-256
q0 -45 8 -60.5t40 -15.5q4 0 20 2zM318 83v202q-124 -22 -124 -143q0 -46 17 -70.5t45 -24.5q32 0 62 36z" />
    <glyph glyph-name="b" unicode="b" horiz-adv-x="665" 
d="M639 285q2 -125 -80 -212t-197 -85q-132 0 -206 64l-99 -64h-4v771l184 51h4v-337q75 83 165 83q97 2 166 -76.5t67 -194.5zM441 272q0 133 -23 184t-75 51q-53 0 -102 -59v-340q9 -47 34.5 -75t60.5 -28q105 0 105 267z" />
    <glyph glyph-name="c" unicode="c" horiz-adv-x="544" 
d="M27 262q0 131 85 212.5t211 81.5q124 0 208 -86l-58 -52q-39 67 -65 93q-27 29 -68 29q-55 0 -84 -60t-29 -171q0 -249 150 -249q84 0 149 84l12 -7q-99 -149 -247 -149q-113 0 -188.5 75.5t-75.5 198.5z" />
    <glyph glyph-name="d" unicode="d" horiz-adv-x="663" 
d="M634 32l-180 -44l-28 84q-76 -84 -167 -84q-97 -2 -166 76.5t-67 194.5q-2 125 80 212t197 85q69 0 121 -36v239l184 51h4v-712zM424 95v340q-9 48 -34 76t-61 28q-105 0 -105 -267q0 -132 24 -182t78 -50q51 0 98 55z" />
    <glyph glyph-name="e" unicode="e" horiz-adv-x="593" 
d="M558 142l12 -7q-99 -147 -268 -147q-121 0 -198.5 73.5t-77.5 196.5q0 134 85 216t218 82q120 0 180 -64.5t60 -165.5l-1 -21h-348q1 -245 171 -245q97 0 167 82zM220 321h186q4 24 4 58q0 72 -25.5 116.5t-64.5 44.5q-47 0 -73 -62q-25 -61 -27 -157z" />
    <glyph glyph-name="f" unicode="f" horiz-adv-x="386" 
d="M265 650v-106h133l-13 -22h-120v-522h-188v522h-57v22h57v76q0 89 56.5 141.5t143.5 52.5q103 0 194 -67l-9 -12q-46 25 -92 25q-47 0 -76 -29t-29 -81z" />
    <glyph glyph-name="g" unicode="g" horiz-adv-x="616" 
d="M524 498q-23 0 -37 -8q53 -50 53 -124q0 -85 -73.5 -138.5t-184.5 -53.5q-66 0 -120 19l-12 -8q-18 -12 -18 -31q0 -13 13 -22.5t41 -10.5l205 -11q197 -10 197 -140q2 -95 -98.5 -153t-238.5 -57q-106 0 -181 34q-75 33 -75 97q0 19 9 43l99 28h4q-11 -38 -11 -63
q0 -58 40.5 -90.5t114.5 -32.5q105 0 171 32t66 84q0 35 -33 52.5t-112 21.5l-183 10q-61 3 -90 30.5t-29 71.5q0 34 22 61t71 55l11 6q-114 51 -114 163q0 85 74 138.5t185 53.5q115 0 183 -53q36 92 139 92l-14 -118q-41 22 -74 22zM373 362q0 178 -88 178
q-47 0 -66.5 -42t-19.5 -132q0 -177 88 -177q46 0 66 42t20 131z" />
    <glyph glyph-name="h" unicode="h" horiz-adv-x="641" 
d="M592 363v-363h-188v385q0 45 -14 81t-61 36q-46 0 -88 -45v-457h-188v759l184 51h4v-333q70 79 170 79q88 0 134.5 -48.5t46.5 -144.5z" />
    <glyph glyph-name="i" unicode="i" horiz-adv-x="292" 
d="M145 606l-112 112l112 112l112 -112zM51 0v521l184 41h4v-562h-188z" />
    <glyph glyph-name="j" unicode="j" horiz-adv-x="300" 
d="M153 606l-112 112l112 112l112 -112zM-63 -228l-4 12q59 16 92.5 79.5t33.5 156.5v501l184 41h4v-522q1 -59 -28.5 -109t-78 -81.5t-100 -51t-103.5 -26.5z" />
    <glyph glyph-name="k" unicode="k" horiz-adv-x="604" 
d="M53 759l184 51h4v-810h-188v759zM582 544v-2q-104 -63 -181 -130l179 -200v-254h-6l-316 355l89 78q56 49 92 85q34 35 55 68h88z" />
    <glyph glyph-name="l" unicode="l" horiz-adv-x="294" 
d="M53 0v759l184 51h4v-810h-188z" />
    <glyph glyph-name="m" unicode="m" horiz-adv-x="978" 
d="M929 363v-363h-188v385q0 45 -14 81q-13 36 -60 36q-45 0 -94 -57q11 -38 11 -82v-363h-188v385q0 45 -14 81t-60 36q-42 0 -83 -45v-457h-188v521l184 41h4v-84q72 78 167 78q121 0 161 -94q41 48 82.5 71t101.5 23q86 0 132 -48.5t46 -144.5z" />
    <glyph glyph-name="n" unicode="n" horiz-adv-x="639" 
d="M590 363v-363h-188v385q0 45 -14 81t-61 36q-46 0 -88 -45v-457h-188v521l184 41h4v-85q70 79 170 79q88 0 134.5 -48.5t46.5 -144.5z" />
    <glyph glyph-name="o" unicode="o" horiz-adv-x="655" 
d="M26 269q0 127 87 207t219 80q131 0 214 -76.5t83 -204.5q0 -127 -87 -207t-219 -80q-131 0 -214 76.5t-83 204.5zM431 268q0 274 -105 274q-55 0 -78.5 -66.5t-23.5 -201.5q0 -130 26.5 -201t78.5 -71q55 0 78.5 66t23.5 200z" />
    <glyph glyph-name="p" unicode="p" horiz-adv-x="663" 
d="M637 285q2 -125 -80 -212t-197 -85q-68 0 -121 36v-252h-188v749l184 41h4v-88q74 82 165 82q97 2 166 -76.5t67 -194.5zM439 272q0 133 -23 184t-75 51q-51 0 -102 -58v-340q9 -48 34 -76t61 -28q105 0 105 267z" />
    <glyph glyph-name="q" unicode="q" horiz-adv-x="665" 
d="M608 562h4v-790h-188v298q-74 -82 -165 -82q-97 -2 -166 76.5t-67 194.5q-2 125 80 212t197 85q125 0 204 -54zM424 95v340q-9 48 -34 76t-61 28q-105 0 -105 -267q0 -132 24 -182t78 -50q51 0 98 55z" />
    <glyph glyph-name="r" unicode="r" horiz-adv-x="427" 
d="M431 550l-48 -134q-27 13 -52 13q-37 0 -62.5 -27t-29.5 -72v-330h-188v521l178 41h4v-196h2q10 85 52.5 137.5t100.5 52.5q19 0 43 -6z" />
    <glyph glyph-name="s" unicode="s" horiz-adv-x="484" 
d="M22 24l23 87q32 -47 88 -78t118 -31q51 0 78.5 20.5t27.5 56.5t-27.5 57t-93.5 45l-42 15q-66 24 -117 62q-49 39 -49 114q0 78 60 131t168 53q88 0 180 -36l-19 -75q-78 97 -180 97q-46 0 -72.5 -20.5t-26.5 -54.5q1 -21 8 -35t26 -26t34.5 -18.5t52.5 -20.5l42 -15
q43 -15 76 -34q38 -20 64 -57.5t26 -87.5q0 -79 -61 -132t-175 -53q-62 0 -124 13q-69 14 -85 23z" />
    <glyph glyph-name="t" unicode="t" horiz-adv-x="394" 
d="M401 67l8 -12q-85 -67 -178 -67q-90 0 -123 44q-32 44 -32 102v388h-57v17l57 5l184 196h4v-196h145l-13 -22h-132v-398q0 -38 12.5 -60t48.5 -22q35 0 76 25z" />
    <glyph glyph-name="u" unicode="u" horiz-adv-x="636" 
d="M606 32l-180 -44l-29 87q-70 -87 -171 -87q-88 0 -134.5 48.5t-46.5 144.5v340l184 41h4v-403q0 -47 13 -82q14 -35 62 -35q40 0 88 54v425l184 41h4v-464z" />
    <glyph glyph-name="v" unicode="v" horiz-adv-x="506" 
d="M433 544h86q-28 -50 -61 -119q-8 -17 -92 -200l-112 -249h-4l-255 568h203l146 -325l5 12q49 108 66 180q18 73 18 133z" />
    <glyph glyph-name="w" unicode="w" horiz-adv-x="762" 
d="M691 544h84q-38 -71 -65 -130q-32 -68 -84 -189l-108 -249h-4l-132 312l-136 -312h-4l-245 568h201l137 -318l137 318h4l133 -314v1q82 189 82 313z" />
    <glyph glyph-name="x" unicode="x" horiz-adv-x="494" 
d="M337 382l123 -155v-269h-6l-229 290l-41 -58q-57 -80 -57 -134q0 -11 2.5 -23t5.5 -23l3 -10h-150q48 37 87 79q41 44 95 122l43 62l-221 281h217l116 -147q40 58 56 88q15 30 15 59h86q-76 -68 -145 -162z" />
    <glyph glyph-name="y" unicode="y" horiz-adv-x="508" 
d="M431 544h86q-30 -53 -58 -112q-36 -79 -74 -165l-12 -27l-142 -321q-68 -153 -234 -153l9 86q36 -14 71 -14q44 0 80.5 22t54.5 61l27 61l-246 562h202l145 -332l16 35q75 170 75 297z" />
    <glyph glyph-name="z" unicode="z" horiz-adv-x="479" 
d="M465 60h3l-12 -60h-447v4l255 525q-165 -5 -246 -41h-3l11 56h440v-4l-254 -524q158 5 253 44z" />
    <glyph glyph-name="braceleft" unicode="{" horiz-adv-x="318" 
d="M195 662q0 -38 21 -107q19 -62 19 -91q0 -62 -53.5 -105t-118.5 -51q65 -8 118.5 -51t53.5 -105q0 -29 -19 -91q-21 -69 -21 -107q0 -51 31.5 -79.5t91.5 -28.5v-12q-144 0 -205.5 33t-61.5 116q0 42 29 114q25 63 25 94q0 44 -22.5 74.5t-66.5 36.5v12q44 6 66.5 36.5
t22.5 74.5q0 32 -25 94q-29 72 -29 114q0 83 61.5 116t205.5 33v-12q-60 0 -91.5 -28.5t-31.5 -79.5z" />
    <glyph glyph-name="bar" unicode="|" horiz-adv-x="146" 
d="M61 -64v846h24v-846h-24z" />
    <glyph glyph-name="braceright" unicode="}" horiz-adv-x="319" 
d="M214 191q0 -31 25 -94q29 -72 29 -114q0 -83 -61.5 -116t-205.5 -33v12q60 0 91.5 28.5t31.5 79.5q0 38 -21 107q-19 62 -19 91q0 62 53.5 105t118.5 51q-65 8 -118.5 51t-53.5 105q0 29 19 91q21 69 21 107q0 51 -31.5 79.5t-91.5 28.5v12q144 0 205.5 -33t61.5 -116
q0 -42 -29 -114q-25 -62 -25 -94q0 -44 22.5 -74.5t66.5 -36.5v-12q-44 -6 -66.5 -36.5t-22.5 -74.5z" />
    <glyph glyph-name="asciitilde" unicode="~" horiz-adv-x="533" 
d="M53 292l-12 3q6 70 32.5 102.5t82.5 32.5q47 0 142 -34q71 -28 106 -28q57 0 80 62l12 -3q-6 -70 -32.5 -102.5t-82.5 -32.5q-47 0 -142 34q-71 28 -106 28q-57 0 -80 -62z" />
    <glyph glyph-name="uni00A0" unicode="&#xa0;" horiz-adv-x="194" 
 />
    <glyph glyph-name="exclamdown" unicode="&#xa1;" horiz-adv-x="262" 
d="M131 542l112 -112l-112 -112l-112 112zM122 274h18l92 -484h-202z" />
    <glyph glyph-name="cent" unicode="&#xa2;" horiz-adv-x="570" 
d="M318 -11l-8 -89h-20l8 88q-113 2 -187.5 77t-74.5 197q0 131 85 212.5t211 81.5h18l6 68h20l-6 -70q100 -11 170 -84l-58 -52q-36 62 -59.5 88t-54.5 32l-1 -13l-41 -455q23 -10 60 -10q84 0 149 84l12 -7q-95 -141 -229 -148zM306 80l41 445l1 15q-61 0 -92.5 -59.5
t-31.5 -171.5q0 -180 82 -229z" />
    <glyph glyph-name="sterling" unicode="&#xa3;" horiz-adv-x="629" 
d="M596 206h10l-5 -38q-6 -50 -18 -87q-13 -41 -46 -67t-87 -26q-45 0 -173 32q-92 23 -120 23q-65 0 -103 -49l-20 38q114 64 114 161q0 35 -10 65q-10 35 -33 98h-65v18h58q-30 88 -30 143q0 94 65.5 158.5t164.5 64.5q86 0 150 -45q65 -44 98 -96l-13 -8q-34 36 -76 57.5
t-80 21.5q-47 0 -84 -34q-37 -33 -37 -103q0 -44 25 -132q7 -21 8 -27h181v-18h-176q10 -36 10 -66q0 -78 -88 -133q36 -1 143 -21q88 -18 124 -18q42 0 63.5 15t37.5 48z" />
    <glyph glyph-name="currency" unicode="&#xa4;" horiz-adv-x="478" 
d="M370 215l71 -71l-14 -14l-71 71q-50 -44 -117 -44t-117 44l-71 -71l-14 14l71 71q-45 51 -45 117t45 117l-71 71l14 14l71 -71q50 44 117 44t117 -44l71 71l14 -14l-71 -71q45 -51 45 -117t-45 -117zM393 332q0 63 -45.5 109t-108.5 46t-108.5 -46t-45.5 -109t45.5 -109
t108.5 -46t108.5 46t45.5 109z" />
    <glyph glyph-name="yen" unicode="&#xa5;" horiz-adv-x="705" 
d="M520 431l-48 -89h108v-18h-117l-3 -5v-93h120v-18h-120v-208h-202v208h-120v18h120v63l-19 35h-101v18h91l-213 386h230l207 -379l49 91q87 160 87 288h99q-39 -65 -81 -139q-44 -79 -87 -158z" />
    <glyph glyph-name="brokenbar" unicode="&#xa6;" horiz-adv-x="146" 
d="M61 409v373h24v-373h-24zM61 -64v373h24v-373h-24z" />
    <glyph glyph-name="section" unicode="&#xa7;" horiz-adv-x="508" 
d="M484 156q2 -99 -72.5 -185t-168.5 -83q-38 0 -84 12.5t-75 31.5l11 33q70 -63 153 -63q54 0 86.5 33.5t32.5 85.5q0 32 -15 58q-14 24 -36.5 44.5t-69.5 54.5l-30 22l-35 26q-47 35 -74 61q-83 81 -83 185q-2 99 72.5 185t165.5 83q80 0 156 -44l-11 -33q-74 63 -150 63
q-51 0 -83.5 -34t-32.5 -85q0 -32 14 -58q14 -24 37 -44.5t70 -54.5l30 -22l35 -26q68 -50 112 -107q45 -57 45 -139zM448 126q0 73 -37.5 127t-110.5 106l-37 26q-32 23 -76 58q-75 66 -75 143q0 50 34 96q-86 -73 -86 -180q0 -73 37.5 -127t110.5 -106l37 -26
q38 -27 75 -58q76 -65 76 -143q0 -50 -34 -96q86 73 86 180z" />
    <glyph glyph-name="dieresis" unicode="&#xa8;" horiz-adv-x="600" 
d="M185 606l-93 93l93 93l93 -93zM415 606l-93 93l93 93l93 -93z" />
    <glyph glyph-name="copyright" unicode="&#xa9;" horiz-adv-x="810" 
d="M30 364q-3 153 109.5 266t265.5 110q100 2 187.5 -49.5t138.5 -139t49 -187.5q2 -100 -49 -187.5t-138.5 -139t-187.5 -49.5q-153 -3 -265.5 110t-109.5 266zM758 364q3 146 -103 253.5t-250 104.5q-144 3 -250 -104.5t-103 -253.5q-3 -146 103 -253.5t250 -104.5
q144 -3 250 104.5t103 253.5zM185 361q0 101 62.5 166t157.5 65q110 0 170 -85l-34 -18q-56 89 -141 89q-71 0 -118 -58t-47 -151t48.5 -150t120.5 -57q46 0 91 23.5t72 63.5l12 -7q-72 -106 -187 -106q-89 0 -148 63t-59 162z" />
    <glyph glyph-name="ordfeminine" unicode="&#xaa;" horiz-adv-x="401" 
d="M385 403v-4q-35 -24 -87 -24q-66 0 -76 48q-41 -47 -108 -47q-41 0 -66 24t-25 61q0 43 37.5 72.5t102.5 36.5l57 6v33q0 25 -2 40t-8.5 31t-22.5 23t-41 7q-52 0 -95 -34l-8 9q60 55 149 55q149 0 149 -125v-164q0 -29 5.5 -39t24.5 -10q11 0 14 1zM220 438v126
q-80 -12 -80 -90q0 -29 11 -45t28 -16q22 0 41 25z" />
    <glyph glyph-name="guillemotleft" unicode="&#xab;" horiz-adv-x="509" 
d="M265 524l-110 -252l110 -252h-12l-232 252l232 252h12zM475 524l-110 -252l110 -252h-12l-232 252l232 252h12z" />
    <glyph glyph-name="logicalnot" unicode="&#xac;" horiz-adv-x="508" 
d="M47 374h408v-220h-22v200h-386v20z" />
    <glyph glyph-name="uni00AD" unicode="&#xad;" horiz-adv-x="289" 
d="M37 271v38h215v-38h-215z" />
    <glyph glyph-name="registered" unicode="&#xae;" horiz-adv-x="611" 
d="M577 469q2 -109 -80 -190.5t-191 -79.5q-110 -2 -192 79.5t-80 190.5q-2 108 80 190.5t192 80.5q109 2 191 -80.5t80 -190.5zM555 471q2 101 -73.5 177t-175.5 74q-101 2 -176.5 -74t-73.5 -177q-2 -101 73.5 -177.5t176.5 -74.5q100 -2 175.5 74.5t73.5 177.5zM465 309
v-6q-10 -2 -18 -2q-25 0 -41 11t-32 34l-60 93q-5 10 -24 10h-40v-147h-29v331h63q129 0 129 -86q0 -59 -77 -90l67 -99q34 -49 62 -49zM381 544q0 36 -25 56t-72 20h-34v-156q16 -3 45 -3q37 0 61.5 23.5t24.5 59.5z" />
    <glyph glyph-name="overscore" unicode="&#xaf;" horiz-adv-x="600" 
d="M142 654v52h315v-52h-315z" />
    <glyph glyph-name="degree" unicode="&#xb0;" horiz-adv-x="320" 
d="M20 613q0 58 41 98.5t99 40.5t99 -40.5t41 -98.5t-41 -98.5t-99 -40.5t-99 40.5t-41 98.5zM278 613q0 50 -35 85q-34 36 -83 36q-50 0 -84 -36q-34 -34 -34 -85t34 -86q35 -35 84 -35q48 0 83 35q35 37 35 86z" />
    <glyph glyph-name="plusminus" unicode="&#xb1;" horiz-adv-x="508" 
d="M265 374h193v-20h-193v-200h-22v200h-193v20h193v200h22v-200zM50 0v20h408v-20h-408z" />
    <glyph glyph-name="uni00B2" unicode="&#xb2;" horiz-adv-x="368" 
d="M342 356l-26 -96h-303v3l36 38q81 85 122 150.5t41 132.5q0 47 -24.5 72t-65.5 25q-53 0 -95 -54l-9 4q20 37 63 69q44 32 108 32q65 0 106.5 -34t41.5 -95q0 -47 -28 -87q-26 -39 -72 -76q-34 -29 -133 -97h36q115 0 202 13z" />
    <glyph glyph-name="uni00B3" unicode="&#xb3;" horiz-adv-x="363" 
d="M19 280l13 60q26 -40 47.5 -57t53.5 -17q41 0 68.5 27.5t27.5 74.5q0 46 -27.5 79.5t-72.5 44.5l-20 5l-2 7l12 4q37 12 62 40.5t25 63.5q0 32 -22.5 51t-56.5 19q-52 0 -93 -50l-8 4q67 96 170 96q55 0 90 -26t35 -67q0 -35 -28.5 -64t-70.5 -37v-2q50 -8 82.5 -44
t32.5 -86q0 -65 -53 -107.5t-140 -42.5q-54 0 -125 24z" />
    <glyph glyph-name="acute" unicode="&#xb4;" horiz-adv-x="600" 
d="M282 606l-7 5l53 201h164z" />
    <glyph glyph-name="uni00B5" unicode="&#xb5;" horiz-adv-x="655" 
d="M619 32l-180 -44l-29 87q-70 -87 -171 -87q-35 0 -66 11q73 -101 73 -169v-42h-188v733l184 41h4v-403q0 -47 13 -82q14 -35 62 -35q40 0 88 54v425l184 41h4v-464z" />
    <glyph glyph-name="paragraph" unicode="&#xb6;" horiz-adv-x="454" 
d="M234 -64v440q-94 4 -154 61q-58 57 -58 148q0 92 58 144.5t155 52.5h23v-846h-24zM358 782h24v-817q0 -79 -38.5 -129.5t-109.5 -63.5v17q60 13 92 58.5t32 117.5v817z" />
    <glyph glyph-name="middot" unicode="&#xb7;" horiz-adv-x="246" 
d="M123 222l-112 112l112 112l112 -112z" />
    <glyph glyph-name="cedilla" unicode="&#xb8;" horiz-adv-x="600" 
d="M460 -139q0 -43 -37.5 -71t-100.5 -28q-74 0 -107 27l3 9q8 -3 31 -6q25 -3 42 -3q31 0 47 12.5t16 32.5q0 46 -76 46h-26l54 120h20l-19 -42q73 -3 113 -29.5t40 -67.5z" />
    <glyph glyph-name="uni00B9" unicode="&#xb9;" horiz-adv-x="226" 
d="M174 736h3v-472h-112v374q-29 -9 -50 -11v8q34 7 81 37q44 27 78 64z" />
    <glyph glyph-name="ordmasculine" unicode="&#xba;" horiz-adv-x="430" 
d="M22 556q0 81 55.5 132.5t140.5 51.5q84 0 136 -49q54 -49 54 -131q0 -81 -55.5 -132.5t-140.5 -51.5q-84 0 -137 49q-53 50 -53 131zM281 556q0 171 -66 171q-35 0 -50.5 -41.5t-15.5 -126.5q0 -170 67 -170q35 0 50 41t15 126z" />
    <glyph glyph-name="guillemotright" unicode="&#xbb;" horiz-adv-x="509" 
d="M46 524l232 -252l-232 -252h-12l110 252l-110 252h12zM256 524l232 -252l-232 -252h-12l110 252l-110 252h12z" />
    <glyph glyph-name="onequarter" unicode="&#xbc;" horiz-adv-x="736" 
d="M189 736h3v-472h-112v374q-29 -9 -50 -11v8q34 7 81 37q44 27 78 64zM77 0l440 728h23l-440 -728h-23zM714 175l-19 -68h-37v-107h-111v107h-162l-21 54l260 307h34v-293h56zM393 175h154v182z" />
    <glyph glyph-name="onehalf" unicode="&#xbd;" horiz-adv-x="720" 
d="M185 736h3v-472h-112v374q-29 -9 -50 -11v8q34 7 81 37q44 27 78 64zM73 0l440 728h23l-440 -728h-23zM693 96l-26 -96h-303v3l36 38q81 85 122 150.5t41 132.5q0 47 -24.5 72t-65.5 25q-53 0 -95 -54l-9 4q19 37 63 69t108 32q65 0 106.5 -34t41.5 -95q0 -47 -28 -87
q-26 -39 -72 -76q-34 -29 -133 -97h36q115 0 202 13z" />
    <glyph glyph-name="threequarters" unicode="&#xbe;" horiz-adv-x="842" 
d="M29 280l13 60q26 -40 47.5 -57t53.5 -17q41 0 68.5 27.5t27.5 74.5q0 46 -27.5 79.5t-72.5 44.5l-20 5l-2 7l12 4q37 12 62 40.5t25 63.5q0 32 -22.5 51t-56.5 19q-52 0 -93 -50l-8 4q67 96 170 96q55 0 90 -26t35 -67q0 -35 -28.5 -64t-70.5 -37v-2q50 -8 82.5 -44
t32.5 -86q0 -65 -53 -107.5t-140 -42.5q-54 0 -125 24zM183 0l440 728h23l-440 -728h-23zM820 175l-19 -68h-37v-107h-111v107h-162l-21 54l260 307h34v-293h56zM499 175h154v182z" />
    <glyph glyph-name="questiondown" unicode="&#xbf;" horiz-adv-x="516" 
d="M277 542l112 -112l-112 -112l-112 112zM352 212q0 -22 -11.5 -41.5t-42.5 -55.5q-39 -44 -55.5 -75.5t-16.5 -71.5q0 -56 33.5 -89t88.5 -33q71 0 140 66l12 -8q-29 -41 -93 -83q-64 -43 -163 -43q-100 0 -159 47t-59 125q0 50 27 86q26 33 60.5 55t101.5 52
q58 26 81.5 42.5t23.5 37.5q0 16 -11.5 26.5t-32.5 10.5q-10 0 -25 -3l-3 14q14 3 28 3q33 0 54.5 -16.5t21.5 -45.5z" />
    <glyph glyph-name="Agrave" unicode="&#xc0;" horiz-adv-x="668" 
d="M353 232h-225q-38 -102 -38 -167q0 -28 8 -65h-118q43 71 78 139q35 69 86 183l193 430h4l337 -752h-221zM162 314l-27 -64h210l-106 236zM361 784l-220 196h178l49 -191z" />
    <glyph glyph-name="Aacute" unicode="&#xc1;" horiz-adv-x="668" 
d="M353 232h-225q-38 -102 -38 -167q0 -28 8 -65h-118q43 71 78 139q35 69 86 183l193 430h4l337 -752h-221zM162 314l-27 -64h210l-106 236zM317 784l-7 5l49 191h178z" />
    <glyph glyph-name="Acircumflex" unicode="&#xc2;" horiz-adv-x="668" 
d="M353 232h-225q-38 -102 -38 -167q0 -28 8 -65h-118q43 71 78 139q35 69 86 183l193 430h4l337 -752h-221zM162 314l-27 -64h210l-106 236zM520 789l-6 -5l-175 75l-175 -75l-6 5l178 191h6z" />
    <glyph glyph-name="Atilde" unicode="&#xc3;" horiz-adv-x="668" 
d="M353 232h-225q-38 -102 -38 -167q0 -28 8 -65h-118q43 71 78 139q35 69 86 183l193 430h4l337 -752h-221zM162 314l-27 -64h210l-106 236zM167 796l-11 3q7 72 34 113.5t67 41.5q37 0 104 -35q51 -27 76 -27q53 0 74 62l11 -3q-7 -72 -34 -113.5t-68 -41.5q-37 0 -104 35
q-53 27 -75 27q-54 0 -74 -62z" />
    <glyph glyph-name="Adieresis" unicode="&#xc4;" horiz-adv-x="668" 
d="M353 232h-225q-38 -102 -38 -167q0 -28 8 -65h-118q43 71 78 139q35 69 86 183l193 430h4l337 -752h-221zM162 314l-27 -64h210l-106 236zM224 784l-93 93l93 93l93 -93zM454 784l-93 93l93 93l93 -93z" />
    <glyph glyph-name="Aring" unicode="&#xc5;" horiz-adv-x="668" 
d="M353 232h-225q-38 -102 -38 -167q0 -28 8 -65h-118q43 71 78 139q35 69 86 183l193 430h4l337 -752h-221zM162 314l-27 -64h210l-106 236zM206 893q0 50 36.5 79.5t96.5 29.5t96.5 -29.5t36.5 -79.5t-36.5 -79.5t-96.5 -29.5t-96.5 29.5t-36.5 79.5zM402 893
q0 44 -16.5 69.5t-46.5 25.5t-46.5 -25.5t-16.5 -69.5t16.5 -69.5t46.5 -25.5t46.5 25.5t16.5 69.5z" />
    <glyph glyph-name="AE" unicode="&#xc6;" horiz-adv-x="887" 
d="M865 124h2l-24 -124h-480v262h-223q-48 -111 -48 -189q0 -33 9 -73h-118l364 728h488l14 -114h-2q-110 96 -252 96h-30v-322h10q80 0 134.5 13t67.5 35h2v-122h-2q-14 25 -69 40.5t-133 15.5h-10v-352h37q147 0 263 106zM149 280h214v430l-198 -396z" />
    <glyph glyph-name="Ccedilla" unicode="&#xc7;" horiz-adv-x="697" 
d="M399 -12l-14 -30q73 -3 113 -29.5t40 -67.5q0 -43 -37.5 -71t-100.5 -28q-74 0 -107 27l3 9q8 -3 31 -6q25 -3 42 -3q31 0 47 12.5t16 32.5q0 46 -76 46h-26l49 108q-151 -2 -250 103.5t-97 263.5q0 176 105 280.5t273 104.5q78 0 150 -35t122 -81l-82 -75
q-25 70 -77 122q-51 53 -115 53q-83 0 -120 -91q-36 -90 -36 -235q0 -168 57 -253t160 -85q136 0 211 109l12 -7q-46 -79 -122.5 -124.5t-170.5 -49.5z" />
    <glyph glyph-name="Egrave" unicode="&#xc8;" horiz-adv-x="588" 
d="M566 124h2l-24 -124h-480v728h472l14 -114h-2q-110 96 -252 96h-30v-322h10q80 0 134.5 13t67.5 35h2v-122h-2q-14 25 -69 40.5t-133 15.5h-10v-352h37q147 0 263 106zM332 784l-220 196h178l49 -191z" />
    <glyph glyph-name="Eacute" unicode="&#xc9;" horiz-adv-x="588" 
d="M566 124h2l-24 -124h-480v728h472l14 -114h-2q-110 96 -252 96h-30v-322h10q80 0 134.5 13t67.5 35h2v-122h-2q-14 25 -69 40.5t-133 15.5h-10v-352h37q147 0 263 106zM288 784l-7 5l49 191h178z" />
    <glyph glyph-name="Ecircumflex" unicode="&#xca;" horiz-adv-x="588" 
d="M566 124h2l-24 -124h-480v728h472l14 -114h-2q-110 96 -252 96h-30v-322h10q80 0 134.5 13t67.5 35h2v-122h-2q-14 25 -69 40.5t-133 15.5h-10v-352h37q147 0 263 106zM491 789l-6 -5l-175 75l-175 -75l-6 5l178 191h6z" />
    <glyph glyph-name="Edieresis" unicode="&#xcb;" horiz-adv-x="588" 
d="M566 124h2l-24 -124h-480v728h472l14 -114h-2q-110 96 -252 96h-30v-322h10q80 0 134.5 13t67.5 35h2v-122h-2q-14 25 -69 40.5t-133 15.5h-10v-352h37q147 0 263 106zM195 784l-93 93l93 93l93 -93zM425 784l-93 93l93 93l93 -93z" />
    <glyph glyph-name="Igrave" unicode="&#xcc;" horiz-adv-x="330" 
d="M64 0v728h202v-728h-202zM187 784l-220 196h178l49 -191z" />
    <glyph glyph-name="Iacute" unicode="&#xcd;" horiz-adv-x="330" 
d="M64 0v728h202v-728h-202zM143 784l-7 5l49 191h178z" />
    <glyph glyph-name="Icircumflex" unicode="&#xce;" horiz-adv-x="330" 
d="M64 0v728h202v-728h-202zM346 789l-6 -5l-175 75l-175 -75l-6 5l178 191h6z" />
    <glyph glyph-name="Idieresis" unicode="&#xcf;" horiz-adv-x="330" 
d="M64 0v728h202v-728h-202zM50 784l-93 93l93 93l93 -93zM280 784l-93 93l93 93l93 -93z" />
    <glyph glyph-name="Eth" unicode="&#xd0;" horiz-adv-x="817" 
d="M785 369q0 -175 -123.5 -272t-346.5 -97h-245v371h-62v14h62v343h284q194 0 312.5 -94t118.5 -265zM565 367q0 158 -57 251q-55 94 -160 94h-76v-327h144v-14h-144v-346q21 -9 82 -9q104 0 157.5 90t53.5 261z" />
    <glyph glyph-name="Ntilde" unicode="&#xd1;" horiz-adv-x="698" 
d="M566 728h100q-40 -132 -40 -318v-422h-16l-494 610v-280q0 -186 40 -318h-100q40 132 40 318v305l-83 102v3h241l352 -438v120q0 186 -40 318zM182 796l-11 3q7 72 34 113.5t67 41.5q37 0 104 -35q51 -27 76 -27q53 0 74 62l11 -3q-7 -72 -34 -113.5t-68 -41.5
q-37 0 -104 35q-53 27 -75 27q-54 0 -74 -62z" />
    <glyph glyph-name="Ograve" unicode="&#xd2;" horiz-adv-x="854" 
d="M32 356q0 175 111 279.5t291 104.5q173 0 280.5 -98t107.5 -270q0 -175 -111 -279.5t-291 -104.5q-173 0 -280.5 98t-107.5 270zM602 360q0 175 -44.5 269.5t-132.5 94.5q-93 0 -133 -88.5t-40 -267.5q0 -174 45 -269t134 -95q91 0 131 88.5t40 267.5zM449 784l-220 196
h178l49 -191z" />
    <glyph glyph-name="Oacute" unicode="&#xd3;" horiz-adv-x="854" 
d="M32 356q0 175 111 279.5t291 104.5q173 0 280.5 -98t107.5 -270q0 -175 -111 -279.5t-291 -104.5q-173 0 -280.5 98t-107.5 270zM602 360q0 175 -44.5 269.5t-132.5 94.5q-93 0 -133 -88.5t-40 -267.5q0 -174 45 -269t134 -95q91 0 131 88.5t40 267.5zM405 784l-7 5
l49 191h178z" />
    <glyph glyph-name="Ocircumflex" unicode="&#xd4;" horiz-adv-x="854" 
d="M32 356q0 175 111 279.5t291 104.5q173 0 280.5 -98t107.5 -270q0 -175 -111 -279.5t-291 -104.5q-173 0 -280.5 98t-107.5 270zM602 360q0 175 -44.5 269.5t-132.5 94.5q-93 0 -133 -88.5t-40 -267.5q0 -174 45 -269t134 -95q91 0 131 88.5t40 267.5zM608 789l-6 -5
l-175 75l-175 -75l-6 5l178 191h6z" />
    <glyph glyph-name="Otilde" unicode="&#xd5;" horiz-adv-x="854" 
d="M32 356q0 175 111 279.5t291 104.5q173 0 280.5 -98t107.5 -270q0 -175 -111 -279.5t-291 -104.5q-173 0 -280.5 98t-107.5 270zM602 360q0 175 -44.5 269.5t-132.5 94.5q-93 0 -133 -88.5t-40 -267.5q0 -174 45 -269t134 -95q91 0 131 88.5t40 267.5zM255 796l-11 3
q7 72 34 113.5t67 41.5q37 0 104 -35q51 -27 76 -27q53 0 74 62l11 -3q-7 -72 -34 -113.5t-68 -41.5q-37 0 -104 35q-53 27 -75 27q-54 0 -74 -62z" />
    <glyph glyph-name="Odieresis" unicode="&#xd6;" horiz-adv-x="854" 
d="M32 356q0 175 111 279.5t291 104.5q173 0 280.5 -98t107.5 -270q0 -175 -111 -279.5t-291 -104.5q-173 0 -280.5 98t-107.5 270zM602 360q0 175 -44.5 269.5t-132.5 94.5q-93 0 -133 -88.5t-40 -267.5q0 -174 45 -269t134 -95q91 0 131 88.5t40 267.5zM312 784l-93 93
l93 93l93 -93zM542 784l-93 93l93 93l93 -93z" />
    <glyph glyph-name="multiply" unicode="&#xd7;" horiz-adv-x="508" 
d="M439 533l-170 -170l169 -169l-15 -15l-169 169l-169 -169l-15 15l169 169l-170 170l15 15l170 -170l170 170z" />
    <glyph glyph-name="Oslash" unicode="&#xd8;" horiz-adv-x="854" 
d="M822 372q0 -175 -111 -279.5t-291 -104.5q-140 0 -238 64l-85 -103l-16 12l85 103q-134 99 -134 292q0 175 111 279.5t291 104.5q140 0 238 -64l85 103l16 -12l-85 -103q134 -99 134 -292zM268 187l312 378q-40 159 -155 159q-93 0 -133 -88.5t-40 -267.5q0 -107 16 -181
zM602 360q0 107 -16 181l-312 -378q42 -159 157 -159q91 0 131 88.5t40 267.5z" />
    <glyph glyph-name="Ugrave" unicode="&#xd9;" horiz-adv-x="708" 
d="M57 276v452h202v-456q0 -121 46 -183.5t131 -62.5q86 0 134 61.5t48 179.5v143q0 186 -40 318h100q-40 -132 -40 -318v-138q0 -143 -68 -213.5t-213 -70.5q-150 0 -225 73.5t-75 214.5zM399 784l-220 196h178l49 -191z" />
    <glyph glyph-name="Uacute" unicode="&#xda;" horiz-adv-x="708" 
d="M57 276v452h202v-456q0 -121 46 -183.5t131 -62.5q86 0 134 61.5t48 179.5v143q0 186 -40 318h100q-40 -132 -40 -318v-138q0 -143 -68 -213.5t-213 -70.5q-150 0 -225 73.5t-75 214.5zM355 784l-7 5l49 191h178z" />
    <glyph glyph-name="Ucircumflex" unicode="&#xdb;" horiz-adv-x="708" 
d="M57 276v452h202v-456q0 -121 46 -183.5t131 -62.5q86 0 134 61.5t48 179.5v143q0 186 -40 318h100q-40 -132 -40 -318v-138q0 -143 -68 -213.5t-213 -70.5q-150 0 -225 73.5t-75 214.5zM558 789l-6 -5l-175 75l-175 -75l-6 5l178 191h6z" />
    <glyph glyph-name="Udieresis" unicode="&#xdc;" horiz-adv-x="708" 
d="M57 276v452h202v-456q0 -121 46 -183.5t131 -62.5q86 0 134 61.5t48 179.5v143q0 186 -40 318h100q-40 -132 -40 -318v-138q0 -143 -68 -213.5t-213 -70.5q-150 0 -225 73.5t-75 214.5zM262 784l-93 93l93 93l93 -93zM492 784l-93 93l93 93l93 -93z" />
    <glyph glyph-name="Yacute" unicode="&#xdd;" horiz-adv-x="668" 
d="M501 431l-60 -112v-319h-202v289l-242 439h230l207 -379l49 91q87 160 87 288h99q-39 -65 -81 -139q-44 -79 -87 -158zM348 784l-7 5l49 191h178z" />
    <glyph glyph-name="Thorn" unicode="&#xde;" horiz-adv-x="665" 
d="M644 399q0 -102 -76 -163t-206 -61q-48 0 -96 6v-181h-202v728h202v-122h96q138 0 210 -54t72 -153zM434 387q0 95 -30 149t-89 54h-49v-391q21 -8 48 -8q120 0 120 196z" />
    <glyph glyph-name="germandbls" unicode="&#xdf;" horiz-adv-x="724" 
d="M705 179q0 -89 -55.5 -140t-150.5 -51q-55 0 -108 13q-54 13 -67 23l23 87q25 -49 70 -79t98 -30q45 0 69.5 21.5t24.5 58.5q0 39 -26 64t-93 57l-37 18q-57 28 -84.5 62.5t-27.5 85.5q0 37 13.5 63.5t46.5 62.5q39 43 55 77.5t16 87.5q0 65 -26.5 102.5t-79.5 37.5
q-65 0 -83 -45t-18 -95v-660h-188v522h-57v22h57v3q0 134 78 200.5t219 66.5q108 0 175 -37q69 -37 69 -106q-3 -48 -27 -72t-83 -56q-42 -23 -58 -37t-16 -34q0 -24 23 -41q28 -19 89 -49l37 -18q48 -22 85 -65q37 -40 37 -120z" />
    <glyph glyph-name="agrave" unicode="&#xe0;" horiz-adv-x="582" 
d="M574 32v-6q-19 -14 -56 -26t-78 -12q-55 0 -84 21.5t-36 55.5q-69 -75 -164 -75q-64 0 -103 37.5t-39 94.5q0 69 57.5 114t158.5 55q59 7 88 8v53q0 48 -6 80q-13 78 -108 78q-76 0 -146 -53l-9 11q49 45 100 66.5t126 21.5q117 0 174 -47.5t57 -146.5v-256
q0 -45 8 -60.5t40 -15.5q4 0 20 2zM318 83v202q-124 -22 -124 -143q0 -46 17 -70.5t45 -24.5q32 0 62 36zM278 606l-210 206h164l53 -201z" />
    <glyph glyph-name="aacute" unicode="&#xe1;" horiz-adv-x="582" 
d="M574 32v-6q-19 -14 -56 -26t-78 -12q-55 0 -84 21.5t-36 55.5q-69 -75 -164 -75q-64 0 -103 37.5t-39 94.5q0 69 57.5 114t158.5 55q59 7 88 8v53q0 48 -6 80q-13 78 -108 78q-76 0 -146 -53l-9 11q49 45 100 66.5t126 21.5q117 0 174 -47.5t57 -146.5v-256
q0 -45 8 -60.5t40 -15.5q4 0 20 2zM318 83v202q-124 -22 -124 -143q0 -46 17 -70.5t45 -24.5q32 0 62 36zM234 606l-7 5l53 201h164z" />
    <glyph glyph-name="acircumflex" unicode="&#xe2;" horiz-adv-x="582" 
d="M574 32v-6q-19 -14 -56 -26t-78 -12q-55 0 -84 21.5t-36 55.5q-69 -75 -164 -75q-64 0 -103 37.5t-39 94.5q0 69 57.5 114t158.5 55q59 7 88 8v53q0 48 -6 80q-13 78 -108 78q-76 0 -146 -53l-9 11q49 45 100 66.5t126 21.5q117 0 174 -47.5t57 -146.5v-256
q0 -45 8 -60.5t40 -15.5q4 0 20 2zM318 83v202q-124 -22 -124 -143q0 -46 17 -70.5t45 -24.5q32 0 62 36zM437 611l-6 -5l-175 84l-175 -84l-6 5l178 201h6z" />
    <glyph glyph-name="atilde" unicode="&#xe3;" horiz-adv-x="582" 
d="M574 32v-6q-19 -14 -56 -26t-78 -12q-55 0 -84 21.5t-36 55.5q-69 -75 -164 -75q-64 0 -103 37.5t-39 94.5q0 69 57.5 114t158.5 55q59 7 88 8v53q0 48 -6 80q-13 78 -108 78q-76 0 -146 -53l-9 11q49 45 100 66.5t126 21.5q117 0 174 -47.5t57 -146.5v-256
q0 -45 8 -60.5t40 -15.5q4 0 20 2zM318 83v202q-124 -22 -124 -143q0 -46 17 -70.5t45 -24.5q32 0 62 36zM84 618l-11 3q7 72 34 113.5t67 41.5q37 0 104 -35q51 -27 76 -27q53 0 74 62l11 -3q-7 -72 -34 -113.5t-68 -41.5q-37 0 -104 35q-53 27 -75 27q-54 0 -74 -62z" />
    <glyph glyph-name="adieresis" unicode="&#xe4;" horiz-adv-x="582" 
d="M574 32v-6q-19 -14 -56 -26t-78 -12q-55 0 -84 21.5t-36 55.5q-69 -75 -164 -75q-64 0 -103 37.5t-39 94.5q0 69 57.5 114t158.5 55q59 7 88 8v53q0 48 -6 80q-13 78 -108 78q-76 0 -146 -53l-9 11q49 45 100 66.5t126 21.5q117 0 174 -47.5t57 -146.5v-256
q0 -45 8 -60.5t40 -15.5q4 0 20 2zM318 83v202q-124 -22 -124 -143q0 -46 17 -70.5t45 -24.5q32 0 62 36zM141 606l-93 93l93 93l93 -93zM371 606l-93 93l93 93l93 -93z" />
    <glyph glyph-name="aring" unicode="&#xe5;" horiz-adv-x="582" 
d="M574 32v-6q-19 -14 -56 -26t-78 -12q-55 0 -84 21.5t-36 55.5q-69 -75 -164 -75q-64 0 -103 37.5t-39 94.5q0 69 57.5 114t158.5 55q59 7 88 8v53q0 48 -6 80q-13 78 -108 78q-76 0 -146 -53l-9 11q49 45 100 66.5t126 21.5q117 0 174 -47.5t57 -146.5v-256
q0 -45 8 -60.5t40 -15.5q4 0 20 2zM318 83v202q-124 -22 -124 -143q0 -46 17 -70.5t45 -24.5q32 0 62 36zM123 715q0 50 36.5 79.5t96.5 29.5t96.5 -29.5t36.5 -79.5t-36.5 -79.5t-96.5 -29.5t-96.5 29.5t-36.5 79.5zM319 715q0 44 -16.5 69.5t-46.5 25.5t-46.5 -25.5
t-16.5 -69.5t16.5 -69.5t46.5 -25.5t46.5 25.5t16.5 69.5z" />
    <glyph glyph-name="ae" unicode="&#xe6;" horiz-adv-x="890" 
d="M855 142l12 -7q-99 -147 -268 -147q-152 0 -225 111q-35 -50 -92 -79.5t-125 -29.5q-65 0 -104 37.5t-39 94.5q0 73 58 122.5t161 58.5l96 8v41q0 48 -6 80q-15 78 -118 78q-77 0 -147 -53l-9 11q54 48 100 67.5t133 20.5q121 0 172 -52q67 52 172 52q120 0 180 -64.5
t60 -165.5l-1 -21h-348q1 -245 171 -245q97 0 167 82zM517 321h186q4 24 4 58q0 72 -25.5 116.5t-64.5 44.5q-47 0 -73 -62q-25 -61 -27 -157zM262 47q37 0 67 24v226q-65 -11 -100 -52.5t-35 -102.5q0 -46 19 -70.5t49 -24.5z" />
    <glyph glyph-name="ccedilla" unicode="&#xe7;" horiz-adv-x="544" 
d="M314 -11l-14 -31q73 -3 113 -29.5t40 -67.5q0 -43 -37.5 -71t-100.5 -28q-74 0 -107 27l3 9q8 -3 31 -6q26 -3 42 -3q31 0 47 12.5t16 32.5q0 46 -76 46h-26l49 108h-3q-113 0 -188.5 75.5t-75.5 198.5q0 131 85 212.5t211 81.5q124 0 208 -86l-58 -52q-39 67 -65 93
q-27 29 -68 29q-55 0 -84 -60t-29 -171q0 -249 150 -249q84 0 149 84l12 -7q-93 -138 -224 -148z" />
    <glyph glyph-name="egrave" unicode="&#xe8;" horiz-adv-x="593" 
d="M558 142l12 -7q-99 -147 -268 -147q-121 0 -198.5 73.5t-77.5 196.5q0 134 85 216t218 82q120 0 180 -64.5t60 -165.5l-1 -21h-348q1 -245 171 -245q97 0 167 82zM220 321h186q4 24 4 58q0 72 -25.5 116.5t-64.5 44.5q-47 0 -73 -62q-25 -61 -27 -157zM344 606l-210 206
h164l53 -201z" />
    <glyph glyph-name="eacute" unicode="&#xe9;" horiz-adv-x="593" 
d="M558 142l12 -7q-99 -147 -268 -147q-121 0 -198.5 73.5t-77.5 196.5q0 134 85 216t218 82q120 0 180 -64.5t60 -165.5l-1 -21h-348q1 -245 171 -245q97 0 167 82zM220 321h186q4 24 4 58q0 72 -25.5 116.5t-64.5 44.5q-47 0 -73 -62q-25 -61 -27 -157zM300 606l-7 5
l53 201h164z" />
    <glyph glyph-name="ecircumflex" unicode="&#xea;" horiz-adv-x="593" 
d="M558 142l12 -7q-99 -147 -268 -147q-121 0 -198.5 73.5t-77.5 196.5q0 134 85 216t218 82q120 0 180 -64.5t60 -165.5l-1 -21h-348q1 -245 171 -245q97 0 167 82zM220 321h186q4 24 4 58q0 72 -25.5 116.5t-64.5 44.5q-47 0 -73 -62q-25 -61 -27 -157zM503 611l-6 -5
l-175 84l-175 -84l-6 5l178 201h6z" />
    <glyph glyph-name="edieresis" unicode="&#xeb;" horiz-adv-x="593" 
d="M558 142l12 -7q-99 -147 -268 -147q-121 0 -198.5 73.5t-77.5 196.5q0 134 85 216t218 82q120 0 180 -64.5t60 -165.5l-1 -21h-348q1 -245 171 -245q97 0 167 82zM220 321h186q4 24 4 58q0 72 -25.5 116.5t-64.5 44.5q-47 0 -73 -62q-25 -61 -27 -157zM207 606l-93 93
l93 93l93 -93zM437 606l-93 93l93 93l93 -93z" />
    <glyph glyph-name="igrave" unicode="&#xec;" horiz-adv-x="292" 
d="M51 0v521l184 41h4v-562h-188zM167 606l-210 206h164l53 -201z" />
    <glyph glyph-name="iacute" unicode="&#xed;" horiz-adv-x="292" 
d="M51 0v521l184 41h4v-562h-188zM123 606l-7 5l53 201h164z" />
    <glyph glyph-name="icircumflex" unicode="&#xee;" horiz-adv-x="292" 
d="M51 0v521l184 41h4v-562h-188zM326 611l-6 -5l-175 84l-175 -84l-6 5l178 201h6z" />
    <glyph glyph-name="idieresis" unicode="&#xef;" horiz-adv-x="292" 
d="M51 0v521l184 41h4v-562h-188zM30 606l-93 93l93 93l93 -93zM260 606l-93 93l93 93l93 -93z" />
    <glyph glyph-name="eth" unicode="&#xf0;" horiz-adv-x="651" 
d="M623 294q0 -140 -86 -223t-223 -83q-128 0 -208 72.5t-80 190.5q-2 119 80.5 193t192.5 72q47 0 90 -17q-29 82 -84 140l-143 -63l-7 16l136 60q-54 54 -131 79l6 16q111 -12 205 -60l131 58l7 -16l-119 -52q108 -62 170 -164q63 -101 63 -219zM431 244q0 133 -34 232
q-41 23 -74 23q-99 0 -99 -237q0 -257 105 -257q54 0 78 67q24 68 24 172z" />
    <glyph glyph-name="ntilde" unicode="&#xf1;" horiz-adv-x="639" 
d="M590 363v-363h-188v385q0 45 -14 81t-61 36q-46 0 -88 -45v-457h-188v521l184 41h4v-85q70 79 170 79q88 0 134.5 -48.5t46.5 -144.5zM149 618l-11 3q7 72 34 113.5t67 41.5q37 0 104 -35q51 -27 76 -27q53 0 74 62l11 -3q-7 -72 -34 -113.5t-68 -41.5q-37 0 -104 35
q-53 27 -75 27q-54 0 -74 -62z" />
    <glyph glyph-name="ograve" unicode="&#xf2;" horiz-adv-x="655" 
d="M26 269q0 127 87 207t219 80q131 0 214 -76.5t83 -204.5q0 -127 -87 -207t-219 -80q-131 0 -214 76.5t-83 204.5zM431 268q0 274 -105 274q-55 0 -78.5 -66.5t-23.5 -201.5q0 -130 26.5 -201t78.5 -71q55 0 78.5 66t23.5 200zM350 606l-210 206h164l53 -201z" />
    <glyph glyph-name="oacute" unicode="&#xf3;" horiz-adv-x="655" 
d="M26 269q0 127 87 207t219 80q131 0 214 -76.5t83 -204.5q0 -127 -87 -207t-219 -80q-131 0 -214 76.5t-83 204.5zM431 268q0 274 -105 274q-55 0 -78.5 -66.5t-23.5 -201.5q0 -130 26.5 -201t78.5 -71q55 0 78.5 66t23.5 200zM306 606l-7 5l53 201h164z" />
    <glyph glyph-name="ocircumflex" unicode="&#xf4;" horiz-adv-x="655" 
d="M26 269q0 127 87 207t219 80q131 0 214 -76.5t83 -204.5q0 -127 -87 -207t-219 -80q-131 0 -214 76.5t-83 204.5zM431 268q0 274 -105 274q-55 0 -78.5 -66.5t-23.5 -201.5q0 -130 26.5 -201t78.5 -71q55 0 78.5 66t23.5 200zM509 611l-6 -5l-175 84l-175 -84l-6 5
l178 201h6z" />
    <glyph glyph-name="otilde" unicode="&#xf5;" horiz-adv-x="655" 
d="M26 269q0 127 87 207t219 80q131 0 214 -76.5t83 -204.5q0 -127 -87 -207t-219 -80q-131 0 -214 76.5t-83 204.5zM431 268q0 274 -105 274q-55 0 -78.5 -66.5t-23.5 -201.5q0 -130 26.5 -201t78.5 -71q55 0 78.5 66t23.5 200zM156 618l-11 3q7 72 34 113.5t67 41.5
q37 0 104 -35q51 -27 76 -27q53 0 74 62l11 -3q-7 -72 -34 -113.5t-68 -41.5q-37 0 -104 35q-53 27 -75 27q-54 0 -74 -62z" />
    <glyph glyph-name="odieresis" unicode="&#xf6;" horiz-adv-x="655" 
d="M26 269q0 127 87 207t219 80q131 0 214 -76.5t83 -204.5q0 -127 -87 -207t-219 -80q-131 0 -214 76.5t-83 204.5zM431 268q0 274 -105 274q-55 0 -78.5 -66.5t-23.5 -201.5q0 -130 26.5 -201t78.5 -71q55 0 78.5 66t23.5 200zM213 606l-93 93l93 93l93 -93zM443 606
l-93 93l93 93l93 -93z" />
    <glyph glyph-name="divide" unicode="&#xf7;" horiz-adv-x="508" 
d="M254 506l-41 41l41 41l41 -41zM50 354v20h408v-20h-408zM254 140l-41 41l41 41l41 -41z" />
    <glyph glyph-name="oslash" unicode="&#xf8;" horiz-adv-x="655" 
d="M629 275q0 -127 -87 -207t-219 -80q-95 0 -167 42l-62 -81l-15 11l61 80q-114 78 -114 229q0 127 87 207t219 80q95 0 167 -42l62 81l15 -11l-61 -80q114 -78 114 -229zM231 160l189 250q-24 132 -94 132q-55 0 -78.5 -66.5t-23.5 -201.5q0 -69 7 -114zM431 268
q0 71 -7 116l-189 -250q24 -132 94 -132q55 0 78.5 66t23.5 200z" />
    <glyph glyph-name="ugrave" unicode="&#xf9;" horiz-adv-x="636" 
d="M606 32l-180 -44l-29 87q-70 -87 -171 -87q-88 0 -134.5 48.5t-46.5 144.5v340l184 41h4v-403q0 -47 13 -82q14 -35 62 -35q40 0 88 54v425l184 41h4v-464zM337 606l-210 206h164l53 -201z" />
    <glyph glyph-name="uacute" unicode="&#xfa;" horiz-adv-x="636" 
d="M606 32l-180 -44l-29 87q-70 -87 -171 -87q-88 0 -134.5 48.5t-46.5 144.5v340l184 41h4v-403q0 -47 13 -82q14 -35 62 -35q40 0 88 54v425l184 41h4v-464zM293 606l-7 5l53 201h164z" />
    <glyph glyph-name="ucircumflex" unicode="&#xfb;" horiz-adv-x="636" 
d="M606 32l-180 -44l-29 87q-70 -87 -171 -87q-88 0 -134.5 48.5t-46.5 144.5v340l184 41h4v-403q0 -47 13 -82q14 -35 62 -35q40 0 88 54v425l184 41h4v-464zM496 611l-6 -5l-175 84l-175 -84l-6 5l178 201h6z" />
    <glyph glyph-name="udieresis" unicode="&#xfc;" horiz-adv-x="636" 
d="M606 32l-180 -44l-29 87q-70 -87 -171 -87q-88 0 -134.5 48.5t-46.5 144.5v340l184 41h4v-403q0 -47 13 -82q14 -35 62 -35q40 0 88 54v425l184 41h4v-464zM200 606l-93 93l93 93l93 -93zM430 606l-93 93l93 93l93 -93z" />
    <glyph glyph-name="yacute" unicode="&#xfd;" horiz-adv-x="508" 
d="M431 544h86q-30 -53 -58 -112q-36 -79 -74 -165l-12 -27l-142 -321q-68 -153 -234 -153l9 86q36 -14 71 -14q44 0 80.5 22t54.5 61l27 61l-246 562h202l145 -332l16 35q75 170 75 297zM259 606l-7 5l53 201h164z" />
    <glyph glyph-name="thorn" unicode="&#xfe;" horiz-adv-x="665" 
d="M639 285q2 -125 -80 -212t-197 -85q-68 0 -121 36v-252h-188v987l184 51h4v-336q74 82 165 82q97 2 166 -76.5t67 -194.5zM441 272q0 133 -23 184t-75 51q-51 0 -102 -58v-340q9 -48 34 -76t61 -28q105 0 105 267z" />
    <glyph glyph-name="ydieresis" unicode="&#xff;" horiz-adv-x="508" 
d="M431 544h86q-30 -53 -58 -112q-36 -79 -74 -165l-12 -27l-142 -321q-68 -153 -234 -153l9 86q36 -14 71 -14q44 0 80.5 22t54.5 61l27 61l-246 562h202l145 -332l16 35q75 170 75 297zM166 606l-93 93l93 93l93 -93zM396 606l-93 93l93 93l93 -93z" />
    <glyph glyph-name="Amacron" unicode="&#x100;" horiz-adv-x="668" 
d="M353 232h-225q-38 -102 -38 -167q0 -28 8 -65h-118q43 71 78 139q35 69 86 183l193 430h4l337 -752h-221zM162 314l-27 -64h210l-106 236zM176 832v52h327v-52h-327z" />
    <glyph glyph-name="amacron" unicode="&#x101;" horiz-adv-x="582" 
d="M574 32v-6q-19 -14 -56 -26t-78 -12q-55 0 -84 21.5t-36 55.5q-69 -75 -164 -75q-64 0 -103 37.5t-39 94.5q0 69 57.5 114t158.5 55q59 7 88 8v53q0 48 -6 80q-13 78 -108 78q-76 0 -146 -53l-9 11q49 45 100 66.5t126 21.5q117 0 174 -47.5t57 -146.5v-256
q0 -45 8 -60.5t40 -15.5q4 0 20 2zM318 83v202q-124 -22 -124 -143q0 -46 17 -70.5t45 -24.5q32 0 62 36zM99 654v52h315v-52h-315z" />
    <glyph glyph-name="Abreve" unicode="&#x102;" horiz-adv-x="668" 
d="M353 232h-225q-38 -102 -38 -167q0 -28 8 -65h-118q43 71 78 139q35 69 86 183l193 430h4l337 -752h-221zM162 314l-27 -64h210l-106 236zM162 971l9 3q22 -38 67.5 -61t100.5 -23t101 23.5t68 60.5l9 -3q-46 -175 -178 -175q-131 0 -177 175z" />
    <glyph glyph-name="abreve" unicode="&#x103;" horiz-adv-x="582" 
d="M574 32v-6q-19 -14 -56 -26t-78 -12q-55 0 -84 21.5t-36 55.5q-69 -75 -164 -75q-64 0 -103 37.5t-39 94.5q0 69 57.5 114t158.5 55q59 7 88 8v53q0 48 -6 80q-13 78 -108 78q-76 0 -146 -53l-9 11q49 45 100 66.5t126 21.5q117 0 174 -47.5t57 -146.5v-256
q0 -45 8 -60.5t40 -15.5q4 0 20 2zM318 83v202q-124 -22 -124 -143q0 -46 17 -70.5t45 -24.5q32 0 62 36zM79 793l9 3q22 -38 67.5 -61t100.5 -23t101 23.5t68 60.5l9 -3q-46 -175 -178 -175q-131 0 -177 175z" />
    <glyph glyph-name="Aogonek" unicode="&#x104;" horiz-adv-x="668" 
d="M676 -168l3 -5q-27 -31 -66.5 -48t-79.5 -17q-45 0 -69.5 20t-24.5 58q0 48 41 86t122 74h-145l-104 232h-225q-38 -102 -38 -167q0 -28 8 -65h-118q43 71 78 139q35 69 86 183l193 430h4l337 -752h-60q-37 -40 -50.5 -66.5t-13.5 -53.5q0 -64 58 -64q28 0 64 16z
M135 250h210l-106 236l-77 -172z" />
    <glyph glyph-name="aogonek" unicode="&#x105;" horiz-adv-x="582" 
d="M510 -2q-62 -67 -62 -118q0 -64 58 -64q28 0 64 16l3 -5q-27 -31 -66.5 -48t-79.5 -17q-45 0 -69.5 20t-24.5 58q0 85 142 150q-30 -2 -35 -2q-55 0 -84 21.5t-36 55.5q-69 -75 -164 -75q-64 0 -103 37.5t-39 94.5q0 69 57.5 114t158.5 55q59 7 88 8v53q0 48 -6 80
q-13 78 -108 78q-76 0 -146 -53l-9 11q49 45 100 66.5t126 21.5q117 0 174 -47.5t57 -146.5v-256q0 -45 8 -60.5t40 -15.5q4 0 20 2v-6q-25 -17 -64 -28zM318 83v202q-124 -22 -124 -143q0 -46 17 -70.5t45 -24.5q32 0 62 36z" />
    <glyph glyph-name="Cacute" unicode="&#x106;" horiz-adv-x="697" 
d="M32 355q0 176 105 280.5t273 104.5q78 0 150 -35t122 -81l-82 -75q-25 70 -77 122q-51 53 -115 53q-83 0 -120 -91q-36 -90 -36 -235q0 -168 57 -253t160 -85q136 0 211 109l12 -7q-49 -83 -130 -128.5t-181 -45.5q-152 -2 -251.5 103t-97.5 264zM380 784l-7 5l49 191
h178z" />
    <glyph glyph-name="cacute" unicode="&#x107;" horiz-adv-x="544" 
d="M27 262q0 131 85 212.5t211 81.5q124 0 208 -86l-58 -52q-39 67 -65 93q-27 29 -68 29q-55 0 -84 -60t-29 -171q0 -249 150 -249q84 0 149 84l12 -7q-99 -149 -247 -149q-113 0 -188.5 75.5t-75.5 198.5zM297 606l-7 5l53 201h164z" />
    <glyph glyph-name="Ccircumflex" unicode="&#x108;" horiz-adv-x="697" 
d="M32 355q0 176 105 280.5t273 104.5q78 0 150 -35t122 -81l-82 -75q-25 70 -77 122q-51 53 -115 53q-83 0 -120 -91q-36 -90 -36 -235q0 -168 57 -253t160 -85q136 0 211 109l12 -7q-49 -83 -130 -128.5t-181 -45.5q-152 -2 -251.5 103t-97.5 264zM583 789l-6 -5l-175 75
l-175 -75l-6 5l178 191h6z" />
    <glyph glyph-name="ccircumflex" unicode="&#x109;" horiz-adv-x="544" 
d="M27 262q0 131 85 212.5t211 81.5q124 0 208 -86l-58 -52q-39 67 -65 93q-27 29 -68 29q-55 0 -84 -60t-29 -171q0 -249 150 -249q84 0 149 84l12 -7q-99 -149 -247 -149q-113 0 -188.5 75.5t-75.5 198.5zM500 611l-6 -5l-175 84l-175 -84l-6 5l178 201h6z" />
    <glyph glyph-name="Cdotaccent" unicode="&#x10a;" horiz-adv-x="697" 
d="M32 355q0 176 105 280.5t273 104.5q78 0 150 -35t122 -81l-82 -75q-25 70 -77 122q-51 53 -115 53q-83 0 -120 -91q-36 -90 -36 -235q0 -168 57 -253t160 -85q136 0 211 109l12 -7q-49 -83 -130 -128.5t-181 -45.5q-152 -2 -251.5 103t-97.5 264zM402 784l-112 112
l112 112l112 -112z" />
    <glyph glyph-name="cdotaccent" unicode="&#x10b;" horiz-adv-x="544" 
d="M27 262q0 131 85 212.5t211 81.5q124 0 208 -86l-58 -52q-39 67 -65 93q-27 29 -68 29q-55 0 -84 -60t-29 -171q0 -249 150 -249q84 0 149 84l12 -7q-99 -149 -247 -149q-113 0 -188.5 75.5t-75.5 198.5zM319 606l-112 112l112 112l112 -112z" />
    <glyph glyph-name="Ccaron" unicode="&#x10c;" horiz-adv-x="697" 
d="M32 355q0 176 105 280.5t273 104.5q78 0 150 -35t122 -81l-82 -75q-25 70 -77 122q-51 53 -115 53q-83 0 -120 -91q-36 -90 -36 -235q0 -168 57 -253t160 -85q136 0 211 109l12 -7q-49 -83 -130 -128.5t-181 -45.5q-152 -2 -251.5 103t-97.5 264zM577 980l6 -5l-178 -191
h-6l-178 191l6 5l175 -75z" />
    <glyph glyph-name="ccaron" unicode="&#x10d;" horiz-adv-x="544" 
d="M27 262q0 131 85 212.5t211 81.5q124 0 208 -86l-58 -52q-39 67 -65 93q-27 29 -68 29q-55 0 -84 -60t-29 -171q0 -249 150 -249q84 0 149 84l12 -7q-99 -149 -247 -149q-113 0 -188.5 75.5t-75.5 198.5zM494 812l6 -5l-178 -201h-6l-178 201l6 5l175 -84z" />
    <glyph glyph-name="Dcaron" unicode="&#x10e;" horiz-adv-x="811" 
d="M779 369q0 -175 -123.5 -272t-346.5 -97h-245v728h284q194 0 312.5 -94t118.5 -265zM559 367q0 158 -57 251q-55 94 -160 94h-76v-687q21 -9 82 -9q104 0 157.5 90t53.5 261zM537 980l6 -5l-178 -191h-6l-178 191l6 5l175 -75z" />
    <glyph glyph-name="dcaron" unicode="&#x10f;" horiz-adv-x="687" 
d="M634 32l-180 -44l-28 84q-76 -84 -167 -84q-97 -2 -166 76.5t-67 194.5q-2 125 80 212t197 85q69 0 121 -36v239l184 51h4v-712zM424 95v340q-9 48 -34 76t-61 28q-105 0 -105 -267q0 -132 24 -182t78 -50q51 0 98 55zM670 606l-5 5q25 12 43 35t18 46q0 54 -74 72l61 75
q44 -9 70.5 -37t26.5 -67q0 -47 -44 -80q-46 -33 -96 -49z" />
    <glyph glyph-name="Dcroat" unicode="&#x110;" horiz-adv-x="817" 
d="M785 369q0 -175 -123.5 -272t-346.5 -97h-245v371h-62v14h62v343h284q194 0 312.5 -94t118.5 -265zM565 367q0 158 -57 251q-55 94 -160 94h-76v-327h144v-14h-144v-346q21 -9 82 -9q104 0 157.5 90t53.5 261z" />
    <glyph glyph-name="dslash" unicode="&#x111;" horiz-adv-x="663" 
d="M674 662h-62v-564l22 -66l-180 -44l-28 84q-76 -84 -167 -84q-97 -2 -166 76.5t-67 194.5q-2 125 80 212t197 85q69 0 121 -36v142h-119v14h119v83l184 51h4v-134h62v-14zM424 95v340q-9 48 -34 76t-61 28q-105 0 -105 -267q0 -132 24 -182t78 -50q51 0 98 55z" />
    <glyph glyph-name="Emacron" unicode="&#x112;" horiz-adv-x="588" 
d="M566 124h2l-24 -124h-480v728h472l14 -114h-2q-110 96 -252 96h-30v-322h10q80 0 134.5 13t67.5 35h2v-122h-2q-14 25 -69 40.5t-133 15.5h-10v-352h37q147 0 263 106zM147 832v52h327v-52h-327z" />
    <glyph glyph-name="emacron" unicode="&#x113;" horiz-adv-x="593" 
d="M558 142l12 -7q-99 -147 -268 -147q-121 0 -198.5 73.5t-77.5 196.5q0 134 85 216t218 82q120 0 180 -64.5t60 -165.5l-1 -21h-348q1 -245 171 -245q97 0 167 82zM220 321h186q4 24 4 58q0 72 -25.5 116.5t-64.5 44.5q-47 0 -73 -62q-25 -61 -27 -157zM165 654v52h315
v-52h-315z" />
    <glyph glyph-name="Ebreve" unicode="&#x114;" horiz-adv-x="588" 
d="M566 124h2l-24 -124h-480v728h472l14 -114h-2q-110 96 -252 96h-30v-322h10q80 0 134.5 13t67.5 35h2v-122h-2q-14 25 -69 40.5t-133 15.5h-10v-352h37q147 0 263 106zM133 971l9 3q22 -38 67.5 -61t100.5 -23t101 23.5t68 60.5l9 -3q-46 -175 -178 -175q-131 0 -177 175
z" />
    <glyph glyph-name="ebreve" unicode="&#x115;" horiz-adv-x="593" 
d="M558 142l12 -7q-99 -147 -268 -147q-121 0 -198.5 73.5t-77.5 196.5q0 134 85 216t218 82q120 0 180 -64.5t60 -165.5l-1 -21h-348q1 -245 171 -245q97 0 167 82zM220 321h186q4 24 4 58q0 72 -25.5 116.5t-64.5 44.5q-47 0 -73 -62q-25 -61 -27 -157zM145 793l9 3
q22 -38 67.5 -61t100.5 -23t101 23.5t68 60.5l9 -3q-46 -175 -178 -175q-131 0 -177 175z" />
    <glyph glyph-name="Edotaccent" unicode="&#x116;" horiz-adv-x="588" 
d="M566 124h2l-24 -124h-480v728h472l14 -114h-2q-110 96 -252 96h-30v-322h10q80 0 134.5 13t67.5 35h2v-122h-2q-14 25 -69 40.5t-133 15.5h-10v-352h37q147 0 263 106zM310 784l-112 112l112 112l112 -112z" />
    <glyph glyph-name="edotaccent" unicode="&#x117;" horiz-adv-x="593" 
d="M558 142l12 -7q-99 -147 -268 -147q-121 0 -198.5 73.5t-77.5 196.5q0 134 85 216t218 82q120 0 180 -64.5t60 -165.5l-1 -21h-348q1 -245 171 -245q97 0 167 82zM220 321h186q4 24 4 58q0 72 -25.5 116.5t-64.5 44.5q-47 0 -73 -62q-25 -61 -27 -157zM322 606l-112 112
l112 112l112 -112z" />
    <glyph glyph-name="Eogonek" unicode="&#x118;" horiz-adv-x="588" 
d="M554 -168l3 -5q-27 -31 -66.5 -48t-79.5 -17q-45 0 -69.5 20t-24.5 58q0 48 41 86t122 74h-416v728h472l14 -114h-2q-110 96 -252 96h-30v-322h10q80 0 134.5 13t67.5 35h2v-122h-2q-14 25 -69 40.5t-133 15.5h-10v-352h37q147 0 263 106h2l-24 -124h-48
q-37 -40 -50.5 -66.5t-13.5 -53.5q0 -64 58 -64q28 0 64 16z" />
    <glyph glyph-name="eogonek" unicode="&#x119;" horiz-adv-x="593" 
d="M384 -122q0 -62 58 -62q28 0 64 16l3 -5q-27 -31 -66.5 -48t-79.5 -17q-43 0 -68.5 20t-25.5 54q0 74 140 169q-49 -17 -105 -17q-123 0 -200.5 73.5t-77.5 199.5q0 132 85 213.5t219 81.5q119 0 179 -64.5t60 -165.5l-1 -21h-348q1 -245 171 -245q97 0 167 82l12 -7
q-31 -45 -87 -94q-99 -89 -99 -163zM220 321h186q4 24 4 58q0 72 -25.5 116.5t-64.5 44.5q-47 0 -73 -62q-25 -61 -27 -157z" />
    <glyph glyph-name="Ecaron" unicode="&#x11a;" horiz-adv-x="588" 
d="M566 124h2l-24 -124h-480v728h472l14 -114h-2q-110 96 -252 96h-30v-322h10q80 0 134.5 13t67.5 35h2v-122h-2q-14 25 -69 40.5t-133 15.5h-10v-352h37q147 0 263 106zM485 980l6 -5l-178 -191h-6l-178 191l6 5l175 -75z" />
    <glyph glyph-name="ecaron" unicode="&#x11b;" horiz-adv-x="593" 
d="M558 142l12 -7q-99 -147 -268 -147q-121 0 -198.5 73.5t-77.5 196.5q0 134 85 216t218 82q120 0 180 -64.5t60 -165.5l-1 -21h-348q1 -245 171 -245q97 0 167 82zM220 321h186q4 24 4 58q0 72 -25.5 116.5t-64.5 44.5q-47 0 -73 -62q-25 -61 -27 -157zM497 812l6 -5
l-178 -201h-6l-178 201l6 5l175 -84z" />
    <glyph glyph-name="Gcircumflex" unicode="&#x11c;" horiz-adv-x="776" 
d="M426 330h314v-264q-119 -78 -283 -78q-200 0 -312.5 96.5t-112.5 274.5q-2 171 113.5 277t292.5 104q81 0 156 -32t130 -84l-82 -75q-26 72 -78 123q-52 52 -130 52q-96 0 -139 -90t-43 -268q0 -162 55.5 -261t152.5 -99q60 0 100 14v292h-123zM619 789l-6 -5l-175 75
l-175 -75l-6 5l178 191h6z" />
    <glyph glyph-name="gcircumflex" unicode="&#x11d;" horiz-adv-x="616" 
d="M524 498q-23 0 -37 -8q53 -50 53 -124q0 -85 -73.5 -138.5t-184.5 -53.5q-66 0 -120 19l-12 -8q-18 -12 -18 -31q0 -13 13 -22.5t41 -10.5l205 -11q197 -10 197 -140q2 -95 -98.5 -153t-238.5 -57q-106 0 -181 34q-75 33 -75 97q0 19 9 43l99 28h4q-11 -38 -11 -63
q0 -58 40.5 -90.5t114.5 -32.5q105 0 171 32t66 84q0 35 -33 52.5t-112 21.5l-183 10q-61 3 -90 30.5t-29 71.5q0 34 22 61t71 55l11 6q-114 51 -114 163q0 85 74 138.5t185 53.5q115 0 183 -53q36 92 139 92l-14 -118q-41 22 -74 22zM373 362q0 178 -88 178
q-47 0 -66.5 -42t-19.5 -132q0 -177 88 -177q46 0 66 42t20 131zM467 611l-6 -5l-175 84l-175 -84l-6 5l178 201h6z" />
    <glyph glyph-name="Gbreve" unicode="&#x11e;" horiz-adv-x="776" 
d="M426 330h314v-264q-119 -78 -283 -78q-200 0 -312.5 96.5t-112.5 274.5q-2 171 113.5 277t292.5 104q81 0 156 -32t130 -84l-82 -75q-26 72 -78 123q-52 52 -130 52q-96 0 -139 -90t-43 -268q0 -162 55.5 -261t152.5 -99q60 0 100 14v292h-123zM261 971l9 3
q22 -38 67.5 -61t100.5 -23t101 23.5t68 60.5l9 -3q-46 -175 -178 -175q-131 0 -177 175z" />
    <glyph glyph-name="gbreve" unicode="&#x11f;" horiz-adv-x="616" 
d="M524 498q-23 0 -37 -8q53 -50 53 -124q0 -85 -73.5 -138.5t-184.5 -53.5q-66 0 -120 19l-12 -8q-18 -12 -18 -31q0 -13 13 -22.5t41 -10.5l205 -11q197 -10 197 -140q2 -95 -98.5 -153t-238.5 -57q-106 0 -181 34q-75 33 -75 97q0 19 9 43l99 28h4q-11 -38 -11 -63
q0 -58 40.5 -90.5t114.5 -32.5q105 0 171 32t66 84q0 35 -33 52.5t-112 21.5l-183 10q-61 3 -90 30.5t-29 71.5q0 34 22 61t71 55l11 6q-114 51 -114 163q0 85 74 138.5t185 53.5q115 0 183 -53q36 92 139 92l-14 -118q-41 22 -74 22zM373 362q0 178 -88 178
q-47 0 -66.5 -42t-19.5 -132q0 -177 88 -177q46 0 66 42t20 131zM109 793l9 3q22 -38 67.5 -61t100.5 -23t101 23.5t68 60.5l9 -3q-46 -175 -178 -175q-131 0 -177 175z" />
    <glyph glyph-name="Gdotaccent" unicode="&#x120;" horiz-adv-x="776" 
d="M426 330h314v-264q-119 -78 -283 -78q-200 0 -312.5 96.5t-112.5 274.5q-2 171 113.5 277t292.5 104q81 0 156 -32t130 -84l-82 -75q-26 72 -78 123q-52 52 -130 52q-96 0 -139 -90t-43 -268q0 -162 55.5 -261t152.5 -99q60 0 100 14v292h-123zM438 784l-112 112l112 112
l112 -112z" />
    <glyph glyph-name="gdotaccent" unicode="&#x121;" horiz-adv-x="616" 
d="M524 498q-23 0 -37 -8q53 -50 53 -124q0 -85 -73.5 -138.5t-184.5 -53.5q-66 0 -120 19l-12 -8q-18 -12 -18 -31q0 -13 13 -22.5t41 -10.5l205 -11q197 -10 197 -140q2 -95 -98.5 -153t-238.5 -57q-106 0 -181 34q-75 33 -75 97q0 19 9 43l99 28h4q-11 -38 -11 -63
q0 -58 40.5 -90.5t114.5 -32.5q105 0 171 32t66 84q0 35 -33 52.5t-112 21.5l-183 10q-61 3 -90 30.5t-29 71.5q0 34 22 61t71 55l11 6q-114 51 -114 163q0 85 74 138.5t185 53.5q115 0 183 -53q36 92 139 92l-14 -118q-41 22 -74 22zM373 362q0 178 -88 178
q-47 0 -66.5 -42t-19.5 -132q0 -177 88 -177q46 0 66 42t20 131zM286 606l-112 112l112 112l112 -112z" />
    <glyph glyph-name="uni0122" unicode="&#x122;" horiz-adv-x="776" 
d="M426 330h314v-264q-119 -78 -283 -78q-200 0 -312.5 96.5t-112.5 274.5q-2 171 113.5 277t292.5 104q81 0 156 -32t130 -84l-82 -75q-26 72 -78 123q-52 52 -130 52q-96 0 -139 -90t-43 -268q0 -162 55.5 -261t152.5 -99q60 0 100 14v292h-123zM407 -283l-5 5
q25 12 43 35t18 46q0 52 -74 72l61 75q44 -9 70.5 -37t26.5 -67q0 -47 -44 -79q-45 -34 -96 -50z" />
    <glyph glyph-name="uni0123" unicode="&#x123;" horiz-adv-x="616" 
d="M524 498q-23 0 -37 -8q53 -50 53 -124q0 -85 -73.5 -138.5t-184.5 -53.5q-66 0 -120 19l-12 -8q-18 -12 -18 -31q0 -13 13 -22.5t41 -10.5l205 -11q197 -10 197 -140q2 -95 -98.5 -153t-238.5 -57q-106 0 -181 34q-75 33 -75 97q0 19 9 43l99 28h4q-11 -38 -11 -63
q0 -58 40.5 -90.5t114.5 -32.5q105 0 171 32t66 84q0 35 -33 52.5t-112 21.5l-183 10q-61 3 -90 30.5t-29 71.5q0 34 22 61t71 55l11 6q-114 51 -114 163q0 85 74 138.5t185 53.5q115 0 183 -53q36 92 139 92l-14 -118q-41 22 -74 22zM373 362q0 178 -88 178
q-47 0 -66.5 -42t-19.5 -132q0 -177 88 -177q46 0 66 42t20 131zM202 710q0 48 43 79q44 33 97 50l5 -5q-25 -12 -43 -35t-18 -46q0 -52 74 -72l-61 -75q-44 9 -70.5 37t-26.5 67z" />
    <glyph glyph-name="Hcircumflex" unicode="&#x124;" horiz-adv-x="784" 
d="M518 728h202v-728h-202v370h-252v-370h-202v728h202v-340h252v340zM573 789l-6 -5l-175 75l-175 -75l-6 5l178 191h6z" />
    <glyph glyph-name="hcircumflex" unicode="&#x125;" horiz-adv-x="641" 
d="M592 363v-363h-188v385q0 45 -14 81t-61 36q-46 0 -88 -45v-457h-188v759l184 51h4v-333q70 79 170 79q88 0 134.5 -48.5t46.5 -144.5zM342 789l-6 -5l-175 75l-175 -75l-6 5l178 191h6z" />
    <glyph glyph-name="Hbar" unicode="&#x126;" horiz-adv-x="792" 
d="M786 578v-14h-62v-564h-202v370h-252v-370h-202v564h-62v14h62v150h202v-150h252v150h202v-150h62zM522 388v176h-252v-176h252z" />
    <glyph glyph-name="hbar" unicode="&#x127;" horiz-adv-x="641" 
d="M592 363v-363h-188v385q0 45 -14 81t-61 36q-46 0 -88 -45v-457h-188v662h-62v14h62v83l184 51h4v-134h119v-14h-119v-185q70 79 170 79q88 0 134.5 -48.5t46.5 -144.5z" />
    <glyph glyph-name="Itilde" unicode="&#x128;" horiz-adv-x="330" 
d="M64 0v728h202v-728h-202zM-7 796l-11 3q7 72 34 113.5t67 41.5q37 0 104 -35q51 -27 76 -27q53 0 74 62l11 -3q-7 -72 -34 -113.5t-68 -41.5q-37 0 -104 35q-53 27 -75 27q-54 0 -74 -62z" />
    <glyph glyph-name="itilde" unicode="&#x129;" horiz-adv-x="292" 
d="M51 0v521l184 41h4v-562h-188zM-27 618l-11 3q7 72 34 113.5t67 41.5q37 0 104 -35q51 -27 76 -27q53 0 74 62l11 -3q-7 -72 -34 -113.5t-68 -41.5q-37 0 -104 35q-53 27 -75 27q-54 0 -74 -62z" />
    <glyph glyph-name="Imacron" unicode="&#x12a;" horiz-adv-x="330" 
d="M64 0v728h202v-728h-202zM2 832v52h327v-52h-327z" />
    <glyph glyph-name="imacron" unicode="&#x12b;" horiz-adv-x="292" 
d="M51 0v521l184 41h4v-562h-188zM-12 654v52h315v-52h-315z" />
    <glyph glyph-name="Ibreve" unicode="&#x12c;" horiz-adv-x="330" 
d="M64 0v728h202v-728h-202zM-12 971l9 3q22 -38 67.5 -61t100.5 -23t101 23.5t68 60.5l9 -3q-46 -175 -178 -175q-131 0 -177 175z" />
    <glyph glyph-name="ibreve" unicode="&#x12d;" horiz-adv-x="292" 
d="M51 0v521l184 41h4v-562h-188zM-32 793l9 3q22 -38 67.5 -61t100.5 -23t101 23.5t68 60.5l9 -3q-46 -175 -178 -175q-131 0 -177 175z" />
    <glyph glyph-name="Iogonek" unicode="&#x12e;" horiz-adv-x="330" 
d="M273 -168l3 -5q-27 -31 -66.5 -48t-79.5 -17q-45 0 -69.5 20t-24.5 58q0 48 41 86t122 74h-135v728h202v-728h-51q-37 -40 -50.5 -66.5t-13.5 -53.5q0 -64 58 -64q28 0 64 16z" />
    <glyph glyph-name="iogonek" unicode="&#x12f;" horiz-adv-x="292" 
d="M257 718l-112 -112l-112 112l112 112zM253 -168l3 -5q-27 -31 -66.5 -48t-79.5 -17q-45 0 -69.5 20t-24.5 58q0 48 41 86t122 74h-128v521l184 41h4v-562h-44q-37 -40 -50.5 -66.5t-13.5 -53.5q0 -64 58 -64q28 0 64 16z" />
    <glyph glyph-name="Idot" unicode="&#x130;" horiz-adv-x="330" 
d="M64 0v728h202v-728h-202zM165 784l-112 112l112 112l112 -112z" />
    <glyph glyph-name="dotlessi" unicode="&#x131;" horiz-adv-x="292" 
d="M51 0v521l184 41h4v-562h-188z" />
    <glyph glyph-name="IJ" unicode="&#x132;" horiz-adv-x="660" 
d="M64 0v728h202v-728h-202zM256 -150l-7 12q66 42 97 87q32 47 42 108q10 59 10 163v508h202v-500q0 -114 -52 -188q-47 -70 -116.5 -112t-175.5 -78z" />
    <glyph glyph-name="ij" unicode="&#x133;" horiz-adv-x="588" 
d="M145 606l-112 112l112 112l112 -112zM51 0v521l184 41h4v-562h-188zM441 606l-112 112l112 112l112 -112zM225 -228l-4 12q59 16 92.5 79.5t33.5 156.5v501l184 41h4v-522q1 -59 -28.5 -109t-78 -81.5t-100 -51t-103.5 -26.5z" />
    <glyph glyph-name="Jcircumflex" unicode="&#x134;" horiz-adv-x="332" 
d="M-72 -150l-7 12q66 42 97 87q32 47 42 108q10 59 10 163v508h202v-500q0 -114 -52 -188q-47 -70 -116.5 -112t-175.5 -78zM352 789l-6 -5l-175 75l-175 -75l-6 5l178 191h6z" />
    <glyph glyph-name="jcircumflex" unicode="&#x135;" horiz-adv-x="300" 
d="M-63 -228l-4 12q59 16 92.5 79.5t33.5 156.5v501l184 41h4v-522q1 -59 -28.5 -109t-78 -81.5t-100 -51t-103.5 -26.5zM334 611l-6 -5l-175 84l-175 -84l-6 5l178 201h6z" />
    <glyph glyph-name="uni0136" unicode="&#x136;" horiz-adv-x="728" 
d="M64 0v728h202v-728h-202zM435 493l-7 -6l278 -279v-250h-10l-413 415l139 136q81 81 113 125q36 48 49 94h122v-2q-58 -38 -125 -95q-64 -56 -146 -138zM323 -283l-5 5q25 12 43 35t18 46q0 52 -74 72l61 75q44 -9 70.5 -37t26.5 -67q0 -47 -44 -79q-45 -34 -96 -50z" />
    <glyph glyph-name="uni0137" unicode="&#x137;" horiz-adv-x="604" 
d="M53 759l184 51h4v-810h-188v759zM582 544v-2q-104 -63 -181 -130l179 -200v-254h-6l-316 355l89 78q56 49 92 85q34 35 55 68h88zM261 -283l-5 5q25 12 43 35t18 46q0 52 -74 72l61 75q44 -9 70.5 -37t26.5 -67q0 -47 -44 -79q-45 -34 -96 -50z" />
    <glyph glyph-name="kgreenlandic" unicode="&#x138;" horiz-adv-x="602" 
d="M51 521l184 41h4v-562h-188v521zM580 544v-2q-104 -63 -181 -130l179 -200v-254h-6l-316 355l89 78q56 49 92 85q34 35 55 68h88z" />
    <glyph glyph-name="Lacute" unicode="&#x139;" horiz-adv-x="521" 
d="M506 150h2l-26 -150h-418v728h202v-710h10q51 0 103 28q55 29 127 104zM143 784l-7 5l49 191h178z" />
    <glyph glyph-name="lacute" unicode="&#x13a;" horiz-adv-x="294" 
d="M53 0v759l184 51h4v-810h-188zM125 784l-7 5l49 191h178z" />
    <glyph glyph-name="uni013B" unicode="&#x13b;" horiz-adv-x="521" 
d="M506 150h2l-26 -150h-418v728h202v-710h10q51 0 103 28q55 29 127 104zM224 -283l-5 5q25 12 43 35t18 46q0 52 -74 72l61 75q44 -9 70.5 -37t26.5 -67q0 -47 -44 -79q-45 -34 -96 -50z" />
    <glyph glyph-name="uni013C" unicode="&#x13c;" horiz-adv-x="294" 
d="M53 0v759l184 51h4v-810h-188zM91 -283l-5 5q25 12 43 35t18 46q0 52 -74 72l61 75q44 -9 70.5 -37t26.5 -67q0 -47 -44 -79q-45 -34 -96 -50z" />
    <glyph glyph-name="Lcaron" unicode="&#x13d;" horiz-adv-x="533" 
d="M506 150h2l-26 -150h-418v728h202v-710h10q51 0 103 28q55 29 127 104zM353 544l-5 5q25 12 43 35t18 46q0 54 -74 72l61 75q44 -9 70.5 -37t26.5 -67q0 -47 -44 -80q-46 -33 -96 -49z" />
    <glyph glyph-name="lcaron" unicode="&#x13e;" horiz-adv-x="318" 
d="M53 0v759l184 51h4v-810h-188zM299 606l-5 5q25 12 43 35t18 46q0 54 -74 72l61 75q44 -9 70.5 -37t26.5 -67q0 -47 -44 -80q-46 -33 -96 -49z" />
    <glyph glyph-name="Ldot" unicode="&#x13f;" horiz-adv-x="551" 
d="M506 150h2l-26 -150h-418v728h202v-710h10q51 0 103 28q55 29 127 104zM423 338l-112 112l112 112l112 -112z" />
    <glyph glyph-name="ldot" unicode="&#x140;" horiz-adv-x="510" 
d="M53 0v759l184 51h4v-810h-188zM401 278l-112 112l112 112l112 -112z" />
    <glyph glyph-name="Lslash" unicode="&#x141;" horiz-adv-x="535" 
d="M520 150h2l-26 -150h-418v255l-55 -32l-7 12l62 36v457h202v-341l127 73l7 -12l-134 -77v-353h10q51 0 103 28q55 29 127 104z" />
    <glyph glyph-name="lslash" unicode="&#x142;" horiz-adv-x="336" 
d="M324 486l-62 -36v-450h-188v343l-55 -32l-7 12l62 36v400l184 51h4v-344l55 32z" />
    <glyph glyph-name="Nacute" unicode="&#x143;" horiz-adv-x="698" 
d="M566 728h100q-40 -132 -40 -318v-422h-16l-494 610v-280q0 -186 40 -318h-100q40 132 40 318v305l-83 102v3h241l352 -438v120q0 186 -40 318zM332 784l-7 5l49 191h178z" />
    <glyph glyph-name="nacute" unicode="&#x144;" horiz-adv-x="639" 
d="M590 363v-363h-188v385q0 45 -14 81t-61 36q-46 0 -88 -45v-457h-188v521l184 41h4v-85q70 79 170 79q88 0 134.5 -48.5t46.5 -144.5zM299 606l-7 5l53 201h164z" />
    <glyph glyph-name="uni0145" unicode="&#x145;" horiz-adv-x="698" 
d="M566 728h100q-40 -132 -40 -318v-422h-16l-494 610v-280q0 -186 40 -318h-100q40 132 40 318v305l-83 102v3h241l352 -438v120q0 186 -40 318zM298 -283l-5 5q25 12 43 35t18 46q0 52 -74 72l61 75q44 -9 70.5 -37t26.5 -67q0 -47 -44 -79q-45 -34 -96 -50z" />
    <glyph glyph-name="uni0146" unicode="&#x146;" horiz-adv-x="639" 
d="M590 363v-363h-188v385q0 45 -14 81t-61 36q-46 0 -88 -45v-457h-188v521l184 41h4v-85q70 79 170 79q88 0 134.5 -48.5t46.5 -144.5zM265 -283l-5 5q25 12 43 35t18 46q0 52 -74 72l61 75q44 -9 70.5 -37t26.5 -67q0 -47 -44 -79q-45 -34 -96 -50z" />
    <glyph glyph-name="Ncaron" unicode="&#x147;" horiz-adv-x="698" 
d="M566 728h100q-40 -132 -40 -318v-422h-16l-494 610v-280q0 -186 40 -318h-100q40 132 40 318v305l-83 102v3h241l352 -438v120q0 186 -40 318zM529 980l6 -5l-178 -191h-6l-178 191l6 5l175 -75z" />
    <glyph glyph-name="ncaron" unicode="&#x148;" horiz-adv-x="639" 
d="M590 363v-363h-188v385q0 45 -14 81t-61 36q-46 0 -88 -45v-457h-188v521l184 41h4v-85q70 79 170 79q88 0 134.5 -48.5t46.5 -144.5zM496 812l6 -5l-178 -201h-6l-178 201l6 5l175 -84z" />
    <glyph glyph-name="napostrophe" unicode="&#x149;" horiz-adv-x="717" 
d="M668 363v-363h-188v385q0 45 -14 81t-61 36q-46 0 -88 -45v-457h-188v517q-47 -58 -150 -101l-5 7q71 39 71 108q0 34 -25.5 66.5t-65.5 53.5l72 109q60 -13 98.5 -55t38.5 -99q0 -44 -30 -84l180 40h4v-85q70 79 170 79q88 0 134.5 -48.5t46.5 -144.5z" />
    <glyph glyph-name="Eng" unicode="&#x14a;" horiz-adv-x="698" 
d="M566 728h100q-40 -132 -40 -318v-445q0 -82 -36.5 -131.5t-105.5 -61.5l-4 12q61 11 93.5 57t32.5 124v28l-490 605v-280q0 -186 40 -318h-100q40 132 40 318v305l-83 102v3h241l352 -438v120q0 186 -40 318z" />
    <glyph glyph-name="eng" unicode="&#x14b;" horiz-adv-x="639" 
d="M590 363v-323q1 -59 -28.5 -109t-78 -81.5t-100 -51t-103.5 -26.5l-4 12q59 16 92.5 79.5t33.5 156.5v365q0 45 -14 81t-61 36q-46 0 -88 -45v-457h-188v521l184 41h4v-85q70 79 170 79q88 0 134.5 -48.5t46.5 -144.5z" />
    <glyph glyph-name="Omacron" unicode="&#x14c;" horiz-adv-x="854" 
d="M32 356q0 175 111 279.5t291 104.5q173 0 280.5 -98t107.5 -270q0 -175 -111 -279.5t-291 -104.5q-173 0 -280.5 98t-107.5 270zM602 360q0 175 -44.5 269.5t-132.5 94.5q-93 0 -133 -88.5t-40 -267.5q0 -174 45 -269t134 -95q91 0 131 88.5t40 267.5zM264 832v52h327
v-52h-327z" />
    <glyph glyph-name="omacron" unicode="&#x14d;" horiz-adv-x="655" 
d="M26 269q0 127 87 207t219 80q131 0 214 -76.5t83 -204.5q0 -127 -87 -207t-219 -80q-131 0 -214 76.5t-83 204.5zM431 268q0 274 -105 274q-55 0 -78.5 -66.5t-23.5 -201.5q0 -130 26.5 -201t78.5 -71q55 0 78.5 66t23.5 200zM171 654v52h315v-52h-315z" />
    <glyph glyph-name="Obreve" unicode="&#x14e;" horiz-adv-x="854" 
d="M32 356q0 175 111 279.5t291 104.5q173 0 280.5 -98t107.5 -270q0 -175 -111 -279.5t-291 -104.5q-173 0 -280.5 98t-107.5 270zM602 360q0 175 -44.5 269.5t-132.5 94.5q-93 0 -133 -88.5t-40 -267.5q0 -174 45 -269t134 -95q91 0 131 88.5t40 267.5zM250 971l9 3
q22 -38 67.5 -61t100.5 -23t101 23.5t68 60.5l9 -3q-46 -175 -178 -175q-131 0 -177 175z" />
    <glyph glyph-name="obreve" unicode="&#x14f;" horiz-adv-x="655" 
d="M26 269q0 127 87 207t219 80q131 0 214 -76.5t83 -204.5q0 -127 -87 -207t-219 -80q-131 0 -214 76.5t-83 204.5zM431 268q0 274 -105 274q-55 0 -78.5 -66.5t-23.5 -201.5q0 -130 26.5 -201t78.5 -71q55 0 78.5 66t23.5 200zM151 793l9 3q22 -38 67.5 -61t100.5 -23
t101 23.5t68 60.5l9 -3q-46 -175 -178 -175q-131 0 -177 175z" />
    <glyph glyph-name="Ohungarumlaut" unicode="&#x150;" horiz-adv-x="854" 
d="M32 356q0 175 111 279.5t291 104.5q173 0 280.5 -98t107.5 -270q0 -175 -111 -279.5t-291 -104.5q-173 0 -280.5 98t-107.5 270zM602 360q0 175 -44.5 269.5t-132.5 94.5q-93 0 -133 -88.5t-40 -267.5q0 -174 45 -269t134 -95q91 0 131 88.5t40 267.5zM325 784l-7 5
l57 191h150zM495 784l-7 5l57 191h150z" />
    <glyph glyph-name="ohungarumlaut" unicode="&#x151;" horiz-adv-x="655" 
d="M26 269q0 127 87 207t219 80q131 0 214 -76.5t83 -204.5q0 -127 -87 -207t-219 -80q-131 0 -214 76.5t-83 204.5zM431 268q0 274 -105 274q-55 0 -78.5 -66.5t-23.5 -201.5q0 -130 26.5 -201t78.5 -71q55 0 78.5 66t23.5 200zM226 606l-7 5l57 201h150zM396 606l-7 5
l57 201h150z" />
    <glyph glyph-name="OE" unicode="&#x152;" horiz-adv-x="1068" 
d="M1046 124h2l-24 -124h-562q-194 0 -312.5 94t-118.5 265q0 175 123.5 272t346.5 97h515l14 -114h-2q-110 96 -252 96h-30v-322h10q80 0 134.5 13t67.5 35h2v-122h-2q-14 25 -69 40.5t-133 15.5h-10v-352h37q147 0 263 106zM468 16q55 0 76 9v678q-21 9 -82 9
q-104 0 -157.5 -90t-53.5 -261q0 -157 56 -252q57 -93 161 -93z" />
    <glyph glyph-name="oe" unicode="&#x153;" horiz-adv-x="998" 
d="M963 142l12 -7q-99 -147 -268 -147q-115 0 -185 67q-79 -67 -199 -67q-131 0 -214 76.5t-83 204.5q0 127 87 207t219 80q127 0 201 -71q77 71 201 71q120 0 180 -64.5t60 -165.5l-1 -21h-348q1 -245 171 -245q97 0 167 82zM431 268q0 274 -105 274q-55 0 -78.5 -66.5
t-23.5 -201.5q0 -130 26.5 -201t78.5 -71q55 0 78.5 66t23.5 200zM625 321h186q4 24 4 58q0 72 -25.5 116.5t-64.5 44.5q-47 0 -73 -62q-25 -61 -27 -157z" />
    <glyph glyph-name="Racute" unicode="&#x154;" horiz-adv-x="700" 
d="M477 373l189 -186v-229h-10l-344 358q-18 18 -40 18h-6v-334h-202v728h267q323 0 323 -178q0 -125 -177 -177zM462 540q0 82 -36.5 127t-106.5 45h-53v-357q33 -5 64 -5q60 0 96 54q36 56 36 136zM323 784l-7 5l49 191h178z" />
    <glyph glyph-name="racute" unicode="&#x155;" horiz-adv-x="427" 
d="M431 550l-48 -134q-27 13 -52 13q-37 0 -62.5 -27t-29.5 -72v-330h-188v521l178 41h4v-196h2q10 85 52.5 137.5t100.5 52.5q19 0 43 -6zM219 606l-7 5l53 201h164z" />
    <glyph glyph-name="uni0156" unicode="&#x156;" horiz-adv-x="700" 
d="M477 373l189 -186v-229h-10l-344 358q-18 18 -40 18h-6v-334h-202v728h267q323 0 323 -178q0 -125 -177 -177zM462 540q0 82 -36.5 127t-106.5 45h-53v-357q33 -5 64 -5q60 0 96 54q36 56 36 136zM309 -283l-5 5q25 12 43 35t18 46q0 52 -74 72l61 75q44 -9 70.5 -37
t26.5 -67q0 -47 -44 -79q-45 -34 -96 -50z" />
    <glyph glyph-name="uni0157" unicode="&#x157;" horiz-adv-x="427" 
d="M431 550l-48 -134q-27 13 -52 13q-37 0 -62.5 -27t-29.5 -72v-330h-188v521l178 41h4v-196h2q10 85 52.5 137.5t100.5 52.5q19 0 43 -6zM89 -283l-5 5q25 12 43 35t18 46q0 52 -74 72l61 75q44 -9 70.5 -37t26.5 -67q0 -47 -44 -79q-45 -34 -96 -50z" />
    <glyph glyph-name="Rcaron" unicode="&#x158;" horiz-adv-x="700" 
d="M477 373l189 -186v-229h-10l-344 358q-18 18 -40 18h-6v-334h-202v728h267q323 0 323 -178q0 -125 -177 -177zM462 540q0 82 -36.5 127t-106.5 45h-53v-357q33 -5 64 -5q60 0 96 54q36 56 36 136zM520 980l6 -5l-178 -191h-6l-178 191l6 5l175 -75z" />
    <glyph glyph-name="rcaron" unicode="&#x159;" horiz-adv-x="427" 
d="M431 550l-48 -134q-27 13 -52 13q-37 0 -62.5 -27t-29.5 -72v-330h-188v521l178 41h4v-196h2q10 85 52.5 137.5t100.5 52.5q19 0 43 -6zM416 812l6 -5l-178 -201h-6l-178 201l6 5l175 -84z" />
    <glyph glyph-name="Sacute" unicode="&#x15a;" horiz-adv-x="574" 
d="M29 36l27 103q32 -60 101 -97q70 -38 139 -38q63 0 98 33t35 84q0 38 -24 67q-23 26 -52 43t-84 39l-49 20q-73 29 -130 80q-55 51 -55 144q0 98 73 162t193 64q66 0 123 -16q61 -17 91 -31l-24 -93q-96 124 -205 124q-58 0 -92.5 -32.5t-34.5 -82.5q0 -48 36.5 -79.5
t113.5 -62.5l49 -20q82 -33 138 -84q57 -49 57 -143q0 -97 -71 -164.5t-201 -67.5q-62 -1 -147.5 17.5t-104.5 30.5zM275 784l-7 5l49 191h178z" />
    <glyph glyph-name="sacute" unicode="&#x15b;" horiz-adv-x="484" 
d="M22 24l23 87q32 -47 88 -78t118 -31q51 0 78.5 20.5t27.5 56.5t-27.5 57t-93.5 45l-42 15q-66 24 -117 62q-49 39 -49 114q0 78 60 131t168 53q88 0 180 -36l-19 -75q-78 97 -180 97q-46 0 -72.5 -20.5t-26.5 -54.5q1 -21 8 -35t26 -26t34.5 -18.5t52.5 -20.5l42 -15
q43 -15 76 -34q38 -20 64 -57.5t26 -87.5q0 -79 -61 -132t-175 -53q-62 0 -124 13q-69 14 -85 23zM226 606l-7 5l53 201h164z" />
    <glyph glyph-name="Scircumflex" unicode="&#x15c;" horiz-adv-x="574" 
d="M29 36l27 103q32 -60 101 -97q70 -38 139 -38q63 0 98 33t35 84q0 38 -24 67q-23 26 -52 43t-84 39l-49 20q-73 29 -130 80q-55 51 -55 144q0 98 73 162t193 64q66 0 123 -16q61 -17 91 -31l-24 -93q-96 124 -205 124q-58 0 -92.5 -32.5t-34.5 -82.5q0 -48 36.5 -79.5
t113.5 -62.5l49 -20q82 -33 138 -84q57 -49 57 -143q0 -97 -71 -164.5t-201 -67.5q-62 -1 -147.5 17.5t-104.5 30.5zM478 789l-6 -5l-175 75l-175 -75l-6 5l178 191h6z" />
    <glyph glyph-name="scircumflex" unicode="&#x15d;" horiz-adv-x="484" 
d="M22 24l23 87q32 -47 88 -78t118 -31q51 0 78.5 20.5t27.5 56.5t-27.5 57t-93.5 45l-42 15q-66 24 -117 62q-49 39 -49 114q0 78 60 131t168 53q88 0 180 -36l-19 -75q-78 97 -180 97q-46 0 -72.5 -20.5t-26.5 -54.5q1 -21 8 -35t26 -26t34.5 -18.5t52.5 -20.5l42 -15
q43 -15 76 -34q38 -20 64 -57.5t26 -87.5q0 -79 -61 -132t-175 -53q-62 0 -124 13q-69 14 -85 23zM429 611l-6 -5l-175 84l-175 -84l-6 5l178 201h6z" />
    <glyph glyph-name="Scedilla" unicode="&#x15e;" horiz-adv-x="574" 
d="M292 -12l-14 -30q73 -3 113 -29.5t40 -67.5q0 -43 -37.5 -71t-100.5 -28q-74 0 -107 27l3 9q8 -3 31 -6q26 -3 42 -3q31 0 47 12.5t16 32.5q0 46 -76 46h-26l49 108q-62 1 -144 19t-99 29l27 103q32 -60 101 -97q70 -38 139 -38q63 0 98 33t35 84q0 38 -24 67
q-23 26 -52 43t-84 39l-49 20q-73 29 -130 80q-55 51 -55 144q0 98 73 162t193 64q66 0 123 -16q61 -17 91 -31l-24 -93q-96 124 -205 124q-58 0 -92.5 -32.5t-34.5 -82.5q0 -48 36.5 -79.5t113.5 -62.5l49 -20q82 -33 138 -84q57 -49 57 -143t-68.5 -161.5t-192.5 -70.5z
" />
    <glyph glyph-name="scedilla" unicode="&#x15f;" horiz-adv-x="484" 
d="M243 -12l-14 -30q73 -3 113 -29.5t40 -67.5q0 -43 -37.5 -71t-100.5 -28q-74 0 -107 27l3 9q8 -3 31 -6q25 -3 42 -3q31 0 47 12.5t16 32.5q0 46 -76 46h-26l49 108q-63 2 -121 14q-64 14 -80 22l23 87q32 -47 88 -78t118 -31q51 0 78.5 20.5t27.5 56.5t-27.5 57
t-93.5 45l-42 15q-66 24 -117 62q-49 39 -49 114q0 78 60 131t168 53q88 0 180 -36l-19 -75q-78 97 -180 97q-46 0 -72.5 -20.5t-26.5 -54.5q1 -21 8 -35t26 -26t34.5 -18.5t52.5 -20.5l42 -15q43 -15 76 -34q38 -20 64 -57.5t26 -87.5q0 -76 -58.5 -129t-165.5 -56z" />
    <glyph glyph-name="Scaron" unicode="&#x160;" horiz-adv-x="574" 
d="M29 36l27 103q32 -60 101 -97q70 -38 139 -38q63 0 98 33t35 84q0 38 -24 67q-23 26 -52 43t-84 39l-49 20q-73 29 -130 80q-55 51 -55 144q0 98 73 162t193 64q66 0 123 -16q61 -17 91 -31l-24 -93q-96 124 -205 124q-58 0 -92.5 -32.5t-34.5 -82.5q0 -48 36.5 -79.5
t113.5 -62.5l49 -20q82 -33 138 -84q57 -49 57 -143q0 -97 -71 -164.5t-201 -67.5q-62 -1 -147.5 17.5t-104.5 30.5zM472 980l6 -5l-178 -191h-6l-178 191l6 5l175 -75z" />
    <glyph glyph-name="scaron" unicode="&#x161;" horiz-adv-x="484" 
d="M22 24l23 87q32 -47 88 -78t118 -31q51 0 78.5 20.5t27.5 56.5t-27.5 57t-93.5 45l-42 15q-66 24 -117 62q-49 39 -49 114q0 78 60 131t168 53q88 0 180 -36l-19 -75q-78 97 -180 97q-46 0 -72.5 -20.5t-26.5 -54.5q1 -21 8 -35t26 -26t34.5 -18.5t52.5 -20.5l42 -15
q43 -15 76 -34q38 -20 64 -57.5t26 -87.5q0 -79 -61 -132t-175 -53q-62 0 -124 13q-69 14 -85 23zM423 812l6 -5l-178 -201h-6l-178 201l6 5l175 -84z" />
    <glyph glyph-name="uni0162" unicode="&#x162;" horiz-adv-x="602" 
d="M578 728l17 -138h-2q-59 66 -100 94q-38 26 -81 26h-10v-710h-202v710h-10q-44 0 -82 -26q-39 -26 -99 -94h-2l17 138h554zM451 -139q0 -43 -37.5 -71t-100.5 -28q-74 0 -107 27l3 9q8 -3 31 -6q26 -3 42 -3q31 0 47 12.5t16 32.5q0 46 -76 46h-26l54 120h20l-19 -42
q73 -3 113 -29.5t40 -67.5z" />
    <glyph glyph-name="uni0163" unicode="&#x163;" horiz-adv-x="394" 
d="M246 -12l-14 -30q73 -3 113 -29.5t40 -67.5q0 -43 -37.5 -71t-100.5 -28q-74 0 -107 27l3 9q8 -3 31 -6q26 -3 42 -3q31 0 47 12.5t16 32.5q0 46 -76 46h-26l49 108q-88 2 -119 45t-31 101v388h-57v17l57 5l184 196h4v-196h145l-13 -22h-132v-398q0 -38 12.5 -60
t48.5 -22q35 0 76 25l8 -12q-80 -62 -163 -67z" />
    <glyph glyph-name="Tcaron" unicode="&#x164;" horiz-adv-x="602" 
d="M578 728l17 -138h-2q-59 66 -100 94q-38 26 -81 26h-10v-710h-202v710h-10q-44 0 -82 -26q-39 -26 -99 -94h-2l17 138h554zM476 980l6 -5l-178 -191h-6l-178 191l6 5l175 -75z" />
    <glyph glyph-name="tcaron" unicode="&#x165;" horiz-adv-x="394" 
d="M401 67l8 -12q-85 -67 -178 -67q-90 0 -123 44q-32 44 -32 102v388h-57v17l57 5l184 196h4v-196h145l-13 -22h-132v-398q0 -38 12.5 -60t48.5 -22q35 0 76 25zM326 584l-5 5q25 12 43 35t18 46q0 54 -74 72l61 75q44 -9 70.5 -37t26.5 -67q0 -47 -44 -80q-46 -33 -96 -49
z" />
    <glyph glyph-name="Tbar" unicode="&#x166;" horiz-adv-x="610" 
d="M582 728l17 -138h-2q-59 66 -100 94q-38 26 -81 26h-10v-325h104v-14h-104v-371h-202v371h-104v14h104v325h-10q-44 0 -82 -26q-39 -26 -99 -94h-2l17 138h554z" />
    <glyph glyph-name="tbar" unicode="&#x167;" horiz-adv-x="400" 
d="M265 522v-187h145v-18h-145v-193q0 -38 12.5 -60t48.5 -22q35 0 76 25l8 -12q-85 -67 -178 -67q-90 0 -123 44q-32 44 -32 102v183h-57v18h57v187h-57v17l57 5l184 196h4v-196h145l-13 -22h-132z" />
    <glyph glyph-name="Utilde" unicode="&#x168;" horiz-adv-x="708" 
d="M57 276v452h202v-456q0 -121 46 -183.5t131 -62.5q86 0 134 61.5t48 179.5v143q0 186 -40 318h100q-40 -132 -40 -318v-138q0 -143 -68 -213.5t-213 -70.5q-150 0 -225 73.5t-75 214.5zM205 796l-11 3q7 72 34 113.5t67 41.5q37 0 104 -35q51 -27 76 -27q53 0 74 62
l11 -3q-7 -72 -34 -113.5t-68 -41.5q-37 0 -104 35q-53 27 -75 27q-54 0 -74 -62z" />
    <glyph glyph-name="utilde" unicode="&#x169;" horiz-adv-x="636" 
d="M606 32l-180 -44l-29 87q-70 -87 -171 -87q-88 0 -134.5 48.5t-46.5 144.5v340l184 41h4v-403q0 -47 13 -82q14 -35 62 -35q40 0 88 54v425l184 41h4v-464zM143 618l-11 3q7 72 34 113.5t67 41.5q37 0 104 -35q51 -27 76 -27q53 0 74 62l11 -3q-7 -72 -34 -113.5
t-68 -41.5q-37 0 -104 35q-53 27 -75 27q-54 0 -74 -62z" />
    <glyph glyph-name="Umacron" unicode="&#x16a;" horiz-adv-x="708" 
d="M57 276v452h202v-456q0 -121 46 -183.5t131 -62.5q86 0 134 61.5t48 179.5v143q0 186 -40 318h100q-40 -132 -40 -318v-138q0 -143 -68 -213.5t-213 -70.5q-150 0 -225 73.5t-75 214.5zM214 832v52h327v-52h-327z" />
    <glyph glyph-name="umacron" unicode="&#x16b;" horiz-adv-x="636" 
d="M606 32l-180 -44l-29 87q-70 -87 -171 -87q-88 0 -134.5 48.5t-46.5 144.5v340l184 41h4v-403q0 -47 13 -82q14 -35 62 -35q40 0 88 54v425l184 41h4v-464zM158 654v52h315v-52h-315z" />
    <glyph glyph-name="Ubreve" unicode="&#x16c;" horiz-adv-x="708" 
d="M57 276v452h202v-456q0 -121 46 -183.5t131 -62.5q86 0 134 61.5t48 179.5v143q0 186 -40 318h100q-40 -132 -40 -318v-138q0 -143 -68 -213.5t-213 -70.5q-150 0 -225 73.5t-75 214.5zM200 971l9 3q22 -38 67.5 -61t100.5 -23t101 23.5t68 60.5l9 -3q-46 -175 -178 -175
q-131 0 -177 175z" />
    <glyph glyph-name="ubreve" unicode="&#x16d;" horiz-adv-x="636" 
d="M606 32l-180 -44l-29 87q-70 -87 -171 -87q-88 0 -134.5 48.5t-46.5 144.5v340l184 41h4v-403q0 -47 13 -82q14 -35 62 -35q40 0 88 54v425l184 41h4v-464zM138 793l9 3q22 -38 67.5 -61t100.5 -23t101 23.5t68 60.5l9 -3q-46 -175 -178 -175q-131 0 -177 175z" />
    <glyph glyph-name="Uring" unicode="&#x16e;" horiz-adv-x="708" 
d="M57 276v452h202v-456q0 -121 46 -183.5t131 -62.5q86 0 134 61.5t48 179.5v143q0 186 -40 318h100q-40 -132 -40 -318v-138q0 -143 -68 -213.5t-213 -70.5q-150 0 -225 73.5t-75 214.5zM244 893q0 50 36.5 79.5t96.5 29.5t96.5 -29.5t36.5 -79.5t-36.5 -79.5t-96.5 -29.5
t-96.5 29.5t-36.5 79.5zM440 893q0 44 -16.5 69.5t-46.5 25.5t-46.5 -25.5t-16.5 -69.5t16.5 -69.5t46.5 -25.5t46.5 25.5t16.5 69.5z" />
    <glyph glyph-name="uring" unicode="&#x16f;" horiz-adv-x="636" 
d="M606 32l-180 -44l-29 87q-70 -87 -171 -87q-88 0 -134.5 48.5t-46.5 144.5v340l184 41h4v-403q0 -47 13 -82q14 -35 62 -35q40 0 88 54v425l184 41h4v-464zM182 715q0 50 36.5 79.5t96.5 29.5t96.5 -29.5t36.5 -79.5t-36.5 -79.5t-96.5 -29.5t-96.5 29.5t-36.5 79.5z
M378 715q0 44 -16.5 69.5t-46.5 25.5t-46.5 -25.5t-16.5 -69.5t16.5 -69.5t46.5 -25.5t46.5 25.5t16.5 69.5z" />
    <glyph glyph-name="Uhungarumlaut" unicode="&#x170;" horiz-adv-x="708" 
d="M57 276v452h202v-456q0 -121 46 -183.5t131 -62.5q86 0 134 61.5t48 179.5v143q0 186 -40 318h100q-40 -132 -40 -318v-138q0 -143 -68 -213.5t-213 -70.5q-150 0 -225 73.5t-75 214.5zM275 784l-7 5l57 191h150zM445 784l-7 5l57 191h150z" />
    <glyph glyph-name="uhungarumlaut" unicode="&#x171;" horiz-adv-x="636" 
d="M606 32l-180 -44l-29 87q-70 -87 -171 -87q-88 0 -134.5 48.5t-46.5 144.5v340l184 41h4v-403q0 -47 13 -82q14 -35 62 -35q40 0 88 54v425l184 41h4v-464zM213 606l-7 5l57 201h150zM383 606l-7 5l57 201h150z" />
    <glyph glyph-name="Uogonek" unicode="&#x172;" horiz-adv-x="708" 
d="M578 728h100q-40 -132 -40 -318v-138q0 -124 -50 -192.5t-156 -85.5q-58 -64 -58 -114q0 -64 58 -64q28 0 64 16l3 -5q-27 -31 -66.5 -48t-79.5 -17q-45 0 -69.5 20t-24.5 58q0 85 140 150q-34 -2 -42 -2q-150 0 -225 73.5t-75 214.5v452h202v-456q0 -121 46 -183.5
t131 -62.5q86 0 134 61.5t48 179.5v143q0 186 -40 318z" />
    <glyph glyph-name="uogonek" unicode="&#x173;" horiz-adv-x="637" 
d="M436 -116q0 -32 15.5 -50t42.5 -18q28 0 64 16l3 -5q-27 -31 -66.5 -48t-79.5 -17q-45 0 -69.5 20t-24.5 58q0 40 31.5 75.5t82.5 60.5l-38 99q-35 -44 -74.5 -65.5t-96.5 -21.5q-88 0 -134.5 48.5t-46.5 144.5v340l184 41h4v-403q0 -47 13 -82q14 -35 62 -35q40 0 88 54
v425l184 41h4v-464l22 -66l-45 -12q-69 -18 -97 -51t-28 -85z" />
    <glyph glyph-name="Wcircumflex" unicode="&#x174;" horiz-adv-x="914" 
d="M830 728h99q-38 -69 -67 -135q-39 -95 -73 -185l-163 -432h-4l-169 448l-171 -448h-4l-283 752h217l166 -445l170 445h4l170 -443l48 129q61 159 61 278q0 29 -1 36zM732 789l-6 -5l-175 75l-175 -75l-6 5l178 191h6z" />
    <glyph glyph-name="wcircumflex" unicode="&#x175;" horiz-adv-x="762" 
d="M691 544h84q-38 -71 -65 -130q-32 -68 -84 -189l-108 -249h-4l-132 312l-136 -312h-4l-245 568h201l137 -318l137 318h4l133 -314v1q82 189 82 313zM612 611l-6 -5l-175 84l-175 -84l-6 5l178 201h6z" />
    <glyph glyph-name="Ycircumflex" unicode="&#x176;" horiz-adv-x="668" 
d="M501 431l-60 -112v-319h-202v289l-242 439h230l207 -379l49 91q87 160 87 288h99q-39 -65 -81 -139q-44 -79 -87 -158zM551 789l-6 -5l-175 75l-175 -75l-6 5l178 191h6z" />
    <glyph glyph-name="ycircumflex" unicode="&#x177;" horiz-adv-x="508" 
d="M431 544h86q-30 -53 -58 -112q-36 -79 -74 -165l-12 -27l-142 -321q-68 -153 -234 -153l9 86q36 -14 71 -14q44 0 80.5 22t54.5 61l27 61l-246 562h202l145 -332l16 35q75 170 75 297zM462 611l-6 -5l-175 84l-175 -84l-6 5l178 201h6z" />
    <glyph glyph-name="Ydieresis" unicode="&#x178;" horiz-adv-x="668" 
d="M501 431l-60 -112v-319h-202v289l-242 439h230l207 -379l49 91q87 160 87 288h99q-39 -65 -81 -139q-44 -79 -87 -158zM255 784l-93 93l93 93l93 -93zM485 784l-93 93l93 93l93 -93z" />
    <glyph glyph-name="Zacute" unicode="&#x179;" horiz-adv-x="622" 
d="M608 124h2l-24 -124h-580v4l365 706h-29q-207 0 -316 -96h-2l14 114h568v-4l-366 -706h46q108 0 183 23q74 24 139 83zM300 784l-7 5l49 191h178z" />
    <glyph glyph-name="zacute" unicode="&#x17a;" horiz-adv-x="479" 
d="M465 60h3l-12 -60h-447v4l255 525q-165 -5 -246 -41h-3l11 56h440v-4l-254 -524q158 5 253 44zM223 606l-7 5l53 201h164z" />
    <glyph glyph-name="Zdotaccent" unicode="&#x17b;" horiz-adv-x="622" 
d="M608 124h2l-24 -124h-580v4l365 706h-29q-207 0 -316 -96h-2l14 114h568v-4l-366 -706h46q108 0 183 23q74 24 139 83zM322 784l-112 112l112 112l112 -112z" />
    <glyph glyph-name="zdotaccent" unicode="&#x17c;" horiz-adv-x="479" 
d="M465 60h3l-12 -60h-447v4l255 525q-165 -5 -246 -41h-3l11 56h440v-4l-254 -524q158 5 253 44zM245 606l-112 112l112 112l112 -112z" />
    <glyph glyph-name="Zcaron" unicode="&#x17d;" horiz-adv-x="622" 
d="M608 124h2l-24 -124h-580v4l365 706h-29q-207 0 -316 -96h-2l14 114h568v-4l-366 -706h46q108 0 183 23q74 24 139 83zM497 980l6 -5l-178 -191h-6l-178 191l6 5l175 -75z" />
    <glyph glyph-name="zcaron" unicode="&#x17e;" horiz-adv-x="479" 
d="M465 60h3l-12 -60h-447v4l255 525q-165 -5 -246 -41h-3l11 56h440v-4l-254 -524q158 5 253 44zM420 812l6 -5l-178 -201h-6l-178 201l6 5l175 -84z" />
    <glyph glyph-name="longs" unicode="&#x17f;" horiz-adv-x="314" 
d="M53 0v620q0 89 56.5 141.5t143.5 52.5q103 0 194 -67l-9 -12q-46 25 -92 25q-47 0 -76 -29t-29 -81v-650h-188z" />
    <glyph glyph-name="florin" unicode="&#x192;" horiz-adv-x="574" 
d="M351 564l-27 -190h158l-5 -18h-155l-54 -384q-26 -186 -152 -186q-55 0 -104 35l6 12q40 -23 85 -23q49 0 77.5 41t40.5 129l53 376h-145v18h147l28 198q26 186 152 186q55 0 104 -35l-6 -12q-40 23 -85 23q-49 0 -77.5 -41t-40.5 -129z" />
    <glyph glyph-name="Aringacute" unicode="&#x1fa;" horiz-adv-x="672" 
d="M530 1040l-220 -106l-7 5l49 101h178zM355 232h-225q-38 -102 -38 -167q0 -28 8 -65h-118q43 71 78 139q35 69 86 183l166 370q-48 7 -76 35t-28 72q0 50 36.5 79.5t96.5 29.5t96.5 -29.5t36.5 -79.5q0 -44 -28 -72t-76 -35l310 -692h-221zM341 704q30 0 46.5 25.5
t16.5 69.5t-16.5 69.5t-46.5 25.5t-46.5 -25.5t-16.5 -69.5t16.5 -69.5t46.5 -25.5zM164 314l-27 -64h210l-106 236z" />
    <glyph glyph-name="aringacute" unicode="&#x1fb;" horiz-adv-x="582" 
d="M459 972l-210 -116l-7 5l53 111h164zM123 715q0 50 36.5 79.5t96.5 29.5t96.5 -29.5t36.5 -79.5t-36.5 -79.5t-96.5 -29.5t-96.5 29.5t-36.5 79.5zM193 715q0 -44 16.5 -69.5t46.5 -25.5t46.5 25.5t16.5 69.5t-16.5 69.5t-46.5 25.5t-46.5 -25.5t-16.5 -69.5zM574 32v-6
q-19 -14 -56 -26t-78 -12q-55 0 -84 21.5t-36 55.5q-69 -75 -164 -75q-64 0 -103 37.5t-39 94.5q0 69 57.5 114t158.5 55q59 7 88 8v53q0 48 -6 80q-13 78 -108 78q-76 0 -146 -53l-9 11q49 45 100 66.5t126 21.5q117 0 174 -47.5t57 -146.5v-256q0 -45 8 -60.5t40 -15.5
q4 0 20 2zM318 83v202q-124 -22 -124 -143q0 -46 17 -70.5t45 -24.5q32 0 62 36z" />
    <glyph glyph-name="AEacute" unicode="&#x1fc;" horiz-adv-x="887" 
d="M865 124h2l-24 -124h-480v262h-223q-48 -111 -48 -189q0 -33 9 -73h-118l364 728h488l14 -114h-2q-110 96 -252 96h-30v-322h10q80 0 134.5 13t67.5 35h2v-122h-2q-14 25 -69 40.5t-133 15.5h-10v-352h37q147 0 263 106zM149 280h214v430l-198 -396zM486 784l-7 5l49 191
h178z" />
    <glyph glyph-name="aeacute" unicode="&#x1fd;" horiz-adv-x="890" 
d="M855 142l12 -7q-99 -147 -268 -147q-152 0 -225 111q-35 -50 -92 -79.5t-125 -29.5q-65 0 -104 37.5t-39 94.5q0 73 58 122.5t161 58.5l96 8v41q0 48 -6 80q-15 78 -118 78q-77 0 -147 -53l-9 11q54 48 100 67.5t133 20.5q121 0 172 -52q67 52 172 52q120 0 180 -64.5
t60 -165.5l-1 -21h-348q1 -245 171 -245q97 0 167 82zM517 321h186q4 24 4 58q0 72 -25.5 116.5t-64.5 44.5q-47 0 -73 -62q-25 -61 -27 -157zM262 47q37 0 67 24v226q-65 -11 -100 -52.5t-35 -102.5q0 -46 19 -70.5t49 -24.5zM427 606l-7 5l53 201h164z" />
    <glyph glyph-name="Oslashacute" unicode="&#x1fe;" horiz-adv-x="854" 
d="M822 372q0 -175 -111 -279.5t-291 -104.5q-140 0 -238 64l-85 -103l-16 12l85 103q-134 99 -134 292q0 175 111 279.5t291 104.5q140 0 238 -64l85 103l16 -12l-85 -103q134 -99 134 -292zM268 187l312 378q-40 159 -155 159q-93 0 -133 -88.5t-40 -267.5q0 -107 16 -181
zM602 360q0 107 -16 181l-312 -378q42 -159 157 -159q91 0 131 88.5t40 267.5zM405 784l-7 5l49 191h178z" />
    <glyph glyph-name="oslashacute" unicode="&#x1ff;" horiz-adv-x="655" 
d="M629 275q0 -127 -87 -207t-219 -80q-95 0 -167 42l-62 -81l-15 11l61 80q-114 78 -114 229q0 127 87 207t219 80q95 0 167 -42l62 81l15 -11l-61 -80q114 -78 114 -229zM231 160l189 250q-24 132 -94 132q-55 0 -78.5 -66.5t-23.5 -201.5q0 -69 7 -114zM431 268
q0 71 -7 116l-189 -250q24 -132 94 -132q55 0 78.5 66t23.5 200zM306 606l-7 5l53 201h164z" />
    <glyph glyph-name="uni0218" unicode="&#x218;" horiz-adv-x="574" 
d="M29 36l27 103q32 -60 101 -97q70 -38 139 -38q63 0 98 33t35 84q0 38 -24 67q-23 26 -52 43t-84 39l-49 20q-73 29 -130 80q-55 51 -55 144q0 98 73 162t193 64q66 0 123 -16q61 -17 91 -31l-24 -93q-96 124 -205 124q-58 0 -92.5 -32.5t-34.5 -82.5q0 -48 36.5 -79.5
t113.5 -62.5l49 -20q82 -33 138 -84q57 -49 57 -143q0 -97 -71 -164.5t-201 -67.5q-62 -1 -147.5 17.5t-104.5 30.5zM225 -283l-5 5q25 12 43 35t18 46q0 52 -74 72l61 75q44 -9 70.5 -37t26.5 -67q0 -47 -44 -79q-45 -34 -96 -50z" />
    <glyph glyph-name="uni0219" unicode="&#x219;" horiz-adv-x="484" 
d="M22 24l23 87q32 -47 88 -78t118 -31q51 0 78.5 20.5t27.5 56.5t-27.5 57t-93.5 45l-42 15q-66 24 -117 62q-49 39 -49 114q0 78 60 131t168 53q88 0 180 -36l-19 -75q-78 97 -180 97q-46 0 -72.5 -20.5t-26.5 -54.5q1 -21 8 -35t26 -26t34.5 -18.5t52.5 -20.5l42 -15
q43 -15 76 -34q38 -20 64 -57.5t26 -87.5q0 -79 -61 -132t-175 -53q-62 0 -124 13q-69 14 -85 23zM182 -283l-5 5q25 12 43 35t18 46q0 52 -74 72l61 75q44 -9 70.5 -37t26.5 -67q0 -47 -44 -79q-45 -34 -96 -50z" />
    <glyph glyph-name="uni021A" unicode="&#x21a;" horiz-adv-x="602" 
d="M578 728l17 -138h-2q-59 66 -100 94q-38 26 -81 26h-10v-710h-202v710h-10q-44 0 -82 -26q-39 -26 -99 -94h-2l17 138h554zM245 -283l-5 5q25 12 43 35t18 46q0 52 -74 72l61 75q44 -9 70.5 -37t26.5 -67q0 -47 -44 -79q-45 -34 -96 -50z" />
    <glyph glyph-name="uni021B" unicode="&#x21b;" horiz-adv-x="394" 
d="M401 67l8 -12q-85 -67 -178 -67q-90 0 -123 44q-32 44 -32 102v388h-57v17l57 5l184 196h4v-196h145l-13 -22h-132v-398q0 -38 12.5 -60t48.5 -22q35 0 76 25zM185 -283l-5 5q25 12 43 35t18 46q0 52 -74 72l61 75q44 -9 70.5 -37t26.5 -67q0 -47 -44 -79
q-45 -34 -96 -50z" />
    <glyph glyph-name="uni0237" unicode="&#x237;" horiz-adv-x="300" 
d="M-63 -228l-4 12q59 16 92.5 79.5t33.5 156.5v501l184 41h4v-522q1 -59 -28.5 -109t-78 -81.5t-100 -51t-103.5 -26.5z" />
    <glyph glyph-name="uni0259" unicode="&#x259;" horiz-adv-x="593" 
d="M567 286q0 -134 -85 -216t-218 -82q-120 0 -180 64.5t-60 165.5l1 21h348q-1 245 -171 245q-97 0 -167 -82l-12 7q99 147 268 147q121 0 198.5 -73.5t77.5 -196.5zM373 223h-186q-4 -24 -4 -58q0 -72 25.5 -116.5t64.5 -44.5q46 0 72 62q27 64 28 157z" />
    <glyph glyph-name="uni02BB" unicode="&#x2bb;" horiz-adv-x="182" 
d="M15 710q0 48 43 79q44 33 97 50l5 -5q-25 -12 -43 -35t-18 -46q0 -52 74 -72l-61 -75q-44 9 -70.5 37t-26.5 67z" />
    <glyph glyph-name="uni02BC" unicode="&#x2bc;" horiz-adv-x="187" 
d="M34 606l-5 5q25 12 43 35t18 46q0 54 -74 72l61 75q44 -9 70.5 -37t26.5 -67q0 -47 -44 -80q-46 -33 -96 -49z" />
    <glyph glyph-name="circumflex" unicode="&#x2c6;" horiz-adv-x="600" 
d="M481 611l-6 -5l-175 84l-175 -84l-6 5l178 201h6z" />
    <glyph glyph-name="caron" unicode="&#x2c7;" horiz-adv-x="600" 
d="M475 812l6 -5l-178 -201h-6l-178 201l6 5l175 -84z" />
    <glyph glyph-name="uni02C9" unicode="&#x2c9;" horiz-adv-x="600" 
d="M144 654v52h315v-52h-315z" />
    <glyph glyph-name="breve" unicode="&#x2d8;" horiz-adv-x="600" 
d="M123 793l9 3q22 -38 67.5 -61t100.5 -23t101 23.5t68 60.5l9 -3q-46 -175 -178 -175q-131 0 -177 175z" />
    <glyph glyph-name="dotaccent" unicode="&#x2d9;" horiz-adv-x="600" 
d="M309 606l-112 112l112 112l112 -112z" />
    <glyph glyph-name="ring" unicode="&#x2da;" horiz-adv-x="600" 
d="M177 715q0 50 36.5 79.5t96.5 29.5t96.5 -29.5t36.5 -79.5t-36.5 -79.5t-96.5 -29.5t-96.5 29.5t-36.5 79.5zM373 715q0 44 -16.5 69.5t-46.5 25.5t-46.5 -25.5t-16.5 -69.5t16.5 -69.5t46.5 -25.5t46.5 25.5t16.5 69.5z" />
    <glyph glyph-name="ogonek" unicode="&#x2db;" horiz-adv-x="600" 
d="M248 -160q0 49 41.5 87t123.5 74h15q-38 -40 -51.5 -67t-13.5 -54q0 -64 58 -64q28 0 64 16l3 -5q-27 -31 -66.5 -48t-79.5 -17q-45 0 -69.5 20t-24.5 58z" />
    <glyph glyph-name="tilde" unicode="&#x2dc;" horiz-adv-x="600" 
d="M128 618l-11 3q7 72 34 113.5t67 41.5q37 0 104 -35q53 -27 76 -27q53 0 74 62l11 -3q-7 -72 -34 -113.5t-68 -41.5q-37 0 -104 35q-53 27 -75 27q-54 0 -74 -62z" />
    <glyph glyph-name="hungarumlaut" unicode="&#x2dd;" horiz-adv-x="600" 
d="M157 606l-7 5l57 201h150zM327 606l-7 5l57 201h150z" />
    <glyph glyph-name="gravecomb" unicode="&#x300;" 
d="M-178 606l-210 206h164l53 -201z" />
    <glyph glyph-name="acutecomb" unicode="&#x301;" 
d="M-222 606l-7 5l53 201h164z" />
    <glyph glyph-name="uni0302" unicode="&#x302;" 
d="M-19 611l-6 -5l-175 84l-175 -84l-6 5l178 201h6z" />
    <glyph glyph-name="tildecomb" unicode="&#x303;" 
d="M-372 618l-11 3q7 72 34 113.5t67 41.5q37 0 104 -35q51 -27 76 -27q53 0 74 62l11 -3q-7 -72 -34 -113.5t-68 -41.5q-37 0 -104 35q-53 27 -75 27q-54 0 -74 -62z" />
    <glyph glyph-name="uni0304" unicode="&#x304;" 
d="M-357 654v52h315v-52h-315z" />
    <glyph glyph-name="uni0306" unicode="&#x306;" 
d="M-377 793l9 3q22 -38 67.5 -61t100.5 -23t101 23.5t68 60.5l9 -3q-46 -175 -178 -175q-131 0 -177 175z" />
    <glyph glyph-name="uni0307" unicode="&#x307;" 
d="M-200 606l-112 112l112 112l112 -112z" />
    <glyph glyph-name="uni0308" unicode="&#x308;" 
d="M-331 606l-93 93l93 93l93 -93zM-101 606l-93 93l93 93l93 -93z" />
    <glyph glyph-name="uni030A" unicode="&#x30a;" 
d="M-333 715q0 50 36.5 79.5t96.5 29.5t96.5 -29.5t36.5 -79.5t-36.5 -79.5t-96.5 -29.5t-96.5 29.5t-36.5 79.5zM-137 715q0 44 -16.5 69.5t-46.5 25.5t-46.5 -25.5t-16.5 -69.5t16.5 -69.5t46.5 -25.5t46.5 25.5t16.5 69.5z" />
    <glyph glyph-name="uni030B" unicode="&#x30b;" 
d="M-402 606l-7 5l57 201h150zM-232 606l-7 5l57 201h150z" />
    <glyph glyph-name="uni030C" unicode="&#x30c;" 
d="M-25 812l6 -5l-178 -201h-6l-178 201l6 5l175 -84z" />
    <glyph glyph-name="uni0312" unicode="&#x312;" 
d="M-284 710q0 47 44 79q45 34 96 50l5 -5q-25 -12 -43 -35t-18 -46q0 -52 74 -72l-61 -75q-44 9 -70.5 37t-26.5 67z" />
    <glyph glyph-name="uni0313" unicode="&#x313;" 
d="M-256 606l-5 5q25 12 43 35t18 46q0 54 -74 72l61 75q44 -9 70.5 -37t26.5 -67q0 -47 -43 -80q-45 -33 -97 -49z" />
    <glyph glyph-name="uni0326" unicode="&#x326;" 
d="M-256 -283l-5 5q25 12 43 35t18 46q0 52 -74 72l61 75q44 -9 70.5 -37t26.5 -67q0 -48 -43 -79q-44 -33 -97 -50z" />
    <glyph glyph-name="uni0327" unicode="&#x327;" 
d="M-56 -139q0 -43 -37.5 -71t-100.5 -28q-74 0 -107 27l3 9q8 -3 32 -6t41 -3q31 0 47 12.5t16 32.5q0 46 -76 46h-26l54 120h20l-19 -42q73 -3 113 -29.5t40 -67.5z" />
    <glyph glyph-name="uni0328" unicode="&#x328;" 
d="M-329 -160q0 49 41.5 87t123.5 74h15q-38 -40 -51.5 -67t-13.5 -54q0 -64 58 -64q28 0 64 16l3 -5q-27 -31 -66.5 -48t-79.5 -17q-45 0 -69.5 20t-24.5 58z" />
    <glyph glyph-name="uni037E" unicode="&#x37e;" horiz-adv-x="273" 
d="M50 -146l-5 7q71 39 71 108q0 34 -25.5 66.5t-65.5 53.5l72 109q60 -13 98.5 -55t38.5 -99q0 -64 -55 -112t-129 -78zM137 306l-112 112l112 112l112 -112z" />
    <glyph glyph-name="uni0394" unicode="&#x394;" horiz-adv-x="562" 
d="M283 740l287 -740h-578l287 740h4zM506 18l-243 631l-245 -631h488z" />
    <glyph glyph-name="uni03A9" unicode="&#x3a9;" horiz-adv-x="761" 
d="M738 58l-18 -58h-287v26q116 85 171 176t55 199q0 142 -77 232.5t-202 90.5q-126 0 -202.5 -88.5t-76.5 -230.5q0 -105 54.5 -197t171.5 -182v-26h-287l-18 58q88 -20 201 -20h60q-125 100 -183 182q-57 82 -57 181q-2 145 95.5 243t241.5 96q152 0 244.5 -92.5
t92.5 -242.5q0 -99 -58 -184q-60 -86 -182 -183h60q113 0 201 20z" />
    <glyph glyph-name="uni03BC" unicode="&#x3bc;" horiz-adv-x="642" 
d="M612 32l-180 -44l-29 87q-70 -87 -171 -87q-35 0 -66 11q73 -101 73 -169v-42h-188v733l184 41h4v-403q0 -47 13 -82q14 -35 62 -35q40 0 88 54v425l184 41h4v-464z" />
    <glyph glyph-name="pi" unicode="&#x3c0;" horiz-adv-x="596" 
d="M587 37l8 -12q-66 -37 -119 -37q-120 0 -120 146v368h-187v-76q0 -257 -28 -426h-48q28 147 28 428v74h-118v22h396q124 0 180 10l-18 -32h-157v-360q0 -130 93 -130q44 0 90 25z" />
    <glyph glyph-name="Wgrave" unicode="&#x1e80;" horiz-adv-x="914" 
d="M830 728h99q-38 -69 -67 -135q-39 -95 -73 -185l-163 -432h-4l-169 448l-171 -448h-4l-283 752h217l166 -445l170 445h4l170 -443l48 129q61 159 61 278q0 29 -1 36zM573 784l-220 196h178l49 -191z" />
    <glyph glyph-name="wgrave" unicode="&#x1e81;" horiz-adv-x="762" 
d="M691 544h84q-38 -71 -65 -130q-32 -68 -84 -189l-108 -249h-4l-132 312l-136 -312h-4l-245 568h201l137 -318l137 318h4l133 -314v1q82 189 82 313zM453 606l-210 206h164l53 -201z" />
    <glyph glyph-name="Wacute" unicode="&#x1e82;" horiz-adv-x="914" 
d="M830 728h99q-38 -69 -67 -135q-39 -95 -73 -185l-163 -432h-4l-169 448l-171 -448h-4l-283 752h217l166 -445l170 445h4l170 -443l48 129q61 159 61 278q0 29 -1 36zM529 784l-7 5l49 191h178z" />
    <glyph glyph-name="wacute" unicode="&#x1e83;" horiz-adv-x="762" 
d="M691 544h84q-38 -71 -65 -130q-32 -68 -84 -189l-108 -249h-4l-132 312l-136 -312h-4l-245 568h201l137 -318l137 318h4l133 -314v1q82 189 82 313zM409 606l-7 5l53 201h164z" />
    <glyph glyph-name="Wdieresis" unicode="&#x1e84;" horiz-adv-x="914" 
d="M830 728h99q-38 -69 -67 -135q-39 -95 -73 -185l-163 -432h-4l-169 448l-171 -448h-4l-283 752h217l166 -445l170 445h4l170 -443l48 129q61 159 61 278q0 29 -1 36zM436 784l-93 93l93 93l93 -93zM666 784l-93 93l93 93l93 -93z" />
    <glyph glyph-name="wdieresis" unicode="&#x1e85;" horiz-adv-x="762" 
d="M691 544h84q-38 -71 -65 -130q-32 -68 -84 -189l-108 -249h-4l-132 312l-136 -312h-4l-245 568h201l137 -318l137 318h4l133 -314v1q82 189 82 313zM316 606l-93 93l93 93l93 -93zM546 606l-93 93l93 93l93 -93z" />
    <glyph glyph-name="uni1E9E" unicode="&#x1e9e;" horiz-adv-x="815" 
d="M797 205q0 -107 -84 -162q-82 -55 -219 -55q-60 0 -96 9t-77 27l23 87q35 -55 65.5 -81t67.5 -26q50 0 80 46.5t30 120.5q0 94 -52.5 144.5t-149.5 57.5l-28 2l185 331q-77 17 -119 17q-74 0 -110 -39q-33 -36 -43 -79.5t-10 -109.5v-495h-202v488q0 122 95.5 187
t245.5 65q137 0 323 -58l-154 -276q109 -12 169 -62.5t60 -138.5z" />
    <glyph glyph-name="Ygrave" unicode="&#x1ef2;" horiz-adv-x="668" 
d="M501 431l-60 -112v-319h-202v289l-242 439h230l207 -379l49 91q87 160 87 288h99q-39 -65 -81 -139q-44 -79 -87 -158zM392 784l-220 196h178l49 -191z" />
    <glyph glyph-name="ygrave" unicode="&#x1ef3;" horiz-adv-x="508" 
d="M431 544h86q-30 -53 -58 -112q-36 -79 -74 -165l-12 -27l-142 -321q-68 -153 -234 -153l9 86q36 -14 71 -14q44 0 80.5 22t54.5 61l27 61l-246 562h202l145 -332l16 35q75 170 75 297zM303 606l-210 206h164l53 -201z" />
    <glyph glyph-name="uni200B" unicode="&#x200b;" 
 />
    <glyph glyph-name="endash" unicode="&#x2013;" horiz-adv-x="424" 
d="M17 305v18h390v-18h-390z" />
    <glyph glyph-name="emdash" unicode="&#x2014;" horiz-adv-x="714" 
d="M17 305v18h680v-18h-680z" />
    <glyph glyph-name="uni2015" unicode="&#x2015;" horiz-adv-x="714" 
d="M17 305v18h680v-18h-680z" />
    <glyph glyph-name="quoteleft" unicode="&#x2018;" horiz-adv-x="240" 
d="M203 740l5 -7q-71 -39 -71 -108q0 -34 25.5 -66.5t65.5 -53.5l-72 -109q-60 13 -98.5 55t-38.5 99q0 64 55 112q56 48 129 78z" />
    <glyph glyph-name="quoteright" unicode="&#x2019;" horiz-adv-x="235" 
d="M29 396l-5 7q71 39 71 108q0 34 -25.5 66.5t-65.5 53.5l72 109q60 -13 98.5 -55t38.5 -99q0 -64 -55 -112q-56 -48 -129 -78z" />
    <glyph glyph-name="quotesinglbase" unicode="&#x201a;" horiz-adv-x="247" 
d="M39 -146l-5 7q71 39 71 108q0 34 -25.5 66.5t-65.5 53.5l72 109q60 -13 98.5 -55t38.5 -99q0 -64 -55 -112q-56 -48 -129 -78z" />
    <glyph glyph-name="quotedblleft" unicode="&#x201c;" horiz-adv-x="461" 
d="M203 740l5 -7q-71 -39 -71 -108q0 -34 25.5 -66.5t65.5 -53.5l-72 -109q-60 13 -98.5 55t-38.5 99q0 64 55 112q56 48 129 78zM423 740l5 -7q-71 -39 -71 -108q0 -34 25.5 -66.5t65.5 -53.5l-72 -109q-60 13 -98.5 55t-38.5 99q0 64 55 112q56 48 129 78z" />
    <glyph glyph-name="quotedblright" unicode="&#x201d;" horiz-adv-x="455" 
d="M249 396l-5 7q71 39 71 108q0 34 -25.5 66.5t-65.5 53.5l72 109q60 -13 98.5 -55t38.5 -99q0 -64 -55 -112q-56 -48 -129 -78zM29 396l-5 7q71 39 71 108q0 34 -25.5 66.5t-65.5 53.5l72 109q60 -13 98.5 -55t38.5 -99q0 -64 -55 -112q-56 -48 -129 -78z" />
    <glyph glyph-name="quotedblbase" unicode="&#x201e;" horiz-adv-x="467" 
d="M39 -146l-5 7q71 39 71 108q0 34 -25.5 66.5t-65.5 53.5l72 109q60 -13 98.5 -55t38.5 -99q0 -64 -55 -112q-56 -48 -129 -78zM259 -146l-5 7q71 39 71 108q0 34 -25.5 66.5t-65.5 53.5l72 109q60 -13 98.5 -55t38.5 -99q0 -64 -55 -112q-56 -48 -129 -78z" />
    <glyph glyph-name="dagger" unicode="&#x2020;" horiz-adv-x="440" 
d="M422 513v-54l-196 21l18 -203v-427l-24 -36l-24 36v427l18 203l-196 -21v54l197 -21l-22 248h54l-22 -248z" />
    <glyph glyph-name="daggerdbl" unicode="&#x2021;" horiz-adv-x="460" 
d="M432 513v-54l-196 21l21 -203l-21 -203l196 21v-54l-197 21l22 -248h-54l22 248l-197 -21v54l196 -21l-21 203l21 203l-196 -21v54l197 -21l-22 248h54l-22 -248z" />
    <glyph glyph-name="bullet" unicode="&#x2022;" horiz-adv-x="360" 
d="M180 162l-134 134l134 134l134 -134z" />
    <glyph glyph-name="ellipsis" unicode="&#x2026;" horiz-adv-x="770" 
d="M121 -24l-112 112l112 112l112 -112zM385 -24l-112 112l112 112l112 -112zM649 -24l-112 112l112 112l112 -112z" />
    <glyph glyph-name="perthousand" unicode="&#x2030;" horiz-adv-x="1156" 
d="M23 552q0 86 48.5 134t130.5 48q79 0 128 -46t49 -126q0 -86 -48.5 -134t-130.5 -48q-79 0 -128 46t-49 126zM152 0l440 728h23l-440 -728h-23zM266 556q0 166 -66 166q-64 0 -64 -164q0 -166 66 -166q64 0 64 164zM388 166q0 86 48 134t131 48q79 0 128 -46t49 -126
q0 -86 -48 -134t-131 -48q-79 0 -128 46t-49 126zM778 166q0 86 48 134t131 48q79 0 128 -46t49 -126q0 -86 -48 -134t-131 -48q-79 0 -128 46t-49 126zM631 170q0 166 -66 166q-64 0 -64 -164q0 -166 66 -166q64 0 64 164zM1021 170q0 166 -66 166q-64 0 -64 -164
q0 -166 66 -166q64 0 64 164z" />
    <glyph glyph-name="minute" unicode="&#x2032;" horiz-adv-x="191" 
d="M40 452l14 288h144l-148 -288h-10z" />
    <glyph glyph-name="second" unicode="&#x2033;" horiz-adv-x="351" 
d="M40 452l14 288h144l-148 -288h-10zM200 452l14 288h144l-148 -288h-10z" />
    <glyph glyph-name="guilsinglleft" unicode="&#x2039;" horiz-adv-x="299" 
d="M265 524l-110 -252l110 -252h-12l-232 252l232 252h12z" />
    <glyph glyph-name="guilsinglright" unicode="&#x203a;" horiz-adv-x="299" 
d="M46 524l232 -252l-232 -252h-12l110 252l-110 252h12z" />
    <glyph glyph-name="fraction" unicode="&#x2044;" horiz-adv-x="100" 
d="M-182 0l440 728h23l-440 -728h-23z" />
    <glyph glyph-name="uni2070" unicode="&#x2070;" horiz-adv-x="456" 
d="M28 488q0 119 52 181.5t147 62.5q92 0 146.5 -60t54.5 -172q0 -119 -53 -181.5t-148 -62.5q-92 0 -145.5 60t-53.5 172zM301 491q0 233 -74 233q-72 0 -72 -227q0 -233 74 -233q72 0 72 227z" />
    <glyph glyph-name="uni2074" unicode="&#x2074;" horiz-adv-x="368" 
d="M351 435l-19 -68h-37v-107h-111v107h-162l-21 54l260 307h34v-293h56zM30 435h154v182z" />
    <glyph glyph-name="uni2075" unicode="&#x2075;" horiz-adv-x="346" 
d="M321 411q0 -67 -52.5 -111t-130.5 -44q-70 0 -123 29l12 44q39 -62 97 -62q43 0 72 26.5t29 67.5q0 51 -41.5 81.5t-124.5 30.5h-17l22 255h254l-27 -83h-221l-7 -73h43q105 0 160 -46t55 -115z" />
    <glyph glyph-name="uni2076" unicode="&#x2076;" horiz-adv-x="409" 
d="M25 440q-2 109 82 193.5t201 98.5l3 -9q-164 -45 -164 -287q0 -82 19 -127t50 -45q28 0 43 34.5t15 94.5q0 59 -16.5 91.5t-44.5 32.5q-22 0 -42 -19l-7 8q41 48 103 48q51 0 89.5 -38.5t38.5 -99.5q0 -72 -50 -116t-131 -44q-86 0 -138 51q-51 51 -51 133z" />
    <glyph glyph-name="uni2077" unicode="&#x2077;" horiz-adv-x="332" 
d="M19 728h310v-3l-162 -465h-99l220 385h-90q-126 0 -190 -15z" />
    <glyph glyph-name="uni2078" unicode="&#x2078;" horiz-adv-x="395" 
d="M370 391q0 -58 -51 -96.5t-126 -38.5q-69 0 -118 28t-49 81q0 38 26 66t73 43q-84 46 -84 122q0 59 47 97.5t116 38.5q59 0 102 -28q44 -27 44 -74q0 -68 -94 -98q114 -52 114 -141zM130 646q0 -36 20 -57.5t62 -38.5l29 -12l2 -1q33 43 33 101q0 38 -20 62t-54 24
q-35 0 -53.5 -21.5t-18.5 -56.5zM281 343q0 38 -21 58.5t-67 41.5l-30 13l-27 13q-36 -48 -36 -107q0 -47 26 -72.5t67 -25.5q40 0 64 22t24 57z" />
    <glyph glyph-name="uni2079" unicode="&#x2079;" horiz-adv-x="409" 
d="M102 256l-4 9q164 45 164 287q0 82 -19 127t-50 45q-28 0 -43 -34.5t-15 -94.5q0 -59 16.5 -91.5t44.5 -32.5q22 0 42 19l7 -8q-41 -48 -103 -48q-51 0 -89.5 38.5t-38.5 99.5q0 72 50 116t131 44q87 0 138 -50t51 -134q2 -108 -82.5 -193t-199.5 -99z" />
    <glyph glyph-name="uni2080" unicode="&#x2080;" horiz-adv-x="456" 
d="M28 20q0 119 52 181.5t147 62.5q92 0 146.5 -60t54.5 -172q0 -119 -53 -181.5t-148 -62.5q-92 0 -145.5 60t-53.5 172zM301 23q0 233 -74 233q-72 0 -72 -227q0 -233 74 -233q72 0 72 227z" />
    <glyph glyph-name="uni2081" unicode="&#x2081;" horiz-adv-x="226" 
d="M174 268h3v-472h-112v374q-29 -9 -50 -11v8q34 7 81 37q44 27 78 64z" />
    <glyph glyph-name="uni2082" unicode="&#x2082;" horiz-adv-x="368" 
d="M341 -112l-26 -96h-303v3l36 38q81 85 122 150.5t41 132.5q0 47 -24.5 72t-65.5 25q-53 0 -95 -54l-9 4q19 37 63 69t108 32q65 0 106.5 -34t41.5 -95q0 -47 -28 -87q-26 -39 -72 -76q-34 -29 -133 -97h36q115 0 202 13z" />
    <glyph glyph-name="uni2083" unicode="&#x2083;" horiz-adv-x="363" 
d="M19 -188l13 60q26 -40 47.5 -57t53.5 -17q41 0 68.5 27.5t27.5 74.5q0 46 -27.5 79.5t-72.5 44.5l-20 5l-2 7l12 4q37 12 62 40.5t25 63.5q0 32 -22.5 51t-56.5 19q-52 0 -93 -50l-8 4q67 96 170 96q55 0 90 -26t35 -67q0 -35 -28.5 -64t-70.5 -37v-2q50 -8 82.5 -44
t32.5 -86q0 -65 -53 -107.5t-140 -42.5q-54 0 -125 24z" />
    <glyph glyph-name="uni2084" unicode="&#x2084;" horiz-adv-x="368" 
d="M352 -33l-19 -68h-37v-107h-111v107h-162l-21 54l260 307h34v-293h56zM31 -33h154v182z" />
    <glyph glyph-name="uni2085" unicode="&#x2085;" horiz-adv-x="346" 
d="M321 -57q0 -67 -52.5 -111t-130.5 -44q-70 0 -123 29l12 44q39 -62 97 -62q43 0 72 26.5t29 67.5q0 51 -41.5 81.5t-124.5 30.5h-17l22 255h254l-27 -83h-221l-7 -73h43q105 0 160 -46t55 -115z" />
    <glyph glyph-name="uni2086" unicode="&#x2086;" horiz-adv-x="409" 
d="M25 -28q-2 109 82 193.5t201 98.5l3 -9q-164 -45 -164 -287q0 -82 19 -127t50 -45q28 0 43 34.5t15 94.5q0 59 -16.5 91.5t-44.5 32.5q-22 0 -42 -19l-7 8q41 48 103 48q51 0 89.5 -38.5t38.5 -99.5q0 -72 -50 -116t-131 -44q-86 0 -138 51q-51 51 -51 133z" />
    <glyph glyph-name="uni2087" unicode="&#x2087;" horiz-adv-x="332" 
d="M20 260h310v-3l-162 -465h-99l220 385h-90q-125 0 -190 -15z" />
    <glyph glyph-name="uni2088" unicode="&#x2088;" horiz-adv-x="395" 
d="M370 -77q0 -58 -51 -96.5t-126 -38.5q-68 0 -118 29q-49 28 -49 80q0 38 26 66t73 43q-84 47 -84 122q0 59 47 97.5t116 38.5q59 0 102 -28q44 -27 44 -74q0 -68 -94 -98q114 -52 114 -141zM130 178q0 -36 20 -57.5t62 -38.5l29 -12l2 -1q33 43 33 101q0 38 -20 62
t-54 24q-35 0 -53.5 -21.5t-18.5 -56.5zM281 -125q0 38 -21 58.5t-67 41.5l-30 13l-27 13q-36 -48 -36 -107q0 -47 26 -72.5t67 -25.5q40 0 64 22t24 57z" />
    <glyph glyph-name="uni2089" unicode="&#x2089;" horiz-adv-x="409" 
d="M102 -212l-4 9q164 45 164 287q0 82 -19 127t-50 45q-28 0 -43 -34.5t-15 -94.5q0 -59 16.5 -91.5t44.5 -32.5q22 0 42 19l7 -8q-41 -48 -103 -48q-51 0 -89.5 38.5t-38.5 99.5q0 72 50 116t131 44q87 0 138 -50t51 -134q2 -108 -82.5 -193t-199.5 -99z" />
    <glyph glyph-name="Euro" unicode="&#x20ac;" horiz-adv-x="700" 
d="M665 169l12 -7q-43 -82 -116 -128t-162 -46q-124 0 -208.5 86t-99.5 224h-64v18h62q-1 9 -1 39q0 31 3 59h-64v18h66q19 143 109.5 225.5t222.5 82.5q67 0 130.5 -32.5t112.5 -83.5l-83 -75q-23 72 -66 123q-42 52 -96 52q-63 0 -93 -80q-29 -81 -32 -212h182l-5 -18
h-177v-16q0 -44 3 -82h142l-6 -18h-134q22 -238 175 -238q54 0 103.5 26.5t83.5 82.5z" />
    <glyph glyph-name="uni2113" unicode="&#x2113;" horiz-adv-x="346" 
d="M314 80l13 -8q-61 -84 -129 -84q-55 0 -85.5 44t-30.5 122v56q-33 -22 -56 -34l-8 14q27 15 64 39v265q0 246 117 246q53 0 86 -47t33 -127q0 -182 -188 -323v-103q0 -133 75 -133q55 0 109 73zM130 508v-245q144 117 144 303q0 76 -20.5 118t-54.5 42q-45 0 -57 -60
t-12 -158z" />
    <glyph glyph-name="uni2116" unicode="&#x2116;" horiz-adv-x="1140" 
d="M578 728h100q-40 -132 -40 -318v-422h-16l-494 610v-280q0 -186 40 -318h-100q40 132 40 318v305l-83 102v3h241l352 -438v120q0 186 -40 318zM688 475q0 88 61 143t153 55t150 -53t58 -142q0 -87 -61 -142.5t-154 -55.5q-91 0 -149 53.5t-58 141.5zM827 476
q0 -182 73 -182q38 0 54.5 44.5t16.5 135.5q0 185 -73 185q-38 0 -54.5 -45.5t-16.5 -137.5zM737 180v18h335v-18h-335z" />
    <glyph glyph-name="uni2117" unicode="&#x2117;" horiz-adv-x="611" 
d="M577 469q2 -109 -80 -190.5t-191 -79.5q-110 -2 -192 79.5t-80 190.5q-2 108 80 190.5t192 80.5q109 2 191 -80.5t80 -190.5zM555 471q2 101 -73.5 177t-175.5 74q-101 2 -176.5 -74t-73.5 -177q-2 -101 73.5 -177.5t176.5 -74.5q100 -2 175.5 74.5t73.5 177.5zM437 541
q0 -46 -35.5 -74.5t-93.5 -28.5q-22 0 -35 3v-139h-29v331h64q62 0 95.5 -23.5t33.5 -68.5zM405 535q0 41 -25.5 63t-71.5 22h-35v-165q13 -3 34 -3q47 0 72.5 21.5t25.5 61.5z" />
    <glyph glyph-name="trademark" unicode="&#x2122;" horiz-adv-x="749" 
d="M26 728h274l8 -26q-47 7 -62 8q-21 3 -55 3h-12v-359h-32v359h-12q-33 0 -56 -3q-14 -1 -61 -8zM694 354h-33l-27 300l-128 -275h-4l-136 273l-11 -135q-8 -120 -8 -163h-25q5 32 17 162l18 212h8l147 -298l138 298h8z" />
    <glyph glyph-name="uni2126" unicode="&#x2126;" horiz-adv-x="768" 
d="M742 58l-18 -58h-287v26q116 85 171 176t55 199q0 142 -77 232.5t-202 90.5q-126 0 -202.5 -88.5t-76.5 -230.5q0 -105 54.5 -197t171.5 -182v-26h-287l-18 58q88 -20 201 -20h60q-125 100 -183 182q-57 82 -57 181q-2 145 95.5 243t241.5 96q152 0 244.5 -92.5
t92.5 -242.5q0 -99 -58 -184q-60 -86 -182 -183h60q113 0 201 20z" />
    <glyph glyph-name="estimated" unicode="&#x212e;" horiz-adv-x="780" 
d="M703 200l16 -8q-49 -97 -134.5 -151.5t-189.5 -54.5q-98 -2 -182 50t-131 140t-46 188q-2 151 105 262t254 108q150 3 256.5 -110t103.5 -270h-591v-229q0 -30 25 -49q94 -70 206 -70q99 0 180.5 51.5t127.5 142.5zM164 591v-217h462v217q0 33 -25 53q-92 70 -206 70
t-206 -70q-25 -19 -25 -53z" />
    <glyph glyph-name="oneeighth" unicode="&#x215b;" horiz-adv-x="742" 
d="M186 736h3v-472h-112v374q-29 -9 -50 -11v8q34 7 81 37q44 27 78 64zM74 0l440 728h23l-440 -728h-23zM717 131q0 -58 -51 -96.5t-126 -38.5q-69 0 -118 28t-49 81q0 38 26 66t73 43q-84 46 -84 122q0 59 47 97.5t116 38.5q59 0 102 -28q44 -27 44 -74q0 -68 -94 -98
q114 -52 114 -141zM477 386q0 -36 20 -57.5t62 -38.5l29 -12l2 -1q33 44 33 101q0 38 -20 62t-54 24q-35 0 -53.5 -21.5t-18.5 -56.5zM628 83q0 38 -21 58.5t-67 41.5l-30 13l-27 13q-36 -48 -36 -107q0 -47 26 -72.5t67 -25.5q40 0 64 22t24 57z" />
    <glyph glyph-name="threeeighths" unicode="&#x215c;" horiz-adv-x="847" 
d="M25 280l13 60q26 -40 47.5 -57t53.5 -17q41 0 68.5 27.5t27.5 74.5q0 46 -27.5 79.5t-72.5 44.5l-20 5l-2 7l12 4q37 12 62 40.5t25 63.5q0 32 -22.5 51t-56.5 19q-52 0 -93 -50l-8 4q67 96 170 96q55 0 90 -26t35 -67q0 -35 -28.5 -64t-70.5 -37v-2q50 -8 82.5 -44
t32.5 -86q0 -65 -53 -107.5t-140 -42.5q-54 0 -125 24zM179 0l440 728h23l-440 -728h-23zM822 131q0 -58 -51 -96.5t-126 -38.5q-69 0 -118 28t-49 81q0 38 26 66t73 43q-84 46 -84 122q0 59 47 97.5t116 38.5q59 0 102 -28q44 -27 44 -74q0 -68 -94 -98q114 -52 114 -141z
M582 386q0 -36 20 -57.5t62 -38.5l29 -12l2 -1q33 44 33 101q0 38 -20 62t-54 24q-35 0 -53.5 -21.5t-18.5 -56.5zM733 83q0 38 -21 58.5t-67 41.5l-30 13l-27 13q-36 -48 -36 -107q0 -47 26 -72.5t67 -25.5q40 0 64 22t24 57z" />
    <glyph glyph-name="fiveeighths" unicode="&#x215d;" horiz-adv-x="834" 
d="M330 411q0 -67 -52.5 -111t-130.5 -44q-70 0 -123 29l12 44q39 -62 97 -62q43 0 72 26.5t29 67.5q0 51 -41.5 81.5t-124.5 30.5h-17l22 255h254l-27 -83h-221l-7 -73h43q105 0 160 -46t55 -115zM166 0l440 728h23l-440 -728h-23zM809 131q0 -58 -51 -96.5t-126 -38.5
q-69 0 -118 28t-49 81q0 38 26 66t73 43q-84 46 -84 122q0 59 47 97.5t116 38.5q59 0 102 -28q44 -27 44 -74q0 -68 -94 -98q114 -52 114 -141zM569 386q0 -36 20 -57.5t62 -38.5l29 -12l2 -1q33 44 33 101q0 38 -20 62t-54 24q-35 0 -53.5 -21.5t-18.5 -56.5zM720 83
q0 38 -21 58.5t-67 41.5l-30 13l-27 13q-36 -48 -36 -107q0 -47 26 -72.5t67 -25.5q40 0 64 22t24 57z" />
    <glyph glyph-name="seveneighths" unicode="&#x215e;" horiz-adv-x="848" 
d="M32 728h310v-3l-162 -465h-99l220 385h-90q-126 0 -190 -15zM174 0l440 728h23l-440 -728h-23zM817 131q0 -58 -51 -96.5t-126 -38.5q-69 0 -118 28t-49 81q0 38 26 66t73 43q-84 46 -84 122q0 59 47 97.5t116 38.5q59 0 102 -28q44 -27 44 -74q0 -68 -94 -98
q114 -52 114 -141zM577 386q0 -36 20 -57.5t62 -38.5l29 -12l2 -1q33 44 33 101q0 38 -20 62t-54 24q-35 0 -53.5 -21.5t-18.5 -56.5zM728 83q0 38 -21 58.5t-67 41.5l-30 13l-27 13q-36 -48 -36 -107q0 -47 26 -72.5t67 -25.5q40 0 64 22t24 57z" />
    <glyph glyph-name="arrowleft" unicode="&#x2190;" horiz-adv-x="810" 
d="M780 364q2 -100 -49 -187.5t-138.5 -139t-187.5 -49.5q-153 -3 -265.5 110t-109.5 266q-3 153 109.5 266t265.5 110q100 2 187.5 -49.5t138.5 -139t49 -187.5zM758 364q3 146 -103 253.5t-250 104.5q-144 3 -250 -104.5t-103 -253.5q-3 -146 103 -253.5t250 -104.5
q144 -3 250 104.5t103 253.5zM643 265q0 -8 -1 -10h-127q-5 22 -24 53q-20 34 -34 48h-136q53 -80 75 -191l-9 -4q-40 52 -112 112q-71 61 -130 91q57 29 130 90q73 62 112 113l9 -4q-22 -111 -75 -191h136q13 13 34 47q19 33 24 54h127q4 -26 -16 -60q-20 -33 -47 -49
q26 -14 45 -43.5t19 -55.5zM568 457h-41q-20 -49 -49 -85h34q17 13 33.5 38t22.5 47zM626 457h-41q-12 -50 -51 -85h28q22 10 41.5 35.5t22.5 49.5zM512 356h-34q29 -36 49 -85h41q-6 22 -22.5 47t-33.5 38zM562 356h-28q39 -35 51 -85h41q-3 24 -22.5 49.5t-41.5 35.5z" />
    <glyph glyph-name="arrowup" unicode="&#x2191;" horiz-adv-x="810" 
d="M780 364q2 -100 -49 -187.5t-138.5 -139t-187.5 -49.5q-153 -3 -265.5 110t-109.5 266q-3 153 109.5 266t265.5 110q100 2 187.5 -49.5t138.5 -139t49 -187.5zM758 364q3 146 -103 253.5t-250 104.5q-144 3 -250 -104.5t-103 -253.5q-3 -146 103 -253.5t250 -104.5
q144 -3 250 104.5t103 253.5zM608 383l-4 -9q-111 22 -191 75v-136q13 -13 47 -34q33 -19 54 -24v-127q-2 -1 -10 -1q-26 0 -55.5 19t-43.5 45q-17 -29 -49 -48q-33 -19 -60 -15v127q22 5 53 24q34 20 48 34v136q-80 -53 -191 -75l-4 9q52 40 112 112q61 71 91 130
q29 -57 90 -130q62 -73 113 -112zM397 258v34q-36 -29 -85 -49v-41q22 6 47 22.5t38 33.5zM498 202v41q-49 20 -85 49v-34q13 -17 38 -33.5t47 -22.5zM397 208v28q-35 -39 -85 -51v-41q24 3 49.5 22.5t35.5 41.5zM498 144v41q-50 12 -85 51v-28q10 -22 35.5 -41.5
t49.5 -22.5z" />
    <glyph glyph-name="arrowright" unicode="&#x2192;" horiz-adv-x="810" 
d="M780 364q2 -100 -49 -187.5t-138.5 -139t-187.5 -49.5q-153 -3 -265.5 110t-109.5 266q-3 153 109.5 266t265.5 110q100 2 187.5 -49.5t138.5 -139t49 -187.5zM758 364q3 146 -103 253.5t-250 104.5q-144 3 -250 -104.5t-103 -253.5q-3 -146 103 -253.5t250 -104.5
q144 -3 250 104.5t103 253.5zM665 364q-59 -30 -130 -91q-72 -60 -112 -112l-9 4q22 111 75 191h-136q-14 -14 -34 -48q-19 -31 -24 -53h-127q-1 2 -1 10q0 26 19 55.5t45 43.5q-29 17 -48 49q-19 33 -15 60h127q5 -21 24 -54q21 -34 34 -47h136q-53 80 -75 191l9 4
q39 -51 112 -113q73 -61 130 -90zM248 372h28q-39 35 -51 85h-41q3 -24 22.5 -49.5t41.5 -35.5zM298 372h34q-29 36 -49 85h-41q6 -22 22.5 -47t33.5 -38zM184 271h41q12 50 51 85h-28q-22 -10 -41.5 -35.5t-22.5 -49.5zM242 271h41q20 49 49 85h-34q-17 -13 -33.5 -38
t-22.5 -47z" />
    <glyph glyph-name="arrowdown" unicode="&#x2193;" horiz-adv-x="810" 
d="M780 364q2 -100 -49 -187.5t-138.5 -139t-187.5 -49.5q-153 -3 -265.5 110t-109.5 266q-3 153 109.5 266t265.5 110q100 2 187.5 -49.5t138.5 -139t49 -187.5zM758 364q3 146 -103 253.5t-250 104.5q-144 3 -250 -104.5t-103 -253.5q-3 -146 103 -253.5t250 -104.5
q144 -3 250 104.5t103 253.5zM604 354l4 -9q-51 -39 -113 -112q-61 -73 -90 -130q-30 59 -91 130q-60 72 -112 112l4 9q111 -22 191 -75v136q-14 14 -48 34q-31 19 -53 24v127q26 4 60 -16q33 -20 49 -47q14 26 43.5 45t55.5 19q8 0 10 -1v-127q-21 -5 -54 -24
q-34 -21 -47 -34v-136q80 53 191 75zM312 584v-41q50 -12 85 -51v28q-10 22 -35.5 41.5t-49.5 22.5zM413 520v-28q35 39 85 51v41q-24 -3 -49.5 -22.5t-35.5 -41.5zM312 526v-41q49 -20 85 -49v34q-13 17 -38 33.5t-47 22.5zM413 470v-34q36 29 85 49v41q-22 -6 -47 -22.5
t-38 -33.5z" />
    <glyph glyph-name="uni2196" unicode="&#x2196;" horiz-adv-x="810" 
d="M780 364q2 -100 -49 -187.5t-138.5 -139t-187.5 -49.5q-153 -3 -265.5 110t-109.5 266q-3 153 109.5 266t265.5 110q100 2 187.5 -49.5t138.5 -139t49 -187.5zM758 364q3 146 -103 253.5t-250 104.5q-144 3 -250 -104.5t-103 -253.5q-3 -146 103 -253.5t250 -104.5
q144 -3 250 104.5t103 253.5zM560 363l90 -90q-25 -36 -91 -36q-17 0 -30 3q3 -14 3 -30q0 -66 -36 -91l-90 90q12 22 20 55q10 34 10 58l-97 96q-17 -94 -81 -188l-9 3q4 25 4 72q0 145 -32 243q98 -32 243 -32q47 0 72 4l3 -9q-94 -64 -188 -81l96 -97q22 0 58 9
q35 10 55 21zM500 293q47 0 86 22l-28 28q-49 -20 -96 -25l24 -24q3 -1 14 -1zM426 211l28 -28q22 39 22 86q0 11 -1 14l-24 24q-5 -47 -25 -96zM556 253q43 0 71 20l-29 30q-45 -29 -97 -24l21 -21q15 -5 34 -5zM516 213q0 21 -5 34l-21 21q5 -52 -24 -97l30 -29
q20 28 20 71z" />
    <glyph glyph-name="uni2197" unicode="&#x2197;" horiz-adv-x="810" 
d="M780 364q2 -100 -49 -187.5t-138.5 -139t-187.5 -49.5q-153 -3 -265.5 110t-109.5 266q-3 153 109.5 266t265.5 110q100 2 187.5 -49.5t138.5 -139t49 -187.5zM758 364q3 146 -103 253.5t-250 104.5q-144 3 -250 -104.5t-103 -253.5q-3 -146 103 -253.5t250 -104.5
q144 -3 250 104.5t103 253.5zM346 516q145 0 243 32q-32 -98 -32 -243q0 -47 4 -72l-9 -3q-64 94 -81 188l-97 -96q0 -22 9 -58q10 -35 21 -55l-90 -90q-36 25 -36 91q0 16 3 30q-13 -3 -30 -3q-66 0 -91 36l90 90q20 -11 55 -21q36 -9 58 -9l96 97q-94 17 -188 81l3 9
q25 -4 72 -4zM324 294l24 24q-47 5 -96 25l-28 -28q39 -22 86 -22q11 0 14 1zM359 307l-24 -24q-1 -3 -1 -14q0 -47 22 -86l28 28q-20 49 -25 96zM254 253q19 0 34 5l21 21q-52 -5 -97 24l-29 -30q28 -20 71 -20zM294 213q0 -43 20 -71l30 29q-29 45 -24 97l-21 -21
q-5 -13 -5 -34z" />
    <glyph glyph-name="uni2198" unicode="&#x2198;" horiz-adv-x="810" 
d="M780 364q2 -100 -49 -187.5t-138.5 -139t-187.5 -49.5q-153 -3 -265.5 110t-109.5 266q-3 153 109.5 266t265.5 110q100 2 187.5 -49.5t138.5 -139t49 -187.5zM758 364q3 146 -103 253.5t-250 104.5q-144 3 -250 -104.5t-103 -253.5q-3 -146 103 -253.5t250 -104.5
q144 -3 250 104.5t103 253.5zM557 423q0 -145 32 -243q-98 32 -243 32q-47 0 -72 -4l-3 9q94 64 188 81l-96 97q-24 0 -58 -10q-33 -8 -55 -20l-90 90q25 36 91 36q17 0 30 -3q-3 14 -3 30q0 66 36 91l90 -90q-11 -20 -21 -55q-9 -36 -9 -58l97 -96q17 94 81 188l9 -3
q-4 -25 -4 -72zM294 515q0 -19 5 -34l21 -21q-5 52 24 97l-30 29q-20 -28 -20 -71zM384 517l-28 28q-22 -39 -22 -86q0 -11 1 -14l24 -24q5 47 25 96zM254 475q-43 0 -71 -20l29 -30q45 29 97 24l-21 21q-13 5 -34 5zM310 435q-47 0 -86 -22l28 -28q49 20 96 25l-24 24
q-3 1 -14 1z" />
    <glyph glyph-name="uni2199" unicode="&#x2199;" horiz-adv-x="810" 
d="M780 364q2 -100 -49 -187.5t-138.5 -139t-187.5 -49.5q-153 -3 -265.5 110t-109.5 266q-3 153 109.5 266t265.5 110q100 2 187.5 -49.5t138.5 -139t49 -187.5zM758 364q3 146 -103 253.5t-250 104.5q-144 3 -250 -104.5t-103 -253.5q-3 -146 103 -253.5t250 -104.5
q144 -3 250 104.5t103 253.5zM559 491q66 0 91 -36l-90 -90q-22 12 -55 20q-34 10 -58 10l-96 -97q94 -17 188 -81l-3 -9q-25 4 -72 4q-145 0 -243 -32q32 98 32 243q0 47 -4 72l9 3q64 -94 81 -188l97 96q0 24 -10 58q-8 33 -20 55l90 90q36 -25 36 -91q0 -16 -3 -30
q13 3 30 3zM516 515q0 43 -20 71l-30 -29q29 -45 24 -97l21 21q5 15 5 34zM451 421l24 24q1 3 1 14q0 47 -22 86l-28 -28q20 -49 25 -96zM556 475q-19 0 -34 -5l-21 -21q52 5 97 -24l29 30q-28 20 -71 20zM486 434l-24 -24q47 -5 96 -25l28 28q-39 22 -86 22q-11 0 -14 -1z
" />
    <glyph glyph-name="partialdiff" unicode="&#x2202;" horiz-adv-x="513" 
d="M477 418q2 -188 -75.5 -310.5t-197.5 -119.5q-84 0 -135.5 56t-51.5 148q0 103 64 168t164 65t175 -82q3 35 3 73q0 142 -41.5 220t-119.5 78q-44 0 -92 -24t-79 -62l-12 12q82 100 194 100q98 0 151 -83.5t53 -238.5zM418 317q-71 88 -167 88q-84 0 -132 -54.5
t-48 -148.5q0 -87 40 -143.5t102 -56.5q75 0 131.5 87.5t73.5 227.5z" />
    <glyph glyph-name="uni2206" unicode="&#x2206;" horiz-adv-x="612" 
d="M308 740l287 -740h-578l287 740h4zM531 18l-243 631l-245 -631h488z" />
    <glyph glyph-name="product" unicode="&#x220f;" horiz-adv-x="648" 
d="M515 708v-768h-52v770h-64h-150h-64v-770h-52v768q-53 -4 -110 -10l12 30h578l12 -30q-57 6 -110 10z" />
    <glyph glyph-name="summation" unicode="&#x2211;" horiz-adv-x="537" 
d="M514 -22h2l-16 -38h-479v4l239 396l-231 384v4h459l12 -38h-2q-76 10 -147 15q-78 5 -165 5h-89l225 -369l-233 -383h104q186 0 321 20z" />
    <glyph glyph-name="minus" unicode="&#x2212;" horiz-adv-x="508" 
d="M50 354v20h408v-20h-408z" />
    <glyph glyph-name="uni2215" unicode="&#x2215;" horiz-adv-x="405" 
d="M-29 0l440 728h23l-440 -728h-23z" />
    <glyph glyph-name="uni2219" unicode="&#x2219;" horiz-adv-x="364" 
d="M182 222l-112 112l112 112l112 -112z" />
    <glyph glyph-name="radical" unicode="&#x221a;" horiz-adv-x="517" 
d="M511 713l20 -6l-271 -719h-4l-187 409h-82v16h120l160 -349z" />
    <glyph glyph-name="infinity" unicode="&#x221e;" horiz-adv-x="806" 
d="M776 355q0 -63 -46 -109t-110 -46q-65 0 -115 32t-102 99q-52 -67 -102 -99t-115 -32q-64 0 -110 46t-46 109t46 109t110 46q65 0 115 -32t102 -99q52 67 102 99t115 32q64 0 110 -46t46 -109zM385 356q-57 74 -96.5 103t-102.5 31q-53 0 -91.5 -39.5t-38.5 -95.5
t38.5 -95.5t91.5 -39.5q42 0 76 17q32 16 58 42t65 77zM750 355q0 56 -38.5 95.5t-91.5 39.5q-41 0 -77 -17q-31 -16 -57.5 -42.5t-64.5 -76.5q57 -74 96.5 -103t102.5 -31q53 0 91.5 39.5t38.5 95.5z" />
    <glyph glyph-name="integral" unicode="&#x222b;" horiz-adv-x="428" 
d="M-35 -228v14q60 9 98.5 56t46.5 123l69 663q10 90 53 138t112 48q63 0 119 -35l-6 -12q-47 23 -99 23q-115 0 -132 -170l-68 -655q-8 -81 -58 -131t-135 -62z" />
    <glyph glyph-name="approxequal" unicode="&#x2248;" horiz-adv-x="508" 
d="M251 422q-59 29 -91 29q-55 0 -95 -31l-14 16q47 35 109 35q33 0 101 -31q61 -29 90 -29q55 0 95 31l14 -16q-47 -35 -109 -35q-36 0 -100 31zM251 279q-59 29 -91 29q-55 0 -95 -31l-14 16q47 35 109 35q33 0 101 -31q61 -29 90 -29q55 0 95 31l14 -16q-47 -35 -109 -35
q-36 0 -100 31z" />
    <glyph glyph-name="notequal" unicode="&#x2260;" horiz-adv-x="508" 
d="M458 426h-153l-77 -124h230v-20h-242l-82 -132l-18 12l74 120h-140v20h153l77 124h-230v20h242l82 132l18 -12l-74 -120h140v-20z" />
    <glyph glyph-name="lessequal" unicode="&#x2264;" horiz-adv-x="508" 
d="M454 544l-379 -180l379 -180l-10 -18l-398 189v18l398 189zM46 12v20h408v-20h-408z" />
    <glyph glyph-name="greaterequal" unicode="&#x2265;" horiz-adv-x="508" 
d="M64 562l398 -189v-18l-398 -189l-10 18l379 180l-379 180zM54 12v20h408v-20h-408z" />
    <glyph glyph-name="uni25B4" unicode="&#x25b4;" horiz-adv-x="308" 
d="M27 251l127 227l127 -227h-254z" />
    <glyph glyph-name="uni25B8" unicode="&#x25b8;" horiz-adv-x="313" 
d="M252 237l-227 127l227 128v-255z" />
    <glyph glyph-name="uni25BE" unicode="&#x25be;" horiz-adv-x="308" 
d="M154 251l-127 227h254z" />
    <glyph glyph-name="uni25C2" unicode="&#x25c2;" horiz-adv-x="313" 
d="M61 237v255l227 -128z" />
    <glyph glyph-name="lozenge" unicode="&#x25ca;" horiz-adv-x="500" 
d="M252 740l224 -370l-224 -370h-4l-224 370l224 370h4zM230 64l186 306l-186 306l-186 -306z" />
    <glyph glyph-name="uni2610" unicode="&#x2610;" horiz-adv-x="726" 
d="M64 596h598v-596h-598v596zM640 576h-554v-556h554v556z" />
    <glyph glyph-name="uni2611" unicode="&#x2611;" horiz-adv-x="726" 
d="M382 184q113 241 333 539l21 -13l-364 -590q-80 141 -168 246l36 25q83 -101 142 -207zM640 20v428l22 36v-484h-598v596h481l-12 -20h-447v-556h554z" />
    <glyph glyph-name="uni2612" unicode="&#x2612;" horiz-adv-x="726" 
d="M64 596h598v-596h-598v596zM640 576h-554v-556h554v556zM179 129l169 169l-169 169l15 15l169 -169l169 169l15 -15l-169 -169l169 -169l-15 -15l-169 169l-169 -169z" />
    <glyph glyph-name="uni2661" unicode="&#x2661;" horiz-adv-x="964" 
d="M932 383q0 -86 -42 -152q-40 -64 -98 -108t-141 -92q-135 -80 -164 -161l-13 -6q-11 45 -39.5 74t-125.5 89q-112 71 -155 104q-122 95 -122 233q0 116 72.5 193.5t178.5 77.5q67 0 121 -32t82 -85q33 53 88 84.5t122 31.5q102 0 169 -71t67 -180zM631 42l20 12
q64 38 112 75q117 91 117 239q0 106 -58 177.5t-143 71.5q-69 0 -124 -48q-53 -46 -70 -120l-9 -4q-17 71 -76 121.5t-130 50.5q-82 0 -134 -66.5t-52 -170.5q0 -85 34 -143q35 -60 83 -96q56 -42 139 -95q60 -37 90.5 -63t50.5 -59q41 52 150 118z" />
    <glyph glyph-name="heart" unicode="&#x2665;" horiz-adv-x="964" 
d="M932 383q0 -86 -42 -152q-40 -64 -98 -108t-141 -92q-135 -80 -164 -161l-13 -6q-11 45 -39.5 74t-125.5 89q-112 71 -155 104q-122 95 -122 233q0 116 72.5 193.5t178.5 77.5q68 0 122.5 -34t79.5 -90q32 57 87 90t124 33q102 0 169 -71t67 -180z" />
    <glyph glyph-name="uni2713" unicode="&#x2713;" horiz-adv-x="726" 
d="M715 723l21 -13l-364 -590q-80 141 -168 246l36 25q83 -101 142 -207q113 241 333 539z" />
    <glyph glyph-name="uni275B" unicode="&#x275b;" horiz-adv-x="305" 
d="M29 215q0 88 59 166t163 113l4 -10q-72 -25 -109.5 -73t-37.5 -101q0 -59 41 -92.5t123 -33.5v-184q-114 0 -178.5 62t-64.5 153z" />
    <glyph glyph-name="uni275C" unicode="&#x275c;" horiz-adv-x="311" 
d="M57 234l-4 10q72 25 109.5 73t37.5 101q0 59 -41 92.5t-123 33.5v184q114 0 178.5 -62t64.5 -153q0 -88 -59 -166t-163 -113z" />
    <glyph glyph-name="uni275D" unicode="&#x275d;" horiz-adv-x="561" 
d="M29 215q0 88 59 166t163 113l4 -10q-72 -25 -109.5 -73t-37.5 -101q0 -59 41 -92.5t123 -33.5v-184q-114 0 -178.5 62t-64.5 153zM285 215q0 88 59 166t163 113l4 -10q-72 -25 -109.5 -73t-37.5 -101q0 -59 41 -92.5t123 -33.5v-184q-114 0 -178.5 62t-64.5 153z" />
    <glyph glyph-name="uni275E" unicode="&#x275e;" horiz-adv-x="567" 
d="M57 234l-4 10q72 25 109.5 73t37.5 101q0 59 -41 92.5t-123 33.5v184q114 0 178.5 -62t64.5 -153q0 -88 -59 -166t-163 -113zM313 234l-4 10q72 25 109.5 73t37.5 101q0 56 -39 90t-115 36v184q109 -3 171 -64t62 -151q0 -88 -59 -166t-163 -113z" />
    <glyph glyph-name="uni2766" unicode="&#x2766;" horiz-adv-x="1027" 
d="M617 743q-78 -113 -97 -317q38 60 102 91q64 33 131 33q74 0 121.5 -39.5t47.5 -107.5q0 -44 -20 -86q-12 -26 -31 -52.5t-35.5 -45t-57.5 -60.5q-43 -43 -75 -80q-66 -77 -66 -154q0 -52 28 -80.5t74 -28.5q90 0 166 101l11 -4q-51 -76 -109 -113.5t-140 -37.5
q-134 0 -257 93t-198 233t-75 269q0 81 39 130t98 49q86 0 157 -97q-3 -26 -5 -79v-89q0 -93 28 -192q29 -100 75 -155q-61 120 -61 368q0 308 121 461q-109 40 -183 61q-69 20 -133 20q-82 0 -133.5 -34t-51.5 -90q0 -26 20 -63l-44 -16q-24 41 -24 87q0 66 57.5 108
t152.5 42q73 0 145 -22q83 -25 185 -64l25 -9q95 107 242 107q72 0 114 -24.5t42 -65.5q0 -43 -44.5 -71t-113.5 -28q-78 0 -228 52zM631 762q145 -55 218 -55q53 0 82.5 22.5t29.5 57.5q0 36 -33 56.5t-89 20.5q-125 0 -208 -102z" />
    <glyph glyph-name="uniFB00" unicode="&#xfb00;" horiz-adv-x="741" 
d="M620 650v-106h133l-13 -22h-120v-522h-188v522h-167v-522h-188v522h-57v22h57v70q0 89 56.5 141.5t143.5 52.5q85 0 175 -57l-9 -13q-36 16 -73 16q-47 0 -76 -29t-29 -81v-100h167v76q0 89 56.5 141.5t143.5 52.5q103 0 194 -67l-9 -12q-46 25 -92 25q-47 0 -76 -29
t-29 -81z" />
    <glyph glyph-name="fi" unicode="&#xfb01;" horiz-adv-x="706" 
d="M671 718l-112 -112l-112 112l112 112zM566 544l83 18h4v-562h-188v522h-200v-522h-188v522h-57v22h57v76q0 91 55 142q55 52 141 52q72 0 153 -49l-5 -13q-29 8 -51 8q-47 0 -76 -29t-29 -81v-106h301z" />
    <glyph glyph-name="fl" unicode="&#xfb02;" horiz-adv-x="703" 
d="M646 810h4v-810h-188v735q-46 25 -92 25q-47 0 -76 -29t-29 -81v-106h133l-13 -22h-120v-522h-188v522h-57v22h57v76q0 89 56.5 141.5t143.5 52.5q101 0 187 -62z" />
    <glyph glyph-name="uniFB03" unicode="&#xfb03;" horiz-adv-x="1061" 
d="M1026 718l-112 -112l-112 112l112 112zM921 544l83 18h4v-562h-188v522h-200v-522h-188v522h-167v-522h-188v522h-57v22h57v70q0 89 56.5 141.5t143.5 52.5q85 0 175 -57l-9 -13q-36 16 -73 16q-47 0 -76 -29t-29 -81v-100h167v76q0 91 55 142q55 52 141 52q72 0 153 -49
l-5 -13q-29 8 -51 8q-47 0 -76 -29t-29 -81v-106h301z" />
    <glyph glyph-name="uniFEFF" unicode="&#xfeff;" 
 />
    <glyph glyph-name="NULL" 
 />
    <glyph glyph-name="i.latn_TRK" horiz-adv-x="292" 
d="M51 0v521l184 41h4v-562h-188zM145 606l-112 112l112 112l112 -112z" />
    <glyph glyph-name="Ldot.latn_CAT" horiz-adv-x="551" 
d="M506 150h2l-26 -150h-418v728h202v-710h10q51 0 103 28q55 29 127 104zM423 338l-112 112l112 112l112 -112z" />
    <glyph glyph-name="ldot.latn_CAT" horiz-adv-x="510" 
d="M53 0v759l184 51h4v-810h-188zM401 278l-112 112l112 112l112 -112z" />
    <glyph glyph-name="zero.numr" horiz-adv-x="456" 
d="M28 488q0 119 52 181.5t147 62.5q92 0 146.5 -60t54.5 -172q0 -119 -53 -181.5t-148 -62.5q-92 0 -145.5 60t-53.5 172zM301 491q0 233 -74 233q-72 0 -72 -227q0 -233 74 -233q72 0 72 227z" />
    <glyph glyph-name="one.numr" horiz-adv-x="226" 
d="M174 736h3v-472h-112v374q-29 -9 -50 -11v8q34 7 81 37q44 27 78 64z" />
    <glyph glyph-name="two.numr" horiz-adv-x="368" 
d="M342 356l-26 -96h-303v3l36 38q81 85 122 150.5t41 132.5q0 47 -24.5 72t-65.5 25q-53 0 -95 -54l-9 4q20 37 63 69q44 32 108 32q65 0 106.5 -34t41.5 -95q0 -47 -28 -87q-26 -39 -72 -76q-34 -29 -133 -97h36q115 0 202 13z" />
    <glyph glyph-name="three.numr" horiz-adv-x="363" 
d="M19 280l13 60q26 -40 47.5 -57t53.5 -17q41 0 68.5 27.5t27.5 74.5q0 46 -27.5 79.5t-72.5 44.5l-20 5l-2 7l12 4q37 12 62 40.5t25 63.5q0 32 -22.5 51t-56.5 19q-52 0 -93 -50l-8 4q67 96 170 96q55 0 90 -26t35 -67q0 -35 -28.5 -64t-70.5 -37v-2q50 -8 82.5 -44
t32.5 -86q0 -65 -53 -107.5t-140 -42.5q-54 0 -125 24z" />
    <glyph glyph-name="four.numr" horiz-adv-x="368" 
d="M351 435l-19 -68h-37v-107h-111v107h-162l-21 54l260 307h34v-293h56zM30 435h154v182z" />
    <glyph glyph-name="five.numr" horiz-adv-x="346" 
d="M321 411q0 -67 -52.5 -111t-130.5 -44q-70 0 -123 29l12 44q39 -62 97 -62q43 0 72 26.5t29 67.5q0 51 -41.5 81.5t-124.5 30.5h-17l22 255h254l-27 -83h-221l-7 -73h43q105 0 160 -46t55 -115z" />
    <glyph glyph-name="six.numr" horiz-adv-x="409" 
d="M25 440q-2 109 82 193.5t201 98.5l3 -9q-164 -45 -164 -287q0 -82 19 -127t50 -45q28 0 43 34.5t15 94.5q0 59 -16.5 91.5t-44.5 32.5q-22 0 -42 -19l-7 8q41 48 103 48q51 0 89.5 -38.5t38.5 -99.5q0 -72 -50 -116t-131 -44q-86 0 -138 51q-51 51 -51 133z" />
    <glyph glyph-name="seven.numr" horiz-adv-x="332" 
d="M19 728h310v-3l-162 -465h-99l220 385h-90q-126 0 -190 -15z" />
    <glyph glyph-name="eight.numr" horiz-adv-x="395" 
d="M370 391q0 -58 -51 -96.5t-126 -38.5q-69 0 -118 28t-49 81q0 38 26 66t73 43q-84 46 -84 122q0 59 47 97.5t116 38.5q59 0 102 -28q44 -27 44 -74q0 -68 -94 -98q114 -52 114 -141zM130 646q0 -36 20 -57.5t62 -38.5l29 -12l2 -1q33 43 33 101q0 38 -20 62t-54 24
q-35 0 -53.5 -21.5t-18.5 -56.5zM281 343q0 38 -21 58.5t-67 41.5l-30 13l-27 13q-36 -48 -36 -107q0 -47 26 -72.5t67 -25.5q40 0 64 22t24 57z" />
    <glyph glyph-name="nine.numr" horiz-adv-x="409" 
d="M102 256l-4 9q164 45 164 287q0 82 -19 127t-50 45q-28 0 -43 -34.5t-15 -94.5q0 -59 16.5 -91.5t44.5 -32.5q22 0 42 19l7 -8q-41 -48 -103 -48q-51 0 -89.5 38.5t-38.5 99.5q0 72 50 116t131 44q87 0 138 -50t51 -134q2 -108 -82.5 -193t-199.5 -99z" />
    <glyph glyph-name="zero.dnom" horiz-adv-x="456" 
d="M28 228q0 119 52 181.5t147 62.5q92 0 146.5 -60t54.5 -172q0 -119 -53 -181.5t-148 -62.5q-92 0 -145.5 60t-53.5 172zM301 231q0 233 -74 233q-72 0 -72 -227q0 -233 74 -233q72 0 72 227z" />
    <glyph glyph-name="one.dnom" horiz-adv-x="226" 
d="M174 472h3v-472h-112v374q-29 -9 -50 -11v8q34 7 81 37q44 27 78 64z" />
    <glyph glyph-name="two.dnom" horiz-adv-x="368" 
d="M341 96l-26 -96h-303v3l36 38q81 85 122 150.5t41 132.5q0 47 -24.5 72t-65.5 25q-53 0 -95 -54l-9 4q19 37 63 69t108 32q65 0 106.5 -34t41.5 -95q0 -47 -28 -87q-26 -39 -72 -76q-34 -29 -133 -97h36q115 0 202 13z" />
    <glyph glyph-name="three.dnom" horiz-adv-x="363" 
d="M19 20l13 60q26 -40 47.5 -57t53.5 -17q41 0 68.5 27.5t27.5 74.5q0 46 -27.5 79.5t-72.5 44.5l-20 5l-2 7l12 4q37 12 62 40.5t25 63.5q0 32 -22.5 51t-56.5 19q-52 0 -93 -50l-8 4q67 96 170 96q55 0 90 -26t35 -67q0 -35 -28.5 -64t-70.5 -37v-2q50 -8 82.5 -44
t32.5 -86q0 -65 -53 -107.5t-140 -42.5q-54 0 -125 24z" />
    <glyph glyph-name="four.dnom" horiz-adv-x="368" 
d="M352 175l-19 -68h-37v-107h-111v107h-162l-21 54l260 307h34v-293h56zM31 175h154v182z" />
    <glyph glyph-name="five.dnom" horiz-adv-x="346" 
d="M321 151q0 -67 -52.5 -111t-130.5 -44q-70 0 -123 29l12 44q39 -62 97 -62q43 0 72 26.5t29 67.5q0 51 -41.5 81.5t-124.5 30.5h-17l22 255h254l-27 -83h-221l-7 -73h43q105 0 160 -46t55 -115z" />
    <glyph glyph-name="six.dnom" horiz-adv-x="409" 
d="M25 180q-2 109 82 193.5t201 98.5l3 -9q-164 -45 -164 -287q0 -82 19 -127t50 -45q28 0 43 34.5t15 94.5q0 59 -16.5 91.5t-44.5 32.5q-22 0 -42 -19l-7 8q41 48 103 48q51 0 89.5 -38.5t38.5 -99.5q0 -72 -50 -116t-131 -44q-86 0 -138 51q-51 51 -51 133z" />
    <glyph glyph-name="seven.dnom" horiz-adv-x="332" 
d="M20 468h310v-3l-162 -465h-99l220 385h-90q-125 0 -190 -15z" />
    <glyph glyph-name="eight.dnom" horiz-adv-x="395" 
d="M370 131q0 -58 -51 -96.5t-126 -38.5q-69 0 -118 28t-49 81q0 38 26 66t73 43q-84 46 -84 122q0 59 47 97.5t116 38.5q59 0 102 -28q44 -27 44 -74q0 -68 -94 -98q114 -52 114 -141zM130 386q0 -36 20 -57.5t62 -38.5l29 -12l2 -1q33 43 33 101q0 38 -20 62t-54 24
q-35 0 -53.5 -21.5t-18.5 -56.5zM281 83q0 38 -21 58.5t-67 41.5l-30 13l-27 13q-36 -48 -36 -107q0 -47 26 -72.5t67 -25.5q40 0 64 22t24 57z" />
    <glyph glyph-name="nine.dnom" horiz-adv-x="409" 
d="M102 -4l-4 9q164 45 164 287q0 82 -19 127t-50 45q-28 0 -43 -34.5t-15 -94.5q0 -59 16.5 -91.5t44.5 -32.5q22 0 42 19l7 -8q-41 -48 -103 -48q-51 0 -89.5 38.5t-38.5 99.5q0 72 50 116t131 44q87 0 138 -50t51 -134q2 -108 -82.5 -193t-199.5 -99z" />
    <glyph glyph-name="parenleft.case" horiz-adv-x="222" 
d="M35 354q0 135 38 231q37 94 118 197l13 -9q-68 -89 -96 -183q-29 -96 -29 -230t29 -233q28 -95 96 -184l-13 -9q-54 68 -87 126q-69 124 -69 294z" />
    <glyph glyph-name="parenright.case" horiz-adv-x="221" 
d="M31 -66l-13 9q68 89 96 184q29 99 29 233t-29 230q-28 94 -96 183l13 9q81 -103 118 -197q38 -96 38 -231q0 -94 -18 -164q-30 -120 -138 -256z" />
    <glyph glyph-name="hyphen.case" horiz-adv-x="301" 
d="M43 352v38h215v-38h-215z" />
    <glyph glyph-name="bracketleft.case" horiz-adv-x="240" 
d="M244 782v-12h-156q10 -125 15 -215q5 -98 5 -197t-5 -197q-5 -90 -15 -215h156v-12h-180v848h180z" />
    <glyph glyph-name="bracketright.case" horiz-adv-x="240" 
d="M-4 782h180v-848h-180v12h156q-13 156 -16 215q-4 79 -4 197t4 197q3 59 16 215h-156v12z" />
    <glyph glyph-name="braceleft.case" horiz-adv-x="331" 
d="M199 675q0 -34 21 -97q19 -50 19 -80q0 -55 -53 -93.5t-118 -46.5q67 -10 119 -47t52 -92q0 -27 -19 -82q-21 -60 -21 -95q0 -46 31.5 -71t91.5 -25v-12q-143 0 -205 30.5t-62 103.5q0 37 29 102q25 54 25 84q0 39 -22.5 65.5t-66.5 32.5v12q44 6 66.5 32.5t22.5 66.5
q0 30 -25 84q-29 63 -29 102q0 74 61.5 103.5t205.5 29.5v-12q-60 0 -91.5 -24.5t-31.5 -70.5z" />
    <glyph glyph-name="braceright.case" horiz-adv-x="331" 
d="M222 254q0 -30 25 -84q29 -65 29 -102q0 -73 -62 -103.5t-205 -30.5v12q60 0 91.5 25t31.5 71q0 35 -21 95q-19 55 -19 82q0 55 52 92t119 47q-65 8 -118 46.5t-53 93.5q0 30 19 80q21 63 21 97q0 46 -31.5 70.5t-91.5 24.5v12q144 0 205.5 -29.5t61.5 -103.5
q0 -39 -29 -102q-25 -54 -25 -84q0 -40 22.5 -66.5t66.5 -32.5v-12q-44 -6 -66.5 -32.5t-22.5 -65.5z" />
    <glyph glyph-name="exclamdown.case" horiz-adv-x="276" 
d="M138 752l112 -112l-112 -112l-112 112zM129 484h18l92 -484h-202z" />
    <glyph glyph-name="guillemotleft.case" horiz-adv-x="520" 
d="M273 630l-110 -252l110 -252h-12l-232 252l232 252h12zM483 630l-110 -252l110 -252h-12l-232 252l232 252h12z" />
    <glyph glyph-name="uni00AD.case" horiz-adv-x="301" 
d="M43 352v38h215v-38h-215z" />
    <glyph glyph-name="periodcentered.case" horiz-adv-x="250" 
d="M125 338l-112 112l112 112l112 -112z" />
    <glyph glyph-name="guillemotright.case" horiz-adv-x="520" 
d="M49 630l232 -252l-232 -252h-12l110 252l-110 252h12zM259 630l232 -252l-232 -252h-12l110 252l-110 252h12z" />
    <glyph glyph-name="questiondown.case" horiz-adv-x="519" 
d="M279 752l112 -112l-112 -112l-112 112zM354 422q0 -22 -11.5 -41.5t-42.5 -55.5q-39 -44 -55.5 -75.5t-16.5 -71.5q0 -56 33.5 -89t88.5 -33q71 0 140 66l12 -8q-28 -40 -93 -84q-64 -42 -163 -42q-100 0 -159 47t-59 125q0 50 27 86q26 33 60.5 55t101.5 52
q58 26 81.5 42.5t23.5 37.5q0 16 -11.5 26.5t-32.5 10.5q-10 0 -25 -3l-3 14q13 3 28 3q33 0 54.5 -16.5t21.5 -45.5z" />
    <glyph glyph-name="gravecomb.case" 
d="M-178 784l-220 196h178l49 -191z" />
    <glyph glyph-name="acutecomb.case" 
d="M-222 784l-7 5l49 191h178z" />
    <glyph glyph-name="uni0302.case" 
d="M-19 789l-6 -5l-175 75l-175 -75l-6 5l178 191h6z" />
    <glyph glyph-name="tildecomb.case" 
d="M-372 796l-11 3q7 72 34 113.5t67 41.5q37 0 104 -35q51 -27 76 -27q53 0 74 62l11 -3q-7 -72 -34 -113.5t-68 -41.5q-37 0 -104 35q-53 27 -75 27q-54 0 -74 -62z" />
    <glyph glyph-name="uni0304.case" 
d="M-363 832v52h327v-52h-327z" />
    <glyph glyph-name="uni0306.case" 
d="M-377 971l9 3q22 -38 67.5 -61t100.5 -23t101 23.5t68 60.5l9 -3q-46 -175 -178 -175q-131 0 -177 175z" />
    <glyph glyph-name="uni0307.case" 
d="M-200 784l-112 112l112 112l112 -112z" />
    <glyph glyph-name="uni0308.case" 
d="M-335 784l-93 93l93 93l93 -93zM-105 784l-93 93l93 93l93 -93z" />
    <glyph glyph-name="uni030A.case" 
d="M-333 893q0 50 36.5 79.5t96.5 29.5t96.5 -29.5t36.5 -79.5t-36.5 -79.5t-96.5 -29.5t-96.5 29.5t-36.5 79.5zM-137 893q0 44 -16.5 69.5t-46.5 25.5t-46.5 -25.5t-16.5 -69.5t16.5 -69.5t46.5 -25.5t46.5 25.5t16.5 69.5z" />
    <glyph glyph-name="uni030B.case" 
d="M-402 784l-7 5l57 191h150zM-232 784l-7 5l57 191h150z" />
    <glyph glyph-name="uni030C.case" 
d="M-25 980l6 -5l-178 -191h-6l-178 191l6 5l175 -75z" />
    <glyph glyph-name="uni0326.case" 
d="M-256 -283l-5 5q25 12 43 35t18 46q0 52 -74 72l61 75q44 -9 70.5 -37t26.5 -67q0 -48 -43 -79q-44 -33 -97 -50z" />
    <glyph glyph-name="uni0327.case" 
d="M-56 -139q0 -43 -37.5 -71t-100.5 -28q-74 0 -107 27l3 9q8 -3 32 -6t41 -3q31 0 47 12.5t16 32.5q0 46 -76 46h-26l54 120h20l-19 -42q73 -3 113 -29.5t40 -67.5z" />
    <glyph glyph-name="uni0328.case" 
d="M-329 -160q0 49 41.5 87t123.5 74h15q-38 -40 -51.5 -67t-13.5 -54q0 -64 58 -64q28 0 64 16l3 -5q-27 -31 -66.5 -48t-79.5 -17q-45 0 -69.5 20t-24.5 58z" />
    <glyph glyph-name="endash.case" horiz-adv-x="434" 
d="M22 381v18h390v-18h-390z" />
    <glyph glyph-name="emdash.case" horiz-adv-x="724" 
d="M22 381v18h680v-18h-680z" />
    <glyph glyph-name="bullet.case" horiz-adv-x="358" 
d="M179 265l-134 134l134 134l134 -134z" />
    <glyph glyph-name="guilsinglleft.case" horiz-adv-x="311" 
d="M272 615l-110 -252l110 -252h-12l-232 252l232 252h12z" />
    <glyph glyph-name="guilsinglright.case" horiz-adv-x="311" 
d="M51 615l232 -252l-232 -252h-12l110 252l-110 252h12z" />
    <glyph glyph-name="A_A" horiz-adv-x="1088" 
d="M876 0l-107 232h-195l104 -232h-221l-104 232h-225q-38 -102 -38 -167q0 -28 8 -65h-118q43 71 78 139q35 69 86 183l193 430h4l205 -458l197 458h4l351 -752h-222zM566 250h195l-113 246l-88 -232zM135 250h210l-106 236l-77 -172z" />
    <glyph glyph-name="A_N_D" horiz-adv-x="988" 
d="M67 238q0 -13 3 -25h-61q25 42 35 62q20 39 41 86l87 194h4l145 -309q8 46 8 112v137l-37 46v3h119l152 -188v43q0 85 -17 145h50q-17 -60 -17 -145v-192h-16l-218 269v-118q0 -91 17 -145h-139l-48 103h-91q-17 -48 -17 -78zM740 213h-116v331h133q92 0 146 -43.5
t54 -119.5q0 -79 -57.5 -123.5t-159.5 -44.5zM755 531h-27v-303q22 -2 29 -2q88 0 88 154q0 70 -24.5 110.5t-65.5 40.5zM128 418l-28 -62l-11 -26h80zM29 132v14h897v-14h-897z" />
    <glyph glyph-name="C_A" horiz-adv-x="1278" 
d="M963 232h-225q-38 -102 -38 -167q0 -28 8 -65h-98l82 176q-55 -86 -134.5 -137t-176.5 -51q-152 -2 -251.5 103t-97.5 264q0 176 105 280.5t273 104.5q78 0 150 -35t122 -81l-82 -75q-25 70 -77 122q-51 53 -115 53q-83 0 -120 -91q-36 -90 -36 -235q0 -168 57 -253
t160 -85q78 0 145 57q70 58 107 132l226 503h4l337 -752h-221zM849 486l-77 -172l-27 -64h210z" />
    <glyph glyph-name="C_O_period" horiz-adv-x="1075" 
d="M32 355q0 176 105 280.5t273 104.5q78 0 150 -35t122 -81l-82 -75q-25 70 -77 122q-51 53 -115 53q-83 0 -120 -91q-36 -90 -36 -235q0 -168 57 -253t160 -85q136 0 211 109l12 -7q-49 -83 -130 -128.5t-181 -45.5q-152 -2 -251.5 103t-97.5 264zM674 375q0 78 54 126
t141 48q86 0 138 -45.5t52 -120.5q0 -78 -55 -126q-54 -48 -141 -48q-86 0 -137.5 45t-51.5 121zM943 377q0 77 -20.5 118t-57.5 41q-75 0 -75 -155q0 -159 78 -159q75 0 75 155zM867 -24l-99 99l99 99l99 -99z" />
    <glyph glyph-name="D_O" horiz-adv-x="1206" 
d="M1174 372q0 -175 -111 -279.5t-291 -104.5q-108 0 -196 53q-105 -41 -247 -41h-265v728h304q128 0 221 -40q86 52 197 52q173 0 280.5 -98t107.5 -270zM954 360q0 175 -44.5 269.5t-132.5 94.5q-96 0 -148 -55q170 -93 170 -300q0 -204 -168 -301q58 -64 152 -64
q91 0 131 88.5t40 267.5zM533 72q-124 102 -124 286q0 183 124 291q-67 63 -171 63h-96v-687q21 -9 103 -9q102 0 164 56zM630 367q0 133 -50 222q-31 -81 -31 -221t37 -227q44 86 44 226z" />
    <glyph glyph-name="D_O_G" horiz-adv-x="1588" 
d="M1278 330h274v-264q-119 -78 -283 -78q-141 0 -238 48q-96 -48 -216 -48q-134 0 -232 56q-108 -44 -254 -44h-265v728h304q134 0 230 -43q98 55 231 55q120 0 213 -46q91 46 208 46q81 0 156 -32t130 -84l-82 -75q-26 73 -79 123q-52 52 -135 52q-96 0 -150 -59
q144 -100 144 -293q0 -186 -133 -292q68 -74 171 -74q60 0 100 14v292h-83zM996 55q-152 97 -152 304q0 200 150 306q-68 59 -175 59q-118 0 -181 -60q161 -94 161 -295q0 -199 -160 -297q68 -68 186 -68q108 0 171 51zM536 75q-127 100 -127 281q0 180 129 288
q-68 68 -176 68h-96v-687q21 -9 103 -9q105 0 167 59zM1047 596q-34 -84 -34 -230q0 -133 46 -224q35 82 35 218q0 147 -47 236zM589 147q41 87 41 220q0 130 -47 216q-34 -80 -34 -215q0 -138 40 -221z" />
    <glyph glyph-name="D_O_O" horiz-adv-x="1641" 
d="M1609 372q0 -175 -111 -279.5t-291 -104.5q-98 0 -182 45q-95 -45 -210 -45q-134 0 -232 56q-108 -44 -254 -44h-265v728h304q134 0 230 -43q98 55 231 55q115 0 209 -44q83 44 183 44q173 0 280.5 -98t107.5 -270zM993 53q-71 49 -110 128t-39 177t39 177.5t109 131.5
q-66 57 -173 57q-118 0 -181 -60q161 -94 161 -295q0 -199 -160 -297q68 -68 186 -68q107 0 168 49zM1389 360q0 175 -44.5 269.5t-132.5 94.5q-87 0 -140 -47q162 -99 162 -305q0 -101 -42 -181t-118 -131q56 -56 144 -56q91 0 131 88.5t40 267.5zM536 75
q-127 100 -127 281q0 180 129 288q-68 68 -176 68h-96v-687q21 -9 103 -9q105 0 167 59zM1040 104q54 86 54 256q0 172 -63 264q-47 -88 -47 -256q0 -169 56 -264zM589 147q41 87 41 220q0 130 -47 216q-34 -80 -34 -215q0 -138 40 -221z" />
    <glyph glyph-name="E_A" horiz-adv-x="1158" 
d="M947 0l-104 232h-226l-103 -232h-450v728h472l14 -114h-2q-110 96 -252 96h-30v-322h10q80 0 134.5 13t67.5 35h2v-122h-2q-14 25 -69 40.5t-133 15.5h-10v-352h37q65 0 132 33q70 35 119 93l273 608h4l337 -752h-221zM625 250h210l-105 235z" />
    <glyph glyph-name="E_T" horiz-adv-x="1133" 
d="M566 124h2l-24 -124h-480v728h472l14 -114h-2q-110 96 -252 96h-30v-322h10q80 0 134.5 13t67.5 35h2v-122h-2q-14 25 -69 40.5t-133 15.5h-10v-352h37q147 0 263 106zM1109 728l17 -138h-2q-59 66 -100 94q-38 26 -81 26h-10v-710h-202v710h-10q-43 0 -74 -21t-87 -75
h-2l14 114h537z" />
    <glyph glyph-name="E_V" horiz-adv-x="1180" 
d="M1082 728h118q-43 -71 -78 -139q-35 -69 -86 -183l-193 -430h-4l-286 638q-31 60 -82 77.5t-175 18.5h-30v-322h10q80 0 134.5 13t67.5 35h2v-122h-2q-14 25 -69 40.5t-133 15.5h-10v-352h37q147 0 263 106h2l-24 -124h-480v728h659l218 -487l77 173q72 161 72 250
q0 30 -8 64z" />
    <glyph glyph-name="E_V_T" horiz-adv-x="1712" 
d="M1688 728l17 -138h-2q-59 66 -100 94q-38 26 -81 26h-10v-710h-202v710h-10q-74 0 -110 -25t-71 -95l-276 -614h-4l-286 638q-31 60 -82 77.5t-175 18.5h-30v-322h10q80 0 134.5 13t67.5 35h2v-122h-2q-14 25 -69 40.5t-133 15.5h-10v-352h37q147 0 263 106h2l-24 -124
h-480v728h659l218 -487l77 173q50 112 66 177q16 61 22 137h582z" />
    <glyph glyph-name="E_W" horiz-adv-x="1424" 
d="M1341 728h99q-38 -69 -67 -135q-39 -95 -73 -185l-163 -432h-4l-169 448l-171 -448h-4l-240 638q-28 60 -78 77.5t-175 18.5h-30v-322h10q80 0 134.5 13t67.5 35h2v-122h-2q-14 25 -69 40.5t-133 15.5h-10v-352h37q147 0 263 106h2l-24 -124h-480v728h659l166 -445
l170 445h4l170 -443l48 129q61 159 61 278q0 29 -1 36z" />
    <glyph glyph-name="E_X" horiz-adv-x="1197" 
d="M958 480l196 -233v-289h-9l-319 379l-238 -337h-524v728h402l24 -114h-2q-60 52 -103.5 74t-88.5 22h-30v-322h10q80 0 134.5 13t67.5 35h2v-122h-2q-14 25 -69 40.5t-133 15.5h-10v-352h37q100 0 202 35q101 36 163 95l145 204l-317 376h253l196 -232q60 86 88 140
q25 50 25 92h120q-53 -49 -109 -108q-49 -54 -111 -140z" />
    <glyph glyph-name="E_X_A" horiz-adv-x="1809" 
d="M1598 0l-104 232h-221l-118 -274l-1 1v-1h-9l-319 379l-238 -337h-524v728h402l24 -114h-2q-60 52 -103.5 74t-88.5 22h-30v-322h10q80 0 134.5 13t67.5 35h2v-122h-2q-14 25 -69 40.5t-133 15.5h-10v-352h37q100 0 202 35q101 36 163 95l145 204l-317 376h253l195 -233
q60 86 88 140q26 52 26 93h120q-118 -105 -221 -248l264 -315l257 587h4l337 -752h-221zM1281 250h205l-104 233z" />
    <glyph glyph-name="E_X_T" horiz-adv-x="1670" 
d="M1646 728l17 -138h-2q-59 66 -100 94q-38 26 -81 26h-10v-710h-202v710h-10q-110 0 -216 -112l-84 -118l196 -233v-289h-9l-319 379l-238 -337h-524v728h402l24 -114h-2q-60 52 -103.5 74t-88.5 22h-30v-322h10q80 0 134.5 13t67.5 35h2v-122h-2q-14 25 -69 40.5
t-133 15.5h-10v-352h37q100 0 202 35q101 36 163 95l145 204l-317 376h253l196 -232l163 232h538z" />
    <glyph glyph-name="E_Y" horiz-adv-x="1153" 
d="M986 431l-60 -112v-319h-202v289l-179 325q-39 62 -83.5 78t-165.5 18h-30v-322h10q80 0 134.5 13t67.5 35h2v-122h-2q-14 25 -69 40.5t-133 15.5h-10v-352h37q147 0 263 106h2l-24 -124h-480v728h648l207 -379l49 91q87 160 87 288h99q-39 -65 -81 -139
q-44 -79 -87 -158z" />
    <glyph glyph-name="F_T" horiz-adv-x="1123" 
d="M64 728h462l14 -114h-2q-109 96 -252 96h-20v-334q80 0 134.5 13t67.5 35h2v-122h-2q-14 25 -69 40.5t-133 15.5v-358h-202v728zM1099 728l17 -138h-2q-59 66 -100 94q-38 26 -81 26h-10v-710h-202v710h-10q-43 0 -74 -21t-87 -75h-2l14 114h537z" />
    <glyph glyph-name="F_V" horiz-adv-x="1146" 
d="M1048 728h118q-43 -71 -78 -139q-35 -69 -86 -183l-193 -430h-4l-286 638q-26 54 -79 75t-154 21h-20v-334q80 0 134.5 13t67.5 35h2v-122h-2q-14 25 -69 40.5t-133 15.5v-358h-202v728h625l218 -487l77 173q72 161 72 250q0 30 -8 64z" />
    <glyph glyph-name="F_W" horiz-adv-x="1390" 
d="M1307 728h99q-38 -69 -67 -135q-39 -95 -73 -185l-163 -432h-4l-169 448l-171 -448h-4l-240 638q-23 54 -75.5 75t-153.5 21h-20v-334q80 0 134.5 13t67.5 35h2v-122h-2q-14 25 -69 40.5t-133 15.5v-358h-202v728h625l166 -445l170 445h4l170 -443l48 129q61 159 61 278
q0 29 -1 36z" />
    <glyph glyph-name="F_Y" horiz-adv-x="1139" 
d="M972 431l-60 -112v-319h-202v289l-179 325q-30 53 -86.5 74.5t-158.5 21.5h-20v-334q80 0 134.5 13t67.5 35h2v-122h-2q-14 25 -69 40.5t-133 15.5v-358h-202v728h634l207 -379l49 91q87 160 87 288h99q-39 -65 -81 -139q-44 -79 -87 -158z" />
    <glyph glyph-name="K_A" horiz-adv-x="1298" 
d="M1087 0l-104 232h-221l-118 -274h-10l-351 415l145 136q141 131 166 219h122v-2q-64 -42 -120 -91q-37 -32 -155 -142l-11 -10l277 -327l260 596h4l337 -752h-221zM64 0v728h202v-728h-202zM770 250h205l-104 233z" />
    <glyph glyph-name="K_AE" horiz-adv-x="1542" 
d="M64 0v728h202v-728h-202zM1520 124h2l-24 -124h-480v262h-223l-151 -304h-10l-351 415l145 136q141 131 166 219h122v-2q-64 -42 -120 -91q-37 -32 -155 -142l-11 -10l282 -334l290 579h488l14 -114h-2q-110 96 -252 96h-30v-322h10q80 0 134.5 13t67.5 35h2v-122h-2
q-14 25 -69 40.5t-133 15.5h-10v-352h37q147 0 263 106zM804 280h214v430z" />
    <glyph glyph-name="K_S" horiz-adv-x="1231" 
d="M1210 220q0 -97 -71 -164.5t-201 -67.5q-61 0 -120 10q-66 10 -100 22v124q33 -60 100 -100t135 -40q63 0 98 33t35 84q0 38 -24 67q-23 26 -52 43t-84 39l-49 20q-73 29 -130 80q-55 51 -55 144q0 98 73 162t193 64q66 0 123 -16q61 -17 91 -31l-24 -93
q-96 124 -205 124q-58 0 -92.5 -32.5t-34.5 -82.5q0 -48 36.5 -79.5t113.5 -62.5l49 -20q83 -33 138 -84q57 -49 57 -143zM64 0v728h202v-728h-202zM441 493l-10 -9l263 -272v-254h-10l-401 415l145 136q141 131 166 219h122v-2q-64 -42 -120 -91q-37 -32 -155 -142z" />
    <glyph glyph-name="K_T" horiz-adv-x="1190" 
d="M64 0v728h202v-728h-202zM1166 728l17 -138h-2q-59 66 -100 94q-38 26 -81 26h-10v-710h-202v710h-10q-49 0 -128 -43q-81 -43 -138 -97l-84 -83l278 -279v-250h-10l-413 415l362 355h521z" />
    <glyph glyph-name="L_A" horiz-adv-x="1118" 
d="M907 0l-104 232h-227l-103 -232h-409v728h202v-710h10q113 0 240 132l271 602h4l337 -752h-221zM584 250h211l-105 236z" />
    <glyph glyph-name="L_AE" horiz-adv-x="1335" 
d="M1313 124h2l-24 -124h-480v262h-223l-131 -262h-393v728h202v-710h10q53 0 128.5 46.5t116.5 115.5l274 548h488l14 -114h-2q-109 96 -252 96h-30v-322h10q80 0 134.5 13t67.5 35h2v-122h-2q-14 25 -69 40.5t-133 15.5h-10v-352h37q147 0 263 106zM597 280h214v430z" />
    <glyph glyph-name="L_L" horiz-adv-x="989" 
d="M486 142h2l-26 -142h-398v728h202v-710h10q53 2 94 24.5t116 99.5zM974 150h2l-26 -150h-418v728h202v-710h10q51 0 103 28q55 29 127 104z" />
    <glyph glyph-name="L_S" horiz-adv-x="1030" 
d="M1009 220q0 -97 -71 -164.5t-201 -67.5q-63 0 -145 18t-104 30l-6 -36h-418v728h202v-710h10q51 0 103 28q55 29 127 104h2q34 -65 104 -106q68 -40 140 -40q63 0 98 33t35 84q0 38 -24 67q-23 26 -52 43t-84 39l-49 20q-73 29 -130 80q-55 51 -55 144q0 98 73 162
t193 64q66 0 123 -16q61 -17 91 -31l-24 -93q-96 124 -205 124q-58 0 -92.5 -32.5t-34.5 -82.5q0 -48 36.5 -79.5t113.5 -62.5l49 -20q82 -33 138 -84q57 -49 57 -143z" />
    <glyph glyph-name="M_C_period" horiz-adv-x="1263" 
d="M629 728h180l69 -728h-199l-61 644l-224 -598h-4l-267 558l-24 -286q-4 -41 -4 -97q0 -120 30 -221h-100q37 124 54 318l27 322l-41 85v3h216l195 -409zM1222 301l12 -7q-52 -85 -149 -85q-76 0 -123 46q-47 47 -47 120q0 79 50 126.5t134 47.5q69 0 130 -54l-48 -40
q-27 81 -82 81q-68 0 -68 -142q0 -149 97 -149q56 0 94 56zM987 75l99 99l99 -99l-99 -99z" />
    <glyph glyph-name="N_period" horiz-adv-x="370" 
d="M104 764l61 75q44 -9 70.5 -37t26.5 -67q0 -47 -44 -80q-46 -33 -96 -49l-5 5q25 12 43 35t18 46q0 54 -74 72zM289 544h52q-18 -58 -18 -144v-190h-12l-232 266v-117q0 -88 19 -144h-54q19 56 19 144v135l-41 47v3h124l161 -185v41q0 86 -18 144zM262 -15q0 -47 -44 -79
q-45 -34 -96 -50l-5 5q25 12 43 35t18 46q0 52 -74 72l61 75q44 -9 70.5 -37t26.5 -67z" />
    <glyph glyph-name="O_C" horiz-adv-x="1071" 
d="M1055 169l12 -7q-49 -83 -130 -128.5t-181 -45.5q-91 0 -165 38q-79 -38 -171 -38q-173 0 -280.5 98t-107.5 270q0 175 111 279.5t291 104.5q90 0 170 -39q80 39 181 39q78 0 150 -35t122 -81l-82 -75q-25 71 -80 123q-52 52 -126 52t-119 -50q70 -49 108.5 -127
t38.5 -175q0 -164 -102 -271q61 -41 149 -41q136 0 211 109zM562 43q-73 48 -114 129.5t-41 182.5q0 106 40 189t114 132q-54 48 -136 48q-93 0 -133 -88.5t-40 -267.5q0 -174 45 -269t134 -95q80 0 131 39zM610 611q-34 -81 -34 -213q0 -152 59 -238q22 75 22 200
q0 160 -47 251z" />
    <glyph glyph-name="O_F" horiz-adv-x="684" 
d="M32 374q0 79 51 127.5t135 48.5q82 0 131 -46t49 -122q0 -79 -51 -127t-135 -48q-82 0 -131 45.5t-49 121.5zM547 530h-8v-146q74 0 89 24h2v-65h-2q-14 27 -89 27v-157h-104v331h219l8 -61h-2q-55 47 -113 47zM144 380q0 -160 73 -160q69 0 69 156q0 161 -72 161
q-70 0 -70 -157zM62 132v14h568v-14h-568z" />
    <glyph glyph-name="O_G" horiz-adv-x="1151" 
d="M841 330h274v-264q-119 -78 -283 -78q-132 0 -229 44q-83 -44 -183 -44q-173 0 -280.5 98t-107.5 270q0 175 111 279.5t291 104.5q95 0 178 -42q90 42 201 42q81 0 156 -32t130 -84l-82 -75q-26 73 -79 123q-52 52 -135 52q-94 0 -146 -55q67 -49 103.5 -125.5
t36.5 -171.5q0 -186 -129 -296q67 -70 167 -70q60 0 100 14v292h-83zM569 49q-162 93 -162 310q0 206 159 313q-55 52 -141 52q-93 0 -133 -88.5t-40 -267.5q0 -174 45 -269t134 -95q87 0 138 45zM614 604q-38 -87 -38 -238q0 -139 50 -231q31 78 31 225q0 157 -43 244z" />
    <glyph glyph-name="O_O" horiz-adv-x="1204" 
d="M1172 372q0 -175 -111 -279.5t-291 -104.5q-94 0 -174 41q-80 -41 -176 -41q-173 0 -280.5 98t-107.5 270q0 175 111 279.5t291 104.5q95 0 174 -40q79 40 176 40q173 0 280.5 -98t107.5 -270zM566 46q-75 49 -117 129.5t-42 182.5q0 100 41.5 182t115.5 134
q-56 50 -139 50q-93 0 -133 -88.5t-40 -267.5q0 -174 45 -269t134 -95q84 0 135 42zM952 360q0 175 -44.5 269.5t-132.5 94.5q-85 0 -135 -43q74 -49 115.5 -129t41.5 -180q0 -101 -41 -183t-115 -134q55 -51 140 -51q91 0 131 88.5t40 267.5zM657 360q0 180 -59 272
q-51 -87 -51 -264q0 -180 61 -272q49 83 49 264z" />
    <glyph glyph-name="O_O_C" horiz-adv-x="1506" 
d="M1490 169l12 -7q-49 -83 -130 -128.5t-181 -45.5q-95 0 -173 42q-93 -42 -205 -42q-116 0 -210 44q-83 -44 -183 -44q-173 0 -280.5 98t-107.5 270q0 175 111 279.5t291 104.5q98 0 182 -45q94 45 211 45t205 -42q86 42 188 42q78 0 150 -35t122 -81l-82 -75
q-25 71 -80 123q-52 52 -126 52q-76 0 -123 -54q151 -99 151 -298q0 -164 -106 -268q62 -44 153 -44q136 0 211 109zM570 50q-163 100 -163 306q0 101 42 181.5t120 131.5q-56 55 -144 55q-93 0 -133 -88.5t-40 -267.5q0 -174 45 -269t134 -95t139 46zM987 50
q-69 48 -107 127.5t-38 177.5q0 209 145 315q-66 54 -170 54q-107 0 -169 -49q71 -50 110 -127.5t39 -175.5t-39 -178.5t-109 -132.5q66 -57 174 -57q103 0 164 46zM657 360q0 172 -54 265q-56 -86 -56 -257q0 -173 65 -265q45 86 45 257zM1042 602q-31 -78 -31 -204
q0 -148 55 -233q26 76 26 195q0 150 -50 242z" />
    <glyph glyph-name="O_O_G" horiz-adv-x="1586" 
d="M1276 330h274v-264q-119 -78 -283 -78q-141 0 -238 48q-96 -48 -216 -48q-116 0 -210 44q-83 -44 -183 -44q-173 0 -280.5 98t-107.5 270q0 175 111 279.5t291 104.5q98 0 182 -45q94 45 211 45q120 0 213 -46q91 46 208 46q81 0 156 -32t130 -84l-82 -75q-26 73 -79 123
q-52 52 -135 52q-96 0 -150 -59q144 -100 144 -293q0 -186 -133 -292q68 -74 171 -74q60 0 100 14v292h-83zM570 50q-163 100 -163 306q0 101 42 181.5t120 131.5q-56 55 -144 55q-93 0 -133 -88.5t-40 -267.5q0 -174 45 -269t134 -95t139 46zM994 55q-152 97 -152 304
q0 200 150 306q-68 59 -175 59t-169 -49q71 -50 110 -127.5t39 -175.5t-39 -178.5t-109 -132.5q66 -57 174 -57t171 51zM657 360q0 172 -54 265q-56 -86 -56 -257q0 -173 65 -265q45 86 45 257zM1045 596q-34 -84 -34 -230q0 -133 46 -224q35 82 35 218q0 147 -47 236z" />
    <glyph glyph-name="R_A" horiz-adv-x="1303" 
d="M1092 0l-104 232h-219l-117 -274h-10l-330 358q-16 18 -40 18h-6v-334h-202v728h267q323 0 323 -178q0 -124 -177 -177l227 -236l268 615h4l337 -752h-221zM462 540q0 82 -36.5 127t-106.5 45h-53v-357q33 -5 64 -5q60 0 96 54q36 56 36 136zM777 250h203l-104 232z" />
    <glyph glyph-name="R_S" horiz-adv-x="1251" 
d="M1230 220q0 -97 -71 -164.5t-201 -67.5q-61 0 -120 10q-66 10 -100 22v124q33 -60 100 -100t135 -40q63 0 98 33t35 84q0 38 -24 67q-23 26 -52 43t-84 39l-49 20q-73 29 -130 80q-55 51 -55 144q0 98 73 162t193 64q66 0 123 -16q61 -17 91 -31l-24 -93
q-96 124 -205 124q-58 0 -92.5 -32.5t-34.5 -82.5q0 -48 36.5 -79.5t113.5 -62.5l49 -20q83 -33 138 -84q57 -49 57 -143zM477 373l189 -186v-229h-10l-344 358q-18 18 -40 18h-6v-334h-202v728h267q323 0 323 -178q0 -125 -177 -177zM462 540q0 82 -36.5 127t-106.5 45h-53
v-357q33 -5 64 -5q60 0 96 54q36 56 36 136z" />
    <glyph glyph-name="S_S" horiz-adv-x="1096" 
d="M29 36l27 103q32 -60 101 -97q70 -38 139 -38q63 0 98 33t35 84q0 38 -24 67q-23 26 -52 43t-84 39l-49 20q-73 29 -130 80q-55 51 -55 144q0 98 73 162t193 64q66 0 123 -16q61 -17 91 -31l-24 -93q-96 124 -205 124q-58 0 -92.5 -32.5t-34.5 -82.5q0 -48 36.5 -79.5
t113.5 -62.5l49 -20q82 -33 138 -84q57 -49 57 -143q0 -97 -71 -164.5t-201 -67.5q-62 -1 -147.5 17.5t-104.5 30.5zM568 29l24 89q37 -52 99 -83q63 -31 127 -31q63 0 98 33t35 84q0 38 -24 67q-23 26 -52 43t-84 39l-49 20q-73 29 -130 80q-55 51 -55 144q0 98 73 162
t193 64q66 0 123 -16q61 -17 91 -31l-24 -93q-96 124 -205 124q-58 0 -92.5 -32.5t-34.5 -82.5q0 -48 36.5 -79.5t113.5 -62.5l49 -20q82 -33 138 -84q57 -49 57 -143q0 -97 -71 -164.5t-201 -67.5q-62 0 -127 13q-60 12 -108 28z" />
    <glyph glyph-name="S_T_period" horiz-adv-x="875" 
d="M553 220q0 -97 -71 -164.5t-201 -67.5q-62 -1 -147.5 17.5t-104.5 30.5l27 103q32 -60 101 -97q70 -38 139 -38q63 0 98 33t35 84q0 38 -24 67q-23 26 -52 43t-84 39l-49 20q-73 29 -130 80q-55 51 -55 144q0 98 73 162t193 64q66 0 123 -16q61 -17 91 -31l-24 -93
q-96 124 -205 124q-58 0 -92.5 -32.5t-34.5 -82.5q0 -48 36.5 -79.5t113.5 -62.5l49 -20q82 -33 138 -84q57 -49 57 -143zM849 544l9 -70h-2q-51 55 -99 55h-6v-315h-112v315h-6q-48 0 -99 -55h-2l9 70h308zM597 75l99 99l99 -99l-99 -99z" />
    <glyph glyph-name="T_H_E" horiz-adv-x="931" 
d="M99 213v316h-6q-18 0 -34.5 -11.5t-43.5 -41.5h-2l7 68h262l7 -68h-2q-27 30 -43.5 41.5t-34.5 11.5h-6v-316h-104zM417 378v-165h-104v331h104v-152h99v152h104v-331h-104v165h-99zM900 274h2l-11 -61h-228v331h224l7 -61h-2q-53 47 -114 47h-11v-138h5q74 0 89 24h2
v-65h-2q-13 27 -89 27h-5v-151h14q67 0 119 47zM99 132v14h777v-14h-777z" />
    <glyph glyph-name="T_T" horiz-adv-x="1016" 
d="M992 728l17 -138h-2q-59 66 -100 94q-38 26 -81 26h-10v-710h-202v710h-212v-710h-202v710h-10q-44 0 -82 -26q-39 -26 -99 -94h-2l17 138h968z" />
    <glyph glyph-name="T_V" horiz-adv-x="1234" 
d="M1136 728h118q-43 -71 -78 -139q-35 -69 -86 -183l-193 -430h-4l-275 614q-32 65 -80 92.5t-126 27.5h-10v-710h-202v710h-10q-44 0 -82 -26q-39 -26 -99 -94h-2l17 138h753l218 -487l77 173q72 161 72 250q0 30 -8 64z" />
    <glyph glyph-name="T_W" horiz-adv-x="1478" 
d="M1395 728h99q-38 -69 -67 -135q-39 -95 -73 -185l-163 -432h-4l-169 448l-171 -448h-4l-231 614q-29 65 -75.5 92.5t-124.5 27.5h-10v-710h-202v710h-10q-44 0 -82 -26q-39 -26 -99 -94h-2l17 138h753l166 -445l170 445h4l170 -443l48 129q61 159 61 278q0 29 -1 36z" />
    <glyph glyph-name="T_Y" horiz-adv-x="1187" 
d="M1020 431l-60 -112v-319h-202v289l-165 301q-46 75 -76.5 96t-104.5 24h-10v-710h-202v710h-10q-44 0 -82 -26q-39 -26 -99 -94h-2l17 138h722l207 -379l49 91q87 160 87 288h99q-39 -65 -81 -139q-44 -79 -87 -158z" />
    <glyph glyph-name="T_Y_T" horiz-adv-x="1694" 
d="M1670 728l17 -138h-2q-59 66 -100 94q-38 26 -81 26h-10v-710h-202v710h-10q-52 -2 -80 -13t-47 -33t-49 -74l-146 -271v-319h-202v289l-165 301q-46 75 -76.5 96t-104.5 24h-10v-710h-202v710h-10q-44 0 -82 -26q-39 -26 -99 -94h-2l17 138h722l207 -379l49 91
q83 152 97 288h571z" />
    <glyph glyph-name="U_T" horiz-adv-x="1218" 
d="M1194 728l17 -138h-2q-59 66 -100 94q-38 26 -81 26h-10v-710h-202v710h-10q-69 0 -112.5 -36.5t-55.5 -93.5v-308q0 -143 -68 -213.5t-213 -70.5q-150 0 -225 73.5t-75 214.5v452h202v-456q0 -121 46 -183.5t131 -62.5q86 0 134 61.5t48 179.5v461h576z" />
    <glyph glyph-name="V_S" horiz-adv-x="602" 
d="M326 446q0 46 35 75t90 29q44 0 103 -23l-15 -56q-25 33 -46 49.5t-48 16.5q-23 0 -37.5 -13.5t-14.5 -35.5q0 -21 15 -33t50 -27l22 -9q91 -37 91 -105q0 -45 -34.5 -76t-94.5 -31q-24 0 -66 8q-37 7 -53 16l17 67q10 -32 42.5 -55t66.5 -23q25 0 40 14t15 36t-16 35
t-54 29l-22 9q-86 35 -86 103zM176 202h-4l-160 342h113l95 -205l28 62q33 73 33 118q0 13 -3 25h61q-25 -41 -36 -62q-31 -67 -40 -86zM63 132v14h488v-14h-488z" />
    <glyph glyph-name="V_T" horiz-adv-x="1200" 
d="M1176 728l17 -138h-2q-59 66 -100 94q-38 26 -81 26h-10v-710h-202v710h-10q-74 0 -110 -25t-71 -95l-276 -614h-4l-337 752h221l218 -487l77 173q50 112 66 177q16 61 22 137h582z" />
    <glyph glyph-name="W_T" horiz-adv-x="1452" 
d="M1428 728l17 -138h-2q-59 66 -100 94q-38 26 -81 26h-10v-710h-202v710h-10q-74 0 -114 -27q-38 -25 -67 -93l-232 -614h-4l-169 448l-171 -448h-4l-283 752h217l166 -445l170 445h4l170 -443l48 129q41 109 54 172q15 70 23 142h580z" />
    <glyph glyph-name="X_A" horiz-adv-x="1295" 
d="M1084 0l-104 232h-221l-118 -274l-1 1v-1h-9l-319 379l-57 -80q-77 -109 -77 -184q0 -31 14 -73h-200q68 54 120 109q53 56 127 159l60 84l-317 376h253l195 -233q60 86 88 140q26 52 26 93h120q-118 -105 -221 -248l264 -315l257 587h4l337 -752h-221zM767 250h205
l-104 233z" />
    <glyph glyph-name="X_T" horiz-adv-x="1156" 
d="M1132 728l17 -138h-2q-59 66 -100 94q-38 26 -81 26h-10v-710h-202v710h-10q-115 0 -223 -120l-77 -110l196 -233v-289h-9l-319 379l-57 -80q-77 -109 -77 -184q0 -31 14 -73h-200q68 54 120 109q53 56 127 159l60 84l-317 376h253l196 -232l163 232h538z" />
    <glyph glyph-name="Y_T" horiz-adv-x="1175" 
d="M1151 728l17 -138h-2q-59 66 -100 94q-38 26 -81 26h-10v-710h-202v710h-10q-52 -2 -80 -13t-47 -33t-49 -74l-146 -271v-319h-202v289l-242 439h230l207 -379l49 91q83 152 97 288h571z" />
    <glyph glyph-name="Z_A" horiz-adv-x="1216" 
d="M1005 0l-104 232h-227l-103 -232h-565v4l365 706h-29q-207 0 -316 -96h-2l14 114h568v-4l-366 -706h46q112 0 183 28q74 29 145 104l271 602h4l337 -752h-221zM682 250h211l-105 236z" />
    <glyph glyph-name="Z_Z" horiz-adv-x="1212" 
d="M578 124h2l-24 -124h-550v4l365 706h-29q-207 0 -316 -96h-2l14 114h568v-4l-366 -706h46q94 0 161 23q66 24 131 83zM1198 124h2l-24 -124h-580v4l365 706h-29q-97 0 -161.5 -22t-124.5 -74h-2l14 114h538v-4l-366 -706h46q108 0 183 23q74 24 139 83z" />
    <glyph glyph-name="f_b" horiz-adv-x="1074" 
d="M1048 285q2 -125 -80 -212t-197 -85q-132 0 -206 64l-99 -64h-4v747q-46 25 -92 25q-47 0 -76 -29t-29 -81v-106h133l-13 -22h-120v-522h-188v522h-57v22h57v76q0 89 56.5 141.5t143.5 52.5q101 0 187 -62l182 58h4v-337q75 83 165 83q97 2 166 -76.5t67 -194.5zM850 272
q0 133 -23 184t-75 51q-53 0 -102 -59v-340q9 -47 34.5 -75t60.5 -28q105 0 105 267z" />
    <glyph glyph-name="f_h" horiz-adv-x="1050" 
d="M1001 363v-363h-188v385q0 45 -14 81q-13 36 -61 36q-46 0 -88 -45v-457h-188v735q-46 25 -92 25q-47 0 -76 -29t-29 -81v-106h133l-13 -22h-120v-522h-188v522h-57v22h57v76q0 89 56.5 141.5t143.5 52.5q101 0 187 -62l182 58h4v-333q70 79 170 79q88 0 134.5 -48.5
t46.5 -144.5z" />
    <glyph glyph-name="f_j" horiz-adv-x="706" 
d="M671 718l-112 -112l-112 112l112 112zM566 544l83 18h4v-522q1 -59 -28.5 -109t-78 -81.5t-100 -51t-103.5 -26.5l-4 12q59 16 92.5 79.5t33.5 156.5v502h-200v-522h-188v522h-57v22h57v76q0 91 55 142q55 52 141 52q72 0 153 -49l-5 -13q-29 8 -51 8q-47 0 -76 -29
t-29 -81v-106h301z" />
    <glyph glyph-name="f_k" horiz-adv-x="1013" 
d="M464 752l182 58h4v-810h-188v735q-46 25 -92 25q-47 0 -76 -29t-29 -81v-106h133l-13 -22h-120v-522h-188v522h-57v22h57v76q0 89 56.5 141.5t143.5 52.5q101 0 187 -62zM991 544v-2q-104 -63 -181 -130l179 -200v-254h-6l-316 355l89 78q56 49 92 85q34 35 55 68h88z
" />
    <glyph glyph-name="f_t" horiz-adv-x="730" 
d="M737 67l8 -12q-85 -67 -178 -67q-90 0 -123 44q-32 44 -32 102v388h-147v-522h-188v522h-57v22h57v76q0 89 56.5 141.5t143.5 52.5q103 0 194 -67l-9 -12q-46 25 -92 25q-47 0 -76 -29t-29 -81v-106h147l184 196h4v-196h145l-13 -22h-132v-398q0 -38 12.5 -60t48.5 -22
q35 0 76 25z" />
    <glyph glyph-name="k_s" horiz-adv-x="1060" 
d="M53 759l184 51h4v-810h-188v759zM1043 173q0 -79 -61 -132t-175 -53q-52 0 -101 7q-55 8 -85 15v105q32 -47 87 -80q56 -33 119 -33q51 0 78.5 20.5t27.5 56.5t-27.5 57t-93.5 45l-42 15q-66 24 -117 62q-49 39 -49 114q0 78 60 131t168 53q88 0 180 -36l-19 -75
q-78 97 -180 97q-46 0 -72.5 -20.5t-26.5 -54.5q1 -21 8 -35t26 -26t34.5 -18.5t52.5 -20.5l42 -15q43 -15 76 -34q38 -20 64 -57.5t26 -87.5zM494 544h88v-2q-104 -63 -181 -130l179 -200v-254h-6l-316 355l89 78q56 49 92 85q34 35 55 68z" />
    <glyph glyph-name="l_l" horiz-adv-x="598" 
d="M357 0v759l184 51h4v-810h-188zM53 0v709l184 51h4v-760h-188z" />
    <glyph glyph-name="r_v" horiz-adv-x="845" 
d="M772 544h86q-28 -50 -61 -119q-8 -17 -92 -200l-112 -249h-4l-198 442q-15 18 -44 18q-43 0 -73 -29.5t-35 -76.5v-330h-188v521l178 41h4v-196h2q15 101 58.5 145.5t115.5 44.5q43 0 106 -9l22 -3l146 -325l5 12q50 108 66 180q18 73 18 133z" />
    <glyph glyph-name="r_w" horiz-adv-x="1101" 
d="M1030 544h84q-38 -71 -65 -130q-31 -68 -84 -189l-108 -249h-4l-132 312l-136 -312h-4l-191 443q-17 17 -43 17q-43 0 -73 -29.5t-35 -76.5v-330h-188v521l178 41h4v-196h2q15 101 58.5 145.5t115.5 44.5q43 0 106 -9l22 -3l137 -318l137 318h4l133 -314v1q82 189 82 313
z" />
    <glyph glyph-name="r_y" horiz-adv-x="850" 
d="M773 544h86q-30 -53 -58 -112q-36 -79 -74 -165l-12 -27l-142 -321q-68 -153 -234 -153l9 86q36 -14 71 -14q44 0 80.5 22t54.5 61l27 61l-191 437q-17 17 -43 17q-43 0 -73 -29.5t-35 -76.5v-330h-188v521l178 41h4v-196h2q15 101 58.5 145.5t115.5 44.5q43 0 106 -9
l22 -3l145 -332l16 35q75 170 75 297z" />
    <glyph glyph-name="t_t" horiz-adv-x="740" 
d="M747 67l8 -12q-85 -67 -178 -67q-90 0 -123 44q-32 44 -32 102v388h-158v-398q0 -38 12.5 -60t48.5 -22q35 0 76 25l8 -12q-85 -67 -178 -67q-90 0 -123 44q-32 44 -32 102v388h-57v17l57 5l184 196h4v-196h158l184 196h4v-196h145l-13 -22h-132v-398q0 -38 12.5 -60
t48.5 -22q35 0 76 25z" />
    <glyph glyph-name="zero.osf" horiz-adv-x="710" 
d="M35 306q0 161 84 247.5t235 86.5q143 0 232 -82t89 -235q0 -161 -85 -248t-236 -87q-143 0 -231 82t-88 236zM472 311q0 315 -119 315q-115 0 -115 -307q0 -317 119 -317q115 0 115 309z" />
    <glyph glyph-name="one.osf" horiz-adv-x="337" 
d="M271 640h4v-640h-178v487q-38 -12 -80 -17v12q59 14 130 58q73 46 124 100z" />
    <glyph glyph-name="two.osf" horiz-adv-x="566" 
d="M535 150l-42 -150h-485v4l62 52q117 97 186 181q71 86 71 171q0 73 -39.5 112.5t-104.5 39.5q-84 0 -153 -84l-13 6q33 58 102 108q70 50 171 50t169 -52.5t68 -149.5q0 -51 -36 -96q-37 -44 -106 -90q-56 -38 -203 -122h29q178 0 324 20z" />
    <glyph glyph-name="three.osf" horiz-adv-x="554" 
d="M13 -73l22 93q41 -62 73.5 -88t87.5 -28q65 0 109 44t44 119q0 74 -44 127.5t-115 68.5l-32 7l-4 11l20 7q58 20 98 63q41 44 41 100q0 50 -35.5 80t-90.5 30q-49 0 -83.5 -20t-66.5 -58l-13 6q108 151 273 151q86 0 143 -41.5t57 -104.5q0 -56 -47 -101
q-47 -46 -112 -59v-2q78 -12 131.5 -68.5t53.5 -136.5q0 -101 -85.5 -170t-223.5 -69q-85 0 -201 39z" />
    <glyph glyph-name="four.osf" horiz-adv-x="580" 
d="M561 168l-30 -106h-60v-162h-178v162h-258l-34 84l416 482h54v-460h90zM47 168h246v285z" />
    <glyph glyph-name="five.osf" horiz-adv-x="532" 
d="M502 131q0 -105 -83.5 -174t-209.5 -69q-112 0 -197 45l20 69q62 -98 154 -98q69 0 116 42q46 42 46 107q0 75 -64 124q-64 51 -202 51h-26l35 400h406l-44 -130h-353l-10 -114h68q167 0 255.5 -73t88.5 -180z" />
    <glyph glyph-name="six.osf" horiz-adv-x="634" 
d="M30 277q-2 113 60 215t166.5 167.5t225.5 80.5l5 -15q-262 -70 -262 -453q0 -129 30.5 -199.5t80.5 -70.5q44 0 68.5 54t24.5 148q0 93 -26 143.5t-72 50.5q-36 0 -68 -29l-10 12q65 76 164 76q82 0 143.5 -60t61.5 -157q0 -113 -80.5 -182.5t-209.5 -69.5
q-137 0 -219.5 80t-82.5 209z" />
    <glyph glyph-name="seven.osf" horiz-adv-x="525" 
d="M27 628h495v-4l-259 -724h-158l352 598h-144q-202 0 -304 -24z" />
    <glyph glyph-name="eight.osf" horiz-adv-x="610" 
d="M580 200q2 -91 -81 -152.5t-202 -59.5q-112 0 -189.5 46t-77.5 126q0 58 42 103t116 69q-134 77 -134 193q0 92 74.5 153.5t185.5 61.5q95 0 164.5 -44.5t69.5 -116.5q0 -53 -40 -93t-113 -61q185 -89 185 -225zM196 604q0 -59 32 -90t99 -60l47 -20l2 -1q54 66 54 158
q0 61 -32.5 98t-86.5 37q-56 0 -85.5 -33t-29.5 -89zM438 126q0 47 -22 76q-20 28 -46 44.5t-73 36.5l-48 20q-4 2 -43 20q-58 -74 -58 -168q0 -73 41.5 -113t107.5 -40q64 0 102.5 35t38.5 89z" />
    <glyph glyph-name="nine.osf" horiz-adv-x="634" 
d="M152 -112l-5 15q262 70 262 453q0 129 -30.5 199.5t-80.5 70.5q-44 0 -68.5 -54t-24.5 -148q0 -93 26 -143.5t72 -50.5q36 0 68 29l10 -12q-65 -76 -164 -76q-82 0 -143.5 60t-61.5 157q0 113 80.5 182.5t209.5 69.5q137 0 219.5 -80t82.5 -209q2 -113 -60 -215
t-166.5 -167.5t-225.5 -80.5z" />
    <glyph glyph-name="zero.zero" horiz-adv-x="716" 
d="M678 374q0 -186 -84.5 -286t-236.5 -100q-143 0 -231 95t-88 271q0 187 83.5 286.5t235.5 99.5q143 0 232 -95t89 -271zM241 369q0 -78 4 -125l223 265q-20 217 -112 217q-115 0 -115 -357zM475 360q0 79 -4 124l-223 -265q20 -217 112 -217q115 0 115 358z" />
    <glyph glyph-name="space.alt" horiz-adv-x="264" 
d="M132 235l-99 99l99 99l99 -99z" />
    <glyph glyph-name="percent.alt" horiz-adv-x="688" 
d="M564 728h17l-438 -728h-34l422 676q-82 -68 -155 -68q-29 0 -50 7q2 -32 2 -36q0 -95 -45 -157t-120 -62q-59 0 -99 43q-39 43 -39 111q0 97 51 158.5t128 61.5q68 0 100 -51q24 -39 79 -39q130 0 181 84zM305 621q-66 26 -101 80q-40 -12 -64.5 -63.5t-24.5 -123.5
q0 -60 21 -92t60 -32q49 0 80.5 53.5t31.5 135.5q0 23 -3 42zM661 213q0 -95 -45 -157t-120 -62q-58 0 -98 43.5t-40 110.5q0 97 51 158.5t127 61.5q61 0 93 -40.5t32 -114.5zM641 213q0 61 -21 93t-60 32q-50 0 -81 -53.5t-31 -136.5q0 -60 21 -92t60 -32q49 0 80.5 53.5
t31.5 135.5z" />
    </font>
</defs>
</svg>
