<?xml version="1.0" standalone="no"?>
<!DOCTYPE svg PUBLIC "-//W3C//DTD SVG 1.1//EN" "http://www.w3.org/Graphics/SVG/1.1/DTD/svg11.dtd" >
<svg xmlns="http://www.w3.org/2000/svg" xmlns:xlink="http://www.w3.org/1999/xlink" version="1.1">
<metadata>
Created by FontForge 20170924 at Sat May 25 01:13:53 2019
 By www-data
Copyright (c) 2018 by Ivy Foundry. All rights reserved. |DCNT
</metadata>
<defs>
<font id="IvyMode-Light" horiz-adv-x="0" >
  <font-face 
    font-family="Ivy Mode Light"
    font-weight="300"
    font-stretch="normal"
    units-per-em="1000"
    panose-1="2 11 4 4 2 1 1 1 1 2"
    ascent="810"
    descent="-190"
    x-height="526"
    cap-height="728"
    bbox="-383 -274 1679.04 1040"
    underline-thickness="50"
    underline-position="-200"
    unicode-range="U+000D-FEFF"
  />
<missing-glyph horiz-adv-x="832" 
d="M100 728h632v-760h-632v760zM710 708h-588v-720h588v720z" />
    <glyph glyph-name="f_f" unicode="ff" horiz-adv-x="648" 
d="M474 623v-97h179l-13 -22h-166v-504h-63v504h-245v-504h-63v504h-84v22h84v95q0 92 42 139.5t120 47.5q73 0 143 -37l-7 -13q-57 23 -109 23q-126 0 -126 -164v-91h245v101q0 92 41.5 139.5t119.5 47.5q77 0 146 -39l-7 -12q-56 24 -111 24q-126 0 -126 -164z" />
    <glyph glyph-name="f_f_i" unicode="ffi" horiz-adv-x="846" 
d="M755 526l24 9h4v-535h-63v504h-246v-504h-63v504h-245v-504h-63v504h-84v22h84v95q0 92 42 139.5t120 47.5q73 0 143 -37l-7 -13q-57 23 -109 23q-126 0 -126 -164v-91h245v101q0 92 41.5 139.5t119.5 47.5q50 0 105 -24l-4 -13q-36 10 -73 10q-126 0 -126 -164v-97h281z
M805 686l-54 -53l-53 53l53 53z" />
    <glyph glyph-name="f_i" unicode="fi" horiz-adv-x="538" 
d="M447 526l24 9h4v-535h-63v504h-246v-504h-63v504h-84v22h84v101q0 92 41.5 139.5t119.5 47.5q50 0 105 -24l-4 -13q-34 10 -73 10q-126 0 -126 -164v-97h281zM497 686l-54 -53l-53 53l53 53z" />
    <glyph glyph-name="f_l" unicode="fl" horiz-adv-x="541" 
d="M474 810h4v-810h-63v763q-65 24 -123 24q-126 0 -126 -164v-97h180l-14 -22h-166v-504h-63v504h-84v22h84v101q0 92 42 139.5t120 47.5q74 0 151 -36z" />
    <glyph glyph-name=".notdef" horiz-adv-x="832" 
d="M100 728h632v-760h-632v760zM710 708h-588v-720h588v720z" />
    <glyph glyph-name=".null" 
 />
    <glyph glyph-name="uni000D" unicode="&#xd;" horiz-adv-x="214" 
 />
    <glyph glyph-name="space" unicode=" " horiz-adv-x="214" 
 />
    <glyph glyph-name="exclam" unicode="!" horiz-adv-x="195" 
d="M90 198l-29 530h74l-30 -530h-15zM98 -20l-57 56l57 57l57 -57z" />
    <glyph glyph-name="quotedbl" unicode="&#x22;" horiz-adv-x="277" 
d="M67 452l-27 288h64l-27 -288h-10zM200 452l-27 288h64l-27 -288h-10z" />
    <glyph glyph-name="numbersign" unicode="#" horiz-adv-x="534" 
d="M507 481h-107l-32 -234h100v-18h-103l-31 -229h-20l31 229h-195l-31 -229h-20l31 229h-104v18h107l32 234h-100v18h103l31 229h20l-31 -229h195l31 229h20l-31 -229h104v-18zM348 247l32 234h-195l-32 -234h195z" />
    <glyph glyph-name="dollar" unicode="$" horiz-adv-x="523" 
d="M493 190q0 -93 -68 -147.5t-167 -54.5q-16 0 -21 1l-8 -90h-20l8 91q-115 13 -188 65l15 48q29 -36 76.5 -61.5t98.5 -33.5l31 341l-21 10q-51 23 -95 50q-90 59 -90 150q0 78 61.5 129.5t157.5 51.5q18 0 23 -1l8 90h20l-8 -92q88 -10 157 -52l-12 -43q-60 59 -147 77
l-28 -304l32 -15q62 -28 99 -54q86 -54 86 -156zM257 424l27 298q-24 2 -29 2q-69 0 -111.5 -39.5t-42.5 -96.5q3 -59 38.5 -91.5t117.5 -72.5zM438 158q-3 64 -41.5 101.5t-117.5 75.5l-10 5l-30 -335q5 -1 24 -1q74 0 124.5 44t50.5 110z" />
    <glyph glyph-name="percent" unicode="%" horiz-adv-x="761" 
d="M27 555q0 81 45 130t117 49q70 0 114.5 -48.5t44.5 -126.5q0 -80 -44.5 -129.5t-115.5 -49.5t-116 48t-45 127zM149 0l440 728h23l-440 -728h-23zM303 555q0 77 -31.5 122t-84.5 45t-84 -43.5t-31 -119.5q0 -77 32 -122t86 -45q53 0 83 43.5t30 119.5zM413 169
q0 80 44.5 129.5t115.5 49.5q72 0 116 -47.5t44 -127.5q0 -81 -44.5 -130t-116.5 -49q-70 0 -114.5 48.5t-44.5 126.5zM689 169q0 77 -32 122t-86 45q-53 0 -83.5 -43.5t-30.5 -119.5q0 -77 32 -122t85 -45t84 43.5t31 119.5z" />
    <glyph glyph-name="ampersand" unicode="&#x26;" horiz-adv-x="680" 
d="M574 143l90 -77v-81h-4l-123 106q-91 -103 -261 -103q-107 0 -173.5 54t-66.5 139q0 64 42 118.5t119 87.5q-84 90 -84 178q0 74 53 124.5t130 50.5q74 0 126 -46.5t52 -112.5q0 -63 -45.5 -107.5t-119.5 -66.5l-11 10q124 46 124 156q0 66 -37 109.5t-95 43.5
q-60 0 -93.5 -41.5t-33.5 -97.5q0 -53 32.5 -99t94.5 -100l274 -235q38 71 38 170q0 48 -31 114l47 20h4v-113q0 -116 -48 -201zM526 100l-272 234q-25 21 -47 43q-109 -59 -109 -178q0 -83 56 -137t143 -54q147 0 229 92z" />
    <glyph glyph-name="quotesingle" unicode="'" horiz-adv-x="144" 
d="M67 452l-27 288h64l-27 -288h-10z" />
    <glyph glyph-name="parenleft" unicode="(" horiz-adv-x="226" 
d="M37 304q0 280 156 478l13 -9q-125 -165 -125 -463q0 -302 125 -467l-13 -9q-156 198 -156 470z" />
    <glyph glyph-name="parenright" unicode=")" horiz-adv-x="225" 
d="M32 -166l-13 9q125 165 125 463q0 302 -125 467l13 9q156 -198 156 -470q0 -280 -156 -478z" />
    <glyph glyph-name="asterisk" unicode="*" horiz-adv-x="445" 
d="M406 619l-177 -75l177 -75l-27 -46l-153 116l24 -191h-54l24 191l-153 -116l-27 46l177 75l-177 75l27 46l153 -116l-24 191h54l-24 -191l153 116z" />
    <glyph glyph-name="plus" unicode="+" horiz-adv-x="508" 
d="M458 374v-20h-193v-200h-22v200h-193v20h193v200h22v-200h193z" />
    <glyph glyph-name="comma" unicode="," horiz-adv-x="176" 
d="M49 -142l-5 7q54 36 54 84q0 53 -65 96l45 50q69 -33 69 -102q0 -39 -26.5 -75.5t-71.5 -59.5z" />
    <glyph glyph-name="hyphen" unicode="-" horiz-adv-x="307" 
d="M46 262v31h215v-31h-215z" />
    <glyph glyph-name="period" unicode="." horiz-adv-x="167" 
d="M84 -20l-57 56l57 57l57 -57z" />
    <glyph glyph-name="slash" unicode="/" horiz-adv-x="365" 
d="M23 -64l292 846h25l-292 -846h-25z" />
    <glyph glyph-name="zero" unicode="0" horiz-adv-x="645" 
d="M46 359q0 173 75.5 277t201.5 104q123 0 199.5 -100.5t76.5 -270.5q0 -173 -75.5 -277t-202.5 -104q-123 0 -199 100.5t-76 270.5zM528 360q0 166 -55 266t-153 100t-151 -98q-52 -97 -52 -259q0 -167 55 -267t153 -100q97 0 150 98t53 260z" />
    <glyph glyph-name="one" unicode="1" horiz-adv-x="279" 
d="M198 740h4v-740h-64v630q-53 -35 -127 -60v12q52 22 103.5 65t83.5 93z" />
    <glyph glyph-name="two" unicode="2" horiz-adv-x="511" 
d="M480 68l-20 -68h-436v4l58 60q167 172 234 280q68 110 68 195q0 73 -40 117.5t-109 44.5q-127 0 -198 -134l-13 6q32 69 83 117q53 50 149 50q89 0 145.5 -52.5t56.5 -139.5q0 -88 -79 -197.5t-278 -290.5l-13 -12h77q104 0 167 4q59 4 148 16z" />
    <glyph glyph-name="three" unicode="3" horiz-adv-x="501" 
d="M28 35l12 44q78 -75 175 -75q76 0 128.5 51.5t52.5 134.5q0 69 -50 119q-51 51 -134 58l-40 3l-4 11l40 12q68 22 111.5 71t43.5 113q0 59 -36.5 93.5t-95.5 34.5q-60 0 -108 -30q-47 -30 -72 -65l-13 6q79 124 213 124q76 0 128 -40t52 -110q0 -60 -45 -109
q-46 -51 -106 -74v-2q75 -14 126.5 -68t51.5 -127q0 -101 -71 -161.5t-178 -60.5q-90 0 -181 47z" />
    <glyph glyph-name="four" unicode="4" horiz-adv-x="532" 
d="M514 257l-12 -47h-103v-210h-64v210h-327l-4 13l386 512h9v-478h115zM55 257h280v374z" />
    <glyph glyph-name="five" unicode="5" horiz-adv-x="483" 
d="M447 221q0 -102 -71.5 -167.5t-176.5 -65.5q-89 0 -175 45l12 41q70 -70 167 -70q79 0 132 55.5t53 139.5q0 97 -72 151t-210 54h-37l29 324h333l-17 -52h-301l-18 -210h31q155 0 238 -66t83 -179z" />
    <glyph glyph-name="six" unicode="6" horiz-adv-x="535" 
d="M44 279q0 161 94.5 287t252.5 174l5 -15q-133 -45 -206 -166q-73 -119 -73 -283q0 -128 46 -201t125 -73q70 0 110 55t40 148q0 96 -41.5 150.5t-113.5 54.5q-63 0 -113 -41l-10 12q64 56 146 56q87 0 146 -61t59 -156q0 -102 -66 -167t-164 -65q-106 0 -171.5 78
t-65.5 213z" />
    <glyph glyph-name="seven" unicode="7" horiz-adv-x="470" 
d="M22 728h441v-4l-269 -724h-68l300 676h-118q-202 0 -304 -24z" />
    <glyph glyph-name="eight" unicode="8" horiz-adv-x="545" 
d="M503 189q0 -84 -68.5 -142.5t-169.5 -58.5q-92 0 -158 49t-66 127q0 148 169 206q-135 69 -135 185q0 77 56 131t148 54q81 0 137.5 -46.5t56.5 -113.5q0 -125 -148 -188q90 -38 134 -86.5t44 -116.5zM273 414l34 -14q108 64 108 174q0 66 -40 109t-103 43
q-64 0 -103 -42.5t-39 -107.5q0 -54 35 -92.5t108 -69.5zM448 166q0 105 -155 168l-50 21l-17 7q-62 -29 -94 -79.5t-32 -111.5q0 -71 52 -120t124 -49q71 0 121.5 47.5t50.5 116.5z" />
    <glyph glyph-name="nine" unicode="9" horiz-adv-x="535" 
d="M144 -12l-5 15q131 45 205 165q74 122 74 284q0 128 -46 201t-125 73q-70 0 -110 -55t-40 -148q0 -96 41.5 -150.5t113.5 -54.5q63 0 113 41l10 -12q-62 -56 -142 -56q-89 0 -149 61t-60 156q0 102 66 167t164 65q106 0 172 -78t66 -213q0 -161 -95 -287t-253 -174z" />
    <glyph glyph-name="colon" unicode=":" horiz-adv-x="215" 
d="M108 -20l-57 56l57 57l57 -57zM108 394l-57 56l57 57l57 -57z" />
    <glyph glyph-name="semicolon" unicode=";" horiz-adv-x="226" 
d="M72 -142l-5 7q54 36 54 84q0 53 -65 96l45 50q69 -33 69 -102q0 -39 -26.5 -75.5t-71.5 -59.5zM113 394l-57 56l57 57l57 -57z" />
    <glyph glyph-name="less" unicode="&#x3c;" horiz-adv-x="508" 
d="M446 544l-379 -180l379 -180l-10 -18l-398 189v18l398 189z" />
    <glyph glyph-name="equal" unicode="=" horiz-adv-x="508" 
d="M50 426v20h408v-20h-408zM50 282v20h408v-20h-408z" />
    <glyph glyph-name="greater" unicode="&#x3e;" horiz-adv-x="508" 
d="M72 562l398 -189v-18l-398 -189l-10 18l379 180l-379 180z" />
    <glyph glyph-name="question" unicode="?" horiz-adv-x="469" 
d="M166 263q0 29 19 56t64 70q59 57 84.5 97t25.5 90q0 59 -39.5 95.5t-106.5 36.5q-104 0 -179 -90l-12 8q37 45 88 79q53 35 132 35q83 0 136 -43q55 -43 55 -116q0 -39 -20 -76q-19 -33 -44 -59.5t-76 -69.5q-55 -47 -75 -71t-20 -49q0 -44 56 -44q13 0 28 3l3 -14
q-17 -3 -32 -3q-40 0 -63.5 16.5t-23.5 48.5zM238 -20l-57 56l57 57l57 -57z" />
    <glyph glyph-name="at" unicode="@" horiz-adv-x="858" 
d="M648 527l-50 -240q-8 -43 -8 -63q0 -67 60 -67q63 0 111 70t48 167q3 137 -99.5 234.5t-247.5 95.5q-161 3 -277.5 -119t-113.5 -292q-2 -167 108.5 -281t273.5 -111q141 0 246 79l10 -12q-112 -83 -260 -83q-175 -3 -297 114t-119 289q-2 117 56.5 217.5t159 158.5
t217.5 56q158 2 268 -99t107 -246q0 -108 -57 -182t-146 -74q-90 0 -97 73q-67 -83 -152 -83q-56 0 -91.5 39t-35.5 108q-2 99 66.5 178t161.5 77q73 0 112 -44l40 40h6zM540 236q1 31 8 53l35 171q-33 55 -96 55q-70 0 -120 -70.5t-50 -161.5q0 -63 26 -96t69 -33
q74 0 128 82z" />
    <glyph glyph-name="A" unicode="A" horiz-adv-x="599" 
d="M520 0l-94 241h-303q-31 -80 -46 -137q-16 -57 -23 -104h-53q31 72 111 270l19 48l167 423h4l292 -741h-74zM130 259h289l-145 369l-124 -317z" />
    <glyph glyph-name="B" unicode="B" horiz-adv-x="611" 
d="M579 199q0 -93 -79 -146t-222 -53h-203v728h212q120 0 182.5 -45.5t62.5 -127.5q0 -67 -47 -112q-47 -44 -113 -59v-2q89 -6 148 -56t59 -127zM273 712h-130v-329h147q78 0 123 46q46 46 46 118q0 74 -49 119.5t-137 45.5zM503 186q0 82 -52.5 131.5t-141.5 49.5h-166
v-344q18 -4 52 -5q50 -2 66 -2q242 0 242 170z" />
    <glyph glyph-name="C" unicode="C" horiz-adv-x="704" 
d="M40 359q-3 166 104 274.5t263 106.5q86 0 157 -31t117 -87l-39 -35q-93 137 -240 137q-122 2 -204.5 -97.5t-81.5 -248.5q-2 -156 86 -256.5t217 -98.5q166 0 260 146l12 -7q-108 -174 -302 -174q-152 0 -250.5 102.5t-98.5 268.5z" />
    <glyph glyph-name="D" unicode="D" horiz-adv-x="732" 
d="M691 373q0 -174 -103 -273.5t-278 -99.5h-235v728h245q171 0 271 -93.5t100 -261.5zM615 367q0 154 -84 249.5t-221 95.5h-167v-687q43 -9 177 -9q139 0 217 92t78 259z" />
    <glyph glyph-name="E" unicode="E" horiz-adv-x="523" 
d="M505 48h2l-17 -48h-415v728h401l12 -46h-2q-141 28 -279 28h-64v-322h58q153 0 213 11h2v-42h-2q-65 13 -213 13h-58v-352h65q162 0 297 30z" />
    <glyph glyph-name="F" unicode="F" horiz-adv-x="478" 
d="M188 710h-45v-334h48q153 0 213 11h2v-42h-2q-65 13 -213 13h-48v-358h-68v728h382l12 -46h-2q-140 28 -279 28z" />
    <glyph glyph-name="G" unicode="G" horiz-adv-x="745" 
d="M443 330h259v-246q-124 -96 -285 -96q-169 0 -273 101t-104 270q-2 167 106.5 275t268.5 106q83 0 154.5 -31.5t116.5 -86.5l-40 -35q-92 137 -241 137q-127 0 -208 -98.5t-81 -259.5q-2 -157 85 -259.5t222 -100.5q127 0 213 76v230h-182z" />
    <glyph glyph-name="H" unicode="H" horiz-adv-x="677" 
d="M534 728h69v-728h-69v370h-391v-370h-68v728h68v-340h391v340z" />
    <glyph glyph-name="I" unicode="I" horiz-adv-x="218" 
d="M75 0v728h68v-728h-68z" />
    <glyph glyph-name="J" unicode="J" horiz-adv-x="222" 
d="M-60 -150l-7 12q66 42 97 87q32 47 42 108q10 59 10 163v508h68v-500q0 -120 -21 -188q-21 -69 -64 -107q-42 -39 -125 -83z" />
    <glyph glyph-name="K" unicode="K" horiz-adv-x="606" 
d="M75 0v728h68v-728h-68zM338 494l-94 -89l349 -331v-89h-5l-407 388l144 136q148 139 202 219h66v-2q-89 -78 -255 -232z" />
    <glyph glyph-name="L" unicode="L" horiz-adv-x="427" 
d="M414 50h2l-17 -50h-324v728h68v-710h23q118 0 248 32z" />
    <glyph glyph-name="M" unicode="M" horiz-adv-x="836" 
d="M790 0h-69l-63 672l-252 -626h-4l-272 608l-30 -334q-14 -157 -14 -261q0 -46 1 -59h-47q22 119 40 321l34 371l-15 33v3h74l255 -575l232 575h62z" />
    <glyph glyph-name="N" unicode="N" horiz-adv-x="638" 
d="M528 728h46q-13 -111 -13 -318v-422h-7l-453 653v-323q0 -218 13 -318h-46q13 111 13 318v352l-38 55v3h81l417 -606v288q0 218 -13 318z" />
    <glyph glyph-name="O" unicode="O" horiz-adv-x="824" 
d="M39 358q-2 167 109 275.5t270 106.5q155 2 262 -102.5t105 -267.5q2 -167 -109 -275.5t-270 -106.5q-155 -2 -262.5 102.5t-104.5 267.5zM709 360q0 159 -85.5 261.5t-213.5 102.5q-127 2 -211.5 -99t-83.5 -257q-1 -159 86 -262.5t215 -101.5q125 -2 210 99.5t83 256.5z
" />
    <glyph glyph-name="P" unicode="P" horiz-adv-x="539" 
d="M510 530q0 -102 -76.5 -163t-205.5 -61q-43 0 -85 6v-312h-68v728h153q138 0 210 -51t72 -147zM435 518q0 92 -54 143t-158 51h-80v-382q32 -8 78 -8q104 0 159 51t55 145z" />
    <glyph glyph-name="Q" unicode="Q" horiz-adv-x="824" 
d="M926 -116v-4q-60 -30 -140 -30q-97 0 -193 39q-95 37 -147 101q-34 -2 -40 -2q-155 -2 -262.5 102.5t-104.5 267.5q-2 167 109 275.5t270 106.5q155 2 262 -102.5t105 -267.5q0 -135 -72.5 -233t-189.5 -132q139 -130 311 -130q46 0 92 9zM416 4q125 -2 210 99.5
t83 256.5q0 159 -85.5 261.5t-213.5 102.5q-127 2 -211.5 -99t-83.5 -257q-1 -159 86 -262.5t215 -101.5z" />
    <glyph glyph-name="R" unicode="R" horiz-adv-x="588" 
d="M337 346l234 -268v-93h-5l-279 320q-20 23 -57 23h-87v-328h-68v728h149q140 0 213 -47t73 -139q0 -71 -44 -117.5t-129 -78.5zM437 536q0 83 -55 129.5t-159 46.5h-80v-361q20 -4 48 -5q42 -2 54 -2q85 0 138.5 55.5t53.5 136.5z" />
    <glyph glyph-name="S" unicode="S" horiz-adv-x="529" 
d="M34 43l15 49q35 -38 98 -64q63 -24 121 -24q75 0 124 42t49 108q-2 67 -40 104t-120 77l-50 23q-60 29 -94 51q-90 59 -90 150q0 79 61 130t157 51q110 0 200 -55l-12 -44q-88 83 -197 83q-70 0 -111.5 -37t-41.5 -95q0 -42 21 -72q20 -28 50 -48.5t87 -47.5l50 -23
q58 -27 98 -54q86 -56 86 -156q0 -91 -68 -147t-166 -56q-59 0 -120 16q-64 17 -107 39z" />
    <glyph glyph-name="T" unicode="T" horiz-adv-x="550" 
d="M528 728l13 -49h-2q-111 31 -202 31h-27v-710h-69v710h-28q-90 0 -201 -31h-2l12 49h506z" />
    <glyph glyph-name="U" unicode="U" horiz-adv-x="643" 
d="M69 241v487h69v-483q0 -113 52 -171.5t154 -58.5q100 0 153 57.5t53 167.5v170q0 218 -13 318h47q-14 -117 -14 -318v-165q0 -257 -249 -257q-123 0 -187.5 65t-64.5 188z" />
    <glyph glyph-name="V" unicode="V" horiz-adv-x="599" 
d="M544 728h53q-26 -59 -60 -143q-16 -40 -38 -96l-31 -79l-167 -423h-4l-293 741h75l245 -627l125 316q46 114 66 185q22 72 29 126z" />
    <glyph glyph-name="W" unicode="W" horiz-adv-x="940" 
d="M884 728h50q-33 -87 -96 -275l-15 -44l-143 -422h-4l-205 613l-209 -613h-4l-250 741h73l205 -613l209 613h4l205 -612l100 299q60 174 80 313z" />
    <glyph glyph-name="X" unicode="X" horiz-adv-x="599" 
d="M381 463l-45 -63l244 -313v-102h-4l-285 364l-69 -96q-96 -137 -141 -253h-74q56 64 200 264l71 101l-284 363h86l243 -312l42 58q115 163 150 254h65q-91 -109 -199 -265z" />
    <glyph glyph-name="Y" unicode="Y" horiz-adv-x="566" 
d="M379 431l-61 -107v-324h-68v320l-237 408h79l217 -381l53 93q108 188 140 288h51q-85 -142 -174 -297z" />
    <glyph glyph-name="Z" unicode="Z" horiz-adv-x="522" 
d="M510 48h2l-17 -48h-490v4l417 706h-74q-210 0 -321 -28h-2l12 46h471v-4l-417 -706h89q206 0 330 30z" />
    <glyph glyph-name="bracketleft" unicode="[" horiz-adv-x="248" 
d="M251 782v-12h-156q20 -243 20 -462t-20 -462h156v-12h-180v948h180z" />
    <glyph glyph-name="backslash" unicode="\" horiz-adv-x="365" 
d="M316 -64l-292 846h25l292 -846h-25z" />
    <glyph glyph-name="bracketright" unicode="]" horiz-adv-x="248" 
d="M-3 782h180v-948h-180v12h156q-20 243 -20 462t20 462h-156v12z" />
    <glyph glyph-name="asciicircum" unicode="^" horiz-adv-x="508" 
d="M469 358l-18 -10l-197 354l-197 -354l-18 10l213 382h4z" />
    <glyph glyph-name="underscore" unicode="_" horiz-adv-x="376" 
d="M-2 -86v22h380v-22h-380z" />
    <glyph glyph-name="grave" unicode="`" horiz-adv-x="600" 
d="M317 606l-157 170h85l79 -165z" />
    <glyph glyph-name="a" unicode="a" horiz-adv-x="489" 
d="M481 21v-6q-37 -20 -66 -20q-60 0 -66 73q-39 -36 -91 -57t-101 -21q-63 0 -101 32.5t-38 87.5q0 68 60.5 110.5t168.5 54.5q54 6 102 9v59q0 167 -133 167q-78 0 -152 -62l-9 11q88 79 186 79q87 0 129.5 -46t42.5 -141v-256q0 -46 8 -61t41 -15q3 0 19 2zM194 19
q85 0 155 68v183q-138 -13 -202 -45t-64 -100q0 -50 30.5 -78t80.5 -28z" />
    <glyph glyph-name="b" unicode="b" horiz-adv-x="562" 
d="M531 271q2 -122 -73 -203.5t-179 -79.5q-106 0 -175 74l-41 -63h-4v788l60 23h4v-355q81 83 182 83q97 0 161.5 -75.5t64.5 -191.5zM461 262q0 113 -49.5 181t-125.5 68q-42 0 -85.5 -21.5t-77.5 -59.5v-326q23 -46 64 -73t89 -27q80 0 132.5 71.5t52.5 186.5z" />
    <glyph glyph-name="c" unicode="c" horiz-adv-x="500" 
d="M31 259q0 121 72.5 200t177.5 79q131 0 199 -92l-35 -31q-68 109 -162 109q-78 0 -129.5 -70t-51.5 -181q0 -115 54 -183.5t138 -68.5q50 0 99.5 26.5t80.5 74.5l12 -7q-83 -127 -215 -127q-104 0 -172 75.5t-68 195.5z" />
    <glyph glyph-name="d" unicode="d" horiz-adv-x="564" 
d="M525 14l-59 -22l-26 81q-79 -85 -183 -85q-97 0 -161.5 75.5t-64.5 191.5q-2 122 73 203.5t179 79.5q91 0 156 -62v311l60 23h4v-721zM439 96v326q-23 46 -64 73t-89 27q-80 0 -132.5 -71.5t-52.5 -186.5q0 -113 49.5 -181t125.5 -68q42 0 85.5 21.5t77.5 59.5z" />
    <glyph glyph-name="e" unicode="e" horiz-adv-x="524" 
d="M497 302h-395q-1 -5 -1 -26q0 -117 55 -186t140 -69q50 0 100 27t81 74l12 -7q-82 -127 -217 -127q-105 0 -173 75t-68 194q0 125 73 203t185 78q98 0 153.5 -63t54.5 -173zM103 318h328q0 94 -40 150t-109 56q-70 0 -120 -57q-48 -54 -59 -149z" />
    <glyph glyph-name="f" unicode="f" horiz-adv-x="340" 
d="M166 623v-97h180l-14 -22h-166v-504h-63v504h-84v22h84v101q0 92 42 139.5t120 47.5q76 0 145 -39l-7 -12q-56 24 -111 24q-126 0 -126 -164z" />
    <glyph glyph-name="g" unicode="g" horiz-adv-x="500" 
d="M488 -55q0 -76 -76 -130.5t-187 -54.5q-96 0 -156.5 41.5t-60.5 107.5q0 37 19 75l41 12h4q-17 -46 -17 -80q0 -64 45.5 -102t124.5 -38q97 0 155 39t58 105q0 43 -32.5 67.5t-93.5 28.5l-148 9q-117 7 -117 75q0 26 15 44.5t50 39.5l24 14q-46 24 -72.5 65t-26.5 94
q0 79 57 130.5t143 51.5q68 0 121 -35q52 64 133 64l-8 -67q-29 8 -52 8q-36 0 -60 -15q64 -51 64 -137q0 -78 -57 -129.5t-142 -51.5q-46 0 -84 15l-26 -17q-33 -22 -33 -49q0 -37 76 -41l152 -10q167 -11 167 -129zM102 357q0 -73 37.5 -119t96.5 -46q60 0 97 45.5
t37 119.5q0 72 -38 119t-96 47q-59 0 -97 -47q-37 -46 -37 -119z" />
    <glyph glyph-name="h" unicode="h" horiz-adv-x="549" 
d="M492 351v-351h-63v347q0 63 -24 112q-23 50 -107 50q-92 0 -175 -80v-429h-64v787l60 23h4v-361q96 89 203 89q166 0 166 -187z" />
    <glyph glyph-name="i" unicode="i" horiz-adv-x="189" 
d="M94 633l-53 53l53 53l54 -53zM63 0v513l59 22h4v-535h-63z" />
    <glyph glyph-name="j" unicode="j" horiz-adv-x="193" 
d="M99 633l-54 53l54 53l53 -53zM-55 -228l-4 12q59 11 92.5 60.5t33.5 126.5v542l60 22h4v-562q0 -83 -50 -136t-136 -65z" />
    <glyph glyph-name="k" unicode="k" horiz-adv-x="483" 
d="M59 787l60 23h4v-810h-64v787zM212 322l261 -253v-84h-4l-318 310l88 76l101 90q32 30 66 65h62v-2q-121 -81 -218 -168z" />
    <glyph glyph-name="l" unicode="l" horiz-adv-x="189" 
d="M63 0v787l59 23h4v-810h-63z" />
    <glyph glyph-name="m" unicode="m" horiz-adv-x="899" 
d="M843 351v-351h-64v347q0 63 -24 112q-23 50 -107 50q-85 0 -172 -88q7 -27 7 -70v-351h-64v347q0 63 -24 112q-23 50 -107 50q-85 0 -165 -80v-429h-64v513l60 22h4v-86q48 47 92.5 68t100.5 21q124 0 155 -100q53 53 99.5 76.5t105.5 23.5q167 0 167 -187z" />
    <glyph glyph-name="n" unicode="n" horiz-adv-x="548" 
d="M492 351v-351h-63v347q0 63 -24 112q-23 50 -107 50q-92 0 -175 -80v-429h-64v513l60 22h4v-86q96 89 202 89q167 0 167 -187z" />
    <glyph glyph-name="o" unicode="o" horiz-adv-x="578" 
d="M31 260q0 123 74.5 200.5t187.5 77.5q112 0 182.5 -74t70.5 -198q0 -123 -74 -200.5t-187 -77.5q-112 0 -183 74t-71 198zM476 260q0 117 -53.5 190.5t-135.5 73.5q-81 0 -133.5 -71.5t-52.5 -186.5q0 -117 53.5 -190.5t135.5 -73.5q81 0 133.5 71.5t52.5 186.5z" />
    <glyph glyph-name="p" unicode="p" horiz-adv-x="562" 
d="M530 271q2 -122 -72.5 -203.5t-178.5 -79.5q-89 0 -156 61v-277h-64v741l60 22h4v-80q81 83 181 83q97 0 161.5 -75.5t64.5 -191.5zM460 262q0 113 -49 181t-125 68q-42 0 -85.5 -21.5t-77.5 -59.5v-325q22 -47 62.5 -74t89.5 -27q81 0 133 71t52 187z" />
    <glyph glyph-name="q" unicode="q" horiz-adv-x="562" 
d="M497 535h6v-763h-64v300q-81 -84 -182 -84q-97 0 -161.5 75.5t-64.5 191.5q-2 122 73 203.5t179 79.5q99 0 169 -66zM439 96v326q-23 46 -64 73t-89 27q-80 0 -132.5 -71.5t-52.5 -186.5q0 -113 49.5 -181t125.5 -68q42 0 85.5 21.5t77.5 59.5z" />
    <glyph glyph-name="r" unicode="r" horiz-adv-x="340" 
d="M337 530l-22 -54q-27 12 -56 12q-82 0 -136 -94v-394h-64v513l59 22h4v-116q69 117 166 117q25 0 49 -6z" />
    <glyph glyph-name="s" unicode="s" horiz-adv-x="421" 
d="M23 40l12 39q74 -77 177 -77q61 0 99.5 30.5t38.5 79.5q0 30 -17 53q-26 33 -108 68l-40 18q-47 21 -79 39q-72 42 -72 115q0 60 48 96.5t125 36.5q97 0 170 -43l-12 -38q-76 67 -164 67q-53 0 -85 -27t-32 -68q0 -29 18 -52q17 -19 37.5 -31t69.5 -33l40 -18
q47 -21 76 -38q74 -43 74 -120q0 -67 -53 -108t-140 -41q-106 0 -183 52z" />
    <glyph glyph-name="t" unicode="t" horiz-adv-x="343" 
d="M341 40l8 -12q-64 -40 -127 -40q-77 0 -100 41q-22 40 -22 93v382h-84v17l79 5l65 162h4v-162h180l-14 -22h-166v-376q0 -44 15 -79q16 -34 73 -34q45 0 89 25z" />
    <glyph glyph-name="u" unicode="u" horiz-adv-x="547" 
d="M485 89l22 -75l-59 -22l-26 86v4q-91 -94 -200 -94q-167 0 -167 187v338l59 22h4v-356q0 -61 23 -112q24 -50 108 -50q43 0 90.5 24t82.5 65v407l59 22h4v-446z" />
    <glyph glyph-name="v" unicode="v" horiz-adv-x="476" 
d="M426 526h49q-45 -94 -129 -293l-104 -245h-8l-228 538h68l188 -444l67 157q86 202 97 287z" />
    <glyph glyph-name="w" unicode="w" horiz-adv-x="749" 
d="M693 526h50q-44 -102 -117 -299l-89 -239h-8l-153 428l-153 -428h-8l-209 538h68l168 -433l154 433h7l155 -430l51 139q72 193 84 291z" />
    <glyph glyph-name="x" unicode="x" horiz-adv-x="440" 
d="M253 300l171 -221v-94h-5l-208 270l-58 -83q-67 -94 -90 -172h-62q47 54 137 182l61 87l-198 257h76l165 -212l30 43q71 100 97 169h53q-58 -69 -135 -178z" />
    <glyph glyph-name="y" unicode="y" horiz-adv-x="472" 
d="M419 526h48q-27 -59 -54 -127l-41 -99l-27 -68l-129 -317q-61 -149 -208 -149l4 48q18 -5 42 -5q44 0 83 27.5t60 79.5l34 86l-227 524h68l192 -442l64 155q79 194 91 287z" />
    <glyph glyph-name="z" unicode="z" horiz-adv-x="419" 
d="M410 38h3l-11 -38h-390v4l311 507h-71q-122 0 -231 -20h-3l8 35h375v-4l-311 -507h78q127 0 242 23z" />
    <glyph glyph-name="braceleft" unicode="{" horiz-adv-x="259" 
d="M113 661q0 -43 28 -120q26 -70 26 -105q0 -48 -31 -82.5t-82 -45.5q51 -11 82 -45.5t31 -82.5q0 -35 -26 -105q-28 -77 -28 -120q0 -57 35 -83t108 -26v-12q-99 0 -145 32.5t-46 104.5q0 49 30 126q25 67 25 100q0 45 -28.5 74.5t-73.5 30.5v12q45 1 73.5 30.5t28.5 74.5
q0 33 -25 100q-30 76 -30 126q0 72 46 104.5t145 32.5v-12q-73 0 -108 -26t-35 -83z" />
    <glyph glyph-name="bar" unicode="|" horiz-adv-x="166" 
d="M71 -64v846h24v-846h-24z" />
    <glyph glyph-name="braceright" unicode="}" horiz-adv-x="259" 
d="M139 197q0 -33 25 -100q30 -77 30 -126q0 -72 -45.5 -104.5t-144.5 -32.5v12q73 0 107.5 26t34.5 83q0 43 -28 120q-25 69 -25 105q0 48 31 82t81 46q-50 12 -81 46t-31 82q0 36 25 105q28 77 28 120q0 57 -34.5 83t-107.5 26v12q99 0 144.5 -32.5t45.5 -104.5
q0 -49 -30 -126q-25 -67 -25 -100q0 -45 28 -74.5t75 -30.5v-12q-47 -1 -75 -30.5t-28 -74.5z" />
    <glyph glyph-name="asciitilde" unicode="~" horiz-adv-x="521" 
d="M68 315l-12 3q19 112 100 112q36 0 122 -44q72 -40 105 -40q58 0 76 85l12 -3q-19 -112 -100 -112q-17 0 -36 6t-34 13t-51 25q-76 40 -105 40q-58 0 -77 -85z" />
    <glyph glyph-name="uni00A0" unicode="&#xa0;" horiz-adv-x="214" 
 />
    <glyph glyph-name="exclamdown" unicode="&#xa1;" horiz-adv-x="184" 
d="M92 538l57 -56l-57 -57l-57 57zM85 320h14l30 -530h-74z" />
    <glyph glyph-name="cent" unicode="&#xa2;" horiz-adv-x="523" 
d="M481 122l12 -7q-83 -127 -214 -127q-16 0 -21 1l-8 -89h-20l8 91q-89 14 -144 87t-55 181q0 121 72 200t177 79l8 86h20l-8 -87q116 -6 180 -91l-35 -31q-65 101 -146 108l-46 -498q23 -4 41 -4q50 0 99 27t80 74zM242 31l45 493q-78 -2 -128.5 -71.5t-50.5 -179.5
q0 -92 36 -156t98 -86z" />
    <glyph glyph-name="sterling" unicode="&#xa3;" horiz-adv-x="548" 
d="M511 163h10l-5 -38q-5 -31 -11 -50.5t-20 -41t-41 -33t-67 -12.5q-52 0 -165 35q-60 20 -83 20q-33 0 -85 -44l-10 18q1 1 43 33q80 61 80 165q0 50 -28 141h-89v18h83q-37 117 -37 171q0 89 52 142t139 53q132 0 203 -126l-12 -7q-67 95 -173 95q-65 0 -103.5 -40.5
t-38.5 -110.5q0 -37 9 -75q14 -48 31 -102h206v-18h-201q21 -66 21 -109q0 -91 -83 -162q38 -1 128 -25q84 -22 119 -22q50 0 75.5 21.5t39.5 63.5z" />
    <glyph glyph-name="currency" unicode="&#xa4;" horiz-adv-x="494" 
d="M378 215l71 -71l-14 -14l-71 71q-50 -44 -117 -44t-117 44l-71 -71l-14 14l71 71q-45 51 -45 117t45 117l-71 71l14 14l71 -71q50 44 117 44t117 -44l71 71l14 -14l-71 -71q45 -51 45 -117t-45 -117zM401 332q0 63 -45.5 109t-108.5 46t-108.5 -46t-45.5 -109t45.5 -109
t108.5 -46t108.5 46t45.5 109z" />
    <glyph glyph-name="yen" unicode="&#xa5;" horiz-adv-x="588" 
d="M390 431l-51 -89h168v-18h-178v-98h178v-18h-178v-208h-68v208h-178v18h178v94l-2 4h-176v18h165l-224 386h79l217 -381l53 93q108 188 140 288h51q-86 -142 -174 -297z" />
    <glyph glyph-name="brokenbar" unicode="&#xa6;" horiz-adv-x="166" 
d="M71 409v373h24v-373h-24zM71 -64v373h24v-373h-24z" />
    <glyph glyph-name="section" unicode="&#xa7;" horiz-adv-x="517" 
d="M488 156q2 -99 -72.5 -185t-168.5 -83q-38 0 -84 12.5t-75 31.5l11 33q70 -63 153 -63q54 0 86.5 33.5t32.5 85.5q0 32 -15 58q-14 24 -36.5 44.5t-69.5 54.5l-30 22l-35 26q-47 35 -74 61q-83 81 -83 185q-2 99 72.5 185t165.5 83q80 0 156 -44l-11 -33q-74 63 -150 63
q-51 0 -83.5 -34t-32.5 -85q0 -32 14 -58q14 -24 37 -44.5t70 -54.5l30 -22l35 -26q68 -50 112 -107q45 -57 45 -139zM452 126q0 73 -37.5 127t-110.5 106l-37 26q-32 23 -76 58q-75 66 -75 143q0 50 34 96q-86 -73 -86 -180q0 -73 37.5 -127t110.5 -106l37 -26
q38 -27 75 -58q76 -65 76 -143q0 -50 -34 -96q86 73 86 180z" />
    <glyph glyph-name="dieresis" unicode="&#xa8;" horiz-adv-x="600" 
d="M212 624l-50 49l50 49l48 -49zM389 624l-49 49l49 49l49 -49z" />
    <glyph glyph-name="copyright" unicode="&#xa9;" horiz-adv-x="826" 
d="M38 364q-3 153 109.5 266t265.5 110q100 2 187.5 -49.5t138.5 -139t49 -187.5q2 -100 -49 -187.5t-138.5 -139t-187.5 -49.5q-153 -3 -265.5 110t-109.5 266zM766 364q3 146 -103 253.5t-250 104.5q-144 3 -250 -104.5t-103 -253.5q-3 -146 103 -253.5t250 -104.5
q144 -3 250 104.5t103 253.5zM193 361q0 101 62.5 166t157.5 65q110 0 170 -85l-34 -18q-56 89 -141 89q-71 0 -118 -58t-47 -151t48.5 -150t120.5 -57q46 0 91 23.5t72 63.5l12 -7q-72 -106 -187 -106q-89 0 -148 63t-59 162z" />
    <glyph glyph-name="ordfeminine" unicode="&#xaa;" horiz-adv-x="354" 
d="M328 414v-4q-24 -15 -42 -15q-41 0 -45 46q-52 -49 -117 -49q-41 0 -65.5 21t-24.5 56q0 43 38.5 70.5t107.5 34.5l61 6v35q0 103 -82 103q-49 0 -100 -39l-8 9q64 52 126 52q110 0 110 -120v-162q0 -27 5 -36t23 -9q9 0 13 1zM147 415q54 0 94 40v113
q-82 -7 -121.5 -27.5t-39.5 -61.5q0 -30 18 -47t49 -17z" />
    <glyph glyph-name="guillemotleft" unicode="&#xab;" horiz-adv-x="456" 
d="M238 504l-135 -240l135 -240h-12l-194 240l194 240h12zM418 504l-136 -240l136 -240h-12l-195 240l195 240h12z" />
    <glyph glyph-name="logicalnot" unicode="&#xac;" horiz-adv-x="508" 
d="M43 374h408v-220h-22v200h-386v20z" />
    <glyph glyph-name="uni00AD" unicode="&#xad;" horiz-adv-x="307" 
d="M46 262v31h215v-31h-215z" />
    <glyph glyph-name="registered" unicode="&#xae;" horiz-adv-x="627" 
d="M585 469q2 -109 -80 -190.5t-191 -79.5q-110 -2 -192 79.5t-80 190.5q-2 108 80 190.5t192 80.5q109 2 191 -80.5t80 -190.5zM563 471q2 101 -73.5 177t-175.5 74q-101 2 -176.5 -74t-73.5 -177q-2 -101 73.5 -177.5t176.5 -74.5q100 -2 175.5 74.5t73.5 177.5zM473 309
v-6q-10 -2 -18 -2q-25 0 -41 11t-32 34l-60 93q-5 10 -24 10h-40v-147h-29v331h63q129 0 129 -86q0 -59 -77 -90l67 -99q34 -49 62 -49zM389 544q0 36 -25 56t-72 20h-34v-156q16 -3 45 -3q37 0 61.5 23.5t24.5 59.5z" />
    <glyph glyph-name="overscore" unicode="&#xaf;" horiz-adv-x="600" 
d="M170 654v25h261v-25h-261z" />
    <glyph glyph-name="degree" unicode="&#xb0;" horiz-adv-x="338" 
d="M29 613q0 58 41 98.5t99 40.5t99 -40.5t41 -98.5t-41 -98.5t-99 -40.5t-99 40.5t-41 98.5zM287 613q0 50 -35 85q-34 36 -83 36t-84 -36q-34 -34 -34 -85t34 -86q35 -35 84 -35q48 0 83 35q35 37 35 86z" />
    <glyph glyph-name="plusminus" unicode="&#xb1;" horiz-adv-x="508" 
d="M265 374h193v-20h-193v-200h-22v200h-193v20h193v200h22v-200zM50 0v20h408v-20h-408z" />
    <glyph glyph-name="uni00B2" unicode="&#xb2;" horiz-adv-x="310" 
d="M284 355l-12 -43h-250v3l33 35q93 96 130 157q39 61 39 111q0 41 -22.5 65.5t-58.5 24.5q-71 0 -108 -75l-11 5q44 96 131 96q52 0 84.5 -30.5t32.5 -80.5q0 -47 -45 -109q-45 -61 -157 -166l-4 -4h38q100 0 180 11z" />
    <glyph glyph-name="uni00B3" unicode="&#xb3;" horiz-adv-x="305" 
d="M24 333l9 30q45 -45 96 -45q47 0 75 29.5t28 72.5q0 42 -28 69t-73 31l-23 1l-3 10l22 7q86 32 86 102q0 32 -20 51t-52 19q-59 0 -99 -53l-11 5q50 72 122 72q46 0 75.5 -24.5t29.5 -62.5q0 -32 -24 -59t-61 -42v-2q44 -9 72 -40t28 -74q0 -54 -40 -89t-102 -35
q-51 0 -107 27z" />
    <glyph glyph-name="acute" unicode="&#xb4;" horiz-adv-x="600" 
d="M291 606l-7 5l79 165h85z" />
    <glyph glyph-name="uni00B5" unicode="&#xb5;" horiz-adv-x="570" 
d="M499 89l22 -75l-59 -22l-26 86v4q-91 -94 -201 -94q-90 0 -128 65q25 -140 25 -205v-60h-63v725l59 22h4v-356q0 -61 23 -112q24 -50 108 -50q43 0 90.5 24t82.5 65v407l59 22h4v-446z" />
    <glyph glyph-name="paragraph" unicode="&#xb6;" horiz-adv-x="466" 
d="M238 -64v440q-94 4 -154 61q-58 57 -58 148q0 92 58 144.5t155 52.5h23v-846h-24zM362 782h24v-817q0 -79 -38.5 -129.5t-109.5 -63.5v17q60 13 92 58.5t32 117.5v817z" />
    <glyph glyph-name="middot" unicode="&#xb7;" horiz-adv-x="196" 
d="M98 226l-57 56l57 57l57 -57z" />
    <glyph glyph-name="cedilla" unicode="&#xb8;" horiz-adv-x="600" 
d="M403 -135q0 -36 -30 -59t-75 -23q-40 0 -74 15l3 9q25 -9 60 -9q34 0 55 15t21 38q0 21 -21.5 35.5t-54.5 14.5h-25l44 99h20l-25 -55q46 -3 74 -25.5t28 -54.5z" />
    <glyph glyph-name="uni00B9" unicode="&#xb9;" horiz-adv-x="182" 
d="M124 734h4v-422h-43v351q-24 -14 -72 -32v10q28 12 59 38t52 55z" />
    <glyph glyph-name="ordmasculine" unicode="&#xba;" horiz-adv-x="391" 
d="M32 564q0 78 46 127t120 49q72 0 117 -47.5t45 -124.5q0 -76 -47.5 -126t-119.5 -50t-116.5 47t-44.5 125zM311 564q0 72 -32.5 118t-83.5 46t-82.5 -44.5t-31.5 -115.5q0 -72 32 -118t83 -46t83 44.5t32 115.5z" />
    <glyph glyph-name="guillemotright" unicode="&#xbb;" horiz-adv-x="456" 
d="M50 504l194 -240l-194 -240h-12l135 240l-135 240h12zM229 504l195 -240l-195 -240h-12l136 240l-136 240h12z" />
    <glyph glyph-name="onequarter" unicode="&#xbc;" horiz-adv-x="697" 
d="M143 734h4v-422h-43v351q-24 -14 -72 -32v10q28 12 59 38t52 55zM73 0l440 728h23l-440 -728h-23zM673 149l-8 -31h-59v-118h-42v118h-185l-2 10l222 293h7v-272h67zM413 149h151v199z" />
    <glyph glyph-name="onehalf" unicode="&#xbd;" horiz-adv-x="669" 
d="M139 734h4v-422h-43v351q-24 -14 -72 -32v10q28 12 59 38t52 55zM68 0l440 728h23l-440 -728h-23zM641 43l-12 -43h-250v3l33 35q93 96 130 157q39 61 39 111q0 41 -22.5 65.5t-58.5 24.5q-70 0 -108 -75l-11 5q43 96 131 96q52 0 84.5 -30.5t32.5 -80.5q0 -47 -45 -109
q-45 -61 -157 -166l-4 -4h38q100 0 180 11z" />
    <glyph glyph-name="threequarters" unicode="&#xbe;" horiz-adv-x="760" 
d="M35 333l9 30q45 -45 96 -45q47 0 75 29.5t28 72.5q0 42 -28 69t-73 31l-23 1l-3 10l22 7q86 32 86 102q0 32 -20 51t-52 19q-59 0 -99 -53l-11 5q50 72 122 72q46 0 75.5 -24.5t29.5 -62.5q0 -32 -24 -59t-61 -42v-2q44 -9 72 -40t28 -74q0 -54 -40 -89t-102 -35
q-52 0 -107 27zM136 0l440 728h23l-440 -728h-23zM737 149l-8 -31h-59v-118h-42v118h-185l-2 10l222 293h7v-272h67zM477 149h151v199z" />
    <glyph glyph-name="questiondown" unicode="&#xbf;" horiz-adv-x="460" 
d="M226 538l57 -56l-57 -57l-57 57zM299 255q0 -29 -18 -54.5t-65 -71.5q-60 -56 -85.5 -96t-25.5 -91q0 -59 39.5 -95.5t106.5 -36.5q104 0 179 90l12 -8q-37 -45 -88 -79q-52 -35 -131 -35q-83 0 -138 43q-54 43 -54 116q0 39 20 76q19 33 44 59.5t76 69.5q54 44 75 69
t21 51q0 44 -57 44q-12 0 -27 -3l-3 14q15 3 32 3q40 0 63.5 -16.5t23.5 -48.5z" />
    <glyph glyph-name="Agrave" unicode="&#xc0;" horiz-adv-x="599" 
d="M520 0l-94 241h-303q-31 -80 -46 -137q-16 -57 -23 -104h-53q31 72 111 270l19 48l167 423h4l292 -741h-74zM130 259h289l-145 369l-124 -317zM313 802l-168 160h98l77 -155z" />
    <glyph glyph-name="Aacute" unicode="&#xc1;" horiz-adv-x="599" 
d="M520 0l-94 241h-303q-31 -80 -46 -137q-16 -57 -23 -104h-53q31 72 111 270l19 48l167 423h4l292 -741h-74zM130 259h289l-145 369l-124 -317zM287 802l-7 5l77 155h98z" />
    <glyph glyph-name="Acircumflex" unicode="&#xc2;" horiz-adv-x="599" 
d="M520 0l-94 241h-303q-31 -80 -46 -137q-16 -57 -23 -104h-53q31 72 111 270l19 48l167 423h4l292 -741h-74zM130 259h289l-145 369l-124 -317zM463 807l-6 -5l-157 97l-157 -97l-6 5l160 155h6z" />
    <glyph glyph-name="Atilde" unicode="&#xc3;" horiz-adv-x="599" 
d="M520 0l-94 241h-303q-31 -80 -46 -137q-16 -57 -23 -104h-53q31 72 111 270l19 48l167 423h4l292 -741h-74zM130 259h289l-145 369l-124 -317zM138 814l-9 2q15 97 83 97q30 0 107 -31q64 -26 88 -26q40 0 56 57l9 -2q-17 -97 -83 -97q-32 0 -106 30q-69 26 -89 26
q-39 0 -56 -56z" />
    <glyph glyph-name="Adieresis" unicode="&#xc4;" horiz-adv-x="599" 
d="M520 0l-94 241h-303q-31 -80 -46 -137q-16 -57 -23 -104h-53q31 72 111 270l19 48l167 423h4l292 -741h-74zM130 259h289l-145 369l-124 -317zM208 820l-50 49l50 49l48 -49zM393 820l-50 49l50 49l48 -49z" />
    <glyph glyph-name="Aring" unicode="&#xc5;" horiz-adv-x="599" 
d="M520 0l-94 241h-303q-31 -80 -46 -137q-16 -57 -23 -104h-53q31 72 111 270l19 48l167 423h4l292 -741h-74zM130 259h289l-145 369l-124 -317zM199 898q0 42 29.5 69.5t71.5 27.5t71.5 -27.5t29.5 -69.5q0 -41 -29.5 -68.5t-71.5 -27.5t-71.5 27.5t-29.5 68.5zM365 898
q0 39 -17 62t-48 23t-48 -23t-17 -62t17 -61.5t48 -22.5t48 22.5t17 61.5z" />
    <glyph glyph-name="AE" unicode="&#xc6;" horiz-adv-x="881" 
d="M862 48h2l-17 -48h-415v262h-264q-90 -161 -125 -262h-55l434 728h411l12 -46h-2q-140 28 -278 28h-64v-322h58q153 0 213 11h2v-42h-2q-65 13 -213 13h-58v-352h65q162 0 296 30zM179 280h253v427l-234 -394q-6 -8 -19 -33z" />
    <glyph glyph-name="Ccedilla" unicode="&#xc7;" horiz-adv-x="704" 
d="M408 -12l-20 -43q46 -3 74 -25.5t28 -54.5q0 -36 -30 -59t-75 -23q-39 0 -74 15l3 9q25 -9 59 -9q35 0 56 15t21 38q0 21 -21.5 35.5t-54.5 14.5h-25l39 87q-150 -1 -250 103t-98 268q-3 166 104 274.5t263 106.5q86 0 157 -31t117 -87l-39 -35q-93 137 -240 137
q-122 2 -204.5 -97.5t-81.5 -248.5q-2 -156 86 -256.5t217 -98.5q166 0 260 146l12 -7q-106 -167 -283 -174z" />
    <glyph glyph-name="Egrave" unicode="&#xc8;" horiz-adv-x="523" 
d="M505 48h2l-17 -48h-415v728h401l12 -46h-2q-141 28 -279 28h-64v-322h58q153 0 213 11h2v-42h-2q-65 13 -213 13h-58v-352h65q162 0 297 30zM287 802l-168 160h98l77 -155z" />
    <glyph glyph-name="Eacute" unicode="&#xc9;" horiz-adv-x="523" 
d="M505 48h2l-17 -48h-415v728h401l12 -46h-2q-141 28 -279 28h-64v-322h58q153 0 213 11h2v-42h-2q-65 13 -213 13h-58v-352h65q162 0 297 30zM260 802l-7 5l77 155h98z" />
    <glyph glyph-name="Ecircumflex" unicode="&#xca;" horiz-adv-x="523" 
d="M505 48h2l-17 -48h-415v728h401l12 -46h-2q-141 28 -279 28h-64v-322h58q153 0 213 11h2v-42h-2q-65 13 -213 13h-58v-352h65q162 0 297 30zM437 807l-6 -5l-157 97l-157 -97l-6 5l160 155h6z" />
    <glyph glyph-name="Edieresis" unicode="&#xcb;" horiz-adv-x="523" 
d="M505 48h2l-17 -48h-415v728h401l12 -46h-2q-141 28 -279 28h-64v-322h58q153 0 213 11h2v-42h-2q-65 13 -213 13h-58v-352h65q162 0 297 30zM182 820l-50 49l50 49l48 -49zM367 820l-50 49l50 49l48 -49z" />
    <glyph glyph-name="Igrave" unicode="&#xcc;" horiz-adv-x="218" 
d="M75 0v728h68v-728h-68zM122 802l-168 160h98l77 -155z" />
    <glyph glyph-name="Iacute" unicode="&#xcd;" horiz-adv-x="218" 
d="M75 0v728h68v-728h-68zM96 802l-7 5l77 155h98z" />
    <glyph glyph-name="Icircumflex" unicode="&#xce;" horiz-adv-x="218" 
d="M75 0v728h68v-728h-68zM272 807l-6 -5l-157 97l-157 -97l-6 5l160 155h6z" />
    <glyph glyph-name="Idieresis" unicode="&#xcf;" horiz-adv-x="218" 
d="M75 0v728h68v-728h-68zM17 820l-50 49l50 49l48 -49zM202 820l-50 49l50 49l48 -49z" />
    <glyph glyph-name="Eth" unicode="&#xd0;" horiz-adv-x="737" 
d="M696 373q0 -174 -103 -273.5t-278 -99.5h-235v371h-62v14h62v343h245q171 0 271 -93.5t100 -261.5zM620 367q0 154 -84 249.5t-221 95.5h-167v-327h207v-14h-207v-346q44 -9 177 -9q139 0 217 92t78 259z" />
    <glyph glyph-name="Ntilde" unicode="&#xd1;" horiz-adv-x="638" 
d="M528 728h46q-13 -111 -13 -318v-422h-7l-453 653v-323q0 -218 13 -318h-46q13 111 13 318v352l-38 55v3h81l417 -606v288q0 218 -13 318zM150 814l-9 2q15 97 83 97q30 0 107 -31q64 -26 88 -26q40 0 56 57l9 -2q-17 -97 -83 -97q-32 0 -106 30q-69 26 -89 26
q-39 0 -56 -56z" />
    <glyph glyph-name="Ograve" unicode="&#xd2;" horiz-adv-x="824" 
d="M39 358q-2 167 109 275.5t270 106.5q155 2 262 -102.5t105 -267.5q2 -167 -109 -275.5t-270 -106.5q-155 -2 -262.5 102.5t-104.5 267.5zM709 360q0 159 -85.5 261.5t-213.5 102.5q-127 2 -211.5 -99t-83.5 -257q-1 -159 86 -262.5t215 -101.5q125 -2 210 99.5t83 256.5z
M425 802l-168 160h98l77 -155z" />
    <glyph glyph-name="Oacute" unicode="&#xd3;" horiz-adv-x="824" 
d="M39 358q-2 167 109 275.5t270 106.5q155 2 262 -102.5t105 -267.5q2 -167 -109 -275.5t-270 -106.5q-155 -2 -262.5 102.5t-104.5 267.5zM709 360q0 159 -85.5 261.5t-213.5 102.5q-127 2 -211.5 -99t-83.5 -257q-1 -159 86 -262.5t215 -101.5q125 -2 210 99.5t83 256.5z
M399 802l-7 5l77 155h98z" />
    <glyph glyph-name="Ocircumflex" unicode="&#xd4;" horiz-adv-x="824" 
d="M39 358q-2 167 109 275.5t270 106.5q155 2 262 -102.5t105 -267.5q2 -167 -109 -275.5t-270 -106.5q-155 -2 -262.5 102.5t-104.5 267.5zM709 360q0 159 -85.5 261.5t-213.5 102.5q-127 2 -211.5 -99t-83.5 -257q-1 -159 86 -262.5t215 -101.5q125 -2 210 99.5t83 256.5z
M575 807l-6 -5l-157 97l-157 -97l-6 5l160 155h6z" />
    <glyph glyph-name="Otilde" unicode="&#xd5;" horiz-adv-x="824" 
d="M39 358q-2 167 109 275.5t270 106.5q155 2 262 -102.5t105 -267.5q2 -167 -109 -275.5t-270 -106.5q-155 -2 -262.5 102.5t-104.5 267.5zM709 360q0 159 -85.5 261.5t-213.5 102.5q-127 2 -211.5 -99t-83.5 -257q-1 -159 86 -262.5t215 -101.5q125 -2 210 99.5t83 256.5z
M250 814l-9 2q15 97 83 97q30 0 107 -31q64 -26 88 -26q40 0 56 57l9 -2q-17 -97 -83 -97q-32 0 -106 30q-69 26 -89 26q-39 0 -56 -56z" />
    <glyph glyph-name="Odieresis" unicode="&#xd6;" horiz-adv-x="824" 
d="M39 358q-2 167 109 275.5t270 106.5q155 2 262 -102.5t105 -267.5q2 -167 -109 -275.5t-270 -106.5q-155 -2 -262.5 102.5t-104.5 267.5zM709 360q0 159 -85.5 261.5t-213.5 102.5q-127 2 -211.5 -99t-83.5 -257q-1 -159 86 -262.5t215 -101.5q125 -2 210 99.5t83 256.5z
M320 820l-50 49l50 49l48 -49zM505 820l-50 49l50 49l48 -49z" />
    <glyph glyph-name="multiply" unicode="&#xd7;" horiz-adv-x="508" 
d="M439 533l-170 -170l169 -169l-15 -15l-169 169l-169 -169l-15 15l169 169l-170 170l15 15l170 -170l170 170z" />
    <glyph glyph-name="Oslash" unicode="&#xd8;" horiz-adv-x="824" 
d="M785 370q2 -167 -109 -275.5t-270 -106.5q-122 0 -211 61l-73 -100l-16 11l73 100q-67 49 -103.5 125.5t-36.5 172.5q-2 167 109 275.5t270 106.5q122 0 211 -61l73 100l16 -11l-73 -100q140 -107 140 -298zM207 98l397 546q-80 80 -194 80q-127 2 -211.5 -99t-83.5 -257
q0 -169 92 -270zM709 360q0 169 -92 270l-397 -546q80 -80 196 -80q125 -2 210 99.5t83 256.5z" />
    <glyph glyph-name="Ugrave" unicode="&#xd9;" horiz-adv-x="643" 
d="M69 241v487h69v-483q0 -113 52 -171.5t154 -58.5q100 0 153 57.5t53 167.5v170q0 218 -13 318h47q-14 -117 -14 -318v-165q0 -257 -249 -257q-123 0 -187.5 65t-64.5 188zM340 802l-168 160h98l77 -155z" />
    <glyph glyph-name="Uacute" unicode="&#xda;" horiz-adv-x="643" 
d="M69 241v487h69v-483q0 -113 52 -171.5t154 -58.5q100 0 153 57.5t53 167.5v170q0 218 -13 318h47q-14 -117 -14 -318v-165q0 -257 -249 -257q-123 0 -187.5 65t-64.5 188zM314 802l-7 5l77 155h98z" />
    <glyph glyph-name="Ucircumflex" unicode="&#xdb;" horiz-adv-x="643" 
d="M69 241v487h69v-483q0 -113 52 -171.5t154 -58.5q100 0 153 57.5t53 167.5v170q0 218 -13 318h47q-14 -117 -14 -318v-165q0 -257 -249 -257q-123 0 -187.5 65t-64.5 188zM490 807l-6 -5l-157 97l-157 -97l-6 5l160 155h6z" />
    <glyph glyph-name="Udieresis" unicode="&#xdc;" horiz-adv-x="643" 
d="M69 241v487h69v-483q0 -113 52 -171.5t154 -58.5q100 0 153 57.5t53 167.5v170q0 218 -13 318h47q-14 -117 -14 -318v-165q0 -257 -249 -257q-123 0 -187.5 65t-64.5 188zM235 820l-50 49l50 49l48 -49zM420 820l-50 49l50 49l48 -49z" />
    <glyph glyph-name="Yacute" unicode="&#xdd;" horiz-adv-x="566" 
d="M379 431l-61 -107v-324h-68v320l-237 408h79l217 -381l53 93q108 188 140 288h51q-85 -142 -174 -297zM280 802l-7 5l77 155h98z" />
    <glyph glyph-name="Thorn" unicode="&#xde;" horiz-adv-x="536" 
d="M510 408q0 -102 -76.5 -163t-205.5 -61q-43 0 -85 6v-190h-68v728h68v-122h85q138 0 210 -51t72 -147zM435 396q0 92 -54 143t-158 51h-80v-382q32 -8 78 -8q104 0 159 51t55 145z" />
    <glyph glyph-name="germandbls" unicode="&#xdf;" horiz-adv-x="586" 
d="M565 144q0 -71 -49.5 -113.5t-130.5 -42.5q-90 0 -160 52l12 39q65 -77 152 -77q59 0 94 33t35 83q-3 47 -28.5 73.5t-86.5 63.5l-38 22q-47 27 -70 53.5t-23 62.5q0 31 16 54.5t58 60.5q49 42 70 75t21 81q0 60 -36 98t-95 38q-66 0 -103 -44.5t-37 -127.5v-628h-63v504
h-84v22h84v73q0 103 56.5 159t148.5 56q77 0 131 -41.5t54 -105.5q-3 -48 -24 -75t-75 -68q-42 -32 -59 -52.5t-17 -45.5q0 -48 79 -91l38 -23q70 -41 100 -77.5t30 -90.5z" />
    <glyph glyph-name="agrave" unicode="&#xe0;" horiz-adv-x="489" 
d="M481 21v-6q-37 -20 -66 -20q-60 0 -66 73q-39 -36 -91 -57t-101 -21q-63 0 -101 32.5t-38 87.5q0 68 60.5 110.5t168.5 54.5q54 6 102 9v59q0 167 -133 167q-78 0 -152 -62l-9 11q88 79 186 79q87 0 129.5 -46t42.5 -141v-256q0 -46 8 -61t41 -15q3 0 19 2zM194 19
q85 0 155 68v183q-138 -13 -202 -45t-64 -100q0 -50 30.5 -78t80.5 -28zM247 606l-157 170h85l79 -165z" />
    <glyph glyph-name="aacute" unicode="&#xe1;" horiz-adv-x="489" 
d="M481 21v-6q-37 -20 -66 -20q-60 0 -66 73q-39 -36 -91 -57t-101 -21q-63 0 -101 32.5t-38 87.5q0 68 60.5 110.5t168.5 54.5q54 6 102 9v59q0 167 -133 167q-78 0 -152 -62l-9 11q88 79 186 79q87 0 129.5 -46t42.5 -141v-256q0 -46 8 -61t41 -15q3 0 19 2zM194 19
q85 0 155 68v183q-138 -13 -202 -45t-64 -100q0 -50 30.5 -78t80.5 -28zM222 606l-7 5l79 165h85z" />
    <glyph glyph-name="acircumflex" unicode="&#xe2;" horiz-adv-x="489" 
d="M481 21v-6q-37 -20 -66 -20q-60 0 -66 73q-39 -36 -91 -57t-101 -21q-63 0 -101 32.5t-38 87.5q0 68 60.5 110.5t168.5 54.5q54 6 102 9v59q0 167 -133 167q-78 0 -152 -62l-9 11q88 79 186 79q87 0 129.5 -46t42.5 -141v-256q0 -46 8 -61t41 -15q3 0 19 2zM194 19
q85 0 155 68v183q-138 -13 -202 -45t-64 -100q0 -50 30.5 -78t80.5 -28zM379 611l-6 -5l-139 105l-139 -105l-6 5l142 165h6z" />
    <glyph glyph-name="atilde" unicode="&#xe3;" horiz-adv-x="489" 
d="M481 21v-6q-37 -20 -66 -20q-60 0 -66 73q-39 -36 -91 -57t-101 -21q-63 0 -101 32.5t-38 87.5q0 68 60.5 110.5t168.5 54.5q54 6 102 9v59q0 167 -133 167q-78 0 -152 -62l-9 11q88 79 186 79q87 0 129.5 -46t42.5 -141v-256q0 -46 8 -61t41 -15q3 0 19 2zM194 19
q85 0 155 68v183q-138 -13 -202 -45t-64 -100q0 -50 30.5 -78t80.5 -28zM81 618l-10 2q16 97 84 97q35 0 97 -30q56 -26 80 -26q39 0 56 56l9 -2q-15 -97 -83 -97q-32 0 -97 31q-56 26 -80 26q-40 0 -56 -57z" />
    <glyph glyph-name="adieresis" unicode="&#xe4;" horiz-adv-x="489" 
d="M481 21v-6q-37 -20 -66 -20q-60 0 -66 73q-39 -36 -91 -57t-101 -21q-63 0 -101 32.5t-38 87.5q0 68 60.5 110.5t168.5 54.5q54 6 102 9v59q0 167 -133 167q-78 0 -152 -62l-9 11q88 79 186 79q87 0 129.5 -46t42.5 -141v-256q0 -46 8 -61t41 -15q3 0 19 2zM194 19
q85 0 155 68v183q-138 -13 -202 -45t-64 -100q0 -50 30.5 -78t80.5 -28zM137 624l-50 49l50 49l48 -49zM314 624l-49 49l49 49l49 -49z" />
    <glyph glyph-name="aring" unicode="&#xe5;" horiz-adv-x="489" 
d="M481 21v-6q-37 -20 -66 -20q-60 0 -66 73q-39 -36 -91 -57t-101 -21q-63 0 -101 32.5t-38 87.5q0 68 60.5 110.5t168.5 54.5q54 6 102 9v59q0 167 -133 167q-78 0 -152 -62l-9 11q88 79 186 79q87 0 129.5 -46t42.5 -141v-256q0 -46 8 -61t41 -15q3 0 19 2zM194 19
q85 0 155 68v183q-138 -13 -202 -45t-64 -100q0 -50 30.5 -78t80.5 -28zM133 703q0 41 29.5 68.5t71.5 27.5t71.5 -27.5t29.5 -68.5q0 -42 -29.5 -69.5t-71.5 -27.5t-71.5 27.5t-29.5 69.5zM299 703q0 39 -17.5 61.5t-47.5 22.5t-47.5 -22.5t-17.5 -61.5t17 -62t48 -23
t48 23t17 62z" />
    <glyph glyph-name="ae" unicode="&#xe6;" horiz-adv-x="839" 
d="M793 122l12 -7q-82 -127 -218 -127q-64 0 -116.5 30t-83.5 83q-95 -111 -227 -111q-63 0 -101 32t-38 88q0 69 62 119q64 50 167 65q49 8 103 15v34q0 84 -33 125.5t-103 41.5q-81 0 -161 -62l-9 11q97 79 198 79q127 0 158 -101q74 101 202 101q97 0 152.5 -63
t55.5 -173h-395q-1 -5 -1 -26q0 -117 55 -186t140 -69q50 0 100 27t81 74zM419 318h327q1 94 -39.5 150t-109.5 56t-119 -57q-48 -56 -59 -149zM197 19q89 0 156 67v209q-139 -24 -203 -62.5t-64 -107.5q0 -50 30.5 -78t80.5 -28z" />
    <glyph glyph-name="ccedilla" unicode="&#xe7;" horiz-adv-x="500" 
d="M284 -12l-20 -43q46 -3 74 -25.5t28 -54.5q0 -36 -30 -59t-75 -23q-39 0 -74 15l3 9q25 -9 59 -9q35 0 56 15t21 38q0 21 -21.5 35.5t-54.5 14.5h-25l39 87q-102 3 -167.5 78t-65.5 193q0 121 72.5 200t177.5 79q131 0 199 -92l-35 -31q-68 109 -162 109
q-78 0 -129.5 -70t-51.5 -181q0 -115 54 -183.5t138 -68.5q50 0 99.5 26.5t80.5 74.5l12 -7q-79 -120 -202 -127z" />
    <glyph glyph-name="egrave" unicode="&#xe8;" horiz-adv-x="524" 
d="M497 302h-395q-1 -5 -1 -26q0 -117 55 -186t140 -69q50 0 100 27t81 74l12 -7q-82 -127 -217 -127q-105 0 -173 75t-68 194q0 125 73 203t185 78q98 0 153.5 -63t54.5 -173zM103 318h328q0 94 -40 150t-109 56q-70 0 -120 -57q-48 -54 -59 -149zM295 606l-157 170h85
l79 -165z" />
    <glyph glyph-name="eacute" unicode="&#xe9;" horiz-adv-x="524" 
d="M497 302h-395q-1 -5 -1 -26q0 -117 55 -186t140 -69q50 0 100 27t81 74l12 -7q-82 -127 -217 -127q-105 0 -173 75t-68 194q0 125 73 203t185 78q98 0 153.5 -63t54.5 -173zM103 318h328q0 94 -40 150t-109 56q-70 0 -120 -57q-48 -54 -59 -149zM270 606l-7 5l79 165h85z
" />
    <glyph glyph-name="ecircumflex" unicode="&#xea;" horiz-adv-x="524" 
d="M497 302h-395q-1 -5 -1 -26q0 -117 55 -186t140 -69q50 0 100 27t81 74l12 -7q-82 -127 -217 -127q-105 0 -173 75t-68 194q0 125 73 203t185 78q98 0 153.5 -63t54.5 -173zM103 318h328q0 94 -40 150t-109 56q-70 0 -120 -57q-48 -54 -59 -149zM427 611l-6 -5l-139 105
l-139 -105l-6 5l142 165h6z" />
    <glyph glyph-name="edieresis" unicode="&#xeb;" horiz-adv-x="524" 
d="M497 302h-395q-1 -5 -1 -26q0 -117 55 -186t140 -69q50 0 100 27t81 74l12 -7q-82 -127 -217 -127q-105 0 -173 75t-68 194q0 125 73 203t185 78q98 0 153.5 -63t54.5 -173zM103 318h328q0 94 -40 150t-109 56q-70 0 -120 -57q-48 -54 -59 -149zM185 624l-50 49l50 49
l48 -49zM362 624l-49 49l49 49l49 -49z" />
    <glyph glyph-name="igrave" unicode="&#xec;" horiz-adv-x="189" 
d="M63 0v513l59 22h4v-535h-63zM107 606l-157 170h85l79 -165z" />
    <glyph glyph-name="iacute" unicode="&#xed;" horiz-adv-x="189" 
d="M63 0v513l59 22h4v-535h-63zM82 606l-7 5l79 165h85z" />
    <glyph glyph-name="icircumflex" unicode="&#xee;" horiz-adv-x="189" 
d="M63 0v513l59 22h4v-535h-63zM239 611l-6 -5l-139 105l-139 -105l-6 5l142 165h6z" />
    <glyph glyph-name="idieresis" unicode="&#xef;" horiz-adv-x="189" 
d="M63 0v513l59 22h4v-535h-63zM-3 624l-50 49l50 49l48 -49zM174 624l-49 49l49 49l49 -49z" />
    <glyph glyph-name="eth" unicode="&#xf0;" horiz-adv-x="554" 
d="M521 286q0 -129 -71.5 -213.5t-179.5 -84.5q-106 0 -172 72.5t-66 188.5q0 114 66 185t168 71q84 0 160 -65q-39 119 -116 199l-142 -63l-7 16l135 60q-56 55 -124 79l6 16q86 -29 152 -80l110 49l7 -16l-102 -45q83 -70 129.5 -167t46.5 -202zM451 278q0 64 -17 132
q-80 78 -169 78q-75 0 -119 -64t-44 -170q0 -105 50.5 -177t122.5 -72q76 0 126 77t50 196z" />
    <glyph glyph-name="ntilde" unicode="&#xf1;" horiz-adv-x="548" 
d="M492 351v-351h-63v347q0 63 -24 112q-23 50 -107 50q-92 0 -175 -80v-429h-64v513l60 22h4v-86q96 89 202 89q167 0 167 -187zM128 618l-10 2q16 97 84 97q36 0 97 -30q56 -26 80 -26q39 0 56 56l9 -2q-15 -97 -83 -97q-32 0 -97 31q-56 26 -80 26q-40 0 -56 -57z" />
    <glyph glyph-name="ograve" unicode="&#xf2;" horiz-adv-x="578" 
d="M31 260q0 123 74.5 200.5t187.5 77.5q112 0 182.5 -74t70.5 -198q0 -123 -74 -200.5t-187 -77.5q-112 0 -183 74t-71 198zM476 260q0 117 -53.5 190.5t-135.5 73.5q-81 0 -133.5 -71.5t-52.5 -186.5q0 -117 53.5 -190.5t135.5 -73.5q81 0 133.5 71.5t52.5 186.5zM302 606
l-157 170h85l79 -165z" />
    <glyph glyph-name="oacute" unicode="&#xf3;" horiz-adv-x="578" 
d="M31 260q0 123 74.5 200.5t187.5 77.5q112 0 182.5 -74t70.5 -198q0 -123 -74 -200.5t-187 -77.5q-112 0 -183 74t-71 198zM476 260q0 117 -53.5 190.5t-135.5 73.5q-81 0 -133.5 -71.5t-52.5 -186.5q0 -117 53.5 -190.5t135.5 -73.5q81 0 133.5 71.5t52.5 186.5zM277 606
l-7 5l79 165h85z" />
    <glyph glyph-name="ocircumflex" unicode="&#xf4;" horiz-adv-x="578" 
d="M31 260q0 123 74.5 200.5t187.5 77.5q112 0 182.5 -74t70.5 -198q0 -123 -74 -200.5t-187 -77.5q-112 0 -183 74t-71 198zM476 260q0 117 -53.5 190.5t-135.5 73.5q-81 0 -133.5 -71.5t-52.5 -186.5q0 -117 53.5 -190.5t135.5 -73.5q81 0 133.5 71.5t52.5 186.5zM434 611
l-6 -5l-139 105l-139 -105l-6 5l142 165h6z" />
    <glyph glyph-name="otilde" unicode="&#xf5;" horiz-adv-x="578" 
d="M31 260q0 123 74.5 200.5t187.5 77.5q112 0 182.5 -74t70.5 -198q0 -123 -74 -200.5t-187 -77.5q-112 0 -183 74t-71 198zM476 260q0 117 -53.5 190.5t-135.5 73.5q-81 0 -133.5 -71.5t-52.5 -186.5q0 -117 53.5 -190.5t135.5 -73.5q81 0 133.5 71.5t52.5 186.5zM136 618
l-10 2q16 97 84 97q36 0 97 -30q56 -26 80 -26q39 0 56 56l9 -2q-15 -97 -83 -97q-32 0 -97 31q-56 26 -80 26q-40 0 -56 -57z" />
    <glyph glyph-name="odieresis" unicode="&#xf6;" horiz-adv-x="578" 
d="M31 260q0 123 74.5 200.5t187.5 77.5q112 0 182.5 -74t70.5 -198q0 -123 -74 -200.5t-187 -77.5q-112 0 -183 74t-71 198zM476 260q0 117 -53.5 190.5t-135.5 73.5q-81 0 -133.5 -71.5t-52.5 -186.5q0 -117 53.5 -190.5t135.5 -73.5q81 0 133.5 71.5t52.5 186.5zM192 624
l-50 49l50 49l48 -49zM369 624l-49 49l49 49l49 -49z" />
    <glyph glyph-name="divide" unicode="&#xf7;" horiz-adv-x="508" 
d="M254 506l-41 41l41 41l41 -41zM50 354v20h408v-20h-408zM254 140l-41 41l41 41l41 -41z" />
    <glyph glyph-name="oslash" unicode="&#xf8;" horiz-adv-x="578" 
d="M546 266q0 -123 -74 -200.5t-187 -77.5q-81 0 -142 40l-53 -79l-15 10l53 79q-97 76 -97 222q0 123 74.5 200.5t187.5 77.5q81 0 142 -40l52 79l15 -10l-53 -79q97 -75 97 -222zM153 77l259 387q-51 60 -125 60q-81 0 -133.5 -71.5t-52.5 -186.5t52 -189zM476 260
q0 115 -52 189l-259 -387q51 -60 125 -60q81 0 133.5 71.5t52.5 186.5z" />
    <glyph glyph-name="ugrave" unicode="&#xf9;" horiz-adv-x="547" 
d="M485 89l22 -75l-59 -22l-26 86v4q-91 -94 -200 -94q-167 0 -167 187v338l59 22h4v-356q0 -61 23 -112q24 -50 108 -50q43 0 90.5 24t82.5 65v407l59 22h4v-446zM284 606l-157 170h85l79 -165z" />
    <glyph glyph-name="uacute" unicode="&#xfa;" horiz-adv-x="547" 
d="M485 89l22 -75l-59 -22l-26 86v4q-91 -94 -200 -94q-167 0 -167 187v338l59 22h4v-356q0 -61 23 -112q24 -50 108 -50q43 0 90.5 24t82.5 65v407l59 22h4v-446zM259 606l-7 5l79 165h85z" />
    <glyph glyph-name="ucircumflex" unicode="&#xfb;" horiz-adv-x="547" 
d="M485 89l22 -75l-59 -22l-26 86v4q-91 -94 -200 -94q-167 0 -167 187v338l59 22h4v-356q0 -61 23 -112q24 -50 108 -50q43 0 90.5 24t82.5 65v407l59 22h4v-446zM416 611l-6 -5l-139 105l-139 -105l-6 5l142 165h6z" />
    <glyph glyph-name="udieresis" unicode="&#xfc;" horiz-adv-x="547" 
d="M485 89l22 -75l-59 -22l-26 86v4q-91 -94 -200 -94q-167 0 -167 187v338l59 22h4v-356q0 -61 23 -112q24 -50 108 -50q43 0 90.5 24t82.5 65v407l59 22h4v-446zM173 624l-50 49l50 49l48 -49zM350 624l-49 49l49 49l49 -49z" />
    <glyph glyph-name="yacute" unicode="&#xfd;" horiz-adv-x="472" 
d="M419 526h48q-27 -59 -54 -127l-41 -99l-27 -68l-129 -317q-61 -149 -208 -149l4 48q18 -5 42 -5q44 0 83 27.5t60 79.5l34 86l-227 524h68l192 -442l64 155q79 194 91 287zM227 606l-7 5l79 165h85z" />
    <glyph glyph-name="thorn" unicode="&#xfe;" horiz-adv-x="562" 
d="M531 271q2 -122 -73 -203.5t-179 -79.5q-91 0 -156 62v-278h-64v1015l60 23h4v-355q81 83 182 83q97 0 161.5 -75.5t64.5 -191.5zM461 262q0 113 -49.5 181t-125.5 68q-42 0 -85.5 -21.5t-77.5 -59.5v-325q23 -47 63.5 -74t89.5 -27q80 0 132.5 71.5t52.5 186.5z" />
    <glyph glyph-name="ydieresis" unicode="&#xff;" horiz-adv-x="472" 
d="M419 526h48q-27 -59 -54 -127l-41 -99l-27 -68l-129 -317q-61 -149 -208 -149l4 48q18 -5 42 -5q44 0 83 27.5t60 79.5l34 86l-227 524h68l192 -442l64 155q79 194 91 287zM142 624l-50 49l50 49l48 -49zM319 624l-49 49l49 49l49 -49z" />
    <glyph glyph-name="Amacron" unicode="&#x100;" horiz-adv-x="599" 
d="M520 0l-94 241h-303q-31 -80 -46 -137q-16 -57 -23 -104h-53q31 72 111 270l19 48l167 423h4l292 -741h-74zM130 259h289l-145 369l-124 -317zM146 821v26h309v-26h-309z" />
    <glyph glyph-name="amacron" unicode="&#x101;" horiz-adv-x="489" 
d="M481 21v-6q-37 -20 -66 -20q-60 0 -66 73q-39 -36 -91 -57t-101 -21q-63 0 -101 32.5t-38 87.5q0 68 60.5 110.5t168.5 54.5q54 6 102 9v59q0 167 -133 167q-78 0 -152 -62l-9 11q88 79 186 79q87 0 129.5 -46t42.5 -141v-256q0 -46 8 -61t41 -15q3 0 19 2zM194 19
q85 0 155 68v183q-138 -13 -202 -45t-64 -100q0 -50 30.5 -78t80.5 -28zM104 654v25h261v-25h-261z" />
    <glyph glyph-name="Abreve" unicode="&#x102;" horiz-adv-x="599" 
d="M520 0l-94 241h-303q-31 -80 -46 -137q-16 -57 -23 -104h-53q31 72 111 270l19 48l167 423h4l292 -741h-74zM130 259h289l-145 369l-124 -317zM143 952l9 3q18 -43 58 -70.5t90 -27.5q51 0 91 27.5t58 70.5l9 -3q-17 -62 -57.5 -100t-100.5 -38t-100 37.5t-57 100.5z" />
    <glyph glyph-name="abreve" unicode="&#x103;" horiz-adv-x="489" 
d="M481 21v-6q-37 -20 -66 -20q-60 0 -66 73q-39 -36 -91 -57t-101 -21q-63 0 -101 32.5t-38 87.5q0 68 60.5 110.5t168.5 54.5q54 6 102 9v59q0 167 -133 167q-78 0 -152 -62l-9 11q88 79 186 79q87 0 129.5 -46t42.5 -141v-256q0 -46 8 -61t41 -15q3 0 19 2zM194 19
q85 0 155 68v183q-138 -13 -202 -45t-64 -100q0 -50 30.5 -78t80.5 -28zM86 757l9 3q18 -46 54 -72.5t85 -26.5q50 0 86 26.5t54 72.5l9 -3q-37 -139 -149 -139q-111 0 -148 139z" />
    <glyph glyph-name="Aogonek" unicode="&#x104;" horiz-adv-x="599" 
d="M620 -176l3 -5q-50 -36 -100 -36q-34 0 -56 19.5t-22 51.5q0 34 25.5 66.5t83.5 79.5h-34l-94 241h-303q-31 -80 -46 -137q-16 -57 -23 -104h-53q31 72 111 270l19 48l167 423h4l292 -741h-25q-68 -72 -68 -130q0 -27 16.5 -43.5t41.5 -16.5q22 0 61 14zM130 259h289
l-145 369l-124 -317z" />
    <glyph glyph-name="aogonek" unicode="&#x105;" horiz-adv-x="489" 
d="M483 -176l3 -5q-50 -36 -100 -36q-34 0 -56 19.5t-22 51.5q0 34 24.5 65.5t78.5 75.5q-57 2 -62 73q-39 -36 -91 -57t-101 -21q-63 0 -101 32.5t-38 87.5q0 68 60.5 110.5t168.5 54.5q54 6 102 9v59q0 167 -133 167q-78 0 -152 -62l-9 11q88 79 186 79q87 0 129.5 -46
t42.5 -141v-256q0 -46 8 -61t41 -15q3 0 19 2v-6q-27 -14 -53 -19q-64 -70 -64 -126q0 -27 16.5 -43.5t41.5 -16.5q22 0 61 14zM194 19q85 0 155 68v183q-138 -13 -202 -45t-64 -100q0 -50 30.5 -78t80.5 -28z" />
    <glyph glyph-name="Cacute" unicode="&#x106;" horiz-adv-x="704" 
d="M40 359q-3 166 104 274.5t263 106.5q86 0 157 -31t117 -87l-39 -35q-93 137 -240 137q-122 2 -204.5 -97.5t-81.5 -248.5q-2 -156 86 -256.5t217 -98.5q166 0 260 146l12 -7q-108 -174 -302 -174q-152 0 -250.5 102.5t-98.5 268.5zM388 802l-7 5l77 155h98z" />
    <glyph glyph-name="cacute" unicode="&#x107;" horiz-adv-x="500" 
d="M31 259q0 121 72.5 200t177.5 79q131 0 199 -92l-35 -31q-68 109 -162 109q-78 0 -129.5 -70t-51.5 -181q0 -115 54 -183.5t138 -68.5q50 0 99.5 26.5t80.5 74.5l12 -7q-83 -127 -215 -127q-104 0 -172 75.5t-68 195.5zM265 606l-7 5l79 165h85z" />
    <glyph glyph-name="Ccircumflex" unicode="&#x108;" horiz-adv-x="704" 
d="M40 359q-3 166 104 274.5t263 106.5q86 0 157 -31t117 -87l-39 -35q-93 137 -240 137q-122 2 -204.5 -97.5t-81.5 -248.5q-2 -156 86 -256.5t217 -98.5q166 0 260 146l12 -7q-108 -174 -302 -174q-152 0 -250.5 102.5t-98.5 268.5zM564 807l-6 -5l-157 97l-157 -97l-6 5
l160 155h6z" />
    <glyph glyph-name="ccircumflex" unicode="&#x109;" horiz-adv-x="500" 
d="M31 259q0 121 72.5 200t177.5 79q131 0 199 -92l-35 -31q-68 109 -162 109q-78 0 -129.5 -70t-51.5 -181q0 -115 54 -183.5t138 -68.5q50 0 99.5 26.5t80.5 74.5l12 -7q-83 -127 -215 -127q-104 0 -172 75.5t-68 195.5zM422 611l-6 -5l-139 105l-139 -105l-6 5l142 165h6
z" />
    <glyph glyph-name="Cdotaccent" unicode="&#x10a;" horiz-adv-x="704" 
d="M40 359q-3 166 104 274.5t263 106.5q86 0 157 -31t117 -87l-39 -35q-93 137 -240 137q-122 2 -204.5 -97.5t-81.5 -248.5q-2 -156 86 -256.5t217 -98.5q166 0 260 146l12 -7q-108 -174 -302 -174q-152 0 -250.5 102.5t-98.5 268.5zM401 820l-57 56l57 57l57 -57z" />
    <glyph glyph-name="cdotaccent" unicode="&#x10b;" horiz-adv-x="500" 
d="M31 259q0 121 72.5 200t177.5 79q131 0 199 -92l-35 -31q-68 109 -162 109q-78 0 -129.5 -70t-51.5 -181q0 -115 54 -183.5t138 -68.5q50 0 99.5 26.5t80.5 74.5l12 -7q-83 -127 -215 -127q-104 0 -172 75.5t-68 195.5zM277 624l-53 53l53 53l53 -53z" />
    <glyph glyph-name="Ccaron" unicode="&#x10c;" horiz-adv-x="704" 
d="M40 359q-3 166 104 274.5t263 106.5q86 0 157 -31t117 -87l-39 -35q-93 137 -240 137q-122 2 -204.5 -97.5t-81.5 -248.5q-2 -156 86 -256.5t217 -98.5q166 0 260 146l12 -7q-108 -174 -302 -174q-152 0 -250.5 102.5t-98.5 268.5zM558 962l6 -5l-160 -155h-6l-160 155
l6 5l157 -97z" />
    <glyph glyph-name="ccaron" unicode="&#x10d;" horiz-adv-x="500" 
d="M31 259q0 121 72.5 200t177.5 79q131 0 199 -92l-35 -31q-68 109 -162 109q-78 0 -129.5 -70t-51.5 -181q0 -115 54 -183.5t138 -68.5q50 0 99.5 26.5t80.5 74.5l12 -7q-83 -127 -215 -127q-104 0 -172 75.5t-68 195.5zM416 776l6 -5l-142 -165h-6l-142 165l6 5l139 -104
z" />
    <glyph glyph-name="Dcaron" unicode="&#x10e;" horiz-adv-x="732" 
d="M691 373q0 -174 -103 -273.5t-278 -99.5h-235v728h245q171 0 271 -93.5t100 -261.5zM615 367q0 154 -84 249.5t-221 95.5h-167v-687q43 -9 177 -9q139 0 217 92t78 259zM451 962l6 -5l-160 -155h-6l-160 155l6 5l157 -97z" />
    <glyph glyph-name="dcaron" unicode="&#x10f;" horiz-adv-x="588" 
d="M525 14l-59 -22l-26 81q-79 -85 -183 -85q-97 0 -161.5 75.5t-64.5 191.5q-2 122 73 203.5t179 79.5q91 0 156 -62v311l60 23h4v-721zM439 96v326q-23 46 -64 73t-89 27q-80 0 -132.5 -71.5t-52.5 -186.5q0 -113 49.5 -181t125.5 -68q42 0 85.5 21.5t77.5 59.5zM573 631
l-4 5q44 29 44 67q0 43 -53 75l37 37q54 -26 54 -79q0 -30 -21 -58.5t-57 -46.5z" />
    <glyph glyph-name="Dcroat" unicode="&#x110;" horiz-adv-x="737" 
d="M696 373q0 -174 -103 -273.5t-278 -99.5h-235v371h-62v14h62v343h245q171 0 271 -93.5t100 -261.5zM620 367q0 154 -84 249.5t-221 95.5h-167v-327h207v-14h-207v-346q44 -9 177 -9q139 0 217 92t78 259z" />
    <glyph glyph-name="dslash" unicode="&#x111;" horiz-adv-x="564" 
d="M565 662h-62v-573l22 -75l-59 -22l-26 81q-79 -85 -183 -85q-97 0 -161.5 75.5t-64.5 191.5q-2 122 73 203.5t179 79.5q91 0 156 -62v186h-162v14h162v111l60 23h4v-134h62v-14zM439 96v326q-23 46 -64 73t-89 27q-80 0 -132.5 -71.5t-52.5 -186.5q0 -113 49.5 -181
t125.5 -68q42 0 85.5 21.5t77.5 59.5z" />
    <glyph glyph-name="Emacron" unicode="&#x112;" horiz-adv-x="523" 
d="M505 48h2l-17 -48h-415v728h401l12 -46h-2q-141 28 -279 28h-64v-322h58q153 0 213 11h2v-42h-2q-65 13 -213 13h-58v-352h65q162 0 297 30zM120 821v26h309v-26h-309z" />
    <glyph glyph-name="emacron" unicode="&#x113;" horiz-adv-x="524" 
d="M497 302h-395q-1 -5 -1 -26q0 -117 55 -186t140 -69q50 0 100 27t81 74l12 -7q-82 -127 -217 -127q-105 0 -173 75t-68 194q0 125 73 203t185 78q98 0 153.5 -63t54.5 -173zM103 318h328q0 94 -40 150t-109 56q-70 0 -120 -57q-48 -54 -59 -149zM152 654v25h261v-25h-261
z" />
    <glyph glyph-name="Ebreve" unicode="&#x114;" horiz-adv-x="523" 
d="M505 48h2l-17 -48h-415v728h401l12 -46h-2q-141 28 -279 28h-64v-322h58q153 0 213 11h2v-42h-2q-65 13 -213 13h-58v-352h65q162 0 297 30zM117 952l9 3q18 -43 58 -70.5t90 -27.5q51 0 91 27.5t58 70.5l9 -3q-17 -62 -57.5 -100t-100.5 -38t-100 37.5t-57 100.5z" />
    <glyph glyph-name="ebreve" unicode="&#x115;" horiz-adv-x="524" 
d="M497 302h-395q-1 -5 -1 -26q0 -117 55 -186t140 -69q50 0 100 27t81 74l12 -7q-82 -127 -217 -127q-105 0 -173 75t-68 194q0 125 73 203t185 78q98 0 153.5 -63t54.5 -173zM103 318h328q0 94 -40 150t-109 56q-70 0 -120 -57q-48 -54 -59 -149zM134 757l9 3
q18 -46 54 -72.5t85 -26.5q50 0 86 26.5t54 72.5l9 -3q-37 -139 -149 -139q-111 0 -148 139z" />
    <glyph glyph-name="Edotaccent" unicode="&#x116;" horiz-adv-x="523" 
d="M505 48h2l-17 -48h-415v728h401l12 -46h-2q-141 28 -279 28h-64v-322h58q153 0 213 11h2v-42h-2q-65 13 -213 13h-58v-352h65q162 0 297 30zM274 820l-57 56l57 57l57 -57z" />
    <glyph glyph-name="edotaccent" unicode="&#x117;" horiz-adv-x="524" 
d="M497 302h-395q-1 -5 -1 -26q0 -117 55 -186t140 -69q50 0 100 27t81 74l12 -7q-82 -127 -217 -127q-105 0 -173 75t-68 194q0 125 73 203t185 78q98 0 153.5 -63t54.5 -173zM103 318h328q0 94 -40 150t-109 56q-70 0 -120 -57q-48 -54 -59 -149zM282 624l-53 53l53 53
l53 -53z" />
    <glyph glyph-name="Eogonek" unicode="&#x118;" horiz-adv-x="523" 
d="M502 -176l3 -5q-50 -36 -100 -36q-34 0 -56 19.5t-22 51.5q0 34 25.5 66.5t83.5 79.5h-361v728h401l12 -46h-2q-141 28 -279 28h-64v-322h58q153 0 213 11h2v-42h-2q-65 13 -213 13h-58v-352h65q162 0 297 30h2l-17 -48h-39q-69 -73 -69 -130q0 -27 16.5 -43.5
t41.5 -16.5q23 0 62 14z" />
    <glyph glyph-name="eogonek" unicode="&#x119;" horiz-adv-x="524" 
d="M497 302h-395q-1 -5 -1 -26q0 -117 55 -186t140 -69q50 0 100 27t81 74l12 -7q-15 -24 -29.5 -39.5t-48.5 -45.5q-99 -89 -99 -160q0 -27 16.5 -43.5t41.5 -16.5q24 0 61 14l3 -5q-50 -36 -99 -36q-34 0 -56 19.5t-22 51.5q0 35 28 70.5t92 87.5q-55 -24 -105 -24
q-105 0 -173 75t-68 194q0 125 73 203t185 78q98 0 153.5 -63t54.5 -173zM103 318h328q0 94 -40 150t-109 56q-70 0 -120 -57q-48 -54 -59 -149z" />
    <glyph glyph-name="Ecaron" unicode="&#x11a;" horiz-adv-x="523" 
d="M505 48h2l-17 -48h-415v728h401l12 -46h-2q-141 28 -279 28h-64v-322h58q153 0 213 11h2v-42h-2q-65 13 -213 13h-58v-352h65q162 0 297 30zM431 962l6 -5l-160 -155h-6l-160 155l6 5l157 -97z" />
    <glyph glyph-name="ecaron" unicode="&#x11b;" horiz-adv-x="524" 
d="M497 302h-395q-1 -5 -1 -26q0 -117 55 -186t140 -69q50 0 100 27t81 74l12 -7q-82 -127 -217 -127q-105 0 -173 75t-68 194q0 125 73 203t185 78q98 0 153.5 -63t54.5 -173zM103 318h328q0 94 -40 150t-109 56q-70 0 -120 -57q-48 -54 -59 -149zM421 776l6 -5l-142 -165
h-6l-142 165l6 5l139 -104z" />
    <glyph glyph-name="Gcircumflex" unicode="&#x11c;" horiz-adv-x="745" 
d="M443 330h259v-246q-124 -96 -285 -96q-169 0 -273 101t-104 270q-2 167 106.5 275t268.5 106q83 0 154.5 -31.5t116.5 -86.5l-40 -35q-92 137 -241 137q-127 0 -208 -98.5t-81 -259.5q-2 -157 85 -259.5t222 -100.5q127 0 213 76v230h-182zM568 807l-6 -5l-157 97
l-157 -97l-6 5l160 155h6z" />
    <glyph glyph-name="gcircumflex" unicode="&#x11d;" horiz-adv-x="500" 
d="M488 -55q0 -76 -76 -130.5t-187 -54.5q-96 0 -156.5 41.5t-60.5 107.5q0 37 19 75l41 12h4q-17 -46 -17 -80q0 -64 45.5 -102t124.5 -38q97 0 155 39t58 105q0 43 -32.5 67.5t-93.5 28.5l-148 9q-117 7 -117 75q0 26 15 44.5t50 39.5l24 14q-46 24 -72.5 65t-26.5 94
q0 79 57 130.5t143 51.5q68 0 121 -35q52 64 133 64l-8 -67q-29 8 -52 8q-36 0 -60 -15q64 -51 64 -137q0 -78 -57 -129.5t-142 -51.5q-46 0 -84 15l-26 -17q-33 -22 -33 -49q0 -37 76 -41l152 -10q167 -11 167 -129zM102 357q0 -73 37.5 -119t96.5 -46q60 0 97 45.5
t37 119.5q0 72 -38 119t-96 47q-59 0 -97 -47q-37 -46 -37 -119zM381 611l-6 -5l-139 105l-139 -105l-6 5l142 165h6z" />
    <glyph glyph-name="Gbreve" unicode="&#x11e;" horiz-adv-x="745" 
d="M443 330h259v-246q-124 -96 -285 -96q-169 0 -273 101t-104 270q-2 167 106.5 275t268.5 106q83 0 154.5 -31.5t116.5 -86.5l-40 -35q-92 137 -241 137q-127 0 -208 -98.5t-81 -259.5q-2 -157 85 -259.5t222 -100.5q127 0 213 76v230h-182zM248 952l9 3q18 -43 58 -70.5
t90 -27.5q51 0 91 27.5t58 70.5l9 -3q-17 -62 -57.5 -100t-100.5 -38t-100 37.5t-57 100.5z" />
    <glyph glyph-name="gbreve" unicode="&#x11f;" horiz-adv-x="500" 
d="M488 -55q0 -76 -76 -130.5t-187 -54.5q-96 0 -156.5 41.5t-60.5 107.5q0 37 19 75l41 12h4q-17 -46 -17 -80q0 -64 45.5 -102t124.5 -38q97 0 155 39t58 105q0 43 -32.5 67.5t-93.5 28.5l-148 9q-117 7 -117 75q0 26 15 44.5t50 39.5l24 14q-46 24 -72.5 65t-26.5 94
q0 79 57 130.5t143 51.5q68 0 121 -35q52 64 133 64l-8 -67q-29 8 -52 8q-36 0 -60 -15q64 -51 64 -137q0 -78 -57 -129.5t-142 -51.5q-46 0 -84 15l-26 -17q-33 -22 -33 -49q0 -37 76 -41l152 -10q167 -11 167 -129zM102 357q0 -73 37.5 -119t96.5 -46q60 0 97 45.5
t37 119.5q0 72 -38 119t-96 47q-59 0 -97 -47q-37 -46 -37 -119zM88 757l9 3q18 -46 54 -72.5t85 -26.5q50 0 86 26.5t54 72.5l9 -3q-37 -139 -149 -139q-111 0 -148 139z" />
    <glyph glyph-name="Gdotaccent" unicode="&#x120;" horiz-adv-x="745" 
d="M443 330h259v-246q-124 -96 -285 -96q-169 0 -273 101t-104 270q-2 167 106.5 275t268.5 106q83 0 154.5 -31.5t116.5 -86.5l-40 -35q-92 137 -241 137q-127 0 -208 -98.5t-81 -259.5q-2 -157 85 -259.5t222 -100.5q127 0 213 76v230h-182zM405 820l-57 56l57 57l57 -57z
" />
    <glyph glyph-name="gdotaccent" unicode="&#x121;" horiz-adv-x="500" 
d="M488 -55q0 -76 -76 -130.5t-187 -54.5q-96 0 -156.5 41.5t-60.5 107.5q0 37 19 75l41 12h4q-17 -46 -17 -80q0 -64 45.5 -102t124.5 -38q97 0 155 39t58 105q0 43 -32.5 67.5t-93.5 28.5l-148 9q-117 7 -117 75q0 26 15 44.5t50 39.5l24 14q-46 24 -72.5 65t-26.5 94
q0 79 57 130.5t143 51.5q68 0 121 -35q52 64 133 64l-8 -67q-29 8 -52 8q-36 0 -60 -15q64 -51 64 -137q0 -78 -57 -129.5t-142 -51.5q-46 0 -84 15l-26 -17q-33 -22 -33 -49q0 -37 76 -41l152 -10q167 -11 167 -129zM102 357q0 -73 37.5 -119t96.5 -46q60 0 97 45.5
t37 119.5q0 72 -38 119t-96 47q-59 0 -97 -47q-37 -46 -37 -119zM236 624l-53 53l53 53l53 -53z" />
    <glyph glyph-name="uni0122" unicode="&#x122;" horiz-adv-x="745" 
d="M443 330h259v-246q-124 -96 -285 -96q-169 0 -273 101t-104 270q-2 167 106.5 275t268.5 106q83 0 154.5 -31.5t116.5 -86.5l-40 -35q-92 137 -241 137q-127 0 -208 -98.5t-81 -259.5q-2 -157 85 -259.5t222 -100.5q127 0 213 76v230h-182zM390 -274l-5 7q53 35 53 82
q0 52 -63 90l44 46q64 -31 64 -96q0 -38 -25 -72.5t-68 -56.5z" />
    <glyph glyph-name="uni0123" unicode="&#x123;" horiz-adv-x="500" 
d="M488 -55q0 -76 -76 -130.5t-187 -54.5q-96 0 -156.5 41.5t-60.5 107.5q0 37 19 75l41 12h4q-17 -46 -17 -80q0 -64 45.5 -102t124.5 -38q97 0 155 39t58 105q0 43 -32.5 67.5t-93.5 28.5l-148 9q-117 7 -117 75q0 26 15 44.5t50 39.5l24 14q-46 24 -72.5 65t-26.5 94
q0 79 57 130.5t143 51.5q68 0 121 -35q52 64 133 64l-8 -67q-29 8 -52 8q-36 0 -60 -15q64 -51 64 -137q0 -78 -57 -129.5t-142 -51.5q-46 0 -84 15l-26 -17q-33 -22 -33 -49q0 -37 76 -41l152 -10q167 -11 167 -129zM102 357q0 -73 37.5 -119t96.5 -46q60 0 97 45.5
t37 119.5q0 72 -38 119t-96 47q-59 0 -97 -47q-37 -46 -37 -119zM192 692q0 30 21 58.5t57 46.5l4 -5q-44 -29 -44 -67q0 -43 52 -74l-37 -38q-53 26 -53 79z" />
    <glyph glyph-name="Hcircumflex" unicode="&#x124;" horiz-adv-x="677" 
d="M534 728h69v-728h-69v370h-391v-370h-68v728h68v-340h391v340zM502 807l-6 -5l-157 97l-157 -97l-6 5l160 155h6z" />
    <glyph glyph-name="hcircumflex" unicode="&#x125;" horiz-adv-x="549" 
d="M492 351v-351h-63v347q0 63 -24 112q-23 50 -107 50q-92 0 -175 -80v-429h-64v787l60 23h4v-361q96 89 203 89q166 0 166 -187zM261 807l-6 -5l-157 97l-157 -97l-6 5l160 155h6z" />
    <glyph glyph-name="Hbar" unicode="&#x126;" horiz-adv-x="682" 
d="M667 578v-14h-62v-564h-69v370h-390v-370h-69v564h-62v14h62v150h69v-150h390v150h69v-150h62zM536 388v176h-390v-176h390z" />
    <glyph glyph-name="hbar" unicode="&#x127;" horiz-adv-x="549" 
d="M492 351v-351h-63v347q0 63 -24 112q-23 50 -107 50q-92 0 -175 -80v-429h-64v662h-62v14h62v111l60 23h4v-134h161v-14h-161v-213q96 89 203 89q166 0 166 -187z" />
    <glyph glyph-name="Itilde" unicode="&#x128;" horiz-adv-x="218" 
d="M75 0v728h68v-728h-68zM-53 814l-9 2q15 97 83 97q30 0 107 -31q64 -26 88 -26q40 0 56 57l9 -2q-17 -97 -83 -97q-32 0 -106 30q-69 26 -89 26q-39 0 -56 -56z" />
    <glyph glyph-name="itilde" unicode="&#x129;" horiz-adv-x="189" 
d="M63 0v513l59 22h4v-535h-63zM-59 618l-10 2q16 97 84 97q35 0 97 -30q56 -26 80 -26q39 0 56 56l9 -2q-15 -97 -83 -97q-32 0 -97 31q-56 26 -80 26q-40 0 -56 -57z" />
    <glyph glyph-name="Imacron" unicode="&#x12a;" horiz-adv-x="218" 
d="M75 0v728h68v-728h-68zM-45 821v26h309v-26h-309z" />
    <glyph glyph-name="imacron" unicode="&#x12b;" horiz-adv-x="189" 
d="M63 0v513l59 22h4v-535h-63zM-36 654v25h261v-25h-261z" />
    <glyph glyph-name="Ibreve" unicode="&#x12c;" horiz-adv-x="218" 
d="M75 0v728h68v-728h-68zM-48 952l9 3q18 -43 58 -70.5t90 -27.5q51 0 91 27.5t58 70.5l9 -3q-17 -62 -57.5 -100t-100.5 -38t-100 37.5t-57 100.5z" />
    <glyph glyph-name="ibreve" unicode="&#x12d;" horiz-adv-x="189" 
d="M63 0v513l59 22h4v-535h-63zM-54 757l9 3q18 -46 54 -72.5t85 -26.5q50 0 86 26.5t54 72.5l9 -3q-37 -139 -149 -139q-111 0 -148 139z" />
    <glyph glyph-name="Iogonek" unicode="&#x12e;" horiz-adv-x="218" 
d="M172 -176l3 -5q-50 -36 -100 -36q-34 0 -56 19.5t-22 51.5q0 34 25.5 66.5t83.5 79.5h-31v728h68v-728h-22q-69 -73 -69 -130q0 -27 16.5 -43.5t41.5 -16.5q23 0 62 14z" />
    <glyph glyph-name="iogonek" unicode="&#x12f;" horiz-adv-x="189" 
d="M148 686l-54 -53l-53 53l53 53zM156 -176l3 -5q-50 -36 -100 -36q-34 0 -56 19.5t-22 51.5q0 34 25.5 66.5t83.5 79.5h-27v513l59 22h4v-535h-21q-68 -72 -68 -130q0 -27 16.5 -43.5t41.5 -16.5q24 0 61 14z" />
    <glyph glyph-name="Idot" unicode="&#x130;" horiz-adv-x="218" 
d="M75 0v728h68v-728h-68zM109 820l-57 56l57 57l57 -57z" />
    <glyph glyph-name="dotlessi" unicode="&#x131;" horiz-adv-x="189" 
d="M63 0v513l59 22h4v-535h-63z" />
    <glyph glyph-name="IJ" unicode="&#x132;" horiz-adv-x="416" 
d="M75 0v728h68v-728h-68zM134 -150l-7 12q66 42 97 87q32 47 42 108q10 59 10 163v508h68v-500q0 -120 -21 -188q-21 -69 -64 -107q-42 -39 -125 -83z" />
    <glyph glyph-name="ij" unicode="&#x133;" horiz-adv-x="368" 
d="M94 633l-53 53l53 53l54 -53zM63 0v513l59 22h4v-535h-63zM273 633l-54 53l54 53l53 -53zM119 -228l-4 12q59 11 92.5 60.5t33.5 126.5v542l60 22h4v-562q0 -83 -50 -136t-136 -65z" />
    <glyph glyph-name="Jcircumflex" unicode="&#x134;" horiz-adv-x="222" 
d="M-60 -150l-7 12q66 42 97 87q32 47 42 108q10 59 10 163v508h68v-500q0 -120 -21 -188q-21 -69 -64 -107q-42 -39 -125 -83zM279 807l-6 -5l-157 97l-157 -97l-6 5l160 155h6z" />
    <glyph glyph-name="jcircumflex" unicode="&#x135;" horiz-adv-x="193" 
d="M-55 -228l-4 12q59 11 92.5 60.5t33.5 126.5v542l60 22h4v-562q0 -83 -50 -136t-136 -65zM244 611l-6 -5l-139 105l-139 -105l-6 5l142 165h6z" />
    <glyph glyph-name="uni0136" unicode="&#x136;" horiz-adv-x="606" 
d="M75 0v728h68v-728h-68zM338 494l-94 -89l349 -331v-89h-5l-407 388l144 136q148 139 202 219h66v-2q-89 -78 -255 -232zM278 -274l-5 7q53 35 53 82q0 52 -63 90l44 46q64 -31 64 -96q0 -38 -25 -72.5t-68 -56.5z" />
    <glyph glyph-name="uni0137" unicode="&#x137;" horiz-adv-x="483" 
d="M59 787l60 23h4v-810h-64v787zM212 322l261 -253v-84h-4l-318 310l88 76l101 90q32 30 66 65h62v-2q-121 -81 -218 -168zM207 -274l-5 7q53 35 53 82q0 52 -63 90l44 46q64 -31 64 -96q0 -38 -25 -72.5t-68 -56.5z" />
    <glyph glyph-name="kgreenlandic" unicode="&#x138;" horiz-adv-x="483" 
d="M59 513l60 22h4v-535h-64v513zM212 323l261 -254v-84h-4l-318 310l87 76q113 97 168 155h62v-2q-118 -80 -219 -168z" />
    <glyph glyph-name="Lacute" unicode="&#x139;" horiz-adv-x="427" 
d="M414 50h2l-17 -50h-324v728h68v-710h23q118 0 248 32zM96 802l-7 5l77 155h98z" />
    <glyph glyph-name="lacute" unicode="&#x13a;" horiz-adv-x="189" 
d="M63 0v787l59 23h4v-810h-63zM81 802l-7 5l77 155h98z" />
    <glyph glyph-name="uni013B" unicode="&#x13b;" horiz-adv-x="427" 
d="M414 50h2l-17 -50h-324v728h68v-710h23q118 0 248 32zM211 -274l-5 7q53 35 53 82q0 52 -63 90l44 46q64 -31 64 -96q0 -38 -25 -72.5t-68 -56.5z" />
    <glyph glyph-name="uni013C" unicode="&#x13c;" horiz-adv-x="189" 
d="M63 0v787l59 23h4v-810h-63zM61 -274l-5 7q53 35 53 82q0 52 -63 90l44 46q64 -31 64 -96q0 -38 -25 -72.5t-68 -56.5z" />
    <glyph glyph-name="Lcaron" unicode="&#x13d;" horiz-adv-x="449" 
d="M414 50h2l-17 -50h-324v728h68v-710h23q118 0 248 32zM336 551l-4 5q44 29 44 67q0 43 -53 75l37 37q54 -26 54 -79q0 -30 -21 -58.5t-57 -46.5z" />
    <glyph glyph-name="lcaron" unicode="&#x13e;" horiz-adv-x="210" 
d="M63 0v787l59 23h4v-810h-63zM197 631l-4 5q44 29 44 67q0 43 -53 75l37 37q54 -26 54 -79q0 -30 -21 -58.5t-57 -46.5z" />
    <glyph glyph-name="Ldot" unicode="&#x13f;" horiz-adv-x="443" 
d="M414 50h2l-17 -50h-324v728h68v-710h23q118 0 248 32zM352 342l-57 56l57 57l57 -57z" />
    <glyph glyph-name="ldot" unicode="&#x140;" horiz-adv-x="292" 
d="M63 0v787l59 23h4v-810h-63zM239 335l-57 56l57 57l57 -57z" />
    <glyph glyph-name="Lslash" unicode="&#x141;" horiz-adv-x="440" 
d="M425 50h2l-17 -50h-325v313l-55 -31l-7 12l62 35v399h69v-359l184 105l7 -12l-191 -109v-335h22q119 0 249 32z" />
    <glyph glyph-name="lslash" unicode="&#x142;" horiz-adv-x="220" 
d="M203 415l-62 -36v-379h-63v343l-55 -32l-7 12l62 36v428l59 23h4v-415l55 32z" />
    <glyph glyph-name="Nacute" unicode="&#x143;" horiz-adv-x="638" 
d="M528 728h46q-13 -111 -13 -318v-422h-7l-453 653v-323q0 -218 13 -318h-46q13 111 13 318v352l-38 55v3h81l417 -606v288q0 218 -13 318zM299 802l-7 5l77 155h98z" />
    <glyph glyph-name="nacute" unicode="&#x144;" horiz-adv-x="548" 
d="M492 351v-351h-63v347q0 63 -24 112q-23 50 -107 50q-92 0 -175 -80v-429h-64v513l60 22h4v-86q96 89 202 89q167 0 167 -187zM269 606l-7 5l79 165h85z" />
    <glyph glyph-name="uni0145" unicode="&#x145;" horiz-adv-x="638" 
d="M528 728h46q-13 -111 -13 -318v-422h-7l-453 653v-323q0 -218 13 -318h-46q13 111 13 318v352l-38 55v3h81l417 -606v288q0 218 -13 318zM278 -274l-5 7q53 35 53 82q0 52 -63 90l44 46q64 -31 64 -96q0 -38 -25 -72.5t-68 -56.5z" />
    <glyph glyph-name="uni0146" unicode="&#x146;" horiz-adv-x="548" 
d="M492 351v-351h-63v347q0 63 -24 112q-23 50 -107 50q-92 0 -175 -80v-429h-64v513l60 22h4v-86q96 89 202 89q167 0 167 -187zM242 -274l-5 7q53 35 53 82q0 52 -63 90l44 46q64 -31 64 -96q0 -38 -25 -72.5t-68 -56.5z" />
    <glyph glyph-name="Ncaron" unicode="&#x147;" horiz-adv-x="638" 
d="M528 728h46q-13 -111 -13 -318v-422h-7l-453 653v-323q0 -218 13 -318h-46q13 111 13 318v352l-38 55v3h81l417 -606v288q0 218 -13 318zM469 962l6 -5l-160 -155h-6l-160 155l6 5l157 -97z" />
    <glyph glyph-name="ncaron" unicode="&#x148;" horiz-adv-x="548" 
d="M492 351v-351h-63v347q0 63 -24 112q-23 50 -107 50q-92 0 -175 -80v-429h-64v513l60 22h4v-86q96 89 202 89q167 0 167 -187zM420 776l6 -5l-142 -165h-6l-142 165l6 5l139 -104z" />
    <glyph glyph-name="napostrophe" unicode="&#x149;" horiz-adv-x="557" 
d="M-27 523l-5 7q54 36 54 84q0 53 -65 96l45 50q69 -33 69 -102q0 -39 -26.5 -75.5t-71.5 -59.5zM501 351v-351h-63v347q0 63 -24 112q-23 50 -107 50q-92 0 -175 -80v-429h-64v513l60 22h4v-86q96 89 202 89q167 0 167 -187z" />
    <glyph glyph-name="Eng" unicode="&#x14a;" horiz-adv-x="638" 
d="M528 728h46q-13 -111 -13 -318v-445q0 -82 -36.5 -131.5t-105.5 -61.5l-4 12q61 11 93.5 57t32.5 124v42l-440 634v-323q0 -218 13 -318h-46q13 111 13 318v352l-38 55v3h81l417 -606v288q0 218 -13 318z" />
    <glyph glyph-name="eng" unicode="&#x14b;" horiz-adv-x="548" 
d="M492 351v-378q0 -83 -50 -136t-137 -65l-2 14q59 10 92.5 59t33.5 126v376q0 63 -24 112q-23 50 -107 50q-92 0 -175 -80v-429h-64v513l60 22h4v-86q96 89 202 89q167 0 167 -187z" />
    <glyph glyph-name="Omacron" unicode="&#x14c;" horiz-adv-x="824" 
d="M39 358q-2 167 109 275.5t270 106.5q155 2 262 -102.5t105 -267.5q2 -167 -109 -275.5t-270 -106.5q-155 -2 -262.5 102.5t-104.5 267.5zM709 360q0 159 -85.5 261.5t-213.5 102.5q-127 2 -211.5 -99t-83.5 -257q-1 -159 86 -262.5t215 -101.5q125 -2 210 99.5t83 256.5z
M258 821v26h309v-26h-309z" />
    <glyph glyph-name="omacron" unicode="&#x14d;" horiz-adv-x="578" 
d="M31 260q0 123 74.5 200.5t187.5 77.5q112 0 182.5 -74t70.5 -198q0 -123 -74 -200.5t-187 -77.5q-112 0 -183 74t-71 198zM476 260q0 117 -53.5 190.5t-135.5 73.5q-81 0 -133.5 -71.5t-52.5 -186.5q0 -117 53.5 -190.5t135.5 -73.5q81 0 133.5 71.5t52.5 186.5zM159 654
v25h261v-25h-261z" />
    <glyph glyph-name="Obreve" unicode="&#x14e;" horiz-adv-x="824" 
d="M39 358q-2 167 109 275.5t270 106.5q155 2 262 -102.5t105 -267.5q2 -167 -109 -275.5t-270 -106.5q-155 -2 -262.5 102.5t-104.5 267.5zM709 360q0 159 -85.5 261.5t-213.5 102.5q-127 2 -211.5 -99t-83.5 -257q-1 -159 86 -262.5t215 -101.5q125 -2 210 99.5t83 256.5z
M255 952l9 3q18 -43 58 -70.5t90 -27.5q51 0 91 27.5t58 70.5l9 -3q-17 -62 -57.5 -100t-100.5 -38t-100 37.5t-57 100.5z" />
    <glyph glyph-name="obreve" unicode="&#x14f;" horiz-adv-x="578" 
d="M31 260q0 123 74.5 200.5t187.5 77.5q112 0 182.5 -74t70.5 -198q0 -123 -74 -200.5t-187 -77.5q-112 0 -183 74t-71 198zM476 260q0 117 -53.5 190.5t-135.5 73.5q-81 0 -133.5 -71.5t-52.5 -186.5q0 -117 53.5 -190.5t135.5 -73.5q81 0 133.5 71.5t52.5 186.5zM141 757
l9 3q18 -46 54 -72.5t85 -26.5q50 0 86 26.5t54 72.5l9 -3q-37 -139 -149 -139q-111 0 -148 139z" />
    <glyph glyph-name="Ohungarumlaut" unicode="&#x150;" horiz-adv-x="824" 
d="M39 358q-2 167 109 275.5t270 106.5q155 2 262 -102.5t105 -267.5q2 -167 -109 -275.5t-270 -106.5q-155 -2 -262.5 102.5t-104.5 267.5zM709 360q0 159 -85.5 261.5t-213.5 102.5q-127 2 -211.5 -99t-83.5 -257q-1 -159 86 -262.5t215 -101.5q125 -2 210 99.5t83 256.5z
M336 802l-7 5l78 155h84zM462 802l-7 5l77 155h84z" />
    <glyph glyph-name="ohungarumlaut" unicode="&#x151;" horiz-adv-x="578" 
d="M31 260q0 123 74.5 200.5t187.5 77.5q112 0 182.5 -74t70.5 -198q0 -123 -74 -200.5t-187 -77.5q-112 0 -183 74t-71 198zM476 260q0 117 -53.5 190.5t-135.5 73.5q-81 0 -133.5 -71.5t-52.5 -186.5q0 -117 53.5 -190.5t135.5 -73.5q81 0 133.5 71.5t52.5 186.5zM213 606
l-7 5l79 165h75zM338 606l-7 5l80 165h75z" />
    <glyph glyph-name="OE" unicode="&#x152;" horiz-adv-x="1036" 
d="M1018 48h2l-17 -48h-592q-171 0 -271 93.5t-100 261.5q0 174 103 273.5t278 99.5h567l13 -46h-2q-141 28 -279 28h-64v-322h58q153 0 213 11h2v-42h-2q-65 13 -213 13h-58v-352h65q162 0 297 30zM421 16q123 0 167 9v678q-44 9 -177 9q-139 0 -217 -92t-78 -259
q0 -154 84 -249.5t221 -95.5z" />
    <glyph glyph-name="oe" unicode="&#x153;" horiz-adv-x="969" 
d="M942 302h-395q-1 -5 -1 -26q0 -117 55 -186t140 -69q50 0 100 27t81 74l12 -7q-82 -127 -217 -127q-71 0 -125 35.5t-84 99.5q-32 -64 -90 -99.5t-133 -35.5q-112 0 -183 74t-71 198q0 123 74.5 200.5t187.5 77.5q75 0 132.5 -35.5t86.5 -100.5q33 64 90.5 100t131.5 36
q98 0 153.5 -63t54.5 -173zM476 260q0 117 -53.5 190.5t-135.5 73.5q-81 0 -133.5 -71.5t-52.5 -186.5q0 -117 53.5 -190.5t135.5 -73.5q81 0 133.5 71.5t52.5 186.5zM548 318h328q0 94 -40 150t-109 56q-71 0 -120 -57q-48 -54 -59 -149z" />
    <glyph glyph-name="Racute" unicode="&#x154;" horiz-adv-x="588" 
d="M337 346l234 -268v-93h-5l-279 320q-20 23 -57 23h-87v-328h-68v728h149q140 0 213 -47t73 -139q0 -71 -44 -117.5t-129 -78.5zM437 536q0 83 -55 129.5t-159 46.5h-80v-361q20 -4 48 -5q42 -2 54 -2q85 0 138.5 55.5t53.5 136.5zM238 802l-7 5l77 155h98z" />
    <glyph glyph-name="racute" unicode="&#x155;" horiz-adv-x="340" 
d="M337 530l-22 -54q-27 12 -56 12q-82 0 -136 -94v-394h-64v513l59 22h4v-116q69 117 166 117q25 0 49 -6zM153 606l-7 5l79 165h85z" />
    <glyph glyph-name="uni0156" unicode="&#x156;" horiz-adv-x="588" 
d="M337 346l234 -268v-93h-5l-279 320q-20 23 -57 23h-87v-328h-68v728h149q140 0 213 -47t73 -139q0 -71 -44 -117.5t-129 -78.5zM437 536q0 83 -55 129.5t-159 46.5h-80v-361q20 -4 48 -5q42 -2 54 -2q85 0 138.5 55.5t53.5 136.5zM263 -274l-5 7q53 35 53 82q0 52 -63 90
l44 46q64 -31 64 -96q0 -38 -25 -72.5t-68 -56.5z" />
    <glyph glyph-name="uni0157" unicode="&#x157;" horiz-adv-x="340" 
d="M337 530l-22 -54q-27 12 -56 12q-82 0 -136 -94v-394h-64v513l59 22h4v-116q69 117 166 117q25 0 49 -6zM57 -274l-5 7q53 35 53 82q0 52 -63 90l44 46q64 -31 64 -96q0 -38 -25 -72.5t-68 -56.5z" />
    <glyph glyph-name="Rcaron" unicode="&#x158;" horiz-adv-x="588" 
d="M337 346l234 -268v-93h-5l-279 320q-20 23 -57 23h-87v-328h-68v728h149q140 0 213 -47t73 -139q0 -71 -44 -117.5t-129 -78.5zM437 536q0 83 -55 129.5t-159 46.5h-80v-361q20 -4 48 -5q42 -2 54 -2q85 0 138.5 55.5t53.5 136.5zM408 962l6 -5l-160 -155h-6l-160 155
l6 5l157 -97z" />
    <glyph glyph-name="rcaron" unicode="&#x159;" horiz-adv-x="340" 
d="M337 530l-22 -54q-27 12 -56 12q-82 0 -136 -94v-394h-64v513l59 22h4v-116q69 117 166 117q25 0 49 -6zM304 776l6 -5l-142 -165h-6l-142 165l6 5l139 -104z" />
    <glyph glyph-name="Sacute" unicode="&#x15a;" horiz-adv-x="529" 
d="M34 43l15 49q35 -38 98 -64q63 -24 121 -24q75 0 124 42t49 108q-2 67 -40 104t-120 77l-50 23q-60 29 -94 51q-90 59 -90 150q0 79 61 130t157 51q110 0 200 -55l-12 -44q-88 83 -197 83q-70 0 -111.5 -37t-41.5 -95q0 -42 21 -72q20 -28 50 -48.5t87 -47.5l50 -23
q58 -27 98 -54q86 -56 86 -156q0 -91 -68 -147t-166 -56q-59 0 -120 16q-64 17 -107 39zM251 802l-7 5l77 155h98z" />
    <glyph glyph-name="sacute" unicode="&#x15b;" horiz-adv-x="421" 
d="M23 40l12 39q74 -77 177 -77q61 0 99.5 30.5t38.5 79.5q0 30 -17 53q-26 33 -108 68l-40 18q-47 21 -79 39q-72 42 -72 115q0 60 48 96.5t125 36.5q97 0 170 -43l-12 -38q-76 67 -164 67q-53 0 -85 -27t-32 -68q0 -29 18 -52q17 -19 37.5 -31t69.5 -33l40 -18
q47 -21 76 -38q74 -43 74 -120q0 -67 -53 -108t-140 -41q-106 0 -183 52zM191 606l-7 5l79 165h85z" />
    <glyph glyph-name="Scircumflex" unicode="&#x15c;" horiz-adv-x="529" 
d="M34 43l15 49q35 -38 98 -64q63 -24 121 -24q75 0 124 42t49 108q-2 67 -40 104t-120 77l-50 23q-60 29 -94 51q-90 59 -90 150q0 79 61 130t157 51q110 0 200 -55l-12 -44q-88 83 -197 83q-70 0 -111.5 -37t-41.5 -95q0 -42 21 -72q20 -28 50 -48.5t87 -47.5l50 -23
q58 -27 98 -54q86 -56 86 -156q0 -91 -68 -147t-166 -56q-59 0 -120 16q-64 17 -107 39zM427 807l-6 -5l-157 97l-157 -97l-6 5l160 155h6z" />
    <glyph glyph-name="scircumflex" unicode="&#x15d;" horiz-adv-x="421" 
d="M23 40l12 39q74 -77 177 -77q61 0 99.5 30.5t38.5 79.5q0 30 -17 53q-26 33 -108 68l-40 18q-47 21 -79 39q-72 42 -72 115q0 60 48 96.5t125 36.5q97 0 170 -43l-12 -38q-76 67 -164 67q-53 0 -85 -27t-32 -68q0 -29 18 -52q17 -19 37.5 -31t69.5 -33l40 -18
q47 -21 76 -38q74 -43 74 -120q0 -67 -53 -108t-140 -41q-106 0 -183 52zM348 611l-6 -5l-139 105l-139 -105l-6 5l142 165h6z" />
    <glyph glyph-name="Scedilla" unicode="&#x15e;" horiz-adv-x="529" 
d="M275 -12l-20 -43q46 -3 74 -25.5t28 -54.5q0 -36 -30 -59t-75 -23q-40 0 -74 15l3 9q25 -9 60 -9q34 0 55 15t21 38q0 21 -21.5 35.5t-54.5 14.5h-25l39 87q-60 2 -117 17q-63 17 -104 38l15 49q35 -38 98 -64q63 -24 121 -24q75 0 124 42t49 108q-2 67 -40 104t-120 77
l-50 23q-60 29 -94 51q-90 59 -90 150q0 79 61 130t157 51q110 0 200 -55l-12 -44q-88 83 -197 83q-70 0 -111.5 -37t-41.5 -95q0 -42 21 -72q20 -28 50 -48.5t87 -47.5l50 -23q58 -27 98 -54q86 -56 86 -156q0 -88 -62.5 -143t-157.5 -60z" />
    <glyph glyph-name="scedilla" unicode="&#x15f;" horiz-adv-x="421" 
d="M217 -12l-20 -43q46 -3 74 -25.5t28 -54.5q0 -36 -30 -59t-75 -23q-40 0 -74 15l3 9q25 -9 60 -9q34 0 55 15t21 38q0 21 -21.5 35.5t-54.5 14.5h-25l39 87q-102 5 -174 52l12 39q74 -77 177 -77q61 0 99.5 30.5t38.5 79.5q0 30 -17 53q-26 33 -108 68l-40 18
q-47 21 -79 39q-72 42 -72 115q0 60 48 96.5t125 36.5q97 0 170 -43l-12 -38q-76 67 -164 67q-53 0 -85 -27t-32 -68q0 -29 18 -52q17 -19 37.5 -31t69.5 -33l40 -18q47 -21 76 -38q74 -43 74 -120q0 -65 -49.5 -105.5t-132.5 -43.5z" />
    <glyph glyph-name="Scaron" unicode="&#x160;" horiz-adv-x="529" 
d="M34 43l15 49q35 -38 98 -64q63 -24 121 -24q75 0 124 42t49 108q-2 67 -40 104t-120 77l-50 23q-60 29 -94 51q-90 59 -90 150q0 79 61 130t157 51q110 0 200 -55l-12 -44q-88 83 -197 83q-70 0 -111.5 -37t-41.5 -95q0 -42 21 -72q20 -28 50 -48.5t87 -47.5l50 -23
q58 -27 98 -54q86 -56 86 -156q0 -91 -68 -147t-166 -56q-59 0 -120 16q-64 17 -107 39zM421 962l6 -5l-160 -155h-6l-160 155l6 5l157 -97z" />
    <glyph glyph-name="scaron" unicode="&#x161;" horiz-adv-x="421" 
d="M23 40l12 39q74 -77 177 -77q61 0 99.5 30.5t38.5 79.5q0 30 -17 53q-26 33 -108 68l-40 18q-47 21 -79 39q-72 42 -72 115q0 60 48 96.5t125 36.5q97 0 170 -43l-12 -38q-76 67 -164 67q-53 0 -85 -27t-32 -68q0 -29 18 -52q17 -19 37.5 -31t69.5 -33l40 -18
q47 -21 76 -38q74 -43 74 -120q0 -67 -53 -108t-140 -41q-106 0 -183 52zM342 776l6 -5l-142 -165h-6l-142 165l6 5l139 -104z" />
    <glyph glyph-name="uni0162" unicode="&#x162;" horiz-adv-x="550" 
d="M528 728l13 -49h-2q-111 31 -202 31h-27v-710h-69v710h-28q-90 0 -201 -31h-2l12 49h506zM368 -135q0 -36 -30 -59t-75 -23q-39 0 -74 15l3 9q25 -9 60 -9q34 0 55 15t21 38q0 21 -21.5 35.5t-54.5 14.5h-25l44 99h20l-25 -55q46 -3 74 -25.5t28 -54.5z" />
    <glyph glyph-name="uni0163" unicode="&#x163;" horiz-adv-x="343" 
d="M317 -135q0 -36 -30 -59t-76 -23q-39 0 -74 15l3 9q25 -9 60 -9q34 0 55 15t21 38q0 21 -21.5 35.5t-54.5 14.5h-25l39 87q-72 3 -93 43q-21 41 -21 91v382h-84v17l79 5l65 162h4v-162h180l-14 -22h-166v-376q0 -44 15 -79q16 -34 73 -34q45 0 89 25l8 -12
q-58 -36 -115 -40l-20 -43q47 -3 75 -25t28 -55z" />
    <glyph glyph-name="Tcaron" unicode="&#x164;" horiz-adv-x="550" 
d="M528 728l13 -49h-2q-111 31 -202 31h-27v-710h-69v710h-28q-90 0 -201 -31h-2l12 49h506zM432 962l6 -5l-160 -155h-6l-160 155l6 5l157 -97z" />
    <glyph glyph-name="tcaron" unicode="&#x165;" horiz-adv-x="343" 
d="M341 40l8 -12q-64 -40 -127 -40q-77 0 -100 41q-22 40 -22 93v382h-84v17l79 5l65 162h4v-162h180l-14 -22h-166v-376q0 -44 15 -79q16 -34 73 -34q45 0 89 25zM278 573l-4 5q44 29 44 67q0 43 -53 75l37 37q54 -26 54 -79q0 -30 -21 -58.5t-57 -46.5z" />
    <glyph glyph-name="Tbar" unicode="&#x166;" horiz-adv-x="567" 
d="M346 710h-28v-325h136v-14h-136v-371h-69v371h-136v14h136v325h-27q-91 0 -202 -31h-2l13 49h506l12 -49h-2q-111 31 -201 31z" />
    <glyph glyph-name="tbar" unicode="&#x167;" horiz-adv-x="358" 
d="M351 40l8 -12q-64 -40 -127 -40q-77 0 -100 41q-22 40 -22 93v199h-84v14h84v169h-84v17l79 5l64 162h4v-162h181l-14 -22h-167v-169h176v-14h-176v-193q0 -46 16 -79q16 -34 73 -34q45 0 89 25z" />
    <glyph glyph-name="Utilde" unicode="&#x168;" horiz-adv-x="643" 
d="M69 241v487h69v-483q0 -113 52 -171.5t154 -58.5q100 0 153 57.5t53 167.5v170q0 218 -13 318h47q-14 -117 -14 -318v-165q0 -257 -249 -257q-123 0 -187.5 65t-64.5 188zM165 814l-9 2q15 97 83 97q30 0 107 -31q64 -26 88 -26q40 0 56 57l9 -2q-17 -97 -83 -97
q-32 0 -106 30q-69 26 -89 26q-39 0 -56 -56z" />
    <glyph glyph-name="utilde" unicode="&#x169;" horiz-adv-x="547" 
d="M485 89l22 -75l-59 -22l-26 86v4q-91 -94 -200 -94q-167 0 -167 187v338l59 22h4v-356q0 -61 23 -112q24 -50 108 -50q43 0 90.5 24t82.5 65v407l59 22h4v-446zM118 618l-10 2q16 97 84 97q36 0 97 -30q56 -26 80 -26q39 0 56 56l9 -2q-15 -97 -83 -97q-32 0 -97 31
q-56 26 -80 26q-40 0 -56 -57z" />
    <glyph glyph-name="Umacron" unicode="&#x16a;" horiz-adv-x="643" 
d="M69 241v487h69v-483q0 -113 52 -171.5t154 -58.5q100 0 153 57.5t53 167.5v170q0 218 -13 318h47q-14 -117 -14 -318v-165q0 -257 -249 -257q-123 0 -187.5 65t-64.5 188zM173 821v26h309v-26h-309z" />
    <glyph glyph-name="umacron" unicode="&#x16b;" horiz-adv-x="547" 
d="M485 89l22 -75l-59 -22l-26 86v4q-91 -94 -200 -94q-167 0 -167 187v338l59 22h4v-356q0 -61 23 -112q24 -50 108 -50q43 0 90.5 24t82.5 65v407l59 22h4v-446zM141 654v25h261v-25h-261z" />
    <glyph glyph-name="Ubreve" unicode="&#x16c;" horiz-adv-x="643" 
d="M69 241v487h69v-483q0 -113 52 -171.5t154 -58.5q100 0 153 57.5t53 167.5v170q0 218 -13 318h47q-14 -117 -14 -318v-165q0 -257 -249 -257q-123 0 -187.5 65t-64.5 188zM170 952l9 3q18 -43 58 -70.5t90 -27.5q51 0 91 27.5t58 70.5l9 -3q-17 -62 -57.5 -100
t-100.5 -38t-100 37.5t-57 100.5z" />
    <glyph glyph-name="ubreve" unicode="&#x16d;" horiz-adv-x="547" 
d="M485 89l22 -75l-59 -22l-26 86v4q-91 -94 -200 -94q-167 0 -167 187v338l59 22h4v-356q0 -61 23 -112q24 -50 108 -50q43 0 90.5 24t82.5 65v407l59 22h4v-446zM123 757l9 3q18 -46 54 -72.5t85 -26.5q50 0 86 26.5t54 72.5l9 -3q-37 -139 -149 -139q-111 0 -148 139z
" />
    <glyph glyph-name="Uring" unicode="&#x16e;" horiz-adv-x="643" 
d="M69 241v487h69v-483q0 -113 52 -171.5t154 -58.5q100 0 153 57.5t53 167.5v170q0 218 -13 318h47q-14 -117 -14 -318v-165q0 -257 -249 -257q-123 0 -187.5 65t-64.5 188zM226 898q0 42 29.5 69.5t71.5 27.5t71.5 -27.5t29.5 -69.5q0 -41 -29.5 -68.5t-71.5 -27.5
t-71.5 27.5t-29.5 68.5zM392 898q0 39 -17 62t-48 23t-48 -23t-17 -62t17 -61.5t48 -22.5t48 22.5t17 61.5z" />
    <glyph glyph-name="uring" unicode="&#x16f;" horiz-adv-x="547" 
d="M485 89l22 -75l-59 -22l-26 86v4q-91 -94 -200 -94q-167 0 -167 187v338l59 22h4v-356q0 -61 23 -112q24 -50 108 -50q43 0 90.5 24t82.5 65v407l59 22h4v-446zM170 703q0 41 29.5 68.5t71.5 27.5t71.5 -27.5t29.5 -68.5q0 -42 -29.5 -69.5t-71.5 -27.5t-71.5 27.5
t-29.5 69.5zM336 703q0 39 -17.5 61.5t-47.5 22.5t-47.5 -22.5t-17.5 -61.5t17 -62t48 -23t48 23t17 62z" />
    <glyph glyph-name="Uhungarumlaut" unicode="&#x170;" horiz-adv-x="643" 
d="M69 241v487h69v-483q0 -113 52 -171.5t154 -58.5q100 0 153 57.5t53 167.5v170q0 218 -13 318h47q-14 -117 -14 -318v-165q0 -257 -249 -257q-123 0 -187.5 65t-64.5 188zM252 802l-7 5l78 155h84zM378 802l-7 5l77 155h84z" />
    <glyph glyph-name="uhungarumlaut" unicode="&#x171;" horiz-adv-x="547" 
d="M485 89l22 -75l-59 -22l-26 86v4q-91 -94 -200 -94q-167 0 -167 187v338l59 22h4v-356q0 -61 23 -112q24 -50 108 -50q43 0 90.5 24t82.5 65v407l59 22h4v-446zM195 606l-7 5l79 165h75zM320 606l-7 5l80 165h75z" />
    <glyph glyph-name="Uogonek" unicode="&#x172;" horiz-adv-x="643" 
d="M537 728h47q-14 -117 -14 -318v-165q0 -235 -211 -255q-60 -68 -60 -120q0 -27 16.5 -43.5t41.5 -16.5q23 0 62 14l3 -5q-50 -36 -100 -36q-34 0 -56 19.5t-22 51.5t22.5 62.5t71.5 71.5h-17q-123 0 -187.5 65t-64.5 188v487h69v-483q0 -113 52 -171.5t154 -58.5
q100 0 153 57.5t53 167.5v170q0 218 -13 318z" />
    <glyph glyph-name="uogonek" unicode="&#x173;" horiz-adv-x="547" 
d="M511 -176l3 -5q-50 -36 -100 -36q-34 0 -56 19.5t-22 51.5q0 39 33 79q31 38 77 68l-24 77v4q-91 -94 -200 -94q-167 0 -167 187v338l59 22h4v-356q0 -61 23 -112q24 -50 108 -50q43 0 90.5 24t82.5 65v407l59 22h4v-446l22 -75l-30 -13q-34 -13 -60 -52q-25 -37 -25 -78
q0 -27 16.5 -44t41.5 -17q22 0 61 14z" />
    <glyph glyph-name="Wcircumflex" unicode="&#x174;" horiz-adv-x="940" 
d="M884 728h50q-33 -87 -96 -275l-15 -44l-143 -422h-4l-205 613l-209 -613h-4l-250 741h73l205 -613l209 613h4l205 -612l100 299q60 174 80 313zM660 807l-6 -5l-157 97l-157 -97l-6 5l160 155h6z" />
    <glyph glyph-name="wcircumflex" unicode="&#x175;" horiz-adv-x="749" 
d="M693 526h50q-44 -102 -117 -299l-89 -239h-8l-153 428l-153 -428h-8l-209 538h68l168 -433l154 433h7l155 -430l51 139q72 193 84 291zM540 611l-6 -5l-139 105l-139 -105l-6 5l142 165h6z" />
    <glyph glyph-name="Ycircumflex" unicode="&#x176;" horiz-adv-x="566" 
d="M379 431l-61 -107v-324h-68v320l-237 408h79l217 -381l53 93q108 188 140 288h51q-85 -142 -174 -297zM456 807l-6 -5l-157 97l-157 -97l-6 5l160 155h6z" />
    <glyph glyph-name="ycircumflex" unicode="&#x177;" horiz-adv-x="472" 
d="M419 526h48q-27 -59 -54 -127l-41 -99l-27 -68l-129 -317q-61 -149 -208 -149l4 48q18 -5 42 -5q44 0 83 27.5t60 79.5l34 86l-227 524h68l192 -442l64 155q79 194 91 287zM384 611l-6 -5l-139 105l-139 -105l-6 5l142 165h6z" />
    <glyph glyph-name="Ydieresis" unicode="&#x178;" horiz-adv-x="566" 
d="M379 431l-61 -107v-324h-68v320l-237 408h79l217 -381l53 93q108 188 140 288h51q-85 -142 -174 -297zM201 820l-50 49l50 49l48 -49zM386 820l-50 49l50 49l48 -49z" />
    <glyph glyph-name="Zacute" unicode="&#x179;" horiz-adv-x="522" 
d="M510 48h2l-17 -48h-490v4l417 706h-74q-210 0 -321 -28h-2l12 46h471v-4l-417 -706h89q206 0 330 30zM255 802l-7 5l77 155h98z" />
    <glyph glyph-name="zacute" unicode="&#x17a;" horiz-adv-x="419" 
d="M410 38h3l-11 -38h-390v4l311 507h-71q-122 0 -231 -20h-3l8 35h375v-4l-311 -507h78q127 0 242 23zM202 606l-7 5l79 165h85z" />
    <glyph glyph-name="Zdotaccent" unicode="&#x17b;" horiz-adv-x="522" 
d="M510 48h2l-17 -48h-490v4l417 706h-74q-210 0 -321 -28h-2l12 46h471v-4l-417 -706h89q206 0 330 30zM268 820l-57 56l57 57l57 -57z" />
    <glyph glyph-name="zdotaccent" unicode="&#x17c;" horiz-adv-x="419" 
d="M410 38h3l-11 -38h-390v4l311 507h-71q-122 0 -231 -20h-3l8 35h375v-4l-311 -507h78q127 0 242 23zM214 624l-53 53l53 53l53 -53z" />
    <glyph glyph-name="Zcaron" unicode="&#x17d;" horiz-adv-x="522" 
d="M510 48h2l-17 -48h-490v4l417 706h-74q-210 0 -321 -28h-2l12 46h471v-4l-417 -706h89q206 0 330 30zM425 962l6 -5l-160 -155h-6l-160 155l6 5l157 -97z" />
    <glyph glyph-name="zcaron" unicode="&#x17e;" horiz-adv-x="419" 
d="M410 38h3l-11 -38h-390v4l311 507h-71q-122 0 -231 -20h-3l8 35h375v-4l-311 -507h78q127 0 242 23zM353 776l6 -5l-142 -165h-6l-142 165l6 5l139 -104z" />
    <glyph glyph-name="longs" unicode="&#x17f;" horiz-adv-x="202" 
d="M59 0v627q0 91 42 139t120 48q76 0 145 -39l-6 -12q-56 24 -112 24q-125 0 -125 -164v-623h-64z" />
    <glyph glyph-name="florin" unicode="&#x192;" horiz-adv-x="581" 
d="M355 564l-27 -190h158l-5 -18h-155l-54 -384q-26 -186 -152 -186q-55 0 -104 35l6 12q40 -23 85 -23q49 0 77.5 41t40.5 129l53 376h-145v18h147l28 198q26 186 152 186q55 0 104 -35l-6 -12q-40 23 -85 23q-49 0 -77.5 -41t-40.5 -129z" />
    <glyph glyph-name="Aringacute" unicode="&#x1fa;" horiz-adv-x="599" 
d="M448 1040l-167 -95l-7 5l76 90h98zM520 0l-94 241h-303q-33 -87 -47 -138q-14 -55 -21 -103h-53q22 51 60 142q15 36 38 97l31 79l157 398q-39 4 -64 30.5t-25 64.5q0 42 29.5 69.5t71.5 27.5q43 0 72 -27.5t29 -69.5q0 -38 -25 -64.5t-64 -30.5l283 -716h-75zM300 727
q30 0 47.5 22.5t17.5 61.5t-17 62t-48 23t-48 -23t-17 -62t17.5 -61.5t47.5 -22.5zM130 259h289l-144 368l-125 -316z" />
    <glyph glyph-name="aringacute" unicode="&#x1fb;" horiz-adv-x="489" 
d="M384 936l-157 -105l-7 5l79 100h85zM133 703q0 41 29 68.5t72 27.5q42 0 71.5 -27.5t29.5 -68.5q0 -42 -29.5 -69.5t-71.5 -27.5q-43 0 -72 27.5t-29 69.5zM169 703q0 -39 17 -62t48 -23t48 23t17 62t-17.5 61.5t-47.5 22.5t-47.5 -22.5t-17.5 -61.5zM481 21v-6
q-37 -20 -66 -20q-60 0 -66 73q-39 -36 -91 -57t-101 -21q-63 0 -101 32.5t-38 87.5q0 68 60.5 110.5t168.5 54.5q54 6 102 9v59q0 167 -133 167q-78 0 -152 -62l-9 11q88 79 186 79q87 0 129.5 -46t42.5 -141v-256q0 -46 8 -61t41 -15q3 0 19 2zM194 19q85 0 155 68v183
q-138 -13 -202 -45t-64 -100q0 -50 30.5 -78t80.5 -28z" />
    <glyph glyph-name="AEacute" unicode="&#x1fc;" horiz-adv-x="881" 
d="M862 48h2l-17 -48h-415v262h-264q-90 -161 -125 -262h-55l434 728h411l12 -46h-2q-140 28 -278 28h-64v-322h58q153 0 213 11h2v-42h-2q-65 13 -213 13h-58v-352h65q162 0 296 30zM179 280h253v427l-234 -394q-6 -8 -19 -33zM468 802l-7 5l77 155h98z" />
    <glyph glyph-name="aeacute" unicode="&#x1fd;" horiz-adv-x="839" 
d="M793 122l12 -7q-82 -127 -218 -127q-64 0 -116.5 30t-83.5 83q-95 -111 -227 -111q-63 0 -101 32t-38 88q0 69 62 119q64 50 167 65q49 8 103 15v34q0 84 -33 125.5t-103 41.5q-81 0 -161 -62l-9 11q97 79 198 79q127 0 158 -101q74 101 202 101q97 0 152.5 -63
t55.5 -173h-395q-1 -5 -1 -26q0 -117 55 -186t140 -69q50 0 100 27t81 74zM419 318h327q1 94 -39.5 150t-109.5 56t-119 -57q-48 -56 -59 -149zM197 19q89 0 156 67v209q-139 -24 -203 -62.5t-64 -107.5q0 -50 30.5 -78t80.5 -28zM393 606l-7 5l79 165h85z" />
    <glyph glyph-name="Oslashacute" unicode="&#x1fe;" horiz-adv-x="824" 
d="M785 370q2 -167 -109 -275.5t-270 -106.5q-122 0 -211 61l-73 -100l-16 11l73 100q-67 49 -103.5 125.5t-36.5 172.5q-2 167 109 275.5t270 106.5q122 0 211 -61l73 100l16 -11l-73 -100q140 -107 140 -298zM207 98l397 546q-80 80 -194 80q-127 2 -211.5 -99t-83.5 -257
q0 -169 92 -270zM709 360q0 169 -92 270l-397 -546q80 -80 196 -80q125 -2 210 99.5t83 256.5zM399 802l-7 5l77 155h98z" />
    <glyph glyph-name="oslashacute" unicode="&#x1ff;" horiz-adv-x="578" 
d="M546 266q0 -123 -74 -200.5t-187 -77.5q-81 0 -142 40l-53 -79l-15 10l53 79q-97 76 -97 222q0 123 74.5 200.5t187.5 77.5q81 0 142 -40l52 79l15 -10l-53 -79q97 -75 97 -222zM153 77l259 387q-51 60 -125 60q-81 0 -133.5 -71.5t-52.5 -186.5t52 -189zM476 260
q0 115 -52 189l-259 -387q51 -60 125 -60q81 0 133.5 71.5t52.5 186.5zM277 606l-7 5l79 165h85z" />
    <glyph glyph-name="uni0218" unicode="&#x218;" horiz-adv-x="529" 
d="M34 43l15 49q35 -38 98 -64q63 -24 121 -24q75 0 124 42t49 108q-2 67 -40 104t-120 77l-50 23q-60 29 -94 51q-90 59 -90 150q0 79 61 130t157 51q110 0 200 -55l-12 -44q-88 83 -197 83q-70 0 -111.5 -37t-41.5 -95q0 -42 21 -72q20 -28 50 -48.5t87 -47.5l50 -23
q58 -27 98 -54q86 -56 86 -156q0 -91 -68 -147t-166 -56q-59 0 -120 16q-64 17 -107 39zM230 -274l-5 7q53 35 53 82q0 52 -63 90l44 46q64 -31 64 -96q0 -38 -25 -72.5t-68 -56.5z" />
    <glyph glyph-name="uni0219" unicode="&#x219;" horiz-adv-x="421" 
d="M23 40l12 39q74 -77 177 -77q61 0 99.5 30.5t38.5 79.5q0 30 -17 53q-26 33 -108 68l-40 18q-47 21 -79 39q-72 42 -72 115q0 60 48 96.5t125 36.5q97 0 170 -43l-12 -38q-76 67 -164 67q-53 0 -85 -27t-32 -68q0 -29 18 -52q17 -19 37.5 -31t69.5 -33l40 -18
q47 -21 76 -38q74 -43 74 -120q0 -67 -53 -108t-140 -41q-106 0 -183 52zM178 -274l-5 7q53 35 53 82q0 52 -63 90l44 46q64 -31 64 -96q0 -38 -25 -72.5t-68 -56.5z" />
    <glyph glyph-name="uni021A" unicode="&#x21a;" horiz-adv-x="550" 
d="M528 728l13 -49h-2q-111 31 -202 31h-27v-710h-69v710h-28q-90 0 -201 -31h-2l12 49h506zM241 -274l-5 7q53 35 53 82q0 52 -63 90l44 46q64 -31 64 -96q0 -38 -25 -72.5t-68 -56.5z" />
    <glyph glyph-name="uni021B" unicode="&#x21b;" horiz-adv-x="343" 
d="M341 40l8 -12q-64 -40 -127 -40q-77 0 -100 41q-22 40 -22 93v382h-84v17l79 5l65 162h4v-162h180l-14 -22h-166v-376q0 -44 15 -79q16 -34 73 -34q45 0 89 25zM195 -274l-5 7q53 35 53 82q0 52 -63 90l44 46q64 -31 64 -96q0 -38 -25 -72.5t-68 -56.5z" />
    <glyph glyph-name="uni0237" unicode="&#x237;" horiz-adv-x="193" 
d="M-55 -228l-4 12q59 11 92.5 60.5t33.5 126.5v542l60 22h4v-562q0 -83 -50 -136t-136 -65z" />
    <glyph glyph-name="uni0259" unicode="&#x259;" horiz-adv-x="523" 
d="M491 269q0 -125 -73 -203t-184 -78q-98 0 -153.5 63t-54.5 173h395q1 6 1 26q0 117 -55 186t-140 69q-52 0 -101 -26t-80 -74l-12 7q82 126 217 126q104 0 172 -75.5t68 -193.5zM420 208h-328q0 -94 40 -150t109 -56t119 57q49 57 60 149z" />
    <glyph glyph-name="uni02BB" unicode="&#x2bb;" horiz-adv-x="142" 
d="M27 701q0 30 21 58.5t56 46.5l4 -5q-44 -29 -44 -67q0 -42 53 -74l-37 -38q-53 26 -53 79z" />
    <glyph glyph-name="uni02BC" unicode="&#x2bc;" horiz-adv-x="144" 
d="M42 622l-4 5q44 29 44 67q0 44 -53 74l37 38q54 -26 54 -79q0 -30 -21 -58.5t-57 -46.5z" />
    <glyph glyph-name="circumflex" unicode="&#x2c6;" horiz-adv-x="600" 
d="M445 611l-6 -5l-139 105l-139 -105l-6 5l142 165h6z" />
    <glyph glyph-name="caron" unicode="&#x2c7;" horiz-adv-x="600" 
d="M439 776l6 -5l-142 -165h-6l-142 165l6 5l139 -104z" />
    <glyph glyph-name="uni02C9" unicode="&#x2c9;" horiz-adv-x="600" 
d="M170 654v25h261v-25h-261z" />
    <glyph glyph-name="breve" unicode="&#x2d8;" horiz-adv-x="600" 
d="M152 757l9 3q18 -46 54 -72.5t85 -26.5q50 0 86 26.5t54 72.5l9 -3q-37 -139 -149 -139q-111 0 -148 139z" />
    <glyph glyph-name="dotaccent" unicode="&#x2d9;" horiz-adv-x="600" 
d="M309 624l-53 53l53 53l53 -53z" />
    <glyph glyph-name="ring" unicode="&#x2da;" horiz-adv-x="600" 
d="M208 703q0 41 29.5 68.5t71.5 27.5q43 0 72 -27.5t29 -68.5q0 -42 -29 -69.5t-72 -27.5q-42 0 -71.5 27.5t-29.5 69.5zM374 703q0 39 -17.5 61.5t-47.5 22.5t-47.5 -22.5t-17.5 -61.5t17 -62t48 -23t48 23t17 62z" />
    <glyph glyph-name="ogonek" unicode="&#x2db;" horiz-adv-x="600" 
d="M264 -146q0 34 25.5 66t84.5 81h15q-70 -73 -70 -131q0 -27 16.5 -43.5t41.5 -16.5q23 0 62 14l3 -5q-50 -36 -100 -36q-34 0 -56 19.5t-22 51.5z" />
    <glyph glyph-name="tilde" unicode="&#x2dc;" horiz-adv-x="600" 
d="M140 618l-9 2q16 97 83 97q28 0 98 -30q56 -26 80 -26q39 0 56 56l9 -2q-17 -97 -83 -97q-33 0 -98 31q-60 26 -79 26q-23 0 -35.5 -13t-21.5 -44z" />
    <glyph glyph-name="hungarumlaut" unicode="&#x2dd;" horiz-adv-x="600" 
d="M184 606l-7 5l79 165h75zM309 606l-7 5l79 165h76z" />
    <glyph glyph-name="gravecomb" unicode="&#x300;" 
d="M-187 606l-157 170h85l79 -165z" />
    <glyph glyph-name="acutecomb" unicode="&#x301;" 
d="M-212 606l-7 5l79 165h85z" />
    <glyph glyph-name="uni0302" unicode="&#x302;" 
d="M-55 611l-6 -5l-139 105l-139 -105l-6 5l142 165h6z" />
    <glyph glyph-name="tildecomb" unicode="&#x303;" 
d="M-353 618l-10 2q16 97 84 97q35 0 97 -30q56 -26 80 -26q39 0 56 56l9 -2q-15 -97 -83 -97q-32 0 -97 31q-56 26 -80 26q-40 0 -56 -57z" />
    <glyph glyph-name="uni0304" unicode="&#x304;" 
d="M-330 654v25h261v-25h-261z" />
    <glyph glyph-name="uni0306" unicode="&#x306;" 
d="M-348 757l9 3q18 -46 54 -72.5t85 -26.5q50 0 86 26.5t54 72.5l9 -3q-37 -139 -149 -139q-111 0 -148 139z" />
    <glyph glyph-name="uni0307" unicode="&#x307;" 
d="M-200 624l-53 53l53 53l53 -53z" />
    <glyph glyph-name="uni0308" unicode="&#x308;" 
d="M-290 624l-50 49l50 49l48 -49zM-113 624l-49 49l49 49l49 -49z" />
    <glyph glyph-name="uni030A" unicode="&#x30a;" 
d="M-301 703q0 41 29.5 68.5t71.5 27.5t71.5 -27.5t29.5 -68.5q0 -42 -29.5 -69.5t-71.5 -27.5t-71.5 27.5t-29.5 69.5zM-135 703q0 39 -17.5 61.5t-47.5 22.5t-47.5 -22.5t-17.5 -61.5t17 -62t48 -23t48 23t17 62z" />
    <glyph glyph-name="uni030B" unicode="&#x30b;" 
d="M-376 606l-7 5l79 165h75zM-251 606l-7 5l80 165h75z" />
    <glyph glyph-name="uni030C" unicode="&#x30c;" 
d="M-61 776l6 -5l-142 -165h-6l-142 165l6 5l139 -104z" />
    <glyph glyph-name="uni0312" unicode="&#x312;" 
d="M-244 692q0 30 21 58.5t57 46.5l4 -5q-44 -29 -44 -67q0 -43 52 -74l-37 -38q-53 26 -53 79z" />
    <glyph glyph-name="uni0313" unicode="&#x313;" 
d="M-230 613l-4 5q44 29 44 67q0 43 -53 75l37 37q54 -26 54 -79q0 -30 -21 -58.5t-57 -46.5z" />
    <glyph glyph-name="uni0326" unicode="&#x326;" 
d="M-234 -274l-5 7q53 35 53 82q0 52 -63 90l44 46q64 -31 64 -96q0 -38 -25 -72.5t-68 -56.5z" />
    <glyph glyph-name="uni0327" unicode="&#x327;" 
d="M-113 -135q0 -36 -30 -59t-75 -23q-40 0 -74 15l3 9q25 -9 60 -9q34 0 55 15t21 38q0 21 -21.5 35.5t-54.5 14.5h-25l44 99h20l-25 -55q46 -3 74 -25.5t28 -54.5z" />
    <glyph glyph-name="uni0328" unicode="&#x328;" 
d="M-274 -146q0 34 25.5 66t84.5 81h15q-69 -75 -69 -131q0 -27 16.5 -43.5t41.5 -16.5q22 0 61 14l3 -5q-50 -36 -100 -36q-34 0 -56 19.5t-22 51.5z" />
    <glyph glyph-name="uni037E" unicode="&#x37e;" horiz-adv-x="226" 
d="M72 -142l-5 7q54 36 54 84q0 53 -65 96l45 50q69 -33 69 -102q0 -39 -26.5 -75.5t-71.5 -59.5zM113 394l-57 56l57 57l57 -57z" />
    <glyph glyph-name="uni0394" unicode="&#x394;" horiz-adv-x="587" 
d="M296 740l287 -740h-578l287 740h4zM519 18l-243 631l-245 -631h488z" />
    <glyph glyph-name="uni03A9" unicode="&#x3a9;" horiz-adv-x="777" 
d="M746 58l-18 -58h-287v26q116 85 171 176t55 199q0 142 -77 232.5t-202 90.5q-126 0 -202.5 -88.5t-76.5 -230.5q0 -105 54.5 -197t171.5 -182v-26h-287l-18 58q88 -20 201 -20h60q-125 100 -183 182q-57 82 -57 181q-2 145 95.5 243t241.5 96q152 0 244.5 -92.5
t92.5 -242.5q0 -99 -58 -184q-60 -86 -182 -183h60q113 0 201 20z" />
    <glyph glyph-name="uni03BC" unicode="&#x3bc;" horiz-adv-x="551" 
d="M489 89l22 -75l-59 -22l-26 86v4q-91 -94 -201 -94q-90 0 -128 65q25 -140 25 -205v-60h-63v725l59 22h4v-356q0 -61 23 -112q24 -50 108 -50q43 0 90.5 24t82.5 65v407l59 22h4v-446z" />
    <glyph glyph-name="pi" unicode="&#x3c0;" horiz-adv-x="607" 
d="M593 37l8 -12q-66 -37 -119 -37q-120 0 -120 146v368h-187v-76q0 -257 -28 -426h-48q28 147 28 428v74h-118v22h396q124 0 180 10l-18 -32h-157v-360q0 -130 93 -130q44 0 90 25z" />
    <glyph glyph-name="Wgrave" unicode="&#x1e80;" horiz-adv-x="940" 
d="M884 728h50q-33 -87 -96 -275l-15 -44l-143 -422h-4l-205 613l-209 -613h-4l-250 741h73l205 -613l209 613h4l205 -612l100 299q60 174 80 313zM510 802l-168 160h98l77 -155z" />
    <glyph glyph-name="wgrave" unicode="&#x1e81;" horiz-adv-x="749" 
d="M693 526h50q-44 -102 -117 -299l-89 -239h-8l-153 428l-153 -428h-8l-209 538h68l168 -433l154 433h7l155 -430l51 139q72 193 84 291zM408 606l-157 170h85l79 -165z" />
    <glyph glyph-name="Wacute" unicode="&#x1e82;" horiz-adv-x="940" 
d="M884 728h50q-33 -87 -96 -275l-15 -44l-143 -422h-4l-205 613l-209 -613h-4l-250 741h73l205 -613l209 613h4l205 -612l100 299q60 174 80 313zM484 802l-7 5l77 155h98z" />
    <glyph glyph-name="wacute" unicode="&#x1e83;" horiz-adv-x="749" 
d="M693 526h50q-44 -102 -117 -299l-89 -239h-8l-153 428l-153 -428h-8l-209 538h68l168 -433l154 433h7l155 -430l51 139q72 193 84 291zM383 606l-7 5l79 165h85z" />
    <glyph glyph-name="Wdieresis" unicode="&#x1e84;" horiz-adv-x="940" 
d="M884 728h50q-33 -87 -96 -275l-15 -44l-143 -422h-4l-205 613l-209 -613h-4l-250 741h73l205 -613l209 613h4l205 -612l100 299q60 174 80 313zM405 820l-50 49l50 49l48 -49zM590 820l-50 49l50 49l48 -49z" />
    <glyph glyph-name="wdieresis" unicode="&#x1e85;" horiz-adv-x="749" 
d="M693 526h50q-44 -102 -117 -299l-89 -239h-8l-153 428l-153 -428h-8l-209 538h68l168 -433l154 433h7l155 -430l51 139q72 193 84 291zM297 624l-50 49l50 49l48 -49zM474 624l-49 49l49 49l49 -49z" />
    <glyph glyph-name="uni1E9E" unicode="&#x1e9e;" horiz-adv-x="663" 
d="M642 195q0 -87 -66 -145t-172 -58q-92 0 -158 40l14 45q58 -69 149 -69q71 0 114.5 48.5t43.5 126.5q0 85 -56 135.5t-160 57.5l-28 2l167 300q-82 45 -164 45q-94 0 -141 -59.5t-47 -168.5v-495h-68v491q0 115 69 182t187 67q117 0 235 -67l-156 -280
q112 -10 174.5 -62.5t62.5 -135.5z" />
    <glyph glyph-name="Ygrave" unicode="&#x1ef2;" horiz-adv-x="566" 
d="M379 431l-61 -107v-324h-68v320l-237 408h79l217 -381l53 93q108 188 140 288h51q-85 -142 -174 -297zM306 802l-168 160h98l77 -155z" />
    <glyph glyph-name="ygrave" unicode="&#x1ef3;" horiz-adv-x="472" 
d="M419 526h48q-27 -59 -54 -127l-41 -99l-27 -68l-129 -317q-61 -149 -208 -149l4 48q18 -5 42 -5q44 0 83 27.5t60 79.5l34 86l-227 524h68l192 -442l64 155q79 194 91 287zM252 606l-157 170h85l79 -165z" />
    <glyph glyph-name="uni200B" unicode="&#x200b;" 
 />
    <glyph glyph-name="endash" unicode="&#x2013;" horiz-adv-x="477" 
d="M44 295v18h390v-18h-390z" />
    <glyph glyph-name="emdash" unicode="&#x2014;" horiz-adv-x="767" 
d="M44 295v18h680v-18h-680z" />
    <glyph glyph-name="uni2015" unicode="&#x2015;" horiz-adv-x="767" 
d="M44 295v18h680v-18h-680z" />
    <glyph glyph-name="quoteleft" unicode="&#x2018;" horiz-adv-x="172" 
d="M128 740l5 -7q-54 -36 -54 -85q0 -52 65 -96l-45 -49q-68 31 -68 101q0 40 26 76.5t71 59.5z" />
    <glyph glyph-name="quoteright" unicode="&#x2019;" horiz-adv-x="176" 
d="M50 503l-5 7q54 36 54 84q0 53 -65 96l45 50q69 -33 69 -102q0 -39 -26.5 -75.5t-71.5 -59.5z" />
    <glyph glyph-name="quotesinglbase" unicode="&#x201a;" horiz-adv-x="176" 
d="M49 -142l-5 7q54 36 54 84q0 53 -65 96l45 50q69 -33 69 -102q0 -39 -26.5 -75.5t-71.5 -59.5z" />
    <glyph glyph-name="quotedblleft" unicode="&#x201c;" horiz-adv-x="338" 
d="M128 740l5 -7q-54 -36 -54 -85q0 -52 65 -96l-45 -49q-68 31 -68 101q0 40 26 76.5t71 59.5zM295 740l5 -7q-54 -36 -54 -85q0 -52 65 -96l-45 -49q-69 33 -69 101q0 39 26.5 76t71.5 60z" />
    <glyph glyph-name="quotedblright" unicode="&#x201d;" horiz-adv-x="343" 
d="M216 503l-5 7q54 36 54 84q0 53 -65 96l45 50q69 -33 69 -102q0 -39 -26.5 -75.5t-71.5 -59.5zM50 503l-5 7q54 36 54 84q0 53 -65 96l45 50q69 -33 69 -102q0 -39 -26.5 -75.5t-71.5 -59.5z" />
    <glyph glyph-name="quotedblbase" unicode="&#x201e;" horiz-adv-x="343" 
d="M49 -142l-5 7q54 36 54 84q0 53 -65 96l45 50q69 -33 69 -102q0 -39 -26.5 -75.5t-71.5 -59.5zM216 -142l-5 7q54 36 54 84q0 53 -65 96l45 50q69 -33 69 -102q0 -39 -26.5 -75.5t-71.5 -59.5z" />
    <glyph glyph-name="dagger" unicode="&#x2020;" horiz-adv-x="449" 
d="M426 513v-54l-196 21l18 -203v-427l-24 -36l-24 36v427l18 203l-196 -21v54l197 -21l-22 248h54l-22 -248z" />
    <glyph glyph-name="daggerdbl" unicode="&#x2021;" horiz-adv-x="480" 
d="M442 513v-54l-196 21l21 -203l-21 -203l196 21v-54l-197 21l22 -248h-54l22 248l-197 -21v54l196 -21l-21 203l21 203l-196 -21v54l197 -21l-22 248h54l-22 -248z" />
    <glyph glyph-name="bullet" unicode="&#x2022;" horiz-adv-x="310" 
d="M155 206l-90 90l90 90l91 -90z" />
    <glyph glyph-name="ellipsis" unicode="&#x2026;" horiz-adv-x="475" 
d="M84 -20l-57 56l57 57l57 -57zM238 -20l-57 56l57 57l57 -57zM392 -20l-57 56l57 57l57 -57z" />
    <glyph glyph-name="perthousand" unicode="&#x2030;" horiz-adv-x="1114" 
d="M27 555q0 81 45 130t117 49q70 0 114.5 -48.5t44.5 -126.5q0 -80 -44.5 -129.5t-115.5 -49.5t-116 48t-45 127zM149 0l440 728h22l-440 -728h-22zM303 555q0 77 -31.5 122t-84.5 45t-84 -43.5t-31 -119.5q0 -77 32 -122t86 -45q53 0 83 43.5t30 119.5zM413 169
q0 80 44.5 129.5t115.5 49.5q72 0 116 -47.5t44 -127.5q0 -81 -44.5 -130t-116.5 -49q-70 0 -114.5 48.5t-44.5 126.5zM767 169q0 81 44.5 130t116.5 49q71 0 115.5 -48t44.5 -127q0 -81 -44.5 -130t-116.5 -49q-70 0 -115 48.5t-45 126.5zM689 169q0 77 -32 122t-86 45
q-53 0 -83.5 -43.5t-30.5 -119.5q0 -77 32 -122t85 -45t84 43.5t31 119.5zM1043 169q0 77 -31.5 122t-85.5 45q-53 0 -83.5 -43.5t-30.5 -119.5q0 -77 31.5 -122t85.5 -45q53 0 83.5 43.5t30.5 119.5z" />
    <glyph glyph-name="minute" unicode="&#x2032;" horiz-adv-x="158" 
d="M40 452l41 288h64l-95 -288h-10z" />
    <glyph glyph-name="second" unicode="&#x2033;" horiz-adv-x="291" 
d="M40 452l41 288h64l-95 -288h-10zM173 452l41 288h64l-95 -288h-10z" />
    <glyph glyph-name="guilsinglleft" unicode="&#x2039;" horiz-adv-x="276" 
d="M238 504l-135 -240l135 -240h-12l-194 240l194 240h12z" />
    <glyph glyph-name="guilsinglright" unicode="&#x203a;" horiz-adv-x="276" 
d="M50 504l194 -240l-194 -240h-12l135 240l-135 240h12z" />
    <glyph glyph-name="fraction" unicode="&#x2044;" horiz-adv-x="100" 
d="M-182 0l440 728h23l-440 -728h-23z" />
    <glyph glyph-name="uni2070" unicode="&#x2070;" horiz-adv-x="383" 
d="M32 517q0 98 44 157q43 60 116 60q72 0 115.5 -57.5t43.5 -154.5q0 -98 -44 -157t-116 -59t-115.5 57.5t-43.5 153.5zM301 518q0 96 -29 150t-82 54q-51 0 -79.5 -53t-28.5 -146q0 -95 29.5 -150.5t81.5 -55.5q51 0 79.5 53.5t28.5 147.5z" />
    <glyph glyph-name="uni2074" unicode="&#x2074;" horiz-adv-x="322" 
d="M304 461l-8 -31h-59v-118h-42v118h-185l-2 10l222 293h7v-272h67zM44 461h151v199z" />
    <glyph glyph-name="uni2075" unicode="&#x2075;" horiz-adv-x="295" 
d="M266 439q0 -57 -41 -95t-102 -38q-46 0 -101 26l8 27q40 -40 95 -40q44 0 72.5 30.5t28.5 77.5q0 54 -40.5 84t-115.5 30h-24l17 187h195l-11 -34h-170l-10 -114h15q87 0 135.5 -37.5t48.5 -103.5z" />
    <glyph glyph-name="uni2076" unicode="&#x2076;" horiz-adv-x="324" 
d="M31 472q0 93 55 163q56 72 147 99l3 -10q-72 -25 -114 -93.5t-42 -159.5q0 -72 25 -113t68 -41q38 0 59.5 30t21.5 83q0 54 -22.5 84t-61.5 30q-34 0 -62 -23l-7 8q37 34 83 34q51 0 85 -35.5t34 -89.5q0 -57 -38 -94.5t-95 -37.5q-63 0 -101 45t-38 121z" />
    <glyph glyph-name="uni2077" unicode="&#x2077;" horiz-adv-x="280" 
d="M20 728h253v-4l-151 -412h-45l171 383h-65q-115 0 -174 -13z" />
    <glyph glyph-name="uni2078" unicode="&#x2078;" horiz-adv-x="328" 
d="M297 421q0 -49 -40 -82q-39 -33 -98 -33q-53 0 -91 28t-38 73q0 81 95 116q-75 41 -75 104q0 46 33.5 76.5t84.5 30.5q47 0 79.5 -26.5t32.5 -65.5q0 -70 -83 -106q100 -43 100 -115zM166 550l16 -7q59 35 59 96q0 36 -21.5 59.5t-55.5 23.5q-35 0 -56.5 -23t-21.5 -59
q0 -30 19 -51t61 -39zM260 408q0 56 -86 92l-27 12l-9 4q-68 -32 -68 -105q0 -40 28 -67t68 -27t67 26.5t27 64.5z" />
    <glyph glyph-name="uni2079" unicode="&#x2079;" horiz-adv-x="322" 
d="M90 306l-4 10q73 25 114.5 93t41.5 160q0 72 -24.5 112.5t-68.5 40.5q-38 0 -59.5 -30.5t-21.5 -82.5q0 -53 22.5 -83t61.5 -30q35 0 63 22l7 -8q-38 -33 -84 -33q-51 0 -84.5 35t-33.5 89q0 58 37.5 95.5t95.5 37.5q63 0 100.5 -45t37.5 -121q0 -93 -55 -164
q-56 -72 -146 -98z" />
    <glyph glyph-name="uni2080" unicode="&#x2080;" horiz-adv-x="383" 
d="M32 49q0 98 44 157q44 60 116 60t115.5 -57.5t43.5 -154.5q0 -98 -44 -157t-116 -59t-115.5 57.5t-43.5 153.5zM301 50q0 96 -29 150t-82 54q-51 0 -79.5 -53t-28.5 -146q0 -95 29.5 -150.5t81.5 -55.5q51 0 79.5 53.5t28.5 147.5z" />
    <glyph glyph-name="uni2081" unicode="&#x2081;" horiz-adv-x="182" 
d="M124 266h4v-422h-43v351q-24 -14 -72 -32v10q28 12 59 38t52 55z" />
    <glyph glyph-name="uni2082" unicode="&#x2082;" horiz-adv-x="310" 
d="M285 -113l-12 -43h-250v3l33 35q93 96 130 157q39 61 39 111q0 41 -22.5 65.5t-58.5 24.5q-70 0 -108 -75l-11 5q43 96 131 96q52 0 84.5 -30.5t32.5 -80.5q0 -47 -45 -109q-45 -61 -157 -166l-4 -4h38q100 0 180 11z" />
    <glyph glyph-name="uni2083" unicode="&#x2083;" horiz-adv-x="305" 
d="M25 -135l9 30q45 -45 96 -45q47 0 75 29.5t28 72.5q0 42 -28 69t-73 31l-23 1l-3 10l22 7q86 32 86 102q0 32 -20 51t-52 19q-59 0 -99 -53l-11 5q50 72 122 72q46 0 75.5 -24.5t29.5 -62.5q0 -32 -24 -59t-61 -42v-2q44 -9 72 -40t28 -74q0 -54 -40 -89t-102 -35
q-52 0 -107 27z" />
    <glyph glyph-name="uni2084" unicode="&#x2084;" horiz-adv-x="322" 
d="M305 -7l-8 -31h-59v-118h-42v118h-185l-2 10l222 293h7v-272h67zM45 -7h151v199z" />
    <glyph glyph-name="uni2085" unicode="&#x2085;" horiz-adv-x="295" 
d="M266 -29q0 -57 -41 -95t-102 -38q-46 0 -101 26l8 27q40 -40 95 -40q44 0 72.5 30.5t28.5 77.5q0 54 -40.5 84t-115.5 30h-24l17 187h195l-11 -34h-170l-10 -114h15q87 0 135.5 -37.5t48.5 -103.5z" />
    <glyph glyph-name="uni2086" unicode="&#x2086;" horiz-adv-x="324" 
d="M31 4q0 93 55 163q56 72 147 99l3 -10q-72 -25 -114 -93.5t-42 -159.5q0 -72 25 -113t68 -41q38 0 59.5 30t21.5 83q0 54 -22.5 84t-61.5 30q-34 0 -62 -23l-7 8q37 34 83 34q51 0 85 -35.5t34 -89.5q0 -57 -38 -94.5t-95 -37.5q-63 0 -101 45t-38 121z" />
    <glyph glyph-name="uni2087" unicode="&#x2087;" horiz-adv-x="280" 
d="M21 260h253v-4l-151 -412h-45l171 383h-65q-115 0 -174 -13z" />
    <glyph glyph-name="uni2088" unicode="&#x2088;" horiz-adv-x="328" 
d="M297 -47q0 -49 -40 -82q-39 -33 -98 -33q-53 0 -91 28t-38 73q0 81 95 116q-75 41 -75 104q0 46 33.5 76.5t84.5 30.5q47 0 79.5 -26.5t32.5 -65.5q0 -70 -83 -106q100 -43 100 -115zM166 82l16 -7q59 35 59 96q0 36 -21.5 59.5t-55.5 23.5q-35 0 -56.5 -23t-21.5 -59
q0 -30 19 -51t61 -39zM260 -60q0 56 -86 92l-27 12l-9 4q-68 -32 -68 -105q0 -40 28 -67t68 -27t67 26.5t27 64.5z" />
    <glyph glyph-name="uni2089" unicode="&#x2089;" horiz-adv-x="322" 
d="M90 -162l-4 10q73 25 114.5 93t41.5 160q0 72 -24.5 112.5t-68.5 40.5q-38 0 -59.5 -30.5t-21.5 -82.5q0 -53 22.5 -83t61.5 -30q35 0 63 22l7 -8q-38 -33 -84 -33q-51 0 -84.5 35t-33.5 89q0 58 37.5 95.5t95.5 37.5q63 0 100.5 -45t37.5 -121q0 -93 -55 -163
q-56 -72 -146 -99z" />
    <glyph glyph-name="Euro" unicode="&#x20ac;" horiz-adv-x="664" 
d="M627 106l10 -11q-93 -107 -229 -107q-124 0 -211 84t-103 226h-65v18h63q-2 38 -2 43q0 28 3 55h-64v18h66q19 140 109.5 224t220.5 84q123 0 207 -78l-32 -32q-77 94 -181 94q-100 0 -169.5 -81t-81.5 -211h278l-5 -18h-275q-1 -8 -1 -36q0 -32 3 -62h241l-6 -18h-232
q18 -125 90.5 -200t172.5 -75q114 0 193 83z" />
    <glyph glyph-name="uni2113" unicode="&#x2113;" horiz-adv-x="354" 
d="M318 80l13 -8q-61 -84 -129 -84q-55 0 -85.5 44t-30.5 122v56q-33 -22 -56 -34l-8 14q27 15 64 39v265q0 246 117 246q53 0 86 -47t33 -127q0 -182 -188 -323v-103q0 -133 75 -133q55 0 109 73zM134 508v-245q144 117 144 303q0 76 -20.5 118t-54.5 42q-45 0 -57 -60
t-12 -158z" />
    <glyph glyph-name="uni2116" unicode="&#x2116;" horiz-adv-x="1054" 
d="M530 728h47q-14 -117 -14 -318v-422h-7l-453 653v-323q0 -207 13 -318h-46q13 100 13 318v352l-38 55v3h81l417 -606v288q0 218 -13 318zM645 471q0 85 54.5 140.5t137.5 55.5t134.5 -53.5t51.5 -138.5t-54 -140t-137 -55t-135 53t-52 138zM699 475q0 -78 38.5 -129.5
t97.5 -51.5t97 50q37 49 37 127q0 79 -38.5 130.5t-97.5 51.5q-60 0 -97 -50t-37 -128zM685 180v18h300v-18h-300z" />
    <glyph glyph-name="uni2117" unicode="&#x2117;" horiz-adv-x="627" 
d="M585 469q2 -109 -80 -190.5t-191 -79.5q-110 -2 -192 79.5t-80 190.5q-2 108 80 190.5t192 80.5q109 2 191 -80.5t80 -190.5zM563 471q2 101 -73.5 177t-175.5 74q-101 2 -176.5 -74t-73.5 -177q-2 -101 73.5 -177.5t176.5 -74.5q100 -2 175.5 74.5t73.5 177.5zM445 541
q0 -46 -35.5 -74.5t-93.5 -28.5q-22 0 -35 3v-139h-29v331h64q62 0 95.5 -23.5t33.5 -68.5zM413 535q0 41 -25.5 63t-71.5 22h-35v-165q14 -3 34 -3q47 0 72.5 21.5t25.5 61.5z" />
    <glyph glyph-name="trademark" unicode="&#x2122;" horiz-adv-x="761" 
d="M30 728h274l8 -26q-47 7 -62 8q-21 3 -55 3h-12v-359h-32v359h-12q-33 0 -56 -3q-14 -1 -61 -8zM698 354h-33l-27 300l-128 -275h-4l-136 273l-11 -135q-8 -120 -8 -163h-25q5 32 17 162l18 212h8l147 -298l138 298h8z" />
    <glyph glyph-name="uni2126" unicode="&#x2126;" horiz-adv-x="779" 
d="M747 58l-18 -58h-287v26q116 85 171 176t55 199q0 142 -77 232.5t-202 90.5q-126 0 -202.5 -88.5t-76.5 -230.5q0 -105 54.5 -197t171.5 -182v-26h-287l-18 58q88 -20 201 -20h60q-125 100 -183 182q-57 82 -57 181q-2 145 95.5 243t241.5 96q152 0 244.5 -92.5
t92.5 -242.5q0 -99 -58 -184q-60 -86 -182 -183h60q113 0 201 20z" />
    <glyph glyph-name="estimated" unicode="&#x212e;" horiz-adv-x="790" 
d="M709 200l16 -8q-49 -97 -134.5 -151.5t-189.5 -54.5q-98 -2 -182 50t-131 140t-46 188q-2 151 105 262t254 108q150 3 256.5 -110t103.5 -270h-591v-229q0 -30 25 -49q94 -70 206 -70q99 0 180.5 51.5t127.5 142.5zM170 591v-217h462v217q0 33 -25 53q-92 70 -206 70
t-206 -70q-25 -19 -25 -53z" />
    <glyph glyph-name="oneeighth" unicode="&#x215b;" horiz-adv-x="680" 
d="M139 734h4v-422h-43v351q-24 -14 -72 -32v10q28 12 59 38t52 55zM68 0l440 728h23l-440 -728h-23zM649 109q0 -49 -40 -82q-39 -33 -98 -33q-53 0 -91 28t-38 73q0 81 95 116q-75 41 -75 104q0 46 33.5 76.5t84.5 30.5q47 0 79.5 -26.5t32.5 -65.5q0 -70 -83 -106
q100 -43 100 -115zM518 238l16 -7q59 35 59 96q0 36 -21.5 59.5t-55.5 23.5q-35 0 -56.5 -23t-21.5 -59q0 -30 19 -51t61 -39zM612 96q0 56 -86 92l-27 12l-9 4q-68 -32 -68 -105q0 -40 28 -67t68 -27t67 26.5t27 64.5z" />
    <glyph glyph-name="threeeighths" unicode="&#x215c;" horiz-adv-x="740" 
d="M28 333l9 30q45 -45 96 -45q47 0 75 29.5t28 72.5q0 42 -28 69t-73 31l-23 1l-3 10l22 7q86 32 86 102q0 32 -20 51t-52 19q-59 0 -99 -53l-11 5q49 72 122 72q46 0 75.5 -24.5t29.5 -62.5q0 -32 -24 -59t-61 -42v-2q44 -9 72 -40t28 -74q0 -54 -40 -89t-102 -35
q-51 0 -107 27zM129 0l440 728h23l-440 -728h-23zM711 109q0 -49 -40 -82q-39 -33 -98 -33q-53 0 -91 28t-38 73q0 81 95 116q-75 41 -75 104q0 46 33.5 76.5t84.5 30.5q47 0 79.5 -26.5t32.5 -65.5q0 -70 -83 -106q100 -43 100 -115zM580 238l16 -7q59 35 59 96
q0 36 -21.5 59.5t-55.5 23.5q-35 0 -56.5 -23t-21.5 -59q0 -30 19 -51t61 -39zM674 96q0 56 -86 92l-27 12l-9 4q-68 -32 -68 -105q0 -40 28 -67t68 -27t67 26.5t27 64.5z" />
    <glyph glyph-name="fiveeighths" unicode="&#x215d;" horiz-adv-x="741" 
d="M272 439q0 -57 -41 -95t-102 -38q-46 0 -101 26l8 27q40 -40 95 -40q44 0 72.5 30.5t28.5 77.5q0 54 -40.5 84t-115.5 30h-24l17 187h195l-11 -34h-170l-10 -114h15q87 0 135.5 -37.5t48.5 -103.5zM130 0l440 728h23l-440 -728h-23zM711 109q0 -49 -40 -82
q-39 -33 -98 -33q-53 0 -91 28t-38 73q0 81 95 116q-75 41 -75 104q0 46 33.5 76.5t84.5 30.5q47 0 79.5 -26.5t32.5 -65.5q0 -70 -83 -106q100 -43 100 -115zM580 238l16 -7q59 35 59 96q0 36 -21.5 59.5t-55.5 23.5q-35 0 -56.5 -23t-21.5 -59q0 -30 19 -51t61 -39z
M674 96q0 56 -86 92l-27 12l-9 4q-68 -32 -68 -105q0 -40 28 -67t68 -27t67 26.5t27 64.5z" />
    <glyph glyph-name="seveneighths" unicode="&#x215e;" horiz-adv-x="749" 
d="M34 728h253v-4l-151 -412h-45l171 383h-65q-115 0 -174 -13zM130 0l440 728h23l-440 -728h-23zM711 109q0 -49 -40 -82q-39 -33 -98 -33q-53 0 -91 28t-38 73q0 81 95 116q-75 41 -75 104q0 46 33.5 76.5t84.5 30.5q47 0 79.5 -26.5t32.5 -65.5q0 -70 -83 -106
q100 -43 100 -115zM580 238l16 -7q59 35 59 96q0 36 -21.5 59.5t-55.5 23.5q-35 0 -56.5 -23t-21.5 -59q0 -30 19 -51t61 -39zM674 96q0 56 -86 92l-27 12l-9 4q-68 -32 -68 -105q0 -40 28 -67t68 -27t67 26.5t27 64.5z" />
    <glyph glyph-name="arrowleft" unicode="&#x2190;" horiz-adv-x="826" 
d="M788 364q2 -100 -49 -187.5t-138.5 -139t-187.5 -49.5q-153 -3 -265.5 110t-109.5 266q-3 153 109.5 266t265.5 110q100 2 187.5 -49.5t138.5 -139t49 -187.5zM766 364q3 146 -103 253.5t-250 104.5q-144 3 -250 -104.5t-103 -253.5q-3 -146 103 -253.5t250 -104.5
q144 -3 250 104.5t103 253.5zM651 265q0 -8 -1 -10h-127q-5 22 -24 53q-20 34 -34 48h-136q53 -80 75 -191l-9 -4q-40 52 -112 112q-71 61 -130 91q57 29 130 90q73 62 112 113l9 -4q-22 -111 -75 -191h136q13 13 34 47q19 33 24 54h127q4 -26 -16 -60q-20 -33 -47 -49
q26 -14 45 -43.5t19 -55.5zM576 457h-41q-20 -49 -49 -85h34q17 13 33.5 38t22.5 47zM634 457h-41q-12 -50 -51 -85h28q22 10 41.5 35.5t22.5 49.5zM520 356h-34q29 -36 49 -85h41q-6 22 -22.5 47t-33.5 38zM570 356h-28q39 -35 51 -85h41q-3 24 -22.5 49.5t-41.5 35.5z" />
    <glyph glyph-name="arrowup" unicode="&#x2191;" horiz-adv-x="826" 
d="M788 364q2 -100 -49 -187.5t-138.5 -139t-187.5 -49.5q-153 -3 -265.5 110t-109.5 266q-3 153 109.5 266t265.5 110q100 2 187.5 -49.5t138.5 -139t49 -187.5zM766 364q3 146 -103 253.5t-250 104.5q-144 3 -250 -104.5t-103 -253.5q-3 -146 103 -253.5t250 -104.5
q144 -3 250 104.5t103 253.5zM616 383l-4 -9q-111 22 -191 75v-136q13 -13 47 -34q33 -19 54 -24v-127q-2 -1 -10 -1q-26 0 -55.5 19t-43.5 45q-17 -29 -49 -48q-33 -19 -60 -15v127q22 5 53 24q34 20 48 34v136q-80 -53 -191 -75l-4 9q52 40 112 112q61 71 91 130
q29 -57 90 -130q62 -73 113 -112zM405 258v34q-36 -29 -85 -49v-41q22 6 47 22.5t38 33.5zM506 202v41q-49 20 -85 49v-34q13 -17 38 -33.5t47 -22.5zM405 208v28q-35 -39 -85 -51v-41q24 3 49.5 22.5t35.5 41.5zM506 144v41q-50 12 -85 51v-28q10 -22 35.5 -41.5
t49.5 -22.5z" />
    <glyph glyph-name="arrowright" unicode="&#x2192;" horiz-adv-x="826" 
d="M788 364q2 -100 -49 -187.5t-138.5 -139t-187.5 -49.5q-153 -3 -265.5 110t-109.5 266q-3 153 109.5 266t265.5 110q100 2 187.5 -49.5t138.5 -139t49 -187.5zM766 364q3 146 -103 253.5t-250 104.5q-144 3 -250 -104.5t-103 -253.5q-3 -146 103 -253.5t250 -104.5
q144 -3 250 104.5t103 253.5zM673 364q-59 -30 -130 -91q-72 -60 -112 -112l-9 4q22 111 75 191h-136q-14 -14 -34 -48q-19 -31 -24 -53h-127q-1 2 -1 10q0 26 19 55.5t45 43.5q-29 17 -48 49q-19 33 -15 60h127q5 -21 24 -54q21 -34 34 -47h136q-53 80 -75 191l9 4
q39 -51 112 -113q73 -61 130 -90zM256 372h28q-39 35 -51 85h-41q3 -24 22.5 -49.5t41.5 -35.5zM306 372h34q-29 36 -49 85h-41q6 -22 22.5 -47t33.5 -38zM192 271h41q12 50 51 85h-28q-22 -10 -41.5 -35.5t-22.5 -49.5zM250 271h41q20 49 49 85h-34q-17 -13 -33.5 -38
t-22.5 -47z" />
    <glyph glyph-name="arrowdown" unicode="&#x2193;" horiz-adv-x="826" 
d="M788 364q2 -100 -49 -187.5t-138.5 -139t-187.5 -49.5q-153 -3 -265.5 110t-109.5 266q-3 153 109.5 266t265.5 110q100 2 187.5 -49.5t138.5 -139t49 -187.5zM766 364q3 146 -103 253.5t-250 104.5q-144 3 -250 -104.5t-103 -253.5q-3 -146 103 -253.5t250 -104.5
q144 -3 250 104.5t103 253.5zM612 354l4 -9q-51 -39 -113 -112q-61 -73 -90 -130q-30 59 -91 130q-60 72 -112 112l4 9q111 -22 191 -75v136q-14 14 -48 34q-31 19 -53 24v127q26 4 60 -16q33 -20 49 -47q14 26 43.5 45t55.5 19q8 0 10 -1v-127q-21 -5 -54 -24
q-34 -21 -47 -34v-136q80 53 191 75zM320 584v-41q50 -12 85 -51v28q-10 22 -35.5 41.5t-49.5 22.5zM421 520v-28q35 39 85 51v41q-24 -3 -49.5 -22.5t-35.5 -41.5zM320 526v-41q49 -20 85 -49v34q-13 17 -38 33.5t-47 22.5zM421 470v-34q36 29 85 49v41q-22 -6 -47 -22.5
t-38 -33.5z" />
    <glyph glyph-name="uni2196" unicode="&#x2196;" horiz-adv-x="826" 
d="M788 364q2 -100 -49 -187.5t-138.5 -139t-187.5 -49.5q-153 -3 -265.5 110t-109.5 266q-3 153 109.5 266t265.5 110q100 2 187.5 -49.5t138.5 -139t49 -187.5zM766 364q3 146 -103 253.5t-250 104.5q-144 3 -250 -104.5t-103 -253.5q-3 -146 103 -253.5t250 -104.5
q144 -3 250 104.5t103 253.5zM568 363l90 -90q-25 -36 -91 -36q-17 0 -30 3q3 -14 3 -30q0 -66 -36 -91l-90 90q12 22 20 55q10 34 10 58l-97 96q-17 -94 -81 -188l-9 3q4 25 4 72q0 145 -32 243q98 -32 243 -32q47 0 72 4l3 -9q-94 -64 -188 -81l96 -97q22 0 58 9
q35 10 55 21zM508 293q47 0 86 22l-28 28q-49 -20 -96 -25l24 -24q3 -1 14 -1zM434 211l28 -28q22 39 22 86q0 11 -1 14l-24 24q-5 -47 -25 -96zM564 253q43 0 71 20l-29 30q-45 -29 -97 -24l21 -21q15 -5 34 -5zM524 213q0 21 -5 34l-21 21q5 -52 -24 -97l30 -29
q20 28 20 71z" />
    <glyph glyph-name="uni2197" unicode="&#x2197;" horiz-adv-x="826" 
d="M788 364q2 -100 -49 -187.5t-138.5 -139t-187.5 -49.5q-153 -3 -265.5 110t-109.5 266q-3 153 109.5 266t265.5 110q100 2 187.5 -49.5t138.5 -139t49 -187.5zM766 364q3 146 -103 253.5t-250 104.5q-144 3 -250 -104.5t-103 -253.5q-3 -146 103 -253.5t250 -104.5
q144 -3 250 104.5t103 253.5zM354 516q145 0 243 32q-32 -98 -32 -243q0 -47 4 -72l-9 -3q-64 94 -81 188l-97 -96q0 -22 9 -58q10 -35 21 -55l-90 -90q-36 25 -36 91q0 16 3 30q-13 -3 -30 -3q-66 0 -91 36l90 90q20 -11 55 -21q36 -9 58 -9l96 97q-94 17 -188 81l3 9
q25 -4 72 -4zM332 294l24 24q-47 5 -96 25l-28 -28q39 -22 86 -22q11 0 14 1zM367 307l-24 -24q-1 -3 -1 -14q0 -47 22 -86l28 28q-20 49 -25 96zM262 253q21 0 34 5l21 21q-52 -5 -97 24l-29 -30q28 -20 71 -20zM302 213q0 -43 20 -71l30 29q-29 45 -24 97l-21 -21
q-5 -13 -5 -34z" />
    <glyph glyph-name="uni2198" unicode="&#x2198;" horiz-adv-x="826" 
d="M788 364q2 -100 -49 -187.5t-138.5 -139t-187.5 -49.5q-153 -3 -265.5 110t-109.5 266q-3 153 109.5 266t265.5 110q100 2 187.5 -49.5t138.5 -139t49 -187.5zM766 364q3 146 -103 253.5t-250 104.5q-144 3 -250 -104.5t-103 -253.5q-3 -146 103 -253.5t250 -104.5
q144 -3 250 104.5t103 253.5zM565 423q0 -145 32 -243q-98 32 -243 32q-47 0 -72 -4l-3 9q94 64 188 81l-96 97q-24 0 -58 -10q-33 -8 -55 -20l-90 90q25 36 91 36q17 0 30 -3q-3 14 -3 30q0 66 36 91l90 -90q-11 -20 -21 -55q-9 -36 -9 -58l97 -96q17 94 81 188l9 -3
q-4 -25 -4 -72zM302 515q0 -19 5 -34l21 -21q-5 52 24 97l-30 29q-20 -28 -20 -71zM392 517l-28 28q-22 -39 -22 -86q0 -11 1 -14l24 -24q5 47 25 96zM262 475q-43 0 -71 -20l29 -30q45 29 97 24l-21 21q-15 5 -34 5zM318 435q-47 0 -86 -22l28 -28q49 20 96 25l-24 24
q-3 1 -14 1z" />
    <glyph glyph-name="uni2199" unicode="&#x2199;" horiz-adv-x="826" 
d="M788 364q2 -100 -49 -187.5t-138.5 -139t-187.5 -49.5q-153 -3 -265.5 110t-109.5 266q-3 153 109.5 266t265.5 110q100 2 187.5 -49.5t138.5 -139t49 -187.5zM766 364q3 146 -103 253.5t-250 104.5q-144 3 -250 -104.5t-103 -253.5q-3 -146 103 -253.5t250 -104.5
q144 -3 250 104.5t103 253.5zM567 491q66 0 91 -36l-90 -90q-22 12 -55 20q-34 10 -58 10l-96 -97q94 -17 188 -81l-3 -9q-25 4 -72 4q-145 0 -243 -32q32 98 32 243q0 47 -4 72l9 3q64 -94 81 -188l97 96q0 24 -10 58q-8 33 -20 55l90 90q36 -25 36 -91q0 -16 -3 -30
q13 3 30 3zM524 515q0 43 -20 71l-30 -29q29 -45 24 -97l21 21q5 15 5 34zM459 421l24 24q1 3 1 14q0 47 -22 86l-28 -28q20 -49 25 -96zM564 475q-19 0 -34 -5l-21 -21q52 5 97 -24l29 30q-28 20 -71 20zM494 434l-24 -24q47 -5 96 -25l28 28q-39 22 -86 22q-11 0 -14 -1z
" />
    <glyph glyph-name="partialdiff" unicode="&#x2202;" horiz-adv-x="529" 
d="M485 418q2 -188 -75.5 -310.5t-197.5 -119.5q-84 0 -135.5 56t-51.5 148q0 103 64 168t164 65t175 -82q3 35 3 73q0 142 -41.5 220t-119.5 78q-44 0 -92 -24t-79 -62l-12 12q82 100 194 100q98 0 151 -83.5t53 -238.5zM426 317q-71 88 -167 88q-84 0 -132 -54.5
t-48 -148.5q0 -87 40 -143.5t102 -56.5q75 0 131.5 87.5t73.5 227.5z" />
    <glyph glyph-name="uni2206" unicode="&#x2206;" horiz-adv-x="617" 
d="M311 740l287 -740h-578l287 740h4zM534 18l-243 631l-245 -631h488z" />
    <glyph glyph-name="product" unicode="&#x220f;" horiz-adv-x="653" 
d="M518 708v-768h-52v770h-64h-150h-64v-770h-52v768q-29 -1 -110 -10l12 30h578l12 -30q-81 9 -110 10z" />
    <glyph glyph-name="summation" unicode="&#x2211;" horiz-adv-x="543" 
d="M517 -22h2l-16 -38h-479v4l239 396l-231 384v4h459l12 -38h-2q-77 10 -147 15q-78 5 -165 5h-89l225 -369l-233 -383h104q186 0 321 20z" />
    <glyph glyph-name="minus" unicode="&#x2212;" horiz-adv-x="508" 
d="M50 354v20h408v-20h-408z" />
    <glyph glyph-name="uni2215" unicode="&#x2215;" horiz-adv-x="414" 
d="M-25 0l440 728h23l-440 -728h-23z" />
    <glyph glyph-name="uni2219" unicode="&#x2219;" horiz-adv-x="305" 
d="M153 226l-57 56l57 57l57 -57z" />
    <glyph glyph-name="radical" unicode="&#x221a;" horiz-adv-x="530" 
d="M518 713l20 -6l-271 -719h-4l-187 409h-82v16h120l160 -349z" />
    <glyph glyph-name="infinity" unicode="&#x221e;" horiz-adv-x="824" 
d="M785 355q0 -63 -46 -109t-110 -46q-65 0 -115 32t-102 99q-52 -67 -102 -99t-115 -32q-64 0 -110 46t-46 109t46 109t110 46q65 0 115 -32t102 -99q52 67 102 99t115 32q64 0 110 -46t46 -109zM394 356q-57 74 -96.5 103t-102.5 31q-53 0 -91.5 -39.5t-38.5 -95.5
t38.5 -95.5t91.5 -39.5q42 0 76 17q32 16 58 42t65 77zM759 355q0 56 -38.5 95.5t-91.5 39.5q-41 0 -77 -17q-31 -16 -57.5 -42.5t-64.5 -76.5q57 -74 96.5 -103t102.5 -31q53 0 91.5 39.5t38.5 95.5z" />
    <glyph glyph-name="integral" unicode="&#x222b;" horiz-adv-x="437" 
d="M-31 -228v14q60 9 98.5 56t46.5 123l69 663q10 90 53 138t112 48q63 0 119 -35l-6 -12q-47 23 -99 23q-115 0 -132 -170l-68 -655q-8 -81 -58 -131t-135 -62z" />
    <glyph glyph-name="approxequal" unicode="&#x2248;" horiz-adv-x="508" 
d="M251 422q-59 29 -91 29q-55 0 -95 -31l-14 16q47 35 109 35q33 0 101 -31q61 -29 90 -29q55 0 95 31l14 -16q-47 -35 -109 -35q-36 0 -100 31zM251 279q-59 29 -91 29q-55 0 -95 -31l-14 16q47 35 109 35q33 0 101 -31q61 -29 90 -29q55 0 95 31l14 -16q-47 -35 -109 -35
q-36 0 -100 31z" />
    <glyph glyph-name="notequal" unicode="&#x2260;" horiz-adv-x="508" 
d="M458 426h-153l-77 -124h230v-20h-242l-82 -132l-18 12l74 120h-140v20h153l77 124h-230v20h242l82 132l18 -12l-74 -120h140v-20z" />
    <glyph glyph-name="lessequal" unicode="&#x2264;" horiz-adv-x="508" 
d="M455 544l-379 -180l379 -180l-10 -18l-398 189v18l398 189zM47 12v20h408v-20h-408z" />
    <glyph glyph-name="greaterequal" unicode="&#x2265;" horiz-adv-x="508" 
d="M63 562l398 -189v-18l-398 -189l-10 18l379 180l-379 180zM53 12v20h408v-20h-408z" />
    <glyph glyph-name="uni25B4" unicode="&#x25b4;" horiz-adv-x="328" 
d="M37 251l127 227l127 -227h-254z" />
    <glyph glyph-name="uni25B8" unicode="&#x25b8;" horiz-adv-x="327" 
d="M260 237l-227 127l227 128v-255z" />
    <glyph glyph-name="uni25BE" unicode="&#x25be;" horiz-adv-x="320" 
d="M160 251l-127 227h254z" />
    <glyph glyph-name="uni25C2" unicode="&#x25c2;" horiz-adv-x="327" 
d="M67 237v255l227 -128z" />
    <glyph glyph-name="lozenge" unicode="&#x25ca;" horiz-adv-x="507" 
d="M256 740l224 -370l-224 -370h-4l-224 370l224 370h4zM234 64l186 306l-186 306l-186 -306z" />
    <glyph glyph-name="uni2610" unicode="&#x2610;" horiz-adv-x="726" 
d="M64 596h598v-596h-598v596zM640 576h-554v-556h554v556z" />
    <glyph glyph-name="uni2611" unicode="&#x2611;" horiz-adv-x="726" 
d="M382 184q113 241 333 539l21 -13l-364 -590q-80 141 -168 246l36 25q83 -101 142 -207zM640 20v428l22 36v-484h-598v596h481l-12 -20h-447v-556h554z" />
    <glyph glyph-name="uni2612" unicode="&#x2612;" horiz-adv-x="726" 
d="M64 596h598v-596h-598v596zM640 576h-554v-556h554v556zM179 129l169 169l-169 169l15 15l169 -169l169 169l15 -15l-169 -169l169 -169l-15 -15l-169 169l-169 -169z" />
    <glyph glyph-name="uni2661" unicode="&#x2661;" horiz-adv-x="964" 
d="M932 365q0 -86 -42 -152q-40 -64 -98 -108t-141 -92q-135 -80 -164 -161l-13 -6q-11 45 -39.5 74t-125.5 89q-112 71 -155 104q-122 95 -122 233q0 116 72.5 193.5t178.5 77.5q67 0 121 -32t82 -85q33 53 88 84.5t122 31.5q102 0 169 -71t67 -180zM631 24l20 12
q64 38 112 75q117 91 117 239q0 106 -58 177.5t-143 71.5q-69 0 -124 -48q-53 -46 -70 -120l-9 -4q-17 71 -76 121.5t-130 50.5q-82 0 -134 -66.5t-52 -170.5q0 -85 34 -143q35 -60 83 -96q56 -42 139 -95q60 -37 90.5 -63t50.5 -59q41 52 150 118z" />
    <glyph glyph-name="heart" unicode="&#x2665;" horiz-adv-x="964" 
d="M932 365q0 -86 -42 -152q-40 -64 -98 -108t-141 -92q-135 -80 -164 -161l-13 -6q-11 45 -39.5 74t-125.5 89q-112 71 -155 104q-122 95 -122 233q0 116 72.5 193.5t178.5 77.5q68 0 122.5 -34t79.5 -90q32 57 87 90t124 33q102 0 169 -71t67 -180z" />
    <glyph glyph-name="uni2713" unicode="&#x2713;" horiz-adv-x="726" 
d="M715 723l21 -13l-364 -590q-80 141 -168 246l36 25q83 -101 142 -207q113 241 333 539z" />
    <glyph glyph-name="uni275B" unicode="&#x275b;" horiz-adv-x="290" 
d="M36 199q0 81 54.5 153.5t149.5 105.5l4 -10q-71 -26 -112 -83q-41 -58 -41 -119q0 -67 50 -114.5t119 -47.5v-84q-105 0 -164.5 57t-59.5 142z" />
    <glyph glyph-name="uni275C" unicode="&#x275c;" horiz-adv-x="287" 
d="M54 270l-4 10q71 26 112 83q42 59 42 119q0 67 -50 114.5t-120 47.5v84q106 0 165.5 -57t59.5 -142q0 -81 -54.5 -153.5t-150.5 -105.5z" />
    <glyph glyph-name="uni275D" unicode="&#x275d;" horiz-adv-x="523" 
d="M36 199q0 81 54.5 153.5t149.5 105.5l4 -10q-71 -26 -112 -83q-41 -58 -41 -119q0 -65 47 -112t114 -50v-84q-102 3 -159 59.5t-57 139.5zM269 199q0 81 54.5 153.5t149.5 105.5l4 -10q-71 -26 -112 -83q-41 -58 -41 -119q0 -67 50 -114.5t119 -47.5v-84
q-105 0 -164.5 57t-59.5 142z" />
    <glyph glyph-name="uni275E" unicode="&#x275e;" horiz-adv-x="520" 
d="M54 270l-4 10q71 26 112 83q42 59 42 119q0 67 -50 114.5t-120 47.5v84q106 0 165.5 -57t59.5 -142q0 -81 -54.5 -153.5t-150.5 -105.5zM287 270l-4 10q71 26 112 83q41 58 41 119q0 65 -46 112t-113 50v84q101 -3 157.5 -59.5t56.5 -139.5q0 -81 -54 -153.5t-150 -105.5
z" />
    <glyph glyph-name="uni2766" unicode="&#x2766;" horiz-adv-x="1027" 
d="M617 743q-78 -113 -97 -317q38 60 102 91q64 33 131 33q74 0 121.5 -39.5t47.5 -107.5q0 -44 -20 -86q-12 -26 -31 -52.5t-35.5 -45t-57.5 -60.5q-43 -43 -75 -80q-66 -77 -66 -154q0 -52 28 -80.5t74 -28.5q90 0 166 101l11 -4q-51 -76 -109 -113.5t-140 -37.5
q-134 0 -257 93t-198 233t-75 269q0 81 39 130t98 49q86 0 157 -97q-3 -26 -5 -79v-89q0 -93 28 -192q29 -100 75 -155q-61 120 -61 368q0 308 121 461q-109 40 -183 61q-69 20 -133 20q-82 0 -133.5 -34t-51.5 -90q0 -26 20 -63l-44 -16q-24 41 -24 87q0 66 57.5 108
t152.5 42q73 0 145 -22q83 -25 185 -64l25 -9q95 107 242 107q72 0 114 -24.5t42 -65.5q0 -43 -44.5 -71t-113.5 -28q-78 0 -228 52zM631 762q145 -55 218 -55q53 0 82.5 22.5t29.5 57.5q0 36 -33 56.5t-89 20.5q-125 0 -208 -102z" />
    <glyph glyph-name="uniFB00" unicode="&#xfb00;" horiz-adv-x="648" 
d="M474 623v-97h179l-13 -22h-166v-504h-63v504h-245v-504h-63v504h-84v22h84v95q0 92 42 139.5t120 47.5q73 0 143 -37l-7 -13q-57 23 -109 23q-126 0 -126 -164v-91h245v101q0 92 41.5 139.5t119.5 47.5q77 0 146 -39l-7 -12q-56 24 -111 24q-126 0 -126 -164z" />
    <glyph glyph-name="fi" unicode="&#xfb01;" horiz-adv-x="538" 
d="M447 526l24 9h4v-535h-63v504h-246v-504h-63v504h-84v22h84v101q0 92 41.5 139.5t119.5 47.5q50 0 105 -24l-4 -13q-34 10 -73 10q-126 0 -126 -164v-97h281zM497 686l-54 -53l-53 53l53 53z" />
    <glyph glyph-name="fl" unicode="&#xfb02;" horiz-adv-x="541" 
d="M474 810h4v-810h-63v763q-65 24 -123 24q-126 0 -126 -164v-97h180l-14 -22h-166v-504h-63v504h-84v22h84v101q0 92 42 139.5t120 47.5q74 0 151 -36z" />
    <glyph glyph-name="uniFB03" unicode="&#xfb03;" horiz-adv-x="846" 
d="M755 526l24 9h4v-535h-63v504h-246v-504h-63v504h-245v-504h-63v504h-84v22h84v95q0 92 42 139.5t120 47.5q73 0 143 -37l-7 -13q-57 23 -109 23q-126 0 -126 -164v-91h245v101q0 92 41.5 139.5t119.5 47.5q50 0 105 -24l-4 -13q-36 10 -73 10q-126 0 -126 -164v-97h281z
M805 686l-54 -53l-53 53l53 53z" />
    <glyph glyph-name="uniFEFF" unicode="&#xfeff;" 
 />
    <glyph glyph-name="NULL" 
 />
    <glyph glyph-name="i.latn_TRK" horiz-adv-x="189" 
d="M63 0v513l59 22h4v-535h-63zM94 624l-53 53l53 53l53 -53z" />
    <glyph glyph-name="Ldot.latn_CAT" horiz-adv-x="443" 
d="M414 50h2l-17 -50h-324v728h68v-710h23q118 0 248 32zM352 342l-57 56l57 57l57 -57z" />
    <glyph glyph-name="ldot.latn_CAT" horiz-adv-x="292" 
d="M63 0v787l59 23h4v-810h-63zM239 335l-57 56l57 57l57 -57z" />
    <glyph glyph-name="zero.numr" horiz-adv-x="383" 
d="M32 517q0 98 44 157q43 60 116 60q72 0 115.5 -57.5t43.5 -154.5q0 -98 -44 -157t-116 -59t-115.5 57.5t-43.5 153.5zM301 518q0 96 -29 150t-82 54q-51 0 -79.5 -53t-28.5 -146q0 -95 29.5 -150.5t81.5 -55.5q51 0 79.5 53.5t28.5 147.5z" />
    <glyph glyph-name="one.numr" horiz-adv-x="182" 
d="M124 734h4v-422h-43v351q-24 -14 -72 -32v10q28 12 59 38t52 55z" />
    <glyph glyph-name="two.numr" horiz-adv-x="310" 
d="M284 355l-12 -43h-250v3l33 35q93 96 130 157q39 61 39 111q0 41 -22.5 65.5t-58.5 24.5q-71 0 -108 -75l-11 5q44 96 131 96q52 0 84.5 -30.5t32.5 -80.5q0 -47 -45 -109q-45 -61 -157 -166l-4 -4h38q100 0 180 11z" />
    <glyph glyph-name="three.numr" horiz-adv-x="305" 
d="M24 333l9 30q45 -45 96 -45q47 0 75 29.5t28 72.5q0 42 -28 69t-73 31l-23 1l-3 10l22 7q86 32 86 102q0 32 -20 51t-52 19q-59 0 -99 -53l-11 5q50 72 122 72q46 0 75.5 -24.5t29.5 -62.5q0 -32 -24 -59t-61 -42v-2q44 -9 72 -40t28 -74q0 -54 -40 -89t-102 -35
q-51 0 -107 27z" />
    <glyph glyph-name="four.numr" horiz-adv-x="322" 
d="M304 461l-8 -31h-59v-118h-42v118h-185l-2 10l222 293h7v-272h67zM44 461h151v199z" />
    <glyph glyph-name="five.numr" horiz-adv-x="295" 
d="M266 439q0 -57 -41 -95t-102 -38q-46 0 -101 26l8 27q40 -40 95 -40q44 0 72.5 30.5t28.5 77.5q0 54 -40.5 84t-115.5 30h-24l17 187h195l-11 -34h-170l-10 -114h15q87 0 135.5 -37.5t48.5 -103.5z" />
    <glyph glyph-name="six.numr" horiz-adv-x="324" 
d="M31 472q0 93 55 163q56 72 147 99l3 -10q-72 -25 -114 -93.5t-42 -159.5q0 -72 25 -113t68 -41q38 0 59.5 30t21.5 83q0 54 -22.5 84t-61.5 30q-34 0 -62 -23l-7 8q37 34 83 34q51 0 85 -35.5t34 -89.5q0 -57 -38 -94.5t-95 -37.5q-63 0 -101 45t-38 121z" />
    <glyph glyph-name="seven.numr" horiz-adv-x="280" 
d="M20 728h253v-4l-151 -412h-45l171 383h-65q-115 0 -174 -13z" />
    <glyph glyph-name="eight.numr" horiz-adv-x="328" 
d="M297 421q0 -49 -40 -82q-39 -33 -98 -33q-53 0 -91 28t-38 73q0 81 95 116q-75 41 -75 104q0 46 33.5 76.5t84.5 30.5q47 0 79.5 -26.5t32.5 -65.5q0 -70 -83 -106q100 -43 100 -115zM166 550l16 -7q59 35 59 96q0 36 -21.5 59.5t-55.5 23.5q-35 0 -56.5 -23t-21.5 -59
q0 -30 19 -51t61 -39zM260 408q0 56 -86 92l-27 12l-9 4q-68 -32 -68 -105q0 -40 28 -67t68 -27t67 26.5t27 64.5z" />
    <glyph glyph-name="nine.numr" horiz-adv-x="322" 
d="M90 306l-4 10q73 25 114.5 93t41.5 160q0 72 -24.5 112.5t-68.5 40.5q-38 0 -59.5 -30.5t-21.5 -82.5q0 -53 22.5 -83t61.5 -30q35 0 63 22l7 -8q-38 -33 -84 -33q-51 0 -84.5 35t-33.5 89q0 58 37.5 95.5t95.5 37.5q63 0 100.5 -45t37.5 -121q0 -93 -55 -164
q-56 -72 -146 -98z" />
    <glyph glyph-name="zero.dnom" horiz-adv-x="383" 
d="M32 205q0 98 44 157q44 60 116 60t115.5 -57.5t43.5 -154.5q0 -98 -44 -157t-116 -59t-115.5 57.5t-43.5 153.5zM301 206q0 96 -29 150t-82 54q-51 0 -79.5 -53t-28.5 -146q0 -95 29.5 -150.5t81.5 -55.5q51 0 79.5 53.5t28.5 147.5z" />
    <glyph glyph-name="one.dnom" horiz-adv-x="182" 
d="M124 422h4v-422h-43v351q-24 -14 -72 -32v10q28 12 59 38t52 55z" />
    <glyph glyph-name="two.dnom" horiz-adv-x="310" 
d="M285 43l-12 -43h-250v3l33 35q93 96 130 157q39 61 39 111q0 41 -22.5 65.5t-58.5 24.5q-70 0 -108 -75l-11 5q43 96 131 96q52 0 84.5 -30.5t32.5 -80.5q0 -47 -45 -109q-45 -61 -157 -166l-4 -4h38q100 0 180 11z" />
    <glyph glyph-name="three.dnom" horiz-adv-x="305" 
d="M25 21l9 30q45 -45 96 -45q47 0 75 29.5t28 72.5q0 42 -28 69t-73 31l-23 1l-3 10l22 7q86 32 86 102q0 32 -20 51t-52 19q-59 0 -99 -53l-11 5q50 72 122 72q46 0 75.5 -24.5t29.5 -62.5q0 -32 -24 -59t-61 -42v-2q44 -9 72 -40t28 -74q0 -54 -40 -89t-102 -35
q-52 0 -107 27z" />
    <glyph glyph-name="four.dnom" horiz-adv-x="322" 
d="M305 149l-8 -31h-59v-118h-42v118h-185l-2 10l222 293h7v-272h67zM45 149h151v199z" />
    <glyph glyph-name="five.dnom" horiz-adv-x="295" 
d="M266 127q0 -57 -41 -95t-102 -38q-46 0 -101 26l8 27q40 -40 95 -40q44 0 72.5 30.5t28.5 77.5q0 54 -40.5 84t-115.5 30h-24l17 187h195l-11 -34h-170l-10 -114h15q87 0 135.5 -37.5t48.5 -103.5z" />
    <glyph glyph-name="six.dnom" horiz-adv-x="324" 
d="M31 160q0 93 55 163q56 72 147 99l3 -10q-72 -25 -114 -93.5t-42 -159.5q0 -72 25 -113t68 -41q38 0 59.5 30t21.5 83q0 54 -22.5 84t-61.5 30q-34 0 -62 -23l-7 8q37 34 83 34q51 0 85 -35.5t34 -89.5q0 -57 -38 -94.5t-95 -37.5q-63 0 -101 45t-38 121z" />
    <glyph glyph-name="seven.dnom" horiz-adv-x="280" 
d="M21 416h253v-4l-151 -412h-45l171 383h-65q-115 0 -174 -13z" />
    <glyph glyph-name="eight.dnom" horiz-adv-x="328" 
d="M297 109q0 -49 -40 -82q-39 -33 -98 -33q-53 0 -91 28t-38 73q0 81 95 116q-75 41 -75 104q0 46 33.5 76.5t84.5 30.5q47 0 79.5 -26.5t32.5 -65.5q0 -70 -83 -106q100 -43 100 -115zM166 238l16 -7q59 35 59 96q0 36 -21.5 59.5t-55.5 23.5q-35 0 -56.5 -23t-21.5 -59
q0 -30 19 -51t61 -39zM260 96q0 56 -86 92l-27 12l-9 4q-68 -32 -68 -105q0 -40 28 -67t68 -27t67 26.5t27 64.5z" />
    <glyph glyph-name="nine.dnom" horiz-adv-x="322" 
d="M90 -6l-4 10q73 25 114.5 93t41.5 160q0 72 -24.5 112.5t-68.5 40.5q-38 0 -59.5 -30.5t-21.5 -82.5q0 -53 22.5 -83t61.5 -30q35 0 63 22l7 -8q-38 -33 -84 -33q-51 0 -84.5 35t-33.5 89q0 58 37.5 95.5t95.5 37.5q63 0 100.5 -45t37.5 -121q0 -93 -55 -164
q-56 -72 -146 -98z" />
    <glyph glyph-name="parenleft.case" horiz-adv-x="237" 
d="M43 354q0 135 38 231q37 94 118 197l13 -9q-68 -89 -96 -183q-29 -96 -29 -230t29 -233q28 -95 96 -184l-13 -9q-54 68 -87 126q-69 124 -69 294z" />
    <glyph glyph-name="parenright.case" horiz-adv-x="236" 
d="M38 -66l-13 9q68 89 96 184q29 99 29 233t-29 230q-29 94 -96 183l13 9q81 -103 118 -197q38 -96 38 -231q0 -94 -18 -164q-30 -120 -138 -256z" />
    <glyph glyph-name="hyphen.case" horiz-adv-x="331" 
d="M58 352v31h215v-31h-215z" />
    <glyph glyph-name="bracketleft.case" horiz-adv-x="260" 
d="M256 782v-12h-156q10 -125 15 -215q5 -98 5 -197t-5 -197q-5 -90 -15 -215h156v-12h-180v848h180z" />
    <glyph glyph-name="bracketright.case" horiz-adv-x="260" 
d="M4 782h180v-848h-180v12h156q-13 156 -16 215q-4 79 -4 197t4 197q3 59 16 215h-156v12z" />
    <glyph glyph-name="braceleft.case" horiz-adv-x="272" 
d="M118 674q0 -43 28 -108q25 -61 25 -94q0 -43 -30.5 -73.5t-80.5 -40.5q50 -10 80.5 -40.5t30.5 -73.5q0 -33 -25 -94q-28 -65 -28 -108q0 -50 34.5 -73t108.5 -23v-12q-99 0 -145 29t-46 93q0 45 30 113q25 59 25 90q0 39 -28.5 65.5t-73.5 27.5v12q45 1 73.5 27.5
t28.5 65.5q0 31 -25 90q-30 67 -30 113q0 64 46 93t145 29v-12q-74 0 -108.5 -23t-34.5 -73z" />
    <glyph glyph-name="braceright.case" horiz-adv-x="272" 
d="M147 259q0 -31 25 -90q30 -68 30 -113q0 -64 -45.5 -93t-144.5 -29v12q73 0 107.5 23t34.5 73q0 43 -28 108q-25 61 -25 94q0 43 30.5 73.5t80.5 40.5q-50 10 -80.5 40.5t-30.5 73.5q0 33 25 94q28 65 28 108q0 50 -34.5 73t-107.5 23v12q99 0 144.5 -29t45.5 -93
q0 -46 -30 -113q-25 -59 -25 -90q0 -40 28.5 -66t74.5 -27v-12q-46 -1 -74.5 -27t-28.5 -66z" />
    <glyph glyph-name="exclamdown.case" horiz-adv-x="205" 
d="M102 748l57 -56l-57 -57l-56 57zM95 530h15l29 -530h-74z" />
    <glyph glyph-name="guillemotleft.case" horiz-adv-x="477" 
d="M247 610l-135 -240l135 -240h-12l-194 240l194 240h12zM427 610l-136 -240l136 -240h-12l-195 240l195 240h12z" />
    <glyph glyph-name="uni00AD.case" horiz-adv-x="331" 
d="M58 352v31h215v-31h-215z" />
    <glyph glyph-name="periodcentered.case" horiz-adv-x="207" 
d="M104 342l-57 56l57 57l57 -57z" />
    <glyph glyph-name="guillemotright.case" horiz-adv-x="477" 
d="M63 610l194 -240l-194 -240h-12l135 240l-135 240h12zM242 610l195 -240l-195 -240h-12l136 240l-136 240h12z" />
    <glyph glyph-name="questiondown.case" horiz-adv-x="468" 
d="M231 748l57 -56l-57 -57l-57 57zM304 465q0 -29 -18 -54.5t-65 -71.5q-60 -56 -85.5 -96t-25.5 -91q0 -59 39.5 -95.5t106.5 -36.5q104 0 179 90l12 -8q-39 -47 -88 -80q-50 -34 -131 -34q-83 0 -138 43q-54 43 -54 116q0 39 20 76q19 33 44 59.5t76 69.5q54 44 75 69
t21 51q0 44 -57 44q-12 0 -27 -3l-3 14q15 3 32 3q40 0 63.5 -16.5t23.5 -48.5z" />
    <glyph glyph-name="gravecomb.case" 
d="M-137 802l-168 160h98l77 -155z" />
    <glyph glyph-name="acutecomb.case" 
d="M-262 802l-7 5l77 155h98z" />
    <glyph glyph-name="uni0302.case" 
d="M-37 807l-6 -5l-157 97l-157 -97l-6 5l160 155h6z" />
    <glyph glyph-name="tildecomb.case" 
d="M-362 814l-9 2q15 97 83 97q30 0 107 -31q64 -26 88 -26q40 0 56 57l9 -2q-17 -97 -83 -97q-32 0 -106 30q-69 26 -89 26q-39 0 -56 -56z" />
    <glyph glyph-name="uni0304.case" 
d="M-354 821v26h309v-26h-309z" />
    <glyph glyph-name="uni0306.case" 
d="M-357 952l9 3q18 -43 58 -70.5t90 -27.5q51 0 91 27.5t58 70.5l9 -3q-17 -62 -57.5 -100t-100.5 -38t-100 37.5t-57 100.5z" />
    <glyph glyph-name="uni0307.case" 
d="M-200 820l-57 56l57 57l57 -57z" />
    <glyph glyph-name="uni0308.case" 
d="M-294 820l-50 49l50 49l48 -49zM-109 820l-50 49l50 49l48 -49z" />
    <glyph glyph-name="uni030A.case" 
d="M-301 898q0 42 29.5 69.5t71.5 27.5t71.5 -27.5t29.5 -69.5q0 -41 -29.5 -68.5t-71.5 -27.5t-71.5 27.5t-29.5 68.5zM-135 898q0 39 -17 62t-48 23t-48 -23t-17 -62t17 -61.5t48 -22.5t48 22.5t17 61.5z" />
    <glyph glyph-name="uni030B.case" 
d="M-324 802l-7 5l78 155h84zM-198 802l-7 5l77 155h84z" />
    <glyph glyph-name="uni030C.case" 
d="M-43 962l6 -5l-160 -155h-6l-160 155l6 5l157 -97z" />
    <glyph glyph-name="uni0326.case" 
d="M-234 -274l-5 7q53 35 53 82q0 52 -63 90l44 46q64 -31 64 -96q0 -38 -25 -72.5t-68 -56.5z" />
    <glyph glyph-name="uni0327.case" 
d="M-113 -135q0 -36 -30 -59t-75 -23q-40 0 -74 15l3 9q25 -9 60 -9q34 0 55 15t21 38q0 21 -21.5 35.5t-54.5 14.5h-25l44 99h20l-25 -55q46 -3 74 -25.5t28 -54.5z" />
    <glyph glyph-name="uni0328.case" 
d="M-274 -146q0 34 25.5 66t84.5 81h15q-69 -75 -69 -131q0 -27 16.5 -43.5t41.5 -16.5q22 0 61 14l3 -5q-50 -36 -100 -36q-34 0 -56 19.5t-22 51.5z" />
    <glyph glyph-name="endash.case" horiz-adv-x="489" 
d="M50 371v18h390v-18h-390z" />
    <glyph glyph-name="emdash.case" horiz-adv-x="779" 
d="M50 371v18h680v-18h-680z" />
    <glyph glyph-name="bullet.case" horiz-adv-x="306" 
d="M153 309l-90 90l90 90l91 -90z" />
    <glyph glyph-name="guilsinglleft.case" horiz-adv-x="298" 
d="M246 595l-135 -240l135 -240h-12l-194 240l194 240h12z" />
    <glyph glyph-name="guilsinglright.case" horiz-adv-x="298" 
d="M64 595l194 -240l-194 -240h-12l135 240l-135 240h12z" />
    <glyph glyph-name="A_A" horiz-adv-x="1006" 
d="M833 241h-304l-14 -39l79 -202h-74l-94 241h-303q-31 -80 -46 -137q-16 -57 -23 -104h-53q31 72 111 270l19 48l167 423h4l201 -510l201 510h4l294 -741h-74zM679 632l-126 -326l-18 -47h291zM130 259h289l-145 369l-124 -317z" />
    <glyph glyph-name="A_N_D" horiz-adv-x="919" 
d="M58 197h-35q19 44 58 144l77 192h7l135 -336h-44l-42 107h-130q-22 -62 -26 -107zM325 340v155l-20 28v3h46l177 -251v107q0 100 -6 144h30q-5 -52 -5 -144v-191h-7l-199 281v-132q0 -93 5 -143h-27q6 54 6 143zM704 197h-110v329h114q80 0 125.5 -42.5t45.5 -118.5
q0 -78 -47 -123t-128 -45zM703 514h-68v-303q21 -3 73 -3q60 0 93.5 40.5t33.5 113.5q0 68 -36.5 110t-95.5 42zM149 467l-52 -128l-8 -22h119zM49 116v14h795v-14h-795z" />
    <glyph glyph-name="C_A" horiz-adv-x="1217" 
d="M1138 0l-94 241h-303q-31 -80 -46 -137q-16 -57 -23 -104h-45l63 158q-50 -78 -127.5 -124t-173.5 -46q-152 0 -250.5 102.5t-98.5 268.5q-3 166 104 274.5t263 106.5q86 0 157 -31t117 -87l-39 -35q-93 137 -240 137q-122 2 -204.5 -97.5t-81.5 -248.5
q-2 -156 86 -256.5t217 -98.5q99 0 183 64.5t118 157.5l196 496h4l292 -741h-74zM748 259h289l-145 369l-124 -317z" />
    <glyph glyph-name="C_O_period" horiz-adv-x="1084" 
d="M40 359q-3 166 104 274.5t263 106.5q86 0 157 -31t117 -87l-39 -35q-93 137 -240 137q-122 2 -204.5 -97.5t-81.5 -248.5q-2 -156 86 -256.5t217 -98.5q166 0 260 146l12 -7q-108 -174 -302 -174q-152 0 -250.5 102.5t-98.5 268.5zM686 339q0 83 53 138t134 55
q79 0 131 -53t52 -134q0 -83 -54 -138.5t-135 -55.5q-79 0 -130 53t-51 135zM1008 340q0 78 -39.5 128.5t-99.5 50.5q-59 0 -97 -48.5t-38 -126.5t39 -129t99 -51t98 49t38 127zM871 -20l-55 55l55 55l56 -55z" />
    <glyph glyph-name="D_O" horiz-adv-x="1231" 
d="M1192 370q2 -167 -109 -275.5t-270 -106.5q-139 0 -238 83q-100 -71 -245 -71h-255v728h265q150 0 244 -70q104 82 241 82q155 2 262.5 -102.5t104.5 -267.5zM1116 360q0 159 -85.5 261.5t-213.5 102.5q-127 0 -211 -84q105 -94 105 -267q0 -177 -107 -278
q88 -91 219 -91q127 0 210 99t83 257zM340 16q132 0 211 76q-102 102 -102 266q0 161 101 268q-84 86 -220 86h-187v-687q46 -9 197 -9zM579 125q67 89 67 242q0 142 -73 234q-66 -94 -66 -233q0 -145 72 -243z" />
    <glyph glyph-name="D_O_G" horiz-adv-x="1641" 
d="M1344 330h254v-246q-122 -96 -285 -96q-151 0 -252 81q-104 -81 -243 -81q-141 0 -243 83q-100 -71 -245 -71h-255v728h265q150 0 245 -71q105 83 245 83q139 0 240 -81q100 81 241 81q83 0 154.5 -31.5t116.5 -86.5l-39 -35q-92 137 -243 137q-125 0 -206 -87
q104 -104 104 -267q0 -164 -104 -270q88 -94 225 -94q125 0 213 75v231h-177zM1040 87q-104 101 -104 272q0 167 105 274q-86 91 -219 91q-130 0 -215 -85q104 -95 104 -266q0 -177 -106 -277q86 -92 223 -92q126 0 212 83zM340 16q131 0 211 77q-102 102 -102 265
q0 161 102 268q-86 86 -221 86h-187v-687q46 -9 197 -9zM1067 604q-66 -96 -66 -238t72 -240q67 92 67 234q0 144 -73 244zM580 125q66 91 66 242q0 141 -72 233q-67 -92 -67 -232q0 -145 73 -243z" />
    <glyph glyph-name="D_O_O" horiz-adv-x="1718" 
d="M1679 370q2 -167 -108.5 -275.5t-270.5 -106.5q-139 0 -238 82q-104 -82 -244 -82q-141 0 -243 83q-100 -71 -245 -71h-255v728h265q150 0 245 -71q105 83 245 83q142 0 241 -82q104 82 242 82q155 2 261.5 -102.5t104.5 -267.5zM1042 89q-106 101 -106 269
q0 167 107 274q-86 92 -221 92q-130 0 -215 -85q104 -95 104 -266q0 -177 -106 -277q86 -92 223 -92q129 0 214 85zM1603 360q2 159 -85 262.5t-214 101.5q-127 0 -212 -85q106 -101 106 -269q0 -165 -107 -274q86 -92 219 -92q127 0 210 99t83 257zM340 16q131 0 211 77
q-102 102 -102 265q0 161 102 268q-86 86 -221 86h-187v-687q46 -9 197 -9zM995 368q0 -148 75 -246q70 93 70 238q0 148 -75 246q-70 -94 -70 -238zM580 125q66 91 66 242q0 141 -72 233q-67 -92 -67 -232q0 -145 73 -243z" />
    <glyph glyph-name="E_A" horiz-adv-x="1045" 
d="M967 0l-95 241h-303l-95 -241h-399v728h401l12 -46h-2q-141 28 -279 28h-64v-322h58q153 0 213 11h2v-42h-2q-65 13 -213 13h-58v-352h65q162 0 266 35l270 688h4l293 -741h-74zM576 259h289l-144 368z" />
    <glyph glyph-name="E_T" horiz-adv-x="1034" 
d="M505 48h2l-17 -48h-415v728h401l12 -46h-2q-141 28 -279 28h-64v-322h58q153 0 213 11h2v-42h-2q-65 13 -213 13h-58v-352h65q162 0 297 30zM1012 728l13 -49h-2q-111 31 -202 31h-28v-710h-68v710h-28q-86 0 -199 -28h-2l12 46h504z" />
    <glyph glyph-name="E_V" horiz-adv-x="1049" 
d="M995 728h53q-45 -102 -129 -318l-168 -423h-4l-274 697q-57 26 -266 26h-64v-322h58q153 0 213 11h2v-42h-2q-65 13 -213 13h-58v-352h65q162 0 297 30h2l-17 -48h-415v728h454l246 -628l125 317q47 118 65 183q21 68 30 128z" />
    <glyph glyph-name="E_V_T" horiz-adv-x="1537" 
d="M1515 728l12 -49h-2q-111 31 -201 31h-28v-710h-69v710h-27q-116 0 -172 -22l-277 -701h-4l-274 697q-57 26 -266 26h-64v-322h58q153 0 213 11h2v-42h-2q-65 13 -213 13h-58v-352h65q162 0 297 30h2l-17 -48h-415v728h454l246 -628l125 317q48 122 64 178q22 70 35 133
h516z" />
    <glyph glyph-name="E_W" horiz-adv-x="1390" 
d="M1335 728h50q-55 -147 -112 -319l-142 -422h-4l-205 613l-209 -613h-4l-234 696q-58 27 -268 27h-64v-322h58q153 0 213 11h2v-42h-2q-65 13 -213 13h-58v-352h65q162 0 297 30h2l-17 -48h-415v728h457l204 -611l209 611h4l205 -610l100 297q63 183 81 313z" />
    <glyph glyph-name="E_X" horiz-adv-x="1058" 
d="M795 401l245 -314v-102h-4l-286 364l-246 -349h-429v728h348l14 -46h-2q-97 19 -128 22q-42 6 -100 6h-64v-322h58q153 0 213 11h2v-42h-2q-65 13 -213 13h-58v-352h65q77 0 163 9q87 9 145 27l222 311l-285 363h87l243 -312l41 58q115 162 150 254h65q-73 -86 -199 -265
z" />
    <glyph glyph-name="E_X_A" horiz-adv-x="1617" 
d="M1538 0l-94 241h-303l-101 -256h-4l-286 364l-246 -349h-429v728h348l14 -46h-2q-97 19 -128 22q-42 6 -100 6h-64v-322h58q153 0 213 11h2v-42h-2q-65 13 -213 13h-58v-352h65q77 0 163 9q87 9 145 27l222 311l-285 363h87l243 -312l41 58q115 162 150 254h65
q-73 -86 -199 -265l-45 -62l257 -329l264 669h4l293 -741h-75zM1148 259h289l-144 368z" />
    <glyph glyph-name="E_X_T" horiz-adv-x="1490" 
d="M1467 728l13 -49h-2q-111 31 -202 31h-27v-710h-69v710h-28q-78 0 -155 -26l-202 -283l245 -314v-102h-4l-286 364l-246 -349h-429v728h348l14 -46h-2q-97 19 -128 22q-42 6 -100 6h-64v-322h58q153 0 213 11h2v-42h-2q-65 13 -213 13h-58v-352h65q77 0 163 9
q87 9 145 27l222 311l-285 363h87l243 -312l221 312h463z" />
    <glyph glyph-name="E_Y" horiz-adv-x="988" 
d="M801 431l-61 -107v-324h-68v320l-215 370q-68 20 -250 20h-64v-322h58q153 0 213 11h2v-42h-2q-65 13 -213 13h-58v-352h65q162 0 297 30h2l-17 -48h-415v728h439l217 -381l53 93q107 186 139 288h51q-75 -124 -173 -297z" />
    <glyph glyph-name="F_T" horiz-adv-x="1015" 
d="M75 728h382l12 -46h-2q-140 28 -279 28h-45v-334h48q153 0 213 11h2v-42h-2q-65 13 -213 13h-48v-358h-68v728zM993 728l13 -49h-2q-111 31 -202 31h-27v-710h-69v710h-28q-86 0 -199 -28h-2l12 46h504z" />
    <glyph glyph-name="F_V" horiz-adv-x="991" 
d="M937 728h53q-45 -102 -129 -318l-168 -423h-4l-274 697q-63 26 -227 26h-45v-334h48q153 0 213 11h2v-42h-2q-65 13 -213 13h-48v-358h-68v728h396l246 -628l125 317q47 118 65 183q21 68 30 128z" />
    <glyph glyph-name="F_W" horiz-adv-x="1332" 
d="M1277 728h50q-55 -147 -112 -319l-142 -422h-4l-205 613l-209 -613h-4l-235 697q-61 26 -228 26h-45v-334h48q153 0 213 11h2v-42h-2q-65 13 -213 13h-48v-358h-68v728h399l204 -611l209 611h4l205 -610l100 297q63 183 81 313z" />
    <glyph glyph-name="F_Y" horiz-adv-x="950" 
d="M763 431l-61 -107v-324h-68v320l-211 363q-60 27 -235 27h-45v-334h48q153 0 213 11h2v-42h-2q-65 13 -213 13h-48v-358h-68v728h401l217 -381l53 93q107 186 139 288h51q-75 -124 -173 -297z" />
    <glyph glyph-name="K_A" horiz-adv-x="1145" 
d="M1067 0l-95 241h-303l-101 -256h-4l-383 388l145 136q148 139 202 219h66v-2q-89 -78 -255 -232l-95 -89l334 -338l266 674h4l293 -741h-74zM75 0v728h68v-728h-68zM676 259h289l-144 368z" />
    <glyph glyph-name="K_AE" horiz-adv-x="1446" 
d="M75 0v728h68v-728h-68zM1428 48h2l-17 -48h-415v262h-265l-165 -277h-4l-383 388l145 136q148 139 202 219h66v-2q-89 -78 -255 -232l-95 -89l344 -348l399 671h411l13 -46h-2q-141 28 -279 28h-64v-322h58q153 0 213 11h2v-42h-2q-65 13 -213 13h-58v-352h65
q162 0 297 30zM743 280h255v429z" />
    <glyph glyph-name="K_S" horiz-adv-x="1084" 
d="M1051 191q0 -91 -68 -147t-167 -56q-93 0 -186 31v47q38 -28 91 -45t102 -17q75 0 124 42t49 108q-2 67 -40 104t-120 77l-50 23q-60 29 -94 51q-90 59 -90 150q0 79 61 130t157 51q111 0 201 -55l-13 -44q-85 83 -197 83q-69 0 -110.5 -37t-41.5 -95q3 -61 38 -94
t120 -74l50 -23q58 -27 98 -54q86 -56 86 -156zM75 0v728h68v-728h-68zM339 494l-95 -89l362 -331v-89h-5l-420 388l145 136q148 139 202 219h66v-2q-89 -78 -255 -232z" />
    <glyph glyph-name="K_T" horiz-adv-x="1039" 
d="M75 0v728h68v-728h-68zM1017 728l12 -49h-2q-111 31 -201 31h-28v-710h-69v710h-27q-87 0 -162 -28l-296 -277l349 -331v-89h-5l-407 388l376 355h460z" />
    <glyph glyph-name="L_A" horiz-adv-x="975" 
d="M896 0l-94 241h-303l-95 -241h-329v728h68v-710h23q129 0 238 36l270 687h4l293 -741h-75zM506 259h289l-144 368z" />
    <glyph glyph-name="L_AE" horiz-adv-x="1270" 
d="M1252 48h2l-17 -48h-415v262h-265l-155 -262h-327v728h68v-710h23q127 0 244 39l401 671h412l12 -46h-2q-141 28 -279 28h-64v-322h58q153 0 213 11h2v-42h-2q-65 13 -213 13h-58v-352h65q162 0 297 30zM568 280h254v429z" />
    <glyph glyph-name="L_L" horiz-adv-x="785" 
d="M391 50h2l-17 -50h-301v728h68v-710h23q114 0 225 32zM772 50h2l-17 -50h-325v728h69v-710h23q118 0 248 32z" />
    <glyph glyph-name="L_S" horiz-adv-x="894" 
d="M861 191q0 -91 -68 -147t-167 -56q-59 0 -120 16q-64 17 -106 39l14 50q37 -38 99 -64q60 -25 120 -25q75 0 124 42t49 108q-2 67 -40 104t-120 77l-50 23q-60 29 -94 51q-90 59 -90 150q0 79 61 130t157 51q109 0 201 -55l-13 -44q-85 83 -197 83q-69 0 -111 -37
t-42 -95q0 -42 21 -72q20 -28 50 -48.5t87 -47.5l50 -23q58 -27 98 -54q87 -55 87 -156zM400 56h2l-15 -56h-312v728h68v-710h23q86 0 234 38z" />
    <glyph glyph-name="M_C_period" horiz-adv-x="1212" 
d="M660 728h62l68 -728h-69l-63 672l-252 -626h-4l-272 608l-30 -334q-14 -157 -14 -261q0 -46 1 -59h-47q22 119 40 321l34 371l-15 33v3h74l255 -575zM1166 250l12 -7q-27 -43 -68.5 -67.5t-89.5 -24.5q-79 0 -129.5 53t-50.5 135q0 86 53 139.5t137 53.5q92 0 143 -67
l-33 -21q-46 75 -114 75q-59 0 -98 -48.5t-39 -121.5q0 -75 41 -123.5t105 -48.5q39 0 74.5 19t56.5 54zM966 35l55 55l56 -55l-56 -55z" />
    <glyph glyph-name="N_period" horiz-adv-x="320" 
d="M112 768l37 38q53 -26 53 -79q0 -30 -21 -58.5t-56 -46.5l-4 5q44 29 44 67q0 44 -53 74zM249 526h32q-7 -41 -7 -144v-190h-5l-202 282v-133q0 -96 9 -144h-33q8 53 8 144v155l-19 27v3h46l180 -252v108q0 98 -9 144zM202 -14q0 -30 -21 -58.5t-56 -46.5l-4 5
q44 29 44 67q0 42 -53 74l37 38q53 -26 53 -79z" />
    <glyph glyph-name="O_C" horiz-adv-x="1184" 
d="M1159 169l12 -7q-108 -174 -302 -174q-133 0 -226 79q-101 -79 -237 -79q-155 -2 -262.5 102.5t-104.5 267.5q-2 167 109 275.5t270 106.5q137 0 235 -80q97 80 234 80q175 0 274 -118l-39 -35q-93 137 -242 137q-122 0 -203 -86q105 -102 105 -268q0 -156 -96 -263
q86 -84 213 -84q166 0 260 146zM416 4q124 0 207 81q-103 106 -103 274q0 169 105 276q-87 89 -215 89q-127 2 -211.5 -99t-83.5 -257q-1 -159 86 -262.5t215 -101.5zM650 605q-65 -95 -65 -227q0 -148 77 -244q62 92 62 226q0 148 -74 245z" />
    <glyph glyph-name="O_F" horiz-adv-x="640" 
d="M40 357q0 76 49.5 125.5t124.5 49.5q74 0 121 -48q48 -46 48 -121t-49.5 -123.5t-125.5 -48.5q-75 0 -121 46q-47 47 -47 120zM479 512h-16v-144h16q69 0 99 5h2v-25h-2q-24 6 -99 6h-16v-157h-41v329h180l7 -27h-2q-68 13 -128 13zM84 362q0 -70 36 -115q38 -44 93 -44
t90 43t35 112q0 71 -36 116.5t-92 45.5q-55 0 -90.5 -44.5t-35.5 -113.5zM74 116v14h501v-14h-501z" />
    <glyph glyph-name="O_G" horiz-adv-x="1225" 
d="M927 330h255v-246q-124 -96 -285 -96q-153 0 -252 81q-101 -81 -239 -81q-155 -2 -262.5 102.5t-104.5 267.5q-2 167 109 275.5t270 106.5q136 0 236 -81q100 81 241 81q83 0 154.5 -31.5t116.5 -86.5l-40 -35q-92 137 -242 137q-126 0 -206 -86q104 -104 104 -268
q0 -162 -103 -271q87 -93 224 -93q127 0 212 75v231h-177zM625 87q-105 100 -105 272q0 169 106 275q-88 90 -216 90q-127 2 -211.5 -99t-83.5 -257q-1 -159 86 -262.5t215 -101.5q123 0 209 83zM651 604q-66 -94 -66 -238t72 -241q67 94 67 235q0 146 -73 244z" />
    <glyph glyph-name="O_O" horiz-adv-x="1302" 
d="M1263 370q2 -167 -109 -275.5t-270 -106.5q-139 0 -238 82q-101 -82 -240 -82q-155 -2 -262.5 102.5t-104.5 267.5q-2 167 109 275.5t270 106.5q139 0 238 -82q101 82 240 82q155 2 262 -102.5t105 -267.5zM626 89q-106 101 -106 269q0 166 107 275q-86 91 -217 91
q-127 2 -211.5 -99t-83.5 -257q-1 -159 86 -262.5t215 -101.5q127 0 210 85zM1187 360q0 159 -85.5 261.5t-213.5 102.5q-127 0 -212 -85q106 -101 106 -269q0 -167 -107 -274q86 -92 219 -92q125 -2 210 99.5t83 256.5zM578 368q0 -149 75 -247q71 96 71 239q0 149 -75 247
q-71 -96 -71 -239z" />
    <glyph glyph-name="O_O_C" horiz-adv-x="1671" 
d="M1646 169l12 -7q-107 -174 -302 -174q-134 0 -227 79q-101 -79 -240 -79q-141 0 -242 82q-101 -82 -241 -82q-155 -2 -262.5 102.5t-104.5 267.5q-2 167 109 275.5t270 106.5q139 0 238 -82q104 82 245 82q140 0 238 -80q100 80 236 80q85 0 156 -31t117 -87l-39 -35
q-92 137 -241 137q-121 0 -204 -86q105 -102 105 -268q0 -157 -96 -262q85 -85 214 -85q78 0 145 36.5t114 109.5zM626 89q-106 101 -106 269q0 166 108 274q-86 92 -218 92q-127 2 -211.5 -99t-83.5 -257q-1 -159 86 -262.5t215 -101.5q128 0 210 85zM899 4q128 0 210 82
q-102 102 -102 273q0 170 104 276q-87 89 -218 89q-129 0 -216 -85q105 -105 105 -269q0 -165 -107 -274q87 -92 224 -92zM578 368q0 -147 76 -247q70 98 70 239q0 147 -75 247q-71 -96 -71 -239zM1137 604q-65 -95 -65 -226q0 -145 77 -244q62 92 62 226q0 147 -74 244z
" />
    <glyph glyph-name="O_O_G" horiz-adv-x="1712" 
d="M1415 330h254v-246q-121 -96 -285 -96q-151 0 -252 81q-104 -81 -243 -81q-141 0 -242 82q-101 -82 -241 -82q-155 -2 -262.5 102.5t-104.5 267.5q-2 167 109 275.5t270 106.5q139 0 238 -82q104 82 245 82q139 0 240 -81q100 81 241 81q83 0 154.5 -31.5t116.5 -86.5
l-39 -35q-92 137 -243 137q-125 0 -206 -87q104 -104 104 -267q0 -164 -104 -270q88 -94 225 -94q127 0 213 76v230h-177zM626 89q-106 101 -106 269q0 166 108 274q-86 92 -218 92q-127 2 -211.5 -99t-83.5 -257q-1 -159 86 -262.5t215 -101.5q128 0 210 85zM1111 87
q-104 101 -104 272q0 167 105 274q-86 91 -219 91q-129 0 -216 -85q105 -105 105 -269q0 -165 -107 -274q87 -92 224 -92q126 0 212 83zM578 368q0 -147 76 -247q70 98 70 239q0 147 -75 247q-71 -96 -71 -239zM1138 604q-66 -96 -66 -238t72 -240q67 92 67 234
q0 144 -73 244z" />
    <glyph glyph-name="R_A" horiz-adv-x="1103" 
d="M1024 0l-94 241h-305l-101 -256h-5l-232 320q-10 14 -21.5 18.5t-35.5 4.5h-87v-328h-68v728h149q140 0 213 -47t73 -139q0 -71 -44 -117.5t-129 -78.5l200 -277l265 672h4l293 -741h-75zM437 536q0 83 -55 129.5t-159 46.5h-80v-361q20 -4 48 -5q42 -2 54 -2
q85 0 138.5 55.5t53.5 136.5zM632 259h291l-145 371z" />
    <glyph glyph-name="R_S" horiz-adv-x="1072" 
d="M1039 191q0 -91 -68 -147t-167 -56q-93 0 -186 31v47q38 -28 91 -45t102 -17q75 0 124 42t49 108q-2 67 -40 104t-120 77l-50 23q-60 29 -94 51q-90 59 -90 150q0 79 61 130t157 51q111 0 201 -55l-13 -44q-85 83 -197 83q-69 0 -110.5 -37t-41.5 -95q3 -61 38 -94
t120 -74l50 -23q58 -27 98 -54q86 -56 86 -156zM337 346l234 -268v-93h-5l-279 320q-20 23 -57 23h-87v-328h-68v728h149q140 0 213 -47t73 -139q0 -71 -44 -117.5t-129 -78.5zM437 536q0 83 -55 129.5t-159 46.5h-80v-361q20 -4 48 -5q42 -2 54 -2q85 0 138.5 55.5
t53.5 136.5z" />
    <glyph glyph-name="S_S" horiz-adv-x="958" 
d="M34 43l15 49q35 -38 98 -64q63 -24 121 -24q75 0 124 42t49 108q-2 67 -40 104t-120 77l-50 23q-60 29 -94 51q-90 59 -90 150q0 79 61 130t157 51q100 0 187 -48l-13 -40q-82 72 -183 72q-70 0 -111.5 -37t-41.5 -95q0 -42 21 -72q20 -28 50 -48.5t87 -47.5l50 -23
q58 -27 98 -54q86 -56 86 -156q0 -91 -68 -147t-166 -56q-59 0 -120 16q-64 17 -107 39zM484 33l14 41q39 -31 93.5 -50.5t105.5 -19.5q75 0 124 42t49 108q-2 67 -40 104t-120 77l-50 23q-60 29 -94 51q-90 59 -90 150q0 79 61 130t157 51q111 0 201 -55l-13 -44
q-85 83 -197 83q-69 0 -110.5 -37t-41.5 -95q3 -61 38 -94t120 -74l49 -23q58 -27 98 -54q87 -55 87 -156q0 -91 -68 -147t-167 -56q-98 0 -206 45z" />
    <glyph glyph-name="S_T_period" horiz-adv-x="785" 
d="M495 191q0 -91 -68 -147t-166 -56q-59 0 -120 16q-64 17 -107 39l15 49q35 -38 98 -64q63 -24 121 -24q75 0 124 42t49 108q-2 67 -40 104t-120 77l-50 23q-60 29 -94 51q-90 59 -90 150q0 79 61 130t157 51q110 0 200 -55l-12 -44q-88 83 -197 83q-70 0 -111.5 -37
t-41.5 -95q0 -42 21 -72q20 -28 50 -48.5t87 -47.5l50 -23q58 -27 98 -54q86 -56 86 -156zM753 526l10 -32h-2q-58 17 -115 17h-8v-354h-49v354h-8q-59 0 -115 -17h-2l10 32h279zM558 35l55 55l56 -55l-56 -55z" />
    <glyph glyph-name="T_H_E" horiz-adv-x="840" 
d="M130 513h-9q-49 0 -94 -15h-2l7 28h237l7 -28h-2q-45 15 -94 15h-9v-316h-41v316zM344 362v-165h-41v329h41v-152h164v152h41v-329h-41v165h-164zM798 224h2l-9 -27h-195v329h189l7 -27h-2q-59 13 -129 13h-24v-137h21q69 0 99 5h2v-25h-2q-24 6 -99 6h-21v-150h24
q78 0 137 13zM60 116v14h729v-14h-729z" />
    <glyph glyph-name="T_T" horiz-adv-x="916" 
d="M894 728l13 -49h-2q-111 31 -202 31h-27v-710h-69v710h-297v-710h-69v710h-28q-90 0 -201 -31h-2l12 49h872z" />
    <glyph glyph-name="T_V" horiz-adv-x="1099" 
d="M1044 728h54q-32 -72 -111 -270l-19 -48l-167 -423h-4l-275 697q-62 26 -185 26h-27v-710h-69v710h-28q-90 0 -201 -31h-2l12 49h557l246 -628l124 317q47 115 66 183q22 71 29 128z" />
    <glyph glyph-name="T_W" horiz-adv-x="1440" 
d="M1384 728h50q-35 -98 -111 -319l-143 -422h-4l-204 612l-209 -612h-4l-234 695q-59 28 -188 28h-27v-710h-69v710h-28q-90 0 -201 -31h-2l12 49h559l205 -613l209 613h4l205 -612l100 299q60 174 80 313z" />
    <glyph glyph-name="T_Y" horiz-adv-x="1026" 
d="M840 431l-61 -105v-326h-69v320l-216 373q-57 17 -157 17h-27v-710h-69v710h-28q-90 0 -201 -31h-2l12 49h530l217 -380l53 92q107 182 140 288h51q-75 -124 -173 -297z" />
    <glyph glyph-name="T_Y_T" horiz-adv-x="1501" 
d="M1479 728l12 -49h-2q-111 31 -201 31h-28v-710h-68v710h-28q-116 0 -178 -24l-207 -360v-326h-69v320l-217 373q-57 17 -156 17h-27v-710h-69v710h-28q-90 0 -201 -31h-2l12 49h530l217 -380l53 92q98 166 144 288h513z" />
    <glyph glyph-name="U_T" horiz-adv-x="1099" 
d="M1077 728l12 -49h-2q-111 31 -201 31h-28v-710h-69v710h-27q-129 0 -192 -32v-433q0 -257 -249 -257q-123 0 -187.5 65t-64.5 188v487h69v-483q0 -113 52 -171.5t154 -58.5q100 0 153 57.5t53 167.5v488h527z" />
    <glyph glyph-name="V_S" horiz-adv-x="550" 
d="M514 285q0 -40 -31 -67t-79 -27q-56 0 -108 33l10 32q15 -23 44 -38t57 -15q32 0 53 19t21 48q0 27 -17 44t-53 33l-22 10q-43 20 -64 41t-21 52q0 36 29 59t73 23q52 0 95 -26l-8 -29q-38 43 -91 43q-28 0 -46.5 -16t-18.5 -42q0 -23 15 -37t54 -33l22 -11
q47 -23 66.5 -43t19.5 -53zM164 190h-7l-134 336h43l107 -270l52 128q28 72 40 142h34l-37 -90l-21 -54zM65 116v14h420v-14h-420z" />
    <glyph glyph-name="V_T" horiz-adv-x="1086" 
d="M1064 728l13 -49h-2q-111 31 -202 31h-28v-710h-68v710h-28q-113 0 -172 -22l-276 -701h-4l-293 741h75l245 -627l125 316q46 119 65 180q19 58 35 131h515z" />
    <glyph glyph-name="W_T" horiz-adv-x="1428" 
d="M1406 728l12 -49h-2q-111 31 -201 31h-28v-710h-69v710h-27q-117 0 -175 -23l-236 -700h-4l-204 612l-209 -612h-4l-251 741h73l205 -613l209 613h4l205 -612l100 299q59 173 84 313h518z" />
    <glyph glyph-name="X_A" horiz-adv-x="1157" 
d="M1079 0l-94 241h-304l-100 -256l-1 2v-2h-4l-285 364l-69 -96q-96 -137 -141 -253h-74q56 64 200 264l71 101l-284 363h86l243 -312l42 58q115 163 150 254h65q-91 -109 -199 -265l-45 -63l256 -328l264 669h4l293 -741h-74zM688 259h290l-145 369z" />
    <glyph glyph-name="X_T" horiz-adv-x="1030" 
d="M1008 728l12 -49h-2q-111 31 -201 31h-28v-710h-69v710h-28q-91 0 -154 -25l-202 -285l244 -313v-102h-4l-285 364l-69 -96q-96 -137 -141 -253h-74q56 64 200 264l71 101l-284 363h86l243 -312l221 312h464z" />
    <glyph glyph-name="Y_T" horiz-adv-x="1041" 
d="M1019 728l12 -49h-2q-111 31 -201 31h-28v-710h-69v710h-28q-119 0 -178 -25l-207 -361v-324h-68v320l-237 408h79l217 -381l53 93q102 178 143 288h514z" />
    <glyph glyph-name="Z_A" horiz-adv-x="1061" 
d="M986 0l-94 241h-303l-95 -241h-489v4l417 706h-74q-210 0 -321 -28h-2l12 46h471v-4l-417 -706h89q213 0 314 36l270 687h4l293 -741h-75zM596 259h289l-144 368z" />
    <glyph glyph-name="Z_Z" horiz-adv-x="987" 
d="M445 48h2l-17 -48h-425v4l417 706h-74q-210 0 -321 -28h-2l12 46h471v-4l-417 -706h89q141 0 265 30zM976 48h2l-17 -48h-490v4l417 706h-74q-154 0 -265 -28h-2l12 46h415v-4l-418 -706h90q206 0 330 30z" />
    <glyph glyph-name="f_b" horiz-adv-x="918" 
d="M886 271q2 -122 -72.5 -203.5t-178.5 -79.5q-106 0 -176 75l-40 -64h-4v764q-65 24 -123 24q-126 0 -126 -164v-97h180l-14 -22h-166v-504h-63v504h-84v22h84v101q0 92 42 139.5t120 47.5q74 0 151 -36l58 32h4v-356q82 84 182 84q97 0 161.5 -75.5t64.5 -191.5zM816 262
q0 113 -49.5 181t-124.5 68q-43 0 -87 -21.5t-77 -60.5v-325q23 -46 64 -73t89 -27q80 0 132.5 71.5t52.5 186.5z" />
    <glyph glyph-name="f_h" horiz-adv-x="904" 
d="M848 351v-351h-63v347q0 61 -24 111q-23 51 -107 51q-94 0 -176 -81v-428h-63v763q-65 24 -123 24q-126 0 -126 -164v-97h180l-14 -22h-166v-504h-63v504h-84v22h84v101q0 92 42 139.5t120 47.5q74 0 151 -36l58 32h4v-362q96 90 203 90q167 0 167 -187z" />
    <glyph glyph-name="f_j" horiz-adv-x="538" 
d="M447 526l24 9h4v-562q0 -83 -49.5 -136t-135.5 -65l-4 12q59 11 92.5 60.5t33.5 126.5v533h-246v-504h-63v504h-84v22h84v101q0 92 41.5 139.5t119.5 47.5q50 0 105 -24l-4 -13q-34 10 -73 10q-126 0 -126 -164v-97h281zM497 713l-54 -54l-53 54l53 53z" />
    <glyph glyph-name="f_k" horiz-adv-x="839" 
d="M416 778l58 32h4v-810h-63v763q-65 24 -123 24q-126 0 -126 -164v-97h180l-14 -22h-166v-504h-63v504h-84v22h84v101q0 92 42 139.5t120 47.5q74 0 151 -36zM568 323l261 -254v-84h-4l-318 310l87 76q113 97 168 155h62v-2q-121 -80 -219 -168z" />
    <glyph glyph-name="f_t" horiz-adv-x="634" 
d="M632 40l8 -12q-64 -40 -127 -40q-77 0 -100 41q-22 40 -22 93v382h-225v-504h-63v504h-84v22h84v101q0 92 42 139.5t120 47.5q76 0 145 -39l-7 -12q-56 24 -111 24q-126 0 -126 -164v-97h219l65 162h4v-162h181l-14 -22h-167v-376q0 -46 16 -79q16 -34 73 -34q45 0 89 25
z" />
    <glyph glyph-name="k_s" horiz-adv-x="888" 
d="M59 787l60 23h4v-810h-64v787zM865 137q0 -67 -53 -108t-140 -41q-94 0 -168 33v44q76 -63 175 -63q61 0 99.5 30.5t38.5 79.5q0 30 -17 53q-26 33 -108 68l-40 18q-47 21 -79 39q-72 42 -72 115q0 60 48 96.5t124 36.5q94 0 171 -43l-12 -38q-74 67 -162 67
q-54 0 -87 -27t-33 -68q0 -29 18 -52q20 -22 41 -33l67 -31l40 -18q42 -18 76 -38q73 -42 73 -120zM250 356l-38 -34l261 -253v-84h-4l-318 310l88 76l101 90q32 30 66 65h62v-2q-121 -81 -218 -168z" />
    <glyph glyph-name="l_l" horiz-adv-x="369" 
d="M242 0v787l60 23h4v-810h-64zM63 0v737l59 23h4v-760h-63z" />
    <glyph glyph-name="r_v" horiz-adv-x="750" 
d="M700 526h49q-45 -94 -129 -293l-104 -245h-8l-207 489q-13 11 -40 11q-40 0 -76.5 -25.5t-61.5 -68.5v-394h-64v513l59 22h4v-116q68 117 169 117q27 0 58 -10l187 -444l67 157q86 202 97 287z" />
    <glyph glyph-name="r_w" horiz-adv-x="1024" 
d="M968 526h50q-44 -102 -117 -299l-89 -239h-8l-153 428l-153 -428h-8l-190 490q-13 10 -39 10q-40 0 -76.5 -25.5t-61.5 -68.5v-394h-64v513l59 22h4v-116q68 117 169 117q27 0 58 -10l168 -433l154 433h7l155 -430l51 139q72 193 84 291z" />
    <glyph glyph-name="r_y" horiz-adv-x="748" 
d="M695 526h48q-27 -59 -54 -127l-41 -99l-27 -68l-129 -317q-61 -149 -208 -149l4 48q20 -5 42 -5q44 0 83 27.5t60 79.5l35 85l-206 475q-12 12 -41 12q-40 0 -76.5 -25.5t-61.5 -68.5v-394h-64v513l59 22h4v-116q68 117 169 117q27 0 58 -10l192 -443l63 156
q80 200 91 287z" />
    <glyph glyph-name="t_t" horiz-adv-x="632" 
d="M631 40l8 -12q-65 -40 -128 -40q-77 0 -100 41q-22 40 -22 93v382h-225v-376q0 -44 15 -79q16 -34 73 -34q45 0 89 25l8 -12q-64 -40 -127 -40q-77 0 -100 41q-22 40 -22 93v382h-84v17l79 5l65 162h4v-162h220l65 162h4v-162h180l-14 -22h-166v-376q0 -44 15 -79
q16 -34 73 -34q44 0 90 25z" />
    <glyph glyph-name="zero.osf" horiz-adv-x="619" 
d="M42 302q0 144 73.5 232t195.5 88q119 0 192.5 -84.5t73.5 -227.5q0 -145 -73.5 -233.5t-194.5 -88.5q-119 0 -193 85t-74 229zM505 302q0 140 -52 222q-52 84 -146 84q-93 0 -143 -81q-50 -82 -50 -217q0 -141 52 -224q52 -84 147 -84q93 0 142 82q50 83 50 218z" />
    <glyph glyph-name="one.osf" horiz-adv-x="270" 
d="M195 619h4v-619h-63v513q-48 -32 -129 -61v12q50 22 101 63.5t87 91.5z" />
    <glyph glyph-name="two.osf" horiz-adv-x="490" 
d="M462 68l-20 -68h-418v4l62 52q111 94 161 141q121 114 121 227q0 72 -39 115.5t-106 43.5q-119 0 -186 -134l-13 6q30 66 80 116q50 51 141 51q86 0 140.5 -52t54.5 -136q0 -68 -40 -127q-40 -60 -105 -113q-66 -54 -189 -141l-7 -5h60q100 0 161 4q55 4 142 16z" />
    <glyph glyph-name="three.osf" horiz-adv-x="487" 
d="M20 -83l12 44q78 -75 176 -75q76 0 128 52t52 134q0 69 -51 119.5t-133 57.5l-40 3l-4 11l40 13q68 21 111.5 70t43.5 113q0 59 -36.5 93.5t-95.5 34.5q-56 0 -104.5 -27.5t-75.5 -67.5l-13 6q79 124 213 124q76 0 128 -40t52 -110q0 -60 -45 -109q-47 -51 -106 -73v-2
q75 -14 126.5 -68.5t51.5 -127.5q0 -101 -71 -161.5t-178 -60.5q-89 0 -181 47z" />
    <glyph glyph-name="four.osf" horiz-adv-x="514" 
d="M508 140l-13 -48h-102v-210h-64v210h-328l-4 13l386 512h10v-477h115zM52 140h277v364z" />
    <glyph glyph-name="five.osf" horiz-adv-x="474" 
d="M440 103q0 -102 -72 -167.5t-177 -65.5q-89 0 -175 45l12 42q71 -71 167 -71q79 0 132 55.5t53 139.5q0 97 -72 151.5t-210 54.5h-37l29 323h333l-16 -52h-297l-19 -210h27q156 0 239 -65.5t83 -179.5z" />
    <glyph glyph-name="six.osf" horiz-adv-x="526" 
d="M39 279q0 161 94.5 287t252.5 174l5 -15q-133 -45 -206 -166q-73 -119 -73 -283q0 -129 45.5 -201.5t126.5 -72.5q69 0 109 55t40 148q0 95 -42 150t-112 55q-64 0 -114 -41l-10 12q64 56 146 56q88 0 146.5 -60.5t58.5 -156.5q0 -102 -66 -167t-164 -65
q-106 0 -171.5 78t-65.5 213z" />
    <glyph glyph-name="seven.osf" horiz-adv-x="472" 
d="M22 610h441v-4l-269 -724h-68l301 676h-119q-202 0 -304 -24z" />
    <glyph glyph-name="eight.osf" horiz-adv-x="534" 
d="M498 189q0 -84 -68.5 -142.5t-169.5 -58.5q-92 0 -158 49t-66 127q0 148 169 206q-135 69 -135 185q0 76 57 130.5t147 54.5q81 0 137.5 -46.5t56.5 -113.5q0 -125 -148 -188q90 -38 134 -86.5t44 -116.5zM268 414l34 -14q108 64 108 174q0 66 -40 109t-103 43
q-64 0 -103 -42.5t-39 -107.5q0 -54 35 -92.5t108 -69.5zM443 166q0 105 -155 168l-50 21l-17 7q-62 -29 -94 -79.5t-32 -111.5q0 -71 52 -120t124 -49t122 47.5t50 116.5z" />
    <glyph glyph-name="nine.osf" horiz-adv-x="525" 
d="M139 -130l-5 15q132 45 205 165q74 122 74 284q0 129 -45.5 201.5t-126.5 72.5q-70 0 -110 -55t-40 -148q0 -95 41.5 -149.5t113.5 -54.5q66 0 113 40l10 -12q-61 -55 -142 -55q-89 0 -149 61t-60 156q0 102 66 166.5t165 64.5q106 0 171.5 -78t65.5 -213
q0 -161 -94.5 -287t-252.5 -174z" />
    <glyph glyph-name="zero.zero" horiz-adv-x="645" 
d="M599 369q0 -173 -75.5 -277t-202.5 -104q-123 0 -199 100.5t-76 270.5q0 173 75.5 277t201.5 104q123 0 199.5 -100.5t76.5 -270.5zM117 369q0 -117 27 -202l350 415q-56 144 -174 144q-98 0 -151 -98q-52 -97 -52 -259zM528 360q0 116 -27 202l-350 -415
q55 -145 174 -145q97 0 150 98t53 260z" />
    <glyph glyph-name="space.alt" horiz-adv-x="234" 
d="M117 227l-56 55l56 56l55 -56z" />
    <glyph glyph-name="percent.alt" horiz-adv-x="698" 
d="M565 728h17l-440 -728h-30l420 676q-74 -59 -155 -59q-35 0 -58 10q4 -15 4 -42q0 -80 -46.5 -143.5t-117.5 -63.5q-60 0 -95 40t-35 109q0 81 46.5 144t120.5 63q70 0 102 -54q28 -45 86 -45t106 24.5t75 68.5zM299 637q-39 22 -64 73q-18 5 -32 5q-61 0 -98 -56
t-37 -132q0 -62 27.5 -97.5t74.5 -35.5q58 0 96.5 58t38.5 133q0 28 -6 52zM670 201q0 -79 -46 -143t-117 -64q-61 0 -96 40.5t-35 109.5q0 80 46.5 143t120.5 63q58 0 92.5 -40t34.5 -109zM653 201q0 61 -28 95.5t-75 34.5q-61 0 -98 -55.5t-37 -131.5q0 -63 27.5 -98.5
t74.5 -35.5q59 0 97.5 58t38.5 133z" />
    </font>
</defs>
</svg>
